<svg width="45" height="47" viewBox="0 0 45 47" fill="none" xmlns="http://www.w3.org/2000/svg">
<path d="M21.7132 2.05627L21.0381 5.95816L21.8898 6.75136L25.8647 14.211H30.2749L25.6565 4.94914L26.0666 4.0043L21.7132 2.05627Z" fill="#ED1C24"/>
<path d="M41.0308 3.80014L43.5103 2.552V4.94912L41.0308 3.80014Z" fill="white"/>
<path d="M35.7573 13.4178L40.0981 4.47668L43.5115 6.2439L39.6312 14.211H35.7573V13.4178Z" fill="#ED1C24"/>
<path d="M34.7471 1.09973H31.542V4.00427H34.7471V1.09973Z" fill="#ED1C24"/>
<path d="M17.0681 2.99526L12.9292 1.09973L8.10886 1.9221L6.7145 4.09175L5.77441 7.43955L6.7145 10.6649L8.84705 12.298V13.7036H15.6611L16.2416 12.0705L17.8883 9.23594L18.7022 6.45388L17.0681 2.99526ZM12.2099 7.87699C11.9486 7.85814 11.7046 7.74889 11.5267 7.57104C11.3487 7.39319 11.2499 7.15982 11.2499 6.91755C11.2499 6.67528 11.3487 6.44193 11.5267 6.26408C11.7046 6.08623 11.9486 5.97697 12.2099 5.95813C12.353 5.94781 12.4969 5.96495 12.6325 6.00848C12.7681 6.05202 12.8924 6.121 12.9978 6.2111C13.1032 6.3012 13.1872 6.41047 13.2447 6.53204C13.3022 6.65362 13.3319 6.78487 13.3319 6.91755C13.3319 7.05024 13.3022 7.1815 13.2447 7.30307C13.1872 7.42465 13.1032 7.53391 12.9978 7.62401C12.8924 7.71411 12.7681 7.7831 12.6325 7.82663C12.4969 7.87017 12.353 7.88731 12.2099 7.87699Z" fill="#ED1C24"/>
<path d="M12.2108 5.9582C12.0044 5.95939 11.803 6.01728 11.6323 6.12452C11.4615 6.23175 11.3291 6.3835 11.2519 6.56046C11.1746 6.73742 11.1561 6.93162 11.1985 7.11836C11.2409 7.30511 11.3425 7.47598 11.4902 7.60925C11.6379 7.74253 11.8252 7.8322 12.0282 7.86686C12.2312 7.90152 12.4408 7.87962 12.6302 7.80393C12.8197 7.72824 12.9806 7.60217 13.0924 7.44177C13.2042 7.28136 13.2619 7.09384 13.2582 6.90305C13.2565 6.77743 13.2281 6.65335 13.1746 6.53788C13.1211 6.42241 13.0435 6.31782 12.9462 6.23008C12.849 6.14234 12.7339 6.07317 12.6078 6.02652C12.4816 5.97987 12.3467 5.95666 12.2108 5.9582Z" fill="white"/>
<path d="M44.1862 0.668131C43.9843 0.551483 43.8455 0.743957 43.713 0.837276C42.5332 1.64798 41.366 2.47618 40.1798 3.27522C39.7749 3.54891 39.4621 3.92301 39.2776 4.35422C37.9022 7.34041 36.5078 10.3149 35.1387 13.3011L35.0819 13.4178H31.025C31.0056 13.3859 30.9888 13.3528 30.9745 13.3186C30.7285 12.7995 30.4509 12.2863 30.1922 11.7672C29.7568 10.8923 29.7568 10.8923 30.8231 10.8807C31.6336 10.8598 32.4042 10.5513 32.9752 10.0192C33.5461 9.48706 33.8735 8.77214 33.8894 8.0228C33.8894 7.29958 33.8894 6.57053 33.8894 5.84731C33.8894 4.98411 33.8894 4.96662 34.8295 4.95495C35.2964 4.95495 35.4983 4.78581 35.4983 4.37171C35.4983 3.28689 35.4983 2.20789 35.4983 1.1289C35.4983 0.691466 35.3027 0.516493 34.8674 0.545656C33.7128 0.545656 32.5582 0.545656 31.4099 0.545656C30.8105 0.545656 30.7222 0.633136 30.7159 1.20471C30.7159 2.13401 30.7159 3.06136 30.7159 3.98677C30.7159 4.75665 30.5518 5.04827 31.738 4.99578C32.066 4.99578 32.3058 5.09493 32.3058 5.43904C32.3679 6.3946 32.332 7.35345 32.1985 8.30275C32.1664 8.5505 32.0492 8.7822 31.8641 8.96381C31.679 9.14542 31.4358 9.26737 31.1701 9.31176C30.6133 9.42533 30.0421 9.46655 29.4729 9.43424C29.3484 9.43366 29.2268 9.39902 29.1235 9.33467C29.0202 9.27032 28.9398 9.17914 28.8925 9.07263C28.3562 7.9878 27.8136 6.91464 27.2584 5.84147C27.0943 5.50903 27.1511 5.25823 27.517 5.12409C27.883 4.98994 28.3309 4.76248 28.7221 4.54085C28.9177 4.4417 29.2521 4.4242 29.2332 4.16757C29.2142 3.91095 28.9114 3.92845 28.7221 3.85263C28.1417 3.6135 27.5549 3.38604 26.9744 3.15274L21.9964 1.18139C21.4349 0.959754 21.3213 1.01224 21.1383 1.56049C21.05 1.84044 20.968 2.14373 20.8796 2.40619L19.6178 6.48887H19.5168C19.5168 6.38389 19.479 6.27891 19.4537 6.17392C18.6272 2.33037 14.8921 -0.0959095 10.8541 0.627309C9.73341 0.847731 8.68439 1.30852 7.79168 1.97254C6.89898 2.63655 6.18756 3.48521 5.71481 4.45006C5.24205 5.41491 5.02119 6.46895 5.07003 7.5272C5.11887 8.58544 5.43604 9.61828 5.99597 10.5424C6.47007 11.3453 7.12914 12.0422 7.92662 12.5837C8.07063 12.6789 8.179 12.8131 8.23667 12.9678C8.29434 13.1225 8.29844 13.29 8.2484 13.4469H5.90133V15.3366C5.72151 16.7055 5.70882 18.0887 5.86348 19.4601C5.92616 19.9341 5.81745 20.414 5.55432 20.8249C3.95175 23.4203 2.39966 26.0391 0.790789 28.652C0.475323 29.1769 0.513178 29.2353 1.16935 29.3752L5.80669 30.3609C6.5575 30.5242 6.57643 30.5417 6.57643 31.2591V38.7654C6.57643 39.8269 6.57642 39.8269 7.69317 39.8269H13.8069C14.5135 39.8269 14.5893 39.8969 14.5956 40.5443V45.636C14.5956 46.4642 14.6334 46.4992 15.5293 46.4992H33.0314H33.4856C33.5488 46.5029 33.6121 46.4938 33.6711 46.4726C33.7301 46.4514 33.7833 46.4185 33.8272 46.3763C33.871 46.3341 33.9044 46.2836 33.925 46.2283C33.9455 46.1729 33.9528 46.1141 33.9462 46.0559C33.9462 45.8868 33.9462 45.7176 33.9462 45.5485C33.9462 42.6323 33.9462 39.7161 33.9462 36.7999C33.9308 36.6242 33.9624 36.4476 34.0384 36.2859C34.1143 36.1241 34.2322 35.9822 34.3816 35.8725C35.4117 35.139 36.3702 34.3232 37.246 33.4346C39.4867 31.1079 41.1187 28.3361 42.0158 25.3334C42.5652 23.2132 42.7778 21.0304 42.6468 18.8536C42.6741 17.6548 42.6319 16.4555 42.5206 15.2608V13.4644H40.8928C40.9073 13.4182 40.9263 13.3733 40.9496 13.3303C41.9591 11.079 42.9749 8.82767 43.997 6.57636C44.1483 6.26595 44.2319 5.931 44.243 5.59068V1.14639C44.2935 0.948091 44.344 0.755617 44.1862 0.668131ZM31.984 2.73864C31.984 1.83461 32.0976 1.72963 33.0566 1.7238C34.0156 1.71796 34.1481 1.82878 34.1481 2.70947C34.1481 3.59017 34.0409 3.72432 33.0818 3.72432C32.1228 3.72432 31.9903 3.62516 31.984 2.73864ZM21.0437 13.3653C21.013 12.8878 21.0555 12.4087 21.1699 11.9422C21.2723 11.6136 21.4982 11.3296 21.8071 11.1414C22.116 10.9532 22.4874 10.8731 22.8545 10.9157C22.9372 10.9269 23.0152 10.9582 23.0806 11.0063C23.146 11.0545 23.1964 11.1178 23.2267 11.1898C23.5926 11.9305 23.9523 12.6771 24.3182 13.4178H21.0437C21.0406 13.4004 21.0406 13.3827 21.0437 13.3653ZM28.4445 12.0355C28.6122 12.4987 28.8234 12.9476 29.0754 13.3769V13.4178H26.1731C25.8135 12.6887 25.4539 11.9655 25.1006 11.2423C24.9744 11.0032 25.1006 10.8923 25.3529 10.8865C25.6053 10.8807 26.047 10.8865 26.5517 10.8865C27.5423 10.6357 28.1353 11.079 28.4445 12.0355ZM21.7377 5.20574L22.2677 3.45602C22.2752 3.40118 22.2976 3.34899 22.3328 3.30434C22.3681 3.25969 22.415 3.22404 22.4692 3.20073C22.5234 3.17742 22.5832 3.16721 22.6428 3.17106C22.7025 3.1749 22.7601 3.19268 22.8103 3.22273L24.9744 4.08009C25.1889 4.16758 25.2709 4.29006 25.0249 4.4417C24.7788 4.59334 24.8293 4.79748 24.9365 5.02494C25.5675 6.26141 26.1984 7.49205 26.7852 8.72268C26.9303 9.0143 26.9934 9.17762 26.9303 9.27677C26.0959 9.41753 25.2409 9.41753 24.4065 9.27677C24.0974 9.09013 22.9049 6.65802 22.5138 5.82981C22.4128 5.61985 22.3055 5.43904 21.9964 5.49736C21.6872 5.55569 21.6746 5.38071 21.7377 5.20574ZM19.1509 9.00264C19.1935 8.82212 19.2838 8.65415 19.4137 8.51371C19.5436 8.37328 19.7091 8.26473 19.8954 8.19777C20.2613 8.04613 20.6146 7.87115 20.968 7.70201C21.023 7.66855 21.0859 7.64764 21.1514 7.641C21.2168 7.63435 21.2831 7.64216 21.3447 7.6638C21.4063 7.68543 21.4614 7.72027 21.5056 7.76544C21.5498 7.81061 21.5818 7.86483 21.5989 7.92365C21.7566 8.26193 21.927 8.6002 22.0973 8.93265C22.2677 9.2651 22.1794 9.34676 21.845 9.44007C21.1697 9.62247 20.5682 9.98576 20.1162 10.4841C19.5745 11.1 19.3122 11.8861 19.3843 12.6771C19.4044 12.9236 19.4044 13.1712 19.3843 13.4178H16.2297C16.18 13.2544 16.1874 13.0808 16.2508 12.9215C16.3143 12.7623 16.4305 12.6257 16.583 12.5312C17.3577 11.9793 18.0018 11.2866 18.4758 10.4957C18.7774 10.0307 19.0048 9.52778 19.1509 9.00264ZM9.80049 13.2311C9.87333 12.8039 9.8 12.3662 9.59074 11.9793C9.38148 11.5925 9.04674 11.2756 8.63326 11.0731C8.02371 10.662 7.52971 10.1217 7.19268 9.49754C6.85566 8.87343 6.68544 8.1837 6.69631 7.48622C6.5753 6.15006 7.02866 4.82363 7.95817 3.7943C8.78783 2.86779 9.96737 2.26735 11.2579 2.11457C12.0751 1.97804 12.9149 2.01192 13.7161 2.21373C14.5173 2.41554 15.2597 2.78018 15.889 3.28105C16.88 4.06316 17.5191 5.15944 17.6808 6.35473C17.911 7.69765 17.5646 9.07056 16.7155 10.1808C16.2945 10.7019 15.7673 11.1418 15.1634 11.4756C14.9703 11.5668 14.8125 11.7111 14.712 11.8887C14.6114 12.0663 14.5729 12.2684 14.6019 12.4671C14.6019 12.6654 14.6019 12.8695 14.6019 13.0503C14.6026 13.1681 14.579 13.2849 14.5325 13.3944H13.0245V13.3186C13.0245 12.7354 13.0245 12.1113 13.0245 11.5106C13.0245 10.974 13.0245 10.4316 13.0245 9.88916C13.0136 9.72865 13.0501 9.56841 13.1301 9.4256C13.2101 9.28279 13.3307 9.16279 13.4788 9.07846C13.8244 8.88683 14.1117 8.61717 14.3136 8.29479C14.5156 7.97241 14.6256 7.60789 14.6334 7.23543C14.631 6.73661 14.4556 6.25165 14.1332 5.85172C13.8107 5.45178 13.358 5.15792 12.8416 5.01327C12.3095 4.8873 11.7471 4.9304 11.2447 5.13562C10.7424 5.34085 10.3292 5.69627 10.0718 6.14476C9.8054 6.55254 9.70724 7.03551 9.79534 7.50486C9.88343 7.97421 10.1519 8.39838 10.5513 8.69936C10.8807 8.92577 11.1362 9.23172 11.2898 9.58361C11.4434 9.93549 11.4891 10.3197 11.422 10.694C11.3652 11.5397 11.422 12.3913 11.422 13.2428C11.4255 13.3011 11.4255 13.3595 11.422 13.4178H9.8131C9.8131 13.3594 9.81941 13.3186 9.82572 13.2311H9.80049ZM12.1476 6.49471C12.2436 6.48789 12.3402 6.50017 12.4307 6.53072C12.5212 6.56126 12.6036 6.60937 12.6724 6.67181C12.7411 6.73424 12.7946 6.80956 12.8292 6.89269C12.8638 6.97582 12.8788 7.06484 12.8731 7.15376C12.8839 7.23602 12.8756 7.31946 12.8487 7.39851C12.8219 7.47756 12.7771 7.55042 12.7174 7.61222C12.6577 7.67403 12.5844 7.72336 12.5025 7.75695C12.4206 7.79053 12.3318 7.8076 12.2422 7.807C12.1446 7.81874 12.0453 7.81165 11.9508 7.78619C11.8563 7.76073 11.7685 7.71746 11.693 7.65908C11.6174 7.6007 11.5558 7.5285 11.5119 7.44701C11.4681 7.36553 11.443 7.27653 11.4381 7.18562C11.4333 7.09472 11.449 7.00388 11.484 6.91883C11.5191 6.83377 11.5728 6.75635 11.6418 6.69144C11.7108 6.62653 11.7936 6.57555 11.885 6.54169C11.9764 6.50783 12.0744 6.49183 12.1728 6.49471H12.1476ZM40.6783 23.5895C40.0935 26.5514 38.6918 29.3237 36.6088 31.6382C35.4614 32.9275 34.1307 34.0674 32.6528 35.0268C32.5035 35.1249 32.3859 35.2587 32.3125 35.4138C32.2392 35.569 32.2129 35.7396 32.2364 35.9075C32.2364 38.606 32.2364 41.3083 32.2364 44.0146C32.2364 44.8719 32.2364 44.8953 31.2711 44.8953H17.2581C16.3369 44.8953 16.3117 44.8661 16.3117 43.9971V38.9462C16.3117 38.293 16.236 38.223 15.5356 38.223H9.1317C8.36827 38.223 8.30518 38.1647 8.30518 37.4531V30.1743C8.30518 29.2178 8.30518 29.2236 7.30831 29.0078L3.79402 28.2671C3.16309 28.1329 3.12523 28.0863 3.43439 27.573C4.57848 25.6717 5.72887 23.7722 6.88558 21.8748C7.09379 21.5248 7.302 21.1749 7.51651 20.8249C7.68044 20.5197 7.72503 20.1714 7.6427 19.8392C7.46403 18.551 7.43652 17.2486 7.56068 15.9549C7.59853 15.4475 7.85091 15.3075 8.36196 15.3133C11.0687 15.3133 13.7754 15.3133 16.482 15.3133H39.9716C40.7981 15.3133 40.9432 15.395 40.9432 16.1415C40.9685 18.6378 41.2335 21.1224 40.7035 23.5895H40.6783ZM42.0032 6.90298C41.0568 8.95598 40.1104 11.0207 39.2334 13.097C39.189 13.2025 39.1341 13.3041 39.0694 13.4003H36.9621C37.0125 13.272 37.0883 13.1028 37.1892 12.887C38.2618 10.5852 39.3323 8.27748 40.4006 5.96396C40.7035 5.29906 40.7477 5.28739 41.4606 5.61401C42.4323 6.0806 42.4196 6.01062 42.0032 6.90298Z" fill="#231F20" stroke="#231F20" stroke-miterlimit="10"/>
<g style="mix-blend-mode:multiply" opacity="0.15">
<path d="M35.7572 14.2109C35.7572 14.2109 39.3535 23.2978 31.9716 30.1101C28.2932 33.5162 27.0124 42.8889 28.432 46.015H33.9464V36.7532L37.2461 33.3879L40.0601 29.7135L42.016 25.2867L42.6469 18.8069L42.5207 13.4177L35.7572 14.2109Z" fill="#010101"/>
</g>
<g style="mix-blend-mode:multiply" opacity="0.15">
<path d="M40.3999 5.98145L38.3936 14.6134L43.5104 6.2439L40.3999 5.98145Z" fill="#010101"/>
</g>
<g style="mix-blend-mode:multiply" opacity="0.15">
<path d="M24.1099 3.12952L26.6841 15.3309L30.2741 15.3251L26.9238 3.12952H24.1099Z" fill="#010101"/>
</g>
<g style="mix-blend-mode:multiply" opacity="0.15">
<path d="M34.7534 1.09973L31.542 4.00427H34.7534V1.09973Z" fill="#010101"/>
</g>
<g style="mix-blend-mode:multiply" opacity="0.15">
<path d="M15.9076 3.28687C15.9076 3.28687 15.5038 8.46021 14.2609 10.2858C13.018 12.1113 14.2609 14.6017 14.2609 14.6017L16.242 12.0588L17.8888 9.23592L19.4282 6.15641L15.9076 3.28687Z" fill="#010101"/>
</g>
</svg>
