<svg version="1.2" xmlns="http://www.w3.org/2000/svg" viewBox="0 0 167 167" width="167" height="167"><style>.a{fill:#ec1c24}.b{fill:#fefefe}.c{opacity:.1;mix-blend-mode:multiply;fill:#050505}</style><path class="a" d="m45.6 34c0 6.5-5.2 11.7-11.7 11.7-6.4 0-11.7-5.2-11.7-11.7 0-6.5 5.3-11.7 11.7-11.7 6.5 0 11.7 5.2 11.7 11.7z"/><path class="a" d="m45.6 134c0 6.5-5.2 11.7-11.7 11.7-6.4 0-11.7-5.2-11.7-11.7 0-6.5 5.3-11.7 11.7-11.7 6.5 0 11.7 5.2 11.7 11.7z"/><path class="a" d="m145.6 34c0 6.5-5.2 11.7-11.7 11.7-6.4 0-11.7-5.2-11.7-11.7 0-6.5 5.3-11.7 11.7-11.7 6.5 0 11.7 5.2 11.7 11.7z"/><path class="a" d="m145.6 134c0 6.5-5.2 11.7-11.7 11.7-6.4 0-11.7-5.2-11.7-11.7 0-6.5 5.3-11.7 11.7-11.7 6.5 0 11.7 5.2 11.7 11.7z"/><path class="a" d="m100.6 98.9h-34.7v-32.5h34.7z"/><path fill-rule="evenodd" d="m66.2 64.4l2.7 2.6-2.9 2.9-16.3-17.1q-3.7-3.7-7.4-7.4c-0.5-0.6-0.8-0.4-1.4 0l-0.2 0.1c-3.3 1.9-7.3 2.4-10.9 1.2-3.5-1.2-6.5-3.9-8-7.4-2.1-4.7-1-10.6 2.5-14.2 3.9-4 9.4-5.2 14.4-3.3 5.1 2 8.3 6.7 8.4 12.1 0.1 2.8-0.6 5.2-1.9 7.2-0.5 0.7-0.4 1 0.3 1.7 2.5 2.5 16.4 17.2 18.9 19.7l1.8 1.9zm-32.1-39.4q0 0 0 0c-5 0-9.3 4.2-9.3 9.2 0 2.3 0.9 4.6 2.6 6.3 1.8 1.7 4.2 2.7 6.6 2.7q0 0 0 0c5 0 9.1-4 9.1-9 0-4.9-4.2-9.2-9-9.2z"/><path fill-rule="evenodd" d="m100 69.8l-2.5-2.6 2.9-2.9 13.9-14.3q3.7-3.7 7.5-7.4c0.5-0.5 0.4-0.8 0-1.5-2.3-4.2-2.6-8.8-0.6-12.7 1.9-4 5.7-6.7 10.4-7.4 3.2-0.5 6.7 0.5 9.5 2.6 2.9 2.3 4.7 5.5 5.1 9 0.4 3.6-0.7 7.3-3.1 10.2-2.3 2.6-5.5 4.3-8.8 4.5-3.3 0.2-6-0.5-8.3-2-0.6-0.4-0.9-0.3-1.3 0.2q-3.7 3.7-7.4 7.4l-17.3 17.6zm33.1-26.5q0 0 0 0c5 0 9.1-4.1 9.1-9.1 0-2.4-0.9-4.7-2.7-6.4-1.7-1.8-4-2.8-6.4-2.8q0 0 0 0c-2.4 0-4.7 1-6.4 2.7-1.8 1.8-2.8 4.1-2.8 6.5 0 5 4.1 9.1 9.2 9.1z"/><path fill-rule="evenodd" d="m66.4 98.9l2.6 2.6-2.9 2.9-13.2 12.8q-3.8 3.8-7.5 7.5c-0.6 0.6-0.6 1-0.2 1.7 2.8 4.9 2.5 10.7-0.8 14.9-2.5 3.4-6.4 5.2-10.4 5.2q-1.9 0-3.8-0.6c-5.4-1.5-9.1-6.1-9.4-11.7-0.3-5.1 1.7-9.3 6-12 4.3-2.8 9.1-2.9 13.7-0.4 1.1 0.6 1.6 0.4 2.4-0.4 3.8-3.8 19.1-18.8 22.9-22.6l0.6-0.6zm-32.5 25.1q0 0 0 0c-2.4 0-4.7 1.1-6.5 2.8-1.7 1.8-2.7 4.1-2.6 6.5 0.1 5 4.2 9 9.2 9q0 0 0.1 0c4.9 0 9-4.2 9-9.1-0.1-5.1-4.1-9.2-9.2-9.2z"/><path fill-rule="evenodd" d="m145.8 136.6c-1.4 5.5-5.2 8.8-10.7 9.7q-1.2 0.2-2.4 0.2c-4.2 0-7.7-1.9-10.3-5.5-3-4.3-3.4-8.9-1.1-13.7l0.1-0.1c0.9-1.8 0.9-1.8-0.6-3.3l-19.8-19.6-0.3-0.2-2.6-2.6 2.5-2.6v-0.7l0.6 0.6 15.9 15.6q3.7 3.7 7.5 7.5c0.5 0.5 0.8 0.6 1.5 0.2 5.1-3 10.1-2.8 14.8 0.6 4.5 3.1 6.4 8.5 4.9 13.9zm-12.6-12.5q0 0 0 0c-5.1 0.1-9.2 4.1-9.3 9.1 0 2.4 1 4.7 2.7 6.5 1.7 1.7 4.1 2.7 6.5 2.7q0 0 0 0c2.4 0 4.7-1 6.4-2.7 1.8-1.8 2.7-4.1 2.7-6.5 0-4.8-4.2-9.1-9-9.1z"/><path fill-rule="evenodd" class="b" d="m83.8 86.6q0.7 1.7 1.3 3.3c0.1 0.3 0.2 0.6 0.2 0.9 0.1 0.8-0.5 1.5-1.3 1.7-0.7 0.2-1.5-0.1-1.9-0.8-0.3-0.6-0.5-1.3-0.8-2-0.1-0.3-0.3-0.4-0.7-0.4q-2.6 0-5.1 0c-0.4 0-0.6 0.1-0.7 0.4q-0.3 0.8-0.6 1.6c-0.4 1.1-1.4 1.5-2.3 1.2-1-0.4-1.4-1.4-1-2.4q2.5-6.5 5.1-12.9 0.2-0.5 0.3-1c0.4-0.8 0.9-1.3 1.8-1.3 0.7 0 1.3 0.4 1.7 1.3q2 5.2 4 10.4zm-4.2-1.2q-0.7-1.9-1.5-3.8 0 0-0.1 0-0.8 1.9-1.5 3.9c-0.1 0.2 0 0.3 0.2 0.3q1.3-0.1 2.7 0c0.2 0 0.3-0.1 0.2-0.4z"/><path class="b" d="m88.3 89.1c-1 0-1.8 0.8-1.8 1.8 0 0.9 0.8 1.7 1.8 1.7q1.2 0 2.3 0 1.2 0 2.3 0c1.1 0 1.8-0.7 1.8-1.7 0-1.1-0.7-1.7-1.8-1.8-0.4 0-0.5-0.1-0.5-0.5q0-4.9 0-9.8c0-0.4 0.1-0.5 0.5-0.5 1.1 0 1.8-0.7 1.8-1.7 0-1-0.7-1.7-1.8-1.7q-2.3 0-4.5 0c-1.1 0-1.9 0.7-1.9 1.7 0 1 0.8 1.7 1.8 1.7 0.5 0 0.6 0.2 0.6 0.6q0 4.8 0 9.6c0 0.5-0.1 0.6-0.6 0.6z"/><path class="a" d="m78.1 81.6q0 0-0.1 0-0.8 1.9-1.5 3.9c-0.1 0.2 0 0.3 0.2 0.3q1.3-0.1 2.7 0c0.2 0 0.3-0.1 0.2-0.4q-0.7-1.9-1.5-3.8z"/><path fill-rule="evenodd" d="m49.9 85.7c0 0-14.1 0-22.1 0q0 0 0 0c-1 0-1.3 0.3-1.6 1.3-1.7 5.8-5.5 9.1-11.3 9.8q-0.9 0.1-1.8 0.1c-4.4 0-8-2-10.6-5.8-2.8-4.1-3.1-8.6-1-13.1 2.6-5.2 7.5-7.9 13.6-7.4 5.2 0.5 9.7 4.5 11.1 10 0.3 0.8 0.6 1.1 1.5 1.1q0 0 0 0c9 0 22.2 0 22.2 0zm-27.3-1.9c0-1.5-0.4-3-1.1-4.3q-0.6-1.2-1.5-2.2c-1.7-1.7-4-2.7-6.3-2.7q-0.1 0-0.2 0c-2.5 0-4.8 1-6.6 2.7-1.7 1.7-2.6 3.9-2.6 6.2 0 5.2 3.8 9.2 9 9.2 4.8 0 8.7-3.4 9.2-7.9q0-0.1 0-0.1 0.1-0.4 0.1-0.9z"/><path fill-rule="evenodd" d="m166.6 86c-1 5.7-5.4 10-10.9 10.7q-1.1 0.2-2.1 0.2c-6.1 0-11.2-3.9-12.8-10-0.2-0.9-0.5-1.2-1.5-1.2q0 0 0 0c-9 0-22.3 0-22.3 0v-4c0 0 13.7 0 22.4 0q0 0 0 0c1 0 1.2-0.4 1.5-1.2 1.1-4.1 3.9-7.4 7.6-9 3.6-1.5 7.8-1.3 11.5 0.7 4.8 2.6 7.6 8.4 6.6 13.8zm-3.9-2.4c0-4.9-4.1-9-9-9q0 0 0 0c-5 0-9.2 4.1-9.3 9q0 0.9 0.2 1.8c0.4 1.8 1.2 3.4 2.5 4.7 1.8 1.7 4.1 2.7 6.5 2.7q0 0 0.1 0c2.4 0 4.7-1 6.4-2.7 1.7-1.7 2.6-4 2.6-6.5z"/><path class="c" d="m96.6 68.6l-10.9 33.7 16.4-0.1-2.1-32.4z"/><path class="c" d="m138.7 26.3c0 0 1.9 3.5-0.9 11.2-3 8.4-5.6 8.9-5.6 8.9l5.8-2.2 5.4-4.2 1.9-8.4-2-5.7z"/><path class="c" d="m89.3 5.8c0 0 1.9 3.5-0.9 11.2-3.1 8.4-5.6 8.9-5.6 8.9l5.7-2.2 5.4-4.2 2-8.4-2-5.7z"/><path class="c" d="m38.2 26.3c0 0 1.9 3.5-0.9 11.2-3 8.4-5.6 8.9-5.6 8.9l5.8-2.2 5.4-4.2 1.9-8.4-2-5.7z"/><path class="c" d="m18.2 75.6c0 0 1.9 3.5-0.9 11.3-3 8.3-5.6 8.8-5.6 8.8l5.7-2.2 5.4-4.2 2-8.4-2-5.7z"/><path class="c" d="m39.5 125.2c0 0 1.9 3.5-0.9 11.2-3 8.4-5.6 8.9-5.6 8.9l5.8-2.2 5.4-4.2 1.9-8.4-2-5.7z"/><path class="c" d="m88.1 145.7c0 0 1.9 3.5-0.9 11.2-3 8.4-5.6 8.9-5.6 8.9l5.8-2.2 5.4-4.2 1.9-8.4-2-5.7z"/><path class="c" d="m138.7 125.2c0 0 1.9 3.5-0.9 11.2-3 8.4-5.6 8.9-5.6 8.9l5.8-2.2 5.4-4.2 1.9-8.4-2-5.7z"/><path class="c" d="m158.9 75.9c0 0 1.9 3.5-0.9 11.3-3 8.3-5.6 8.8-5.6 8.8l5.8-2.2 5.3-4.2 2-8.4-2-5.7z"/><path fill-rule="evenodd" d="m85.5 50h-4c0-10 0-14.8 0-22.2 0-0.8-0.3-1.1-1.2-1.4-6.6-1.6-10.6-7.7-9.8-14.7 0.6-6.1 6.3-11.1 12.6-11.3 6.6-0.1 12.3 4.4 13.4 11 1.2 6.8-2.8 13.1-9.6 15-1.1 0.3-1.4 0.7-1.4 1.9 0 6.8 0 11.5 0 21.7zm-2-27.2c2.4 0 4.7-1 6.4-2.7 1.7-1.7 2.7-4 2.7-6.5 0-5.1-4-9.1-9.1-9.1q0 0 0 0c-5 0-9.1 4.1-9.1 9.2 0 2.4 1 4.7 2.7 6.4 1.8 1.7 4 2.7 6.4 2.7q0 0 0 0z"/><path fill-rule="evenodd" d="m102.1 67.1v35.1h-1.8v0.1h-12.7q-0.7 0-1.3 0h-4.8q0-0.1 0-0.3c-0.5 0-13 0-13 0 0-0.4 0 0-0.4-0.1q-0.6-0.3-1.1-0.7v0.1h-2.1v-34.9h1v-1.5h12.2v0.1h10.8v-0.1h12.2v2.2zm-3.5 29.4q0-4 0-8v-2.2q0-0.7 0-1.4v-14.3q0-0.1 0-0.1c0-1.1-0.8-1.8-2.1-1.9h-25.8q-0.4 0-0.8 0.1c-1 0.2-1.5 0.8-1.6 1.8q0 0.2 0 0.4 0 12.8 0 25.6c0 1.6 0.7 2.4 2.3 2.4q12.9 0 25.7 0c1.4 0 2.3-0.7 2.3-2.4z"/><path fill-rule="evenodd" d="m96.8 153.8c0.1 5.8-3.9 11-9.7 12.7q-1.8 0.5-3.6 0.5c-5.7 0-11-3.8-12.7-9.6-1-3.3-0.5-6.9 1.2-10 1.7-3.1 4.4-5.2 7.7-6.1 1.5-0.5 1.8-1.1 1.8-2.6 0-6.6 0-11.1 0-21.4h4v9.2c0 4.2 0 8.5 0 12.8 0 1.1 0.3 1.5 1.3 1.8 5.9 1.5 9.9 6.6 10 12.7zm-4.2 0.1c0-5.2-4.1-9.2-9.2-9.3q0 0-0.1 0c-2.2 0-4.4 1-6.1 2.7-1.7 1.7-2.8 4.1-2.8 6.5 0 5.1 4.1 9.1 9.2 9.1 5 0 9-4 9-9z"/><path  d="m66.9 102.3h14.6v-1h-14.6z"/></svg>