<svg width="1723" height="796" viewBox="0 0 1723 796" fill="none" xmlns="http://www.w3.org/2000/svg">
<path d="M160.799 602.059C104.364 568.33 75.0403 511.554 67.4326 487.381C51.5258 432.572 29.2563 309.799 67.4326 257.182C115.153 191.411 286.324 108.775 465.794 59.0254C645.265 9.27541 1099.65 -4.21612 1395.31 108.775C1690.96 221.767 1694.08 369.33 1694.08 424.14C1694.08 467.987 1635.98 545.282 1606.94 578.449L1671.25 771.547L1320.61 719.267C1239.35 742.034 1020.8 787.062 796.725 785.038C516.627 782.508 231.342 644.22 160.799 602.059Z" fill="white" stroke="black"/>
<mask id="path-2-inside-1_501_603" fill="white">
<path d="M1693.48 794.889C1690.45 795.201 1687.36 795.201 1684.33 794.889C1529.82 761.531 1345.5 729.051 1311.62 737.39C1169.15 776.647 1015.79 796.589 860.971 795.987C386.607 795.987 0 617.345 0 397.884C0 178.422 386.268 0 860.971 0C1335.67 0 1721.94 178.642 1721.94 397.884C1721.52 458.346 1693.2 517.346 1640.62 567.308C1621.65 586.181 1666.37 687.353 1719.91 769.871C1722.03 773.204 1722.62 776.864 1721.6 780.409C1720.57 783.953 1717.99 787.23 1714.15 789.842C1711.4 791.533 1708.15 792.85 1704.6 793.717C1701.05 794.584 1697.27 794.982 1693.48 794.889ZM861.31 36.4307C418.457 36.4307 58.2791 198.174 58.2791 396.787C58.2791 595.399 418.457 757.361 861.31 757.361C1008.22 758.069 1153.78 739.168 1288.91 701.838C1339.4 687.353 1524.4 721.37 1643.67 745.73C1607.08 683.403 1556.59 581.134 1592.85 545.362C1638.99 501.459 1663.99 449.676 1664.68 396.567C1664.68 198.174 1304.16 36.4307 861.31 36.4307Z"/>
</mask>
<path d="M1693.48 794.889C1690.45 795.201 1687.36 795.201 1684.33 794.889C1529.82 761.531 1345.5 729.051 1311.62 737.39C1169.15 776.647 1015.79 796.589 860.971 795.987C386.607 795.987 0 617.345 0 397.884C0 178.422 386.268 0 860.971 0C1335.67 0 1721.94 178.642 1721.94 397.884C1721.52 458.346 1693.2 517.346 1640.62 567.308C1621.65 586.181 1666.37 687.353 1719.91 769.871C1722.03 773.204 1722.62 776.864 1721.6 780.409C1720.57 783.953 1717.99 787.23 1714.15 789.842C1711.4 791.533 1708.15 792.85 1704.6 793.717C1701.05 794.584 1697.27 794.982 1693.48 794.889ZM861.31 36.4307C418.457 36.4307 58.2791 198.174 58.2791 396.787C58.2791 595.399 418.457 757.361 861.31 757.361C1008.22 758.069 1153.78 739.168 1288.91 701.838C1339.4 687.353 1524.4 721.37 1643.67 745.73C1607.08 683.403 1556.59 581.134 1592.85 545.362C1638.99 501.459 1663.99 449.676 1664.68 396.567C1664.68 198.174 1304.16 36.4307 861.31 36.4307Z" fill="#010101"/>
<path d="M1693.48 794.889L1693.5 793.889L1693.44 793.888L1693.38 793.894L1693.48 794.889ZM1684.33 794.889L1684.12 795.867L1684.17 795.878L1684.23 795.884L1684.33 794.889ZM1311.62 737.39L1311.38 736.419L1311.36 736.423L1311.35 736.426L1311.62 737.39ZM860.971 795.987L860.975 794.987H860.971V795.987ZM1721.94 397.884L1722.94 397.891V397.884H1721.94ZM1640.62 567.308L1639.93 566.583L1639.93 566.591L1639.92 566.599L1640.62 567.308ZM1719.91 769.871L1720.75 769.334L1720.75 769.327L1719.91 769.871ZM1714.15 789.842L1714.67 790.694L1714.69 790.682L1714.71 790.669L1714.15 789.842ZM861.31 757.361L861.314 756.361H861.31V757.361ZM1288.91 701.838L1289.18 702.802L1289.19 702.799L1288.91 701.838ZM1643.67 745.73L1643.47 746.71L1645.67 747.159L1644.53 745.224L1643.67 745.73ZM1592.85 545.362L1592.16 544.637L1592.15 544.643L1592.14 544.65L1592.85 545.362ZM1664.68 396.567L1665.68 396.58V396.567H1664.68ZM1693.38 793.894C1690.42 794.199 1687.4 794.199 1684.43 793.894L1684.23 795.884C1687.33 796.203 1690.48 796.203 1693.58 795.884L1693.38 793.894ZM1684.54 793.912C1607.28 777.23 1522.55 760.767 1452.9 749.516C1418.08 743.891 1387.01 739.566 1362.52 737.17C1350.27 735.972 1339.66 735.254 1331.04 735.099C1322.44 734.943 1315.75 735.344 1311.38 736.419L1311.86 738.361C1315.96 737.352 1322.43 736.943 1331.01 737.098C1339.55 737.253 1350.11 737.965 1362.32 739.161C1386.75 741.551 1417.78 745.868 1452.58 751.49C1522.19 762.734 1606.88 779.19 1684.12 795.867L1684.54 793.912ZM1311.35 736.426C1168.98 775.658 1015.71 795.589 860.975 794.987L860.968 796.987C1015.87 797.589 1169.33 777.636 1311.88 738.354L1311.35 736.426ZM860.971 794.987C623.901 794.987 408.807 750.345 253.019 678.325C97.144 606.266 1 506.989 1 397.884H-1C-1 508.24 96.1595 608.014 252.179 680.141C408.285 752.307 623.677 796.987 860.971 796.987V794.987ZM1 397.884C1 288.778 97.0595 189.556 252.891 117.552C408.638 45.5866 623.731 1 860.971 1V-1C623.508 -1 408.116 43.6245 252.053 115.736C96.0746 187.808 -1 287.527 -1 397.884H1ZM860.971 1C1098.21 1 1313.3 45.6414 1469.05 117.634C1624.88 189.666 1720.94 288.888 1720.94 397.884H1722.94C1722.94 287.637 1625.87 187.918 1469.89 115.818C1313.83 43.6794 1098.43 -1 860.971 -1V1ZM1720.94 397.876C1720.52 458.014 1692.35 516.768 1639.93 566.583L1641.31 568.033C1694.04 517.924 1722.51 458.678 1722.94 397.891L1720.94 397.876ZM1639.92 566.599C1637.32 569.186 1635.89 573.094 1635.39 577.943C1634.89 582.804 1635.3 588.727 1636.49 595.49C1638.87 609.019 1644.39 626.089 1652.15 645.101C1667.68 683.137 1692.28 729.115 1719.07 770.415L1720.75 769.327C1694.01 728.11 1669.47 682.243 1654 644.345C1646.26 625.39 1640.81 608.471 1638.46 595.143C1637.29 588.478 1636.91 582.756 1637.38 578.149C1637.86 573.53 1639.19 570.148 1641.33 568.017L1639.92 566.599ZM1719.07 770.408C1721.05 773.519 1721.57 776.884 1720.63 780.131L1722.56 780.686C1723.66 776.844 1723.02 772.889 1720.75 769.334L1719.07 770.408ZM1720.63 780.131C1719.69 783.399 1717.28 786.499 1713.59 789.015L1714.71 790.669C1718.69 787.96 1721.45 784.507 1722.56 780.686L1720.63 780.131ZM1713.63 788.99C1710.97 790.62 1707.83 791.9 1704.36 792.746L1704.84 794.688C1708.48 793.8 1711.82 792.446 1714.67 790.694L1713.63 788.99ZM1704.36 792.746C1700.9 793.591 1697.21 793.981 1693.5 793.889L1693.46 795.889C1697.33 795.984 1701.2 795.577 1704.84 794.688L1704.36 792.746ZM861.31 35.4307C639.775 35.4307 438.872 75.8842 293.315 141.217C220.538 173.882 161.553 212.787 120.749 256.005C79.9407 299.228 57.2791 346.81 57.2791 396.787H59.2791C59.2791 347.457 81.6396 300.342 122.204 257.378C162.772 214.409 221.51 175.638 294.134 143.041C439.379 77.8488 639.991 37.4307 861.31 37.4307V35.4307ZM57.2791 396.787C57.2791 446.763 79.9407 494.359 120.749 537.602C161.553 580.841 220.537 619.773 293.315 652.466C438.872 717.853 639.775 758.361 861.31 758.361V756.361C639.991 756.361 439.379 715.889 294.134 650.641C221.51 618.017 162.772 579.219 122.204 536.23C81.6397 493.245 59.2791 446.117 59.2791 396.787H57.2791ZM861.305 758.361C1008.3 759.069 1153.95 740.158 1289.18 702.802L1288.65 700.874C1153.61 738.179 1008.14 757.069 861.314 756.361L861.305 758.361ZM1289.19 702.799C1301.63 699.23 1322.51 698.625 1348.81 700.158C1375.08 701.688 1406.64 705.339 1440.36 710.207C1507.8 719.941 1583.84 734.531 1643.47 746.71L1643.87 744.75C1584.23 732.569 1508.14 717.97 1440.64 708.227C1406.89 703.356 1375.28 699.696 1348.93 698.161C1322.63 696.629 1301.44 697.203 1288.64 700.876L1289.19 702.799ZM1644.53 745.224C1626.25 714.079 1604.52 673.001 1591.89 635.27C1585.57 616.402 1581.55 598.428 1581.35 582.983C1581.14 567.534 1584.76 554.751 1593.55 546.073L1592.14 544.65C1582.81 553.859 1579.14 567.274 1579.35 583.009C1579.56 598.748 1583.65 616.944 1589.99 635.905C1602.69 673.834 1624.5 715.054 1642.81 746.236L1644.53 745.224ZM1593.54 546.086C1639.84 502.038 1664.99 450.011 1665.68 396.58L1663.68 396.554C1663 449.341 1638.15 500.88 1592.16 544.637L1593.54 546.086ZM1665.68 396.567C1665.68 346.645 1643 299.103 1602.16 255.911C1561.32 212.725 1502.29 173.841 1429.47 141.189C1283.83 75.8842 1082.84 35.4307 861.31 35.4307V37.4307C1082.63 37.4307 1283.33 77.8487 1428.66 143.014C1501.32 175.597 1560.1 214.347 1600.7 257.286C1641.3 300.219 1663.68 347.292 1663.68 396.567H1665.68Z" fill="black" mask="url(#path-2-inside-1_501_603)"/>
<path d="M269.887 347.172V347.71C268.812 349.287 267.487 350.075 265.91 350.075C264.692 350.075 263.652 349.537 262.793 348.463C262.147 345.883 257.382 341.69 248.495 335.885C239.68 330.08 233.839 327.178 230.973 327.178C230.471 327.178 229.826 327.178 229.037 327.178C228.034 327.249 227.353 327.285 226.995 327.285V331.478C226.995 332.911 227.174 334.81 227.532 337.175C227.891 340.042 228.285 341.798 228.715 342.442C230.005 344.162 230.65 345.237 230.65 345.667C230.65 346.958 230.148 348.033 229.145 348.893C228.142 349.681 226.995 350.075 225.705 350.075C222.982 350.075 220.868 349.107 219.362 347.172C217.929 345.453 217.212 338.358 217.212 325.888C215.708 325.888 214.131 325.422 212.482 324.49C210.619 323.343 209.688 322.125 209.688 320.835C209.688 318.183 212.088 316.284 216.89 315.138C217.177 312.916 217.427 309.87 217.642 306C217.786 301.628 217.965 298.582 218.18 296.863C218.61 294.569 219.147 291.129 219.792 286.543H218.933C216.066 286.614 214.632 285.36 214.632 282.78C214.632 280.558 215.492 279.161 217.212 278.588C218.431 278.229 219.649 277.871 220.867 277.513C222.301 276.223 223.412 275.398 224.2 275.04C225.06 274.61 226.386 274.395 228.177 274.395C229.467 274.395 230.112 274.968 230.112 276.115C230.112 276.473 231.008 276.652 232.8 276.652C241.185 276.652 248.316 278.337 254.192 281.705C261.431 285.79 265.05 291.702 265.05 299.442C265.05 305.391 263.187 310.3 259.46 314.17C256.952 316.822 252.508 319.796 246.13 323.093C251.218 326.318 256.271 329.543 261.287 332.768C267.092 337.139 269.959 341.941 269.887 347.172ZM255.16 299.012C255.16 294.426 252.831 290.95 248.172 288.585C244.446 286.65 240.074 285.683 235.057 285.683C234.412 285.683 232.872 285.79 230.435 286.005C230.507 288.585 229.826 293.028 228.393 299.335C227.604 303.133 227.067 308.688 226.78 315.998C230.937 317.431 233.517 318.148 234.52 318.148C235.38 318.148 236.634 317.897 238.282 317.395C243.012 315.962 246.882 313.776 249.893 310.838C253.404 307.469 255.16 303.527 255.16 299.012ZM312.857 339.54C312.857 343.123 310.421 345.918 305.547 347.925C301.749 349.502 297.771 350.29 293.615 350.29C282.578 350.29 277.06 344.019 277.06 331.478C277.06 326.318 278.314 320.584 280.822 314.277C283.904 306.538 287.631 302.668 292.002 302.668C295.944 302.668 300.172 304.423 304.687 307.935C309.274 311.447 311.567 315.102 311.567 318.9C311.567 323.63 309.453 327.393 305.225 330.188C301.498 332.696 297.055 333.95 291.895 333.95C290.891 333.95 289.279 333.341 287.057 332.123C287.344 338.931 289.351 342.335 293.077 342.335C296.231 342.335 299.312 341.439 302.322 339.647C305.404 337.856 307.375 336.96 308.235 336.96C311.316 336.96 312.857 337.82 312.857 339.54ZM301.14 319.223C301.14 317.431 300.602 315.747 299.527 314.17C298.524 312.522 297.162 311.697 295.442 311.697C293.077 311.697 291.25 312.737 289.96 314.815C288.885 316.607 288.347 318.721 288.347 321.158C288.347 322.519 288.813 323.63 289.745 324.49C290.676 325.35 291.859 325.78 293.292 325.78C298.524 325.78 301.14 323.594 301.14 319.223ZM356.254 283.64C356.254 285.217 356.039 287.259 355.609 289.768C355.035 293.136 354.677 295.143 354.534 295.788C354.319 298.009 353.96 304.567 353.459 315.46C353.029 326.353 352.814 332.373 352.814 333.52C352.814 340.4 353.566 345.56 355.071 349C353.853 351.007 352.455 352.01 350.879 352.01C349.23 352.01 347.761 351.365 346.471 350.075C345.181 348.857 344.465 347.423 344.321 345.775C340.953 348.857 337.513 350.397 334.001 350.397C328.77 350.397 324.72 348.57 321.854 344.915C319.202 341.618 317.876 337.283 317.876 331.908C317.876 325.601 319.166 319.187 321.746 312.665C325.043 304.423 329.343 300.303 334.646 300.303C337.8 300.303 341.025 301.7 344.321 304.495C344.68 301.127 344.859 292.527 344.859 278.695C344.859 277.405 345.826 276.76 347.761 276.76C350.055 276.76 352.025 277.333 353.674 278.48C355.394 279.627 356.254 281.347 356.254 283.64ZM343.784 320.082C343.784 317.646 343.246 315.424 342.171 313.418C340.81 310.981 339.018 309.763 336.796 309.763C333.571 309.763 331.099 312.952 329.379 319.33C328.089 323.917 327.444 328.432 327.444 332.875C327.444 339.54 329.379 342.873 333.249 342.873C337.262 342.873 340.165 339.898 341.956 333.95C343.175 329.937 343.784 325.314 343.784 320.082ZM422.571 347.172V347.71C421.496 349.287 420.17 350.075 418.594 350.075C417.375 350.075 416.336 349.537 415.476 348.463C414.831 345.883 410.065 341.69 401.179 335.885C392.364 330.08 386.523 327.178 383.656 327.178C383.154 327.178 382.509 327.178 381.721 327.178C380.718 327.249 380.037 327.285 379.679 327.285V331.478C379.679 332.911 379.858 334.81 380.216 337.175C380.574 340.042 380.969 341.798 381.399 342.442C382.689 344.162 383.334 345.237 383.334 345.667C383.334 346.958 382.832 348.033 381.829 348.893C380.825 349.681 379.679 350.075 378.389 350.075C375.665 350.075 373.551 349.107 372.046 347.172C370.613 345.453 369.896 338.358 369.896 325.888C368.391 325.888 366.814 325.422 365.166 324.49C363.303 323.343 362.371 322.125 362.371 320.835C362.371 318.183 364.772 316.284 369.574 315.138C369.86 312.916 370.111 309.87 370.326 306C370.469 301.628 370.649 298.582 370.864 296.863C371.294 294.569 371.831 291.129 372.476 286.543H371.616C368.749 286.614 367.316 285.36 367.316 282.78C367.316 280.558 368.176 279.161 369.896 278.588C371.114 278.229 372.333 277.871 373.551 277.513C374.984 276.223 376.095 275.398 376.884 275.04C377.744 274.61 379.069 274.395 380.861 274.395C382.151 274.395 382.796 274.968 382.796 276.115C382.796 276.473 383.692 276.652 385.484 276.652C393.869 276.652 400.999 278.337 406.876 281.705C414.114 285.79 417.734 291.702 417.734 299.442C417.734 305.391 415.87 310.3 412.144 314.17C409.635 316.822 405.192 319.796 398.814 323.093C403.902 326.318 408.954 329.543 413.971 332.768C419.776 337.139 422.643 341.941 422.571 347.172ZM407.844 299.012C407.844 294.426 405.514 290.95 400.856 288.585C397.129 286.65 392.758 285.683 387.741 285.683C387.096 285.683 385.555 285.79 383.119 286.005C383.19 288.585 382.509 293.028 381.076 299.335C380.288 303.133 379.75 308.688 379.464 315.998C383.62 317.431 386.2 318.148 387.204 318.148C388.064 318.148 389.318 317.897 390.966 317.395C395.696 315.962 399.566 313.776 402.576 310.838C406.088 307.469 407.844 303.527 407.844 299.012ZM465.541 339.54C465.541 343.123 463.104 345.918 458.231 347.925C454.433 349.502 450.455 350.29 446.298 350.29C435.262 350.29 429.743 344.019 429.743 331.478C429.743 326.318 430.998 320.584 433.506 314.277C436.588 306.538 440.314 302.668 444.686 302.668C448.628 302.668 452.856 304.423 457.371 307.935C461.958 311.447 464.251 315.102 464.251 318.9C464.251 323.63 462.137 327.393 457.908 330.188C454.182 332.696 449.738 333.95 444.578 333.95C443.575 333.95 441.963 333.341 439.741 332.123C440.028 338.931 442.034 342.335 445.761 342.335C448.914 342.335 451.996 341.439 455.006 339.647C458.088 337.856 460.058 336.96 460.918 336.96C464 336.96 465.541 337.82 465.541 339.54ZM453.823 319.223C453.823 317.431 453.286 315.747 452.211 314.17C451.208 312.522 449.846 311.697 448.126 311.697C445.761 311.697 443.933 312.737 442.643 314.815C441.568 316.607 441.031 318.721 441.031 321.158C441.031 322.519 441.497 323.63 442.428 324.49C443.36 325.35 444.543 325.78 445.976 325.78C451.208 325.78 453.823 323.594 453.823 319.223ZM508.185 323.415C508.185 330.725 506.895 336.924 504.315 342.013C501.09 348.606 496.216 351.902 489.695 351.902C486.183 351.902 483.173 350.899 480.665 348.893C480.665 349.681 480.665 350.756 480.665 352.117C480.665 353.694 480.665 354.769 480.665 355.342C480.665 362.222 481.453 367.633 483.03 371.575C483.746 373.152 484.105 374.155 484.105 374.585C484.105 377.022 482.671 378.24 479.805 378.24C477.655 378.24 476.042 377.846 474.967 377.057C474.179 376.556 473.391 374.764 472.602 371.682C471.957 368.959 471.635 366.881 471.635 365.447V339.54C471.635 337.175 471.778 333.95 472.065 329.865C472.351 325.278 472.531 322.089 472.602 320.298C472.674 318.506 472.674 316.141 472.602 313.203C472.531 309.476 472.495 307.075 472.495 306C472.495 299.908 474.501 296.863 478.515 296.863C479.518 296.863 480.45 297.221 481.31 297.938C482.17 298.583 482.6 299.371 482.6 300.303C482.6 301.879 482.421 304.746 482.062 308.902C484.857 304.961 488.226 302.99 492.167 302.99C497.471 302.99 501.556 305.14 504.422 309.44C506.931 313.167 508.185 317.825 508.185 323.415ZM498.617 322.447C498.617 314.708 496.969 310.838 493.672 310.838C492.239 310.838 490.376 312.235 488.082 315.03C483.639 320.405 481.202 327.823 480.772 337.282C481.561 337.713 482.958 339.218 484.965 341.798C486.541 343.733 488.118 344.7 489.695 344.7C495.643 344.7 498.617 337.283 498.617 322.447ZM568.086 339.54C568.086 343.123 565.649 345.918 560.776 347.925C556.977 349.502 553 350.29 548.843 350.29C537.807 350.29 532.288 344.019 532.288 331.478C532.288 326.318 533.542 320.584 536.051 314.277C539.132 306.538 542.859 302.668 547.231 302.668C551.172 302.668 555.401 304.423 559.916 307.935C564.502 311.447 566.796 315.102 566.796 318.9C566.796 323.63 564.682 327.393 560.453 330.188C556.727 332.696 552.283 333.95 547.123 333.95C546.12 333.95 544.507 333.341 542.286 332.123C542.572 338.931 544.579 342.335 548.306 342.335C551.459 342.335 554.541 341.439 557.551 339.647C560.632 337.856 562.603 336.96 563.463 336.96C566.545 336.96 568.086 337.82 568.086 339.54ZM556.368 319.223C556.368 317.431 555.831 315.747 554.756 314.17C553.752 312.522 552.391 311.697 550.671 311.697C548.306 311.697 546.478 312.737 545.188 314.815C544.113 316.607 543.576 318.721 543.576 321.158C543.576 322.519 544.042 323.63 544.973 324.49C545.905 325.35 547.087 325.78 548.521 325.78C553.752 325.78 556.368 323.594 556.368 319.223ZM585.897 346.098C585.897 347.388 585.36 348.463 584.285 349.322C583.281 350.254 582.099 350.72 580.737 350.72C576.222 350.72 573.965 344.807 573.965 332.982C573.965 327.607 574.001 319.545 574.072 308.795C574.216 298.045 574.287 289.983 574.287 284.608C574.287 283.748 574.18 282.493 573.965 280.845C573.75 279.197 573.642 277.978 573.642 277.19C576.007 275.613 577.871 274.825 579.232 274.825C580.809 274.825 582.314 275.363 583.747 276.438C585.181 277.441 585.897 278.731 585.897 280.308C585.897 281.096 585.718 282.028 585.36 283.103C584.858 284.823 584.571 285.754 584.5 285.898C583.568 290.341 583.102 296.647 583.102 304.817C583.102 317.789 583.102 324.454 583.102 324.812C583.317 333.843 584.07 340.149 585.36 343.733C585.718 344.736 585.897 345.524 585.897 346.098ZM626.203 339.54C626.203 343.123 623.766 345.918 618.893 347.925C615.095 349.502 611.117 350.29 606.96 350.29C595.924 350.29 590.405 344.019 590.405 331.478C590.405 326.318 591.66 320.584 594.168 314.277C597.25 306.538 600.976 302.668 605.348 302.668C609.29 302.668 613.518 304.423 618.033 307.935C622.62 311.447 624.913 315.102 624.913 318.9C624.913 323.63 622.799 327.393 618.57 330.188C614.844 332.696 610.4 333.95 605.24 333.95C604.237 333.95 602.625 333.341 600.403 332.123C600.69 338.931 602.696 342.335 606.423 342.335C609.576 342.335 612.658 341.439 615.668 339.647C618.75 337.856 620.72 336.96 621.58 336.96C624.662 336.96 626.203 337.82 626.203 339.54ZM614.485 319.223C614.485 317.431 613.948 315.747 612.873 314.17C611.87 312.522 610.508 311.697 608.788 311.697C606.423 311.697 604.595 312.737 603.305 314.815C602.23 316.607 601.693 318.721 601.693 321.158C601.693 322.519 602.159 323.63 603.09 324.49C604.022 325.35 605.205 325.78 606.638 325.78C611.87 325.78 614.485 323.594 614.485 319.223ZM666.415 307.828C666.415 312.988 664.766 320.871 661.47 331.478C657.6 343.661 653.837 349.753 650.182 349.753C644.951 349.753 640.292 344.628 636.207 334.38C633.699 328.002 631.656 320.548 630.08 312.02C629.721 309.942 629.542 308.329 629.542 307.183C629.542 306.036 630.044 305.033 631.047 304.172C632.122 303.241 633.233 302.775 634.38 302.775C635.741 302.775 637.856 303.814 640.722 305.893C640.221 307.541 639.97 308.938 639.97 310.085C639.97 313.955 640.901 319.008 642.765 325.242C644.7 331.478 646.778 336.172 649 339.325V339.647C651.58 339.647 653.586 334.774 655.02 325.027C656.023 318.363 656.525 312.271 656.525 306.753C656.525 305.678 657.062 304.746 658.137 303.957C659.284 303.169 660.395 302.775 661.47 302.775C664.766 302.775 666.415 304.459 666.415 307.828ZM706.163 330.725C706.163 339.97 705.876 346.492 705.303 350.29C704.944 352.512 703.439 353.622 700.788 353.622C696.774 353.622 694.983 351.616 695.413 347.603C691.829 349.323 688.103 350.182 684.233 350.182C680.506 350.182 676.959 349.251 673.59 347.388C669.577 345.166 667.57 342.335 667.57 338.895C667.57 335.527 669.864 332.373 674.45 329.435C678.607 326.783 682.513 325.457 686.168 325.457H695.305V322.878C695.377 315.353 693.155 311.59 688.64 311.59C682.979 311.59 680.148 314.242 680.148 319.545C680.148 321.337 679.144 322.232 677.138 322.232C675.919 322.232 674.629 321.695 673.268 320.62C671.978 319.473 671.333 318.291 671.333 317.072C671.333 313.059 672.766 309.763 675.633 307.183C678.499 304.603 681.939 303.312 685.953 303.312C699.426 303.312 706.163 312.45 706.163 330.725ZM695.305 334.595C695.305 333.162 694.23 332.445 692.08 332.445C683.122 332.445 678.643 334.559 678.643 338.788C678.643 341.081 680.614 342.228 684.555 342.228C686.992 342.228 689.285 341.547 691.435 340.185C694.015 338.68 695.305 336.817 695.305 334.595ZM736.464 310.515C736.464 312.45 733.49 313.812 727.542 314.6C727.399 316.177 727.327 319.76 727.327 325.35V332.445C727.327 333.878 727.542 335.993 727.972 338.788C728.474 341.583 728.724 343.661 728.724 345.022C728.724 346.169 728.151 347.208 727.004 348.14C725.858 349 724.711 349.43 723.564 349.43C721.773 349.43 720.268 347.889 719.049 344.808C718.118 342.443 717.652 340.149 717.652 337.928V315.138C714.355 314.636 712.456 314.313 711.954 314.17C710.091 313.597 709.159 312.773 709.159 311.697C709.159 311.411 709.231 311.088 709.374 310.73C711.238 308.078 713.316 306.753 715.609 306.753C715.753 306.753 715.968 306.753 716.254 306.753C716.541 306.824 716.756 306.86 716.899 306.86C718.404 306.86 719.121 305.104 719.049 301.593V293.745C718.619 292.957 718.404 292.276 718.404 291.703C718.404 290.771 718.942 289.947 720.017 289.23C721.164 288.442 722.239 288.047 723.242 288.047C724.747 288.047 726.18 288.764 727.542 290.198C728.904 291.559 729.584 293.028 729.584 294.605C729.584 296.325 729.298 298.045 728.724 299.765C728.223 301.413 728.008 303.133 728.079 304.925V305.355C733.669 305.928 736.464 307.648 736.464 310.515ZM774.267 339.54C774.267 343.123 771.831 345.918 766.957 347.925C763.159 349.502 759.182 350.29 755.025 350.29C743.988 350.29 738.47 344.019 738.47 331.478C738.47 326.318 739.724 320.584 742.232 314.277C745.314 306.538 749.041 302.668 753.412 302.668C757.354 302.668 761.582 304.423 766.097 307.935C770.684 311.447 772.977 315.102 772.977 318.9C772.977 323.63 770.863 327.393 766.635 330.188C762.908 332.696 758.465 333.95 753.305 333.95C752.302 333.95 750.689 333.341 748.467 332.123C748.754 338.931 750.761 342.335 754.487 342.335C757.641 342.335 760.722 341.439 763.732 339.647C766.814 337.856 768.785 336.96 769.645 336.96C772.727 336.96 774.267 337.82 774.267 339.54ZM762.55 319.223C762.55 317.431 762.012 315.747 760.937 314.17C759.934 312.522 758.572 311.697 756.852 311.697C754.487 311.697 752.66 312.737 751.37 314.815C750.295 316.607 749.757 318.721 749.757 321.158C749.757 322.519 750.223 323.63 751.155 324.49C752.087 325.35 753.269 325.78 754.702 325.78C759.934 325.78 762.55 323.594 762.55 319.223ZM814.909 338.143C814.909 341.511 813.476 344.449 810.609 346.958C807.456 349.681 803.227 351.042 797.924 351.042C795.631 351.114 793.158 350.648 790.507 349.645C781.907 346.42 777.607 343.804 777.607 341.798C777.607 338.644 779.864 337.067 784.379 337.067C785.024 337.067 785.705 337.103 786.422 337.175C786.637 339.325 788.357 341.045 791.582 342.335C794.377 343.482 797.064 343.948 799.644 343.733C801.722 343.589 802.762 342.837 802.762 341.475C802.762 341.26 802.69 340.938 802.547 340.508C802.475 340.078 802.439 339.755 802.439 339.54C802.439 339.253 801.077 338.68 798.354 337.82C795.272 336.888 793.552 336.351 793.194 336.208C785.024 331.334 780.939 325.458 780.939 318.578C780.939 314.421 782.122 310.587 784.487 307.075C787.138 303.205 790.435 301.27 794.377 301.27C797.315 301.27 800.647 302.417 804.374 304.71C808.172 307.003 810.502 309.476 811.362 312.128C811.935 313.991 812.222 315.532 812.222 316.75C812.222 318.04 812.042 319.115 811.684 319.975C811.254 321.05 810.824 322.125 810.394 323.2C809.032 324.132 807.671 324.598 806.309 324.598C805.592 324.598 804.374 324.168 802.654 323.308C801.006 322.376 800.182 321.588 800.182 320.943C800.182 320.656 800.612 319.724 801.472 318.148C801.973 317.216 802.224 316.428 802.224 315.783C802.224 311.483 800.54 309.333 797.172 309.333C795.165 309.333 793.624 310.623 792.549 313.203C791.761 315.209 791.367 317.359 791.367 319.652C791.367 322.519 793.409 325.099 797.494 327.393C801.221 329.041 804.983 330.725 808.782 332.445C812.867 334.308 814.909 336.208 814.909 338.143ZM865.212 310.515C865.212 312.45 862.238 313.812 856.29 314.6C856.147 316.177 856.075 319.76 856.075 325.35V332.445C856.075 333.878 856.29 335.993 856.72 338.788C857.222 341.583 857.472 343.661 857.472 345.022C857.472 346.169 856.899 347.208 855.752 348.14C854.606 349 853.459 349.43 852.312 349.43C850.521 349.43 849.016 347.889 847.797 344.808C846.866 342.443 846.4 340.149 846.4 337.928V315.138C843.103 314.636 841.204 314.313 840.702 314.17C838.839 313.597 837.907 312.773 837.907 311.697C837.907 311.411 837.979 311.088 838.122 310.73C839.986 308.078 842.064 306.753 844.357 306.753C844.501 306.753 844.716 306.753 845.002 306.753C845.289 306.824 845.504 306.86 845.647 306.86C847.152 306.86 847.869 305.104 847.797 301.593V293.745C847.367 292.957 847.152 292.276 847.152 291.703C847.152 290.771 847.69 289.947 848.765 289.23C849.912 288.442 850.987 288.047 851.99 288.047C853.495 288.047 854.928 288.764 856.29 290.198C857.652 291.559 858.332 293.028 858.332 294.605C858.332 296.325 858.046 298.045 857.472 299.765C856.971 301.413 856.756 303.133 856.827 304.925V305.355C862.417 305.928 865.212 307.648 865.212 310.515ZM903.694 330.725C903.694 339.97 903.407 346.492 902.834 350.29C902.476 352.512 900.971 353.622 898.319 353.622C894.306 353.622 892.514 351.616 892.944 347.603C889.361 349.323 885.634 350.182 881.764 350.182C878.037 350.182 874.49 349.251 871.122 347.388C867.108 345.166 865.102 342.335 865.102 338.895C865.102 335.527 867.395 332.373 871.982 329.435C876.138 326.783 880.044 325.457 883.699 325.457H892.837V322.878C892.908 315.353 890.687 311.59 886.172 311.59C880.51 311.59 877.679 314.242 877.679 319.545C877.679 321.337 876.676 322.232 874.669 322.232C873.451 322.232 872.161 321.695 870.799 320.62C869.509 319.473 868.864 318.291 868.864 317.072C868.864 313.059 870.297 309.763 873.164 307.183C876.031 304.603 879.471 303.312 883.484 303.312C896.957 303.312 903.694 312.45 903.694 330.725ZM892.837 334.595C892.837 333.162 891.762 332.445 889.612 332.445C880.653 332.445 876.174 334.559 876.174 338.788C876.174 341.081 878.145 342.228 882.087 342.228C884.523 342.228 886.817 341.547 888.967 340.185C891.547 338.68 892.837 336.817 892.837 334.595ZM947.352 338.143C947.352 341.511 945.919 344.449 943.053 346.958C939.899 349.681 935.671 351.042 930.367 351.042C928.074 351.114 925.602 350.648 922.95 349.645C914.35 346.42 910.05 343.804 910.05 341.798C910.05 338.644 912.307 337.067 916.822 337.067C917.467 337.067 918.148 337.103 918.865 337.175C919.08 339.325 920.8 341.045 924.025 342.335C926.82 343.482 929.507 343.948 932.088 343.733C934.166 343.589 935.205 342.837 935.205 341.475C935.205 341.26 935.133 340.938 934.99 340.508C934.918 340.078 934.883 339.755 934.883 339.54C934.883 339.253 933.521 338.68 930.797 337.82C927.716 336.888 925.996 336.351 925.637 336.208C917.467 331.334 913.382 325.458 913.382 318.578C913.382 314.421 914.565 310.587 916.93 307.075C919.582 303.205 922.878 301.27 926.82 301.27C929.758 301.27 933.091 302.417 936.817 304.71C940.616 307.003 942.945 309.476 943.805 312.128C944.378 313.991 944.665 315.532 944.665 316.75C944.665 318.04 944.486 319.115 944.127 319.975C943.697 321.05 943.267 322.125 942.837 323.2C941.476 324.132 940.114 324.598 938.752 324.598C938.036 324.598 936.818 324.168 935.098 323.308C933.449 322.376 932.625 321.588 932.625 320.943C932.625 320.656 933.055 319.724 933.915 318.148C934.417 317.216 934.668 316.428 934.668 315.783C934.668 311.483 932.983 309.333 929.615 309.333C927.608 309.333 926.067 310.623 924.992 313.203C924.204 315.209 923.81 317.359 923.81 319.652C923.81 322.519 925.852 325.099 929.938 327.393C933.664 329.041 937.427 330.725 941.225 332.445C945.31 334.308 947.352 336.208 947.352 338.143ZM994.948 352.333C992.225 354.339 990.075 355.342 988.498 355.342C986.42 355.342 983.41 353.192 979.468 348.893C976.673 345.883 973.914 342.837 971.191 339.755C969.614 337.892 967.106 335.276 963.666 331.908L963.343 332.123V341.583C963.343 342.156 963.558 343.016 963.988 344.163C964.49 345.238 964.741 346.098 964.741 346.743C964.741 347.746 964.203 348.606 963.128 349.322C962.125 350.111 961.086 350.505 960.011 350.505C958.147 350.505 956.606 349.896 955.388 348.678C954.17 347.459 953.561 345.918 953.561 344.055V329.865C953.561 329.005 953.668 327.715 953.883 325.995C954.17 324.203 954.313 322.878 954.313 322.018V293.1C954.313 288.728 953.991 285.217 953.346 282.565C953.059 281.347 952.916 280.415 952.916 279.77C952.916 278.408 953.74 277.19 955.388 276.115C956.821 275.112 958.255 274.61 959.688 274.61C960.763 274.61 961.91 275.04 963.128 275.9C964.418 276.688 965.063 277.584 965.063 278.588C965.063 278.874 964.848 279.878 964.418 281.598C963.988 283.318 963.773 285.969 963.773 289.553C963.773 290.699 963.666 300.267 963.451 318.255C963.737 317.968 967.607 314.421 975.061 307.613C981.224 301.879 984.843 299.012 985.918 299.012C989.716 299.012 991.544 301.342 991.401 306V307.075C988.319 308.867 984.341 311.698 979.468 315.568C973.305 320.369 970.223 323.558 970.223 325.135C970.223 325.278 972.158 327.536 976.028 331.908C979.683 336.064 981.976 338.644 982.908 339.647C987.208 344.163 991.221 347.244 994.948 348.893V352.333ZM1026.89 338.143C1026.89 341.511 1025.45 344.449 1022.59 346.958C1019.43 349.681 1015.2 351.042 1009.9 351.042C1007.61 351.114 1005.13 350.648 1002.48 349.645C993.883 346.42 989.583 343.804 989.583 341.798C989.583 338.644 991.841 337.067 996.356 337.067C997.001 337.067 997.682 337.103 998.398 337.175C998.613 339.325 1000.33 341.045 1003.56 342.335C1006.35 343.482 1009.04 343.948 1011.62 343.733C1013.7 343.589 1014.74 342.837 1014.74 341.475C1014.74 341.26 1014.67 340.938 1014.52 340.508C1014.45 340.078 1014.42 339.755 1014.42 339.54C1014.42 339.253 1013.05 338.68 1010.33 337.82C1007.25 336.888 1005.53 336.351 1005.17 336.208C997.001 331.334 992.916 325.458 992.916 318.578C992.916 314.421 994.098 310.587 996.463 307.075C999.115 303.205 1002.41 301.27 1006.35 301.27C1009.29 301.27 1012.62 302.417 1016.35 304.71C1020.15 307.003 1022.48 309.476 1023.34 312.128C1023.91 313.991 1024.2 315.532 1024.2 316.75C1024.2 318.04 1024.02 319.115 1023.66 319.975C1023.23 321.05 1022.8 322.125 1022.37 323.2C1021.01 324.132 1019.65 324.598 1018.29 324.598C1017.57 324.598 1016.35 324.168 1014.63 323.308C1012.98 322.376 1012.16 321.588 1012.16 320.943C1012.16 320.656 1012.59 319.724 1013.45 318.148C1013.95 317.216 1014.2 316.428 1014.2 315.783C1014.2 311.483 1012.52 309.333 1009.15 309.333C1007.14 309.333 1005.6 310.623 1004.53 313.203C1003.74 315.209 1003.34 317.359 1003.34 319.652C1003.34 322.519 1005.39 325.099 1009.47 327.393C1013.2 329.041 1016.96 330.725 1020.76 332.445C1024.84 334.308 1026.89 336.208 1026.89 338.143ZM1103.63 315.675C1103.63 322.125 1102.45 328.79 1100.09 335.67C1097 344.7 1092.92 349.215 1087.83 349.215C1083.03 349.215 1079.05 346.241 1075.9 340.292C1073.75 346.599 1070.34 349.753 1065.69 349.753C1059.74 349.753 1055.4 345.668 1052.68 337.498C1050.82 331.908 1049.88 325.35 1049.88 317.825C1049.88 313.095 1050.06 309.261 1050.42 306.322C1051.42 304.746 1052.75 303.957 1054.4 303.957C1055.83 303.957 1057.27 304.423 1058.7 305.355C1060.2 306.287 1060.96 307.398 1060.96 308.688C1060.96 309.619 1060.71 311.017 1060.2 312.88C1059.77 314.672 1059.56 316.033 1059.56 316.965C1059.56 332.732 1061.24 340.615 1064.61 340.615C1068.12 340.615 1070.42 336.243 1071.49 327.5C1071.85 324.203 1072.03 318.434 1072.03 310.193C1072.03 307.469 1073.61 306.107 1076.76 306.107C1080.27 306.107 1082.03 308.078 1082.03 312.02C1082.03 312.378 1081.95 312.88 1081.81 313.525C1081.74 314.17 1081.7 314.636 1081.7 314.923V327.07C1081.7 336.1 1083.35 340.615 1086.65 340.615C1089.44 340.615 1091.56 337.318 1092.99 330.725C1094.07 326.138 1094.6 321.659 1094.6 317.287C1094.6 313.561 1094.42 311.375 1094.07 310.73C1093.99 310.587 1093.6 310.157 1092.88 309.44C1092.45 308.867 1092.24 308.329 1092.24 307.828C1092.24 306.538 1092.81 305.391 1093.96 304.387C1095.11 303.313 1096.32 302.775 1097.61 302.775C1099.55 302.775 1101.09 304.495 1102.24 307.935C1103.17 310.587 1103.63 313.167 1103.63 315.675ZM1123.81 292.562C1123.81 294.139 1123.28 295.429 1122.2 296.433C1121.13 297.436 1119.8 297.938 1118.22 297.938C1116.36 297.938 1114.6 297.293 1112.96 296.003C1111.38 294.713 1110.59 293.136 1110.59 291.273C1110.59 289.696 1111.13 288.406 1112.2 287.402C1113.35 286.399 1114.75 285.898 1116.4 285.898C1118.33 285.898 1120.05 286.543 1121.56 287.832C1123.06 289.051 1123.81 290.628 1123.81 292.562ZM1122.85 307.613C1122.85 308.903 1122.56 310.73 1121.99 313.095C1121.41 315.46 1121.13 317.288 1121.13 318.578V340.723C1121.13 342.084 1121.52 344.234 1122.31 347.172C1121.23 348.821 1120.05 349.645 1118.76 349.645C1114.25 349.645 1111.77 347.388 1111.34 342.873C1110.63 334.487 1110.27 328.181 1110.27 323.953C1110.27 316.858 1110.56 310.909 1111.13 306.107C1111.06 305.749 1111.02 305.391 1111.02 305.033C1111.02 303.743 1112.02 303.098 1114.03 303.098C1115.82 303.098 1117.61 303.456 1119.41 304.172C1121.7 304.961 1122.85 306.108 1122.85 307.613ZM1150.76 310.515C1150.76 312.45 1147.79 313.812 1141.84 314.6C1141.69 316.177 1141.62 319.76 1141.62 325.35V332.445C1141.62 333.878 1141.84 335.993 1142.27 338.788C1142.77 341.583 1143.02 343.661 1143.02 345.022C1143.02 346.169 1142.45 347.208 1141.3 348.14C1140.15 349 1139.01 349.43 1137.86 349.43C1136.07 349.43 1134.56 347.889 1133.34 344.808C1132.41 342.443 1131.95 340.149 1131.95 337.928V315.138C1128.65 314.636 1126.75 314.313 1126.25 314.17C1124.39 313.597 1123.45 312.773 1123.45 311.697C1123.45 311.411 1123.53 311.088 1123.67 310.73C1125.53 308.078 1127.61 306.753 1129.9 306.753C1130.05 306.753 1130.26 306.753 1130.55 306.753C1130.84 306.824 1131.05 306.86 1131.19 306.86C1132.7 306.86 1133.42 305.104 1133.34 301.593V293.745C1132.91 292.957 1132.7 292.276 1132.7 291.703C1132.7 290.771 1133.24 289.947 1134.31 289.23C1135.46 288.442 1136.53 288.047 1137.54 288.047C1139.04 288.047 1140.48 288.764 1141.84 290.198C1143.2 291.559 1143.88 293.028 1143.88 294.605C1143.88 296.325 1143.59 298.045 1143.02 299.765C1142.52 301.413 1142.3 303.133 1142.37 304.925V305.355C1147.96 305.928 1150.76 307.648 1150.76 310.515ZM1188.84 350.72C1187.48 352.082 1185.69 352.762 1183.47 352.762C1181.96 352.762 1180.42 351.831 1178.84 349.967C1178.92 343.661 1178.95 338.788 1178.95 335.348C1178.95 319.438 1176.62 311.482 1171.96 311.482C1167.16 311.482 1164.76 317.897 1164.76 330.725C1164.76 331.442 1164.8 332.481 1164.87 333.843C1164.87 335.204 1164.87 336.243 1164.87 336.96C1164.87 338.035 1165.05 339.683 1165.41 341.905C1165.76 344.055 1165.94 345.668 1165.94 346.743C1165.94 347.674 1165.37 348.498 1164.22 349.215C1163.15 350.003 1162.15 350.397 1161.21 350.397C1159.42 350.397 1157.88 349.681 1156.59 348.247C1155.37 346.742 1154.76 345.094 1154.76 343.303L1155.41 281.168C1155.41 280.953 1155.37 280.666 1155.3 280.308C1155.23 279.949 1155.19 279.698 1155.19 279.555C1155.19 276.975 1156.63 275.685 1159.49 275.685C1160.86 275.685 1162.43 276.33 1164.22 277.62C1166.02 278.838 1166.91 280.093 1166.91 281.383C1166.91 282.959 1166.55 285.288 1165.84 288.37C1165.19 291.452 1164.87 293.781 1164.87 295.358C1164.87 297.364 1164.94 300.553 1165.08 304.925C1166.66 303.993 1167.99 303.527 1169.06 303.527C1171.86 303.527 1174.9 304.208 1178.2 305.57C1182.43 307.362 1185.37 310.264 1187.01 314.277C1188.23 317.288 1188.84 321.444 1188.84 326.748V350.72ZM1269.56 329.973C1269.56 333.413 1268.02 335.168 1264.93 335.24C1265.29 336.888 1266.08 339.11 1267.3 341.905C1267.23 343.482 1266.58 344.772 1265.36 345.775C1264.15 346.778 1262.71 347.28 1261.06 347.28C1259.77 347.28 1258.27 346.886 1256.55 346.098C1255.62 344.234 1255.15 342.013 1255.15 339.433C1255.15 338.788 1255.19 337.856 1255.26 336.638C1255.33 335.419 1255.37 334.523 1255.37 333.95C1255.37 334.452 1254.18 334.703 1251.82 334.703C1247.81 334.703 1243.04 334.882 1237.52 335.24C1229.64 335.67 1225.34 336.279 1224.62 337.067C1223.98 337.856 1223.55 341.69 1223.33 348.57C1222.4 349.932 1221.22 350.612 1219.78 350.612C1218.28 350.612 1216.74 350.003 1215.16 348.785C1213.59 347.495 1212.8 346.133 1212.8 344.7C1212.8 344.198 1213.44 342.192 1214.73 338.68C1216.17 333.592 1218.49 325.959 1221.72 315.783C1231.32 289.481 1239.31 276.33 1245.69 276.33C1251.93 276.33 1256.73 283.282 1260.1 297.185C1261.6 303.42 1263 312.988 1264.29 325.888C1266.15 326.318 1267.34 326.676 1267.84 326.963C1268.98 327.608 1269.56 328.611 1269.56 329.973ZM1254.51 325.888C1251.35 300.876 1248.52 288.37 1246.01 288.37C1244.01 288.37 1240.5 294.247 1235.48 306C1231.9 314.457 1229.07 321.803 1226.99 328.038C1229.28 327.536 1232.68 326.927 1237.2 326.21C1241.28 325.708 1247.05 325.601 1254.51 325.888ZM1293.2 282.027C1293.2 282.386 1292.87 283.174 1292.23 284.393C1291.94 284.966 1291.66 286.578 1291.37 289.23C1289.86 305.283 1289.11 319.366 1289.11 331.478C1289.11 334.631 1289.4 337.175 1289.97 339.11C1290.47 340.758 1291.51 343.016 1293.09 345.883C1293.16 346.026 1293.2 346.241 1293.2 346.528C1293.2 348.033 1291.44 348.785 1287.93 348.785H1286.96C1283.31 348.713 1281.09 345.775 1280.3 339.97C1279.29 332.875 1278.79 323.093 1278.79 310.623C1278.79 307.684 1278.83 303.277 1278.9 297.4C1279.04 291.452 1279.11 286.973 1279.11 283.963C1279.11 282.314 1279.97 280.738 1281.69 279.233C1283.41 277.728 1285.1 276.975 1286.75 276.975C1288.04 276.975 1289.43 277.513 1290.94 278.588C1292.44 279.663 1293.2 280.809 1293.2 282.027ZM1298.91 344.055C1298.91 342.407 1299.62 340.938 1301.06 339.647C1302.56 338.358 1304.28 337.713 1306.22 337.713C1308.3 337.713 1310.09 338.644 1311.59 340.508C1313.1 342.371 1313.85 344.7 1313.85 347.495C1313.85 350.505 1313.56 352.978 1312.99 354.913C1312.42 356.847 1311.41 358.711 1309.98 360.502C1308.55 362.366 1306.93 363.942 1305.14 365.232C1303.35 366.594 1301.74 367.275 1300.31 367.275C1299.16 367.132 1298.3 366.666 1297.73 365.877C1297.22 365.161 1297.37 364.301 1298.16 363.297C1299.59 362.509 1300.91 361.542 1302.13 360.395C1303.42 359.248 1304.35 357.779 1304.93 355.987C1305.29 354.984 1305.39 353.873 1305.25 352.655C1305.18 351.508 1304.53 350.541 1303.32 349.753C1302.1 348.964 1301.06 348.176 1300.2 347.388C1299.34 346.599 1298.91 345.488 1298.91 344.055ZM237.315 451.02C237.315 451.522 237.243 452.31 237.1 453.385C235.595 455.535 234.018 456.61 232.37 456.61C231.008 456.61 229.79 455.822 228.715 454.245C228.572 451.02 227.425 449.408 225.275 449.408C223.985 449.408 222.408 452.812 220.545 459.62C219.685 462.63 219.255 466.823 219.255 472.198C219.255 477.286 219.506 480.368 220.007 481.442C220.581 482.804 220.867 483.736 220.867 484.238C220.867 485.456 220.294 486.459 219.147 487.247C218.072 487.964 216.854 488.322 215.492 488.322C211.622 488.322 209.688 486.531 209.688 482.948C209.688 482.589 209.759 482.088 209.902 481.442C210.117 480.798 210.225 480.332 210.225 480.045C210.225 476.39 210.046 470.979 209.688 463.812C209.329 456.574 209.15 451.163 209.15 447.58C209.15 444.355 211.085 442.742 214.955 442.742C217.248 442.742 218.825 443.423 219.685 444.785C221.692 442.563 223.949 441.453 226.457 441.453C228.177 441.453 229.826 441.918 231.402 442.85C232.477 443.423 233.732 444.678 235.165 446.613C236.598 448.476 237.315 449.945 237.315 451.02ZM275.4 478.54C275.4 482.123 272.964 484.918 268.09 486.925C264.292 488.502 260.314 489.29 256.158 489.29C245.121 489.29 239.603 483.019 239.603 470.478C239.603 465.318 240.857 459.584 243.365 453.277C246.447 445.538 250.174 441.668 254.545 441.668C258.487 441.668 262.715 443.423 267.23 446.935C271.817 450.447 274.11 454.102 274.11 457.9C274.11 462.63 271.996 466.393 267.768 469.188C264.041 471.696 259.598 472.95 254.438 472.95C253.434 472.95 251.822 472.341 249.6 471.123C249.887 477.931 251.894 481.335 255.62 481.335C258.774 481.335 261.855 480.439 264.865 478.647C267.947 476.856 269.918 475.96 270.778 475.96C273.859 475.96 275.4 476.82 275.4 478.54ZM263.683 458.223C263.683 456.431 263.145 454.747 262.07 453.17C261.067 451.522 259.705 450.697 257.985 450.697C255.62 450.697 253.793 451.737 252.503 453.815C251.428 455.607 250.89 457.721 250.89 460.158C250.89 461.519 251.356 462.63 252.288 463.49C253.219 464.35 254.402 464.78 255.835 464.78C261.067 464.78 263.683 462.594 263.683 458.223ZM335.009 454.675C335.009 461.125 333.826 467.79 331.461 474.67C328.38 483.7 324.295 488.215 319.206 488.215C314.405 488.215 310.427 485.241 307.274 479.292C305.124 485.599 301.72 488.753 297.061 488.753C291.113 488.753 286.777 484.668 284.054 476.498C282.191 470.908 281.259 464.35 281.259 456.825C281.259 452.095 281.438 448.261 281.796 445.322C282.8 443.746 284.126 442.957 285.774 442.957C287.207 442.957 288.641 443.423 290.074 444.355C291.579 445.287 292.331 446.398 292.331 447.688C292.331 448.619 292.081 450.017 291.579 451.88C291.149 453.672 290.934 455.033 290.934 455.965C290.934 471.732 292.618 479.615 295.986 479.615C299.498 479.615 301.791 475.243 302.866 466.5C303.225 463.203 303.404 457.434 303.404 449.193C303.404 446.469 304.981 445.107 308.134 445.107C311.646 445.107 313.401 447.078 313.401 451.02C313.401 451.378 313.33 451.88 313.186 452.525C313.115 453.17 313.079 453.636 313.079 453.923V466.07C313.079 475.1 314.727 479.615 318.024 479.615C320.819 479.615 322.933 476.318 324.366 469.725C325.441 465.138 325.979 460.659 325.979 456.287C325.979 452.561 325.8 450.375 325.441 449.73C325.37 449.587 324.976 449.157 324.259 448.44C323.829 447.867 323.614 447.329 323.614 446.828C323.614 445.538 324.187 444.391 325.334 443.387C326.481 442.313 327.699 441.775 328.989 441.775C330.924 441.775 332.465 443.495 333.611 446.935C334.543 449.587 335.009 452.167 335.009 454.675ZM369.506 451.02C369.506 451.522 369.435 452.31 369.291 453.385C367.786 455.535 366.21 456.61 364.561 456.61C363.2 456.61 361.981 455.822 360.906 454.245C360.763 451.02 359.616 449.408 357.466 449.408C356.176 449.408 354.6 452.812 352.736 459.62C351.876 462.63 351.446 466.823 351.446 472.198C351.446 477.286 351.697 480.368 352.199 481.442C352.772 482.804 353.059 483.736 353.059 484.238C353.059 485.456 352.486 486.459 351.339 487.247C350.264 487.964 349.046 488.322 347.684 488.322C343.814 488.322 341.879 486.531 341.879 482.948C341.879 482.589 341.951 482.088 342.094 481.442C342.309 480.798 342.416 480.332 342.416 480.045C342.416 476.39 342.237 470.979 341.879 463.812C341.521 456.574 341.341 451.163 341.341 447.58C341.341 444.355 343.276 442.742 347.146 442.742C349.44 442.742 351.016 443.423 351.876 444.785C353.883 442.563 356.141 441.453 358.649 441.453C360.369 441.453 362.017 441.918 363.594 442.85C364.669 443.423 365.923 444.678 367.356 446.613C368.79 448.476 369.506 449.945 369.506 451.02ZM388.782 431.562C388.782 433.139 388.245 434.429 387.17 435.433C386.095 436.436 384.769 436.938 383.192 436.938C381.329 436.938 379.573 436.293 377.925 435.003C376.348 433.713 375.56 432.136 375.56 430.273C375.56 428.696 376.097 427.406 377.172 426.402C378.319 425.399 379.717 424.898 381.365 424.898C383.3 424.898 385.02 425.543 386.525 426.832C388.03 428.051 388.782 429.628 388.782 431.562ZM387.815 446.613C387.815 447.903 387.528 449.73 386.955 452.095C386.382 454.46 386.095 456.288 386.095 457.578V479.723C386.095 481.084 386.489 483.234 387.277 486.172C386.202 487.821 385.02 488.645 383.73 488.645C379.215 488.645 376.743 486.388 376.312 481.873C375.596 473.487 375.237 467.181 375.237 462.953C375.237 455.858 375.524 449.909 376.097 445.107C376.026 444.749 375.99 444.391 375.99 444.033C375.99 442.743 376.993 442.098 379 442.098C380.792 442.098 382.583 442.456 384.375 443.172C386.668 443.961 387.815 445.108 387.815 446.613ZM415.728 449.515C415.728 451.45 412.754 452.812 406.806 453.6C406.662 455.177 406.591 458.76 406.591 464.35V471.445C406.591 472.878 406.806 474.993 407.236 477.788C407.737 480.583 407.988 482.661 407.988 484.022C407.988 485.169 407.415 486.208 406.268 487.14C405.121 488 403.975 488.43 402.828 488.43C401.036 488.43 399.531 486.889 398.313 483.808C397.381 481.443 396.916 479.149 396.916 476.928V454.138C393.619 453.636 391.72 453.313 391.218 453.17C389.355 452.597 388.423 451.773 388.423 450.697C388.423 450.411 388.495 450.088 388.638 449.73C390.501 447.078 392.58 445.753 394.873 445.753C395.016 445.753 395.231 445.753 395.518 445.753C395.805 445.824 396.02 445.86 396.163 445.86C397.668 445.86 398.385 444.104 398.313 440.593V432.745C397.883 431.957 397.668 431.276 397.668 430.703C397.668 429.771 398.206 428.947 399.281 428.23C400.427 427.442 401.502 427.047 402.506 427.047C404.011 427.047 405.444 427.764 406.806 429.198C408.167 430.559 408.848 432.028 408.848 433.605C408.848 435.325 408.561 437.045 407.988 438.765C407.486 440.413 407.271 442.133 407.343 443.925V444.355C412.933 444.928 415.728 446.648 415.728 449.515ZM433.882 431.562C433.882 433.139 433.345 434.429 432.27 435.433C431.195 436.436 429.869 436.938 428.292 436.938C426.429 436.938 424.673 436.293 423.025 435.003C421.448 433.713 420.66 432.136 420.66 430.273C420.66 428.696 421.197 427.406 422.272 426.402C423.419 425.399 424.816 424.898 426.465 424.898C428.4 424.898 430.12 425.543 431.625 426.832C433.13 428.051 433.882 429.628 433.882 431.562ZM432.915 446.613C432.915 447.903 432.628 449.73 432.055 452.095C431.481 454.46 431.195 456.288 431.195 457.578V479.723C431.195 481.084 431.589 483.234 432.377 486.172C431.302 487.821 430.12 488.645 428.83 488.645C424.315 488.645 421.842 486.388 421.412 481.873C420.695 473.487 420.337 467.181 420.337 462.953C420.337 455.858 420.624 449.909 421.197 445.107C421.125 444.749 421.09 444.391 421.09 444.033C421.09 442.743 422.093 442.098 424.1 442.098C425.891 442.098 427.683 442.456 429.475 443.172C431.768 443.961 432.915 445.108 432.915 446.613ZM477.342 487.247C476.267 488.896 474.942 489.72 473.365 489.72C472.147 489.72 470.14 489.003 467.345 487.57V486.28C467.345 484.703 467.381 482.374 467.452 479.292C467.596 476.211 467.667 473.953 467.667 472.52C467.667 457.183 465.374 449.515 460.787 449.515C459.497 449.515 458.028 450.518 456.38 452.525C451.292 458.688 448.747 466.106 448.747 474.777C448.747 475.996 448.962 477.823 449.392 480.26C449.894 482.625 450.145 484.417 450.145 485.635C450.145 486.638 449.679 487.463 448.747 488.107C447.816 488.752 446.812 489.075 445.737 489.075C441.437 489.075 439.287 486.352 439.287 480.905V458.438C439.287 457.864 439.359 457.04 439.502 455.965C439.646 454.818 439.717 453.958 439.717 453.385C439.717 452.525 439.574 451.271 439.287 449.623C439.072 447.974 438.965 446.756 438.965 445.968C438.965 444.821 439.61 443.746 440.9 442.742C442.262 441.667 443.48 441.13 444.555 441.13C446.132 441.13 447.744 442.026 449.392 443.817L449.07 448.118C451.722 443.889 454.982 441.775 458.852 441.775C461.361 441.775 464.012 442.635 466.807 444.355C469.602 446.075 471.645 448.01 472.935 450.16C475.873 455.607 477.342 462.773 477.342 471.66V487.247ZM521.824 456.072C521.68 457.864 521.215 461.018 520.426 465.533C519.71 469.474 519.351 472.628 519.351 474.993C519.351 477.143 519.459 480.368 519.674 484.667C519.889 488.967 519.996 492.192 519.996 494.342C519.996 498.786 519.566 502.082 518.706 504.232C517.703 506.956 515.804 509.142 513.009 510.79C510.214 512.51 507.311 513.37 504.301 513.37C501.148 513.37 497.242 512.51 492.584 510.79C486.994 508.783 484.199 506.562 484.199 504.125C484.199 500.972 485.668 499.395 488.606 499.395C489.968 499.395 490.9 499.789 491.401 500.577C492.333 502.011 492.942 502.871 493.229 503.157C493.587 503.444 494.77 503.767 496.776 504.125C498.783 504.555 500.18 504.77 500.969 504.77C507.419 504.77 510.644 500.721 510.644 492.622C510.644 490.257 510.536 488.251 510.321 486.603C507.24 489.254 503.549 490.58 499.249 490.58C497.457 490.58 495.45 490.078 493.229 489.075C491.007 488.072 489.323 486.889 488.176 485.528C485.955 482.948 484.844 479.113 484.844 474.025C484.844 467.933 486.241 461.233 489.036 453.923C492.476 444.964 496.669 440.485 501.614 440.485C504.624 440.485 507.49 441.883 510.214 444.678C512.22 447.329 514.227 449.945 516.234 452.525C516.807 453.242 517.703 453.887 518.921 454.46C520.426 455.177 521.394 455.714 521.824 456.072ZM510.966 462.523C510.966 461.448 510.465 460.552 509.461 459.835C509.031 453.242 506.738 449.945 502.581 449.945C500.216 449.945 498.245 453.278 496.669 459.943C495.522 465.031 494.949 469.438 494.949 473.165C494.949 480.188 496.776 483.7 500.431 483.7C503.871 483.7 506.595 480.905 508.601 475.315C510.178 471.015 510.966 466.751 510.966 462.523ZM572.695 449.515C572.695 451.45 569.721 452.812 563.772 453.6C563.629 455.177 563.557 458.76 563.557 464.35V471.445C563.557 472.878 563.772 474.993 564.202 477.788C564.704 480.583 564.955 482.661 564.955 484.022C564.955 485.169 564.382 486.208 563.235 487.14C562.088 488 560.942 488.43 559.795 488.43C558.003 488.43 556.498 486.889 555.28 483.808C554.348 481.443 553.882 479.149 553.882 476.928V454.138C550.586 453.636 548.687 453.313 548.185 453.17C546.322 452.597 545.39 451.773 545.39 450.697C545.39 450.411 545.462 450.088 545.605 449.73C547.468 447.078 549.547 445.753 551.84 445.753C551.983 445.753 552.198 445.753 552.485 445.753C552.772 445.824 552.987 445.86 553.13 445.86C554.635 445.86 555.352 444.104 555.28 440.593V432.745C554.85 431.957 554.635 431.276 554.635 430.703C554.635 429.771 555.172 428.947 556.247 428.23C557.394 427.442 558.469 427.047 559.472 427.047C560.977 427.047 562.411 427.764 563.772 429.198C565.134 430.559 565.815 432.028 565.815 433.605C565.815 435.325 565.528 437.045 564.955 438.765C564.453 440.413 564.238 442.133 564.31 443.925V444.355C569.9 444.928 572.695 446.648 572.695 449.515ZM610.777 489.72C609.415 491.082 607.623 491.762 605.402 491.762C603.897 491.762 602.356 490.831 600.779 488.967C600.851 482.661 600.887 477.788 600.887 474.348C600.887 458.438 598.558 450.482 593.899 450.482C589.098 450.482 586.697 456.897 586.697 469.725C586.697 470.442 586.733 471.481 586.804 472.843C586.804 474.204 586.804 475.243 586.804 475.96C586.804 477.035 586.983 478.683 587.342 480.905C587.7 483.055 587.879 484.668 587.879 485.743C587.879 486.674 587.306 487.498 586.159 488.215C585.084 489.003 584.081 489.397 583.149 489.397C581.358 489.397 579.817 488.681 578.527 487.247C577.308 485.742 576.699 484.094 576.699 482.303L577.344 420.168C577.344 419.953 577.308 419.666 577.237 419.308C577.165 418.949 577.129 418.698 577.129 418.555C577.129 415.975 578.563 414.685 581.429 414.685C582.791 414.685 584.368 415.33 586.159 416.62C587.951 417.838 588.847 419.093 588.847 420.383C588.847 421.959 588.488 424.288 587.772 427.37C587.127 430.452 586.804 432.781 586.804 434.358C586.804 436.364 586.876 439.553 587.019 443.925C588.596 442.993 589.922 442.527 590.997 442.527C593.792 442.527 596.838 443.208 600.134 444.57C604.363 446.362 607.301 449.264 608.949 453.277C610.168 456.288 610.777 460.444 610.777 465.748V489.72ZM651.482 478.54C651.482 482.123 649.046 484.918 644.172 486.925C640.374 488.502 636.396 489.29 632.24 489.29C621.203 489.29 615.685 483.019 615.685 470.478C615.685 465.318 616.939 459.584 619.447 453.277C622.529 445.538 626.256 441.668 630.627 441.668C634.569 441.668 638.797 443.423 643.312 446.935C647.899 450.447 650.192 454.102 650.192 457.9C650.192 462.63 648.078 466.393 643.85 469.188C640.123 471.696 635.68 472.95 630.52 472.95C629.516 472.95 627.904 472.341 625.682 471.123C625.969 477.931 627.976 481.335 631.702 481.335C634.856 481.335 637.937 480.439 640.947 478.647C644.029 476.856 646 475.96 646.86 475.96C649.941 475.96 651.482 476.82 651.482 478.54ZM639.765 458.223C639.765 456.431 639.227 454.747 638.152 453.17C637.149 451.522 635.787 450.697 634.067 450.697C631.702 450.697 629.875 451.737 628.585 453.815C627.51 455.607 626.972 457.721 626.972 460.158C626.972 461.519 627.438 462.63 628.37 463.49C629.301 464.35 630.484 464.78 631.917 464.78C637.149 464.78 639.765 462.594 639.765 458.223ZM712.099 462.415C712.099 469.725 710.809 475.924 708.229 481.013C705.004 487.606 700.13 490.902 693.609 490.902C690.097 490.902 687.087 489.899 684.579 487.893C684.579 488.681 684.579 489.756 684.579 491.117C684.579 492.694 684.579 493.769 684.579 494.342C684.579 501.222 685.367 506.633 686.944 510.575C687.66 512.152 688.019 513.155 688.019 513.585C688.019 516.022 686.585 517.24 683.719 517.24C681.569 517.24 679.956 516.846 678.881 516.057C678.093 515.556 677.305 513.764 676.516 510.682C675.871 507.959 675.549 505.881 675.549 504.447V478.54C675.549 476.175 675.692 472.95 675.979 468.865C676.265 464.278 676.445 461.089 676.516 459.298C676.588 457.506 676.588 455.141 676.516 452.203C676.445 448.476 676.409 446.075 676.409 445C676.409 438.908 678.415 435.863 682.429 435.863C683.432 435.863 684.364 436.221 685.224 436.938C686.084 437.583 686.514 438.371 686.514 439.303C686.514 440.879 686.335 443.746 685.976 447.902C688.771 443.961 692.14 441.99 696.081 441.99C701.385 441.99 705.47 444.14 708.336 448.44C710.845 452.167 712.099 456.825 712.099 462.415ZM702.531 461.447C702.531 453.708 700.883 449.838 697.586 449.838C696.153 449.838 694.29 451.235 691.996 454.03C687.553 459.405 685.116 466.823 684.686 476.282C685.475 476.713 686.872 478.218 688.879 480.798C690.455 482.733 692.032 483.7 693.609 483.7C699.557 483.7 702.531 476.283 702.531 461.447ZM731.862 485.098C731.862 486.388 731.325 487.463 730.25 488.322C729.246 489.254 728.064 489.72 726.702 489.72C722.187 489.72 719.93 483.807 719.93 471.982C719.93 466.607 719.965 458.545 720.037 447.795C720.18 437.045 720.252 428.983 720.252 423.608C720.252 422.748 720.145 421.493 719.93 419.845C719.715 418.197 719.607 416.978 719.607 416.19C721.972 414.613 723.835 413.825 725.197 413.825C726.774 413.825 728.279 414.363 729.712 415.438C731.145 416.441 731.862 417.731 731.862 419.308C731.862 420.096 731.683 421.028 731.325 422.103C730.823 423.823 730.536 424.754 730.465 424.898C729.533 429.341 729.067 435.647 729.067 443.817C729.067 456.789 729.067 463.454 729.067 463.812C729.282 472.843 730.035 479.149 731.325 482.733C731.683 483.736 731.862 484.524 731.862 485.098ZM775.198 469.725C775.198 478.97 774.911 485.492 774.338 489.29C773.98 491.512 772.475 492.622 769.823 492.622C765.81 492.622 764.018 490.616 764.448 486.603C760.865 488.323 757.138 489.182 753.268 489.182C749.541 489.182 745.994 488.251 742.625 486.388C738.612 484.166 736.605 481.335 736.605 477.895C736.605 474.527 738.899 471.373 743.485 468.435C747.642 465.783 751.548 464.457 755.203 464.457H764.34V461.878C764.412 454.353 762.19 450.59 757.675 450.59C752.014 450.59 749.183 453.242 749.183 458.545C749.183 460.337 748.18 461.232 746.173 461.232C744.955 461.232 743.665 460.695 742.303 459.62C741.013 458.473 740.368 457.291 740.368 456.072C740.368 452.059 741.801 448.763 744.668 446.183C747.535 443.603 750.975 442.312 754.988 442.312C768.461 442.312 775.198 451.45 775.198 469.725ZM764.34 473.595C764.34 472.162 763.265 471.445 761.115 471.445C752.157 471.445 747.678 473.559 747.678 477.788C747.678 480.081 749.649 481.228 753.59 481.228C756.027 481.228 758.32 480.547 760.47 479.185C763.05 477.68 764.34 475.817 764.34 473.595ZM820.361 446.72C819.716 450.303 819.107 453.851 818.534 457.363C817.817 461.519 817.459 465.067 817.459 468.005V497.245C817.459 502.548 815.918 506.597 812.836 509.393C809.826 512.187 805.67 513.585 800.366 513.585C796.926 513.585 793.128 512.689 788.971 510.897C784.026 508.819 781.554 506.311 781.554 503.372C781.554 502.369 781.948 501.509 782.736 500.792C783.596 500.147 784.528 499.825 785.531 499.825C786.176 499.825 787.717 500.793 790.154 502.728C792.591 504.662 795.386 505.63 798.539 505.63C802.552 505.63 805.24 504.161 806.601 501.223C807.605 499.216 808.106 495.991 808.106 491.547C808.106 489.899 808.071 488.537 807.999 487.463C805.634 489.039 802.982 489.828 800.044 489.828C794.669 489.828 790.512 487.892 787.574 484.022C784.922 480.511 783.596 476.032 783.596 470.585C783.596 470.012 783.955 460.982 784.671 443.495C786.821 442.563 788.541 442.098 789.831 442.098C791.265 442.098 793.379 442.958 796.174 444.678C794.454 448.978 793.594 457.578 793.594 470.478C793.594 478.719 795.672 482.84 799.829 482.84C802.911 482.84 805.276 480.26 806.924 475.1C808.142 471.373 808.751 467.503 808.751 463.49V450.375C808.751 450.447 808.644 449.264 808.429 446.828C811.367 445.394 813.553 444.678 814.986 444.678C816.491 444.678 818.283 445.358 820.361 446.72ZM862.864 463.598C862.864 470.048 861.753 475.53 859.532 480.045C856.665 485.85 852.329 488.753 846.524 488.753C844.661 488.753 841.723 488.072 837.709 486.71C837.781 487.212 837.817 487.678 837.817 488.107C837.817 490.473 836.491 491.655 833.839 491.655C831.904 491.655 830.328 490.938 829.109 489.505C828.536 488.86 828.07 486.638 827.712 482.84C827.353 479.687 827.174 477.214 827.174 475.423V474.993L828.787 414.255C829.933 412.463 831.295 411.711 832.872 411.998C833.23 411.854 833.588 411.783 833.947 411.783C835.237 411.783 836.419 412.571 837.494 414.148C838.641 415.653 839.214 417.086 839.214 418.448C839.214 421.529 838.928 425.65 838.354 430.81C837.638 436.758 837.243 440.843 837.172 443.065C839.25 440.557 841.938 439.303 845.234 439.303C849.176 439.303 852.723 440.736 855.877 443.602C859.03 446.397 861.073 449.802 862.004 453.815C862.578 456.252 862.864 459.513 862.864 463.598ZM852.867 462.845C852.867 453.098 850.824 448.225 846.739 448.225C843.299 448.225 840.683 450.698 838.892 455.643C837.53 459.369 836.849 463.347 836.849 467.575C836.849 476.605 839.573 481.12 845.019 481.12C850.251 481.12 852.867 475.028 852.867 462.845ZM908.569 466.823C908.569 473.273 906.956 478.791 903.731 483.378C900.004 488.609 895.059 491.225 888.896 491.225C882.589 491.225 877.824 489.075 874.599 484.775C871.66 480.977 870.191 475.817 870.191 469.295C870.191 462.845 871.804 456.753 875.029 451.02C878.755 444.212 883.593 440.808 889.541 440.808C891.404 440.808 893.734 441.632 896.529 443.28C904.555 448.082 908.569 455.929 908.569 466.823ZM899.109 466.607C899.109 455.643 896.457 450.16 891.154 450.16C887.355 450.16 884.489 452.489 882.554 457.148C881.12 460.659 880.404 464.637 880.404 469.08C880.404 478.612 883.234 483.378 888.896 483.378C892.551 483.378 895.274 481.407 897.066 477.465C898.428 474.455 899.109 470.836 899.109 466.607ZM953.164 466.823C953.164 473.273 951.552 478.791 948.327 483.378C944.6 488.609 939.655 491.225 933.492 491.225C927.185 491.225 922.419 489.075 919.194 484.775C916.256 480.977 914.787 475.817 914.787 469.295C914.787 462.845 916.399 456.753 919.624 451.02C923.351 444.212 928.188 440.808 934.137 440.808C936 440.808 938.329 441.632 941.124 443.28C949.151 448.082 953.164 455.929 953.164 466.823ZM943.704 466.607C943.704 455.643 941.053 450.16 935.749 450.16C931.951 450.16 929.084 452.489 927.149 457.148C925.716 460.659 924.999 464.637 924.999 469.08C924.999 478.612 927.83 483.378 933.492 483.378C937.147 483.378 939.87 481.407 941.662 477.465C943.023 474.455 943.704 470.836 943.704 466.607ZM1001.41 491.333C998.692 493.339 996.542 494.342 994.965 494.342C992.887 494.342 989.877 492.192 985.935 487.893C983.14 484.883 980.381 481.837 977.657 478.755C976.081 476.892 973.572 474.276 970.132 470.908L969.81 471.123V480.583C969.81 481.156 970.025 482.016 970.455 483.163C970.957 484.238 971.207 485.098 971.207 485.743C971.207 486.746 970.67 487.606 969.595 488.322C968.592 489.111 967.552 489.505 966.477 489.505C964.614 489.505 963.073 488.896 961.855 487.678C960.637 486.459 960.027 484.918 960.027 483.055V468.865C960.027 468.005 960.135 466.715 960.35 464.995C960.637 463.203 960.78 461.878 960.78 461.018V432.1C960.78 427.728 960.457 424.217 959.812 421.565C959.526 420.347 959.382 419.415 959.382 418.77C959.382 417.408 960.207 416.19 961.855 415.115C963.288 414.112 964.722 413.61 966.155 413.61C967.23 413.61 968.377 414.04 969.595 414.9C970.885 415.688 971.53 416.584 971.53 417.588C971.53 417.874 971.315 418.878 970.885 420.598C970.455 422.318 970.24 424.969 970.24 428.553C970.24 429.699 970.132 439.267 969.917 457.255C970.204 456.968 974.074 453.421 981.527 446.613C987.691 440.879 991.31 438.012 992.385 438.012C996.183 438.012 998.011 440.342 997.867 445V446.075C994.786 447.867 990.808 450.698 985.935 454.568C979.772 459.369 976.69 462.558 976.69 464.135C976.69 464.278 978.625 466.536 982.495 470.908C986.15 475.064 988.443 477.644 989.375 478.647C993.675 483.163 997.688 486.244 1001.41 487.893V491.333ZM1060.75 466.823C1060.75 473.273 1059.14 478.791 1055.91 483.378C1052.18 488.609 1047.24 491.225 1041.08 491.225C1034.77 491.225 1030 489.075 1026.78 484.775C1023.84 480.977 1022.37 475.817 1022.37 469.295C1022.37 462.845 1023.98 456.753 1027.21 451.02C1030.93 444.212 1035.77 440.808 1041.72 440.808C1043.58 440.808 1045.91 441.632 1048.71 443.28C1056.73 448.082 1060.75 455.929 1060.75 466.823ZM1051.29 466.607C1051.29 455.643 1048.64 450.16 1043.33 450.16C1039.53 450.16 1036.67 452.489 1034.73 457.148C1033.3 460.659 1032.58 464.637 1032.58 469.08C1032.58 478.612 1035.41 483.378 1041.08 483.378C1044.73 483.378 1047.45 481.407 1049.25 477.465C1050.61 474.455 1051.29 470.836 1051.29 466.607ZM1100.91 423.715C1100.91 424.933 1100.3 425.937 1099.09 426.725C1097.94 427.513 1096.76 427.908 1095.54 427.908C1094.61 427.908 1093.6 427.478 1092.53 426.617C1092.46 425.184 1092.17 424.288 1091.67 423.93C1091.17 423.5 1090.13 423.285 1088.55 423.285C1085.47 423.285 1083.25 427.155 1081.89 434.895C1081.17 439.338 1080.77 444.463 1080.7 450.268C1081.06 450.268 1081.49 450.268 1081.99 450.268C1082.64 450.196 1083.1 450.16 1083.39 450.16C1086.4 450.16 1088.55 451.343 1089.84 453.708L1088.87 457.793C1087.51 458.509 1085.15 458.867 1081.78 458.867C1081.2 458.867 1080.74 458.903 1080.38 458.975C1080.17 461.34 1080.06 463.92 1080.06 466.715V476.498C1080.06 480.296 1080.63 484.202 1081.78 488.215C1078.98 489.792 1076.94 490.58 1075.65 490.58C1073.93 490.58 1072.57 489.254 1071.57 486.603C1070.71 484.524 1070.28 482.446 1070.28 480.368C1070.28 479.078 1070.42 472.198 1070.71 459.728C1068.34 459.943 1067.23 460.05 1067.37 460.05C1066.15 460.05 1065.08 459.656 1064.15 458.867C1063.22 458.079 1062.75 457.04 1062.75 455.75C1062.75 453.528 1063.68 452.095 1065.55 451.45C1066.55 451.163 1068.41 451.02 1071.14 451.02C1071.35 450.303 1071.46 448.118 1071.46 444.463C1071.46 437.081 1072.64 430.667 1075.01 425.22C1078.23 418.053 1083.07 414.47 1089.52 414.47C1092.74 414.47 1095.39 415.187 1097.47 416.62C1099.77 418.34 1100.91 420.705 1100.91 423.715ZM1152.03 478.54C1152.03 482.123 1149.59 484.918 1144.72 486.925C1140.92 488.502 1136.94 489.29 1132.79 489.29C1121.75 489.29 1116.23 483.019 1116.23 470.478C1116.23 465.318 1117.49 459.584 1119.99 453.277C1123.08 445.538 1126.8 441.668 1131.17 441.668C1135.12 441.668 1139.34 443.423 1143.86 446.935C1148.45 450.447 1150.74 454.102 1150.74 457.9C1150.74 462.63 1148.62 466.393 1144.4 469.188C1140.67 471.696 1136.23 472.95 1131.07 472.95C1130.06 472.95 1128.45 472.341 1126.23 471.123C1126.52 477.931 1128.52 481.335 1132.25 481.335C1135.4 481.335 1138.48 480.439 1141.49 478.647C1144.58 476.856 1146.55 475.96 1147.41 475.96C1150.49 475.96 1152.03 476.82 1152.03 478.54ZM1140.31 458.223C1140.31 456.431 1139.77 454.747 1138.7 453.17C1137.7 451.522 1136.33 450.697 1134.61 450.697C1132.25 450.697 1130.42 451.737 1129.13 453.815C1128.06 455.607 1127.52 457.721 1127.52 460.158C1127.52 461.519 1127.98 462.63 1128.92 463.49C1129.85 464.35 1131.03 464.78 1132.46 464.78C1137.7 464.78 1140.31 462.594 1140.31 458.223ZM1195.72 484.883C1195.72 485.958 1194.93 486.961 1193.36 487.893C1191.78 488.752 1190.38 489.182 1189.16 489.182C1185.94 489.182 1182.61 487.212 1179.17 483.27C1176.73 479.973 1174.29 476.641 1171.86 473.272C1168.63 476.928 1164.22 484.202 1158.63 495.095C1153.55 494.02 1151 491.834 1151 488.537C1151 486.172 1156.34 478.576 1167.02 465.748C1166.8 464.744 1165.01 461.878 1161.64 457.148C1158.63 452.848 1156.45 449.945 1155.09 448.44C1156.38 445.072 1158.67 443.387 1161.97 443.387C1164.4 443.387 1166.66 445.251 1168.74 448.978C1170.17 451.844 1171.61 454.711 1173.04 457.578C1181.78 447.258 1187.12 442.098 1189.06 442.098C1190.42 442.098 1191.6 442.599 1192.6 443.602C1193.61 444.606 1194.11 445.753 1194.11 447.043C1194.11 448.261 1191.39 451.45 1185.94 456.61C1180.49 461.698 1177.77 464.637 1177.77 465.425C1177.77 466.285 1179.92 469.223 1184.22 474.24C1188.52 479.257 1190.99 481.765 1191.64 481.765C1192.35 481.765 1193.71 481.514 1195.72 481.013V484.883ZM1237.43 475.853C1237.43 478.074 1235.75 480.69 1232.38 483.7C1229.37 486.495 1226.65 488.251 1224.21 488.967C1221.84 489.684 1219.59 490.042 1217.44 490.042C1211.77 490.042 1207.33 488.251 1204.11 484.667C1200.95 481.084 1199.38 476.462 1199.38 470.8C1199.38 465.282 1200.85 459.118 1203.78 452.31C1207.3 444.14 1211.38 440.055 1216.04 440.055C1218.62 440.055 1221.74 441.058 1225.39 443.065C1229.26 445.287 1231.52 447.508 1232.16 449.73C1232.74 451.665 1233.02 453.851 1233.02 456.287C1233.02 458.509 1232.56 461.018 1231.63 463.812C1230.48 467.396 1229.05 469.188 1227.33 469.188C1226.11 469.188 1224.96 468.829 1223.89 468.113C1222.6 467.324 1221.95 466.357 1221.95 465.21C1221.95 465.138 1222.27 464.314 1222.92 462.738C1223.28 462.021 1223.46 460.05 1223.46 456.825C1223.46 454.173 1223.35 452.453 1223.13 451.665C1222.7 449.443 1221.7 448.333 1220.12 448.333C1216.61 448.333 1213.89 451.378 1211.95 457.47C1210.52 461.985 1209.8 466.536 1209.8 471.123C1209.8 478.791 1212.24 482.625 1217.11 482.625C1219.05 482.625 1221.27 481.622 1223.78 479.615C1226.07 477.752 1227.68 475.853 1228.62 473.918C1229.76 471.624 1231.16 470.478 1232.81 470.478C1233.88 470.478 1234.92 471.123 1235.93 472.413C1236.93 473.631 1237.43 474.778 1237.43 475.853ZM1278.26 478.54C1278.26 482.123 1275.82 484.918 1270.95 486.925C1267.15 488.502 1263.17 489.29 1259.02 489.29C1247.98 489.29 1242.46 483.019 1242.46 470.478C1242.46 465.318 1243.71 459.584 1246.22 453.277C1249.3 445.538 1253.03 441.668 1257.4 441.668C1261.34 441.668 1265.57 443.423 1270.09 446.935C1274.67 450.447 1276.97 454.102 1276.97 457.9C1276.97 462.63 1274.85 466.393 1270.63 469.188C1266.9 471.696 1262.46 472.95 1257.3 472.95C1256.29 472.95 1254.68 472.341 1252.46 471.123C1252.74 477.931 1254.75 481.335 1258.48 481.335C1261.63 481.335 1264.71 480.439 1267.72 478.647C1270.8 476.856 1272.78 475.96 1273.64 475.96C1276.72 475.96 1278.26 476.82 1278.26 478.54ZM1266.54 458.223C1266.54 456.431 1266 454.747 1264.93 453.17C1263.92 451.522 1262.56 450.697 1260.84 450.697C1258.48 450.697 1256.65 451.737 1255.36 453.815C1254.29 455.607 1253.75 457.721 1253.75 460.158C1253.75 461.519 1254.21 462.63 1255.15 463.49C1256.08 464.35 1257.26 464.78 1258.69 464.78C1263.92 464.78 1266.54 462.594 1266.54 458.223ZM1296.07 485.098C1296.07 486.388 1295.53 487.463 1294.46 488.322C1293.45 489.254 1292.27 489.72 1290.91 489.72C1286.39 489.72 1284.14 483.807 1284.14 471.982C1284.14 466.607 1284.17 458.545 1284.24 447.795C1284.39 437.045 1284.46 428.983 1284.46 423.608C1284.46 422.748 1284.35 421.493 1284.14 419.845C1283.92 418.197 1283.81 416.978 1283.81 416.19C1286.18 414.613 1288.04 413.825 1289.4 413.825C1290.98 413.825 1292.49 414.363 1293.92 415.438C1295.35 416.441 1296.07 417.731 1296.07 419.308C1296.07 420.096 1295.89 421.028 1295.53 422.103C1295.03 423.823 1294.74 424.754 1294.67 424.898C1293.74 429.341 1293.27 435.647 1293.27 443.817C1293.27 456.789 1293.27 463.454 1293.27 463.812C1293.49 472.843 1294.24 479.149 1295.53 482.733C1295.89 483.736 1296.07 484.524 1296.07 485.098ZM1314.21 485.098C1314.21 486.388 1313.67 487.463 1312.6 488.322C1311.59 489.254 1310.41 489.72 1309.05 489.72C1304.53 489.72 1302.28 483.807 1302.28 471.982C1302.28 466.607 1302.31 458.545 1302.38 447.795C1302.53 437.045 1302.6 428.983 1302.6 423.608C1302.6 422.748 1302.49 421.493 1302.28 419.845C1302.06 418.197 1301.95 416.978 1301.95 416.19C1304.32 414.613 1306.18 413.825 1307.54 413.825C1309.12 413.825 1310.63 414.363 1312.06 415.438C1313.49 416.441 1314.21 417.731 1314.21 419.308C1314.21 420.096 1314.03 421.028 1313.67 422.103C1313.17 423.823 1312.88 424.754 1312.81 424.898C1311.88 429.341 1311.41 435.647 1311.41 443.817C1311.41 456.789 1311.41 463.454 1311.41 463.812C1311.63 472.843 1312.38 479.149 1313.67 482.733C1314.03 483.736 1314.21 484.524 1314.21 485.098ZM1354.52 478.54C1354.52 482.123 1352.08 484.918 1347.21 486.925C1343.41 488.502 1339.43 489.29 1335.27 489.29C1324.24 489.29 1318.72 483.019 1318.72 470.478C1318.72 465.318 1319.97 459.584 1322.48 453.277C1325.56 445.538 1329.29 441.668 1333.66 441.668C1337.6 441.668 1341.83 443.423 1346.35 446.935C1350.93 450.447 1353.23 454.102 1353.23 457.9C1353.23 462.63 1351.11 466.393 1346.88 469.188C1343.16 471.696 1338.71 472.95 1333.55 472.95C1332.55 472.95 1330.94 472.341 1328.72 471.123C1329 477.931 1331.01 481.335 1334.74 481.335C1337.89 481.335 1340.97 480.439 1343.98 478.647C1347.06 476.856 1349.03 475.96 1349.89 475.96C1352.97 475.96 1354.52 476.82 1354.52 478.54ZM1342.8 458.223C1342.8 456.431 1342.26 454.747 1341.19 453.17C1340.18 451.522 1338.82 450.697 1337.1 450.697C1334.74 450.697 1332.91 451.737 1331.62 453.815C1330.54 455.607 1330.01 457.721 1330.01 460.158C1330.01 461.519 1330.47 462.63 1331.4 463.49C1332.33 464.35 1333.52 464.78 1334.95 464.78C1340.18 464.78 1342.8 462.594 1342.8 458.223ZM1398.99 487.247C1397.91 488.896 1396.59 489.72 1395.01 489.72C1393.79 489.72 1391.78 489.003 1388.99 487.57V486.28C1388.99 484.703 1389.03 482.374 1389.1 479.292C1389.24 476.211 1389.31 473.953 1389.31 472.52C1389.31 457.183 1387.02 449.515 1382.43 449.515C1381.14 449.515 1379.67 450.518 1378.02 452.525C1372.94 458.688 1370.39 466.106 1370.39 474.777C1370.39 475.996 1370.61 477.823 1371.04 480.26C1371.54 482.625 1371.79 484.417 1371.79 485.635C1371.79 486.638 1371.32 487.463 1370.39 488.107C1369.46 488.752 1368.46 489.075 1367.38 489.075C1363.08 489.075 1360.93 486.352 1360.93 480.905V458.438C1360.93 457.864 1361 457.04 1361.15 455.965C1361.29 454.818 1361.36 453.958 1361.36 453.385C1361.36 452.525 1361.22 451.271 1360.93 449.623C1360.72 447.974 1360.61 446.756 1360.61 445.968C1360.61 444.821 1361.25 443.746 1362.54 442.742C1363.91 441.667 1365.12 441.13 1366.2 441.13C1367.78 441.13 1369.39 442.026 1371.04 443.817L1370.71 448.118C1373.37 443.889 1376.63 441.775 1380.5 441.775C1383.01 441.775 1385.66 442.635 1388.45 444.355C1391.25 446.075 1393.29 448.01 1394.58 450.16C1397.52 455.607 1398.99 462.773 1398.99 471.66V487.247ZM1443.36 475.853C1443.36 478.074 1441.68 480.69 1438.31 483.7C1435.3 486.495 1432.58 488.251 1430.14 488.967C1427.77 489.684 1425.52 490.042 1423.37 490.042C1417.7 490.042 1413.26 488.251 1410.04 484.667C1406.88 481.084 1405.31 476.462 1405.31 470.8C1405.31 465.282 1406.78 459.118 1409.71 452.31C1413.23 444.14 1417.31 440.055 1421.97 440.055C1424.55 440.055 1427.67 441.058 1431.32 443.065C1435.19 445.287 1437.45 447.508 1438.09 449.73C1438.67 451.665 1438.95 453.851 1438.95 456.287C1438.95 458.509 1438.49 461.018 1437.56 463.812C1436.41 467.396 1434.98 469.188 1433.26 469.188C1432.04 469.188 1430.89 468.829 1429.82 468.113C1428.53 467.324 1427.88 466.357 1427.88 465.21C1427.88 465.138 1428.2 464.314 1428.85 462.738C1429.21 462.021 1429.39 460.05 1429.39 456.825C1429.39 454.173 1429.28 452.453 1429.06 451.665C1428.63 449.443 1427.63 448.333 1426.05 448.333C1422.54 448.333 1419.82 451.378 1417.88 457.47C1416.45 461.985 1415.73 466.536 1415.73 471.123C1415.73 478.791 1418.17 482.625 1423.04 482.625C1424.98 482.625 1427.2 481.622 1429.71 479.615C1432 477.752 1433.61 475.853 1434.55 473.918C1435.69 471.624 1437.09 470.478 1438.74 470.478C1439.81 470.478 1440.85 471.123 1441.86 472.413C1442.86 473.631 1443.36 474.778 1443.36 475.853ZM1484.19 478.54C1484.19 482.123 1481.75 484.918 1476.88 486.925C1473.08 488.502 1469.1 489.29 1464.94 489.29C1453.91 489.29 1448.39 483.019 1448.39 470.478C1448.39 465.318 1449.64 459.584 1452.15 453.277C1455.23 445.538 1458.96 441.668 1463.33 441.668C1467.27 441.668 1471.5 443.423 1476.02 446.935C1480.6 450.447 1482.9 454.102 1482.9 457.9C1482.9 462.63 1480.78 466.393 1476.55 469.188C1472.83 471.696 1468.38 472.95 1463.22 472.95C1462.22 472.95 1460.61 472.341 1458.39 471.123C1458.67 477.931 1460.68 481.335 1464.41 481.335C1467.56 481.335 1470.64 480.439 1473.65 478.647C1476.73 476.856 1478.7 475.96 1479.56 475.96C1482.65 475.96 1484.19 476.82 1484.19 478.54ZM1472.47 458.223C1472.47 456.431 1471.93 454.747 1470.86 453.17C1469.85 451.522 1468.49 450.697 1466.77 450.697C1464.41 450.697 1462.58 451.737 1461.29 453.815C1460.21 455.607 1459.68 457.721 1459.68 460.158C1459.68 461.519 1460.14 462.63 1461.07 463.49C1462.01 464.35 1463.19 464.78 1464.62 464.78C1469.85 464.78 1472.47 462.594 1472.47 458.223ZM1505.87 483.7C1505.87 484.918 1504.79 486.137 1502.64 487.355C1500.49 488.502 1498.7 489.075 1497.27 489.075C1495.69 489.075 1494.01 488.466 1492.22 487.247C1490.42 486.029 1489.53 484.596 1489.53 482.948C1489.53 481.514 1490.25 480.26 1491.68 479.185C1493.18 478.038 1494.72 477.465 1496.3 477.465C1498.24 477.465 1500.24 478.038 1502.32 479.185C1504.69 480.547 1505.87 482.052 1505.87 483.7Z" fill="black"/>
</svg>
