<svg version="1.2" xmlns="http://www.w3.org/2000/svg" viewBox="0 0 130 131" width="130" height="131"><style>.a{fill:#ec1c24}.b{opacity:.1;mix-blend-mode:multiply;fill:#050505}</style><path class="a" d="m32.1 88.2l7.8 12.3 13.8 5.1 6.7-2 2.4-3.2 2.2-0.7 2.1-2.1 5.6 7.9h6.2l14.6-5.7 7-11.6 1.5-7.8h-11.8-57.5z"/><path class="a" d="m65 25.2l-50.1-2.8-10 10 11.4 10.1 51.2-2.3z"/><path class="b" d="m116.2 6.7l-15.7 15.7 15.7-0.9 11.2-4.8z"/><path class="b" d="m97.5 40.3l-15.6 15.7 15.6-0.9 11.2-4.7z"/><path class="b" d="m55.9 26.4l-15.7 15.7 15.7-0.9 11.2-4.8-2.7-11.9z"/><path fill-rule="evenodd" d="m65.1 130.5q-14.4 0-28.8 0c-1.3 0-2.6 0-3.8-0.4-2-0.6-3.6-2-4.7-3.9-0.6-1.1-0.8-2.2-0.8-3.4 0-12.8 0.1-25.6 0-38.3 0-3.6 2.3-6.3 5.2-7.3 1.3-0.5 2.8-0.7 4.2-0.7 4.5 0 8.9 0 13.4 0 1.2 0 1.8-0.1 2.2-1.6 1.1-4.1 3.5-7.2 7.6-8.9 0.8-0.3 1.6-0.8 2.5-0.8 0.7 0 0.8-0.6 0.8-1.1q0-1.7 0-3.3 0-8.4 0-16.7c0-1.6 0-1.7-1.6-1.7-15 0-30 0-45 0.1-2.8 0-5.1-0.7-7.3-2.4-2.4-1.9-4.9-3.6-7.4-5.3-1.7-1.2-1.9-3.1-0.3-4.4 2.1-1.7 4.3-3.2 6.5-4.8 0.8-0.6 1.7-1 2.4-1.7 1.4-1.2 2.9-1.5 4.7-1.5 15 0.1 30.1 0 45.1 0 2.9 0 2.9 0 2.9-2.9q0-8 0-16c0-2 0.8-2.8 2.5-2.8 1.5 0 2.5 1 2.6 2.8q0 1.1 0 2.2c0 0.7 0.3 1.1 1 1q0.6 0 1.2 0 23 0.1 46 0c1.2 0 2.1 0.3 3.1 1 3.1 2.3 6.2 4.5 9.3 6.7 1.9 1.4 1.8 3.3 0 4.6-3.3 2.4-6.6 4.8-9.9 7.2-0.8 0.5-1.6 0.6-2.5 0.6q-22.8 0-45.7 0c-0.3 0-0.7 0-1.1-0.1-1-0.1-1.5 0.3-1.4 1.5q0.1 4.1 0 8.3c-0.1 1.2 0.4 1.5 1.5 1.5 8.8-0.1 17.6 0 26.4-0.1 1.6 0 2.9 0.4 4.2 1.3 3 2.3 6.1 4.3 9.1 6.5 2.3 1.7 1.9 3.5-0.3 5q-4.7 3.2-9.2 6.5c-0.8 0.6-1.6 0.8-2.5 0.8q-13.7-0.1-27.3 0c-1.9 0-1.9 0-1.9 1.9q0 2.1 0 4.2c0 0.7 0.1 1 0.8 1.2q5.4 1.6 8.2 6.5c0.7 1.2 1.3 2.5 1.5 3.9 0.1 0.9 0.8 0.8 1.3 0.8 4.8 0 9.5-0.1 14.2 0 3.2 0.1 6.1 1 8 3.9 0.7 1.1 1.2 2.2 1.2 3.6 0 13.1 0 26.2 0 39.3 0 3.4-3.2 6.6-6.6 7-1.7 0.2-3.5 0.2-5.2 0.2q-13.2 0-26.3 0zm0.1-48.5c-10 0-20 0-29.9-0.1-2.8 0-2.9 1.7-2.3 3.5 0.5 1.9 1.3 3.7 2.4 5.4q6.2 9.1 17.1 9.7c1.3 0.1 2.5 0 3.7 0 2.6 0 2.8 0 3.3-2.4 0.8-3.4 5.7-5.3 9-3 1.6 1.1 2.2 2.7 2.6 4.4 0.1 0.6 0.3 1 1 1 4 0 8.1 0.3 12-1.3 3-1.2 5.7-2.8 8-5.2 2.3-2.3 3.9-5.1 5-8.2 0.8-2.3 0.5-3.9-2.5-3.9-9.8 0.2-19.6 0.1-29.4 0.1zm-33.1 13.4c0 0.3 0 0.5 0 0.7 0 6.5 0 12.9 0 19.3-0.1 1.2 0.6 1.3 1.5 1.3q31.5 0 63 0c1.5 0 1.6 0 1.6-1.5q0-9.4 0-18.7c0-0.4 0.1-0.8-0.3-1.2-1.4 1.7-2.8 3.2-4.4 4.5-4.3 3.4-9.1 5.6-14.6 5.7-2.1 0.1-4.1 0.1-6.2 0-1.2 0-1.6 0.4-1.6 1.6-0.1 2.5-2.2 5.1-4.5 5.5-3.8 0.6-6.7-1.2-7.4-5-0.4-2-0.3-2-2.4-2q-0.5 0-1.1 0c-3.7-0.1-7.3 0-10.9-1.3-4.6-1.8-8.5-4.2-11.6-8-0.3-0.3-0.5-0.7-1.1-0.9zm60.1-73.7q11.2 0 22.5 0c0.5 0 1 0.1 1.5-0.2q3-2.1 6-4.2c0.5-0.4 0.6-0.7 0-1.1q-2.8-1.9-5.5-3.9c-0.5-0.4-1-0.5-1.6-0.5q-22.9 0-45.8 0c-1 0-1.3 0.3-1.3 1.3 0 2.3 0 4.7 0 7 0 1.6 0 1.6 1.6 1.6q11.3 0 22.6 0zm-54 15.5c7.7 0 15.4 0 23.2 0.1 1.1 0 1.6-0.3 1.6-1.6-0.1-2.2-0.1-4.4-0.1-6.6 0-1.5-0.1-1.6-1.5-1.6q-23.1 0-46.1 0c-0.8 0-1.4 0.2-2 0.6q-2.5 1.8-5 3.6c-1 0.7-1 0.9 0 1.5 1.4 1 2.9 1.9 4.2 3 1 0.8 2 1.1 3.2 1 7.5 0 15 0 22.5 0zm44.4 15.7q6.5 0 13 0c0.5 0 1 0.1 1.4-0.2q2.9-2 5.7-4c0.6-0.4 0.6-0.8 0-1.3q-2.5-1.7-5-3.4-0.8-0.6-1.8-0.6-13.3 0-26.7 0c-0.9 0-1.2 0.3-1.2 1.2 0 2.3 0 4.6 0 6.9-0.1 1.1 0.3 1.5 1.4 1.4 4.4 0 8.8 0 13.2 0zm-17.5 69.3q-15.4 0-30.8 0c-0.4 0-0.8 0-1.2 0-0.9 0.1-1.2 0.6-0.8 1.4 0.7 1.3 1.7 1.7 3.1 1.7q29.7-0.1 59.5 0c0.4 0 0.8 0 1.2-0.1 1-0.3 2-1.4 1.8-2.2-0.2-1.3-1.3-0.8-2-0.8q-15.4 0-30.8 0zm-0.1-45.5q3.4 0 6.9 0c1.3 0 1.4-0.3 1-1.5-0.3-1-0.9-1.7-1.6-2.5-2.5-2.8-6.2-3.3-9.7-1.9-2.1 0.8-3.5 2.3-4.3 4.5-0.5 1.3-0.4 1.4 0.9 1.4q3.4 0 6.8 0zm2.5 26.9c0-1.1 0.1-2.1 0-3.1-0.1-0.3 0-0.8-2.5-0.8-2.1 0-2.2 0.4-2.2 0.7q-0.1 3.2 0 6.3c0 0.4 0 0.8 2.5 0.8 2.3 0 2.1-0.5 2.2-0.8 0.1-1.1 0-2.1 0-3.1z"/><path class="b" d="m90.2 80.4c0 0 2.9 5.1-4.6 12.6-7.5 7.5-10 12.5-10 12.5v22.2h21.9l3-4 2.7-39.7-8.6-2.1z"/></svg>