<svg width="46" height="47" viewBox="0 0 46 47" fill="none" xmlns="http://www.w3.org/2000/svg">
<path d="M33.2322 30.5157C32.2916 32.0818 31.0304 33.407 29.5409 34.3945C29.2239 34.5868 27.8806 32.9923 27.5313 32.8226C27.1821 32.653 25.8496 33.4955 25.8012 33.8178C25.7099 34.4793 25.6132 35.1465 25.5379 35.8137C25.3552 37.4535 21.5457 36.4301 20.5947 36.2548C20.4878 36.2462 20.3879 36.1954 20.3152 36.1125C20.2424 36.0297 20.2021 35.9209 20.2025 35.8081C20.1272 35.1239 20.0413 34.4454 19.9231 33.7669C19.8478 33.3598 19.1816 33.0658 18.8484 32.964C18.5845 32.8946 18.3074 32.9051 18.0488 32.9941C17.7903 33.0831 17.5609 33.2471 17.387 33.4672C17.0161 33.8046 16.6248 34.1162 16.2156 34.4002C14.7285 33.4012 13.4639 32.0762 12.5082 30.5157C12.9542 29.888 13.3894 29.2548 13.8461 28.6384C14.1631 28.22 13.8461 27.4228 13.5828 27.027C13.1261 26.3089 12.1428 26.4615 11.4336 26.3145C10.7243 26.1675 10.7351 25.9244 10.6545 25.2515C10.4938 23.9015 10.5191 22.5341 10.7297 21.1917C10.7379 21.0477 10.7982 20.9125 10.898 20.8137C10.9979 20.7148 11.1299 20.66 11.267 20.6602C11.8366 20.598 12.4061 20.4962 12.9757 20.4284C13.4431 20.3719 13.6151 19.863 13.7816 19.4728C13.9162 19.1667 13.9491 18.8219 13.875 18.4937C13.801 18.1656 13.6243 17.8732 13.3733 17.6634C13.0596 17.2882 12.7723 16.8895 12.5136 16.4704C13.4596 14.9165 14.7109 13.5938 16.1834 12.5915C16.7905 13.0665 17.4031 13.5301 17.9995 14.0277C18.3165 14.2878 19.1493 13.9542 19.4502 13.7563C19.6627 13.5932 19.8307 13.3741 19.9373 13.121C20.0439 12.8679 20.0853 12.5897 20.0574 12.3145C20.0655 12.1243 20.0889 11.9351 20.1272 11.749C20.2562 10.8783 20.6645 10.72 21.4544 10.6182C22.6627 10.4795 23.8835 10.5194 25.0812 10.7369C25.2038 10.7428 25.3194 10.7986 25.4036 10.8925C25.4878 10.9864 25.5341 11.111 25.5326 11.2402C25.6024 11.8904 25.7045 12.535 25.7797 13.1852C25.8281 13.5923 26.5319 13.909 26.8543 14.0221C27.1039 14.1136 27.3741 14.1225 27.6286 14.0477C27.8831 13.9729 28.1098 13.818 28.2782 13.6036C28.6785 13.2453 29.0963 12.9093 29.5301 12.5972C31.0168 13.5971 32.2798 14.9243 33.2322 16.4873C32.7808 17.115 32.3617 17.7426 31.8997 18.3363C31.1259 19.3315 32.5874 20.5528 33.431 20.5471C33.648 20.5578 33.8637 20.588 34.0758 20.6376C34.9301 20.7733 34.9408 20.7676 35.0644 21.6667C35.2544 23.0641 35.229 24.4846 34.9892 25.8735C34.9836 25.9935 34.934 26.1065 34.8508 26.1888C34.7677 26.271 34.6574 26.3161 34.5432 26.3145C33.9576 26.388 33.3719 26.4898 32.7862 26.5577C31.8298 26.6707 31.5719 28.367 32.12 28.989C32.517 29.4761 32.8883 29.9857 33.2322 30.5157ZM13.7279 16.3799C14.2383 17.098 14.7004 17.72 15.1249 18.3646C15.1636 18.4403 15.1864 18.5239 15.192 18.6097C15.1976 18.6955 15.1857 18.7816 15.1571 18.8622C14.8938 19.5746 14.5822 20.2701 14.3297 20.9882C14.306 21.0965 14.2488 21.1936 14.1672 21.2642C14.0855 21.3348 13.984 21.3749 13.8783 21.3783C13.2927 21.4518 12.707 21.5536 12.1213 21.6271C11.8204 21.6667 11.6378 21.7685 11.6431 22.136C11.6431 23.052 11.6431 23.968 11.6431 24.8783C11.6431 25.2232 11.8043 25.325 12.0945 25.3589C12.7124 25.4381 13.3303 25.5286 13.9428 25.636C14.0111 25.6505 14.0757 25.6802 14.1323 25.7231C14.1888 25.766 14.2359 25.8211 14.2706 25.8848C14.6037 26.7273 14.91 27.5811 15.2431 28.4801C14.8455 29.0455 14.3995 29.6449 13.975 30.2725C13.9329 30.337 13.9055 30.411 13.8953 30.4885C13.885 30.5661 13.8921 30.6451 13.9159 30.7192C14.548 31.6217 15.3114 32.4136 16.178 33.0658C16.7905 32.5795 17.3816 32.0989 17.9941 31.6522C18.0662 31.6118 18.1456 31.588 18.2271 31.5821C18.3086 31.5763 18.3903 31.5886 18.4669 31.6183C19.1493 31.8897 19.8102 32.2176 20.4926 32.4834C20.5947 32.508 20.6863 32.5673 20.7533 32.6521C20.8203 32.7369 20.8589 32.8425 20.8633 32.9527C20.9278 33.5577 21.0299 34.1514 21.089 34.7564C21.1266 35.1126 21.2233 35.3218 21.6263 35.3218C22.4645 35.2992 23.3027 35.2992 24.1409 35.3218C24.5117 35.3218 24.6138 35.1296 24.6782 34.796C24.7427 34.174 24.8448 33.5633 24.9146 32.947C24.9146 32.6756 25.0597 32.5738 25.2961 32.4834C25.9624 32.2233 26.6233 31.9179 27.2681 31.6126C27.3485 31.5538 27.4456 31.5256 27.5433 31.5328C27.6411 31.54 27.7335 31.5821 27.8054 31.6522C28.3964 32.1328 28.9982 32.5908 29.6752 33.128L32.0555 30.6231C31.5558 29.9163 31.1259 29.3 30.68 28.695C30.6062 28.6162 30.5602 28.5134 30.5494 28.4034C30.5387 28.2934 30.5639 28.1829 30.6209 28.09C30.9271 27.4171 31.1958 26.716 31.4376 26.0148C31.4598 25.9057 31.5155 25.8073 31.5961 25.7348C31.6767 25.6622 31.7777 25.6196 31.8835 25.6134C32.4853 25.5455 33.0817 25.4381 33.6889 25.3646C33.979 25.3307 34.1402 25.2232 34.1349 24.884C34.1349 23.968 34.1349 23.052 34.1349 22.1416C34.1349 21.7685 33.9576 21.6667 33.6567 21.6328C33.071 21.5593 32.4853 21.4575 31.8997 21.3896C31.7881 21.3788 31.6826 21.3316 31.5978 21.2545C31.513 21.1775 31.4532 21.0745 31.4268 20.9599C31.1915 20.2691 30.9225 19.5916 30.6209 18.93C30.5607 18.8307 30.5343 18.7129 30.546 18.5958C30.5578 18.4788 30.6069 18.3693 30.6853 18.2854C31.1367 17.6861 31.5612 17.0641 32.0555 16.3743L29.6161 13.8751C28.9391 14.4405 28.348 14.8646 27.7731 15.3395C27.7027 15.4112 27.6113 15.4558 27.5138 15.4661C27.4163 15.4763 27.3184 15.4517 27.2358 15.3961C26.5749 15.0738 25.8872 14.8306 25.2263 14.4857C25.1455 14.4448 25.0735 14.3871 25.0144 14.3162C24.9553 14.2453 24.9104 14.1626 24.8824 14.073C24.7642 13.4284 24.689 12.7781 24.6138 12.1279C24.5761 11.8508 24.4848 11.6812 24.1785 11.6868C23.3403 11.6868 22.5021 11.6868 21.6639 11.6868C21.2126 11.6868 21.089 11.9017 21.0568 12.3314C21.0138 12.9308 20.9117 13.5301 20.815 14.1295C20.8042 14.1953 20.781 14.2582 20.7469 14.3145C20.7128 14.3708 20.6683 14.4194 20.6162 14.4574C19.7995 14.808 19.0043 15.136 18.1177 15.4809L16.0759 13.8864L13.7279 16.3799Z" fill="black"/>
<path d="M34.3653 8.8823V7.85887H37.3259L37.3581 7.71752C34.468 4.7513 30.8101 2.74893 26.843 1.96144C22.8732 1.16029 18.768 1.58444 15.0222 3.18277L14.4849 2.19892C23.3128 -1.12016 31.1898 0.400851 38.2393 6.96549V3.78778H39.2279V8.87665L34.3653 8.8823Z" fill="black" stroke="black" stroke-miterlimit="10"/>
<path d="M11.3475 39.1611H8.28483C11.1947 42.1863 14.8945 44.2314 18.9128 45.0359C22.8934 45.8419 27.0107 45.4157 30.7658 43.8089L31.013 44.2839C31.0882 44.4252 31.1688 44.5609 31.2978 44.8041C22.4805 48.1175 14.6036 46.6021 7.55946 40.0262V43.2095H6.53857V38.0754H11.3744L11.3475 39.1611Z" fill="black" stroke="black" stroke-miterlimit="10"/>
<path d="M40.7979 12.207L41.6307 11.7151C45.0104 16.1481 45.7841 27.6715 43.0223 32.308L42.1949 31.8105C44.6181 25.0592 44.1829 18.5398 40.7979 12.207Z" fill="black" stroke="black" stroke-miterlimit="10"/>
<path d="M2.66453 14.6837L3.56184 15.2491C1.13858 21.9325 1.5738 28.4632 4.95347 34.7791L4.06154 35.3163C0.515304 28.6442 0.0639613 21.7912 2.66453 14.6837Z" fill="black" stroke="black" stroke-miterlimit="10"/>
<path d="M13.728 16.3798L16.1029 13.8636L18.1446 15.4581C19.0043 15.1132 19.8264 14.7853 20.6431 14.4347C20.6953 14.3967 20.7397 14.3481 20.7738 14.2918C20.808 14.2355 20.8311 14.1726 20.8419 14.1068C20.9386 13.5074 21.0407 12.908 21.0837 12.3087C21.116 11.879 21.2395 11.6528 21.6909 11.6641C22.5291 11.6641 23.3673 11.6641 24.2055 11.6641C24.5117 11.6641 24.6031 11.8281 24.6407 12.1051C24.7159 12.7554 24.7911 13.4056 24.9093 14.0502C24.9373 14.1398 24.9822 14.2226 25.0413 14.2935C25.1004 14.3644 25.1725 14.4221 25.2532 14.463C25.9141 14.7853 26.6019 15.0284 27.2628 15.3733C27.3453 15.4289 27.4432 15.4536 27.5408 15.4433C27.6383 15.4331 27.7296 15.3885 27.8001 15.3168C28.375 14.8418 28.966 14.3895 29.643 13.8523L32.0287 16.3798C31.5344 17.0696 31.1099 17.6916 30.6586 18.2909C30.5801 18.3748 30.531 18.4843 30.5193 18.6014C30.5075 18.7185 30.5339 18.8363 30.5941 18.9355C30.8957 19.5971 31.1647 20.2747 31.4 20.9654C31.4265 21.08 31.4862 21.183 31.571 21.26C31.6558 21.3371 31.7613 21.3843 31.8729 21.3952C32.4585 21.463 33.0442 21.5648 33.6299 21.6383C33.9308 21.6722 34.1134 21.774 34.1081 22.1472C34.1081 23.0575 34.1081 23.9735 34.1081 24.8895C34.1081 25.2288 33.9523 25.3362 33.6621 25.3701C33.0549 25.4436 32.4585 25.5511 31.8567 25.6189C31.7509 25.6251 31.6499 25.6678 31.5693 25.7403C31.4887 25.8128 31.433 25.9113 31.4108 26.0204C31.169 26.7215 30.8735 27.4226 30.5941 28.0955C30.5371 28.1884 30.5119 28.2989 30.5227 28.4089C30.5334 28.5189 30.5794 28.6218 30.6532 28.7005C31.0991 29.3055 31.529 29.9218 32.0287 30.6286L29.6484 33.1335C28.9714 32.568 28.3696 32.1383 27.7786 31.6577C27.7067 31.5877 27.6143 31.5456 27.5165 31.5384C27.4188 31.5312 27.3217 31.5593 27.2413 31.6181C26.5965 31.9348 25.9356 32.2288 25.2693 32.4889C25.0329 32.5794 24.9147 32.6811 24.8879 32.9525C24.818 33.5689 24.7159 34.1795 24.6514 34.8015C24.6138 35.1351 24.5117 35.333 24.1141 35.3273C23.2759 35.3047 22.4377 35.3047 21.5995 35.3273C21.2019 35.3273 21.1052 35.1238 21.0622 34.7619C21.0031 34.1569 20.901 33.5632 20.8366 32.9582C20.8321 32.848 20.7935 32.7424 20.7265 32.6576C20.6595 32.5729 20.5679 32.5136 20.4658 32.4889C19.7834 32.2231 19.1225 31.9235 18.4402 31.6238C18.3635 31.5941 18.2818 31.5818 18.2003 31.5876C18.1188 31.5935 18.0394 31.6174 17.9673 31.6577C17.3548 32.1044 16.7638 32.585 16.1512 33.0713C15.2846 32.4192 14.5212 31.6273 13.8892 30.7247C13.8653 30.6506 13.8582 30.5716 13.8685 30.494C13.8787 30.4165 13.9061 30.3425 13.9483 30.2781C14.3727 29.6504 14.8187 29.0398 15.2163 28.4856C14.8832 27.5866 14.5769 26.7328 14.2438 25.8903C14.2092 25.8267 14.162 25.7715 14.1055 25.7286C14.0489 25.6857 13.9843 25.656 13.916 25.6415C13.3035 25.5341 12.6856 25.4436 12.0677 25.3645C11.7775 25.3305 11.611 25.2288 11.6163 24.8839C11.6163 23.9735 11.6163 23.0575 11.6163 22.1415C11.6163 21.774 11.7936 21.6722 12.0945 21.6326C12.6802 21.5591 13.2659 21.4573 13.8515 21.3838C13.9572 21.3804 14.0587 21.3403 14.1404 21.2697C14.222 21.1991 14.2792 21.1021 14.3029 20.9937C14.5554 20.2756 14.8402 19.5801 15.1303 18.8677C15.1589 18.7871 15.1708 18.701 15.1652 18.6152C15.1596 18.5294 15.1368 18.4459 15.0981 18.3701C14.7005 17.7255 14.2384 17.1035 13.728 16.3798ZM22.8622 30.1876C24.1207 30.1887 25.3512 29.797 26.3981 29.0621C27.4449 28.3271 28.2612 27.282 28.7435 26.0588C29.2258 24.8356 29.3526 23.4893 29.1077 22.1903C28.8629 20.8913 28.2574 19.6979 27.3679 18.761C26.4784 17.8242 25.3449 17.186 24.1107 16.9273C22.8765 16.6685 21.5971 16.8007 20.4343 17.3073C19.2715 17.8138 18.2776 18.6719 17.5784 19.7729C16.8791 20.874 16.5058 22.1686 16.5058 23.4929C16.5016 24.3745 16.6635 25.2483 16.9823 26.0636C17.3011 26.879 17.7704 27.6196 18.3631 28.2428C18.9558 28.866 19.66 29.3592 20.435 29.694C21.2101 30.0288 22.0405 30.1985 22.8783 30.1932L22.8622 30.1876Z" fill="#ED1C24"/>
<path d="M22.8783 30.1935C21.6187 30.1935 20.3874 29.7999 19.3405 29.0628C18.2937 28.3257 17.4783 27.2781 16.9978 26.0528C16.5172 24.8276 16.3931 23.4797 16.6412 22.1802C16.8893 20.8806 17.4984 19.6878 18.3914 18.7529C19.2843 17.818 20.4209 17.1831 21.657 16.9286C22.8932 16.6741 24.1733 16.8116 25.3352 17.3235C26.4971 17.8354 27.4884 18.6987 28.1836 19.8041C28.8787 20.9095 29.2464 22.2072 29.24 23.5327C29.2393 24.4101 29.074 25.2786 28.7537 26.0886C28.4333 26.8986 27.9642 27.6341 27.3732 28.2529C26.7821 28.8717 26.0808 29.3617 25.3095 29.6947C24.5382 30.0277 23.712 30.1972 22.8783 30.1935ZM17.532 23.4931C17.531 24.6063 17.8438 25.6948 18.4308 26.6209C19.0178 27.547 19.8527 28.2689 20.8299 28.6955C21.807 29.122 22.8824 29.2339 23.9199 29.017C24.9575 28.8001 25.9106 28.2641 26.6586 27.477C27.4066 26.6898 27.9159 25.6868 28.122 24.595C28.3281 23.5031 28.2218 22.3714 27.8165 21.3432C27.4112 20.3149 26.7251 19.4363 25.8451 18.8185C24.9651 18.2008 23.9307 17.8716 22.8729 17.8727C22.1711 17.8713 21.476 18.0156 20.8274 18.2975C20.1787 18.5795 19.5894 18.9934 19.0932 19.5156C18.597 20.0378 18.2036 20.658 17.9357 21.3405C17.6678 22.0231 17.5306 22.7546 17.532 23.4931Z" fill="black"/>
<path d="M22.8893 26.9535C22.2405 26.9568 21.6052 26.7577 21.0638 26.3814C20.5225 26.005 20.0992 25.4683 19.8475 24.839C19.5957 24.2097 19.5269 23.516 19.6496 22.8455C19.7722 22.175 20.081 21.5578 20.5368 21.0718C20.9926 20.5859 21.575 20.253 22.2105 20.1151C22.8459 19.9772 23.506 20.0406 24.1072 20.2973C24.7085 20.5539 25.224 20.9923 25.5887 21.5571C25.9534 22.1218 26.1508 22.7876 26.1561 23.4704C26.1678 23.9273 26.0915 24.382 25.932 24.8071C25.7725 25.2323 25.533 25.6191 25.2279 25.9444C24.9228 26.2697 24.5584 26.5268 24.1565 26.7002C23.7546 26.8736 23.3236 26.9597 22.8893 26.9535ZM22.8893 25.8791C23.3374 25.8757 23.7744 25.7324 24.1449 25.4672C24.5154 25.2021 24.8028 24.8272 24.9705 24.3899C25.1383 23.9527 25.1788 23.4729 25.0871 23.0114C24.9954 22.5498 24.7754 22.1274 24.4552 21.7975C24.135 21.4677 23.7289 21.2454 23.2885 21.1588C22.848 21.0722 22.3931 21.1252 21.9813 21.311C21.5695 21.4969 21.2194 21.8073 20.9755 22.2028C20.7316 22.5983 20.6047 23.0611 20.6111 23.5326C20.6196 24.162 20.8646 24.7622 21.2926 25.202C21.7205 25.6417 22.2966 25.8852 22.8947 25.8791H22.8893Z" fill="black"/>
<path d="M22.8944 25.8791C22.4465 25.8836 22.0075 25.7481 21.633 25.4897C21.2584 25.2314 20.9651 24.8619 20.7903 24.428C20.6155 23.9941 20.567 23.5153 20.651 23.0524C20.7349 22.5895 20.9476 22.1632 21.262 21.8276C21.5764 21.4919 21.9784 21.2621 22.4171 21.1671C22.8557 21.0722 23.3113 21.1163 23.7261 21.2941C24.1408 21.4718 24.4961 21.7752 24.747 22.1656C24.9978 22.556 25.1328 23.016 25.135 23.4873C25.1371 23.7992 25.0808 24.1085 24.9694 24.3974C24.8579 24.6864 24.6935 24.9495 24.4854 25.1716C24.2773 25.3937 24.0297 25.5705 23.7568 25.6919C23.4838 25.8133 23.1907 25.8769 22.8944 25.8791Z" fill="#ED1C24"/>
<g style="mix-blend-mode:multiply" opacity="0.15">
<path d="M25.1345 22.0342C25.1345 22.0342 23.9309 25.3815 22.405 26.4219C21.8677 26.7894 25.8384 25.0083 25.8384 25.0083L26.1554 23.493L25.1345 22.0342Z" fill="#010101"/>
</g>
<g style="mix-blend-mode:multiply" opacity="0.15">
<path d="M29.794 13.4397C29.794 13.4397 31.0513 23.0972 29.794 26.2071C28.5367 29.317 25.5869 32.9018 25.5869 32.9018L27.5588 32.178L29.5737 33.9365L32.7063 30.4987L31.1266 28.6102L32.1421 26.2071L34.5438 25.8792V21.1239L31.6746 20.7903L31.1373 18.6247L32.4054 16.4534L29.794 13.4397Z" fill="#010101"/>
</g>
<path d="M2.51467 8.36773C2.51576 7.14735 2.86016 5.95462 3.50447 4.93991C4.14878 3.92521 5.06414 3.13396 6.13515 2.66593C7.20617 2.19789 8.38489 2.07402 9.52271 2.30993C10.6605 2.54584 11.7065 3.13097 12.5288 3.99155C13.351 4.85213 13.9128 5.94964 14.1432 7.1457C14.3736 8.34176 14.2623 9.58283 13.8234 10.7124C13.3845 11.8421 12.6376 12.8096 11.6769 13.4932C10.7162 14.1768 9.58473 14.5457 8.42506 14.5535C7.64983 14.5603 6.88103 14.4051 6.16317 14.0971C5.4453 13.789 4.79264 13.3342 4.24295 12.7589C3.69327 12.1835 3.25748 11.4992 2.96081 10.7455C2.66415 9.99174 2.51251 9.18356 2.51467 8.36773ZM8.36596 3.05834C7.36597 3.0617 6.38939 3.37704 5.5597 3.96447C4.73001 4.55191 4.08449 5.38506 3.70475 6.35857C3.32502 7.33207 3.22814 8.40222 3.42636 9.43367C3.62457 10.4651 4.10899 11.4116 4.81834 12.1533C5.52769 12.895 6.43013 13.3987 7.41152 13.6008C8.39292 13.8028 9.4092 13.694 10.3319 13.2882C11.2545 12.8824 12.0421 12.1978 12.595 11.3209C13.1479 10.4441 13.4413 9.4144 13.4382 8.36208C13.4282 6.95279 12.8896 5.6047 11.9396 4.61133C10.9896 3.61797 9.70519 3.0598 8.36596 3.05834Z" fill="black" stroke="black" stroke-miterlimit="10"/>
<path d="M9.51582 8.17548C9.1546 8.03839 8.77961 7.94543 8.39822 7.89842C8.1195 7.85781 7.84685 7.77991 7.58689 7.66659C7.44697 7.59114 7.32956 7.47652 7.24757 7.33535C7.16559 7.19419 7.1222 7.03195 7.1222 6.86651C7.1222 6.70107 7.16559 6.53883 7.24757 6.39767C7.32956 6.2565 7.44697 6.14188 7.58689 6.06643C7.75462 5.95916 7.94182 5.89 8.13646 5.86338C8.3311 5.83675 8.52888 5.85326 8.71711 5.91183C8.90533 5.9704 9.07983 6.06974 9.22941 6.20348C9.37899 6.33721 9.50034 6.50239 9.58567 6.6884L10.2197 6.63186C10.1977 6.33432 10.0911 6.05063 9.91383 5.81769C9.73656 5.58475 9.49678 5.41332 9.22568 5.32571C9.09063 5.28582 8.96203 5.22483 8.84419 5.14478V4.57935H7.8233V5.14478C7.72187 5.20489 7.61582 5.25596 7.50629 5.29744C7.17258 5.41279 6.88531 5.64265 6.69047 5.9502C6.49564 6.25775 6.40451 6.62521 6.43167 6.99373C6.45175 7.37643 6.5944 7.7407 6.83638 8.02717C7.07835 8.31364 7.40539 8.50543 7.7642 8.57128C7.97912 8.61652 8.20479 8.59955 8.42509 8.64479C8.68464 8.67294 8.93844 8.74353 9.17732 8.854C9.32884 8.92068 9.45825 9.03302 9.54926 9.17688C9.64028 9.32075 9.68884 9.48973 9.68884 9.66256C9.68884 9.8354 9.64028 10.0044 9.54926 10.1482C9.45825 10.2921 9.32884 10.4044 9.17732 10.4711C8.99172 10.596 8.78263 10.6771 8.56442 10.7089C8.3462 10.7407 8.12404 10.7224 7.91319 10.6552C7.70234 10.5881 7.50781 10.4737 7.34296 10.3199C7.17812 10.1661 7.04687 9.97657 6.95824 9.76434L6.35107 9.82654C6.37127 10.1669 6.49502 10.4915 6.70402 10.7521C6.91303 11.0128 7.1962 11.1958 7.51166 11.274C7.61407 11.2989 7.71203 11.3409 7.80181 11.3984V12.2183H8.8227V11.3702C8.93828 11.2947 9.06881 11.2483 9.20419 11.2345C9.33709 11.1971 9.4614 11.1317 9.56956 11.0422C9.82081 10.9046 10.0305 10.6958 10.1751 10.4394C10.3196 10.1831 10.3933 9.88934 10.3877 9.59131C10.3821 9.29328 10.2975 9.00281 10.1435 8.75266C9.98943 8.5025 9.77204 8.3026 9.51582 8.17548Z" fill="black" stroke="black" stroke-miterlimit="10"/>
<path d="M31.5073 38.9293C31.5074 37.7087 31.8509 36.5154 32.4945 35.4999C33.1382 34.4845 34.0532 33.6924 35.1241 33.2235C36.195 32.7546 37.3739 32.6299 38.5121 32.8652C39.6502 33.1004 40.6967 33.6851 41.5195 34.5455C42.3423 35.4058 42.9046 36.5033 43.1354 37.6995C43.3663 38.8957 43.2553 40.1371 42.8166 41.267C42.3778 42.397 41.631 43.3649 40.6702 44.0487C39.7093 44.7325 38.5776 45.1016 37.4177 45.1094C36.6431 45.1154 35.8751 44.9599 35.1579 44.652C34.4407 44.344 33.7886 43.8896 33.2391 43.3151C32.6896 42.7405 32.2537 42.0572 31.9565 41.3044C31.6593 40.5517 31.5066 39.7444 31.5073 38.9293ZM37.3586 33.6143C36.3589 33.6176 35.3825 33.9328 34.5529 34.52C33.7233 35.1072 33.0778 35.94 32.6979 36.9132C32.318 37.8863 32.2208 38.9562 32.4186 39.9875C32.6164 41.0188 33.1002 41.9652 33.8091 42.7072C34.5179 43.4492 35.4198 43.9533 36.4009 44.156C37.3819 44.3586 38.398 44.2507 39.3208 43.8457C40.2435 43.4408 41.0315 42.7571 41.585 41.881C42.1386 41.0049 42.4329 39.9757 42.4308 38.9236C42.4223 37.5134 41.8843 36.1638 40.9342 35.1693C39.984 34.1747 38.6988 33.6157 37.3586 33.6143Z" fill="black" stroke="black" stroke-miterlimit="10"/>
<path d="M38.5095 38.7369C38.1507 38.5869 37.7751 38.4862 37.3919 38.4372C37.1125 38.3998 36.8384 38.3277 36.5752 38.2224C36.4353 38.1469 36.3178 38.0323 36.2359 37.8911C36.1539 37.75 36.1105 37.5877 36.1105 37.4223C36.1105 37.2569 36.1539 37.0946 36.2359 36.9535C36.3178 36.8123 36.4353 36.6977 36.5752 36.6222C36.7429 36.515 36.9301 36.4458 37.1247 36.4192C37.3194 36.3925 37.5172 36.409 37.7054 36.4676C37.8936 36.5262 38.0681 36.6255 38.2177 36.7593C38.3673 36.893 38.4886 37.0582 38.574 37.2442L39.208 37.1876C39.1853 36.8903 39.0784 36.607 38.9012 36.3742C38.7241 36.1414 38.4847 35.9698 38.214 35.8815C38.0785 35.8429 37.9497 35.7818 37.8325 35.7006V35.1351H36.817V35.7006C36.7127 35.757 36.605 35.8061 36.4946 35.8476C36.1656 35.9618 35.8818 36.1873 35.6874 36.489C35.493 36.7908 35.399 37.1517 35.42 37.5156C35.44 37.8983 35.5827 38.2626 35.8247 38.549C36.0666 38.8355 36.3937 39.0273 36.7525 39.0931C36.9674 39.1384 37.1931 39.1271 37.4134 39.1667C37.6724 39.1976 37.9258 39.2681 38.1656 39.3759C38.3171 39.4425 38.4465 39.5549 38.5375 39.6987C38.6286 39.8426 38.6771 40.0116 38.6771 40.1844C38.6771 40.3573 38.6286 40.5262 38.5375 40.6701C38.4465 40.814 38.3171 40.9263 38.1656 40.993C37.981 41.119 37.7726 41.2011 37.5548 41.2338C37.337 41.2664 37.1151 41.2488 36.9044 41.1821C36.6937 41.1154 36.4994 41.0012 36.3349 40.8474C36.1704 40.6937 36.0397 40.5041 35.9519 40.2919L35.3394 40.3484C35.3601 40.6892 35.484 41.0142 35.6928 41.2756C35.9016 41.5371 36.1844 41.7214 36.4999 41.8016C36.6047 41.824 36.7048 41.8662 36.7955 41.9259V42.7458H37.811V41.9316C37.9261 41.8542 38.0567 41.8058 38.1925 41.7902C38.3255 41.7514 38.451 41.6883 38.5632 41.6037C38.8145 41.466 39.0242 41.2572 39.1687 41.0009C39.3133 40.7445 39.3869 40.4508 39.3813 40.1527C39.3757 39.8547 39.2912 39.5643 39.1371 39.3141C38.9831 39.0639 38.7657 38.864 38.5095 38.7369Z" fill="black" stroke="black" stroke-miterlimit="10"/>
</svg>
