<svg width="172" height="130" viewBox="0 0 172 130" fill="none" xmlns="http://www.w3.org/2000/svg">
<path d="M80.4999 84.13L51.0299 102.12L50.8999 102.46L50.3499 103.35L47.6899 103.82L47.3499 104.57L46.4699 105.46L48.0299 105.66L47.7599 106.48L47.1499 107.09L42.6499 107.71L40.9399 109.48L60.7199 109.27L64.6099 108.32V98.23L65.4299 98.37L67.5399 101.71L70.0599 102.53L73.9499 100.14L78.3099 95.44L84.6599 83.31H82.8199L80.1599 84.13H80.4999Z" fill="#ED1C24"/>
<path d="M69.38 67.09L65.08 60.14L60.08 59.14L52.03 57.51L48.41 55.12L46.78 69.78L31.64 55.19L20.72 64.46L14.18 69.71L2.58 94.24L1 99.94L2.5 102.73L4.2 104.44L15.37 106L29.07 106.89L29.28 99.05L36.78 95.44L39.3 94.89L71.5 74.79L69.38 67.09ZM19.59 94.55L24.16 84.81L27.16 89.65L28.53 96.87L19.59 94.55Z" fill="#ED1C24"/>
<path d="M51.58 33.27C51.58 33.98 51.41 34.57 51.15 34.58C50.89 34.59 50.65 34.02 50.63 33.3C50.61 32.58 50.8 32 51.06 31.99C51.32 31.98 51.56 32.55 51.58 33.27Z" fill="#010101"/>
<path d="M51.58 33.27C51.58 33.98 51.41 34.57 51.15 34.58C50.89 34.59 50.65 34.02 50.63 33.3C50.61 32.58 50.8 32 51.06 31.99C51.32 31.98 51.56 32.55 51.58 33.27Z" stroke="#010101" stroke-width="0.8" stroke-miterlimit="10"/>
<path d="M43.19 32.59C43.19 33.3 43.02 33.89 42.76 33.9C42.5 33.91 42.26 33.34 42.24 32.62C42.22 31.9 42.41 31.32 42.67 31.31C42.93 31.3 43.17 31.87 43.19 32.59Z" fill="#010101"/>
<path d="M43.19 32.59C43.19 33.3 43.02 33.89 42.76 33.9C42.5 33.91 42.26 33.34 42.24 32.62C42.22 31.9 42.41 31.32 42.67 31.31C42.93 31.3 43.17 31.87 43.19 32.59Z" stroke="#010101" stroke-width="0.8" stroke-miterlimit="10"/>
<path d="M9.5 127.54H171.89" stroke="#010101" stroke-width="3.99" stroke-miterlimit="10"/>
<path d="M48.9199 36.49C48.4044 35.299 48.0836 34.0328 47.9699 32.74C47.8999 31.99 46.7399 31.99 46.8099 32.74C46.8772 33.851 47.0821 34.9494 47.4199 36.01C47.5599 36.42 47.8299 36.9 47.9699 37.31C48.1099 37.72 48.1699 38.26 47.8299 38.47C47.6899 38.6 47.0799 38.47 46.9399 38.47C46.1899 38.33 45.94 39.47 46.6 39.62C47.6 39.76 49.0599 39.76 49.3999 38.53C49.6699 37.78 49.1899 37.1 48.9199 36.53V36.49Z" fill="#010101"/>
<path d="M46.87 42.21C46.1645 42.2619 45.4559 42.1679 44.7884 41.934C44.1208 41.7 43.5086 41.331 42.99 40.85C42.44 40.37 41.62 41.19 42.17 41.67C43.4509 42.8346 45.1404 43.4457 46.87 43.37C47.62 43.3 47.62 42.15 46.87 42.21Z" fill="#010101"/>
<path d="M44.15 29.61C43.774 29.2059 43.322 28.8798 42.8198 28.6505C42.3177 28.4212 41.7753 28.2931 41.2236 28.2736C40.6719 28.2541 40.1218 28.3436 39.6047 28.5368C39.0876 28.7301 38.6137 29.0234 38.21 29.4C38.1057 29.5096 38.0482 29.6557 38.0501 29.8071C38.0519 29.9584 38.1129 30.1031 38.2199 30.2101C38.327 30.3172 38.4716 30.3781 38.623 30.38C38.7743 30.3818 38.9204 30.3244 39.03 30.22C39.3227 29.9453 39.6676 29.7322 40.0442 29.5932C40.4207 29.4542 40.8214 29.3922 41.2223 29.4109C41.6233 29.4295 42.0164 29.5284 42.3785 29.7018C42.7405 29.8751 43.0641 30.1193 43.33 30.42C43.81 30.97 44.62 30.15 44.15 29.61Z" fill="#010101"/>
<path d="M52 29.88C51.8294 29.5492 51.5755 29.2687 51.2634 29.066C50.9512 28.8633 50.5916 28.7456 50.22 28.7244C49.8484 28.7032 49.4777 28.7792 49.1445 28.9451C48.8113 29.1109 48.5272 29.3608 48.32 29.67C47.91 30.29 48.93 30.9 49.32 30.29C49.4253 30.1517 49.5647 30.0432 49.7246 29.9752C49.8846 29.9072 50.0595 29.882 50.2321 29.9022C50.4047 29.9224 50.5691 29.9872 50.709 30.0903C50.8489 30.1934 50.9596 30.3312 51.03 30.49C51.23 31.17 52.25 30.56 52.03 29.88H52Z" fill="#010101"/>
<path d="M95.71 73C95.23 73.27 91.55 75.72 91.07 75.93C91.0543 75.4939 91.0075 75.0595 90.93 74.63C90.86 74.16 90.8 73.68 90.73 73.13C90.5911 72.1172 90.384 71.1149 90.11 70.13C89.77 68.97 89.11 66.79 87.66 66.72C87.382 66.7173 87.1063 66.7699 86.8488 66.8746C86.5913 66.9793 86.3572 67.1341 86.16 67.33C85.9809 67.4931 85.8613 67.7113 85.82 67.95C85.75 68.08 85.75 68.29 85.68 68.42C85.2432 68.4172 84.8209 68.576 84.4941 68.8658C84.1674 69.1556 83.9593 69.556 83.91 69.99C83.02 70.19 82.61 70.99 82.54 71.99C82.4888 72.5551 82.4688 73.1227 82.48 73.69C81.9674 73.871 81.5289 74.2161 81.2324 74.6717C80.9359 75.1273 80.798 75.668 80.84 76.21C80.8169 78.0212 80.9981 79.8293 81.38 81.6C80.7 82.89 49.94 101.36 49.94 101.5C49.3445 101.319 48.721 101.248 48.1 101.29C47.1 101.36 46.1 101.36 45.1 101.36C47.28 100.75 49.74 99.72 48.03 97.88C47.08 96.79 45.24 97.54 44.08 97.75C42.92 97.96 38.76 99.38 38.15 98.84C36.78 97.61 39.3 96.66 40.26 95.84C40.53 95.63 40.46 95.23 40.19 94.95C55.4 86.09 74.29 73.76 88.75 63.74C89.36 63.33 88.75 62.31 88.14 62.74C84.14 65.46 76.14 71.05 72.14 73.74V73.6C70.77 68.77 69.07 63.45 64.98 60.11C62.98 58.47 60.68 58.11 58.16 57.72C54.8129 57.1657 51.5251 56.2986 48.34 55.13C48.27 55.13 48.2 55.07 48.13 55.13C48.06 53.13 47.93 51.13 47.72 49.07C48.2755 48.8632 48.8029 48.5877 49.29 48.25L49.36 48.32C50.6773 49.083 52.2121 49.3832 53.7198 49.173C55.2275 48.9628 56.6216 48.2542 57.68 47.16C57.7819 47.0478 57.8383 46.9016 57.8383 46.75C57.8383 46.5984 57.7819 46.4522 57.68 46.34L56.52 45.18C58.4189 44.7034 60.1151 43.631 61.36 42.12C61.4397 42.0376 61.4937 41.9337 61.5153 41.8211C61.5369 41.7085 61.5253 41.5921 61.4818 41.486C61.4383 41.3799 61.3648 41.2888 61.2704 41.2238C61.176 41.1588 61.0646 41.1227 60.95 41.12C59.958 41.1385 58.9842 40.8523 58.16 40.3C59.6855 39.8813 61.0442 39.0011 62.05 37.78C62.1554 37.6943 62.2273 37.5743 62.2533 37.441C62.2793 37.3077 62.2577 37.1695 62.1922 37.0505C62.1268 36.9315 62.0216 36.8392 61.8951 36.7898C61.7686 36.7404 61.6288 36.7369 61.5 36.78C56.04 38.01 57.5 33.03 57.61 30.31C57.5843 28.2953 57.1665 26.305 56.38 24.45C55.23 21.52 53.59 17.36 50.52 16C48.88 15.25 46.97 15.31 45.4 14.43C43.83 13.55 43.09 11.84 41.4 11.43C38.47 10.75 34.17 13.88 31.99 15.43C31.875 15.5484 31.7834 15.6875 31.72 15.84C27.83 15.3 25.92 21.16 24.72 24.16C22.47 29.61 18.45 36.36 22.13 42.08C22.1992 42.1805 22.2973 42.2574 22.4114 42.3007C22.5255 42.3439 22.65 42.3514 22.7684 42.3221C22.8868 42.2927 22.9935 42.228 23.0741 42.1365C23.1548 42.045 23.2057 41.9311 23.22 41.81L23.56 40.99C23.8413 42.9989 24.5396 44.9269 25.61 46.65C25.6763 46.7565 25.7749 46.8391 25.8913 46.8858C26.0078 46.9325 26.1361 46.9408 26.2577 46.9096C26.3792 46.8784 26.4876 46.8092 26.5671 46.7122C26.6467 46.6152 26.6932 46.4953 26.7 46.37C26.7123 45.8674 26.7591 45.3662 26.84 44.87C28.9228 47.1561 30.6672 49.729 32.02 52.51C31.9581 52.9916 31.868 53.469 31.75 53.94C31.6315 53.9175 31.5089 53.9312 31.3983 53.9793C31.2877 54.0275 31.1942 54.1079 31.13 54.21C31.0276 54.2275 30.9333 54.2764 30.86 54.35C28.06 57.21 25.2 60 22.2 62.59C19.47 64.91 16.13 66.75 14.08 69.75C11.9 72.95 10.54 76.84 8.9 80.31C7.19 83.99 5.34999 87.67 3.77999 91.42C2.07999 95.37 -1.95001 102.53 4.05999 104.42C8.72114 105.801 13.5199 106.667 18.37 107C13.66 109.11 7.25 111.43 4.86 116C3.23 119.21 4.04 123.84 7.93 124.79C10.05 125.34 12.37 124.52 14.27 123.7C16.87 122.55 19.46 121.25 21.98 119.96C21.16 122.34 20.41 124.79 19.59 127.18C19.53 127.32 19.59 127.45 19.59 127.59C19.5314 127.676 19.4977 127.777 19.4924 127.881C19.4871 127.985 19.5105 128.089 19.56 128.181C19.6095 128.272 19.6832 128.349 19.7731 128.402C19.863 128.454 19.9657 128.482 20.07 128.48L65.83 128.88C66.45 128.75 67.27 128.54 67.13 127.32C66.45 122.61 66.18 117.78 64.33 109.32C64.33 109.26 64.27 109.19 64.27 109.12C64.27 109.05 65.02 108.64 65.02 108.3C65.15 105.51 65.15 102.71 65.15 99.92C65.4504 100.736 65.9513 101.463 66.6067 102.035C67.262 102.606 68.0507 103.003 68.9 103.19C71.43 103.53 73.75 101.19 75.38 99.58C79.82 95.08 82.27 89.15 84.66 83.36V83.29C85.27 83.02 90.8 80.22 90.8 77.43V77.23H90.86C91.55 76.88 95.3 74.36 95.98 74.02C96.98 73.75 96.39 72.73 95.71 73.02V73ZM50.71 103.67C51.33 103.46 51.6 102.51 51.26 102.17C51.19 102.1 51.12 102.1 51.06 102.03C55.49 99.58 59.92 97.03 64.29 94.47C64.42 98.9 64.35 103.33 64.22 107.76C64.35 108.91 58.08 108.64 57.4 108.64C55.49 108.71 53.58 108.71 51.67 108.78L42.12 108.98C42.53 108.78 42.87 108.5 43.28 108.3C43.35 108.23 43.42 108.23 43.48 108.16C44.0999 108.128 44.7176 108.061 45.33 107.96C46.14 107.76 48.05 107.62 48.33 106.6C48.53 105.78 47.99 105.44 47.33 105.3C47.74 105.3 48.15 104.48 48.15 104.35C49.04 104.08 49.65 104.01 50.74 103.67H50.71ZM37.6 99.6C38.9 100.21 40.94 99.53 42.31 99.32C43.06 99.19 48.1 97.08 47.49 99.46C47.42 99.6 45.85 100.89 42.1 101.23C41.42 101.23 41.21 102.23 41.9 102.32C43.2853 102.435 44.6786 102.415 46.06 102.26C47.22 102.26 50.22 101.78 50.35 102.6C50.48 103.42 44.9 103.28 42.35 102.87C41.6 102.73 41.35 103.87 42.01 104.03C43.663 104.291 45.3385 104.381 47.01 104.3C47.01 105.19 43.94 104.84 42.71 104.84C41.96 104.84 41.71 106 42.37 106C43.53 106 47.37 105.73 47.49 106.14C47.61 106.55 46.87 106.68 46.6 106.68C45.0189 106.896 43.4257 107.013 41.83 107.03C40.19 106.96 38.55 106.48 36.92 106.28C34.3185 105.891 31.6981 105.641 29.07 105.53C29.21 103.53 29.42 101.53 29.62 99.46C29.6858 99.5375 29.7741 99.5926 29.8727 99.6177C29.9712 99.6428 30.0751 99.6366 30.17 99.6C30.3 99.53 30.44 99.53 30.57 99.46C31.7841 98.955 32.9491 98.3391 34.05 97.62C35.28 96.94 36.64 95.62 38.05 95.51C39.14 95.37 39.27 95.51 39.27 95.51C37.77 96.39 35.27 98.58 37.57 99.6H37.6ZM45.37 48.55C42.44 48.62 39.78 46.98 37.37 45.49C36.76 45.08 36.15 46.1 36.76 46.49C39.97 48.49 43.44 49.96 46.65 49.35C47.2483 55.6047 47.2717 61.901 46.72 68.16C41.88 63.9267 37.2433 59.45 32.81 54.73C32.81 54.7141 32.8163 54.6988 32.8276 54.6876C32.8388 54.6763 32.8541 54.67 32.87 54.67C33.9656 49.9878 33.8243 45.1011 32.46 40.49C32.4407 40.412 32.4054 40.3388 32.3564 40.2751C32.3074 40.2115 32.2456 40.1587 32.1751 40.1201C32.1046 40.0816 32.0268 40.0581 31.9468 40.0512C31.8667 40.0443 31.7861 40.0541 31.71 40.08C27.08 40.76 29.8 28.08 33.9 35.31C33.9648 35.4029 34.0538 35.4762 34.1574 35.5221C34.2609 35.5679 34.3751 35.5845 34.4874 35.5701C34.5997 35.5557 34.7059 35.5107 34.7946 35.4402C34.8832 35.3697 34.9508 35.2762 34.99 35.17C35.7084 30.9783 36.8509 26.8706 38.4 22.91C39.156 23.1102 39.9409 23.1778 40.72 23.11C42.63 22.98 44.67 22.16 46.58 22.91C47.81 23.38 48.7 24.91 49.58 25.91C50.0668 26.555 50.6811 27.0929 51.3848 27.4904C52.0884 27.8878 52.8663 28.1361 53.67 28.22C54.43 33.4 54.97 38.65 52.11 43.35C50.61 45.87 48.56 48.4 45.35 48.53L45.37 48.55ZM39.1 13C41.62 12.45 42.99 14.43 44.97 15.52C46.67 16.47 48.78 16.34 50.49 17.22C52.67 18.38 53.9 21.45 54.85 23.56C56.2059 26.1323 56.7761 29.0463 56.49 31.94C56.2042 33.1933 56.1567 34.4891 56.35 35.76C56.9 37.76 58.47 38.28 60.11 38.21C59.2259 38.8473 58.1929 39.2468 57.11 39.37C56.9982 39.3785 56.891 39.4182 56.8006 39.4846C56.7102 39.5509 56.6402 39.6413 56.5986 39.7454C56.5569 39.8495 56.5453 39.9632 56.565 40.0736C56.5847 40.184 56.6349 40.2867 56.71 40.37C57.5686 41.2896 58.6833 41.9305 59.91 42.21C58.6646 43.3639 57.0928 44.1044 55.41 44.33C55.3109 44.3516 55.2196 44.3996 55.1457 44.469C55.0718 44.5384 55.0181 44.6266 54.9904 44.7241C54.9627 44.8216 54.9619 44.9248 54.9883 45.0227C55.0146 45.1206 55.0671 45.2096 55.14 45.28C56.3 46.51 56.98 47.12 54.8 47.8C54.097 48.0343 53.3541 48.1249 52.6155 48.0665C51.8768 48.0081 51.1574 47.8019 50.5 47.46C50.9186 47.0849 51.3065 46.6769 51.66 46.24C56.09 40.78 55.96 34.65 55 28.04C55.41 27.7 55.34 26.95 54.73 27.04C51.39 27.38 50.36 23.97 48.11 22.33C47.4221 21.8548 46.6414 21.5307 45.8193 21.379C44.9971 21.2274 44.1521 21.2515 43.34 21.45C40.81 21.79 39.18 22.81 37.13 19.88C36.72 19.27 36.59 18.45 36.13 17.77C35.5213 16.9064 34.6974 16.2169 33.74 15.77C35.3041 14.4681 37.1332 13.5228 39.1 13ZM27 43.24C26.9302 43.1562 26.8379 43.0942 26.7339 43.0613C26.6299 43.0285 26.5187 43.0261 26.4135 43.0545C26.3082 43.083 26.2133 43.141 26.14 43.2217C26.0667 43.3024 26.0181 43.4025 26 43.51C25.94 43.85 25.8 44.12 25.73 44.51C24.8979 42.6696 24.4781 40.6696 24.5 38.65C24.4932 38.5373 24.4547 38.4289 24.389 38.3371C24.3234 38.2453 24.2331 38.1739 24.1287 38.1311C24.0243 38.0883 23.9099 38.0758 23.7987 38.095C23.6875 38.1143 23.5839 38.1645 23.5 38.24C22.983 38.7608 22.5869 39.389 22.34 40.08C20.84 36.27 22.68 32.18 24.18 28.5C25.34 25.64 28.18 14.94 32.78 17.5C32.9083 17.5667 33.0572 17.5821 33.1965 17.5431C33.3357 17.5041 33.4549 17.4136 33.53 17.29C34.5456 18.0601 35.3251 19.0994 35.78 20.29C35.9732 20.9697 36.3148 21.5981 36.78 22.13C36.92 22.27 37.12 22.4 37.26 22.54C35.823 26.1571 34.725 29.8998 33.98 33.72C32.28 31.88 29.55 31.47 28.39 34.47C27.39 37.12 28.05 41.35 31.32 41.35C32.1192 44.2993 32.42 47.3615 32.21 50.41C30.8092 47.8101 29.041 45.4256 26.96 43.33L27 43.24ZM7.44999 104C6.69999 103.86 5.68 103.59 4.93 103.45C2.27 102.98 2.26999 100.66 2.26999 99.64C2.26999 98.34 3.15999 96.57 3.63999 95.28C4.90877 91.905 6.36435 88.6033 8 85.39C9.35999 82.46 10.8 79.46 12.16 76.53C13.59 73.4 14.89 70.26 17.55 67.95C22.39 63.79 27.23 59.95 31.73 55.34C36.49 60.4892 41.5452 65.3574 46.87 69.92C46.9572 69.9852 47.0598 70.0266 47.1678 70.0403C47.2757 70.0541 47.3854 70.0395 47.4861 69.9983C47.5869 69.957 47.6751 69.8903 47.7424 69.8047C47.8097 69.7191 47.8536 69.6176 47.87 69.51C48.2995 65.1641 48.4598 60.7957 48.35 56.43C50.6416 57.2349 52.9791 57.9027 55.35 58.43C58.28 59.05 61.49 59.05 64.01 60.82C68.17 63.82 69.81 69.34 71.17 73.97C71.24 74.18 71.38 74.31 71.51 74.31C69.4 75.74 67.28 77.11 65.17 78.47C65.17 73.47 62.51 69.47 59.71 65.47C59.31 64.86 58.28 65.47 58.71 66.09C61.51 69.9 64.24 73.92 64.03 78.83C64.03 78.97 64.03 79.03 64.1 79.1C55.85 84.42 47.53 89.46 39.1 94.44C38.4141 94.3176 37.707 94.4378 37.1 94.78C34.65 95.94 32.81 97.64 30.1 98.46C30.0814 98.46 30.0636 98.4674 30.0505 98.4805C30.0374 98.4936 30.03 98.5114 30.03 98.53C30.03 98.32 30.1 98.12 30.1 97.91C30.1171 97.792 30.0924 97.6717 30.03 97.57C30.03 97.37 29.89 97.23 29.62 97.16C29.35 97.09 29.01 96.96 28.62 96.89C28.34 92.89 27.11 89.19 25.89 85.37C24.46 81.01 23.02 76.65 21.66 72.29C21.45 71.61 20.29 71.88 20.5 72.63C21.8 76.63 23.09 80.63 24.39 84.63L24.18 84.84C22.1615 87.8304 20.6198 91.1163 19.61 94.58C16.2286 93.8198 12.7341 93.7044 9.30999 94.24C8.55999 94.38 8.91 95.47 9.66 95.4C16.27 94.24 22.48 96.49 28.75 98.19C28.34 100.92 28.07 103.71 27.93 106.44C21.052 106.139 14.2062 105.323 7.44999 104ZM27.37 96.64C25.19 96.03 22.94 95.34 20.75 94.87C21.6583 91.7646 23.0052 88.8047 24.75 86.08C26.0619 89.4746 26.9323 93.0236 27.34 96.64H27.37ZM15.71 121.92C13.18 123.15 9.15999 125.19 6.63999 122.81C4.31999 120.56 5.54999 116.81 7.51999 114.81C10.86 111.41 16.39 109.57 20.62 107.45C20.69 107.39 20.75 107.39 20.82 107.32C23.28 107.52 25.66 107.59 27.98 107.73C28.19 107.73 29.07 107.45 29.14 107.05V106.84C32.3876 106.972 35.6239 107.306 38.83 107.84C39.65 107.98 40.4 108.12 41.15 108.18C32.83 112.95 24.44 117.79 15.71 121.88V121.92ZM66.24 127.72C51.1667 127.58 36.0967 127.463 21.03 127.37C21.85 124.85 22.66 122.37 23.48 119.81C23.5051 119.73 23.5118 119.645 23.4997 119.562C23.4875 119.479 23.4569 119.4 23.41 119.33C23.4632 119.323 23.5125 119.298 23.55 119.26C29.07 116.4 34.46 113.34 39.85 110.2H39.92C45.31 110.06 50.63 110 56.01 109.86C58.3774 109.948 60.7479 109.902 63.11 109.72C63.24 109.72 63.31 109.66 63.38 109.66C64.7724 115.602 65.7282 121.638 66.24 127.72ZM78.52 93.98C76.34 97.46 69.24 106.38 66.18 98.82C66.12 98.6799 66.0098 98.5673 65.871 98.5044C65.7322 98.4414 65.5749 98.4327 65.43 98.48C65.43 96.91 65.43 95.41 65.36 93.84C70.47 90.71 75.52 87.51 80.5 84.17C81.5069 84.1776 82.5119 84.0838 83.5 83.89C82.1276 87.3913 80.4547 90.7673 78.5 93.98H78.52ZM90 77.45C89.52 78.61 87.68 80.45 84 82.36C83.2222 82.8362 82.3031 83.0271 81.4 82.9C81.54 82.83 81.61 82.76 81.75 82.76C81.89 82.76 81.81 82.76 81.88 82.7C82.36 82.42 82.77 82.36 82.7 81.81C82.5 80.81 80.79 75.27 82.63 75.06C82.77 76.56 83.04 78.13 83.31 79.56C83.45 80.31 84.61 79.97 84.47 79.22C84.33 78.47 82.15 70.77 84 71.45C84.376 73.7967 84.897 76.1178 85.56 78.4C85.7 79.15 86.86 78.81 86.72 78.06L85.77 74.45C85.5 73.02 84.2 69.82 85.7 69.54C85.7 69.54 85.97 69.07 87.2 76.22C87.34 76.97 88.43 76.97 88.36 76.22C88.1392 73.5838 87.6363 70.9789 86.86 68.45C86.86 68.38 86.79 68.38 86.79 68.32C89.11 65.45 90.34 76.56 90 77.45Z" fill="#010101"/>
<path d="M170.39 44.1199C170.404 52.6275 167.894 60.948 163.177 68.0285C158.461 75.109 151.75 80.6313 143.894 83.8966C136.038 87.1619 127.39 88.0235 119.044 86.3722C110.698 84.721 103.03 80.6312 97.0092 74.6203C90.9886 68.6094 86.8862 60.9477 85.2214 52.6046C83.5566 44.2615 84.404 35.6121 87.6565 27.7508C90.909 19.8895 96.4204 13.1696 103.493 8.44164C110.566 3.71363 118.882 1.18995 127.39 1.18994C138.782 1.18993 149.709 5.71065 157.771 13.7596C165.833 21.8085 170.371 32.7278 170.39 44.1199Z" stroke="#010101" stroke-width="1.6" stroke-linejoin="round"/>
<path d="M164.11 44.1199C164.116 51.3778 161.969 58.4744 157.941 64.512C153.913 70.5496 148.185 75.2569 141.481 78.0385C134.778 80.82 127.4 81.5509 120.281 80.1386C113.161 78.7263 106.621 75.2343 101.487 70.1043C96.3527 64.9743 92.8553 58.4368 91.4372 51.3189C90.0191 44.2009 90.7439 36.8222 93.52 30.1162C96.2961 23.4103 100.999 17.6783 107.033 13.6454C113.067 9.61254 120.162 7.45996 127.42 7.45996C137.146 7.45731 146.476 11.3179 153.356 18.1927C160.236 25.0675 164.105 34.3935 164.11 44.1199Z" stroke="#010101" stroke-width="1.6" stroke-linejoin="round"/>
<path d="M65.08 96.6L66.31 99.05L65.08 99.94V96.6Z" fill="#010101"/>
<path d="M29.35 99.94L30.64 99.53V98.23L29.14 98.78L29.35 99.94Z" fill="#010101"/>
<g style="mix-blend-mode:multiply" opacity="0.15">
<path d="M39.25 22.46L34.35 35.37L36.8 25.77L37.76 22.46H39.25Z" fill="#010101"/>
</g>
<g style="mix-blend-mode:multiply" opacity="0.15">
<path d="M56.85 39.85L59.95 38.68L61.39 37.24H58.99L57.6 35.85L57.07 33.85V29.26L56 25.34L53.87 20.43L51.31 16.81L49.17 16.06L45.76 15.21L44.97 15.5L42.56 12.5H39.25C40.7962 14.6741 42.9494 16.3438 45.44 17.3C49.39 18.69 53.65 22.1 52.91 27.3C52.6524 29.3927 52.703 31.5119 53.06 33.59C52.96 36.51 52.56 39.76 51.41 41.7C49.6995 44.4889 47.6874 47.0811 45.41 49.43V68.05L47.92 69.4V57L47.72 49L49.27 47.45L52.03 44.52L49.29 48.18H51.44L54.94 48.57L56.61 46.9L55.16 45.25L58.8 43.66L60.67 41.79L57.52 40.46L56.85 39.85ZM53.44 42.62L52 44.55L54.07 39.8L54.26 38.68V38.78L53.44 42.62Z" fill="#010101"/>
</g>
<g style="mix-blend-mode:multiply" opacity="0.15">
<path d="M31.73 40.1H32.85C32.85 40.1 35.85 46.77 34.35 51.69C32.85 56.61 32.29 55.29 32.29 55.29L33.29 47.69L31.73 40.1Z" fill="#010101"/>
</g>
<g style="mix-blend-mode:multiply" opacity="0.15">
<path d="M48.31 55.09L52 56.74L56 57.59L61.39 59.16L64.95 60.07L68.23 64.56L71.56 74.31L70.65 75.65C70.65 75.65 67.54 65.1 63.82 62.14C60.1 59.18 47.89 58.44 47.89 58.44L48.31 55.09Z" fill="#010101"/>
</g>
<g style="mix-blend-mode:multiply" opacity="0.15">
<path d="M20.55 71.81H23.72C23.72 71.81 28.78 87.81 29.4 92.72C30.02 97.63 29.62 99.46 29.62 99.46L28.62 96.94L27.3201 96.6C27.0881 93.2226 26.539 89.8746 25.68 86.6C24.373 81.5393 22.6574 76.5931 20.55 71.81Z" fill="#010101"/>
</g>
<g style="mix-blend-mode:multiply" opacity="0.15">
<path d="M31.7299 98.69L30.6799 106.23H28.6899L29.6199 99.46L31.7299 98.69Z" fill="#010101"/>
</g>
<g style="mix-blend-mode:multiply" opacity="0.15">
<path d="M6.93005 123.58L38.8301 107.84H41.9201L25.73 117.75L12.7601 124.15H9.07005L6.93005 123.58Z" fill="#010101"/>
</g>
<g style="mix-blend-mode:multiply" opacity="0.15">
<path d="M48.1 101.3L81.32 80.35L81.72 82.76L49.94 101.51L48.1 101.3Z" fill="#010101"/>
</g>
<g style="mix-blend-mode:multiply" opacity="0.15">
<path d="M90.93 74.65L94.97 72.34L95.98 73.97L90.86 77.18L90.93 74.65Z" fill="#010101"/>
</g>
<g style="mix-blend-mode:multiply" opacity="0.15">
<path d="M58.7399 66.14L56.6799 68.14C56.6799 68.14 59.6799 69.43 61.3899 74.74C61.9429 76.7973 61.8733 78.9723 61.1899 80.99L65.1899 78.43L64.0799 73.2L61.9999 69.47L58.7399 66.14Z" fill="#010101"/>
</g>
<g style="mix-blend-mode:multiply" opacity="0.15">
<path d="M65.36 93.81L64.61 108.32L63.3801 109.62L65.36 118.04L66.53 126.14H61.69L59.42 109.98L61.39 95.37L65.36 93.81Z" fill="#010101"/>
</g>
<g style="mix-blend-mode:multiply" opacity="0.15">
<path d="M152.46 9.25C152.46 9.25 176.39 44.4 155.1 68.18C133.81 91.96 96 74 96 74C96 74 127.08 105.2 159 73.27C190.92 41.34 152.46 9.25 152.46 9.25Z" fill="#010101"/>
</g>
<path d="M64.7899 55.51C68.1099 56.29 71.6999 57.76 72.4499 61.46C72.6099 62.27 73.8499 61.92 73.6799 61.12C72.8399 56.97 68.89 55.12 65.13 54.27C64.33 54.08 63.9899 55.32 64.7899 55.51Z" fill="#231F20"/>
<path d="M82.26 101.65C81.16 104.65 78.47 106.33 75.73 107.65C74.99 108.01 75.64 109.12 76.38 108.76C79.46 107.25 82.26 105.31 83.5 101.97C83.78 101.2 82.55 100.87 82.26 101.63V101.65Z" fill="#231F20"/>
<path d="M15.5799 60.94C12.3459 62.9688 9.74715 65.8655 8.07995 69.3C7.74995 70.04 8.84995 70.7 9.18995 69.94C10.7403 66.705 13.1651 63.9685 16.1899 62.04C16.8699 61.58 16.1899 60.47 15.5499 60.94H15.5799Z" fill="#231F20"/>
<path d="M151.75 86.65C157.21 85.3 162.45 81.25 164.57 75.97C164.87 75.2 163.64 74.87 163.33 75.63C161.39 80.48 156.39 84.1801 151.41 85.4201C151.258 85.4749 151.133 85.5849 151.059 85.7281C150.985 85.8712 150.968 86.037 151.011 86.1923C151.054 86.3476 151.154 86.481 151.291 86.5658C151.428 86.6507 151.592 86.6808 151.75 86.65Z" fill="#231F20"/>
<path d="M119.85 57.23V40.77C119.85 40.4305 119.715 40.1049 119.475 39.8649C119.235 39.6248 118.91 39.49 118.57 39.49C118.231 39.49 117.905 39.6248 117.665 39.8649C117.425 40.1049 117.29 40.4305 117.29 40.77V57.23C117.29 57.5695 117.425 57.895 117.665 58.1351C117.905 58.3751 118.231 58.51 118.57 58.51C118.91 58.51 119.235 58.3751 119.475 58.1351C119.715 57.895 119.85 57.5695 119.85 57.23Z" fill="#231F20"/>
<path d="M129.52 57.23V35.05C129.52 34.7105 129.385 34.385 129.145 34.1449C128.905 33.9049 128.579 33.77 128.24 33.77C127.9 33.77 127.575 33.9049 127.335 34.1449C127.095 34.385 126.96 34.7105 126.96 35.05V57.23C126.96 57.5695 127.095 57.8951 127.335 58.1351C127.575 58.3752 127.9 58.51 128.24 58.51C128.579 58.51 128.905 58.3752 129.145 58.1351C129.385 57.8951 129.52 57.5695 129.52 57.23Z" fill="#231F20"/>
<path d="M139.19 57.23V27.33C139.19 26.9905 139.055 26.6649 138.815 26.4249C138.575 26.1848 138.249 26.05 137.91 26.05C137.571 26.05 137.245 26.1848 137.005 26.4249C136.765 26.6649 136.63 26.9905 136.63 27.33V57.23C136.63 57.5695 136.765 57.895 137.005 58.1351C137.245 58.3751 137.571 58.51 137.91 58.51C138.249 58.51 138.575 58.3751 138.815 58.1351C139.055 57.895 139.19 57.5695 139.19 57.23Z" fill="#231F20"/>
<path d="M114.12 30.12C119.99 26 126.35 22.34 133.24 20.26C133.424 20.1463 133.566 19.976 133.645 19.7749C133.723 19.5737 133.735 19.3524 133.678 19.1441C133.62 18.9358 133.497 18.7517 133.326 18.6194C133.155 18.4871 132.946 18.4136 132.73 18.41C125.715 20.7004 119.109 24.0929 113.16 28.46C112.16 29.16 113.16 30.83 114.16 30.12H114.12Z" fill="#231F20"/>
<path d="M135.52 23L138.21 17.05C138.277 16.9217 138.315 16.7806 138.322 16.6362C138.329 16.4918 138.304 16.3476 138.25 16.2136C138.196 16.0795 138.113 15.9589 138.008 15.8598C137.903 15.7608 137.777 15.6858 137.64 15.64L131.25 14.47C131.069 14.4357 130.881 14.4521 130.709 14.5176C130.537 14.5831 130.386 14.695 130.273 14.8409C130.16 14.9868 130.09 15.1611 130.07 15.3445C130.05 15.5279 130.081 15.7132 130.16 15.88L133.86 23C134.43 24.09 136.09 23.12 135.52 22L131.82 14.89L130.74 16.3L137.13 17.46L136.55 16.05L133.86 22C133.36 23.09 135 24.07 135.52 23Z" fill="#231F20"/>
</svg>
