<?xml version="1.0" encoding="utf-8"?>
<svg version="1.0" width="1000.000000pt" height="1000.000000pt" viewBox="0 0 1000.000000 1000.000000" preserveAspectRatio="xMidYMid meet" xmlns="http://www.w3.org/2000/svg">
  <g transform="matrix(0.307859, 0, 0, -0.337472, -1036.916382, 2339.474365)" fill="#000000" stroke="none" style="">
    <path d="M4305 6083 c-604 -906 -904 -1507 -908 -1818 -1 -80 2 -97 26 -148 50 -102 159 -141 331 -119 252 32 541 143 1086 418 657 331 1127 638 1385 905 145 150 204 253 205 355 1 213 -261 326 -850 368 -55 3 -60 3 -30 -6 445 -126 563 -296 399 -574 -47 -82 -287 -320 -434 -430 -243 -184 -655 -446 -805 -511 -93 -41 -143 -43 -166 -8 -27 42 1 131 115 359 l99 199 -35 96 c-19 53 -72 204 -118 336 -117 340 -235 635 -255 635 -4 0 -24 -26 -45 -57z" style="fill-rule: nonzero; fill: rgb(255, 255, 255);"/>
    <g>
      <path d="M 3856 6867 C 4139 6729 4375 6417 4604 5877 C 4646 5779 4713 5615 4754 5512 C 4928 5071 5032 4844 5053 4856 C 5106 4888 5324 5037 5405 5098 C 5494 5165 5660 5300 5660 5305 C 5660 5313 5504 5693 5466 5780 C 5209 6357 4919 6662 4484 6813 C 4305 6875 4089 6910 3879 6910 L 3766 6910 L 3856 6867 Z" style="fill-rule: nonzero; fill: rgb(255, 255, 255);"/>
      <path d="M 5789 4814 C 5707 4756 5504 4630 5375 4555 C 5320 4524 5271 4494 5266 4489 C 5252 4477 5331 4381 5435 4282 C 5572 4153 5707 4077 5888 4028 C 5952 4010 5995 4007 6145 4006 C 6259 4005 6347 4010 6385 4018 C 6539 4051 6590 4064 6589 4069 C 6589 4072 6563 4087 6532 4102 C 6292 4217 6073 4449 5903 4767 L 5854 4859 L 5789 4814 Z" style="fill-rule: nonzero; fill: rgb(255, 255, 255);"/>
    </g>
  </g>
</svg>