<svg width="46" height="56" viewBox="0 0 46 56" fill="none" xmlns="http://www.w3.org/2000/svg">
<path d="M16.5967 42.0405L14.5469 44.1986L15.9398 46.7664L14.9848 49.488L15.9398 50.6023H18.7196L20.4106 53.4583L22.7828 54.5277L26.1891 53.4583L27.5273 50.8712L31.0005 49.8915V47.3044V45.3384V43.2188L30.3375 42.5208L16.5967 42.0405Z" fill="#ED1C24"/>
<g style="mix-blend-mode:multiply" opacity="0.15">
<path d="M31.0191 12.8848C31.0191 12.8848 33.9692 22.0612 31.0191 29.9122C29.4245 33.9765 28.0954 38.1508 27.041 42.4058L30.3561 42.521L31.7004 37.8463L33.7989 34.1898L36.3962 27.7029L36.6821 21.2608L34.4315 16.0354L31.0191 12.8848Z" fill="#010101"/>
</g>
<path d="M22.2846 6.26332C22.3057 6.47902 22.4019 6.67888 22.5546 6.82433C22.7074 6.96978 22.9059 7.05052 23.1118 7.05097C23.3253 7.05773 23.5337 6.98096 23.6966 6.83549C23.8595 6.69002 23.9654 6.48618 23.9938 6.26332C24.0324 6.089 24.0528 5.91078 24.0547 5.73181C24.0547 4.41905 24.0547 3.0999 24.0547 1.78074C24.0762 1.53948 24.0408 1.29637 23.9516 1.07297C23.8625 0.84956 23.7224 0.652758 23.5437 0.5H22.7347C22.5526 0.659704 22.4107 0.864218 22.3216 1.09543C22.2325 1.32664 22.1989 1.57741 22.2238 1.82556C22.2238 3.05507 22.2238 4.28458 22.2238 5.51409C22.2256 5.76511 22.2459 6.01561 22.2846 6.26332Z" fill="black" stroke="black" stroke-width="0.5" stroke-miterlimit="10"/>
<path d="M33.9269 13.7812C31.5706 11.021 28.3378 9.26211 24.8362 8.83521C21.3346 8.40832 17.8054 9.34284 14.9124 11.4631C14.115 12.0353 13.3769 12.6942 12.7105 13.429C12.6605 13.4818 12.6157 13.5397 12.5767 13.6019C11.8153 14.5195 11.1199 15.4956 10.4964 16.522C10.4523 16.5923 10.4117 16.6649 10.3747 16.7397C9.436 18.5182 8.85034 20.479 8.65333 22.503C8.31119 25.5725 8.90098 28.6773 10.3382 31.3721C11.4757 33.5109 12.7713 35.5537 13.8905 37.7246C14.4952 38.8615 14.965 40.0724 15.2895 41.3298C15.3345 41.4701 15.3363 41.6216 15.2948 41.763C15.2533 41.9044 15.1706 42.0284 15.0584 42.1175C14.5495 42.5899 14.2249 43.2441 14.1474 43.9537C14.0699 44.6633 14.2449 45.378 14.6387 45.9597C14.7267 46.0612 14.7755 46.1937 14.7755 46.3311C14.7755 46.4686 14.7267 46.601 14.6387 46.7025C14.2695 47.2552 14.0938 47.9255 14.1415 48.5993C14.1892 49.273 14.4573 49.9085 14.9002 50.3974C15.2307 50.7585 15.6361 51.0342 16.0845 51.203C16.5329 51.3719 17.0123 51.4293 17.4854 51.3708C17.6493 51.336 17.8198 51.3665 17.9636 51.4564C18.1075 51.5463 18.2145 51.6893 18.264 51.8575C18.597 52.8212 19.1899 53.6617 19.97 54.2759C20.7501 54.8902 21.6834 55.2514 22.6556 55.3155C23.7013 55.4623 24.7642 55.2523 25.6882 54.7164C26.6122 54.1804 27.3486 53.3468 27.7894 52.3378C27.8923 52.015 28.0982 51.7397 28.3721 51.5588C28.6461 51.3778 28.9711 51.3023 29.2919 51.3452C29.8236 51.3712 30.3505 51.2281 30.8039 50.9346C31.2574 50.6411 31.6164 50.2107 31.8344 49.6995C32.0757 49.2239 32.1832 48.6858 32.1444 48.1482C32.1056 47.6107 31.9221 47.0959 31.6154 46.6641C31.5406 46.5761 31.4993 46.4621 31.4993 46.3439C31.4993 46.2258 31.5406 46.1118 31.6154 46.0237C32.029 45.4356 32.2156 44.7044 32.1377 43.9773C32.0599 43.2502 31.7233 42.5811 31.1957 42.1047C31.0977 42.0245 31.0254 41.9146 30.9884 41.7898C30.9514 41.665 30.9516 41.5314 30.9889 41.4067C31.25 40.3355 31.6233 39.2981 32.1021 38.3137C32.1365 38.2409 32.167 38.1661 32.1933 38.0896C32.2134 38.0519 32.2358 38.0155 32.2602 37.9807C32.6982 37.2187 34.821 33.338 35.3015 32.5888C36.9468 29.9528 37.7951 26.854 37.7346 23.7005C37.7312 22.806 37.6333 21.9147 37.4427 21.043C36.9303 18.327 35.7133 15.8135 33.9269 13.7812ZM26.0194 51.8383C25.3746 52.8693 24.298 53.4648 22.5157 53.4584C22.0374 53.3781 21.5816 53.1885 21.1802 52.9031C20.7788 52.6177 20.4416 52.2434 20.1922 51.8063C19.9975 51.5245 20.0036 51.3708 20.3929 51.3708H25.8247C25.9342 51.3708 26.0802 51.3196 26.1471 51.4541C26.214 51.5886 26.1167 51.723 26.0437 51.8383H26.0194ZM26.7919 47.2148C26.9544 47.2623 27.122 47.2881 27.2907 47.2917C27.5948 47.2917 27.8989 47.2917 28.2091 47.2917C28.5193 47.2917 28.9208 47.2917 29.2736 47.2917C29.5344 47.2773 29.7905 47.3692 29.9887 47.5484C30.1868 47.7276 30.3118 47.9802 30.3376 48.2539C30.3635 48.5275 30.2882 48.8011 30.1274 49.0178C29.9666 49.2345 29.7328 49.3777 29.4743 49.4177C29.2926 49.4597 29.1068 49.479 28.9208 49.4753H17.309C17.1753 49.4851 17.0412 49.4851 16.9075 49.4753C16.7716 49.4656 16.6388 49.4277 16.5169 49.3638C16.3949 49.2998 16.2862 49.2112 16.1969 49.1029C16.1076 48.9946 16.0395 48.8688 15.9965 48.7327C15.9535 48.5966 15.9365 48.4529 15.9465 48.3099C15.9514 48.1657 15.9847 48.0242 16.0441 47.8943C16.1036 47.7644 16.188 47.6488 16.2921 47.555C16.3961 47.4611 16.5174 47.391 16.6485 47.349C16.7795 47.3069 16.9175 47.294 17.0535 47.3109C19.0851 47.3109 21.1167 47.3109 23.1362 47.3109C23.356 47.3185 23.5761 47.3035 23.7931 47.2661C23.9082 47.2565 24.0202 47.2227 24.1225 47.1665C24.2249 47.1103 24.3154 47.033 24.3886 46.9391C24.4619 46.8453 24.5164 46.7368 24.5489 46.6202C24.5814 46.5036 24.5912 46.3813 24.5778 46.2607C24.5703 46.1401 24.5396 46.0224 24.4876 45.9148C24.4355 45.8071 24.3632 45.7117 24.2749 45.6344C24.1867 45.5571 24.0845 45.4995 23.9745 45.4652C23.8645 45.4308 23.7489 45.4204 23.635 45.4346H17.4975C17.2436 45.4453 16.9896 45.4173 16.7433 45.3514C16.4901 45.3029 16.2651 45.1514 16.1171 44.9297C15.9691 44.708 15.91 44.4339 15.9525 44.1667C15.9603 44.0365 15.9924 43.9092 16.0472 43.7922C16.1019 43.6752 16.1782 43.5708 16.2715 43.4851C16.3649 43.3993 16.4734 43.3339 16.591 43.2926C16.7085 43.2513 16.8326 43.235 16.9562 43.2445C19.0182 43.2445 21.0863 43.2445 23.1544 43.2445C25.186 43.2445 27.2176 43.2445 29.2371 43.2445C29.3905 43.2253 29.546 43.2446 29.691 43.3007C29.8359 43.3568 29.9662 43.4483 30.0712 43.5675C30.1762 43.6868 30.2529 43.8305 30.2951 43.9869C30.3372 44.1434 30.3436 44.3081 30.3137 44.4677C30.2955 44.693 30.2037 44.9048 30.054 45.067C29.9044 45.2292 29.706 45.332 29.4926 45.3578C28.6684 45.4495 27.8389 45.4774 27.0109 45.441C26.7971 45.4335 26.5887 45.5121 26.4282 45.6609C26.2677 45.8097 26.1671 46.0173 26.1471 46.2415C26.117 46.4634 26.1699 46.6889 26.2948 46.8705C26.4196 47.0521 26.6066 47.1756 26.8162 47.2148H26.7919ZM34.7359 29.7264C34.0789 31.18 31.4451 35.5665 30.7091 36.9689C30.6356 37.1033 30.5744 37.2449 30.5266 37.3916L30.4901 37.462C29.9498 38.512 29.5409 39.6313 29.2736 40.7919C29.2647 40.8775 29.2394 40.9603 29.1994 41.0354C29.1594 41.1105 29.1054 41.1763 29.0407 41.2289C28.9759 41.2815 28.9018 41.3198 28.8227 41.3415C28.7435 41.3633 28.6611 41.368 28.5802 41.3554C26.7554 41.3554 24.9306 41.3554 23.1423 41.3554C21.354 41.3554 19.4927 41.3554 17.6679 41.3554C17.2542 41.3554 17.0596 41.2274 16.9744 40.7919C16.8523 40.1629 16.6625 39.5506 16.4087 38.9669C15.2702 36.36 13.9401 33.8507 12.4307 31.4618C11.3916 29.8145 10.7157 27.9434 10.4526 25.9855C10.1895 24.0276 10.3457 22.0325 10.91 20.1464C11.1873 19.2447 11.5394 18.3705 11.9623 17.5337C12.6016 16.4247 13.3609 15.3975 14.225 14.4728C16.6103 12.0261 19.8089 10.6568 23.1392 10.6568C26.4695 10.6568 29.6681 12.0261 32.0534 14.4728C33.9393 16.414 35.2111 18.92 35.6954 21.6495C36.1798 24.379 35.8532 27.1993 34.7602 29.7264H34.7359Z" fill="black" stroke="black" stroke-width="0.5" stroke-miterlimit="10"/>
<path d="M11.1169 7.31992C11.4575 7.96029 11.7859 8.63908 12.1387 9.28585C12.2265 9.48325 12.3815 9.6388 12.5729 9.72179C12.7644 9.80478 12.9784 9.80918 13.1728 9.73411C13.5682 9.60604 13.7811 9.30506 13.7811 8.70952C13.7582 8.56422 13.7086 8.42501 13.6351 8.29968C12.9538 6.98052 12.2787 5.66777 11.5852 4.36142C11.5374 4.23633 11.4644 4.12361 11.3713 4.03099C11.2782 3.93838 11.1672 3.86808 11.0458 3.82489C10.9245 3.7817 10.7957 3.76665 10.6683 3.78078C10.541 3.79491 10.418 3.83789 10.3078 3.90675C10.2007 3.97105 10.1077 4.05843 10.0349 4.16319C9.96202 4.26795 9.91101 4.38772 9.88517 4.51466C9.85933 4.64161 9.85924 4.77286 9.88491 4.89984C9.91058 5.02683 9.96141 5.14667 10.0341 5.25153C10.4173 5.94953 10.7823 6.62832 11.1169 7.31992Z" fill="black" stroke="black" stroke-width="0.5" stroke-miterlimit="10"/>
<path d="M33.3245 9.79194C33.4694 9.7958 33.6128 9.76008 33.7407 9.68825C33.8686 9.61643 33.9767 9.51096 34.0544 9.3821C34.8087 7.94768 35.5568 6.51325 36.2806 5.05962C36.3302 4.96005 36.3605 4.85116 36.3699 4.7392C36.3793 4.62724 36.3675 4.51443 36.3353 4.40728C36.3031 4.30013 36.251 4.20075 36.1821 4.11488C36.1132 4.02901 36.0289 3.95834 35.9339 3.90695C35.8408 3.8435 35.7366 3.80025 35.6274 3.77975C35.5182 3.75924 35.4063 3.76189 35.2981 3.78754C35.1899 3.81318 35.0876 3.8613 34.9973 3.92909C34.907 3.99688 34.8305 4.08298 34.7722 4.18231C33.9997 5.60393 33.2393 7.03195 32.5398 8.49199C32.477 8.63097 32.4487 8.78447 32.4577 8.93809C32.4666 9.09171 32.5124 9.24044 32.5908 9.37034C32.6692 9.50024 32.7776 9.60705 32.906 9.68079C33.0343 9.75453 33.1783 9.79277 33.3245 9.79194Z" fill="black" stroke="black" stroke-width="0.5" stroke-miterlimit="10"/>
<path d="M5.69726 15.5871C4.45031 14.729 3.20333 13.8773 1.93813 13.0256C1.84278 12.9558 1.73501 12.9072 1.62127 12.8826C1.50753 12.858 1.39019 12.858 1.27644 12.8825C1.16269 12.9071 1.05487 12.9557 0.959499 13.0254C0.864125 13.0951 0.783183 13.1845 0.721598 13.2882C0.649322 13.3857 0.597779 13.4984 0.570422 13.6187C0.543064 13.739 0.540547 13.864 0.563034 13.9854C0.58552 14.1068 0.632488 14.2217 0.70077 14.3224C0.769052 14.4231 0.857049 14.5071 0.958831 14.5689C2.23619 15.4718 3.52572 16.3555 4.83958 17.1944C4.97286 17.2681 5.12258 17.3024 5.27288 17.2936C5.42317 17.2849 5.56845 17.2335 5.69321 17.1448C5.81798 17.0562 5.91759 16.9336 5.9815 16.7901C6.0454 16.6466 6.07117 16.4876 6.05612 16.3299C6.06618 16.1834 6.03809 16.0368 5.97485 15.9059C5.91161 15.775 5.81563 15.6648 5.69726 15.5871Z" fill="black" stroke="black" stroke-width="0.5" stroke-miterlimit="10"/>
<path d="M45.557 13.3202C45.4909 13.2098 45.4033 13.1153 45.3001 13.043C45.1969 12.9706 45.0804 12.9219 44.9582 12.9002C44.8359 12.8784 44.7107 12.8841 44.5906 12.9167C44.4706 12.9494 44.3584 13.0083 44.2614 13.0896C43.0449 13.8965 41.8283 14.7226 40.6118 15.5487C40.4754 15.6238 40.3612 15.7371 40.2818 15.876C40.2024 16.0149 40.1609 16.1742 40.1617 16.3363C40.1413 16.4968 40.1662 16.6601 40.2333 16.8058C40.3003 16.9515 40.4066 17.0733 40.5388 17.156C40.6798 17.2565 40.8461 17.3102 41.0163 17.3102C41.1866 17.3102 41.3529 17.2565 41.4938 17.156C42.7103 16.3171 43.9755 15.491 45.2042 14.6393C45.3164 14.5845 45.4159 14.5048 45.4961 14.4057C45.5762 14.3066 45.6351 14.1904 45.6686 14.0651C45.7021 13.9398 45.7095 13.8084 45.6902 13.6798C45.6709 13.5512 45.6255 13.4285 45.557 13.3202Z" fill="black" stroke="black" stroke-width="0.5" stroke-miterlimit="10"/>
<g style="mix-blend-mode:multiply" opacity="0.15">
<path d="M27.0225 42.4055L24.0542 54.5277L27.0225 52.581L28.2026 50.6791L30.7208 50.3333L31.6393 49.2191L31.0006 46.3566L31.0188 44.1986L30.7208 42.0405L27.0225 42.4055Z" fill="#010101"/>
</g>
</svg>
