<svg width="166" height="80" viewBox="0 0 166 80" fill="none" xmlns="http://www.w3.org/2000/svg">
<path d="M110.001 36.7575L106.921 29.3063H103.724V36.7575H99.1631V15.4376C101.587 15.1897 104.024 15.0756 106.461 15.0961C109.432 15.0961 111.6 15.6713 112.855 16.705C114.111 17.7386 114.797 19.5632 114.797 22.0979C114.797 25.6931 113.542 27.8323 111.184 28.7491L115.402 36.7665L110.001 36.7575ZM103.724 25.5313H107.039C107.455 25.5775 107.876 25.5287 108.271 25.3885C108.665 25.2483 109.022 25.0205 109.315 24.7224C109.86 23.9578 110.104 23.0207 110.001 22.0889C110.086 21.1583 109.844 20.2273 109.315 19.4553C109.003 19.191 108.641 18.9932 108.249 18.8742C107.858 18.7551 107.446 18.7174 107.039 18.7632H103.724V25.5313Z" fill="white"/>
<path d="M129.519 19.2218V24.2641H137.503V28.0481H129.519V33.0904H139.102V36.8745H124.949V15.4377H139.102V19.2218H129.519Z" fill="white"/>
<path d="M156.109 15.0962C159.529 15.0962 161.938 15.8992 163.335 17.5051C164.707 19.1049 165.502 21.9991 165.502 25.873C165.502 29.9986 164.816 32.8658 163.335 34.5825C161.853 36.2993 159.342 37.0992 155.802 37.0992C153.555 37.0993 151.309 36.9853 149.073 36.7577V15.4378C151.423 15.2035 153.784 15.0895 156.145 15.0962H156.109ZM155.883 33.2882C156.903 33.3321 157.918 33.1349 158.846 32.713C159.593 32.2193 160.122 31.4607 160.327 30.5918C160.705 29.0547 160.86 27.4718 160.788 25.891C160.788 23.0238 160.444 21.1902 159.884 20.2734C159.324 19.3566 158.078 18.8982 156.118 18.8982C155.28 18.8907 154.441 18.9297 153.607 19.0151V33.2882H155.892H155.883Z" fill="white"/>
<path d="M110.345 64.612L107.265 57.1608H103.959V64.612H99.3621V43.1753C101.789 42.9269 104.229 42.8129 106.669 42.8337C109.631 42.8337 111.799 43.4089 113.054 44.4336C114.31 45.4582 114.996 47.3008 114.996 49.8265C114.996 53.3768 113.741 55.5519 111.383 56.4687L115.601 64.4951H110.354V64.612H110.345ZM103.959 53.3768H107.265C107.682 53.4242 108.104 53.3768 108.5 53.2383C108.896 53.0997 109.255 52.8736 109.55 52.5769C110.087 51.8089 110.328 50.8737 110.227 49.9433C110.311 49.0114 110.072 48.0792 109.55 47.3008C109.241 47.0296 108.877 46.8281 108.483 46.7102C108.088 46.5923 107.673 46.5608 107.265 46.6177H103.959V53.3768Z" fill="white"/>
<path d="M129.862 46.9591V52.0014H137.846V55.7854H129.862V60.8278H139.445V64.6118H125.184V43.175H139.328V46.9591H129.862Z" fill="white"/>
<path d="M156.678 42.8337C159.65 42.8337 161.817 43.409 162.955 44.4336C164.093 45.4583 164.671 47.3008 164.671 50.0512C164.671 52.8016 164.093 54.6352 162.955 55.6688C161.817 56.7024 159.758 57.1608 156.795 57.1608H153.716V64.4951H149.037V43.1753C151.313 42.9506 153.824 42.8337 156.678 42.8337ZM153.824 53.4937H156.678C157.574 53.5984 158.475 53.35 159.189 52.8016C159.64 51.9542 159.875 51.01 159.875 50.0512C159.875 49.0924 159.64 48.1482 159.189 47.3008C158.474 46.7556 157.573 46.5105 156.678 46.6178H153.824V53.4937Z" fill="white"/>
<path d="M20.7307 56.6485L49.3345 35.6162L73.2598 78.0402L20.7307 56.6485Z" fill="#58595B" stroke="#231F20" stroke-width="2" stroke-linecap="round" stroke-linejoin="round"/>
<path d="M54.474 44.748L39.5173 64.2164L24.5605 58.446L54.474 44.748Z" fill="#010101"/>
<path d="M12.4757 6.41364L55.3136 1.60498L75.3011 31.5265L1.70972 78.0401L12.4757 6.41364Z" fill="#EC2227" stroke="#231F20" stroke-width="2" stroke-linejoin="round"/>
</svg>
