<svg width="84" height="50" viewBox="0 0 84 50" fill="none" xmlns="http://www.w3.org/2000/svg">
<path d="M34.0043 32.5551C27.8204 32.5551 21.6365 32.5551 15.4384 32.5551C13.8766 32.45 12.4136 31.7147 11.354 30.5022C10.2945 29.2898 9.72004 27.6937 9.75041 26.0465C9.78078 24.3993 10.4136 22.8279 11.5171 21.6597C12.6205 20.4915 14.1096 19.8164 15.674 19.7752C21.8008 19.7752 27.9276 19.7752 34.0543 19.7752H35.0469V10.4384H14.3387C13.9888 10.4384 13.6746 10.4384 13.3676 10.5135C9.61924 11.1144 6.22629 13.1879 3.87165 16.3164C1.517 19.445 0.375489 23.3965 0.676873 27.3755C0.978258 31.3545 2.70017 35.0655 5.496 37.7617C8.29183 40.4579 11.954 41.9391 15.7454 41.907C21.9008 41.907 28.0561 41.907 34.2114 41.907C34.4828 41.907 34.7541 41.907 35.0326 41.8619V32.5551H34.0043ZM30.1483 12.1148H33.3974V17.9484H30.1483V12.1148ZM5.31992 17.2042C6.46221 15.7399 7.8728 14.5327 9.46763 13.6544C11.0625 12.7762 12.8089 12.2449 14.6029 12.0922H28.456V18.0011H27.4134C23.5646 18.0011 19.7157 18.0011 15.8597 18.0011C14.4331 17.9497 13.0218 18.324 11.7886 19.0809C10.5554 19.8377 9.55066 20.9463 8.8903 22.2786C8.46927 23.2346 8.11603 24.2221 7.83347 25.233H2.32081C2.46987 22.2858 3.52214 19.4688 5.31992 17.2042ZM28.4417 40.2005H23.8859C20.9653 40.2005 18.0447 40.2005 15.1242 40.2005C11.8505 40.0845 8.73164 38.705 6.36147 36.3249C3.99131 33.9447 2.53535 30.73 2.27082 27.2928C2.27082 27.2402 2.27082 27.1876 2.32794 27.0823H7.85489C8.01913 27.7213 8.14052 28.3603 8.34761 28.9617C8.8966 30.5423 9.89858 31.9042 11.2149 32.8591C12.5313 33.814 14.097 34.3146 15.6954 34.2917C19.6014 34.2917 23.5074 34.2917 27.4134 34.2917H28.3988L28.4417 40.2005ZM33.4402 40.1329H30.1626V34.3293H33.4402V40.1329Z" fill="black"/>
<path d="M42.4511 36.8401H40.9444C40.9444 36.5619 40.8801 36.3139 40.8801 36.0883C40.8801 33.2767 40.8801 30.4652 40.8801 27.6536C40.8188 26.9212 41.028 26.1922 41.4643 25.6181C41.9005 25.044 42.5302 24.6691 43.2223 24.5714C44.6504 24.2105 46.0786 23.8196 47.5067 23.4813C47.7479 23.3823 47.9759 23.2509 48.1851 23.0904C48.0468 22.8656 47.8757 22.6652 47.6781 22.4965C45.0218 20.8426 43.8221 18.0762 44.5219 15.1518C44.9163 13.7296 45.7381 12.4804 46.864 11.5916C47.9899 10.7028 49.3592 10.2224 50.7665 10.2224C52.1738 10.2224 53.5431 10.7028 54.669 11.5916C55.7949 12.4804 56.6168 13.7296 57.0111 15.1518C57.3489 16.5614 57.2228 18.0498 56.6534 19.3742C56.0841 20.6986 55.1051 21.7807 53.8763 22.4439C53.6423 22.6168 53.4268 22.8159 53.2336 23.0378C53.4742 23.2054 53.7331 23.3417 54.0048 23.4437C55.3901 23.8196 56.7755 24.1955 58.1679 24.5187C59.9102 24.9623 60.6315 25.9095 60.6315 27.7814V36.8025C60.3458 36.8025 60.103 36.8025 59.8603 36.8777C59.2033 36.9754 58.982 36.7198 58.9962 35.9981C59.0319 33.3068 58.9962 30.608 58.9962 27.9167C58.9962 26.6763 58.7891 26.4132 57.6895 26.1275L53.1622 25.0224C53.2265 26.2703 53.1622 27.5032 52.0911 28.1723C51.584 28.4744 51.01 28.63 50.4273 28.6234C48.9492 28.6234 48.3922 27.7212 48.0138 25.0675C46.4071 25.481 44.8004 25.8719 43.208 26.3079C42.4939 26.5184 42.3797 27.18 42.3797 27.8716C42.3797 30.5328 42.3797 33.2016 42.3797 35.8628L42.4511 36.8401ZM50.663 21.5343C51.5601 21.4989 52.4276 21.187 53.1578 20.6373C53.8881 20.0876 54.449 19.3242 54.7709 18.442C55.0928 17.5597 55.1616 16.5973 54.9687 15.6743C54.7758 14.7513 54.3297 13.9082 53.6858 13.2496C53.0419 12.591 52.2285 12.146 51.3465 11.9697C50.4645 11.7935 49.5528 11.8937 48.7244 12.258C47.896 12.6223 47.1875 13.2346 46.6867 14.019C46.1859 14.8034 45.9148 15.7253 45.9072 16.6704C45.907 17.3213 46.0308 17.9657 46.2714 18.5653C46.512 19.1649 46.8645 19.7076 47.308 20.1612C47.7515 20.6147 48.277 20.97 48.8532 21.2058C49.4295 21.4417 50.0449 21.5534 50.663 21.5343ZM49.7704 23.2859C49.7275 24.2055 49.7418 25.1271 49.8132 26.0448C49.8489 26.3906 50.3559 26.9469 50.5916 26.9244C50.8036 26.8812 51.0024 26.7839 51.1705 26.641C51.3385 26.4982 51.4708 26.3141 51.5556 26.105C51.6345 25.1676 51.6488 24.2254 51.5984 23.2859H49.7704Z" fill="black"/>
<path d="M40.5092 3.31926L35.2893 3.70265L35.1465 2.01119L42.0159 1.5L42.3444 6.01056L54.755 4.94306L54.8978 6.627L40.8448 7.85989L40.5092 3.31926Z" fill="black" stroke="black" stroke-miterlimit="10"/>
<path d="M42.3301 43.9894L41.9945 48.5L35.1465 48.0038L35.2536 46.3199L40.4949 46.6807C40.6092 45.1772 40.7234 43.6737 40.8377 42.1702L54.8693 43.388L54.7407 45.087L42.3301 43.9894Z" fill="black" stroke="black" stroke-miterlimit="10"/>
<path d="M28.4414 40.2006H23.8856C20.965 40.2006 18.0444 40.2006 15.1239 40.2006C11.8502 40.0846 8.73133 38.7051 6.36117 36.3249C3.991 33.9447 2.53504 30.73 2.27051 27.2929C2.27051 27.2403 2.27051 27.1876 2.32764 27.0824H7.85458C8.01882 27.7214 8.14021 28.3604 8.3473 28.9618C8.89629 30.5424 9.89827 31.9043 11.2146 32.8592C12.531 33.814 14.0967 34.3147 15.6951 34.2918C19.6011 34.2918 23.5071 34.2918 27.4131 34.2918H28.3985L28.4414 40.2006Z" fill="#ED1C24"/>
<path d="M28.4416 12.0997C26.8921 12.0997 25.3996 12.0997 23.9144 12.0997C20.9938 12.0997 18.0732 12.0997 15.1527 12.0997C11.8737 12.2218 8.75182 13.6092 6.38162 15.9977C4.01141 18.3863 2.55842 21.6091 2.29932 25.0526C2.29932 25.1052 2.29932 25.1578 2.35644 25.2631H7.88338C8.04762 24.6241 8.16901 23.9851 8.37609 23.3761C8.92244 21.7919 9.92312 20.4258 11.2396 19.4668C12.5561 18.5078 14.1232 18.0035 15.7239 18.0236C19.6299 18.0236 23.5359 18.0236 27.4419 18.0236H28.4273L28.4416 12.0997Z" fill="#ED1C24" stroke="#ED1C24" stroke-width="0.25" stroke-miterlimit="10"/>
<path d="M30.1484 12.1149H33.3975V17.9485H30.1484V12.1149Z" fill="white"/>
<path d="M30.1411 34.3293H33.4187V40.1555H30.1411V34.3293Z" fill="white"/>
<path d="M50.663 21.5344C50.045 21.5535 49.4296 21.4418 48.8533 21.206C48.277 20.9701 47.7515 20.6149 47.3081 20.1613C46.8646 19.7077 46.5121 19.1651 46.2715 18.5654C46.0308 17.9658 45.907 17.3214 45.9073 16.6705C45.8659 15.6541 46.1153 14.648 46.6231 13.7824C47.131 12.9168 47.8739 12.2316 48.7558 11.8156C49.6376 11.3995 50.6178 11.2716 51.5695 11.4485C52.5211 11.6255 53.4004 12.099 54.0935 12.8079C54.7867 13.5168 55.2618 14.4285 55.4573 15.4248C55.6528 16.4211 55.5598 17.4563 55.1902 18.3964C54.8207 19.3364 54.1916 20.138 53.3845 20.6975C52.5774 21.257 51.6293 21.5485 50.663 21.5344Z" fill="white"/>
<path d="M49.7717 23.2859H51.5997C51.6501 24.2254 51.6358 25.1676 51.5568 26.105C51.472 26.3141 51.3398 26.4982 51.1718 26.6411C51.0037 26.7839 50.8049 26.8812 50.5928 26.9244C50.3572 26.9244 49.8788 26.3907 49.8145 26.0449C49.7431 25.1272 49.7288 24.2055 49.7717 23.2859Z" fill="white"/>
<g style="mix-blend-mode:multiply" opacity="0.15">
<path d="M28.4412 12.0997L15.7378 18.0386H15.188L28.4412 18.0311V12.0997Z" fill="#010101"/>
</g>
<g style="mix-blend-mode:multiply" opacity="0.15">
<path d="M28.4412 34.2617L15.7378 40.2081H15.188L28.4412 40.1931V34.2617Z" fill="#010101"/>
</g>
<g style="mix-blend-mode:multiply" opacity="0.15">
<path d="M55.0835 14.1221C55.0835 14.1221 53.1912 20.4068 50.7991 22.3463C49.9636 23.0379 56.1689 19.7001 56.1689 19.7001L56.6688 16.866L55.0835 14.1221Z" fill="#010101"/>
</g>
<g style="mix-blend-mode:multiply" opacity="0.15">
<path d="M50.8065 23.2859L50.6851 27.6837C50.6851 27.6837 55.2266 27.6837 56.6762 29.2473C58.1257 30.811 59.8324 36.8927 59.8324 36.8927V26.3681L52.9273 23.5565L50.8065 23.2859Z" fill="#010101"/>
</g>
<path d="M65.2312 36.8403H63.7245C63.7245 36.5622 63.6673 36.3141 63.6602 36.0886C63.6602 33.277 63.6602 30.4654 63.6602 27.6538C63.5951 26.9219 63.802 26.1918 64.2374 25.6171C64.6728 25.0423 65.3029 24.6676 65.9952 24.5716C67.4234 24.2108 68.8515 23.8198 70.244 23.4816C70.4851 23.3825 70.7131 23.2512 70.9223 23.0906C70.784 22.8659 70.6129 22.6654 70.4153 22.4968C67.759 20.8429 66.5593 18.0764 67.2663 15.1521C67.6583 13.7287 68.4788 12.4778 69.6043 11.5876C70.7299 10.6975 72.0995 10.2162 73.5073 10.2162C74.915 10.2162 76.2847 10.6975 77.4102 11.5876C78.5358 12.4778 79.3563 13.7287 79.7483 15.1521C80.1049 16.5653 79.9936 18.0642 79.4329 19.4019C78.8722 20.7397 77.8954 21.8365 76.6635 22.5118C76.4258 22.6826 76.2077 22.8819 76.0137 23.1057C76.2542 23.2733 76.5132 23.4096 76.7849 23.5116C78.1702 23.8875 79.5627 24.2634 80.948 24.5866C82.6903 25.0302 83.4115 25.9774 83.4115 27.8493V36.8704C83.1259 36.8704 82.8831 36.8704 82.6403 36.9456C81.9905 37.0433 81.7691 36.7877 81.7763 36.066C81.8191 33.3747 81.7763 30.6759 81.7763 27.9846C81.7763 26.7442 81.5692 26.4811 80.4695 26.1954L76.0137 25.0227C76.078 26.2706 76.0494 27.5035 74.9426 28.1725C74.4354 28.4746 73.8615 28.6302 73.2788 28.6236C71.8007 28.6236 71.2437 27.7215 70.8652 25.0678C69.2585 25.4812 67.6519 25.8722 66.0595 26.3082C65.3454 26.5187 65.2312 27.1802 65.2383 27.8718V36.8403H65.2312ZM73.4787 21.5345C74.3758 21.4991 75.2434 21.1872 75.9736 20.6375C76.7039 20.0878 77.2648 19.3245 77.5867 18.4422C77.9086 17.5599 77.9774 16.5976 77.7845 15.6746C77.5916 14.7515 77.1455 13.9084 76.5016 13.2499C75.8577 12.5913 75.0442 12.1463 74.1623 11.97C73.2803 11.7937 72.3685 11.8939 71.5402 12.2582C70.7118 12.6225 70.0032 13.2348 69.5024 14.0192C69.0016 14.8036 68.7306 15.7255 68.723 16.6706C68.7227 17.3215 68.8466 17.9659 69.0872 18.5655C69.3278 19.1652 69.6803 19.7078 70.1238 20.1614C70.5673 20.615 71.0927 20.9702 71.669 21.2061C72.2453 21.4419 72.8607 21.5536 73.4787 21.5345ZM72.5861 23.2861C72.5433 24.2058 72.5576 25.1274 72.629 26.0451C72.6718 26.3909 73.1717 26.9472 73.4073 26.9246C73.6196 26.882 73.8187 26.785 73.9868 26.642C74.155 26.4991 74.2871 26.3147 74.3713 26.1052C74.4503 25.1678 74.4646 24.2257 74.4142 23.2861H72.5861Z" fill="black"/>
<path d="M73.4794 21.5344C72.8614 21.5535 72.246 21.4418 71.6697 21.206C71.0934 20.9701 70.5679 20.6149 70.1244 20.1613C69.681 19.7077 69.3285 19.1651 69.0878 18.5654C68.8472 17.9658 68.7234 17.3214 68.7237 16.6705C68.6823 15.6541 68.9317 14.648 69.4395 13.7824C69.9474 12.9168 70.6903 12.2316 71.5721 11.8156C72.454 11.3995 73.4342 11.2716 74.3858 11.4485C75.3375 11.6255 76.2168 12.099 76.9099 12.8079C77.6031 13.5168 78.0782 14.4285 78.2737 15.4248C78.4692 16.4211 78.3762 17.4563 78.0066 18.3964C77.6371 19.3364 77.008 20.138 76.2009 20.6975C75.3937 21.257 74.4457 21.5485 73.4794 21.5344Z" fill="white"/>
<path d="M72.5856 23.2859H74.4136C74.464 24.2254 74.4497 25.1676 74.3708 26.105C74.2865 26.3145 74.1545 26.4989 73.9863 26.6418C73.8182 26.7848 73.6191 26.8818 73.4068 26.9244C73.1712 26.9244 72.6927 26.3907 72.6285 26.0449C72.5571 25.1272 72.5428 24.2055 72.5856 23.2859Z" fill="white"/>
<g style="mix-blend-mode:multiply" opacity="0.15">
<path d="M77.8992 14.1221C77.8992 14.1221 76.0069 20.4068 73.6147 22.3463C72.7721 23.0379 78.9845 19.7001 78.9845 19.7001L79.4773 16.866L77.8992 14.1221Z" fill="#010101"/>
</g>
<g style="mix-blend-mode:multiply" opacity="0.15">
<path d="M73.6285 23.2859L73.5 27.6837C73.5 27.6837 78.0415 27.6837 79.4911 29.2473C80.9407 30.811 82.6473 36.8927 82.6473 36.8927V26.3681L75.7422 23.5565L73.6285 23.2859Z" fill="#010101"/>
</g>
</svg>
