<svg width="566" height="415" viewBox="0 0 566 415" fill="none" xmlns="http://www.w3.org/2000/svg">
<path d="M320.411 132.629C320.723 132.633 324.372 132.449 325.147 131.509C325.367 131.181 325.498 130.808 325.531 130.421C325.563 130.034 325.494 129.646 325.332 129.289C326.073 128.766 326.604 128.022 326.841 127.177C326.888 126.298 326.639 125.427 326.132 124.688L326.539 123.596C327.122 122.003 326.317 121.238 326.317 121.238C325.593 120.711 325.059 119.987 324.787 119.165C324.484 117.945 320.511 117.279 318.583 116.835C316.535 116.369 314.082 115.771 311.993 117.967C309.191 120.907 304.483 125.557 304.483 125.557L307.848 135.487C307.848 135.487 309.509 136.528 313.344 135.781C315.904 135.197 318.31 134.124 320.411 132.629Z" fill="white" stroke="#231F20" stroke-linejoin="round"/>
<path d="M404.359 50.3661C398.16 51.6842 391.905 52.7011 385.583 52.6481C376.593 52.533 367.321 50.1294 360.408 44.0877C352.785 37.4219 348.619 26.9784 340.339 21.2406C332.911 16.0937 321.74 16.6913 314.09 21.3447L315.803 69.8866C319.652 66.8615 326.75 60.7477 338.096 65.5954C342.585 67.5115 346.628 69.6036 350.965 71.8881C363.128 78.2835 375.393 77.3646 387.755 71.7094C392.371 69.6024 398.687 65.4839 406.389 56.7576C409.88 52.7845 406.901 49.8187 404.359 50.3661Z" fill="#ED1C24" stroke="#231F20" stroke-miterlimit="10"/>
<path d="M321.988 230.765C321.919 228.668 321.842 226.613 321.772 224.544C321.588 219.236 321.408 213.932 321.234 208.634L320.418 185.509C320.094 176.128 319.764 166.742 319.43 157.352C319.067 147.099 318.704 136.846 318.341 126.593C317.978 116.341 317.616 106.055 317.254 95.7374L316.252 66.8948C315.961 58.7765 315.674 50.6605 315.393 42.5469C315.185 36.7355 314.98 30.9264 314.778 25.1196C314.68 22.3235 314.649 19.591 314.484 16.8289C314.485 16.7101 314.487 16.5914 314.488 16.4726C314.482 16.302 314.404 16.1408 314.271 16.0245C314.138 15.9081 313.962 15.8461 313.781 15.8522C313.6 15.8582 313.429 15.9317 313.306 16.0566C313.183 16.1815 313.117 16.3474 313.124 16.518C313.194 18.4148 313.261 20.3116 313.325 22.2083C313.511 27.3673 313.692 32.5286 313.868 37.6922C314.142 45.2979 314.41 52.9059 314.673 60.5161C315.008 69.8369 315.336 79.1575 315.657 88.478C316.02 98.7028 316.383 108.93 316.746 119.159C317.109 129.463 317.471 139.763 317.833 150.057C318.169 159.732 318.51 169.402 318.855 179.068L319.689 203.702C319.894 209.639 320.103 215.576 320.313 221.514C320.416 224.45 320.483 227.378 320.623 230.308C320.621 230.475 320.619 230.643 320.617 230.804C320.638 230.962 320.721 231.108 320.851 231.212C320.98 231.316 321.145 231.371 321.315 231.366C321.484 231.361 321.646 231.297 321.768 231.186C321.889 231.075 321.963 230.925 321.974 230.765L321.988 230.765Z" fill="#263238"/>
<path d="M310.016 132.258C315.965 130.741 315.564 124.448 315.564 124.448L317.372 122.186C317.372 122.186 320.594 122.395 323.692 122.379C326.791 122.363 326.622 120.467 326.622 120.467C326.622 120.467 324.502 119.315 322.749 118.503C320.995 117.691 313.174 118.324 312.928 118.426C312.682 118.527 307.512 125.183 307.512 125.183" fill="white"/>
<path d="M310.016 132.258C315.965 130.741 315.564 124.448 315.564 124.448L317.372 122.186C317.372 122.186 320.594 122.395 323.692 122.379C326.791 122.363 326.622 120.467 326.622 120.467C326.622 120.467 324.502 119.315 322.749 118.503C320.995 117.691 313.174 118.324 312.928 118.426C312.682 118.527 307.512 125.183 307.512 125.183" stroke="#231F20" stroke-linejoin="round"/>
<path d="M305.182 123.686L276.236 126.564L267.277 100.282L258.069 138.65L263.792 142.678C265.564 143.925 267.605 144.787 269.771 145.203C271.936 145.62 274.172 145.581 276.318 145.089L309.408 138.036L305.182 123.686Z" fill="#ED1C24" stroke="#231F20" stroke-miterlimit="10"/>
<path d="M262.558 98.8661L265.288 99.2714L266.761 100.031C270.659 108.649 272.384 117.999 271.8 127.346L270.308 137.333L263.842 200.017L241.591 194.757L240.827 176.252L262.558 98.8661Z" fill="#ED1C24"/>
<path opacity="0.3" d="M263.695 195.501C263.695 195.501 266.119 174.612 267.14 166.688C268.161 158.763 268.91 129.783 268.91 129.783C268.91 129.783 252.77 187.312 253.094 187.435C253.419 187.558 263.695 195.501 263.695 195.501Z" fill="black"/>
<path d="M207.643 290.235L204.748 300.717L204.776 302.103C204.776 302.103 224.398 307.375 224.81 310.409L187.658 312.099L187.137 304.764L191.274 287.415L207.643 290.235Z" fill="#231F20"/>
<path d="M205.634 314.486C205.632 314.653 204.741 314.775 203.895 315.365C203.05 315.955 202.611 316.683 202.449 316.625C202.286 316.567 202.462 315.577 203.531 314.885C204.6 314.193 205.665 314.325 205.634 314.486Z" fill="white"/>
<path d="M208.976 303.009C209.026 303.17 208.266 303.496 207.7 304.243C207.135 304.991 206.999 305.751 206.821 305.755C206.643 305.76 206.477 304.808 207.201 303.895C207.924 302.982 208.963 302.848 208.976 303.009Z" fill="white"/>
<path d="M211.42 307.247C211.256 307.287 210.955 306.458 211.368 305.506C211.78 304.554 212.586 304.124 212.673 304.286C212.76 304.448 212.265 304.945 211.914 305.73C211.563 306.515 211.605 307.221 211.42 307.247Z" fill="white"/>
<path d="M304.595 280.619L303.371 292.279L303.648 293.736C303.648 293.736 323.659 296.906 324.537 300.117L288.428 306.642L286.786 298.83L288.159 279.639L304.595 280.619Z" fill="#231F20"/>
<path d="M304.233 293.214C304.231 293.375 303.39 293.616 302.633 294.305C301.875 294.994 301.554 295.779 301.384 295.742C301.214 295.705 301.271 294.693 302.208 293.873C303.146 293.054 304.235 293.054 304.233 293.214Z" fill="white"/>
<path d="M309.34 294.991C309.412 295.146 308.703 295.563 308.247 296.375C307.792 297.186 307.775 297.962 307.597 297.987C307.419 298.013 307.112 297.087 307.703 296.088C308.294 295.089 309.298 294.83 309.34 294.991Z" fill="white"/>
<path d="M312.359 298.88C312.21 298.941 311.79 298.174 312.062 297.164C312.335 296.154 313.075 295.661 313.177 295.781C313.279 295.901 312.872 296.476 312.669 297.298C312.465 298.119 312.53 298.826 312.359 298.88Z" fill="white"/>
<path d="M277.585 60.6282C278.581 60.8124 279.612 60.643 280.482 60.1528C281.352 59.6626 281.997 58.8861 282.295 57.9729C282.593 57.0597 282.522 56.0744 282.096 55.2068C281.669 54.3391 280.917 53.6504 279.985 53.2733C280.648 52.7175 281.111 51.9803 281.309 51.1642C281.506 50.3482 281.429 49.494 281.087 48.7206C280.745 47.9473 280.156 47.2933 279.402 46.8497C278.648 46.4062 277.766 46.1952 276.88 46.2462C276.919 45.4113 276.726 44.5809 276.322 43.8365C275.917 43.0922 275.315 42.4594 274.573 42.0003C273.831 41.5413 272.976 41.2717 272.091 41.218C271.206 41.1643 270.322 41.3284 269.526 41.6941C268.604 40.8531 267.411 40.3267 266.136 40.1989C264.862 40.0711 263.579 40.3493 262.493 40.9892C261.646 40.7634 260.744 40.8015 259.923 41.0979C259.101 41.3943 258.404 41.933 257.934 42.6338C257.464 43.3347 257.247 44.1602 257.316 44.9873C257.384 45.8145 257.734 46.5991 258.314 47.2243" fill="#263238"/>
<path d="M261.295 44.6911L262.191 44.7654C266.552 45.1213 270.613 47.0113 273.566 50.0593C276.52 53.1072 278.15 57.0899 278.132 61.2151C278.09 69.1731 277.918 77.982 277.501 82.169C276.596 90.9335 267.159 91.5394 267.159 91.5394L267.023 102.144L244.484 99.6408L245.94 61.2291C245.901 52.0822 251.558 44.4336 261.295 44.6911Z" fill="white" stroke="#231F20" stroke-linejoin="round"/>
<path d="M275.21 67.9415C275.198 68.8706 274.529 69.6097 273.795 69.5933C273.061 69.5769 272.501 68.8011 272.542 67.8654C272.584 66.9296 273.223 66.1971 273.964 66.2136C274.705 66.2301 275.259 67.0058 275.21 67.9415Z" fill="#263238"/>
<path d="M275.765 63.295C275.585 63.4394 274.646 62.6588 273.209 62.5635C271.773 62.4682 270.668 63.041 270.53 62.8646C270.391 62.6881 270.653 62.5028 271.138 62.2226C271.802 61.8697 272.565 61.7185 273.323 61.7894C274.066 61.8524 274.77 62.1326 275.337 62.5907C275.733 62.9172 275.855 63.2193 275.765 63.295Z" fill="#263238"/>
<path d="M261.708 66.8322C261.659 67.7678 261.026 68.5074 260.285 68.4839C259.544 68.4604 258.991 67.6917 259.04 66.7631C259.089 65.8344 259.721 65.0878 260.455 65.1112C261.188 65.1346 261.749 65.9034 261.708 66.8322Z" fill="#263238"/>
<path d="M262.767 62.4089C262.587 62.5603 261.641 61.7726 260.211 61.6775C258.782 61.5823 257.67 62.148 257.532 61.9715C257.393 61.7951 257.655 61.6098 258.14 61.3365C258.796 60.9854 259.551 60.8317 260.303 60.896C261.05 60.9515 261.759 61.2326 262.324 61.6975C262.734 62.0382 262.856 62.3542 262.767 62.4089Z" fill="#263238"/>
<path d="M266.281 73.417C267.065 73.4857 267.841 73.6148 268.603 73.8031C268.958 73.8775 269.343 73.9243 269.418 73.8135C269.494 73.7027 269.49 73.4162 269.427 73.1149L268.962 71.2154C268.345 68.5174 267.98 66.3117 268.143 66.3138C268.306 66.3158 268.945 68.5181 269.563 71.2231C269.702 71.8887 269.843 72.5193 269.976 73.1219C270.017 73.4019 270.153 73.7391 269.861 74.0009C269.66 74.1346 269.412 74.1891 269.169 74.1527C268.962 74.1289 268.756 74.0889 268.556 74.0331C267.78 73.8902 267.019 73.684 266.281 73.417Z" fill="#263238" stroke="#263238" stroke-width="0.5" stroke-miterlimit="10"/>
<path d="M277.6 57.1138C277.6 57.1138 275.679 51.4224 272.941 49.9061C269.68 48.0756 267.895 51.4765 264.729 50.3599C261.563 49.2433 258.443 47.4845 254.918 49.5774C251.056 51.8688 252.588 53.8239 252.012 57.6944C249.683 73.4071 246.219 77.625 246.019 70.118C246.029 69.2937 243.653 68.4527 243.609 64.9794C243.555 60.4789 243.862 55.0467 245.206 51.9615C246.337 49.3627 248.123 47.6528 251.214 45.8547C256.076 43.0172 262.364 43.4611 266.594 44.214C270.825 44.9669 278.607 50.2651 277.6 57.1138Z" fill="#263238"/>
<path d="M246.623 70.9502C246.685 69.5954 245.556 67.3939 244.111 67.4243C242.362 67.4019 240.342 68.2076 240.151 71.566C239.815 77.5778 246.298 76.6686 246.314 76.5361" fill="white"/>
<path d="M246.623 70.9502C246.685 69.5954 245.556 67.3939 244.111 67.4243C242.362 67.4019 240.342 68.2076 240.151 71.566C239.815 77.5778 246.298 76.6686 246.314 76.5361" stroke="#231F20" stroke-linejoin="round"/>
<path d="M245.056 74.1862C245.056 74.1862 244.936 74.2545 244.75 74.322C244.479 74.4166 244.181 74.4127 243.913 74.3113C243.256 74.0444 242.743 73.0037 242.772 71.921C242.783 71.4021 242.919 70.8925 243.169 70.4308C243.239 70.2467 243.355 70.0816 243.508 69.9496C243.661 69.8176 243.846 69.7228 244.046 69.6734C244.176 69.6474 244.312 69.6655 244.429 69.7246C244.546 69.7836 244.638 69.8798 244.687 69.9961C244.766 70.1648 244.72 70.283 244.75 70.2973C244.779 70.3117 244.892 70.2013 244.858 69.9493C244.831 69.7988 244.749 69.6618 244.626 69.5621C244.458 69.4262 244.241 69.3581 244.02 69.3726C243.755 69.4082 243.504 69.5078 243.292 69.6618C243.079 69.8158 242.913 70.0189 242.808 70.2515C242.504 70.7572 242.339 71.3267 242.328 71.9083C242.312 73.1239 242.897 74.2913 243.776 74.589C243.944 74.6442 244.124 74.6634 244.301 74.6451C244.478 74.6268 244.648 74.5716 244.8 74.4834C245.032 74.3256 245.078 74.1935 245.056 74.1862Z" fill="#6F453A"/>
<path d="M247.808 58.3114C248.531 58.985 249.422 59.4769 250.399 59.7421C250.888 59.8545 251.403 59.7957 251.849 59.5764C252.295 59.3572 252.641 58.9925 252.823 58.5503C252.939 58.1396 252.835 57.6491 253.194 57.3463C253.554 57.0435 254.212 57.1637 254.737 57.2612C256.571 57.5992 258.906 55.8473 259.535 54.1924C259.749 54.5445 260.1 54.8051 260.513 54.9198C260.926 55.0345 261.369 54.9943 261.751 54.8077C262.366 54.5095 262.925 54.1177 263.404 53.648C263.68 53.3414 264.031 53.1031 264.427 52.9535C264.823 52.8039 265.252 52.7477 265.676 52.7897C266.111 52.972 266.567 53.1068 267.035 53.1914C267.88 53.2022 268.373 52.3002 268.538 51.5337C268.704 50.7672 268.916 49.8546 269.662 49.4519C270.409 49.0492 271.182 49.4085 271.944 49.5789C272.705 49.7494 273.714 49.6575 273.975 48.9691C274.028 48.7816 274.038 48.5858 274.006 48.3941C273.974 48.2024 273.9 48.0191 273.789 47.8557C273.339 47.0917 272.629 46.492 271.775 46.1529C270.92 45.8138 269.97 45.7549 269.077 45.9856C268.856 44.9553 268.315 44.0097 267.523 43.2695C266.731 42.5293 265.723 42.028 264.628 41.8296C263.533 41.6311 262.4 41.7445 261.375 42.1553C260.35 42.5661 259.478 43.2557 258.871 44.1361C258.248 43.5022 257.471 43.0193 256.608 42.7284C255.745 42.4376 254.82 42.3473 253.913 42.4653C253.005 42.5833 252.142 42.9062 251.396 43.4063C250.65 43.9065 250.043 44.5693 249.627 45.3383C248.865 45.0806 248.039 45.0401 247.253 45.222C246.467 45.4038 245.756 45.7999 245.208 46.3608C244.66 46.9217 244.299 47.6225 244.172 48.3759C244.044 49.1292 244.154 49.9017 244.489 50.5969C243.871 50.8264 243.325 51.2005 242.902 51.684C242.48 52.1675 242.195 52.7446 242.075 53.3609C241.94 54.6029 243.109 55.9454 244.409 55.7175C244.115 56.1861 244.02 56.7425 244.143 57.275C244.266 57.8075 244.598 58.2768 245.072 58.5888C245.546 58.9008 246.128 59.0323 246.7 58.9571C247.273 58.8819 247.793 58.6054 248.158 58.1832" fill="#263238"/>
<path d="M269.36 47.764C269.36 47.764 269.36 47.764 269.358 47.8687C269.343 47.9771 269.319 48.0842 269.288 48.1893C269.168 48.5892 268.978 48.9671 268.725 49.307C268.321 49.8448 267.793 50.2894 267.181 50.6078C266.374 51.0433 265.436 51.2155 264.514 51.0977L264.634 50.9735C264.774 51.5357 264.673 52.1269 264.353 52.6189C264.021 53.1333 263.611 53.5988 263.135 54.0008C262.908 54.2351 262.657 54.4473 262.385 54.634C262.067 54.802 261.709 54.8934 261.344 54.9002C260.965 54.9195 260.586 54.8516 260.241 54.7023C259.895 54.5531 259.594 54.3269 259.361 54.0433L259.606 53.9975C259.461 54.6133 259.181 55.1934 258.784 55.7009C258.387 56.2084 257.882 56.632 257.301 56.9446C256.656 57.3186 255.899 57.4854 255.145 57.4201C254.442 57.3312 253.761 57.1311 253.129 56.8283L253.3 56.7676C252.907 57.4681 252.334 58.0639 251.632 58.5001C251.308 58.72 250.936 58.8685 250.542 58.9348C250.149 59.0011 249.745 58.9835 249.359 58.8832C248.699 58.6929 248.113 58.3231 247.675 57.8202C247.237 57.3173 246.967 56.7038 246.897 56.0567L247.03 56.1353C246.326 56.4199 245.538 56.4617 244.804 56.2535C244.257 56.1136 243.752 55.8533 243.332 55.494C243.074 55.2646 242.857 54.9976 242.689 54.7032C242.63 54.5985 242.585 54.4877 242.553 54.3731C242.769 54.7668 243.058 55.1208 243.407 55.4181C243.819 55.7606 244.311 56.0064 244.843 56.1353C245.538 56.3157 246.277 56.2634 246.935 55.9874L247.062 55.9331L247.06 56.0588C247.138 56.6608 247.401 57.2284 247.817 57.6919C248.232 58.1553 248.782 58.4943 249.399 58.6671C249.75 58.7523 250.117 58.7631 250.473 58.6988C250.828 58.6345 251.165 58.4967 251.457 58.2952C252.118 57.878 252.66 57.3138 253.035 56.6524L253.095 56.5414L253.213 56.5918C253.817 56.8841 254.469 57.0768 255.141 57.1615C255.836 57.2204 256.533 57.0651 257.126 56.7188C257.674 56.426 258.151 56.0288 258.527 55.5524C258.903 55.0761 259.17 54.531 259.311 53.9518L259.373 53.6731L259.556 53.906C259.866 54.2756 260.304 54.5312 260.793 54.6281C261.282 54.725 261.791 54.6572 262.232 54.4364C262.503 54.2641 262.754 54.0659 262.981 53.8451C263.444 53.4587 263.847 53.0121 264.177 52.5188C264.323 52.3005 264.423 52.057 264.469 51.8021C264.516 51.5473 264.509 51.2863 264.448 51.034L264.413 50.8868L264.568 50.8888C265.448 51.0057 266.344 50.8531 267.124 50.4534C267.712 50.1534 268.224 49.7354 268.622 49.2288C268.958 48.7859 269.208 48.2899 269.36 47.764Z" fill="#455B64"/>
<path d="M269.164 79.2673C268.975 78.9644 267.219 80.0669 264.813 79.2116C262.408 78.3563 261.146 76.1461 260.914 76.2899C260.788 76.3302 260.905 76.9885 261.48 77.8483C262.229 78.9716 263.333 79.8459 264.635 80.3483C265.2 80.575 265.809 80.6869 266.422 80.6767C267.035 80.6665 267.639 80.5344 268.194 80.289C268.978 79.9008 269.266 79.3874 269.164 79.2673Z" fill="#263238"/>
<path d="M215.076 203.223L202.903 241.23C202.903 241.23 187.374 288.34 185.922 297.997L210.381 300.676C210.381 300.676 223.248 255.702 228.761 249.402C234.275 243.101 251.075 190.564 251.075 190.564L215.076 203.223Z" fill="#231F20"/>
<path d="M253.669 188.095C253.669 188.095 299.787 218.42 302.944 224.846C306.101 231.272 306.689 294.766 306.689 294.766L283.984 299.989L279.5 241.529L228.918 217.09C228.918 217.09 215.412 210.145 209.511 203.255C203.61 196.364 206.698 185.041 206.698 185.041L211.879 179.866L257.198 177.042L253.669 188.095Z" fill="#231F20"/>
<path d="M218.321 210.677C218.508 210.803 218.708 210.911 218.918 210.999L220.678 211.853L227.184 214.92L248.632 225.109C257.009 229.095 264.613 232.658 270.155 235.167C272.926 236.426 275.174 237.433 276.737 238.102L278.543 238.873C278.748 238.973 278.963 239.053 279.185 239.112C278.998 238.985 278.798 238.874 278.589 238.783L276.82 237.929L270.315 234.855L248.867 224.658C240.498 220.68 232.886 217.11 227.351 214.6C224.58 213.342 222.332 212.335 220.77 211.658L218.963 210.888C218.759 210.794 218.543 210.724 218.321 210.677Z" fill="#455B64"/>
<path d="M253.885 187.04C253.824 187.165 251.309 186.189 248.165 185.094C245.022 183.999 242.414 183.302 242.445 183.169C242.477 183.037 245.176 183.526 248.356 184.642C251.537 185.759 253.931 186.922 253.885 187.04Z" fill="#455B64"/>
<path d="M267.924 102.4L266.502 97.6449L265.525 98.7224L264.896 97.4566L244.956 86.4547L242.734 90.3811L235.625 92.1627C233.382 92.712 231.328 93.7987 229.663 95.3175C227.998 96.8363 226.778 98.7356 226.122 100.831L220.253 129.656L219.785 134.373L217.231 150.348C217.765 151.466 207.725 162.741 206.98 167.042C206.236 171.344 210.468 175.409 210.468 175.409L256.197 183.436C256.197 183.436 258.488 183.996 260.879 180.163C262.96 176.822 265.575 152.686 265.575 152.686C265.575 152.686 267.157 139.724 268.61 130.98C269.254 125.669 269.38 120.312 268.986 114.977L267.924 102.4Z" fill="white" stroke="#231F20" stroke-width="0.5" stroke-linejoin="round"/>
<path d="M241.868 89.8949L244.067 87.219C244.067 87.219 252.751 94.3664 254.446 100.956C256.141 107.546 252.907 135.468 250.793 143.113C248.508 151.357 246.587 161.268 230.874 173.875C212.802 188.372 216.906 205.97 213.529 206.856C213.529 206.856 189.456 196.766 190.157 194.175C193.604 181.398 213.99 154.087 214.187 153.726L219.654 127.943L222.874 97.0792C227.044 94.9805 229.373 93.1447 233.148 92.3825L241.868 89.8949Z" fill="#ED1C24" stroke="#231F20" stroke-miterlimit="10"/>
<path d="M246.036 155.175C246.084 154.937 246.157 154.704 246.252 154.479C246.422 153.985 246.652 153.338 246.93 152.531C247.492 150.834 248.273 148.356 248.972 145.249C249.311 143.695 249.644 141.98 249.876 140.124C250.108 138.147 250.22 136.158 250.211 134.169C250.265 129.977 250.376 125.325 250.468 120.463C250.516 116.774 250.62 113.219 250.693 109.901L250.693 109.831L250.731 109.775L253.396 105.981L253.511 106.303L251.172 105.47L251.09 105.469L251.054 105.399C248.379 100.711 246.124 96.8109 244.527 94.1003C243.715 92.7484 243.076 91.6851 242.618 90.9735C242.393 90.6143 242.203 90.3533 242.087 90.1702C242.009 90.0906 241.941 90.003 241.883 89.909C241.988 89.8195 243.081 91.3218 244.751 93.9774C246.422 96.6331 248.744 100.527 251.457 105.201L251.34 105.102L253.686 105.921L253.959 106.023L253.801 106.251L251.15 110.06L251.196 109.935C251.154 113.254 251.064 116.809 250.994 120.504C250.887 125.394 250.791 129.991 250.7 134.217C250.695 136.217 250.566 138.215 250.312 140.2C250.066 142.069 249.71 143.791 249.342 145.351C248.754 147.811 248.018 150.237 247.136 152.618C246.821 153.459 246.554 154.106 246.37 154.536C246.283 154.76 246.171 154.974 246.036 155.175Z" fill="#231F20" stroke="#231F20" stroke-width="0.5" stroke-linejoin="round"/>
<path d="M213.817 165.886C213.692 166.003 213.551 166.105 213.398 166.188L212.195 166.942L207.802 169.603L207.807 169.282L220.551 174.308L220.307 174.305L220.396 174.251C222.549 172.839 224.605 171.509 226.496 170.248L226.55 170.64L217.409 167.281L214.768 166.269C214.438 166.161 214.12 166.023 213.818 165.858C214.141 165.919 214.457 166.007 214.763 166.122L217.42 167.001C219.693 167.771 222.933 168.882 226.719 170.209L227.147 170.361L226.773 170.608L220.688 174.639L220.605 174.693L220.486 174.776L220.353 174.718L207.632 169.587L207.278 169.443L207.607 169.265L212.154 166.717C212.686 166.403 213.242 166.125 213.817 165.886Z" fill="#231F20" stroke="#231F20" stroke-linejoin="round"/>
<path d="M268.314 105.655C268.255 105.654 268.025 105.043 267.408 104.078L266.281 102.351C265.775 101.612 265.37 100.816 265.073 99.9813L265.48 100.07L262.912 102.651C262.243 103.341 261.59 103.961 260.982 104.562L260.847 104.7L260.678 104.607C258.749 103.52 257.094 102.562 255.932 101.863C255.287 101.522 254.676 101.126 254.109 100.679C254.799 100.927 255.463 101.237 256.091 101.606C257.298 102.236 258.992 103.139 260.927 104.204L260.623 104.242C261.231 103.635 261.87 102.987 262.538 102.325L265.128 99.7584L265.413 99.4826L265.534 99.8544C266.105 101.595 267.163 102.908 267.669 103.948C268.003 104.471 268.223 105.051 268.314 105.655Z" fill="white" stroke="#231F20" stroke-width="0.5" stroke-linejoin="round"/>
<path d="M261.924 103.239L263.796 106.372L266.639 106.667L267.424 104.392L265.216 100.228L261.924 103.239Z" fill="#455B64"/>
<path d="M266.774 106.054L263.462 105.348C263.669 105.891 263.651 106.487 263.412 107.018C263.173 107.548 262.731 107.974 262.173 108.21C260.94 108.735 259.537 108.785 258.265 108.349C257.015 107.918 255.855 107.286 254.834 106.481C251.001 103.637 248.052 100.106 244.743 96.8701C241.434 93.6345 237.552 90.5383 232.752 89.1632C228.867 88.1712 224.793 88.033 220.845 88.7592C213.82 89.8208 207.252 92.7109 201.881 97.1038L197.137 101.096L195.81 109.226L207.377 109.57C207.377 109.57 225.022 93.6619 231.561 96.5056C238.099 99.3494 248.569 111.215 256.303 112.747C257.461 113 258.662 113.026 259.831 112.821C260.999 112.617 262.11 112.187 263.093 111.558C264.076 110.93 264.91 110.117 265.544 109.17C266.177 108.222 266.596 107.162 266.774 106.054Z" fill="#231F20"/>
<path d="M265.336 100.117C265.366 100.187 265.385 100.26 265.393 100.335L265.496 100.979C265.585 101.553 265.693 102.379 265.819 103.478C266.058 105.647 266.337 108.802 266.569 112.696C266.684 114.647 266.791 116.78 266.872 119.08C266.902 120.219 266.961 121.408 266.923 122.644C266.885 123.88 266.795 125.13 266.667 126.414C266.427 128.989 266.066 131.682 265.66 134.464C265.254 137.247 264.802 140.12 264.245 143.055C263.132 148.924 261.727 154.447 260.455 159.461C259.182 164.476 257.953 168.988 256.661 172.689C255.368 176.389 254.107 179.336 253.207 181.344C252.764 182.351 252.398 183.122 252.147 183.65L251.85 184.24C251.821 184.309 251.782 184.374 251.737 184.434C251.75 184.36 251.773 184.287 251.806 184.218C251.867 184.051 251.952 183.857 252.051 183.607L253.022 181.271C253.864 179.242 255.08 176.302 256.314 172.586C257.547 168.871 258.754 164.372 259.997 159.358C261.239 154.343 262.63 148.819 263.735 142.971C264.299 140.044 264.75 137.178 265.164 134.395C265.578 131.612 265.975 128.934 266.201 126.373C266.328 125.096 266.426 123.846 266.471 122.631C266.516 121.416 266.502 120.235 266.442 119.088C266.383 116.796 266.299 114.663 266.205 112.713C266.018 108.818 265.799 105.671 265.619 103.496C265.521 102.44 265.45 101.607 265.399 100.992C265.373 100.735 265.353 100.518 265.341 100.341C265.328 100.267 265.326 100.192 265.336 100.117Z" fill="white" stroke="#231F20" stroke-width="0.75" stroke-miterlimit="10"/>
<path d="M187.245 190.602C187.343 191.857 187.282 193.118 187.064 194.359C186.706 195.633 183.878 199.971 183.878 199.971C183.878 199.971 182.567 199.955 183.273 196.896C183.572 195.429 184.015 193.992 184.595 192.602L187.245 190.602Z" fill="white" stroke="#231F20" stroke-miterlimit="10"/>
<path d="M163.85 212.013C163.85 212.013 165.47 193.168 170.05 190.941C174.63 188.715 181.098 187.205 182.946 189.982C185.236 193.494 186.813 197.376 187.595 201.43C188.434 205.913 188.228 212.8 188.228 212.8L182.889 212.368C182.889 212.368 182.603 193.618 180.903 190.885C179.203 188.152 171.07 190.584 170.271 193.942C169.472 197.299 167.938 212.331 167.938 212.331L163.85 212.013Z" fill="#231F20"/>
<path d="M146.079 238.973C146.097 231.21 146.398 214.088 146.494 206.557C146.51 205.569 146.932 204.626 147.671 203.927C148.41 203.227 149.408 202.826 150.456 202.806L199.391 201.882C200.441 201.862 201.458 202.227 202.23 202.901C203.001 203.574 203.465 204.503 203.525 205.491L205.408 237.329C205.438 237.837 205.361 238.347 205.18 238.826C204.998 239.306 204.717 239.747 204.352 240.122C203.988 240.498 203.547 240.801 203.056 241.013C202.565 241.225 202.034 241.343 201.494 241.359L150.211 242.799C149.672 242.808 149.136 242.715 148.636 242.527C148.135 242.339 147.679 242.058 147.294 241.702C146.91 241.346 146.604 240.921 146.395 240.452C146.187 239.984 146.079 239.481 146.079 238.973Z" fill="white" stroke="#231F20" stroke-linejoin="round"/>
<path d="M182.223 198.783L187.248 190.749L188.217 180.504L176.331 177.935L170.812 186.898C170.812 186.898 169.85 191.945 170.117 193.136C170.383 194.327 172.219 194.519 172.219 194.519C172.317 196.113 174.762 196.836 174.762 196.836C175.124 198.609 177.47 198.359 177.47 198.359C177.47 198.359 178.185 200.395 178.923 200.677C179.24 200.758 179.577 200.738 179.88 200.619C180.876 200.303 181.712 199.649 182.223 198.783Z" fill="white" stroke="#231F20" stroke-miterlimit="10"/>
<path d="M172.661 191.946C172.787 191.948 172.772 192.534 172.645 193.21C172.518 193.887 172.311 194.415 172.192 194.393C172.074 194.37 172.081 193.811 172.208 193.135C172.336 192.459 172.543 191.924 172.661 191.946Z" fill="#231F20"/>
<path d="M175.477 193.296C175.452 193.908 175.334 194.513 175.127 195.094C175.055 195.705 174.882 196.301 174.615 196.862C174.429 195.613 174.736 194.344 175.477 193.296Z" fill="#231F20"/>
<path d="M178.439 195.185C178.549 195.243 178.267 195.882 177.974 196.731C177.682 197.579 177.473 198.247 177.347 198.232C177.221 198.216 177.246 197.469 177.553 196.599C177.861 195.73 178.336 195.128 178.439 195.185Z" fill="#231F20"/>
<path d="M185.611 193.237C184.601 195.411 183.331 197.47 181.826 199.372C182.828 197.194 184.098 195.135 185.611 193.237Z" fill="#6F453A"/>
<path d="M201.865 236.592C201.841 236.502 201.825 236.411 201.817 236.319C201.82 236.109 201.764 235.843 201.724 235.514C201.649 234.768 201.551 233.732 201.43 232.408C201.183 229.673 200.84 225.769 200.42 220.971C200.214 218.55 199.988 215.906 199.78 213.074C199.659 211.675 199.535 210.206 199.406 208.667L199.31 207.527L199.265 206.96C199.244 206.8 199.179 206.648 199.078 206.518C198.98 206.386 198.85 206.28 198.698 206.207C198.547 206.135 198.379 206.098 198.209 206.101L196.941 206.127L174.846 206.543L152.737 206.958C152.348 206.935 151.957 206.968 151.579 207.055C151.423 207.121 151.286 207.222 151.18 207.348C151.074 207.474 151.002 207.623 150.969 207.781C150.96 208.48 150.905 209.317 150.873 210.058C150.814 211.576 150.759 213.047 150.706 214.472C150.595 217.314 150.494 219.968 150.397 222.391C150.194 227.203 150.026 231.107 149.909 233.851C149.84 235.178 149.79 236.218 149.75 236.966C149.746 237.301 149.743 237.566 149.696 237.775C149.707 237.868 149.706 237.962 149.692 238.055C149.684 237.962 149.685 237.868 149.696 237.775C149.698 237.566 149.702 237.3 149.706 236.965C149.716 236.215 149.729 235.174 149.746 233.842C149.826 231.104 149.935 227.193 150.071 222.38C150.146 219.949 150.232 217.302 150.32 214.46C150.339 213.034 150.385 211.563 150.458 210.045C150.468 209.277 150.478 208.55 150.555 207.706C150.596 207.476 150.697 207.259 150.85 207.076C151.002 206.892 151.201 206.747 151.428 206.655C151.652 206.568 151.892 206.526 152.134 206.531L152.764 206.539L174.866 206.124L196.968 205.708L198.236 205.689C198.609 205.679 198.973 205.802 199.255 206.034C199.536 206.265 199.715 206.589 199.755 206.938L199.806 207.526C199.838 207.911 199.863 208.288 199.896 208.666C200.01 210.177 200.124 211.646 200.239 213.073C200.455 215.905 200.658 218.556 200.879 220.969C201.233 225.781 201.509 229.684 201.719 232.418C201.806 233.747 201.874 234.789 201.923 235.537C201.919 235.866 201.953 236.132 201.965 236.342C201.94 236.428 201.907 236.512 201.865 236.592Z" fill="#231F20"/>
<path d="M149.696 237.775C149.743 237.566 149.746 237.301 149.75 236.966C149.79 236.218 149.84 235.178 149.909 233.851C150.026 231.107 150.194 227.203 150.397 222.391C150.494 219.968 150.595 217.314 150.706 214.472C150.759 213.047 150.814 211.576 150.873 210.058C150.905 209.317 150.96 208.48 150.969 207.781C151.002 207.623 151.074 207.474 151.18 207.348C151.286 207.222 151.423 207.121 151.579 207.055C151.957 206.968 152.348 206.935 152.737 206.958L174.846 206.543L196.941 206.127L198.209 206.101C198.379 206.098 198.547 206.135 198.698 206.207C198.85 206.28 198.98 206.386 199.078 206.518C199.179 206.648 199.244 206.8 199.265 206.96L199.31 207.527L199.406 208.667C199.535 210.206 199.659 211.675 199.78 213.074C199.988 215.906 200.214 218.55 200.42 220.971C200.84 225.769 201.183 229.673 201.43 232.408C201.551 233.732 201.649 234.768 201.724 235.514C201.764 235.843 201.82 236.109 201.817 236.319C201.825 236.411 201.841 236.502 201.865 236.592C201.907 236.512 201.94 236.428 201.965 236.342C201.953 236.132 201.919 235.866 201.923 235.537C201.874 234.789 201.806 233.747 201.719 232.418C201.509 229.684 201.233 225.781 200.879 220.969C200.658 218.556 200.455 215.905 200.239 213.073C200.124 211.646 200.01 210.177 199.896 208.666C199.863 208.288 199.838 207.911 199.806 207.526L199.755 206.938C199.715 206.589 199.536 206.265 199.255 206.034C198.973 205.802 198.609 205.679 198.236 205.689L196.968 205.708L174.866 206.124L152.764 206.539L152.134 206.531C151.892 206.526 151.652 206.568 151.428 206.655C151.201 206.747 151.002 206.892 150.85 207.076C150.697 207.259 150.596 207.476 150.555 207.706C150.478 208.55 150.468 209.277 150.458 210.045C150.385 211.563 150.339 213.034 150.32 214.46C150.232 217.302 150.146 219.949 150.071 222.38C149.935 227.193 149.826 231.104 149.746 233.842C149.729 235.174 149.716 236.215 149.706 236.965C149.702 237.3 149.698 237.566 149.696 237.775ZM149.696 237.775C149.707 237.868 149.706 237.962 149.692 238.055C149.684 237.962 149.685 237.868 149.696 237.775Z" stroke="#231F20" stroke-miterlimit="10"/>
<path d="M181.409 211.306L169.648 211.461C169.435 211.464 169.265 211.629 169.269 211.829L169.306 214.093C169.309 214.293 169.484 214.454 169.697 214.451L181.458 214.296C181.671 214.293 181.841 214.128 181.838 213.927L181.801 211.664C181.797 211.463 181.622 211.303 181.409 211.306Z" fill="#231F20"/>
<path d="M235.663 120.476L203.322 144.832L191.06 182.553L173.69 178.753L184.47 141.502C186.19 135.626 189.377 130.226 193.767 125.753L218.824 100.109C220.493 98.272 222.589 96.8231 224.95 95.8743C227.311 94.9254 229.872 94.5022 232.436 94.6373C235.088 94.811 238.67 96.3941 240.268 98.4129C244.17 103.354 243.094 109.231 242.752 111.022" fill="#ED1C24"/>
<path d="M242.752 111.008C242.946 110.273 243.075 109.525 243.137 108.77C243.375 106.596 243.151 104.398 242.478 102.305C241.984 100.789 241.201 99.3702 240.167 98.1182C238.818 96.7114 237.105 95.6588 235.196 95.0639C232.999 94.3777 230.65 94.2536 228.388 94.7042C225.849 95.1582 223.455 96.1554 221.39 97.6192C220.296 98.4086 219.291 99.3019 218.391 100.285L215.477 103.252L209.296 109.559C205.03 113.921 200.463 118.572 195.664 123.471C194.477 124.707 193.224 125.914 192.065 127.247C190.895 128.592 189.822 130.009 188.853 131.489C186.846 134.544 185.307 137.85 184.28 141.311L177.99 162.996L173.445 178.722L173.375 178.966L173.634 179.018L191.012 182.811L191.242 182.863L191.311 182.654C195.888 168.501 200.032 155.69 203.521 144.918L203.453 145.008L227.016 127.143L233.424 122.243L235.086 120.958C235.461 120.662 235.641 120.504 235.641 120.504C235.641 120.504 235.439 120.634 235.05 120.915L233.351 122.158L226.878 126.966L203.205 144.712L203.16 144.711L203.16 144.767C199.649 155.531 195.445 168.327 190.854 182.474L191.152 182.31L173.774 178.503L173.97 178.806C175.449 173.701 176.967 168.461 178.523 163.087C180.671 155.659 182.766 148.405 184.797 141.401C185.799 137.978 187.305 134.704 189.273 131.676C190.228 130.213 191.286 128.812 192.44 127.483C193.576 126.177 194.822 124.963 196.016 123.727L209.612 109.78L215.771 103.452L218.715 100.499C219.6 99.53 220.587 98.6484 221.661 97.8672C223.678 96.4272 226.018 95.4414 228.503 94.9852C230.715 94.5305 233.016 94.6396 235.17 95.3012C237.04 95.8633 238.721 96.8774 240.047 98.2424C241.075 99.4648 241.858 100.853 242.359 102.339C243.04 104.406 243.289 106.578 243.093 108.734C243.039 109.474 242.957 110.032 242.893 110.409C242.829 110.785 242.752 111.008 242.752 111.008Z" fill="#231F20" stroke="#231F20" stroke-linejoin="round"/>
<path d="M474.821 317.647C474.797 317.756 419.539 316.573 228.547 314.515C37.5553 312.456 1.93563 312.115 1.92887 311.993C1.92211 311.871 37.4749 312.026 228.522 314.08C419.569 316.134 474.814 317.525 474.821 317.647Z" fill="#263238"/>
<path d="M326.162 125.352L317.118 127.137C314.595 127.887 314.918 125.285 315.705 124.575C316.222 124.107 324.671 122.531 324.671 122.531L326.605 122.004C326.825 122.246 326.971 122.54 327.029 122.855C327.086 123.169 327.052 123.492 326.93 123.79C326.744 124.339 326.486 124.864 326.162 125.352Z" fill="white" stroke="#231F20" stroke-linejoin="round"/>
<path d="M325.666 128.672L316.622 130.463C314.092 131.207 314.422 128.611 315.172 127.901C315.682 127.426 324.138 125.85 324.138 125.85L326.072 125.323C326.289 125.567 326.433 125.861 326.489 126.175C326.545 126.489 326.511 126.812 326.39 127.109C326.222 127.657 325.978 128.183 325.666 128.672Z" fill="white" stroke="#231F20" stroke-linejoin="round"/>
<path d="M324.7 131.81L317.267 133.399C315.183 134.071 315.464 131.762 316.103 131.127C316.523 130.714 323.494 129.308 323.494 129.308L325.094 128.832C325.276 129.053 325.396 129.315 325.442 129.592C325.488 129.868 325.458 130.152 325.355 130.414C325.2 130.904 324.98 131.373 324.7 131.81Z" fill="white" stroke="#231F20" stroke-linejoin="round"/>
<g style="mix-blend-mode:multiply" opacity="0.15">
<path d="M235.664 120.476L215.638 146.869L217.677 133.57L235.664 120.476Z" fill="#010101"/>
</g>
<g style="mix-blend-mode:multiply" opacity="0.15">
<path d="M272.942 49.906C272.942 49.906 277.992 74.07 271.547 81.8272C265.103 89.5845 260.258 89.8928 260.258 89.8928L260.196 94.7831L264.759 97.364L265.527 98.7084L266.612 97.9048L267.175 91.5605L270.149 90.8998L273.498 89.2308L276.002 87.6069L277.495 82.1759L277.984 74.1048L278.178 58.9797L276.492 49.9515L272.942 49.906Z" fill="#010101"/>
</g>
<g style="mix-blend-mode:multiply" opacity="0.15">
<path d="M272.424 117.502L269.513 145.148L263.679 195.501L248.126 186.973C248.126 186.973 264.137 142.382 265.166 134.353C266.196 126.324 265.398 99.4753 265.398 99.4753L266.482 97.6375L272.424 117.502Z" fill="#010101"/>
</g>
<g style="mix-blend-mode:multiply" opacity="0.15">
<path d="M270.112 139.454L307.408 133.399L314.62 131.101L315.209 127.902L326.109 125.323L325.659 128.672L324.699 131.811L317.244 133.399L315.015 136.102L309.449 136.031L309.424 138.036L273.954 145.597L269.513 145.148L270.112 139.454Z" fill="#010101"/>
</g>
<g style="mix-blend-mode:multiply" opacity="0.15">
<path d="M242.82 106.362L254.662 114.116L256.303 112.747L244.41 103.168L242.82 106.362Z" fill="#010101"/>
</g>
<path d="M265.607 109.072C265.607 109.072 265.563 112.523 263.681 113.016C261.8 113.509 256.859 111.531 256.859 111.531L265.607 109.072Z" fill="#010101"/>
<g style="mix-blend-mode:multiply" opacity="0.15">
<path d="M183.925 181.232L178.439 195.185L177.348 198.232L178.911 200.641L182.225 198.783L186.365 196.817L187.063 194.359L188.198 182.167L183.925 181.232Z" fill="#010101"/>
</g>
<g style="mix-blend-mode:multiply" opacity="0.15">
<path d="M241.149 163.889C239.91 165.044 238.814 166.329 237.883 167.718C236.643 169.497 235.668 171.429 234.985 173.459L233.02 179.359L225.869 178.569L230.866 173.902L241.149 163.889Z" fill="#010101"/>
</g>
<g style="mix-blend-mode:multiply" opacity="0.15">
<path d="M340.341 21.2407L341.849 67.2855C341.849 67.2855 354.947 74.8039 360.846 75.5223C367.307 76.3038 376.538 77.2604 387.743 71.6743C398.948 66.0882 402.417 60.934 402.417 60.934L407.414 55.6178L407.995 51.894L405.453 50.1216L398.371 51.5122L390.769 52.463L380.393 52.3301L368.874 49.3877L359.749 43.6809L348.176 29.3624L340.341 21.2407Z" fill="#010101"/>
</g>
<g style="mix-blend-mode:multiply" opacity="0.15">
<path d="M202.317 201.919L182.631 201.255L191.796 206.229L194.115 241.572L201.531 241.36L204.8 239.627L205.452 237.329L203.569 205.492L202.317 201.919Z" fill="#010101"/>
</g>
</svg>
