<svg width="675" height="337" viewBox="0 0 675 337" fill="none" xmlns="http://www.w3.org/2000/svg">
<path d="M493.499 55.7304C493.899 60.4755 491.845 64.5184 488.917 64.7631C485.989 65.0078 483.287 61.3372 482.898 56.5921C482.509 51.8471 484.551 47.8041 487.48 47.5594C490.408 47.3147 493.11 50.9746 493.499 55.7304Z" fill="white" stroke="#231F20" stroke-width="2" stroke-miterlimit="10"/>
<path d="M525.474 75.1576H497.032V100.553H525.474V75.1576Z" fill="white" stroke="#231F20" stroke-width="2" stroke-miterlimit="10"/>
<path d="M538.615 54.358C538.107 58.6137 535.74 61.8055 533.33 61.497C530.921 61.1884 529.375 57.5604 529.883 53.326C530.391 49.0916 532.758 45.8786 535.167 46.1871C537.577 46.4957 539.122 50.1343 538.615 54.358Z" fill="white" stroke="#231F20" stroke-width="2" stroke-miterlimit="10"/>
<path d="M511.09 83.9987C523.838 83.9987 534.172 70.3565 534.172 53.528C534.172 36.6995 523.838 23.0573 511.09 23.0573C498.343 23.0573 488.009 36.6995 488.009 53.528C488.009 70.3565 498.343 83.9987 511.09 83.9987Z" fill="white" stroke="#231F20" stroke-width="2" stroke-miterlimit="10"/>
<path d="M503.635 68.7634H518.882C518.882 68.7634 514.03 76.6684 506.531 71.5509C506.261 71.37 503.635 68.7634 503.635 68.7634Z" fill="white"/>
<path d="M509.762 43.5484C508.865 43.6442 507.925 43.708 507.017 43.7825C506.11 43.857 505.202 43.9314 504.294 44.0272C503.387 44.1229 502.511 44.24 501.636 44.357C500.761 44.4741 499.907 44.6656 499.043 44.8358H498.989C498.845 44.8682 498.696 44.8714 498.551 44.8451C498.406 44.8188 498.268 44.7636 498.146 44.6829C498.023 44.6022 497.919 44.4977 497.839 44.3758C497.759 44.2538 497.705 44.1171 497.681 43.974C497.626 43.7421 497.651 43.4987 497.753 43.2826C497.855 43.0666 498.027 42.8904 498.243 42.7824C499.148 42.3095 500.11 41.9519 501.106 41.7185C502.093 41.5168 503.094 41.3852 504.1 41.3248C505.079 41.2664 506.06 41.2664 507.039 41.3248C508.024 41.3709 509.003 41.4955 509.967 41.6972C510.094 41.7249 510.214 41.7769 510.32 41.8502C510.426 41.9235 510.516 42.0167 510.585 42.1245C510.654 42.2322 510.701 42.3524 510.723 42.4781C510.745 42.6038 510.742 42.7325 510.713 42.8569C510.668 43.0542 510.561 43.2328 510.408 43.3681C510.255 43.5034 510.064 43.5887 509.859 43.6123L509.762 43.5484Z" fill="#0B0709"/>
<path d="M516.559 41.6335C517.524 41.4317 518.503 41.3072 519.488 41.2611C520.467 41.2027 521.448 41.2027 522.427 41.2611C523.416 41.3415 524.398 41.4909 525.366 41.708C526.363 41.9414 527.325 42.2989 528.23 42.7719C528.364 42.8365 528.483 42.9278 528.58 43.04C528.676 43.1523 528.748 43.283 528.791 43.424C528.833 43.5649 528.846 43.7131 528.827 43.8591C528.809 44.005 528.76 44.1456 528.684 44.272C528.574 44.4822 528.397 44.6506 528.18 44.7508C527.963 44.851 527.718 44.8771 527.484 44.8252C526.631 44.655 525.766 44.4954 524.902 44.3465C524.037 44.1975 523.129 44.1124 522.232 44.0167C521.336 43.9209 520.417 43.8571 519.509 43.772C518.602 43.6869 517.661 43.6337 516.765 43.5379C516.538 43.5051 516.33 43.3962 516.175 43.2296C516.021 43.0631 515.929 42.8491 515.917 42.6238C515.904 42.3986 515.971 42.1759 516.105 41.9935C516.24 41.8111 516.435 41.6802 516.657 41.6228L516.559 41.6335Z" fill="#0B0709"/>
<path d="M506.541 52.2939C506.541 54.2835 505.687 55.9006 504.639 55.9006C503.591 55.9006 502.737 54.2835 502.737 52.2939C502.737 50.3044 503.591 48.6979 504.639 48.6979C505.687 48.6979 506.541 50.3044 506.541 52.2939Z" fill="#0B0709"/>
<path d="M524.133 52.2939C524.133 54.2835 523.28 55.9006 522.231 55.9006C521.183 55.9006 520.33 54.2835 520.33 52.2939C520.33 50.3044 521.183 48.6979 522.231 48.6979C523.28 48.6979 524.133 50.3044 524.133 52.2939Z" fill="#0B0709"/>
<path d="M488.776 96.6489C491.013 95.7977 496.989 94.021 501.182 95.6381C505.375 97.2553 515.446 98.8831 520.254 96.6489C525.088 94.5877 530.45 94.0416 535.61 95.0849C539.932 96.0424 558.529 105.533 565.661 111.608C572.793 117.683 584.68 231.363 578.099 241.076C575.797 244.47 567.607 259.28 549.442 255.822C534.94 253.045 487.383 258.737 471.897 250.503C459.806 244.066 436.616 205.818 436.616 205.818C439.771 187.71 443.279 169.659 447.141 151.664C448.589 144.93 450.102 138.206 451.777 131.524C453.668 124.002 455.31 115.651 461.891 110.469C469.736 104.298 479.483 100.17 488.776 96.6489Z" fill="#E1251B" stroke="#231F20" stroke-width="2" stroke-linejoin="round"/>
<path d="M479.461 139.823C476.58 166.612 473.388 193.328 469.887 219.968C469.628 221.904 471.616 222.745 471.875 220.787C475.348 194.147 478.525 167.435 481.406 140.653C481.655 138.706 479.666 137.865 479.461 139.823Z" fill="#231F20"/>
<path d="M550.566 146.802C552.936 164.435 555.007 182.117 556.779 199.849C556.909 201.137 558.941 201.105 558.833 199.796C557.06 182.064 555 164.385 552.652 146.76C552.479 145.472 550.415 145.504 550.566 146.802Z" fill="#231F20"/>
<path d="M514.376 64.859C514.259 64.729 514.176 64.5728 514.135 64.404C514.093 64.2353 514.094 64.0591 514.138 63.8909C514.17 63.7215 514.247 63.5635 514.36 63.4327C514.474 63.302 514.621 63.2031 514.786 63.1461C514.916 63.1102 515.053 63.1079 515.183 63.1396C515.314 63.1713 515.434 63.2359 515.532 63.327C516.061 63.5291 516.267 63.4546 516.288 63.4334C516.31 63.4121 516.429 63.2206 516.169 62.3694L516.105 62.1567V62.0822C515.845 61.1953 515.512 60.3307 515.11 59.4968C514.538 58.0712 513.965 56.6455 513.371 55.2412C513.263 54.9638 513.263 54.6568 513.371 54.3794C513.46 54.1537 513.634 53.9706 513.857 53.8687C513.956 53.8231 514.064 53.7998 514.173 53.8006C514.282 53.8013 514.39 53.826 514.489 53.8729C514.587 53.9197 514.673 53.9876 514.742 54.0716C514.81 54.1555 514.858 54.2534 514.883 54.3581C515.272 55.305 515.629 56.22 515.964 57.1349C516.299 58.0499 516.677 58.9436 517.045 59.8799C517.12 60.082 517.218 60.3054 517.326 60.5395C517.913 61.5556 518.155 62.7297 518.017 63.8909C517.943 64.2793 517.762 64.6407 517.496 64.9366C517.23 65.2326 516.887 65.4521 516.504 65.5718C516.313 65.6346 516.112 65.667 515.91 65.6676C515.611 65.6449 515.321 65.5613 515.057 65.4221C514.792 65.2829 514.56 65.0911 514.376 64.859Z" fill="#010101"/>
<path d="M488.107 55.7093C490.023 56.4967 491.608 57.9041 492.602 59.699C493.769 48.5597 493.682 39.8675 492.321 33.8563C492.255 33.6052 492.285 33.339 492.404 33.1079C492.523 32.8767 492.724 32.6964 492.969 32.6009C494.787 31.8215 496.399 30.6423 497.681 29.1538C495.608 28.6928 493.783 27.491 492.559 25.7812C492.453 25.746 492.355 25.6902 492.272 25.6171C492.188 25.544 492.12 25.455 492.072 25.3556C491.226 26.2539 490.324 27.0996 489.371 27.8877C488.498 28.6054 487.674 29.3803 486.907 30.2071C485.03 32.8776 484.3 36.1697 484.876 39.3674C485.394 43.3252 486.28 47.3256 487.134 51.1983C487.458 52.6771 487.793 54.2092 488.107 55.7093Z" fill="white" stroke="#231F20" stroke-width="2" stroke-linejoin="round"/>
<path d="M507.082 15.929C506.653 15.9255 506.224 15.9432 505.796 15.9822C501.989 16.181 498.354 17.6094 495.455 20.0464C494.831 20.5199 494.326 21.1275 493.978 21.8227C493.63 22.5178 493.447 23.2822 493.445 24.0574C493.542 24.726 493.797 25.3628 494.19 25.917C494.582 26.4712 495.1 26.9274 495.703 27.2492C498.514 28.858 501.501 30.1466 504.607 31.0899C506.574 31.7602 508.562 32.3453 510.529 32.8241C514.229 33.7353 518.005 34.3123 521.811 34.5477C523.583 34.6541 525.42 34.6966 527.214 34.654H527.419C529.353 34.654 533.384 34.537 533.903 32.239C534.162 31.175 533.362 29.7175 532.628 28.6216C531.547 26.9725 529.051 25.6533 526.868 24.483C525.971 24.0148 525.139 23.568 524.437 23.1211L523.172 22.3232C518.277 19.1846 513.166 15.929 507.082 15.929Z" fill="white" stroke="#231F20" stroke-width="2" stroke-linejoin="round"/>
<path d="M509.578 72.487C508.447 71.9583 507.419 71.2381 506.542 70.3592C506.491 70.3059 506.462 70.2355 506.462 70.1624C506.462 70.0892 506.491 70.0188 506.542 69.9656C506.598 69.9147 506.671 69.8865 506.747 69.8865C506.823 69.8865 506.896 69.9147 506.952 69.9656C509.654 72.6466 513.436 73.5297 516.256 72.0934C516.326 72.0627 516.404 72.0588 516.476 72.0825C516.548 72.1061 516.609 72.1556 516.645 72.2211C516.664 72.2529 516.675 72.2881 516.679 72.3246C516.683 72.361 516.68 72.3979 516.669 72.4328C516.657 72.4678 516.639 72.5001 516.615 72.5277C516.59 72.5554 516.56 72.5777 516.526 72.5934C515.438 73.1039 514.245 73.3599 513.04 73.3415C511.834 73.323 510.65 73.0306 509.578 72.487Z" fill="#1A1A1A" stroke="#1A1A1A" stroke-miterlimit="10"/>
<g style="mix-blend-mode:multiply" opacity="0.15">
<path d="M507.082 15.929C507.082 15.929 525.452 26.0788 525.452 29.7599V35.4519L532.12 34.5689L533.935 32.3134L532.66 28.696L529.764 27.164L524.469 23.1955L516.656 18.5356L512.539 16.8439L507.082 15.929Z" fill="#010101"/>
</g>
<g style="mix-blend-mode:multiply" opacity="0.15">
<path d="M525.96 34.6753C525.02 34.7392 529.602 46.1763 529.785 47.3786C530.39 51.3576 529.515 59.3902 528.64 63.4332C527.765 67.4761 525.031 71.0828 523.615 75.0193C522.869 77.1471 516.645 96.2977 520.373 97.1169C527.937 98.9362 535.502 100.766 542.526 104.16C549.55 107.554 555.86 112.671 559.253 119.555C560.555 122.32 561.534 125.222 562.171 128.205C564.71 138.844 565.413 149.76 566.115 160.644L574.706 154.399C573.309 142.2 571.165 130.095 568.287 118.151C567.933 116.113 567.165 114.166 566.029 112.427C564.863 111.048 563.467 109.875 561.901 108.958C550.879 101.649 538.862 94.0635 525.582 94.489C525.333 89.4886 525.095 84.4243 526.176 79.5409C527.192 74.9342 529.331 70.6678 531.449 66.4441C532.255 64.6358 533.306 62.9431 534.572 61.4117C535.232 60.6776 535.999 60.0286 536.615 59.2839C537.782 57.6892 538.478 55.8074 538.625 53.8472C538.901 52.1397 538.649 50.3898 537.901 48.8255C537.519 48.0509 536.908 47.4084 536.148 46.9829C535.388 46.5574 534.514 46.3689 533.643 46.4423C534.724 46.2721 532.454 38.9949 532.119 38.282C530.434 34.9413 529.569 34.5264 525.96 34.6753Z" fill="#010101"/>
</g>
<g style="mix-blend-mode:multiply" opacity="0.15">
<path d="M500.523 30.2071C500.523 30.2071 495.714 28.1537 495.714 38.527C495.538 45.6812 494.493 52.7891 492.602 59.699V47.3788L492.969 32.6009L497.681 29.1538L500.523 30.2071Z" fill="#010101"/>
</g>
<g style="mix-blend-mode:multiply" opacity="0.15">
<path d="M479.461 139.823L484.724 140.057V194.168L479.461 167.304L477.095 161.091L479.461 139.823Z" fill="#010101"/>
</g>
<g style="mix-blend-mode:multiply" opacity="0.15">
<path d="M451.852 228.894L463.685 246.258L469.866 243.119L459.773 214.968L454.748 212.861L451.852 228.894Z" fill="#010101"/>
</g>
<path d="M336.498 60.9756C336.822 64.7206 335.05 67.9123 332.543 68.1038C330.036 68.2953 327.756 65.4334 327.443 61.7203C327.129 58.0072 328.891 54.7835 331.387 54.592C333.883 54.4005 336.185 57.2837 336.498 60.9756Z" fill="white" stroke="#231F20" stroke-width="2" stroke-miterlimit="10"/>
<path d="M375.313 60.699C374.74 64.4121 376.296 67.7103 378.781 68.0614C381.267 68.4125 383.741 65.6782 384.303 61.9651C384.865 58.252 383.309 54.9538 380.834 54.6028C378.36 54.2517 375.874 56.9859 375.313 60.699Z" fill="white" stroke="#231F20" stroke-width="2" stroke-miterlimit="10"/>
<path d="M339.492 101.809L341.912 84.4243H370.764L373.79 101.224" fill="white"/>
<path d="M339.492 101.809L341.912 84.4243H370.764L373.79 101.224" stroke="#231F20" stroke-width="2" stroke-miterlimit="10"/>
<path d="M384.498 50.9002C384.498 50.9002 387.124 26.2278 383.072 22.1743C379.02 18.1208 381.289 16.9185 376.923 15.7908C372.558 14.663 372.504 12.482 365.318 12.482C364.086 12.482 363.481 11.7053 356.608 11.7053C354.382 11.7053 350.74 9.96047 345.597 12.6841C340.453 15.4078 337.157 11.6202 333.44 16.2057C329.722 20.7912 328.318 18.3335 325.087 25.5256C321.856 32.7178 326.092 36.2287 326.902 44.0166C327.528 48.9948 329.254 53.7775 331.959 58.0285L383.331 56.4432L384.498 50.9002Z" fill="white" stroke="#231F20" stroke-width="2" stroke-miterlimit="10"/>
<path d="M380.749 59.1884C380.749 76.7963 369.727 91.106 356.122 91.106C342.517 91.106 331.495 76.8282 331.495 59.1884C331.495 51.8686 329.669 40.6655 332.857 35.2927C337.363 27.7069 348.169 27.292 356.122 27.292C364.076 27.292 373.412 25.5259 377.907 33.0372C381.149 38.4313 380.749 51.8154 380.749 59.1884Z" fill="white" stroke="#231F20" stroke-width="2" stroke-miterlimit="10"/>
<path d="M351.897 43.2186C351.302 43.2186 350.816 43.2186 350.233 43.2186C349.649 43.2186 349.152 43.2186 348.601 43.325C347.52 43.4243 346.44 43.5733 345.359 43.7719C344.261 43.9672 343.178 44.2374 342.117 44.5804C341.042 44.9376 340.012 45.416 339.048 46.0061C338.818 46.1417 338.639 46.3492 338.541 46.5958C338.443 46.8424 338.432 47.1141 338.508 47.3679C338.606 47.6847 338.826 47.9512 339.121 48.1103C339.416 48.2694 339.762 48.3085 340.086 48.2191H340.151C341.069 47.9744 341.998 47.7722 342.949 47.602C343.9 47.4318 344.884 47.3147 345.867 47.219C346.85 47.1232 347.845 47.0594 348.839 47.0168H350.33C350.816 47.0168 351.346 47.0168 351.789 47.0168H351.843C352.318 46.9814 352.763 46.7704 353.087 46.4261C353.411 46.0819 353.591 45.6297 353.591 45.1603C353.591 44.6908 353.411 44.2387 353.087 43.8945C352.763 43.5502 352.318 43.3392 351.843 43.3037L351.897 43.2186Z" fill="#1A1A1A"/>
<path d="M374.524 46.0275C373.56 45.4394 372.53 44.9611 371.455 44.6019C370.395 44.2601 369.312 43.9899 368.214 43.7933C367.133 43.5947 366.052 43.4457 364.972 43.3464C364.432 43.2932 363.891 43.2507 363.34 43.2401C362.789 43.2294 362.26 43.2401 361.676 43.2401C361.416 43.2207 361.155 43.2543 360.91 43.3388C360.664 43.4234 360.438 43.557 360.247 43.7312C360.057 43.9055 359.904 44.1168 359.8 44.3517C359.696 44.5867 359.642 44.8402 359.642 45.0966C359.642 45.353 359.696 45.6065 359.8 45.8415C359.904 46.0764 360.057 46.2877 360.247 46.462C360.438 46.6362 360.664 46.7698 360.91 46.8544C361.155 46.9389 361.416 46.9725 361.676 46.9531C362.119 46.9531 362.649 46.9531 363.135 46.9531H364.626C365.62 46.9531 366.614 47.0595 367.598 47.1553C368.581 47.251 369.554 47.3787 370.515 47.5383C371.477 47.6979 372.396 47.9107 373.314 48.1554H373.379C373.642 48.2259 373.921 48.2135 374.177 48.12C374.433 48.0265 374.653 47.8566 374.805 47.634C374.97 47.3798 375.032 47.0744 374.98 46.7774C374.928 46.4804 374.766 46.2131 374.524 46.0275Z" fill="#1A1A1A"/>
<path d="M405.051 112.012C407.352 111.484 409.728 111.351 412.075 111.618C416.062 112.14 429.462 119.459 433.611 124.173C437.761 128.886 451.852 169.166 451.852 190.295C451.852 211.425 436.648 240.438 433.33 246.545C430.013 252.652 433.611 286.368 423.659 293.358C413.706 300.348 409.611 299.826 409.611 299.826L407.18 268.377L417.834 218.617" fill="#E1251B"/>
<path d="M405.051 112.012C407.352 111.484 409.728 111.351 412.075 111.618C416.062 112.14 429.462 119.459 433.611 124.173C437.761 128.886 451.852 169.166 451.852 190.295C451.852 211.425 436.648 240.438 433.33 246.545C430.013 252.652 433.611 286.368 423.659 293.358C413.706 300.348 409.611 299.826 409.611 299.826L407.18 268.377L417.834 218.617" stroke="#231F20" stroke-width="2" stroke-linejoin="round"/>
<path d="M355.42 282.835C354.404 287.421 353.107 305.38 351.929 325.137C351.875 325.967 351.832 326.796 351.778 327.637H300.276C299.715 297.57 300.763 268.706 300.763 268.706L302.124 268.781L303.767 268.877H303.951C308.63 269.185 317.761 269.94 327.054 271.217C331.906 271.909 336.779 272.77 341.102 273.824C347.185 275.303 352.145 277.164 354.285 279.505C354.434 279.658 354.571 279.822 354.696 279.994L354.923 280.335C355.17 280.698 355.342 281.106 355.427 281.536C355.512 281.965 355.51 282.407 355.42 282.835Z" fill="#010101"/>
<path d="M409.633 273.877V327.669H352.631L352.134 325.541L351.928 325.169L340.723 305.38L327.863 282.974L325.745 279.271L325.508 278.856L322.644 273.877H409.633Z" fill="#010101"/>
<path d="M435.211 223.905C432.185 243.566 434 265.302 430.975 275.132C429.894 278.675 413.858 283.474 393.1 283.974C377.366 284.357 358.974 279.909 343.392 279.548L339.891 279.473C320.505 279.08 305.549 279.271 305.549 279.271C305.549 279.271 289.967 133.365 297.855 126.63C304.76 120.736 327.863 101.82 339.545 101.809L356.77 119.736L373.843 101.224C373.843 101.224 404.673 110.799 409.201 111.374" fill="#E1251B"/>
<path d="M435.211 223.905C432.185 243.566 434 265.302 430.975 275.132C429.894 278.675 413.858 283.474 393.1 283.974C377.366 284.357 358.974 279.909 343.392 279.548L339.891 279.473C320.505 279.08 305.549 279.271 305.549 279.271C305.549 279.271 289.967 133.365 297.855 126.63C304.76 120.736 327.864 101.82 339.545 101.809L356.77 119.736L373.843 101.224C373.843 101.224 404.673 110.799 409.201 111.374" stroke="#231F20" stroke-width="2" stroke-linejoin="round"/>
<path d="M347.671 76.8811C348.211 79.5834 352.047 81.4879 356.467 81.1368C360.303 80.8708 363.35 79.0089 364.031 76.7534L347.671 76.8811Z" fill="white" stroke="#231F20" stroke-width="2" stroke-linejoin="round"/>
<path d="M333.224 25.7492L330.057 33.9308L337.784 36.4629L347.671 31.1433L361.654 31.3242L373.789 34.516C373.789 34.516 376.448 37.58 378.501 37.58C379.155 37.5314 379.789 37.333 380.352 37.0005C380.915 36.668 381.391 36.2107 381.743 35.665L380.749 27.1536C380.749 27.1536 366.636 19.5998 366.128 19.5998C365.62 19.5998 349.822 20.0253 349.379 19.5998C348.936 19.1742 333.224 25.7492 333.224 25.7492Z" fill="white"/>
<path d="M331.83 35.2924C334.051 36.5061 336.65 36.8662 339.124 36.3031C344.268 34.9625 347.185 29.3131 349.617 31.8665C352.048 34.4199 356.273 33.9944 359.569 32.0155C362.865 30.0366 361.795 32.59 366.118 33.239C370.44 33.888 372.547 32.6006 375.713 36.4308C377.226 38.2713 378.75 38.8139 379.82 38.3245" stroke="#231F20" stroke-width="2" stroke-miterlimit="10"/>
<path d="M353.398 68.3485C353.148 68.3471 352.897 68.3186 352.653 68.2634C352.21 68.1668 351.802 67.9548 351.472 67.6498C351.141 67.3447 350.899 66.9577 350.773 66.5292C350.618 65.3096 350.93 64.077 351.648 63.0715C351.767 62.8268 351.896 62.6033 351.994 62.3906C352.469 61.4224 352.912 60.4861 353.355 59.5605C353.798 58.6349 354.252 57.6774 354.728 56.7092C354.778 56.5873 354.853 56.477 354.948 56.3853C355.044 56.2935 355.158 56.2224 355.283 56.1763C355.408 56.1303 355.541 56.1104 355.674 56.1179C355.808 56.1254 355.938 56.1601 356.057 56.2198C356.318 56.3176 356.534 56.5071 356.662 56.7518C356.726 56.8904 356.759 57.0409 356.759 57.1933C356.759 57.3456 356.726 57.4962 356.662 57.6348C355.927 59.0392 355.214 60.5074 354.501 61.9756C354.007 62.8226 353.595 63.7131 353.269 64.6354V64.7205L353.193 64.944C352.869 65.8589 353.042 66.0717 353.042 66.0717C353.042 66.0717 353.334 66.1675 353.993 65.9653C354.131 65.8612 354.292 65.7913 354.463 65.7617C354.635 65.7321 354.81 65.7435 354.976 65.7951C355.163 65.8478 355.334 65.9453 355.474 66.079C355.613 66.2127 355.717 66.3783 355.776 66.5611C355.825 66.739 355.823 66.9269 355.769 67.1036C355.716 67.2804 355.613 67.4388 355.473 67.5612C354.915 68.084 354.169 68.3672 353.398 68.3485Z" fill="#010101"/>
<path d="M349.152 54.4537C349.152 56.1559 348.265 57.539 347.163 57.539C346.061 57.539 345.186 56.1559 345.186 54.4537C345.186 52.7514 346.072 51.3683 347.163 51.3683C348.255 51.3683 349.152 52.7514 349.152 54.4537Z" fill="#010101"/>
<path d="M366.042 54.3261C366.042 56.0284 365.145 57.4115 364.054 57.4115C362.962 57.4115 362.065 56.0284 362.065 54.3261C362.065 52.6238 362.962 51.2407 364.054 51.2407C365.145 51.2407 366.042 52.6238 366.042 54.3261Z" fill="#010101"/>
<g style="mix-blend-mode:multiply" opacity="0.15">
<path d="M331.895 52.1876C332.29 48.6244 333.199 45.1349 334.597 41.825C334.713 41.5223 334.869 41.2361 335.061 40.9739C335.35 40.6632 335.685 40.3977 336.056 40.1866C337.268 39.4495 338.304 38.4622 339.092 37.2927C337.579 36.2288 334.77 36.1437 332.889 35.3989C331.035 40.8061 330.692 46.6049 331.895 52.1876Z" fill="#010101"/>
</g>
<g style="mix-blend-mode:multiply" opacity="0.15">
<path d="M367.468 12.4819C367.468 12.4819 375.907 20.5358 377.863 29.4409C379.819 38.3459 380.759 57.954 380.759 57.954L379.83 68.8911L383.147 65.6248L384.314 61.965L383.353 56.3687L384.952 45.7295L385.352 33.1433V25.366L383.731 23.0786L380.77 19.1208L379.819 17.3015V15.9397H377.658L375.118 14.0672L370.656 12.4926L367.468 12.4819Z" fill="#010101"/>
</g>
<g style="mix-blend-mode:multiply" opacity="0.15">
<path d="M365.394 89.1162L368.452 107.011L409.277 128.215L402.761 116.502L397.433 113.576L393.749 110.086L373.79 101.224L372.072 95.8189L370.764 84.4243L365.394 89.1162Z" fill="#010101"/>
</g>
<g style="mix-blend-mode:multiply" opacity="0.15">
<path d="M310.38 152.175C311.026 152.304 311.664 152.467 312.292 152.664C315.75 153.728 322.644 156.59 322.644 162.772C322.644 171.028 324.211 188.891 330.976 208.744C337.741 228.596 336.303 250.003 336.303 259.099C336.303 268.196 339.848 279.473 339.848 279.473L327.821 278.101L310.39 153.622L310.38 152.175Z" fill="#010101"/>
</g>
<path d="M570.903 327.711H518.213C517.132 314.061 516.213 300.103 516.051 291.783C516.051 290.102 516.051 287.527 516.051 287.527L513.555 327.669H453.733C453.733 316.391 454.381 302.635 456.013 286.335C456.013 285.782 456.121 285.271 456.186 284.665C456.733 279.253 457.411 273.579 458.217 267.642C458.498 265.514 458.801 263.344 459.125 261.131C459.46 258.79 459.828 256.407 460.206 253.982C460.487 252.194 460.778 250.375 461.081 248.545C461.221 247.683 461.373 246.811 461.524 245.938C461.783 244.406 462.043 242.864 462.324 241.3C462.864 238.278 463.429 235.196 464.02 232.054H561.502C561.502 232.054 561.912 233.724 562.582 236.725C562.809 237.789 563.068 238.959 563.349 240.299C563.349 240.534 563.447 240.768 563.501 241.012C564.095 243.864 564.765 247.321 565.478 251.258C566.018 254.322 566.559 257.641 567.142 261.248C568.05 267.174 568.936 273.728 569.649 280.697C569.768 281.835 569.887 282.984 569.995 284.144C571.453 298.621 571.757 313.188 570.903 327.711Z" fill="#010101"/>
<path d="M122.809 233.161L119.675 233.001V326.222H173.705V286.421H175.424V326.222H223.273V233.001L220.139 233.161" fill="#010101"/>
<path d="M122.809 233.161L119.675 233.001V326.222H173.705V286.421H175.424V326.222H223.273V233.001L220.139 233.161" stroke="#010101" stroke-miterlimit="10"/>
<path d="M225.358 134.556C225.358 134.556 229.346 188.465 228.946 197.636C228.546 206.807 226.601 212.159 228.946 222.468C231.291 232.778 230.178 235.852 228.946 239.672C227.714 243.491 212.575 243.108 212.575 243.108L141.579 239.034L137.775 206.967L159.712 86.4351L161.959 82.988C161.959 82.988 176.115 94.8401 187.894 87.765C187.894 87.765 220.593 105.916 225.175 109.363C229.756 112.81 225.358 134.556 225.358 134.556Z" fill="#E1251B" stroke="#231F20" stroke-width="2" stroke-miterlimit="10"/>
<path d="M188.022 86.4885C188.022 86.4885 242.658 93.6487 241.793 116.917C241.382 127.971 241.339 255.929 241.339 255.929L186.693 257.206L188.022 86.4885Z" fill="white" stroke="#231F20" stroke-width="2" stroke-miterlimit="10"/>
<path d="M199.855 46.1978C199.942 49.9747 197.629 53.1027 194.701 53.1665C191.772 53.2303 189.298 50.2194 189.222 46.4319C189.146 42.6443 191.437 39.527 194.377 39.4632C197.316 39.3993 199.769 42.389 199.855 46.1978Z" fill="white" stroke="#231F20" stroke-width="2" stroke-miterlimit="10"/>
<path d="M157.311 47.1021C157.398 50.8896 155.085 54.0069 152.146 54.0814C149.207 54.1559 146.743 51.1343 146.667 47.3468C146.592 43.5592 148.893 40.4419 151.833 40.3674C154.772 40.293 157.225 43.3145 157.311 47.1021Z" fill="white" stroke="#231F20" stroke-width="2" stroke-miterlimit="10"/>
<path d="M163.083 68.8911L159.16 87.0629L175.693 104.394L187.915 87.6693L184.825 70.3061L163.083 68.8911Z" fill="white" stroke="#231F20" stroke-width="2" stroke-miterlimit="10"/>
<path d="M197.457 46.1977C195.933 62.4545 187.558 76.9557 174.483 77.2536C161.408 77.5515 153.627 66.125 150.083 47.2723C146.971 30.7177 159.97 16.5037 173.057 16.2058C186.143 15.9079 199.023 29.4197 197.457 46.1977Z" fill="white" stroke="#231F20" stroke-width="2" stroke-miterlimit="10"/>
<path d="M165.601 24.5043C165.719 25.4831 165.687 27.0684 165.827 27.5365C166.001 28.1935 166.318 28.8053 166.757 29.329C167.195 29.8528 167.745 30.2759 168.367 30.5687C169.269 30.8737 170.228 30.9791 171.176 30.8772C174.645 30.707 178.157 29.0898 181.485 28.9941C183.02 28.9941 184.263 29.8771 185.624 30.5687C188.142 31.856 192.529 31.1964 192.54 31.1964C195.036 33.9094 195.609 38.1863 198.137 40.6759C198.661 40.3004 199.155 39.8879 199.618 39.4418C202.525 36.8352 202.676 36.3883 201.358 32.7391C200.277 29.8133 202.438 28.377 203.324 25.9087C204.589 22.5148 206.998 19.2804 204.07 16.9185C200.266 13.8544 197.489 11.3649 194.874 7.18366C193.415 4.84303 191.513 2.31089 188.725 2.04491C184.23 1.6087 181.215 6.3006 176.525 3.90678C174.818 3.03436 173.143 1.87468 171.22 1.77893C169.191 1.84531 167.261 2.66204 165.817 4.06636C163.926 5.6516 162.251 7.47092 159.981 8.56676C156.242 10.3754 151.844 11.3117 148.905 14.397C147.107 16.5442 145.819 19.0595 145.134 21.7594C144.399 23.983 142.973 26.5896 142.973 28.9302C142.919 31.5688 145.058 37.0586 147.479 38.5055C148.381 39.1985 149.119 40.0773 149.64 41.0802C149.64 41.0802 152.666 34.9627 153.141 33.5796C154.331 31.1167 156.014 28.9164 158.09 27.1109C159.339 26.0847 160.685 25.1798 162.11 24.4086C163.115 23.9617 165.384 22.7488 165.601 24.5043Z" fill="white" stroke="#231F20" stroke-width="2" stroke-miterlimit="10"/>
<path d="M155.539 40.3143C155.224 40.3319 154.912 40.2428 154.656 40.0619C154.399 39.8809 154.213 39.6189 154.128 39.3194C154.044 39.0199 154.066 38.7009 154.191 38.4155C154.316 38.13 154.536 37.8953 154.815 37.7502C156.615 36.7689 158.608 36.1802 160.659 36.0241C162.71 35.8681 164.771 36.1483 166.702 36.8459C166.999 37.0106 167.223 37.2773 167.333 37.595C167.442 37.9127 167.429 38.259 167.295 38.5674C167.161 38.8759 166.916 39.1249 166.607 39.2666C166.298 39.4083 165.947 39.4328 165.621 39.3355C164.073 38.8092 162.428 38.612 160.797 38.7569C159.165 38.9017 157.583 39.3854 156.155 40.1759C155.962 40.2633 155.752 40.3104 155.539 40.3143Z" fill="white" stroke="#231F20" stroke-width="2" stroke-miterlimit="10"/>
<path d="M180.523 39.2822C180.252 39.2848 179.986 39.2084 179.759 39.0626C179.532 38.9169 179.354 38.7082 179.247 38.463C179.102 38.1327 179.096 37.7593 179.23 37.4244C179.363 37.0895 179.626 36.8203 179.961 36.6756C181.817 35.8184 183.837 35.3607 185.886 35.3332C187.936 35.3057 189.968 35.7089 191.847 36.516C192.008 36.5984 192.15 36.7111 192.266 36.8477C192.382 36.9843 192.47 37.1421 192.524 37.312C192.578 37.4819 192.598 37.6607 192.582 37.8381C192.566 38.0155 192.515 38.1881 192.431 38.3459C192.347 38.5038 192.233 38.6439 192.094 38.7582C191.955 38.8725 191.795 38.9588 191.622 39.0122C191.45 39.0655 191.268 39.0849 191.088 39.0691C190.908 39.0534 190.733 39.0029 190.572 38.9205C189.06 38.3021 187.432 38.0052 185.795 38.0492C184.158 38.0932 182.549 38.4771 181.074 39.1758C180.899 39.2471 180.712 39.2833 180.523 39.2822Z" fill="white" stroke="#231F20" stroke-width="2" stroke-miterlimit="10"/>
<path d="M197.78 40.2612C197.703 39.9735 197.541 39.7146 197.316 39.5164C197.266 39.4716 197.212 39.4323 197.154 39.3994C197.042 39.3216 196.918 39.2639 196.786 39.2292C196.104 39.0321 195.406 38.8898 194.701 38.8036C194.171 38.7291 193.328 38.6334 192.291 38.5483C191.253 38.4631 190.13 38.3887 188.854 38.3568C186.992 38.2842 185.127 38.3126 183.268 38.4419C182.325 38.5063 181.386 38.6271 180.458 38.8036L179.659 38.9738C176.417 39.7186 176.33 40.5271 176.417 40.974C176.417 41.0378 176.352 41.0804 176.287 41.0591C175.559 40.7093 174.751 40.5482 173.942 40.591C173.135 40.5892 172.34 40.7867 171.63 41.1655C171.616 41.1737 171.6 41.1778 171.583 41.1774C171.567 41.1769 171.551 41.172 171.538 41.1631C171.524 41.1542 171.513 41.1417 171.507 41.1271C171.5 41.1125 171.498 41.0963 171.5 41.0804C171.5 40.6016 171.381 39.7186 167.329 39.1015H167.091C165.969 38.9585 164.84 38.8839 163.709 38.8781C162.304 38.8781 160.845 38.8781 159.462 39.0164C157.42 39.1547 155.539 39.3781 154.243 39.5696L153.022 39.7611C152.29 39.9003 151.568 40.0851 150.86 40.3144C150.601 40.4026 150.375 40.5658 150.212 40.7825C150.022 41.0302 149.923 41.334 149.931 41.6443V41.7294C149.949 41.9933 150.044 42.2466 150.205 42.4582C150.366 42.6698 150.586 42.8306 150.839 42.921C151.097 43.0004 151.326 43.1519 151.498 43.3572C152.06 43.9849 152.233 44.5381 152.86 44.7722C152.876 44.7769 152.89 44.7868 152.9 44.8003C152.909 44.8138 152.914 44.8301 152.914 44.8467C152.906 46.6153 153.194 48.3731 153.767 50.0493C154.116 51.0088 154.712 51.863 155.496 52.5282C156.286 53.1571 157.215 53.5944 158.209 53.8049C159.359 54.0706 160.539 54.1887 161.721 54.156C162.933 54.1396 164.138 53.9533 165.297 53.6027C166.428 53.2326 167.444 52.5836 168.248 51.7177C169.051 50.8517 169.617 49.7975 169.89 48.6555C170.435 46.8233 170.647 44.9109 170.517 43.0061C170.607 43.0285 170.702 43.0265 170.791 43.0003C170.881 42.9741 170.961 42.9246 171.024 42.8571C171.062 42.8269 171.095 42.791 171.122 42.7507C171.9 42.0561 172.925 41.6928 173.975 41.74C174.491 41.6903 175.012 41.7429 175.508 41.8945C176.003 42.0462 176.463 42.2939 176.86 42.6231C176.86 42.6231 176.86 42.6976 176.86 42.7295H176.806C176.872 42.7859 176.949 42.8282 177.033 42.8538C177.117 42.8794 177.205 42.8878 177.292 42.8784C177.304 42.8769 177.317 42.878 177.328 42.8816C177.34 42.8852 177.351 42.8912 177.36 42.8993C177.369 42.9073 177.377 42.9172 177.382 42.9283C177.387 42.9394 177.389 42.9514 177.389 42.9635C177.394 44.8398 177.715 46.7022 178.34 48.4747C178.671 49.6043 179.289 50.6321 180.136 51.4606C180.984 52.2892 182.032 52.891 183.181 53.2091C184.356 53.5049 185.568 53.6338 186.78 53.5921C187.964 53.5783 189.141 53.4101 190.281 53.0921C190.894 52.9169 191.482 52.6667 192.031 52.3473C193.237 51.6254 194.127 50.4877 194.528 49.1556C195.022 47.4558 195.227 45.6869 195.133 43.9211C195.133 43.9033 195.138 43.886 195.148 43.871C195.157 43.856 195.171 43.8438 195.187 43.836C195.792 43.5806 195.889 43.0167 196.419 42.3677C196.569 42.1785 196.761 42.0257 196.981 41.9209C197.195 41.8228 197.384 41.6771 197.532 41.4953C197.649 41.3394 197.733 41.1622 197.78 40.974C197.797 40.8504 197.797 40.7252 197.78 40.6016V40.5272V40.2612ZM169.35 48.5172C169.094 49.5883 168.562 50.5764 167.805 51.3854C167.048 52.1944 166.091 52.797 165.027 53.1346C162.815 53.7686 160.475 53.8345 158.23 53.3261C157.3 53.1367 156.43 52.7319 155.691 52.1452C154.988 51.5255 154.453 50.7429 154.135 49.8684C153.545 48.0983 153.27 46.2408 153.324 44.3785C153.449 43.2705 153.93 42.2305 154.697 41.4102C154.834 41.3014 154.978 41.2019 155.129 41.1123C157.957 39.9473 161.059 39.579 164.087 40.0484C167.739 40.5484 169.166 41.3783 169.771 42.3784L169.836 42.4848C170.128 44.5063 169.962 46.5664 169.35 48.5172ZM194.603 43.4529C194.744 45.311 194.558 47.1792 194.052 48.9747C193.673 50.2607 192.801 51.3515 191.621 52.0175C191.146 52.269 190.646 52.4722 190.13 52.6239C187.907 53.2326 185.563 53.2692 183.322 52.7303C182.253 52.4341 181.279 51.8725 180.494 51.0994C179.709 50.3263 179.138 49.3675 178.837 48.3151C178.119 46.4062 177.842 44.3634 178.027 42.3358L178.081 42.2294C178.643 41.1655 180.026 40.3144 183.646 39.6547C186.519 39.0743 189.495 39.2282 192.291 40.1016L192.691 40.2612C193.955 40.8782 194.463 42.5912 194.647 43.4529H194.603Z" fill="white" stroke="#231F20" stroke-width="2" stroke-miterlimit="10"/>
<path d="M175.207 68.0719C173.733 68.4772 172.175 68.4772 170.701 68.0719C170.651 68.0515 170.611 68.0134 170.588 67.9652C170.565 67.9169 170.561 67.862 170.578 67.8112C170.594 67.7604 170.629 67.7175 170.676 67.6909C170.723 67.6643 170.778 67.656 170.831 67.6676C172.422 68.1064 174.113 68.0494 175.67 67.5046C177.228 66.9599 178.576 65.9539 179.53 64.6248C179.565 64.5796 179.618 64.5503 179.676 64.5434C179.733 64.5364 179.792 64.5523 179.838 64.5875C179.883 64.6228 179.913 64.6746 179.92 64.7314C179.927 64.7883 179.911 64.8456 179.875 64.8908C178.704 66.4147 177.068 67.5295 175.207 68.0719Z" fill="white" stroke="#231F20" stroke-width="2" stroke-miterlimit="10"/>
<path d="M165.676 45.0168C165.816 46.7723 165.038 48.2086 163.947 48.3363C162.855 48.4639 161.861 47.0702 161.72 45.3254C161.58 43.5805 162.358 42.1336 163.449 42.0059C164.541 41.8783 165.546 43.272 165.676 45.0168Z" fill="#010101"/>
<path d="M186.618 44.3678C186.747 46.1126 185.98 47.5596 184.889 47.6766C183.797 47.7936 182.792 46.4105 182.663 44.6657C182.533 42.9209 183.3 41.4739 184.392 41.3463C185.483 41.2186 186.477 42.6123 186.618 44.3678Z" fill="#010101"/>
<path d="M629.58 115.087C628.877 117.715 626.468 119.342 624.177 118.779C621.886 118.215 620.611 115.587 621.313 112.938C622.015 110.288 624.425 108.682 626.716 109.246C629.007 109.81 630.282 112.448 629.58 115.087Z" fill="white" stroke="#231F20" stroke-width="2" stroke-miterlimit="10"/>
<path d="M655.244 164.793L651.116 258.557L617.52 259.514L558.918 261.344L573.074 155.441L592.709 150.324C592.709 150.324 601.127 156.58 617.001 150.43C618.533 150.473 620.051 150.734 621.507 151.207C625.332 152.143 631.049 153.781 636.7 155.462C639.609 157.873 643.193 159.357 646.977 159.718C649.462 159.963 652.402 163.155 655.244 164.793Z" fill="#E1251B" stroke="#231F20" stroke-width="2" stroke-miterlimit="10"/>
<path d="M591.844 119.417C591.844 119.417 610.873 136.014 599.592 153.037C596.436 157.803 588.072 149.451 587.705 152.494C587.521 154.133 557.318 110.661 593.194 81.2859C594.275 80.3922 595.302 79.4666 596.382 78.6474C596.62 78.4559 596.869 78.275 597.117 78.0941L599.462 99.0853L591.844 119.417Z" fill="white" stroke="#231F20" stroke-width="2" stroke-miterlimit="10"/>
<path d="M624.047 110.969C624.047 125.917 615.402 138.046 604.79 138.046C594.179 138.046 584.475 126.62 584.475 111.661C584.475 96.7021 594.103 83.8818 604.747 83.8818C615.391 83.8818 624.047 96.0105 624.047 110.969Z" fill="white" stroke="#231F20" stroke-width="2" stroke-miterlimit="10"/>
<path d="M596.902 103.735C596.311 103.558 595.708 103.423 595.097 103.33C594.464 103.22 593.826 103.142 593.185 103.096C591.898 103.007 590.606 103.047 589.327 103.213C588.986 103.244 588.645 103.145 588.376 102.936C588.107 102.728 587.929 102.425 587.879 102.091C587.829 101.757 587.911 101.418 588.108 101.141C588.305 100.865 588.602 100.674 588.938 100.607C591.125 100.247 593.354 100.211 595.551 100.5C596.31 100.591 597.062 100.737 597.799 100.936C598.161 101.055 598.463 101.304 598.643 101.635C598.824 101.966 598.869 102.352 598.769 102.714C598.67 103.076 598.433 103.387 598.108 103.583C597.783 103.778 597.394 103.844 597.021 103.767L596.902 103.735Z" fill="#010101"/>
<path d="M606.875 101.075C607.619 100.901 608.373 100.776 609.134 100.702C609.851 100.62 610.573 100.577 611.295 100.575C612.771 100.557 614.245 100.689 615.693 100.968C616.026 101.045 616.317 101.243 616.506 101.524C616.696 101.804 616.769 102.146 616.711 102.477C616.653 102.809 616.468 103.107 616.194 103.309C615.921 103.511 615.579 103.602 615.239 103.564C613.967 103.371 612.679 103.3 611.392 103.352C610.744 103.352 610.096 103.447 609.469 103.533C608.856 103.619 608.25 103.744 607.653 103.905C607.281 103.991 606.888 103.933 606.558 103.743C606.227 103.552 605.984 103.243 605.878 102.881C605.772 102.518 605.813 102.129 605.99 101.795C606.168 101.461 606.469 101.207 606.832 101.086L606.875 101.075Z" fill="#010101"/>
<path d="M595.757 109.288C595.757 110.969 594.946 112.331 593.941 112.331C592.936 112.331 592.137 110.969 592.137 109.288C592.137 107.607 592.947 106.235 593.941 106.235C594.936 106.235 595.757 107.607 595.757 109.288Z" fill="#010101"/>
<path d="M611.426 109.81C611.426 111.491 610.616 112.852 609.611 112.852C608.606 112.852 607.839 111.544 607.839 109.81C607.839 108.075 608.649 106.756 609.643 106.756C610.638 106.756 611.426 108.118 611.426 109.81Z" fill="#010101"/>
<path d="M655.049 327.711H563.003C563.382 313.689 565.629 291.283 568.968 278.016C569.293 276.686 568.601 275.398 568.968 274.132C571.281 265.312 572.459 264.344 573.583 260.886C574.069 259.386 571.259 258.556 571.259 258.556L586.777 257.897L593.401 257.705L621.097 256.237L638.689 255.301C638.689 255.301 638.754 256.652 639.013 258.929C639.865 266.638 641.553 274.235 644.049 281.59C645.172 284.877 646.541 288.078 648.144 291.166C652.704 299.858 654.422 315.37 655.049 327.711Z" fill="#010101"/>
<path d="M593.369 258.28C593.229 258.261 593.101 258.193 593.009 258.088C592.916 257.984 592.865 257.85 592.865 257.711C592.865 257.572 592.916 257.438 593.009 257.333C593.101 257.228 593.229 257.16 593.369 257.142L626.349 255.365C626.491 255.374 626.624 255.435 626.724 255.534C626.824 255.634 626.884 255.766 626.892 255.906C626.9 256.046 626.856 256.183 626.768 256.293C626.68 256.403 626.554 256.478 626.414 256.503L593.434 258.28H593.369Z" stroke="#010101" stroke-miterlimit="10"/>
<path d="M629.807 210.488C629.688 210.488 629.572 210.455 629.472 210.393C629.346 210.305 629.261 210.172 629.234 210.022C629.208 209.873 629.243 209.719 629.331 209.595C630.001 208.648 629.763 207.978 629.331 206.871C628.499 204.866 628.46 202.626 629.223 200.594C630.073 198.285 631.241 196.102 632.692 194.104C634.097 191.976 635.318 190.157 635.62 187.955C635.88 186.039 635.102 183.167 634.345 180.39C633.394 176.922 632.508 173.655 633.47 171.879C634.432 170.102 636.204 168.793 637.998 167.389C639.586 166.165 641.077 164.995 641.531 163.963C642.082 162.729 637.846 158.186 633.61 154.686C633.497 154.587 633.426 154.45 633.412 154.301C633.398 154.153 633.442 154.005 633.535 153.888C633.583 153.83 633.642 153.782 633.709 153.748C633.776 153.713 633.849 153.691 633.924 153.684C633.999 153.677 634.075 153.685 634.148 153.707C634.22 153.729 634.287 153.765 634.345 153.813C636.571 155.654 643.736 161.846 642.579 164.452C642.007 165.74 640.418 166.995 638.711 168.315C637.003 169.634 635.253 171.017 634.486 172.443C633.718 173.868 634.604 177.049 635.447 180.145C636.236 183.039 637.047 186.018 636.755 188.157C636.42 190.625 635.069 192.636 633.643 194.774C632.257 196.69 631.138 198.78 630.314 200.988C629.621 202.779 629.656 204.764 630.412 206.531C630.844 207.722 631.244 208.85 630.239 210.276C630.187 210.341 630.122 210.393 630.047 210.43C629.972 210.467 629.89 210.487 629.807 210.488Z" fill="#7E5DA7"/>
<path d="M554.888 195.434C555.104 194.764 572.869 156.069 573.096 155.441C573.096 155.441 578.056 150.324 599.614 152.984C600.327 164.527 590.969 178.401 589.975 189.912C587.922 214.67 592.514 239.417 594.838 264.121C594.946 265.27 595.021 278.165 594.535 279.111C594.049 280.058 561.101 282.697 559.837 279.111C558.756 275.92 561.998 270.068 561.998 260.44C561.998 258.163 560.593 255.918 560.042 253.556C558.011 244.832 553.461 237.48 551.592 228.692C549.225 217.713 551.387 205.914 554.888 195.434Z" fill="white" stroke="#231F20" stroke-width="2" stroke-miterlimit="10"/>
<path d="M606.421 325.711C606.268 325.709 606.123 325.647 606.016 325.539C605.909 325.432 605.849 325.287 605.849 325.137V291.442L598.436 285.293C598.377 285.245 598.329 285.187 598.294 285.121C598.259 285.056 598.237 284.983 598.23 284.909C598.223 284.835 598.231 284.761 598.253 284.689C598.275 284.618 598.312 284.552 598.36 284.495C598.408 284.438 598.468 284.39 598.534 284.356C598.601 284.321 598.674 284.299 598.75 284.292C598.825 284.286 598.901 284.293 598.973 284.315C599.045 284.337 599.112 284.373 599.17 284.421L606.735 290.74C606.799 290.794 606.852 290.86 606.887 290.936C606.922 291.011 606.941 291.093 606.94 291.176V325.137C606.941 325.279 606.888 325.416 606.793 325.522C606.697 325.628 606.565 325.696 606.421 325.711Z" fill="#010101"/>
<path d="M602.942 126.364C601.692 126.358 600.452 126.139 599.278 125.715C599.207 125.687 599.15 125.632 599.119 125.562C599.089 125.492 599.088 125.413 599.116 125.343C599.128 125.307 599.148 125.275 599.173 125.247C599.198 125.219 599.229 125.196 599.263 125.181C599.297 125.165 599.335 125.156 599.373 125.154C599.41 125.153 599.448 125.159 599.484 125.173C603.082 126.492 606.929 125.683 608.82 123.204C608.876 123.154 608.949 123.125 609.025 123.125C609.101 123.125 609.175 123.154 609.231 123.204C609.288 123.254 609.325 123.322 609.335 123.397C609.345 123.471 609.327 123.546 609.285 123.609C608.513 124.516 607.539 125.236 606.439 125.714C605.339 126.192 604.143 126.414 602.942 126.364Z" fill="#1A1A1A" stroke="#1A1A1A" stroke-miterlimit="10"/>
<path d="M584.432 117.438C584.441 117.497 584.438 117.558 584.422 117.616C584.405 117.674 584.376 117.727 584.337 117.773C584.297 117.819 584.248 117.856 584.192 117.881C584.137 117.906 584.077 117.919 584.016 117.919C583.955 117.919 583.894 117.906 583.839 117.881C583.784 117.856 583.734 117.819 583.695 117.773C583.655 117.727 583.626 117.674 583.61 117.616C583.593 117.558 583.59 117.497 583.6 117.438C583.59 117.379 583.593 117.318 583.61 117.26C583.626 117.202 583.655 117.149 583.695 117.103C583.734 117.057 583.784 117.02 583.839 116.995C583.894 116.97 583.955 116.957 584.016 116.957C584.077 116.957 584.137 116.97 584.192 116.995C584.248 117.02 584.297 117.057 584.337 117.103C584.376 117.149 584.405 117.202 584.422 117.26C584.438 117.318 584.441 117.379 584.432 117.438Z" fill="#010101"/>
<path d="M159.387 86.4885C159.387 86.4885 104.741 93.7126 105.616 117.236C106.037 128.407 94.1831 260.865 94.1831 260.865L168.918 258.833L159.387 86.4885Z" fill="white" stroke="#231F20" stroke-width="2" stroke-miterlimit="10"/>
<path d="M13.2783 325.839C14.9537 317.355 17.0672 308.96 19.6107 300.688C19.8808 299.762 20.1618 298.826 20.4427 297.89V297.826C21.5233 294.368 22.6039 290.825 23.6845 287.272L23.7386 287.102C28.785 270.941 34.3069 254.705 37.3218 245.96C38.035 243.896 38.6077 242.257 39.0075 241.13C39.3965 240.002 39.6234 239.385 39.6234 239.385H107.312C107.507 239.938 107.853 241.374 108.317 243.491C108.425 244.013 108.555 244.555 108.685 245.204C110.025 251.588 112.078 262.142 114.261 273.622C114.423 274.505 114.596 275.399 114.769 276.292C115.741 281.442 116.735 286.708 117.686 291.794L118.01 293.57C118.248 294.847 118.486 296.113 118.724 297.358C118.724 297.464 118.724 297.571 118.724 297.677C118.94 298.847 119.156 300.007 119.361 301.135C119.567 302.263 119.772 303.263 119.966 304.327C122.063 315.668 123.651 324.35 123.921 325.818C123.921 325.967 123.921 326.041 123.921 326.041L13.2783 325.839Z" fill="white" stroke="#231F20" stroke-width="2" stroke-linejoin="round"/>
<path d="M119.469 297.603L115.082 296.177C114.912 295.917 114.822 295.614 114.822 295.305C114.822 294.995 114.912 294.693 115.082 294.432C115.687 293.453 117.135 293.485 117.837 293.56C118.575 293.695 119.299 293.898 119.999 294.166C121.002 293.049 122.18 292.097 123.489 291.347C123.24 290.027 123.363 288.666 123.846 287.41C122.731 286.18 122.153 284.567 122.236 282.92L121.782 282.101C121.544 282.197 121.101 282.399 120.809 282.559C120.517 282.718 120.377 284.08 120.539 284.857C120.776 286.389 120.805 287.945 120.625 289.485C120.526 290.172 120.162 290.795 119.609 291.224C119.055 291.654 118.355 291.858 117.654 291.794C116.033 291.74 115.979 290.176 115.665 288.783C115.411 287.059 115.385 285.31 115.59 283.58C115.709 281.069 115.05 279.814 114.563 277.452C114.272 276.053 114.166 274.622 114.25 273.196C114.494 271.501 114.907 269.833 115.482 268.217C115.2 266.965 115.282 265.659 115.719 264.451C116.552 262.663 113.861 249.556 113.861 249.556L127.444 251.067L126.18 265.866C126.18 265.866 130.437 274.633 131.842 278.58C133.247 282.527 134.273 284.591 134.079 286.548C134.079 286.548 132.015 294.422 129.897 296.124C127.779 297.826 122.884 301.028 121.479 301.135C119.617 301.116 117.758 300.978 115.914 300.72C115.366 300.687 114.831 300.55 114.336 300.316C114.336 300.316 113.688 300.316 114.185 298.986C114.682 297.656 116.163 298.039 119.469 297.603Z" fill="white" stroke="#231F20" stroke-width="2" stroke-miterlimit="10"/>
<path d="M23.7383 287.091C23.7383 287.091 18.0868 287.431 16.9954 287.421C16.9954 287.421 17.071 295.166 20.3669 297.815L20.4425 297.879L23.7383 287.091Z" fill="white" stroke="#231F20" stroke-width="2" stroke-miterlimit="10"/>
<path d="M70.3675 43.9741C70.3675 43.9741 78.4396 41.0376 85.7337 44.7082C93.5032 48.6234 97.4474 52.528 99.2304 85.35C101.013 118.172 100.819 134.599 101.013 137.131C101.208 139.663 22.1293 138.706 37.5063 138.897V57.2199L70.3675 43.9741Z" fill="white" stroke="#231F20" stroke-width="2" stroke-miterlimit="10"/>
<path d="M94.9504 86.2119C94.9504 89.5846 91.9788 92.8402 89.5474 92.8402C87.1161 92.8402 85.1169 90.1059 85.1169 86.7332C85.1169 83.3606 88.3588 80.637 90.8225 80.637C93.2863 80.637 94.9504 82.818 94.9504 86.2119Z" fill="white" stroke="#231F20" stroke-width="2" stroke-miterlimit="10"/>
<g style="mix-blend-mode:multiply" opacity="0.15">
<path d="M94.9504 86.2118C94.9504 89.5844 91.9788 92.84 89.5474 92.84C87.1161 92.84 85.1169 90.1057 85.1169 86.7331C85.1169 83.3605 88.3588 80.6368 90.8225 80.6368C93.2863 80.6368 94.9504 82.8179 94.9504 86.2118Z" fill="#010101"/>
</g>
<path d="M80.1781 127.758L56.2319 128.471L57.0532 108.214H78.9895L80.1781 127.758Z" fill="white" stroke="#231F20" stroke-width="2" stroke-miterlimit="10"/>
<path d="M89.7212 84.435C90.2399 100.713 80.3848 114.225 67.7093 114.619C55.0338 115.012 44.3466 102.128 43.8279 85.8926C43.3092 69.6571 53.1643 56.1028 65.8398 55.7091C78.5153 55.3155 89.2025 68.157 89.7212 84.435Z" fill="white" stroke="#231F20" stroke-width="2" stroke-miterlimit="10"/>
<path d="M81.2705 75.679C81.0797 75.682 80.8897 75.6532 80.7086 75.5939C75.7919 73.998 72.55 75.445 72.4096 75.5088C72.1967 75.6087 71.966 75.6663 71.7305 75.6784C71.495 75.6905 71.2594 75.6568 71.0371 75.5793C70.8149 75.5017 70.6103 75.3818 70.4351 75.2264C70.2599 75.071 70.1175 74.8832 70.016 74.6736C69.9146 74.464 69.856 74.2368 69.8437 74.005C69.8315 73.7731 69.8657 73.5412 69.9445 73.3223C70.0232 73.1035 70.145 72.9021 70.3028 72.7296C70.4607 72.5571 70.6515 72.4169 70.8643 72.317C71.048 72.2319 75.4569 70.1892 81.8216 72.2319C82.226 72.3606 82.5704 72.6273 82.7928 72.9839C83.0151 73.3405 83.1007 73.7636 83.0342 74.1769C82.9677 74.5902 82.7535 74.9665 82.4301 75.238C82.1068 75.5095 81.6955 75.6584 81.2705 75.6577V75.679Z" fill="#010101"/>
<path d="M50.1381 78.4664C49.7543 78.4784 49.3769 78.3682 49.0619 78.152C48.747 77.9359 48.5112 77.6255 48.3898 77.2669C48.2684 76.9083 48.2678 76.5207 48.3881 76.1618C48.5084 75.8028 48.7432 75.4917 49.0575 75.2746C49.2196 75.1576 53.2718 72.4552 59.8635 73.5404C60.0948 73.5781 60.3163 73.6603 60.5153 73.7823C60.7144 73.9044 60.8871 74.0638 61.0235 74.2515C61.16 74.4392 61.2576 74.6515 61.3107 74.8764C61.3638 75.1012 61.3714 75.3341 61.3331 75.5619C61.2948 75.7896 61.2113 76.0077 61.0874 76.2036C60.9635 76.3996 60.8016 76.5696 60.6109 76.704C60.4203 76.8384 60.2046 76.9344 59.9763 76.9867C59.7479 77.039 59.5113 77.0465 59.28 77.0088C54.1795 76.1789 51.1863 78.0727 51.0674 78.1685C50.7924 78.3521 50.4702 78.4554 50.1381 78.4664Z" fill="#010101"/>
<path d="M58.4588 83.9457C58.4588 85.7011 57.5727 87.1374 56.4812 87.1374C55.3898 87.1374 54.4929 85.7224 54.4929 83.9457C54.4929 82.1689 55.379 80.7539 56.4812 80.7539C57.5835 80.7539 58.4588 82.1902 58.4588 83.9457Z" fill="#010101"/>
<path d="M78.438 84.8287C78.438 86.5842 77.5519 88.0205 76.4497 88.0205C75.3475 88.0205 74.4722 86.5948 74.4722 84.8287C74.4722 83.0626 75.3583 81.637 76.4497 81.637C77.5411 81.637 78.438 83.0733 78.438 84.8287Z" fill="#010101"/>
<path d="M59.5493 100.5C60.2193 103.511 63.8177 105.469 67.8051 104.905C71.2739 104.426 73.9213 102.181 74.4076 99.5853L59.5493 100.5Z" fill="white" stroke="#231F20" stroke-width="2" stroke-linejoin="round"/>
<path d="M137.591 214.404C137.948 197.679 138.672 187.806 131.961 161.591C125.251 135.376 106.254 136.674 106.254 136.674V136.769L99.8567 135.705L90.3906 136.184L88.8021 128.247C88.6366 127.295 88.1396 126.429 87.3962 125.798C86.6528 125.167 85.7095 124.81 84.7282 124.79H54.1579C53.141 124.81 52.1654 125.19 51.4095 125.86C50.6536 126.53 50.1678 127.445 50.0408 128.439L48.5172 138.301L39.6778 138.759C39.1652 138.926 38.6725 139.147 38.2082 139.419V137.472C38.2082 137.472 5.7901 140.951 6.38443 195.987C6.97877 251.024 -4.86466 247.151 4.86078 286.346C4.86078 286.346 26.9051 290.73 39.5266 281.867L39.1051 245.928L102.515 245.151C104.766 245.123 106.959 244.438 108.815 243.183C108.815 243.768 108.815 244.332 108.739 244.875C107.334 272.473 109.82 275.111 109.82 275.111C123.868 277.952 139.137 285.41 139.137 285.41C157.053 264.132 137.246 231.118 137.591 214.404Z" fill="#E1251B" stroke="#231F20" stroke-width="2" stroke-miterlimit="10"/>
<path d="M64.1527 93.7124C63.9053 93.7103 63.6589 93.6818 63.4179 93.6273C62.9713 93.521 62.5617 93.2992 62.2311 92.9851C61.9006 92.6709 61.6612 92.2756 61.5376 91.8399C61.3722 90.5877 61.6798 89.3193 62.4021 88.2758C62.5318 88.0311 62.6614 87.797 62.7479 87.5842C63.2342 86.5841 63.6772 85.6266 64.1203 84.6691C64.5633 83.7115 65.0172 82.7221 65.4926 81.7326C65.5375 81.6115 65.6073 81.5008 65.6976 81.4075C65.788 81.3142 65.8969 81.2402 66.0176 81.1903C66.1384 81.1403 66.2683 81.1155 66.3992 81.1173C66.5301 81.1191 66.6593 81.1475 66.7785 81.2007C67.0548 81.3163 67.2752 81.5322 67.394 81.8037C67.5127 82.0751 67.5206 82.3812 67.4161 82.6583C66.6813 84.1052 65.9681 85.616 65.2549 87.1267C64.7645 87.9998 64.3558 88.915 64.0338 89.861V89.9461L63.9582 90.1695C63.634 91.1164 63.8069 91.3399 63.8069 91.3399C63.8069 91.3399 64.0986 91.4356 64.7578 91.2228C64.8877 91.1233 65.0389 91.0544 65.2 91.0212C65.361 90.988 65.5276 90.9915 65.6871 91.0313C65.8763 91.0868 66.0485 91.1879 66.1881 91.3254C66.3277 91.4628 66.4304 91.6323 66.4868 91.8186C66.5401 92.0062 66.5401 92.2047 66.4868 92.3923C66.4334 92.5799 66.3287 92.7495 66.1842 92.8826C65.6442 93.4114 64.9143 93.7096 64.1527 93.7124Z" fill="#010101"/>
<path d="M69.7621 43.3358C75.9864 55.6347 60.9552 60.05 55.2604 66.7421C49.0361 74.0193 44.7353 88.3823 45.0703 97.9469C45.9888 124.034 54.947 144.951 37.5061 168.836C41.1261 154.335 35.615 143.249 31.0224 130.088C25.976 115.608 26.0625 100.766 27.7806 85.7331C29.099 74.4023 29.5204 56.0709 38.176 47.517C43.136 42.5698 65.7963 35.5053 69.7621 43.3358Z" fill="white" stroke="#231F20" stroke-width="2" stroke-miterlimit="10"/>
<path d="M40.628 255.801C39.3204 243.226 40.9629 230.544 39.5474 217.989C38.2506 206.105 34.4793 194.126 37.1052 182.167C37.4294 180.667 35.0845 180.039 34.7603 181.529C32.2641 192.913 35.2898 204.254 36.8026 215.574C38.5964 228.916 36.8026 242.428 38.1534 255.822C38.3047 257.333 40.736 257.354 40.5847 255.822L40.628 255.801Z" fill="#231F20"/>
<path d="M109.528 243.47C110.835 232.522 107.831 222.287 106.837 211.457C105.551 197.551 104.568 183.646 104.535 169.677C104.507 169.379 104.366 169.102 104.142 168.9C103.917 168.699 103.624 168.587 103.32 168.587C103.016 168.587 102.723 168.699 102.498 168.9C102.273 169.102 102.133 169.379 102.104 169.677C102.104 183.646 103.131 197.551 104.406 211.457C105.4 222.245 108.393 232.565 107.096 243.47C106.913 245.002 109.355 244.992 109.528 243.47Z" fill="#231F20"/>
<path d="M172.441 60.4756C172.194 60.5074 171.943 60.5074 171.696 60.4756C171.243 60.4038 170.817 60.2141 170.464 59.926C170.11 59.6379 169.842 59.2619 169.686 58.8371C169.425 57.6016 169.633 56.3151 170.269 55.2198C170.377 54.9644 170.485 54.7198 170.561 54.4963C170.961 53.4324 171.328 52.4749 171.696 51.4854C172.063 50.496 172.43 49.4852 172.83 48.4532C172.868 48.3307 172.931 48.2169 173.014 48.1189C173.098 48.0208 173.201 47.9405 173.317 47.8828C173.434 47.8251 173.56 47.7912 173.69 47.7832C173.82 47.7752 173.95 47.7932 174.073 47.8362C174.348 47.912 174.581 48.0918 174.721 48.3362C174.804 48.4705 174.856 48.6213 174.873 48.7776C174.89 48.934 174.871 49.0921 174.819 49.2406C174.203 50.73 173.619 52.294 173.025 53.858V53.9112C172.609 54.821 172.272 55.7642 172.02 56.7306L172.074 56.805L172.009 57.0391C171.76 58.0073 171.955 58.2094 171.955 58.2094C171.955 58.2094 172.247 58.2945 172.884 58.0285C173.006 57.9211 173.151 57.8423 173.308 57.7981C173.466 57.7539 173.631 57.7454 173.792 57.7732C173.99 57.803 174.176 57.8865 174.328 58.0142C174.481 58.142 174.595 58.309 174.656 58.4967C174.721 58.6768 174.734 58.8706 174.696 59.0578C174.658 59.245 174.57 59.4187 174.44 59.5606C173.922 60.1131 173.204 60.442 172.441 60.4756Z" fill="#010101"/>
<path d="M411.092 182.89C410.778 182.89 410.519 182.71 410.519 182.497L410.152 164.463C409.825 161.391 409.338 158.337 408.693 155.314C408.693 155.09 408.866 154.888 409.179 154.856C409.493 154.824 409.784 154.984 409.828 155.197C410.482 158.254 410.973 161.344 411.297 164.453L411.665 182.486C411.665 182.699 411.416 182.88 411.103 182.89H411.092Z" fill="#231F20" stroke="#231F20" stroke-miterlimit="10"/>
<path d="M218.086 164.931C217.865 164.999 217.673 165.134 217.536 165.317C217.399 165.499 217.325 165.72 217.325 165.947C217.325 166.175 217.399 166.396 217.536 166.578C217.673 166.761 217.865 166.896 218.086 166.963C218.306 166.896 218.498 166.761 218.635 166.578C218.772 166.396 218.846 166.175 218.846 165.947C218.846 165.72 218.772 165.499 218.635 165.317C218.498 165.134 218.306 164.999 218.086 164.931Z" fill="#231F20"/>
<path d="M218.723 164.74C217.354 158.45 216.408 152.077 215.892 145.664C215.784 144.366 213.731 144.355 213.828 145.664C214.364 152.259 215.335 158.812 216.735 165.283C217.005 166.559 218.994 166.017 218.723 164.74Z" fill="#231F20"/>
<path d="M130.459 142.61V156.814C130.527 157.03 130.664 157.22 130.85 157.355C131.036 157.489 131.26 157.562 131.491 157.562C131.722 157.562 131.946 157.489 132.132 157.355C132.317 157.22 132.455 157.03 132.523 156.814V142.61C132.455 142.393 132.317 142.204 132.132 142.069C131.946 141.935 131.722 141.862 131.491 141.862C131.26 141.862 131.036 141.935 130.85 142.069C130.664 142.204 130.527 142.393 130.459 142.61Z" fill="#231F20"/>
<path d="M412.064 104.001L409.903 103.873C409.766 103.861 409.629 103.883 409.503 103.937C409.363 103.878 409.212 103.849 409.06 103.852H409.006C408.785 103.919 408.593 104.054 408.456 104.237C408.319 104.42 408.246 104.641 408.246 104.868C408.246 105.095 408.319 105.316 408.456 105.499C408.593 105.681 408.785 105.816 409.006 105.884H409.135C409.28 105.886 409.424 105.857 409.557 105.799C409.689 105.858 409.833 105.891 409.978 105.894L412.139 106.033C412.417 106.033 412.684 105.928 412.885 105.74C413.086 105.552 413.206 105.295 413.22 105.022C413.215 104.879 413.18 104.739 413.119 104.61C413.057 104.481 412.97 104.365 412.862 104.27C412.754 104.175 412.628 104.102 412.491 104.055C412.354 104.009 412.208 103.99 412.064 104.001Z" fill="#231F20"/>
<path d="M439.36 119.661C439.36 119.661 463.068 117.119 453.408 87.7438C443.747 58.3689 414.095 65.2737 414.095 65.2737C414.095 65.2737 392.148 74.1362 389.49 92.7655C386.832 111.395 402.749 116.523 402.749 116.523L439.36 119.661Z" fill="white" stroke="#231F20" stroke-width="2" stroke-miterlimit="10"/>
<path d="M429.02 66.7632C429.02 66.7632 435.828 55.4324 433.202 52.5918C430.576 49.7511 427.291 46.4423 420.656 47.6233C414.021 48.8042 412.627 55.3154 413.265 57.4858C414.327 60.9878 415.811 64.3523 417.684 67.508C419.813 71.0189 429.02 66.7632 429.02 66.7632Z" fill="white" stroke="#231F20" stroke-width="2" stroke-miterlimit="10"/>
<path d="M441.856 143.791L431.958 155.494L428.802 159.208L400.836 192.189L402.522 146.185C404.366 146.066 406.095 145.259 407.356 143.929C408.617 142.598 409.315 140.845 409.308 139.025V123.577L429.17 124.29L429.98 129.609C429.98 129.907 430.067 130.216 430.121 130.514C430.121 130.514 430.121 130.599 430.121 130.641C430.283 131.705 430.369 132.865 430.488 134.12C430.488 134.376 430.488 134.642 430.564 134.897C431.018 139.44 432.012 144.398 437.426 144.068L441.856 143.791Z" fill="white" stroke="#231F20" stroke-width="2" stroke-miterlimit="10"/>
<path d="M396.158 104.969C396.158 108.161 398.978 111.299 401.301 111.299C403.625 111.299 405.516 108.693 405.516 105.469C405.516 102.245 402.425 99.6387 400.113 99.6387C397.8 99.6387 396.158 101.745 396.158 104.969Z" fill="white" stroke="#231F20" stroke-width="2" stroke-miterlimit="10"/>
<path d="M402.198 106.533C400.836 120.64 408.584 132.918 419.487 133.95C430.391 134.982 440.343 124.375 441.694 110.267C442.353 103.405 433.795 107.075 431.244 96.3509C430.618 93.7443 427.127 83.1157 424.393 82.8604C413.49 81.8284 403.602 92.3931 402.198 106.533Z" fill="white" stroke="#231F20" stroke-width="2" stroke-miterlimit="10"/>
<path d="M411.987 106.054C411.987 107.746 412.765 109.108 413.727 109.108C414.689 109.108 415.467 107.746 415.467 106.054C415.467 104.362 414.689 103.011 413.727 103.011C412.765 103.011 411.987 104.373 411.987 106.054Z" fill="#010101"/>
<path d="M431.364 110.597C432.325 110.597 433.104 109.235 433.104 107.554C433.104 105.874 432.325 104.511 431.364 104.511C430.403 104.511 429.625 105.874 429.625 107.554C429.625 109.235 430.403 110.597 431.364 110.597Z" fill="#010101"/>
<path d="M416.636 99.1383C416.492 99.1542 416.347 99.1542 416.204 99.1383C414.058 98.7472 411.844 98.9763 409.828 99.7979C409.525 99.9628 409.175 100.022 408.833 99.966C408.492 99.91 408.18 99.742 407.948 99.4894C407.866 99.3612 407.813 99.2173 407.793 99.0673C407.772 98.9174 407.784 98.7648 407.828 98.6198C407.872 98.4748 407.947 98.3407 408.048 98.2265C408.148 98.1122 408.273 98.0205 408.412 97.9573C411.049 96.8009 413.979 96.4524 416.82 96.9572C416.978 96.9616 417.134 97.0002 417.276 97.0705C417.417 97.1407 417.542 97.2409 417.64 97.3638C417.738 97.4867 417.807 97.6293 417.843 97.7815C417.878 97.9338 417.879 98.0919 417.846 98.2446C417.756 98.4939 417.592 98.7116 417.377 98.8705C417.162 99.0294 416.904 99.1225 416.636 99.1383Z" fill="#010101"/>
<path d="M431.094 96.6489C430.394 96.6026 429.692 96.6276 428.997 96.7234C428.845 96.7414 428.698 96.7913 428.566 96.8697C428.435 96.9481 428.322 97.0533 428.235 97.1782C428.148 97.3031 428.089 97.4448 428.062 97.5938C428.035 97.7429 428.041 97.8959 428.079 98.0426C428.223 98.3534 428.467 98.608 428.775 98.766C429.082 98.9241 429.434 98.9765 429.775 98.915C430.521 98.8127 431.277 98.8127 432.023 98.915C431.677 98.6528 431.409 98.3046 431.246 97.9062C431.082 97.5079 431.03 97.0739 431.094 96.6489Z" fill="#010101"/>
<path d="M442.04 110.48C442.179 110.56 442.281 110.691 442.323 110.844C442.366 110.997 442.346 111.16 442.267 111.299C442.207 111.401 442.118 111.482 442.011 111.534C441.904 111.586 441.783 111.605 441.665 111.59C441.547 111.575 441.436 111.526 441.346 111.448C441.256 111.371 441.191 111.27 441.16 111.156C441.129 111.043 441.132 110.923 441.17 110.812C441.207 110.7 441.277 110.602 441.371 110.53C441.465 110.458 441.579 110.414 441.698 110.405C441.817 110.397 441.936 110.422 442.04 110.48Z" fill="#0B0709"/>
<path d="M456.197 279.739L439.62 286.836L430.068 276.877L450.902 261.972L459.774 278.346L456.197 279.739Z" fill="white" stroke="#231F20" stroke-width="2" stroke-miterlimit="10"/>
<path d="M454.748 327.648H358.844C359.06 325.804 359.298 323.91 359.557 321.966C359.849 319.721 360.173 317.402 360.541 315.03C360.746 313.625 360.973 312.21 361.2 310.774C362.281 304.39 363.512 297.528 365.058 290.453C365.155 289.996 365.252 289.538 365.36 289.081C365.468 288.58 365.576 288.091 365.695 287.602C365.695 287.602 365.695 287.517 365.695 287.485C366.192 285.357 366.7 283.154 367.251 280.963C367.565 279.665 367.9 278.367 368.235 277.069C369.618 271.749 371.152 266.43 372.87 261.036C373.173 260.078 373.486 259.12 373.8 258.163C374.135 257.899 374.497 257.671 374.88 257.482C376.566 256.567 380.586 254.971 389.026 254.163C394.26 253.706 399.517 253.557 404.77 253.716C411.934 253.886 420.676 254.503 431.342 255.79C431.342 255.79 431.926 257.812 432.93 261.046C433.849 263.983 435.092 267.908 436.572 272.217C437.934 276.186 439.468 280.484 441.089 284.623C441.262 285.08 441.446 285.538 441.629 285.995C443.441 290.739 445.608 295.345 448.113 299.773C451.225 304.944 453.386 316.104 454.748 327.648Z" fill="#010101"/>
<path d="M373.822 227.799C374.07 225.405 375.389 209.393 375.389 209.393C375.389 209.393 376.232 186.678 375.389 178.794C374.881 173.837 378.371 164.08 381.04 157.516C381.494 156.378 381.937 155.388 382.326 154.431L387.524 152.303L405.3 145.015C405.3 145.015 401.755 171.464 403.69 185.806C403.69 185.806 431.991 156.484 437.772 143.1C437.772 143.1 457.072 146.6 461.902 145.972C466.732 145.345 477.668 148.196 482.163 181.667C486.659 215.138 501.139 232.65 501.787 238.715C502.435 244.779 505.645 251.482 497.918 259.11C490.192 266.738 477.376 278.58 475.777 280.793C474.178 283.006 458.412 286.836 458.412 286.836L442.04 257.386C441.913 257.162 441.835 256.914 441.811 256.658C441.787 256.402 441.818 256.144 441.901 255.9C441.985 255.657 442.119 255.433 442.296 255.244C442.472 255.054 442.687 254.904 442.927 254.801C445.682 253.62 450.61 251.503 451.971 250.822C453.905 249.854 466.278 243.47 466.278 243.47C466.278 243.47 456.553 230.395 455.353 216.532C454.813 210.34 454.565 205.435 454.457 201.903C454.305 213.787 452.771 238.629 442.97 251.428L437.815 261.004H372.893C372.708 259.748 372.708 258.472 372.893 257.216C373.476 254.046 373.584 230.193 373.822 227.799Z" fill="#E1251B" stroke="#231F20" stroke-width="2" stroke-miterlimit="10"/>
<path d="M414.733 119.672C415.176 122.46 418.321 124.438 421.963 124.151C425.129 123.896 427.647 122.023 428.241 119.672H414.733Z" fill="white" stroke="#231F20" stroke-width="2" stroke-linejoin="round"/>
<path d="M422.536 115.257C422.424 115.124 422.345 114.968 422.304 114.8C422.262 114.632 422.26 114.457 422.298 114.289C422.337 114.123 422.417 113.968 422.53 113.838C422.643 113.709 422.785 113.608 422.946 113.544C423.076 113.507 423.213 113.504 423.344 113.536C423.475 113.568 423.595 113.633 423.692 113.725C424.232 113.927 424.427 113.863 424.459 113.831C424.492 113.799 424.6 113.619 424.34 112.767L424.275 112.555V112.48C424.015 111.595 423.686 110.731 423.292 109.895C422.719 108.469 422.147 107.043 421.563 105.639C421.461 105.361 421.461 105.056 421.563 104.777C421.662 104.558 421.833 104.378 422.049 104.267C422.151 104.211 422.265 104.179 422.382 104.175C422.498 104.171 422.614 104.195 422.72 104.244C422.826 104.292 422.918 104.365 422.989 104.456C423.06 104.547 423.109 104.654 423.13 104.767C423.519 105.703 423.876 106.618 424.211 107.533C424.546 108.448 424.935 109.342 425.291 110.278C425.367 110.48 425.475 110.703 425.572 110.937C426.158 111.954 426.404 113.127 426.275 114.289C426.191 114.781 425.934 115.229 425.549 115.554C425.163 115.879 424.675 116.06 424.167 116.066C423.852 116.056 423.542 115.979 423.26 115.839C422.979 115.7 422.731 115.501 422.536 115.257Z" fill="#010101"/>
<path d="M362.313 319.221L366.063 318.008C366.199 317.781 366.267 317.52 366.257 317.256C366.247 316.992 366.161 316.736 366.009 316.519C365.49 315.678 364.269 315.7 363.664 315.764C363.041 315.885 362.43 316.06 361.838 316.285C360.983 315.331 359.98 314.516 358.866 313.87C359.08 312.739 358.975 311.573 358.563 310.497C359.513 309.443 360.006 308.064 359.936 306.656L360.325 305.954C360.519 306.039 360.898 306.21 361.146 306.348C361.395 306.486 361.514 307.646 361.384 308.316C361.173 309.629 361.148 310.965 361.308 312.285C361.389 312.869 361.696 313.4 362.166 313.767C362.635 314.133 363.23 314.308 363.826 314.253C365.209 314.253 365.252 312.87 365.523 311.678C365.734 310.201 365.756 308.703 365.587 307.22C365.49 305.092 366.052 304.028 366.463 301.975C366.71 300.775 366.797 299.548 366.722 298.326C366.501 296.877 366.139 295.451 365.641 294.07C365.874 293.007 365.799 291.901 365.425 290.878C364.723 289.346 367.014 278.111 367.014 278.111L355.451 279.409L356.532 292.081C356.532 292.081 352.912 299.581 351.723 302.954C350.535 306.327 349.649 308.103 349.821 309.784C349.821 309.784 351.572 316.53 353.377 318.019C355.181 319.509 359.342 322.222 360.541 322.275C362.125 322.262 363.706 322.145 365.274 321.924C365.737 321.898 366.189 321.778 366.603 321.573C366.603 321.573 367.165 321.573 366.733 320.434C366.301 319.296 365.166 319.604 362.313 319.221Z" fill="white" stroke="#231F20" stroke-width="2" stroke-miterlimit="10"/>
<path d="M382.37 154.42C382.37 154.42 372.375 159.835 370.927 167.474C369.479 175.113 364.659 185.912 362.001 190.402C359.343 194.891 355.971 204.116 355.517 207.265C355.064 210.414 348.277 255.588 350.212 266.376C352.146 277.164 350.644 285.527 354.361 287.059C358.079 288.591 369.987 287.059 369.987 287.059L374.309 261.184C377.994 238.959 378.632 210.914 379.874 203.498C381.154 196.018 383.712 188.806 387.439 182.167" fill="#E1251B"/>
<path d="M382.37 154.42C382.37 154.42 372.375 159.835 370.927 167.474C369.479 175.113 364.659 185.912 362.001 190.402C359.343 194.891 355.971 204.116 355.517 207.265C355.064 210.414 348.277 255.588 350.212 266.376C352.146 277.164 350.644 285.527 354.361 287.059C358.079 288.591 369.987 287.059 369.987 287.059L374.309 261.184C377.994 238.959 378.632 210.914 379.874 203.498C381.154 196.018 383.712 188.806 387.439 182.167" stroke="#231F20" stroke-width="2" stroke-miterlimit="10"/>
<path d="M555.082 320.243L558.821 319.03C558.965 318.805 559.042 318.545 559.042 318.28C559.042 318.014 558.965 317.754 558.821 317.53C558.313 316.689 557.081 316.71 556.487 316.774C555.861 316.897 555.246 317.071 554.65 317.296C553.795 316.341 552.792 315.526 551.678 314.88C551.899 313.754 551.794 312.589 551.376 311.518C551.851 310.997 552.217 310.388 552.452 309.728C552.688 309.067 552.788 308.366 552.748 307.667C552.748 307.667 552.91 307.39 553.137 306.965C553.419 307.082 553.694 307.217 553.958 307.369C554.304 307.561 554.337 308.657 554.196 309.327C553.997 310.641 553.971 311.975 554.12 313.295C554.204 313.881 554.513 314.413 554.984 314.782C555.454 315.15 556.05 315.326 556.649 315.274C558.032 315.221 558.076 313.88 558.346 312.689C558.558 311.211 558.576 309.713 558.4 308.231C558.302 306.103 558.864 305.039 559.275 302.986C559.529 301.787 559.62 300.559 559.545 299.337C559.328 297.887 558.966 296.461 558.465 295.081C558.701 294.019 558.63 292.913 558.259 291.889C557.557 290.346 559.837 279.122 559.837 279.122L548.285 280.42L549.366 293.091C549.366 293.091 545.757 300.603 544.557 303.975C543.358 307.348 542.493 309.125 542.655 310.795C542.655 310.795 544.417 317.54 546.21 319.03C548.004 320.519 552.175 323.232 553.375 323.285C554.959 323.266 556.54 323.145 558.108 322.924C558.573 322.898 559.028 322.782 559.448 322.583C559.448 322.583 559.999 322.583 559.578 321.445C559.156 320.306 557.924 320.615 555.082 320.243Z" fill="white" stroke="#231F20" stroke-width="2" stroke-miterlimit="10"/>
<path d="M564.754 201.977L560.669 286.027C560.669 286.027 548.782 289.559 545.043 288.059C541.304 286.559 542.817 278.175 540.883 267.387C538.949 256.599 545.713 211.414 546.189 208.265C546.664 205.116 550.057 195.902 552.672 191.413C555.287 186.923 560.669 176.198 561.598 168.485C563.046 156.463 579.968 153.122 579.968 153.122" fill="white"/>
<path d="M564.754 201.977L560.669 286.027C560.669 286.027 548.782 289.559 545.043 288.059C541.304 286.559 542.817 278.175 540.883 267.387C538.949 256.599 545.713 211.414 546.189 208.265C546.664 205.116 550.057 195.902 552.672 191.413C555.287 186.923 560.669 176.198 561.598 168.485C563.046 156.463 579.968 153.122 579.968 153.122" stroke="#231F20" stroke-width="2" stroke-miterlimit="10"/>
<path d="M660.506 191.668C660.312 190.997 644.794 151.845 644.6 151.186C644.6 151.186 640.072 145.93 619.487 147.994C615.715 188.476 581.233 221.777 617.941 279.526C618.428 280.293 633.632 281.101 639.813 279.122C640.677 278.846 641.477 274.281 642.331 274.037C645.075 273.249 644.892 267.557 646.221 264.004C647.388 260.812 649.981 259.312 651.483 256.45C652.436 254.26 653.139 251.973 653.58 249.63C655.817 240.97 660.398 233.757 662.484 225.022C665.11 214.095 663.435 202.254 660.506 191.668Z" fill="white" stroke="#231F20" stroke-width="2" stroke-miterlimit="10"/>
<path d="M639.175 315.189L635.263 313.338C635.148 313.093 635.116 312.819 635.17 312.555C635.225 312.291 635.363 312.051 635.566 311.87C636.268 311.136 637.608 311.37 638.256 311.54C638.923 311.763 639.57 312.041 640.191 312.37C641.296 311.566 642.521 310.934 643.821 310.497C643.776 309.344 644.089 308.205 644.718 307.231C644.295 306.656 644 306 643.851 305.305C643.702 304.611 643.703 303.893 643.854 303.199L643.541 302.433C643.303 302.486 642.86 302.592 642.568 302.677C642.276 302.763 641.941 303.901 641.984 304.571C641.992 305.905 641.795 307.232 641.401 308.508C641.17 309.095 640.722 309.576 640.148 309.854C639.573 310.132 638.913 310.187 638.3 310.008C636.787 309.721 636.96 308.391 636.862 307.167C636.874 305.675 637.103 304.191 637.543 302.763C638.008 300.635 637.543 299.507 637.446 297.443C637.378 296.218 637.487 294.989 637.77 293.794C638.246 292.393 638.868 291.045 639.629 289.772C639.539 288.674 639.804 287.575 640.385 286.634C641.466 285.24 640.774 273.792 640.774 273.792L653.223 277.09L649.981 289.4C649.981 289.4 652.704 297.443 653.46 300.975C654.217 304.507 654.876 306.422 654.422 308.04C654.422 308.04 651.364 314.423 649.138 315.54C646.912 316.657 641.887 318.647 640.493 318.53C638.756 318.237 637.039 317.842 635.35 317.349C634.847 317.242 634.367 317.047 633.934 316.774C633.934 316.774 633.329 316.679 633.934 315.625C634.539 314.572 635.933 315.062 639.175 315.189Z" fill="white" stroke="#231F20" stroke-width="2" stroke-miterlimit="10"/>
<path d="M641.585 150.324C641.585 150.324 667.465 157.878 667.519 173.656C667.595 190.519 673.171 214.638 673.182 217.83C673.192 221.021 667.444 255.226 663.521 265.536C659.598 275.845 659.858 284.389 655.514 285.208C651.17 286.027 638.332 282.474 638.332 282.474L651.062 220.34L646.599 187.306" fill="white"/>
<path d="M641.585 150.324C641.585 150.324 667.465 157.878 667.519 173.656C667.595 190.519 673.171 214.638 673.182 217.83C673.192 221.021 667.444 255.226 663.521 265.536C659.598 275.845 659.858 284.389 655.514 285.208C651.17 286.027 638.332 282.474 638.332 282.474L651.062 220.34L646.599 187.306" stroke="#231F20" stroke-width="2" stroke-miterlimit="10"/>
<path d="M596.891 75.8174C590.256 88.1164 606.26 92.5317 612.322 99.2237C618.946 106.501 620.437 120.864 620.081 130.429C619.108 156.527 612.657 177.443 631.265 201.318C627.407 186.816 633.275 175.784 638.159 162.57C643.562 148.1 643.443 133.259 641.595 118.215C640.191 106.895 639.737 88.5632 630.519 80.0093C625.235 75.0514 601.116 67.9763 596.891 75.8174Z" fill="white" stroke="#231F20" stroke-width="2" stroke-linejoin="round"/>
<g style="mix-blend-mode:multiply" opacity="0.15">
<path d="M69.2642 56.22C69.2642 56.22 80.1674 56.071 84.2953 68.487C85.1382 71.0085 88.1423 73.3066 89.104 78.5836C90.4116 85.7651 87.3859 88.8717 88.272 97.8193C89.0068 105.267 75.1967 112.608 75.1967 112.608C76.8246 121.129 77.5489 129.793 77.3579 138.461C77.3579 149.324 111.213 145.632 119.62 153.909C128.027 162.187 131.442 214.372 131.442 216.542C131.442 218.713 140.714 247.694 140.714 259.099C140.714 270.505 133.009 282.708 133.009 282.708L139.017 285.41L145.76 271.345V266.994L146.571 255.29L143.739 243.109L137.774 218.819V198.179L135.505 177.507L131.961 161.548L126.677 148.781L120.193 141.557L106.253 136.695L99.8561 135.631L100.504 114.576L99.2293 78.4027L96.3657 59.6352L90.0226 46.6447L82.199 43.3146L69.7612 43.3891L71.5767 49.6236L69.2642 56.22Z" fill="#010101"/>
</g>
<g style="mix-blend-mode:multiply" opacity="0.15">
<path d="M97.0034 169.677H103.076C103.076 169.677 103.314 204.371 105.378 218.819C106.616 227.407 107.306 236.063 107.442 244.736L102.223 243.47L97.0034 169.677Z" fill="#010101"/>
</g>
<g style="mix-blend-mode:multiply" opacity="0.15">
<path d="M34.189 181.848H39.7865C38.4678 186.938 38.2908 192.249 39.2678 197.413C43.4497 217.628 43.8063 246.832 43.8063 246.832L38.9976 246.737L34.189 181.848Z" fill="#010101"/>
</g>
<g style="mix-blend-mode:multiply" opacity="0.15">
<path d="M102.223 245.502C102.039 265.717 107.258 284.697 109.138 304.646L111.224 326.701L124.018 326.062L119.469 302.965L124.018 300.209L129.929 296.177L132.836 290.644L133.063 282.707L109.754 275.111L108.814 260.823L108.695 244.864L102.223 245.502Z" fill="#010101"/>
</g>
<g style="mix-blend-mode:multiply" opacity="0.15">
<path d="M51.1537 106.405L56.8917 112.065V124.769H51.1537L50.0407 128.418L48.128 132.439L46.9285 118.342L44.562 107.554L45.0699 95.8086L51.1537 106.405Z" fill="#010101"/>
</g>
<g style="mix-blend-mode:multiply" opacity="0.15">
<path d="M37.2026 171.847C43.7067 166.675 48.4314 159.653 50.7318 151.739C54.1789 138.972 56.8912 124.768 56.8912 124.768H54.1573L50.7318 126.524L48.9704 130.694L48.3437 141.663L47.0469 149.739L44.5616 157.824L41.2117 163.091L37.2026 171.847Z" fill="#010101"/>
</g>
<g style="mix-blend-mode:multiply" opacity="0.15">
<path d="M189.093 5.35362C189.093 5.35362 196.031 17.8334 195.058 25.0149C194.086 32.1964 190.844 51.6662 187.353 60.0179C183.863 68.3697 179.66 76.7215 179.66 76.7215L179.919 110.533L178.773 241.14L187.959 240.98L188.391 88.7545L185.949 74.9235L194.14 61.8585L197.976 53.0918L198.408 51.8364L200.472 47.5807L198.775 41.8355L203.098 36.1967L200.829 30.0792L205.486 20.3762L203.325 15.6098L199.888 12.3436L197.868 8.34324L192.032 2.85339H189.05L189.093 5.35362Z" fill="#010101"/>
</g>
<path d="M224.721 130.364C224.721 130.364 222.192 114.693 228.405 106.65C234.619 98.6064 232.663 91.7547 232.663 87.9672C232.663 84.1796 233.808 72.4446 239.147 68.1463C244.485 63.8481 246.776 54.3153 264.271 57.8156C264.271 57.8156 268.788 55.2409 280.361 56.6879C291.934 58.1348 296.71 73.0829 297.272 76.2534C297.834 79.4239 298.99 86.0096 301.811 89.2013C304.631 92.3931 307.441 99.5533 305.463 106.735C303.486 113.916 303.388 115.363 306.101 121.97C308.813 128.577 307.408 130.481 307.408 130.481C307.408 130.481 274.374 143.781 224.721 130.364Z" fill="white" stroke="#231F20" stroke-width="2" stroke-miterlimit="10"/>
<path d="M281.571 142.493L266.95 162.772L254.015 142.461L256.846 123.534L257.041 122.268L257.43 119.619L278.21 119.64L278.653 122.619L279.453 128.088L281.571 142.493Z" fill="white" stroke="#231F20" stroke-width="2" stroke-miterlimit="10"/>
<path d="M250.601 100.681C251.812 103.926 250.763 107.352 248.246 108.32C245.728 109.288 242.713 107.448 241.503 104.203C240.292 100.958 241.351 97.5427 243.858 96.5639C246.365 95.5851 249.391 97.4363 250.601 100.681Z" fill="white" stroke="#231F20" stroke-width="2" stroke-miterlimit="10"/>
<path d="M286.369 100.724C285.148 103.915 286.196 107.384 288.714 108.363C291.231 109.341 294.246 107.501 295.457 104.256C296.667 101.011 295.629 97.5957 293.112 96.6169C290.594 95.6381 287.579 97.4787 286.369 100.724Z" fill="white" stroke="#231F20" stroke-width="2" stroke-miterlimit="10"/>
<path d="M290.409 95.2444C290.409 112.533 279.852 126.534 266.874 126.524C255.841 126.524 245.845 107.735 243.338 94.0635C243.338 94.0635 256.208 89.8078 258.737 84.818C262.627 77.1578 265.988 70.0401 265.988 70.0401C266.636 69.9656 271.866 79.2643 276.156 86.6267C279.247 91.925 290.42 88.0098 290.409 95.2444Z" fill="white" stroke="#231F20" stroke-width="2" stroke-miterlimit="10"/>
<path d="M261.137 86.5416C260.174 86.0672 259.142 85.7442 258.079 85.5841C258.02 86.1414 257.759 86.6591 257.344 87.0417C256.998 87.3715 256.631 87.6907 256.263 87.9886C257.542 88.0051 258.802 88.2918 259.959 88.8291C260.107 88.9079 260.269 88.9567 260.436 88.9726C260.603 88.9885 260.772 88.9711 260.932 88.9215C261.093 88.8718 261.241 88.791 261.369 88.6837C261.497 88.5765 261.602 88.445 261.677 88.2971C261.836 87.9926 261.868 87.6393 261.767 87.3118C261.667 86.9842 261.44 86.7081 261.137 86.5416Z" fill="#1A1A1A"/>
<path d="M276.405 85.5735C275.145 85.7663 273.917 86.1241 272.753 86.6374C272.44 86.7793 272.196 87.0348 272.071 87.3502C271.946 87.6657 271.95 88.0165 272.083 88.329C272.174 88.5619 272.334 88.7624 272.542 88.9047C272.75 89.047 272.996 89.1244 273.25 89.127C273.421 89.1223 273.589 89.0863 273.747 89.0206C275.022 88.4641 276.386 88.1328 277.778 88.0418C277.339 87.796 276.978 87.435 276.736 86.9992C276.494 86.5633 276.379 86.0697 276.405 85.5735Z" fill="#1A1A1A"/>
<path d="M257.451 95.819C257.348 96.2044 257.137 96.5535 256.842 96.8265C256.547 97.0996 256.18 97.2855 255.783 97.3633C255.386 97.441 254.975 97.4074 254.596 97.2662C254.217 97.125 253.887 96.882 253.642 96.5648C253.396 96.2476 253.247 95.869 253.209 95.4721C253.172 95.0752 253.249 94.676 253.431 94.32C253.613 93.9639 253.893 93.6653 254.238 93.4582C254.584 93.2511 254.982 93.1438 255.387 93.1486C256.016 93.2435 256.582 93.5751 256.967 94.0732C257.352 94.5714 257.526 95.1973 257.451 95.819Z" fill="#1A1A1A"/>
<path d="M280.306 95.8402C280.202 96.2252 279.992 96.5739 279.697 96.8468C279.403 97.1197 279.037 97.3058 278.64 97.384C278.244 97.4621 277.833 97.4292 277.454 97.2889C277.076 97.1486 276.745 96.9066 276.499 96.5903C276.254 96.2741 276.103 95.8964 276.064 95.5C276.026 95.1037 276.101 94.7047 276.282 94.3484C276.462 93.992 276.74 93.6927 277.085 93.4843C277.429 93.276 277.827 93.167 278.231 93.1697C278.861 93.2622 279.43 93.5927 279.818 94.0911C280.205 94.5896 280.38 95.2169 280.306 95.8402Z" fill="#1A1A1A"/>
<path d="M266.874 116.863C265.628 116.848 264.393 116.625 263.222 116.204C263.186 116.192 263.153 116.173 263.124 116.148C263.096 116.123 263.073 116.093 263.057 116.059C263.041 116.025 263.032 115.989 263.03 115.951C263.029 115.914 263.035 115.877 263.049 115.842C263.076 115.772 263.129 115.715 263.198 115.684C263.266 115.652 263.345 115.648 263.416 115.672C267.025 116.98 270.872 116.182 272.774 113.725C272.823 113.669 272.89 113.633 272.964 113.623C273.038 113.613 273.112 113.631 273.174 113.672C273.234 113.72 273.272 113.788 273.282 113.863C273.292 113.938 273.273 114.014 273.228 114.076C272.456 114.988 271.482 115.714 270.381 116.198C269.279 116.681 268.079 116.909 266.874 116.863Z" fill="#1A1A1A" stroke="#1A1A1A" stroke-miterlimit="10"/>
<path d="M289.136 116.587H288.952C288.251 116.566 287.566 116.369 286.964 116.013C286.363 115.657 285.864 115.155 285.516 114.555C285.501 114.531 285.49 114.505 285.486 114.477C285.482 114.45 285.483 114.422 285.49 114.395C285.497 114.368 285.51 114.342 285.527 114.321C285.545 114.299 285.567 114.28 285.592 114.267C285.64 114.24 285.698 114.232 285.753 114.246C285.807 114.26 285.854 114.294 285.883 114.342C286.196 114.881 286.644 115.332 287.186 115.651C287.727 115.97 288.343 116.145 288.974 116.161C289.646 116.192 290.316 116.055 290.921 115.763C291.525 115.471 292.045 115.033 292.432 114.491C293.009 113.64 293.352 112.657 293.427 111.637C293.503 110.617 293.309 109.595 292.864 108.671C292.6 108.114 292.178 107.644 291.649 107.318C291.12 106.991 290.506 106.822 289.882 106.83C289.824 106.83 289.769 106.808 289.729 106.768C289.688 106.728 289.665 106.674 289.665 106.618C289.665 106.561 289.688 106.507 289.729 106.467C289.769 106.427 289.824 106.405 289.882 106.405C290.591 106.404 291.287 106.605 291.884 106.982C292.482 107.359 292.957 107.897 293.253 108.533C293.727 109.525 293.933 110.621 293.852 111.715C293.771 112.809 293.404 113.864 292.788 114.778C292.37 115.344 291.82 115.804 291.185 116.118C290.55 116.433 289.847 116.593 289.136 116.587Z" fill="#1A1A1A" stroke="#1A1A1A" stroke-miterlimit="10"/>
<path d="M246.636 116.544C245.919 116.546 245.212 116.376 244.576 116.05C243.94 115.724 243.393 115.251 242.983 114.672C242.443 113.863 242.138 112.924 242.1 111.956C242.062 110.989 242.292 110.03 242.767 109.182C243.136 108.432 243.709 107.798 244.423 107.351C245.137 106.904 245.963 106.661 246.809 106.65C246.866 106.65 246.921 106.672 246.961 106.712C247.002 106.752 247.025 106.806 247.025 106.862C247.025 106.919 247.002 106.973 246.961 107.013C246.921 107.053 246.866 107.075 246.809 107.075C246.039 107.081 245.287 107.301 244.639 107.71C243.991 108.118 243.473 108.698 243.145 109.384C242.709 110.164 242.496 111.047 242.53 111.937C242.564 112.828 242.844 113.692 243.34 114.438C243.728 114.98 244.247 115.418 244.851 115.712C245.456 116.005 246.125 116.145 246.798 116.119C247.427 116.102 248.041 115.927 248.582 115.611C249.123 115.294 249.573 114.846 249.888 114.31C249.9 114.281 249.917 114.255 249.94 114.233C249.962 114.212 249.989 114.195 250.019 114.185C250.048 114.175 250.08 114.171 250.111 114.174C250.143 114.177 250.173 114.187 250.2 114.202C250.227 114.218 250.25 114.239 250.268 114.265C250.286 114.29 250.298 114.319 250.303 114.35C250.309 114.38 250.307 114.412 250.299 114.441C250.291 114.471 250.276 114.499 250.256 114.523C249.906 115.123 249.406 115.625 248.802 115.979C248.198 116.333 247.511 116.528 246.809 116.544H246.636Z" fill="#1A1A1A" stroke="#1A1A1A" stroke-miterlimit="10"/>
<path d="M312.066 296.773L311.071 284.772L311.061 284.58L309.796 269.441V269.43L309.591 266.983V266.972L309.559 266.557L309.245 262.759L306.987 235.672L268.939 235.629L230.091 235.597L229.497 242.523L228.589 253.205L227.638 264.312L227.4 267.142L227.26 268.738L226.774 274.515L222.332 326.605L314.551 326.701L312.066 296.773Z" fill="white" stroke="#231F20" stroke-width="2" stroke-miterlimit="10"/>
<path d="M333.796 273.951C332.415 268.26 331.368 262.494 330.662 256.684C330.489 254.28 332.013 234.778 330.533 224.915C329.052 215.053 326.599 211.701 324.578 206.031C322.558 200.36 318.732 185.263 318.884 181.124C319.219 171.836 318.797 158.261 310.379 152.175C306.327 149.238 300.427 147.792 295.726 146.249C291.318 144.791 286.271 142.674 281.57 142.493L267.447 163.261L254.069 142.461C248.666 142.717 224.893 154.622 220.257 158.005C219.838 158.318 219.453 158.675 219.112 159.069C213.925 163.91 192.939 183.593 190.735 186.923C188.682 189.997 185.883 192.37 183.571 195.211C181.258 198.051 180.145 201.158 178.351 204.084C174.148 210.903 171.63 222.234 174.504 230.065C177.422 238.15 185.321 243.715 192.723 247.726C200.698 251.981 202.222 253.397 208.586 257.216C214.951 261.035 216.626 261.77 220.095 265.429C222.17 267.621 227.108 268.621 230.08 269.621C231.398 270.047 232.997 268.557 233.386 267.259L235.818 259.152C243.382 253.035 254.328 244.098 259.591 244.726C267.836 245.704 265.21 247.534 268.538 247.268C271.867 247.002 273.142 244.417 274.158 244.545C275.173 244.672 278.631 245.332 280.295 246.502C281.959 247.673 288.346 245.864 292.69 249.769C295.208 251.981 302.026 257.301 307.429 261.365C307.537 263.812 307.699 265.717 307.721 266.951C307.721 268.94 309.18 272.919 309.342 277.377C309.504 281.835 306.975 285.048 316.798 286.25C326.621 287.453 328.339 285.942 331.008 284.772C333.677 283.601 334.563 276.345 333.796 273.951ZM208.64 222.245C205.993 219.947 215.567 215.074 217.545 213.393C218.204 212.84 219.609 211.616 221.132 210.318C221.835 217.01 222.57 223.873 223.294 230.373C217.826 227.703 211.709 224.926 208.64 222.245Z" fill="#E1251B" stroke="#231F20" stroke-width="2" stroke-miterlimit="10"/>
<path d="M310.963 284.463C310.963 284.463 316.971 286.229 318.16 286.485C318.16 286.485 316.582 298.188 312.357 300.199L311.514 293.017L310.963 284.463Z" fill="white" stroke="#231F20" stroke-width="2" stroke-miterlimit="10"/>
<path d="M222.537 230.288C226.752 238.065 234.759 242.534 240.421 249.109C241.102 249.896 242.248 248.768 241.567 247.981C235.991 241.512 228.081 237.129 223.942 229.49C223.445 228.575 222.051 229.384 222.537 230.288Z" fill="#231F20"/>
<g style="mix-blend-mode:multiply">
<path d="M223.241 230.905C222.16 224.926 221.015 198.073 220.366 192.508C219.969 188.976 219.782 185.423 219.804 181.869" fill="#231F20"/>
<path d="M224.018 230.703C222.754 222.947 222.667 214.925 222.181 207.095C221.673 198.7 220.679 190.263 220.614 181.858C220.614 181.647 220.529 181.444 220.377 181.294C220.225 181.145 220.019 181.061 219.804 181.061C219.589 181.061 219.383 181.145 219.231 181.294C219.079 181.444 218.993 181.647 218.993 181.858C219.069 190.678 220.074 199.552 220.646 208.361C221.1 215.915 221.23 223.639 222.462 231.129C222.624 232.139 224.18 231.714 224.018 230.703Z" fill="#231F20"/>
</g>
<path d="M307.429 268.792C302.966 270.238 299.044 269.579 293.879 269.855C282.759 270.526 243.857 272.356 235.331 272.515C231.484 272.59 231.668 272.068 228.037 271.856C228.534 265.94 235.515 253.099 241.599 246.439C248.677 238.704 258.608 236.161 268.149 235.108C277.691 234.055 288.195 231.788 296.105 239.363C304.015 246.939 307.429 248.79 307.429 261.365" fill="#E1251B"/>
<g style="mix-blend-mode:multiply">
<path d="M308.846 269.143C308.63 254.652 304.621 240.257 303.443 225.809C302.114 209.733 304.621 193.466 302.741 177.454C302.633 176.443 301.001 176.39 301.12 177.454C303 193.466 300.526 209.733 301.822 225.809C302.989 240.247 307.02 254.684 307.225 269.143C307.225 269.354 307.311 269.557 307.463 269.707C307.615 269.857 307.821 269.941 308.036 269.941C308.251 269.941 308.457 269.857 308.609 269.707C308.761 269.557 308.846 269.354 308.846 269.143Z" fill="#231F20"/>
</g>
<path d="M268.171 109.416C268.029 109.282 267.926 109.112 267.874 108.924C267.823 108.736 267.825 108.539 267.879 108.352C267.932 108.164 268.033 107.992 268.174 107.854C268.314 107.716 268.488 107.617 268.679 107.565C268.838 107.523 269.004 107.518 269.165 107.549C269.326 107.581 269.478 107.648 269.608 107.746C270.268 107.969 270.527 107.894 270.559 107.863C270.592 107.831 270.721 107.639 270.408 106.692L270.332 106.469V106.384C270.006 105.438 269.594 104.523 269.1 103.649C268.398 102.128 267.685 100.617 266.939 99.181C266.875 99.0367 266.842 98.881 266.842 98.7235C266.842 98.566 266.875 98.4102 266.939 98.266C267.067 98.0157 267.281 97.8192 267.544 97.7127C267.664 97.6611 267.793 97.634 267.923 97.633C268.054 97.632 268.183 97.6571 268.303 97.7069C268.424 97.7566 268.532 97.83 268.623 97.9224C268.714 98.0149 268.784 98.1245 268.83 98.2447C269.306 99.2448 269.749 100.213 270.203 101.181C270.657 102.149 271.089 103.096 271.564 104.096C271.662 104.309 271.78 104.543 271.91 104.788C272.652 105.825 272.986 107.091 272.85 108.352C272.725 108.787 272.484 109.181 272.154 109.495C271.824 109.809 271.416 110.031 270.97 110.139C270.479 110.258 269.966 110.253 269.477 110.127C268.989 110.001 268.54 109.756 268.171 109.416Z" fill="#010101"/>
<g style="mix-blend-mode:multiply" opacity="0.15">
<path d="M188.022 86.4885L203.951 88.6164L216.28 91.9677L232.003 100.181L228.405 103.937C228.405 103.937 213.525 98.6172 203.951 96.8618C194.376 95.1063 188.022 94.5637 188.022 94.5637V86.4885Z" fill="#010101"/>
</g>
<g style="mix-blend-mode:multiply" opacity="0.15">
<path d="M242.107 134.152V147.504L237.752 148.302V134.014L242.107 134.152Z" fill="#010101"/>
</g>
<g style="mix-blend-mode:multiply" opacity="0.15">
<path d="M215.892 145.664L219.08 145.132L221.522 154.856L216.994 159.08L215.892 145.664Z" fill="#010101"/>
</g>
<g style="mix-blend-mode:multiply" opacity="0.15">
<path d="M159.321 86.4885L162.704 89.1164L171.467 239.364L166.032 240.438L159.321 86.4885Z" fill="#010101"/>
</g>
<g style="mix-blend-mode:multiply" opacity="0.15">
<path d="M69.2645 56.2197C69.2645 56.2197 57.9938 69.1889 51.6291 81.1049C45.2643 93.0208 45.0698 95.787 45.0698 95.787L48.3116 79.0409L55.2167 66.6887L62.0245 59.986L69.2645 56.2197Z" fill="#010101"/>
</g>
<g style="mix-blend-mode:multiply" opacity="0.15">
<path d="M165.578 23.4403C163.093 26.1852 160.261 28.5897 158.208 31.6857C155.885 35.1966 153.594 39.3779 149.866 41.6227L155.863 28.5578L165.578 23.4403Z" fill="#010101"/>
</g>
<g style="mix-blend-mode:multiply" opacity="0.15">
<path d="M273.282 57.4114C273.282 57.4114 289.772 65.1355 293.868 79.0091C297.963 92.8826 301.918 94.3827 301.918 99.9683C301.918 105.554 298.298 113.991 300.113 123.098L301.918 132.195L307.407 130.45L308.693 126.364L304.976 116.789V113.342L305.462 106.692L307.775 98.4576L304.976 92.074L301.81 89.2014L298.568 82.2008L297.304 76.2641L294.678 68.9018L290.982 63.0609L285.99 58.1456L280.414 56.688L273.282 57.4114Z" fill="#010101"/>
</g>
<g style="mix-blend-mode:multiply" opacity="0.15">
<path d="M283.073 91.0847C283.073 91.0847 287.849 98.6067 281.571 109.118C277.853 115.307 274.644 121.778 271.975 128.471L274.871 150.324C274.871 150.324 304.177 150.218 307.775 166.964C311.374 183.71 314.118 198.796 318.16 214.34C321.868 228.705 323.795 243.459 323.898 258.28C323.898 270.845 325.497 288.442 325.497 288.442L330.997 284.772L334.066 278.101L333.796 273.952L331.97 265.345L330.662 256.684L331.203 239.215L330.565 224.915L328.177 214.968L323.12 201.275L320.289 190.274L318.884 181.124L318.581 169.677L318.16 159.037L310.38 152.133L295.727 146.207L281.571 142.451L280.587 135.801L279.453 128.045L278.642 122.577L285.882 114.3L289.664 106.575L293.252 108.437L295.413 104.182L295.921 98.4152L293.111 96.649L290.41 95.2766V90.9464L283.073 91.0847Z" fill="#010101"/>
</g>
<g style="mix-blend-mode:multiply" opacity="0.15">
<path d="M294.808 177.209L301.14 176.241L302.221 203.084L301.875 223.298L304.933 246.832L314.507 326.701L304.933 327.648C304.933 327.648 296.948 239.704 296.948 222.192C296.948 204.68 294.808 177.209 294.808 177.209Z" fill="#010101"/>
</g>
<g style="mix-blend-mode:multiply" opacity="0.15">
<path d="M269.479 75.1576L256.252 87.9885L265.988 70.0402L269.479 75.1576Z" fill="#010101"/>
</g>
<g style="mix-blend-mode:multiply" opacity="0.15">
<path d="M219.802 201.275C219.802 201.275 197.056 218.096 202.34 223.298C207.624 228.501 235.839 249.566 235.839 249.566L240.95 248.503L215.729 226.66L208.64 222.245L213.827 215.861L221.272 212.829L219.802 201.275Z" fill="#010101"/>
</g>
<g style="mix-blend-mode:multiply" opacity="0.15">
<path d="M245.099 246.981L259.752 259.163L259.028 264.398L246.979 273.632L239.923 261.972L245.099 246.981Z" fill="#010101"/>
</g>
<path d="M256.069 259.493L243.707 252.046L244.582 249.556C245.198 248.684 245.89 247.683 245.101 246.939C244.669 246.552 244.127 246.304 243.547 246.228C242.968 246.152 242.379 246.251 241.859 246.513L228.027 253.429L218.237 261.291C224.58 267.462 229.27 267.941 232.134 267.217C232.436 267.355 232.728 267.483 233.041 267.6L243.642 271.643C244.105 271.888 244.64 271.967 245.156 271.868C245.672 271.77 246.137 271.498 246.473 271.1C246.938 270.515 247.219 269.536 245.241 268.345L247.219 269.536C247.709 269.79 248.273 269.868 248.815 269.758C249.357 269.647 249.843 269.354 250.191 268.93C250.796 268.175 250.385 267.026 249.24 266.174L250.774 266.919C251.309 267.207 251.934 267.286 252.524 267.14C253.115 266.994 253.629 266.634 253.962 266.132C254.193 265.68 254.235 265.156 254.077 264.674C253.919 264.192 253.575 263.791 253.119 263.557L250.958 262.259L253.497 262.536C254.718 263.078 256.393 263.281 256.998 262.163C257.212 261.676 257.233 261.127 257.057 260.625C256.881 260.123 256.521 259.704 256.047 259.45L256.069 259.493Z" fill="white" stroke="#231F20" stroke-width="2" stroke-miterlimit="10"/>
<g style="mix-blend-mode:multiply" opacity="0.15">
<path d="M454.457 201.977L447.443 205.68C447.443 205.68 442.829 231.533 437.891 246.3C432.953 261.068 437.815 261.068 437.815 261.068L445.833 247.024L451.852 228.937L454.457 201.977Z" fill="#010101"/>
</g>
<g style="mix-blend-mode:multiply" opacity="0.15">
<path d="M409.514 143.1L407.98 181.295L403.733 185.806L403.301 168.804L404.533 152.101L405.343 145.015L409.514 143.1Z" fill="#010101"/>
</g>
<g style="mix-blend-mode:multiply" opacity="0.15">
<path d="M424.406 82.818C424.406 82.818 434.131 107.033 431.97 118.3C431.315 121.968 430.132 125.525 428.458 128.865C427.407 131.055 426.022 133.075 424.352 134.854C424.352 134.854 423.444 143.004 427.972 147.462C432.499 151.92 457.699 147.568 463.361 157.75C469.024 167.932 474.384 209.563 482.812 223.256C491.241 236.948 496.082 245.853 493.391 248.503C490.701 251.152 479.927 264.302 469.834 271.302C459.741 278.303 456.165 279.697 456.165 279.697L458.38 286.793L468.559 283.952L475.745 280.761L484.693 271.313L497.93 259.078L502.998 253.248L502.706 244.385L502.998 235.565L494.115 221.905L488.205 207.297L483.569 189.678L480.575 171.847L475.713 156.633L471.639 150.324L461.957 145.972L451.864 144.685H447.541L432.705 143.1L429.776 133.748L437.924 123.577L442.376 116.821L442.074 110.437L441.674 107.533L435.709 103.947L431.289 96.3298L424.406 82.818Z" fill="#010101"/>
</g>
<g style="mix-blend-mode:multiply" opacity="0.15">
<path d="M408.683 95.234L403.355 100.479C403.355 100.479 405.776 87.5737 413.081 85.2969C420.386 83.0201 408.683 95.234 408.683 95.234Z" fill="#010101"/>
</g>
<g style="mix-blend-mode:multiply" opacity="0.15">
<path d="M362.065 288.442L357.981 308.263H354.62L356.641 314.636L360.585 322.296L369.965 321.594V292.496L362.065 288.442Z" fill="#010101"/>
</g>
<path d="M307.429 268.6C301.043 270.345 294.592 269.802 288.054 270.004C281.516 270.207 275.314 271.366 268.787 271.068C262.433 270.664 256.057 270.739 249.714 271.292C242.82 272.005 236.11 272.76 229.291 271.058C229.061 271.067 228.841 271.148 228.662 271.289C228.482 271.43 228.353 271.624 228.293 271.842C228.232 272.06 228.244 272.291 228.327 272.502C228.409 272.713 228.558 272.893 228.751 273.015C234.802 274.526 240.81 274.239 246.97 273.611C254.219 272.905 261.511 272.731 268.787 273.09C275.606 273.398 282.165 272.153 288.951 272.026C295.435 271.898 301.702 272.271 307.97 270.558C308.163 270.435 308.311 270.256 308.394 270.045C308.476 269.834 308.488 269.602 308.428 269.384C308.367 269.166 308.238 268.972 308.059 268.831C307.879 268.69 307.659 268.609 307.429 268.6Z" fill="#231F20"/>
<g style="mix-blend-mode:multiply" opacity="0.15">
<path d="M430.174 131.162L435.534 126.524L441.856 143.791L437.404 144.068H435.21L432.022 142.461L430.174 136.344V131.162Z" fill="#010101"/>
</g>
<g style="mix-blend-mode:multiply" opacity="0.15">
<path d="M430.067 51.2407L426.382 66.7633C426.382 66.7633 445.206 76.3386 447.994 88.0418C450.782 99.7449 448.437 116.076 448.437 116.076L454.791 109.82L455.775 100.351L454.791 92.1592L450.717 81.2646L445.109 73.5724L438.107 68.4018L431.407 65.6781L429.062 66.8165L433.147 60.0606L435.308 54.6346L430.067 51.2407Z" fill="#010101"/>
</g>
<g style="mix-blend-mode:multiply" opacity="0.15">
<path d="M598.176 87.3502C598.176 87.3502 590.115 100.66 589.412 110.756C587.802 133.971 606.994 137.812 606.994 137.812L604.217 153.09L599.592 152.941L602.606 146.174V138.663L598.208 136.535L592.135 133.971L586.905 124.141L583.599 113.97L584.431 100.575L590.644 92.0634L595.755 85.5415L598.176 87.3502Z" fill="#010101"/>
</g>
<g style="mix-blend-mode:multiply" opacity="0.15">
<path d="M599.906 73.2427C599.906 73.2427 629.45 81.8712 633.772 98.713C638.095 115.555 638.657 139.663 633.697 154.665C628.737 169.666 626.446 194.168 626.446 194.168L631.319 201.275L630.066 192.179L631.147 182.891L638.224 162.527L641.65 150.324L642.806 138.046L642.19 123.098L640.256 106.352L637.014 90.9145L630.531 79.9667L621.151 75.1578L609.037 72.3171L599.906 73.2427Z" fill="#010101"/>
</g>
<g style="mix-blend-mode:multiply" opacity="0.15">
<path d="M642.039 153.664C642.039 153.664 660.571 163.41 661.987 173.304C663.402 183.199 668.211 205.435 668.211 217.83C668.211 230.224 651.332 284.293 651.332 284.293L655.525 285.208L657.513 283.995L660.841 274.42L665.164 260.312L669.573 240.353L673.193 221.128V217.83L670.567 201.977L668.006 182.933L667.53 170.73L664.289 164.495L658.464 158.761L651.527 154.505L641.563 150.409L642.039 153.664Z" fill="#010101"/>
</g>
<g style="mix-blend-mode:multiply" opacity="0.15">
<path d="M599.592 153.037L604.217 153.186C604.217 153.186 594.881 180.273 593.941 187.657C590.115 217.819 599.906 257.418 599.906 257.418L593.422 258.333L590.407 223.256L589.413 204.105L590.202 187.859L595.756 170.432L598.868 157.803L599.592 153.037Z" fill="#010101"/>
</g>
<g style="mix-blend-mode:multiply" opacity="0.15">
<path d="M568.935 202.828L566.979 281.133L559.814 279.112L564.656 202.977L568.935 202.828Z" fill="#010101"/>
</g>
<g style="mix-blend-mode:multiply" opacity="0.15">
<path d="M553.677 288.442L553.904 307.369L554.596 317.296L563.565 316.774L564.375 288.442L560.669 286.038L553.677 288.442Z" fill="#010101"/>
</g>
<g style="mix-blend-mode:multiply" opacity="0.15">
<path d="M645.756 285.027V290.644L648.62 301.667L647.183 313.114L645.086 317.296L652.51 312.21L655.774 306.699L653.45 298.198L649.971 289.4L650.868 286.038L645.756 285.027Z" fill="#010101"/>
</g>
<path d="M600.986 121.119C600.479 121.113 599.99 120.932 599.605 120.608C599.22 120.283 598.963 119.835 598.879 119.342C598.745 118.18 598.991 117.006 599.581 115.991C599.679 115.757 599.787 115.533 599.862 115.331C600.241 114.395 600.608 113.491 600.943 112.586C601.278 111.682 601.656 110.756 602.024 109.81C602.048 109.699 602.099 109.595 602.171 109.507C602.243 109.418 602.336 109.348 602.44 109.3C602.545 109.253 602.659 109.23 602.775 109.233C602.89 109.237 603.003 109.267 603.104 109.32C603.32 109.432 603.492 109.611 603.591 109.831C603.693 110.109 603.693 110.414 603.591 110.693C603.007 112.054 602.434 113.48 601.862 114.948C601.467 115.784 601.139 116.648 600.878 117.534V117.608L600.813 117.821C600.554 118.715 600.695 118.885 600.695 118.885C600.695 118.885 600.921 118.981 601.462 118.778C601.559 118.686 601.679 118.621 601.81 118.59C601.941 118.558 602.078 118.561 602.207 118.598C602.368 118.661 602.511 118.762 602.624 118.892C602.737 119.022 602.816 119.176 602.856 119.342C602.893 119.511 602.891 119.686 602.85 119.853C602.809 120.021 602.73 120.177 602.618 120.31C602.422 120.554 602.175 120.753 601.893 120.893C601.611 121.033 601.302 121.11 600.986 121.119Z" fill="#010101"/>
<path d="M655.049 325.913H12.2517V336.393H655.049V325.913Z" fill="#010101"/>
<g style="mix-blend-mode:multiply" opacity="0.15">
<path d="M646.566 187.306C646.566 187.306 644.481 215.893 641.585 235.597C639.858 248.258 639.586 261.071 640.774 273.792L652.574 225.383V210.489L646.566 187.306Z" fill="#010101"/>
</g>
</svg>
