<svg width="50" height="52" viewBox="0 0 50 52" fill="none" xmlns="http://www.w3.org/2000/svg">
<path d="M19.7726 42.0587H15.1548V49.0651H19.7726V42.0587Z" fill="#ED1C24" stroke="#ED1C24" stroke-width="0.25" stroke-miterlimit="10"/>
<path d="M32.6548 33.8512H26.7671V49.065H32.6548V33.8512Z" fill="#ED1C24" stroke="#ED1C24" stroke-width="0.25" stroke-miterlimit="10"/>
<path d="M44.5391 27.7457H38.6514V49.0651H44.5391V27.7457Z" fill="#ED1C24" stroke="#ED1C24" stroke-width="0.25" stroke-miterlimit="10"/>
<path d="M28.0167 51.2384H9.04949C7.32458 51.2384 6.88997 50.7737 6.88997 48.9578C6.88997 41.0792 6.88997 33.2149 6.88997 25.365C6.91711 24.9961 6.84486 24.6267 6.68148 24.2991C6.51811 23.9716 6.27025 23.6992 5.96641 23.5133C-1.25238 18.1656 -0.79058 6.59795 6.86962 2.14392C13.9526 -1.98125 23.6636 1.81504 24.8928 11.7598C25.0588 13.5244 24.8767 15.3062 24.3577 16.9932C23.8387 18.6803 22.9941 20.2362 21.877 21.5633C20.7598 22.8905 19.3942 23.9602 17.8658 24.7055C16.3373 25.4507 14.679 25.8554 12.995 25.894C12.2148 25.8802 11.4375 25.7917 10.6725 25.6295C10.1836 25.5509 9.95268 25.7153 9.9391 26.23C9.9391 26.4588 9.9391 26.6876 9.9391 26.945V46.62C9.9391 48.0498 9.9391 48.0498 11.2973 48.0498C11.5757 48.0498 11.861 48.0498 12.1394 48.0498C12.6963 48.0498 12.9271 47.8068 12.9203 47.2205C12.9203 46.0337 12.9203 42.7021 12.9203 41.501C12.9203 40.2999 13.4908 39.5993 14.6996 39.5707C16.5399 39.5207 18.3939 39.5278 20.2342 39.5707C20.4722 39.5474 20.7121 39.5798 20.9369 39.6654C21.1616 39.7511 21.3656 39.8879 21.5343 40.0662C21.7029 40.2444 21.8321 40.4597 21.9126 40.6966C21.9931 40.9335 22.0229 41.1862 21.9998 41.4367C22.0406 42.6235 21.9998 45.9551 21.9998 47.1562C21.9998 47.771 22.2172 48.0284 22.8216 48.0641C24.9471 48.1928 24.9471 48.2143 24.9471 45.9622C24.9471 42.8666 24.9471 38.341 24.9471 35.2382C24.9471 33.5581 25.5108 32.9576 27.0863 32.9433C28.6618 32.929 30.4003 32.9433 32.064 32.9433C33.4969 32.9433 34.0334 33.5438 34.0402 35.0881C34.0402 38.5412 34.0402 43.4314 34.0402 46.8916C34.0402 47.8211 34.3254 48.0927 35.1743 48.0784C37.0147 48.0784 37.0147 48.0784 37.0147 46.1481V28.2748C36.9716 27.7164 37.0363 27.1546 37.2048 26.6233C37.3358 26.3005 37.5595 26.029 37.8445 25.8469C38.1295 25.6649 38.4615 25.5813 38.7939 25.6081C40.641 25.6081 42.4882 25.6081 44.3353 25.6081C45.5441 25.6081 46.0806 26.2372 46.0806 27.5312C46.0806 33.3937 46.0806 40.686 46.0806 46.5556C46.0806 47.914 46.0806 47.914 47.3641 48.057C48.6476 48.2 49.2112 48.872 49.0686 49.923C48.9464 50.7809 48.3352 51.2527 47.2622 51.2527H28.0167V51.2384ZM21.9048 13.1253C21.9244 11.8614 21.7011 10.6065 21.2484 9.43572C20.7957 8.26499 20.1229 7.20265 19.2704 6.31253C18.418 5.42241 17.4034 4.72286 16.2876 4.25591C15.1719 3.78896 13.9781 3.56423 12.7778 3.59523C10.4207 3.66321 8.18191 4.69672 6.53761 6.47587C4.89332 8.25502 3.97331 10.6394 3.97331 13.1217C3.97331 15.6041 4.89332 17.9884 6.53761 19.7676C8.18191 21.5467 10.4207 22.5802 12.7778 22.6482C13.9783 22.6812 15.1727 22.4581 16.2892 21.9924C17.4058 21.5267 18.4212 20.828 19.2745 19.9383C20.1278 19.0486 20.8013 17.9864 21.2545 16.8156C21.7077 15.6447 21.9312 14.3895 21.9116 13.1253H21.9048ZM43.1265 39.0631C43.1265 36.7968 43.1265 33.0934 43.1265 30.8271C43.1265 28.5607 43.4389 28.8824 41.2454 28.7967C40.2607 28.7967 40.0366 29.1255 40.0502 30.0978C40.091 34.9022 40.0502 41.1364 40.0502 45.9408C40.0502 48.2 39.6971 47.9712 42.0875 48.0284C42.9364 48.0284 43.1537 47.6995 43.1401 46.863C43.1061 44.2678 43.1333 41.6655 43.1333 39.0631H43.1265ZM28.0234 42.7021C28.0234 43.8174 28.0234 44.9327 28.0234 46.048C28.0234 48.1285 27.745 47.9783 29.8774 48.0284C30.767 48.0284 30.9979 47.6709 30.9843 46.8058C30.9436 44.4394 30.9843 40.6503 30.9843 38.2838C30.9843 35.9174 31.3646 36.139 28.8383 36.139C28.2136 36.139 28.0302 36.425 28.037 37.0327C28.0438 38.4483 28.0302 41.2866 28.0302 42.7021H28.0234ZM18.9575 46.4341C18.9575 44.9041 18.9575 42.7593 17.5518 42.7593C16.0102 42.7593 16.0103 43.4743 16.0035 44.9685C16.0035 46.5842 16.0034 48.0141 17.4703 48.0141C18.9371 48.0141 18.9575 48.0141 18.9575 46.4341Z" fill="black"/>
<path d="M40.4715 16.1925C40.158 16.0231 39.8542 15.8345 39.5616 15.6277C39.3138 15.4435 39.1317 15.1773 39.0443 14.8715C38.9569 14.5658 38.9693 14.238 39.0794 13.9404C39.1418 13.6197 39.3156 13.335 39.5667 13.142C39.8179 12.949 40.1284 12.8615 40.4376 12.8966C42.1447 13.106 43.8143 13.5731 45.395 14.2836C46.1284 14.6053 46.2235 15.3989 46.0741 16.1639C45.7662 17.446 45.4448 18.7186 45.1098 19.9816C44.7634 21.0755 44.0843 21.6331 43.249 21.4687C42.4138 21.3043 41.9859 20.5822 42.047 19.4383C42.047 19.3382 42.047 19.2453 42.047 18.995C41.6192 19.2453 41.2457 19.4526 40.8858 19.6742L15.9222 34.8451C15.683 35.002 15.4359 35.1452 15.182 35.2741C15.0071 35.3834 14.8127 35.4538 14.6108 35.4809C14.409 35.508 14.204 35.4912 14.0086 35.4316C13.8132 35.372 13.6315 35.2707 13.4747 35.1342C13.3179 34.9977 13.1894 34.8287 13.0972 34.6378C13.0007 34.4516 12.9416 34.2464 12.9238 34.0352C12.9059 33.8239 12.9295 33.611 12.9932 33.4097C13.0569 33.2085 13.1593 33.0233 13.2941 32.8655C13.4288 32.7078 13.5929 32.581 13.7763 32.493C15.4672 31.4349 17.1718 30.4125 18.8899 29.3759C25.8574 25.1435 32.8226 20.9087 39.7856 16.6715C39.969 16.5642 40.1659 16.407 40.4715 16.1925Z" fill="black"/>
<path d="M14.4886 16.0851C13.7688 16.0851 13.0489 16.0851 12.3291 16.0851C12.124 16.1066 11.917 16.0817 11.7218 16.0121C11.5266 15.9426 11.3478 15.8299 11.1973 15.6816C11.0468 15.5334 10.9282 15.353 10.8493 15.1525C10.7705 14.9521 10.7332 14.7362 10.74 14.5194C10.6993 12.4079 10.6993 10.2989 10.74 8.19222C10.7316 7.99136 10.7625 7.79082 10.8308 7.60307C10.8991 7.41532 11.0034 7.24438 11.1372 7.10088C11.2709 6.95738 11.4313 6.84438 11.6083 6.76893C11.7853 6.69347 11.9752 6.65716 12.1661 6.66226C12.3542 6.63516 12.5456 6.64986 12.7279 6.70541C12.9103 6.76097 13.0795 6.85615 13.2248 6.98482C13.37 7.11349 13.4881 7.27278 13.5712 7.45242C13.6544 7.63206 13.7009 7.82806 13.7077 8.02778C13.7994 9.34091 13.8266 10.6581 13.7892 11.9742C13.7892 12.7392 14.0336 13.0466 14.7739 12.9966C15.4523 12.9513 16.1327 12.9513 16.8111 12.9966C17.1803 13.0231 17.5261 13.1962 17.7786 13.4809C18.0312 13.7656 18.1717 14.1406 18.1717 14.5301C18.1717 14.9196 18.0312 15.2946 17.7786 15.5793C17.5261 15.864 17.1803 16.0371 16.8111 16.0636C16.0302 16.1065 15.2492 16.0636 14.4683 16.0636L14.4886 16.0851Z" fill="black"/>
<g style="mix-blend-mode:multiply" opacity="0.15">
<path d="M18.9246 41.165L16.7515 50.2375H19.7734L18.9246 41.165Z" fill="#010101"/>
</g>
<g style="mix-blend-mode:multiply" opacity="0.15">
<path d="M31.3515 33.8512L28.0308 50.2375H32.6554L31.3515 33.8512Z" fill="#010101"/>
</g>
<g style="mix-blend-mode:multiply" opacity="0.15">
<path d="M43.5477 27.7457L38.6514 50.2805H45.4559L43.5477 27.7457Z" fill="#010101"/>
</g>
<g style="mix-blend-mode:multiply" opacity="0.15">
<path d="M18.9582 6.66226C18.9582 6.66226 20.948 9.52199 16.8666 16.0708C12.7852 22.6196 13.0433 25.8582 13.0433 25.8582L18.2791 23.7921L23.1686 19.7527L24.9411 11.724L23.1279 6.26904L18.9582 6.66226Z" fill="#010101"/>
</g>
</svg>
