<svg width="53" height="55" viewBox="0 0 53 55" fill="none" xmlns="http://www.w3.org/2000/svg">
<path d="M25.9814 36.3627L27.7589 34.2977L29.0244 33.3893L34.2532 36.3627L32.7519 37.9433L28.4377 39.7116H25.9814V36.3627Z" fill="#ED1C24"/>
<path d="M15.0347 27.7573L17.1342 26.7883L21.3679 27.2001L27.3618 29.3742L30.0769 27.079L30.0136 24.7475L26.2286 22.4039V16.554L20.4476 16.6024L17.1458 19.6606L16.2369 23.8694L15.0347 27.7573Z" fill="#ED1C24"/>
<path d="M23.2148 5.24778C23.2071 5.88715 23.4398 6.50379 23.8622 6.96323C24.2846 7.42268 24.8625 7.68767 25.4697 7.7004C26.252 7.73674 27.0401 7.73674 27.8166 7.7004C28.4249 7.68925 29.0042 7.42495 29.4278 6.96533C29.8515 6.50571 30.085 5.88817 30.0773 5.24778C30.0773 4.6422 30.0773 4.03661 30.0773 3.43103C30.1668 2.8184 30.0525 2.19203 29.7538 1.65792C29.455 1.1238 28.9902 0.714761 28.4379 0.5H24.8312C24.2789 0.714761 23.8141 1.1238 23.5153 1.65792C23.2166 2.19203 23.1023 2.8184 23.1918 3.43103C23.2436 4.03661 23.2033 4.6422 23.2148 5.24778ZM25.5963 2.15324C26.2923 2.15324 26.9941 2.15324 27.6901 2.15324C28.202 2.15324 28.4206 2.46209 28.4321 3.00712C28.4321 3.37653 28.4321 3.74594 28.4321 4.11534C28.4321 4.47869 28.4321 4.84809 28.4321 5.2175C28.4432 5.31893 28.4323 5.42166 28.4003 5.51805C28.3684 5.61443 28.3162 5.70198 28.2476 5.77417C28.179 5.84635 28.0959 5.90131 28.0043 5.93494C27.9128 5.96858 27.8152 5.98003 27.7188 5.96843H25.5733C25.4767 5.98123 25.3786 5.97062 25.2865 5.93741C25.1945 5.9042 25.1108 5.84927 25.042 5.77681C24.9732 5.70435 24.921 5.6163 24.8894 5.51936C24.8579 5.42242 24.8478 5.31917 24.86 5.2175C24.86 4.46658 24.86 3.71565 24.86 2.96473C24.8489 2.85843 24.86 2.75086 24.8925 2.64956C24.9251 2.54826 24.9783 2.4557 25.0485 2.37837C25.1187 2.30104 25.2041 2.24081 25.2987 2.20192C25.3933 2.16303 25.4949 2.14641 25.5963 2.15324Z" fill="black" stroke="black" stroke-width="0.5" stroke-miterlimit="10"/>
<path d="M5.40005 31.1123C5.54917 31.1248 5.699 31.1006 5.83774 31.0418C5.97649 30.9829 6.10038 30.891 6.19963 30.7731C6.72309 30.1676 7.48238 29.7134 7.77575 28.9564C8.06911 28.1994 7.83326 27.4 7.85627 26.6128C7.85627 26.5219 7.85627 26.4372 7.85627 26.3463C7.86244 26.2154 7.84029 26.0846 7.79146 25.964C7.74263 25.8433 7.66842 25.7359 7.57442 25.6499C5.96378 23.8634 5.96377 23.8634 3.65136 23.8634H3.45004C3.29339 23.8444 3.13469 23.8665 2.98815 23.9278C2.8416 23.9891 2.71175 24.0877 2.6102 24.2147C2.09824 24.8203 1.55753 25.3411 1.02832 25.8982V29.0594C1.55753 29.6225 2.09824 30.1676 2.6102 30.7429C2.71477 30.8663 2.84492 30.9626 2.99055 31.0246C3.13618 31.0866 3.2934 31.1124 3.45004 31.1002C4.10197 31.0921 4.75197 31.0961 5.40005 31.1123ZM2.56419 27.4243C2.56419 26.2737 3.27172 25.6075 4.4912 25.6075C5.71069 25.6075 6.21689 26.2615 6.21689 27.612C6.21689 28.7384 5.57262 29.3742 4.42216 29.3742C4.17158 29.4052 3.91761 29.3761 3.67922 29.2891C3.44083 29.2021 3.22419 29.0595 3.04551 28.872C2.86684 28.6845 2.73073 28.4569 2.64738 28.2062C2.56403 27.9555 2.53559 27.6882 2.56419 27.4243Z" fill="black" stroke="black" stroke-width="0.5" stroke-miterlimit="10"/>
<path d="M43.6183 29.9193C43.4951 29.8037 43.3981 29.6604 43.3343 29.5001C43.2706 29.3397 43.2419 29.1664 43.2502 28.9928C43.2502 28.0299 43.2789 27.061 43.2502 26.0981C43.2392 25.8906 43.2727 25.6833 43.3484 25.4914C43.4241 25.2995 43.54 25.1281 43.6874 24.9899C45.5741 23.0278 47.4513 21.0556 49.3188 19.0733C49.7592 18.6436 50.0225 18.0496 50.0526 17.4182C50.0827 16.7869 49.8772 16.1682 49.4799 15.6942C48.6343 14.6525 47.11 14.6283 45.9998 15.6942C44.067 17.5109 42.1113 19.2792 40.2475 21.1444C39.9563 21.4709 39.5965 21.7209 39.1969 21.8745C38.7973 22.028 38.3691 22.0808 37.9466 22.0286C37.826 22.0299 37.7076 21.9947 37.6056 21.927C37.5036 21.8593 37.4223 21.7621 37.3714 21.647C36.222 19.3183 34.4127 17.4241 32.1943 16.2271C32.062 16.1544 31.8837 16.0878 31.8894 15.9122C31.8894 15.1128 31.6651 14.3013 32.3324 13.5928C33.3678 12.4785 34.3284 11.2794 35.3178 10.1167C36.2209 9.05694 37.147 8.0214 38.0099 6.92529C38.2984 6.60251 38.4973 6.20257 38.5848 5.76903C38.6724 5.33549 38.6453 4.88497 38.5065 4.46652C38.3677 4.04808 38.1224 3.67776 37.7975 3.39587C37.4726 3.11399 37.0805 2.93137 36.6638 2.86787C36.283 2.80254 35.8927 2.84117 35.5301 2.98007C35.1675 3.11897 34.8449 3.35349 34.593 3.66119C32.7063 5.65356 30.8138 7.63382 28.9328 9.62619C28.8288 9.74952 28.7 9.84674 28.5556 9.91067C28.4112 9.9746 28.2551 10.0036 28.0987 9.9956C27.1515 9.9956 26.2024 9.9956 25.2513 9.9956C25.0783 10.0067 24.9052 9.97655 24.7448 9.90734C24.5844 9.83813 24.441 9.73167 24.3252 9.59591C22.45 7.59748 20.5575 5.61722 18.6707 3.63091C18.4208 3.3321 18.1027 3.10525 17.7464 2.97175C17.3902 2.83824 17.0074 2.8025 16.6344 2.86787C16.2281 2.93117 15.8454 3.10779 15.5259 3.37939C15.2063 3.65099 14.9617 4.00768 14.8173 4.41243C14.6729 4.81718 14.634 5.25524 14.7047 5.68114C14.7754 6.10704 14.9531 6.50525 15.2193 6.83445C15.8579 7.68832 18.2565 10.468 18.9526 11.2976C19.1366 11.5096 19.2747 11.667 19.3897 11.776C19.7617 12.2689 20.1632 12.7361 20.592 13.1749C20.9217 13.4659 21.1737 13.8423 21.323 14.2671C21.4723 14.6919 21.5138 15.1504 21.4433 15.5973C21.4451 15.7344 21.4084 15.8691 21.3378 15.9844C21.2672 16.0996 21.1658 16.1904 21.0464 16.2452C18.8683 17.436 17.0924 19.3055 15.9614 21.5986C15.8924 21.7379 15.8406 21.9498 15.691 21.9559C14.995 21.9559 14.2587 22.2587 13.6375 21.6713L11.3653 19.5336L7.22943 15.6275C6.92115 15.316 6.54005 15.0958 6.12482 14.9895C5.70959 14.8831 5.27503 14.8943 4.86525 15.022C4.48275 15.1444 4.13714 15.3696 3.8625 15.6755C3.58785 15.9813 3.39363 16.3572 3.299 16.7661C3.20436 17.1751 3.21257 17.6029 3.3228 18.0075C3.43303 18.412 3.64148 18.7794 3.92763 19.0733C5.79903 21.0919 7.68578 23.0762 9.58786 25.0262C9.73532 25.1654 9.85078 25.338 9.92553 25.531C10.0003 25.7241 10.0323 25.9325 10.0193 26.1405C10.0193 27.067 9.98477 27.9996 10.0193 28.9262C10.0302 29.1348 9.99541 29.3432 9.91761 29.5353C9.83981 29.7275 9.72108 29.8982 9.57061 30.0344C7.69153 31.9965 5.81629 33.9687 3.94488 35.951C3.50784 36.3821 3.24772 36.9757 3.21979 37.6056C3.19186 38.2354 3.39833 38.8519 3.79532 39.3241C4.01632 39.5708 4.28227 39.7681 4.57728 39.9043C4.8723 40.0405 5.19035 40.1127 5.51245 40.1166C5.83455 40.1206 6.15412 40.0562 6.45208 39.9273C6.75003 39.7984 7.02027 39.6077 7.24668 39.3665C9.19095 37.5497 11.1582 35.7329 13.045 33.8738C13.332 33.5505 13.6872 33.3026 14.0818 33.1501C14.4764 32.9976 14.8995 32.9447 15.3171 32.9957C15.4559 32.9957 15.5918 33.0372 15.7089 33.1155C15.8261 33.1938 15.9197 33.3056 15.9787 33.4378C17.1038 35.7133 18.8645 37.5712 21.0234 38.7609C21.1639 38.8122 21.2876 38.9046 21.38 39.0273C21.5198 39.742 21.4454 40.4847 21.1672 41.1529C20.4808 41.9604 19.7924 42.7678 19.1021 43.5753C17.8711 45.0287 16.6287 46.476 15.3977 47.9355C15.0442 48.3122 14.8084 48.7936 14.7221 49.3153C14.6357 49.837 14.7028 50.374 14.9145 50.8544C15.0825 51.1995 15.3267 51.4972 15.6267 51.7222C15.9266 51.9473 16.2736 52.0933 16.6382 52.1479C17.0029 52.2025 17.3748 52.1641 17.7224 52.036C18.0701 51.9078 18.3835 51.6937 18.6362 51.4116C20.5536 49.4252 22.4519 47.4268 24.331 45.4162C24.4461 45.2813 24.5886 45.1754 24.7479 45.1062C24.9072 45.037 25.0793 45.0064 25.2513 45.0166C26.1717 45.0166 27.092 45.0469 28.0067 45.0166C28.1957 45.006 28.3846 45.0408 28.559 45.1185C28.7334 45.1961 28.8888 45.3145 29.0133 45.4647C30.8655 47.4389 32.735 49.395 34.593 51.3571C34.9843 51.8501 35.5457 52.1593 36.1536 52.2167C36.7614 52.274 37.3661 52.0748 37.8344 51.6629C38.3028 51.2509 38.5965 50.6599 38.651 50.02C38.7055 49.38 38.5162 48.7435 38.1249 48.2504C37.9178 47.9476 36.3992 46.1793 35.1682 44.732C35.0443 44.5445 34.9058 44.3683 34.7541 44.2051C34.6488 44.0605 34.5249 43.9321 34.3859 43.8236L33.5116 42.7941C33.3908 42.6487 33.293 42.5397 33.2067 42.4489C33.0347 42.2013 32.8422 41.9703 32.6315 41.7585C32.1943 41.2377 31.6364 40.7775 31.8492 39.9418C31.8952 39.5179 31.6766 39.0395 32.2461 38.7306C34.4125 37.5531 36.179 35.6977 37.3023 33.4196C37.3518 33.2704 37.4418 33.1399 37.5612 33.0442C38.2418 32.9023 38.9474 32.987 39.5802 33.2864C40.3568 34.007 41.1219 34.7337 41.8812 35.4604L46.017 39.3604C46.3663 39.7349 46.8178 39.9852 47.3087 40.0764C47.7996 40.1675 48.3053 40.0951 48.7551 39.8691C49.0895 39.6977 49.3794 39.4436 49.6 39.1284C49.8206 38.8133 49.9654 38.4465 50.022 38.0596C50.0785 37.6726 50.0451 37.277 49.9247 36.9066C49.8042 36.5362 49.6003 36.2021 49.3303 35.9328C47.4398 33.9102 45.5358 31.9057 43.6183 29.9193ZM14.6211 31.2456C13.6375 31.0518 12.9817 31.5786 12.3202 32.2387C10.3759 34.1282 8.37989 35.9691 6.40685 37.8283C6.22107 38.0292 6.00542 38.197 5.76836 38.3249C5.67081 38.3707 5.56403 38.3905 5.45747 38.3825C5.35091 38.3746 5.24785 38.3391 5.15743 38.2792C5.067 38.2193 4.99198 38.1369 4.93901 38.0392C4.88604 37.9416 4.85675 37.8317 4.85373 37.7193C4.85373 37.362 5.07232 37.15 5.28515 36.926C7.26394 34.8427 9.23698 32.7535 11.2273 30.6824C11.3735 30.5419 11.4885 30.3692 11.564 30.1766C11.6396 29.984 11.6739 29.7763 11.6644 29.5681C11.6414 28.2076 11.6414 26.841 11.6644 25.4683C11.675 25.2606 11.6418 25.053 11.5672 24.8603C11.4926 24.6677 11.3785 24.4948 11.233 24.354C9.33477 22.3859 7.45376 20.3935 5.57277 18.4072L5.35994 18.1831C4.81347 17.6078 4.70993 17.1899 5.03781 16.8448C5.36569 16.4996 5.69358 16.5238 6.32633 17.1112L11.3941 21.8832C11.7047 22.1739 12.0383 22.4404 12.3202 22.7613C12.9529 23.4699 13.649 23.9725 14.6211 23.7605C15.0008 23.6818 15.064 23.8756 14.972 24.2389C14.4226 26.3827 14.4226 28.6415 14.972 30.7853C15.0871 31.1124 15.0353 31.3243 14.6441 31.2456H14.6211ZM20.9083 11.0069C20.7068 10.7464 20.4877 10.5015 20.2526 10.2742C20.0283 10.0138 19.8039 9.75337 19.5853 9.48691C19.0964 8.91161 16.922 6.32576 16.4503 5.73229C16.386 5.66749 16.3357 5.5889 16.3027 5.50184C16.2698 5.41478 16.255 5.32128 16.2593 5.22767C16.2637 5.13407 16.2871 5.04255 16.328 4.9593C16.3689 4.87606 16.4263 4.80303 16.4964 4.74518C16.5571 4.67775 16.6302 4.62405 16.7113 4.58734C16.7924 4.55064 16.8798 4.53171 16.968 4.53171C17.0563 4.53171 17.1437 4.55064 17.2247 4.58734C17.3058 4.62405 17.379 4.67775 17.4397 4.74518C17.5546 4.84781 17.6641 4.95698 17.7676 5.0722C19.7349 7.1433 21.7022 9.21844 23.6694 11.2976C23.787 11.431 23.9307 11.5359 24.0907 11.6049C24.2506 11.6739 24.4229 11.7054 24.5956 11.6973C25.9301 11.6973 27.2723 11.6973 28.6221 11.6973C28.8108 11.706 28.999 11.6715 29.1738 11.5963C29.3486 11.521 29.5058 11.4067 29.6346 11.2613C31.5903 9.172 33.5634 7.10696 35.5364 5.03586C35.657 4.88961 35.7942 4.75945 35.9448 4.64828C36.0666 4.55154 36.2175 4.5044 36.3697 4.51553C36.5219 4.52665 36.6652 4.59531 36.7731 4.70885C36.8353 4.75569 36.8879 4.81511 36.928 4.88361C36.9681 4.95212 36.9948 5.02834 37.0066 5.10783C37.0183 5.18733 37.015 5.26849 36.9966 5.3466C36.9783 5.4247 36.9453 5.49818 36.8997 5.56272C36.7756 5.77782 36.6331 5.98052 36.474 6.16831C34.6966 8.26363 32.9421 10.3771 31.1244 12.4361C30.5031 13.1446 30.043 13.835 30.2155 14.8584C30.2788 15.2521 30.112 15.3429 29.7611 15.24C28.7962 14.9593 27.7998 14.8168 26.7987 14.8161C25.6823 14.792 24.5684 14.9368 23.4911 15.246C23.192 15.3308 23.0424 15.2824 23.0712 14.919C23.0712 14.7131 23.0712 14.4951 23.0712 14.3134C23.0991 14.07 23.0702 13.8231 22.987 13.5941C22.9038 13.3652 22.7688 13.161 22.5938 12.9993C22.0301 12.3271 21.5008 11.6488 20.9314 11.0069H20.9083ZM16.3065 25.8316C16.6461 23.5704 17.6433 21.4756 19.1608 19.8357C20.6783 18.1959 22.6413 17.0917 24.7796 16.6752C24.8611 16.6675 24.9418 16.6533 25.0212 16.6328C25.4296 16.4814 25.4814 16.6328 25.4009 17.0386C24.8256 19.6547 25.5562 21.8832 27.2416 23.809C27.7363 24.3782 28.2252 24.9596 28.6797 25.5652C28.8653 25.7615 28.9814 26.0189 29.0086 26.2943C29.0358 26.5698 28.9725 26.8468 28.8292 27.0791C28.4784 27.6847 28.1447 28.2903 27.5637 28.2237C26.8725 28.1739 26.2041 27.9428 25.6195 27.5515C25.0987 27.2734 24.5936 26.9641 24.1066 26.625C22.3061 25.3108 20.3389 25.1534 18.2738 25.6257C17.6986 25.7529 17.1751 25.9285 16.6286 26.086C16.4216 26.1465 16.272 26.2192 16.318 25.8377L16.3065 25.8316ZM36.7731 50.2246C36.7119 50.2922 36.6383 50.346 36.5567 50.3828C36.4751 50.4196 36.3873 50.4385 36.2986 50.4385C36.2098 50.4385 36.122 50.4196 36.0404 50.3828C35.9589 50.346 35.8853 50.2922 35.824 50.2246C35.6981 50.1113 35.579 49.99 35.4674 49.8613C33.5231 47.8144 31.5673 45.7675 29.6346 43.7085C29.5092 43.5594 29.3538 43.4417 29.1796 43.3641C29.0054 43.2866 28.8168 43.2511 28.6279 43.2604C27.2934 43.2604 25.9588 43.2604 24.6013 43.2604C24.4201 43.2531 24.2397 43.2878 24.0727 43.3621C23.9057 43.4364 23.7562 43.5485 23.6349 43.6903C21.6792 45.7675 19.7004 47.8386 17.7331 49.9097C17.5998 50.0678 17.447 50.2062 17.2787 50.3215C17.1529 50.4131 16.9994 50.4527 16.8476 50.4326C16.6958 50.4125 16.5564 50.3341 16.4561 50.2125C16.3455 50.1154 16.2735 49.9782 16.2543 49.828C16.2351 49.6777 16.2702 49.5254 16.3525 49.401C16.4769 49.1861 16.6193 48.9834 16.7782 48.7954C18.5557 46.7001 20.3101 44.5866 22.1278 42.5337C22.7548 41.8251 23.2093 41.1348 23.0424 40.1113C22.9792 39.7359 23.1172 39.6087 23.4911 39.7177C25.5431 40.3113 27.7091 40.3113 29.7611 39.7177C30.112 39.6148 30.2386 39.7177 30.181 40.0871C30.1097 40.5432 30.1601 41.0113 30.3267 41.439C30.4933 41.8667 30.7694 42.2373 31.1244 42.5094C31.3354 42.7275 31.5279 42.9646 31.6996 43.218C31.71 43.235 31.7237 43.2495 31.7399 43.2604C31.78 43.3397 31.8325 43.4114 31.8952 43.4723C32.3899 44.0174 36.3302 48.6501 36.7846 49.2314C36.8606 49.2873 36.9226 49.3615 36.9654 49.448C37.0083 49.5345 37.0306 49.6305 37.0306 49.728C37.0306 49.8255 37.0083 49.9216 36.9654 50.0081C36.9226 50.0945 36.8606 50.1688 36.7846 50.2246H36.7731ZM32.8098 36.3446C31.5371 37.3445 30.0595 38.0164 28.4956 38.3067C28.2185 38.3642 27.9378 38.4006 27.6558 38.4157C27.0805 38.452 26.9828 38.3733 26.9597 37.7132C26.9597 37.6103 26.9597 37.5013 26.9597 37.3983C26.9672 36.5524 27.2048 35.7265 27.6443 35.0184C27.7816 34.733 28.0112 34.5085 28.2916 34.3853C28.5721 34.2621 28.8851 34.2482 29.1744 34.3462C30.4646 34.6957 31.7061 35.221 32.8673 35.9086C33.2297 36.0903 32.9709 36.2295 32.8213 36.3446H32.8098ZM34.7081 34.4733C34.6762 34.5332 34.6324 34.5851 34.5798 34.6255C34.5272 34.666 34.4669 34.6941 34.4031 34.7078C34.3393 34.7216 34.2734 34.7208 34.2099 34.7054C34.1463 34.69 34.0867 34.6605 34.035 34.6187C32.6644 33.7805 31.1944 33.1371 29.6633 32.705C29.0032 32.4775 28.2872 32.5091 27.6475 32.7941C27.0078 33.079 26.4877 33.5981 26.1832 34.2553C25.5997 35.266 25.295 36.4276 25.3031 37.6103C25.3031 38.446 25.3031 38.446 24.5438 38.2704C22.4223 37.8046 20.4892 36.6606 19.0087 34.9946C17.5281 33.3286 16.5724 31.222 16.272 28.9625C16.157 28.1026 16.1972 28.0178 16.991 27.7514C18.3819 27.187 19.8842 26.9955 21.3628 27.1942C21.8533 27.2959 22.3227 27.4887 22.7491 27.7635C23.7404 28.4491 24.7787 29.0563 25.8553 29.5802C27.0518 30.095 28.2598 30.2463 29.2664 29.2169C31.0439 27.4001 31.0841 25.8256 29.5943 24.0149C29.0823 23.4093 28.5474 22.8037 28.0412 22.1558C27.4807 21.4532 27.0978 20.6131 26.9278 19.7133C26.7579 18.8135 26.8065 17.8831 27.069 17.0083C27.0765 16.9349 27.0991 16.864 27.1351 16.8007C27.1712 16.7374 27.22 16.6831 27.278 16.6416C27.336 16.6001 27.4019 16.5724 27.4711 16.5604C27.5403 16.5485 27.6112 16.5525 27.6788 16.5723C29.3832 16.736 31.0182 17.362 32.4244 18.389C33.6398 19.2388 34.6724 20.3472 35.4559 21.643C36.2393 22.9387 36.7561 24.3929 36.9729 25.9118C37.1896 27.4307 37.1017 28.9806 36.7145 30.4615C36.3274 31.9424 35.6498 33.3214 34.7253 34.5097L34.7081 34.4733ZM48.2489 38.1432C47.9901 38.4823 47.6334 38.4944 47.2365 38.1432C46.7131 37.6829 46.2069 37.1985 45.7007 36.714C43.975 35.091 42.2493 33.4802 40.5236 31.8209C40.3114 31.6017 40.0563 31.434 39.7761 31.3294C39.4959 31.2248 39.1974 31.1858 38.9015 31.2153C38.2227 31.2456 38.1364 31.3849 38.3262 30.5068C38.8019 28.4708 38.792 26.3426 38.2975 24.3116C38.1537 23.706 38.1594 23.6576 38.7519 23.706C39.1207 23.7417 39.4922 23.687 39.8375 23.5462C40.1828 23.4054 40.4925 23.1824 40.7422 22.8946C42.7555 20.9385 44.8033 19.037 46.8454 17.1173C47.0293 16.9141 47.2453 16.746 47.4839 16.6207C47.5811 16.5746 47.6876 16.5546 47.7939 16.5625C47.9003 16.5704 48.0031 16.6059 48.0931 16.6659C48.1832 16.726 48.2577 16.8086 48.31 16.9064C48.3623 17.0042 48.3907 17.1141 48.3927 17.2263C48.387 17.3756 48.3487 17.5215 48.2809 17.6527C48.2131 17.784 48.1175 17.8971 48.0016 17.9833C46.0688 20.0241 44.1475 22.071 42.1918 24.0815C41.9829 24.2764 41.8193 24.5191 41.7136 24.7911C41.6079 25.063 41.5629 25.3568 41.582 25.65C41.628 26.9641 41.6108 28.2843 41.582 29.5984C41.5776 29.772 41.6087 29.9446 41.6732 30.1045C41.7377 30.2644 41.8341 30.4077 41.9559 30.5249C43.9155 32.5799 45.8732 34.6389 47.829 36.7019L48.1454 37.041C48.2293 37.0993 48.3 37.1764 48.3524 37.2667C48.4048 37.3571 48.4376 37.4585 48.4486 37.5637C48.4596 37.6689 48.4484 37.7754 48.4159 37.8755C48.3834 37.9757 48.3303 38.0671 48.2604 38.1432H48.2489Z" fill="black" stroke="black" stroke-width="0.5" stroke-miterlimit="10"/>
<path d="M52.2989 27.4969C52.2989 26.4614 52.2989 25.4319 52.2989 24.3964C52.2989 24.0148 52.1724 23.8635 51.8043 23.8756C51.091 23.8756 50.3719 23.8756 49.6586 23.8756C48.9454 23.8756 48.0825 23.6333 47.4383 23.9725C46.8083 24.425 46.246 24.974 45.7701 25.6015C45.7365 25.6408 45.7 25.6773 45.6608 25.7105C45.5837 25.7887 45.5229 25.8829 45.4823 25.9871C45.4417 26.0914 45.4222 26.2034 45.425 26.3161C45.3214 28.9504 45.3214 28.9504 47.1046 30.7671L47.1391 30.8035C47.2188 30.905 47.3205 30.9849 47.4356 31.0366C47.5507 31.0882 47.6759 31.11 47.8007 31.1002C49.1122 31.1002 50.4295 31.1002 51.7467 31.1002C52.2012 31.1002 52.322 30.9185 52.322 30.4946C52.2817 29.4712 52.2989 28.4962 52.2989 27.4969ZM50.7286 27.4969C50.7286 27.9754 50.7286 28.4477 50.7286 28.9201C50.7286 29.2289 50.6308 29.3743 50.3259 29.3682C49.6759 29.3682 49.0201 29.3682 48.3759 29.3682C47.7316 29.3682 47.5591 28.799 47.2254 28.4356C46.8918 28.0723 47.0586 26.7521 47.329 26.4008C47.512 26.1057 47.7726 25.8731 48.079 25.7311C48.3854 25.5892 48.7244 25.5441 49.0547 25.6015C49.4196 25.6469 49.7884 25.6469 50.1533 25.6015C50.625 25.5591 50.7746 25.771 50.7286 26.2434C50.6825 26.7158 50.7286 27.0852 50.7286 27.503V27.4969Z" fill="black" stroke="black" stroke-width="0.5" stroke-miterlimit="10"/>
<path d="M26.6774 47.2754C25.768 47.2753 24.8954 47.6532 24.2491 48.3268C23.6028 49.0003 23.2352 49.9152 23.2261 50.8726C23.3097 51.7643 23.7034 52.592 24.3315 53.1967C24.9596 53.8015 25.7778 54.1405 26.6289 54.1488C27.48 54.157 28.304 53.8339 28.9426 53.2415C29.5812 52.6491 29.9893 51.8291 30.0886 50.9392C30.0962 49.9776 29.7415 49.052 29.1021 48.3653C28.4627 47.6785 27.5908 47.2866 26.6774 47.2754ZM26.6487 52.8225C26.4101 52.8234 26.1738 52.7739 25.9537 52.6769C25.7336 52.5799 25.5343 52.4374 25.3675 52.2579C25.2007 52.0783 25.0698 51.8653 24.9825 51.6315C24.8953 51.3977 24.8536 51.1479 24.8597 50.8968C24.8494 50.6409 24.8888 50.3856 24.9754 50.1463C25.0621 49.907 25.1942 49.6888 25.3636 49.5051C25.5331 49.3214 25.7363 49.1759 25.961 49.0777C26.1856 48.9795 26.4269 48.9305 26.6701 48.9338C26.9133 48.9371 27.1534 48.9926 27.3756 49.0969C27.5977 49.2012 27.7973 49.3521 27.9622 49.5403C28.1271 49.7286 28.2538 49.9503 28.3346 50.1918C28.4153 50.4334 28.4485 50.6897 28.4319 50.9452C28.4304 51.4426 28.242 51.9192 27.9079 52.2709C27.5738 52.6226 27.1212 52.821 26.6487 52.8225Z" fill="black" stroke="black" stroke-width="0.5" stroke-miterlimit="10"/>
<path d="M34.2475 24.1298C33.4307 24.1298 33.4307 24.1298 33.4307 25.0079C33.4307 25.886 33.4307 25.8436 34.2647 25.8436C35.0988 25.8436 35.0816 25.8436 35.0816 24.9836C35.0816 24.1237 35.0816 24.1298 34.2475 24.1298Z" fill="black" stroke="black" stroke-width="0.5" stroke-miterlimit="10"/>
<path d="M33.5812 21.8226C33.5812 20.9687 33.5812 20.9688 32.7414 20.9688C31.9015 20.9688 31.9303 20.9688 31.9303 21.8529C31.9303 22.7371 31.9303 22.6826 32.7701 22.6826C33.61 22.6826 33.5812 22.6825 33.5812 21.8226Z" fill="black" stroke="black" stroke-width="0.5" stroke-miterlimit="10"/>
<g style="mix-blend-mode:multiply" opacity="0.15">
<path d="M23.4849 16.554C24.3928 18.9652 24.8573 21.536 24.8539 24.1298C24.8539 28.4658 24.1924 28.2296 24.1924 28.2296L27.3562 29.3742L30.0712 27.079L28.6849 25.5651L26.9592 21.8286L26.223 16.554H23.4849Z" fill="#010101"/>
</g>
<g style="mix-blend-mode:multiply" opacity="0.15">
<path d="M30.4976 33.4015C30.6822 34.9184 30.5164 36.4598 30.0144 37.8949C29.1803 39.8994 32.7525 37.9434 32.7525 37.9434L34.2538 36.3628L30.4976 33.4015Z" fill="#010101"/>
</g>
<g style="mix-blend-mode:multiply" opacity="0.15">
<path d="M28.2313 2.12903L26.0225 7.10694H29.0194V4.61798L28.2313 2.12903Z" fill="#010101"/>
</g>
<g style="mix-blend-mode:multiply" opacity="0.15">
<path d="M50.7968 25.014L48.5879 29.9919H51.5791V27.503L50.7968 25.014Z" fill="#010101"/>
</g>
<g style="mix-blend-mode:multiply" opacity="0.15">
<path d="M28.2313 48.4321L26.0225 53.41H29.0194V50.9211L28.2313 48.4321Z" fill="#010101"/>
</g>
<g style="mix-blend-mode:multiply" opacity="0.15">
<path d="M5.56678 25.014L3.35791 29.9919H6.35484V27.503L5.56678 25.014Z" fill="#010101"/>
</g>
<g style="mix-blend-mode:multiply" opacity="0.15">
<path d="M32.4366 18.3527C32.4366 18.3527 34.3751 27.6666 32.7415 31.1184L31.1021 34.5703L34.2543 36.387L37.5849 33.0503L38.2579 25.8377L36.7163 20.9931L33.587 17.6926L32.4366 18.3527Z" fill="#010101"/>
</g>
</svg>
