<svg width="193" height="123" viewBox="0 0 193 123" fill="none" xmlns="http://www.w3.org/2000/svg">
<path d="M134.43 100.33L135.99 101.47L137.49 100.9L138.91 99.41V97.27L134.43 100.33Z" fill="#ED1C24"/>
<path d="M45.6302 88.16L47.6302 76.54L53.1502 60.86L55.6702 56.4L63.5802 52.54L72.5802 47.46L76.7202 45.28C76.7202 45.28 85.1902 51.12 87.9402 50.06C90.8314 48.8426 93.5511 47.2524 96.0302 45.33L108.03 51.44L116.78 56.02L121.25 67.53L126.72 80.84L129.78 85.75L134.62 88.56L133.08 90.77L132 93L132.4 98.42L134.8 101.69L134.71 102.88L131.01 104.61L128.01 105.18L124.64 104.64L120.21 99.86L115.31 95.24L111.8 86.14L111.48 87.9L112 97.04L112.53 103.79L113.84 108.53L115.06 114.47L115.9 116.62L113 120.42H64.1802L62.4502 118.14L62.9802 107.64V95.28L62.4002 88.17L60.5302 95.45L59.1602 100.69L55.3502 104.36L50.3502 106.2L47.1402 105.73L44.0702 103.47L42.4502 100.69L43.0002 97.51L45.0502 99.51L47.3902 100.16L50.3202 96.89L49.6202 91.57L47.6202 90.06L45.6302 88.16Z" fill="#ED1C24"/>
<path d="M63.2998 36.65C63.2104 36.6642 63.1193 36.6642 63.0298 36.65C58.4698 35.13 53.0298 33.65 52.0298 34.03C47.8253 35.8188 43.299 36.7275 38.7298 36.7C24.7298 36.7 13.3198 28.56 13.3198 18.56C13.3198 8.56 24.7198 0.429993 38.7298 0.429993C52.7398 0.429993 64.1398 8.57 64.1398 18.56C64.1272 21.315 63.2914 24.0034 61.7398 26.28C61.1798 27.14 62.4998 31.75 64.0798 35.51C64.1424 35.6619 64.1597 35.8287 64.1296 35.9902C64.0994 36.1517 64.0231 36.301 63.9098 36.42C63.8286 36.4971 63.7328 36.5571 63.6281 36.5966C63.5233 36.6361 63.4117 36.6542 63.2998 36.65ZM38.7398 2.09C25.6698 2.09 15.0398 9.46001 15.0398 18.51C15.0398 27.56 25.6698 34.94 38.7398 34.94C43.0756 34.9722 47.3715 34.111 51.3598 32.41C52.8498 31.75 58.3098 33.3 61.8298 34.41C60.7498 31.57 59.2598 26.91 60.3298 25.28C61.6917 23.2795 62.4295 20.92 62.4498 18.5C62.4498 9.46 51.8098 2.09 38.7398 2.09Z" fill="#010101"/>
<path d="M112.32 45.73C112.203 45.7291 112.087 45.7038 111.98 45.6555C111.874 45.6073 111.778 45.5373 111.7 45.45C111.587 45.331 111.51 45.1816 111.48 45.0201C111.45 44.8586 111.467 44.6919 111.53 44.54C113.11 40.77 114.43 36.16 113.87 35.31C112.318 33.0334 111.483 30.345 111.47 27.59C111.47 17.59 122.87 9.45996 136.88 9.45996C150.89 9.45996 162.29 17.59 162.29 27.59C162.29 37.59 150.89 45.73 136.88 45.73C132.307 45.7579 127.776 44.8457 123.57 43.05C122.64 42.72 117.15 44.15 112.57 45.68C112.49 45.709 112.405 45.7258 112.32 45.73ZM123.22 41.33C123.561 41.319 123.9 41.3733 124.22 41.49C128.224 43.1848 132.533 44.0392 136.88 44C149.95 44 160.58 36.63 160.58 27.57C160.58 18.51 149.95 11.15 136.88 11.15C123.81 11.15 113.17 18.52 113.17 27.57C113.192 29.9897 113.93 32.3487 115.29 34.35C116.36 35.98 114.86 40.64 113.79 43.48C116.73 42.56 121 41.33 123.22 41.33Z" fill="#010101"/>
<path d="M162.63 85.64C163.702 85.5849 164.739 85.2392 165.63 84.64C166.29 84.03 166.81 82.53 165.82 81.91C165.15 81.48 163.53 81.91 162.76 81.99L157.28 82.4C156.65 82.45 156.04 82.59 155.41 82.63C154.695 82.7703 153.957 82.7325 153.26 82.52C152.926 82.2819 152.663 81.9568 152.5 81.58C152.26 80.87 153.29 80.19 153.8 79.88C154.591 79.5339 155.345 79.1084 156.05 78.61C156.92 77.8 157.17 76.51 155.91 75.91C154.24 75.11 151.75 77.21 150.48 77.91L146.23 80.3C145.137 80.7419 144.142 81.3943 143.3 82.22C142.36 83.52 143.3 84.42 141.43 85.79C140.2 86.73 138.18 87.18 136.71 87.63C136.508 87.721 136.297 87.7914 136.08 87.84C129.72 87.67 127.68 80.69 125.77 75.97C123.86 71.25 121.85 66.45 119.77 61.73C119.027 59.7085 118.018 57.795 116.77 56.04C115.374 54.4925 113.671 53.2529 111.77 52.4C106.67 49.75 101.55 47.17 96.4501 44.55C96.3875 44.5206 96.3192 44.5053 96.2501 44.5053C96.1809 44.5053 96.1126 44.5206 96.0501 44.55C95.9756 44.5018 95.8888 44.4762 95.8001 44.4762C95.7113 44.4762 95.6245 44.5018 95.5501 44.55C95.3667 43.7198 95.3942 42.8569 95.6301 42.04C96.7542 41.7985 97.8036 41.2899 98.6896 40.5571C99.5755 39.8243 100.272 38.8889 100.72 37.83C102.12 34.37 101.55 30.1 101.21 26.51C100.78 21.97 100.21 17.44 99.7001 12.91C100.005 12.7902 100.282 12.607 100.511 12.3726C100.74 12.1382 100.917 11.8578 101.03 11.55C101.88 9.23001 99.2301 7.63001 97.6001 6.55001C92.6601 3.37001 87.4701 -0.619987 81.3101 2.12001C79.4301 2.95001 76.9601 4.74003 77.3101 7.04003C75.7068 7.98826 74.2764 9.20222 73.0801 10.63C72.1031 12.1641 71.7456 14.0122 72.0801 15.8C72.5501 18.8 73.3301 21.7 73.9901 24.62C73.9318 24.6054 73.8709 24.6041 73.8121 24.6162C73.7532 24.6283 73.6978 24.6536 73.6501 24.69C72.8497 25.2206 72.2401 25.9933 71.9103 26.8952C71.5805 27.797 71.5478 28.7807 71.8171 29.7025C72.0863 30.6242 72.6434 31.4357 73.4068 32.0182C74.1702 32.6007 75.0999 32.9237 76.0601 32.94L76.6001 44.07C70.1901 47.73 63.6001 51.17 57.3301 55.07C52.0501 58.4 50.7601 64.07 49.1401 69.7C48.1734 73.0334 47.33 76.4033 46.6101 79.81C46.24 81.57 45.9001 83.35 45.6101 85.13C45.455 85.8049 45.3481 86.49 45.2901 87.18C42.8501 86.67 41.4501 84.37 40.1501 82.35C39.0879 80.6248 37.7066 79.1179 36.0801 77.91C34.0198 76.2777 31.8698 74.762 29.6401 73.37C28.8101 72.9 27.5501 72.37 26.7701 73.27C25.1101 75.13 28.2101 77.11 29.4201 78.01C29.993 78.3533 30.4709 78.8346 30.8101 79.41C31.3601 80.74 30.3201 81.15 28.9601 81.28C27.7187 81.38 26.4714 81.38 25.2301 81.28C23.9101 81.18 19.3401 80.71 18.4401 81.01C17.1301 81.44 18.0001 82.71 18.8301 83.17C19.6426 83.5196 20.5286 83.6638 21.4101 83.59C22.1011 83.5612 22.7931 83.6184 23.4701 83.76C22.4701 83.76 21.4701 83.7 20.4101 83.66C19.3501 83.62 17.5401 83.09 16.9701 84.14C16.7747 84.5717 16.7564 85.0627 16.9191 85.5076C17.0818 85.9526 17.4124 86.3161 17.8401 86.52C18.0105 86.61 18.1921 86.6773 18.3801 86.72C18.3565 86.7651 18.3365 86.8119 18.3201 86.86C18.266 87.089 18.2621 87.3269 18.3086 87.5575C18.3552 87.7882 18.4511 88.0059 18.5898 88.196C18.7286 88.386 18.9068 88.5437 19.1122 88.6584C19.3177 88.773 19.5455 88.8418 19.7801 88.86C20.1093 88.9273 20.4441 88.9641 20.7801 88.97C20.642 89.0848 20.5353 89.2327 20.4701 89.4C19.7601 91.12 22.6601 91.64 23.7001 91.78C27.2801 92.3 30.7001 90.72 34.2701 91.43C35.6759 91.6796 37.0127 92.225 38.1918 93.0301C39.371 93.8352 40.3657 94.8816 41.1101 96.1C41.7201 99.1 42.6201 102.6 45.2001 104.67C46.4645 105.602 47.9735 106.145 49.542 106.232C51.1105 106.319 52.6703 105.947 54.0301 105.16C59.5801 102.23 62.1601 96.56 62.5801 90.38C63.1898 96.1196 63.3003 101.901 62.9101 107.66C62.5901 112.15 60.3601 118.75 64.9101 121.9C64.0249 120.506 63.4336 118.947 63.1722 117.317C62.9109 115.687 62.985 114.02 63.3901 112.42C63.8336 109.699 64.0477 106.946 64.0301 104.19C64.2501 98.68 62.8601 85.77 62.7601 84.95C62.6901 84.39 61.5801 84.19 61.6501 84.77C62.4301 91.09 60.6501 98.38 55.7301 102.86C52.9101 105.41 48.3701 106.49 45.3601 103.6C44.0303 102.204 43.0981 100.478 42.6601 98.6C43.047 99.1877 43.562 99.6802 44.1664 100.04C44.7709 100.401 45.449 100.619 46.1501 100.68C48.3301 100.74 49.8001 98.78 50.2801 96.92C50.5402 95.8454 50.5585 94.7264 50.3337 93.6439C50.1088 92.5614 49.6465 91.5422 48.9801 90.66C48.604 90.1175 48.1372 89.6439 47.6001 89.26C46.1101 88.26 46.4401 87.35 46.3701 87.35C46.3091 86.8438 46.326 86.3312 46.4201 85.83C46.7601 83.78 47.1601 81.73 47.6001 79.7C48.4401 75.76 49.4501 71.85 50.6001 68C51.7101 64.37 52.6001 60.14 55.6001 57.47C58.6001 54.8 62.3701 53.24 65.7001 51.34L76.6001 45.12C76.6089 45.1755 76.6257 45.2294 76.6501 45.28C76.6694 45.3351 76.6998 45.3857 76.7393 45.4287C76.7789 45.4717 76.8268 45.5061 76.8801 45.53C79.4801 48.03 82.7201 49.96 86.4701 50.06C90.5801 50.16 93.1501 47.88 95.9601 45.33C101.16 47.99 106.39 50.59 111.55 53.33C114.159 54.5585 116.274 56.6348 117.55 59.22C118.88 61.94 120 64.77 121.18 67.55C123.18 72.26 124.87 77.12 127.05 81.75C128.57 84.95 130.98 87.88 134.55 88.58C131.1 91.1 131.15 96.65 133.09 100.17C133.447 100.856 134.03 101.396 134.74 101.7C132.74 103.22 130.55 104.63 127.97 104.65C124.78 104.65 122.22 101.97 120.17 99.87C116.382 95.9785 113.509 91.2915 111.76 86.15C111.68 85.91 110.39 85.61 110.41 86.09C110.76 92.09 110.67 98.38 111.59 104.36C112.23 108.6 118.59 116.84 112.49 119.66C111.96 119.91 112.43 120.66 112.96 120.43C118.01 118.09 115.4 112.17 113.8 108.54C112.2 104.91 112.28 101 112.06 97C111.88 94 111.71 90.91 111.54 87.86C113.716 93.4871 117.223 98.5034 121.76 102.48C123.83 104.28 125.94 105.75 128.86 105.48C131.78 105.21 133.98 103.48 136.11 101.84C136.356 101.807 136.598 101.747 136.83 101.66C138.55 100.99 139.1 99.28 139.34 97.66L139.62 97.45C140.52 96.74 141.37 95.97 142.2 95.19C142.589 94.7457 143.018 94.3374 143.48 93.97C144.79 93.1 145.78 93.45 147.29 93.67C150.1 94.0779 152.942 94.2318 155.78 94.13C157.21 94.08 158.64 93.95 160.06 93.76C160.8 93.66 162.96 93.67 162.62 92.38C162.55 92.12 162.27 91.94 162.05 91.8C161.47 91.45 161.27 91.57 160.67 91.38C161.503 91.4274 162.34 91.3737 163.16 91.22C164.31 90.99 165.47 90.22 165.05 89.22C165.92 89.17 166.84 88.98 167.19 88.22C168 86.48 165.3 85.87 162.63 85.64ZM46.7701 89.71C47.6073 90.3217 48.2983 91.1119 48.7929 92.0233C49.2875 92.9347 49.5735 93.9446 49.6301 94.98C49.6901 96.88 48.6301 99.86 46.2101 99.79C45.5306 99.6936 44.8843 99.4352 44.3256 99.0367C43.767 98.6381 43.3123 98.1111 43.0001 97.5C42.4901 95 37.5101 90.81 33.3101 90.33C30.8101 90.05 28.5201 90.94 26.0401 91C25.2938 91.0151 24.5476 90.965 23.8101 90.85C23.3237 90.7881 22.8425 90.6912 22.3701 90.56C19.9101 89.93 21.7701 89.07 25.0501 88.96C25.8801 88.96 26.8501 88.96 27.6801 88.96C28.2701 88.96 28.1801 87.96 27.5901 87.96C26.2401 87.96 24.8801 87.89 23.5401 88.01C22.7096 88.095 21.8737 88.115 21.0401 88.07C20.5872 88.0533 20.1407 87.9586 19.7201 87.79C19.4101 87.65 19.0801 87.37 19.1701 86.99C19.2201 86.76 20.5101 86.74 20.8401 86.71C22.6461 86.5032 24.4729 86.5672 26.2601 86.9C26.8401 87.01 27.0901 86.15 26.5001 86.04C25.2228 85.7852 23.9224 85.6645 22.6201 85.68C21.9901 85.68 21.3701 85.75 20.7401 85.82L19.6301 85.95C17.6301 86.11 17.6301 84.53 18.1601 84.53H23.7001C24.5601 84.53 25.3701 84.7 26.2201 84.7C26.3266 84.684 26.4239 84.6303 26.4942 84.5486C26.5645 84.4669 26.6032 84.3628 26.6032 84.255C26.6032 84.1473 26.5645 84.0431 26.4942 83.9614C26.4239 83.8797 26.3266 83.826 26.2201 83.81H25.3101C23.1201 83.2 18.6601 83.09 18.9501 82.1C18.9501 81.54 23.9501 82.19 26.5201 82.3C27.7401 82.35 30.5201 82.61 31.5201 81.67C33.4301 79.93 30.5201 77.83 29.2301 76.9C28.6901 76.5 25.4501 73.51 28.9101 74.09C29.8301 74.24 31.3001 75.73 32.0101 76.23C34.4501 77.95 37.0101 79.5 38.7401 81.96C39.6003 83.3526 40.5489 84.6887 41.5801 85.96C42.1059 86.5741 42.7231 87.1037 43.4101 87.53C43.7602 87.7309 44.1285 87.8984 44.5101 88.03C45.5701 88.29 46.0001 89.08 46.7701 89.71ZM79.4701 4.38002C81.0323 3.02942 82.9981 2.23464 85.0601 2.12001C88.9201 1.83001 92.0601 4.06001 95.0601 6.02001C96.3601 6.85001 98.6201 7.75001 99.4601 9.02001C99.9253 9.58076 100.171 10.2917 100.15 11.02C99.8201 12.39 97.5001 12.39 96.4601 12.41C95.4201 12.43 94.5301 12.41 93.5601 12.41C91.5361 12.2758 89.5281 11.9612 87.5601 11.47C86.4901 11.2 85.4301 10.89 84.3901 10.53C82.726 10.012 81.1258 9.30756 79.6201 8.43001C77.9001 7.30001 78.0001 5.73002 79.4701 4.38002ZM73.0701 15.65C72.9105 14.7783 72.9358 13.8829 73.1442 13.0216C73.3527 12.1603 73.7396 11.3523 74.2801 10.65C74.6701 10.15 77.4301 8.14003 77.4501 7.82002C77.4428 7.91294 77.4691 8.00534 77.5241 8.08055C77.5792 8.15576 77.6593 8.2088 77.7501 8.23003C78.5424 9.20355 79.6556 9.86295 80.8901 10.09C80.0824 10.9711 79.0835 11.6553 77.9701 12.09C77.8547 12.1205 77.7562 12.1956 77.6962 12.2988C77.6362 12.4019 77.6196 12.5247 77.6501 12.64C78.6501 16.69 78.3301 22.33 77.7801 27C77.183 25.8731 76.1833 25.0126 74.9801 24.59C74.3201 21.62 73.5001 18.64 73.0701 15.65ZM83.3001 40.74C86.8888 42.2307 90.8048 42.7581 94.6601 42.27C94.4719 43.1909 94.5027 44.1432 94.7501 45.05C94.77 45.1114 94.8005 45.169 94.8401 45.22C92.4401 47.38 90.1401 49.22 86.5701 49.16C83.0001 49.1 80.0601 47.23 77.6301 44.89C77.4301 40.89 77.2334 36.89 77.0401 32.89C77.3501 32.65 77.2701 32.06 76.7901 32.1C75.9804 32.186 75.1642 32.0137 74.4583 31.6077C73.7524 31.2018 73.193 30.5831 72.8601 29.84C72.5245 29.0559 72.496 28.1742 72.7801 27.37C72.9598 26.9279 73.2172 26.5215 73.5401 26.17C73.7082 25.9535 73.8956 25.7527 74.1001 25.57C74.2411 25.4823 74.4039 25.4358 74.5701 25.4358C74.7362 25.4358 74.899 25.4823 75.0401 25.57C75.2809 25.6838 75.5117 25.8176 75.7301 25.97C76.1504 26.2768 76.5128 26.6561 76.8001 27.09C77.3793 27.9753 77.5843 29.054 77.3701 30.09C77.2501 30.65 78.1301 30.89 78.2601 30.33C78.2601 30.33 78.2601 30.24 78.2601 30.2C79.0001 25.13 79.7701 17.78 78.6001 12.8C79.4562 12.3264 80.2812 11.7987 81.0701 11.22C82.0001 10.61 81.8901 10.61 82.9801 11.03C83.7467 11.33 84.5267 11.6 85.3201 11.84C88.7984 12.9109 92.4207 13.4405 96.0601 13.41C96.9837 13.4363 97.9077 13.3761 98.8201 13.23C99.6001 19.82 100.82 26.56 100.59 33.18C100.47 37.08 99.2901 40.3 94.9901 41.18C91.216 41.9124 87.3092 41.5015 83.7701 40C83.2301 39.75 82.7601 40.52 83.3001 40.74ZM137.3 100.31C135.96 101.26 135.39 100.1 135.39 100.1C136.404 99.6154 137.377 99.0503 138.3 98.41C138.26 98.57 138.64 99.36 137.29 100.31H137.3ZM166.41 87.79C166.21 88.18 165.41 88.24 165.08 88.25H163.78C160.771 88.2686 157.763 88.0781 154.78 87.68C154.19 87.61 154.2 88.5 154.78 88.58C156.37 88.79 157.97 88.94 159.57 89.04C160.38 89.09 161.2 89.12 162.01 89.14C162.63 89.045 163.26 89.045 163.88 89.14C164.36 89.31 164.31 89.71 163.88 89.95C163.068 90.3301 162.175 90.5052 161.28 90.46C160.476 90.4334 159.674 90.3566 158.88 90.23C158.064 90.1302 157.242 90.0801 156.42 90.08H154.97C154.6 90.08 153.97 89.88 153.91 90.4C153.91 90.57 154.03 90.72 154.14 90.84C154.7 91.45 155.74 91.36 156.47 91.4C157.47 91.4 158.47 91.5 159.47 91.63C159.865 91.6768 160.257 91.7536 160.64 91.86C160.89 91.93 161.43 92.02 161.55 92.27C161.67 92.52 161.79 93.01 161.21 93.01C160.43 93.01 159.68 93.24 158.91 93.31C158.14 93.38 157.46 93.31 156.74 93.36C154.068 93.4048 151.395 93.2745 148.74 92.97C147.571 92.6923 146.372 92.558 145.17 92.57C143.659 92.8674 142.288 93.6547 141.27 94.81C140.59 95.45 138.48 97.12 138.48 97.16C137.088 98.2232 135.566 99.1037 133.95 99.78C133.29 98.93 133.08 96.78 132.95 96.01C132.54 93.06 133.27 90.01 136.27 88.67C136.483 88.5935 136.7 88.53 136.92 88.48C138.894 88.0197 140.781 87.2466 142.51 86.19C143.17 85.69 143.51 85.43 143.62 84.67C143.665 83.9838 143.9 83.3237 144.299 82.7637C144.699 82.2038 145.246 81.7662 145.88 81.5C148.45 80.05 150.99 78.5 153.61 77.15L154.61 76.68C154.99 76.31 157.29 76.68 154.72 78.42C154.51 78.69 153.64 78.95 153.31 79.13C152.742 79.3965 152.247 79.7982 151.87 80.3C151.518 80.7378 151.349 81.295 151.4 81.8545C151.45 82.414 151.716 82.9321 152.14 83.3C153.14 84.02 154.76 83.49 155.89 83.4L160 83.09C160.76 83.03 161.52 82.87 162.28 82.77C162.73 82.71 163.18 82.66 163.63 82.64C164.08 82.62 165.12 82.51 165.46 82.96C165.8 83.41 165.1 83.96 164.68 84.2C164.269 84.3905 163.836 84.5282 163.39 84.61C162.78 84.76 162.15 84.85 161.54 84.97L159.18 85.41C158.89 85.47 156.46 85.76 157.52 86.5C158.062 86.7463 158.678 86.775 159.24 86.58C159.905 86.5086 160.575 86.5086 161.24 86.58C162.668 86.6279 164.089 86.7918 165.49 87.07C165.81 87.08 166.66 87.28 166.4 87.79H166.41Z" fill="#231F20"/>
<path d="M64.9998 122C64.967 122.009 64.9325 122.009 64.8998 122C61.2298 119.45 61.8998 114.75 62.4998 110.61C62.6498 109.56 62.7998 108.61 62.8598 107.66C63.2362 102.3 63.1626 96.9178 62.6398 91.57C61.9198 97.9 58.9298 102.74 54.1398 105.26C52.762 106.059 51.1804 106.438 49.59 106.349C47.9996 106.26 46.47 105.708 45.1898 104.76C42.6798 102.76 41.7298 99.42 41.0698 96.13C40.3207 94.9399 39.3334 93.9177 38.17 93.1277C37.0066 92.3378 35.6923 91.7972 34.3098 91.54C32.4917 91.2756 30.6419 91.3229 28.8398 91.68C27.1587 91.994 25.4416 92.0681 23.7398 91.9C21.9798 91.65 20.8398 91.16 20.4598 90.49C20.3703 90.3169 20.3237 90.1248 20.3237 89.93C20.3237 89.7351 20.3703 89.5431 20.4598 89.37C20.5005 89.2648 20.5579 89.1669 20.6298 89.08C20.3642 89.0622 20.1001 89.0255 19.8398 88.97C19.5949 88.9515 19.3569 88.8806 19.1419 88.7619C18.9269 88.6433 18.74 88.4797 18.5939 88.2823C18.4477 88.085 18.3458 87.8585 18.2951 87.6182C18.2443 87.378 18.2459 87.1296 18.2998 86.89V86.84C18.1475 86.799 18 86.742 17.8598 86.67C17.3793 86.4007 17.0211 85.9566 16.8598 85.43C16.7891 85.2167 16.7633 84.9911 16.7839 84.7674C16.8046 84.5437 16.8713 84.3267 16.9798 84.13C17.3698 83.42 18.2998 83.38 19.1898 83.46L18.8798 83.32C18.5738 83.17 18.3112 82.9442 18.1169 82.6642C17.9226 82.3842 17.8031 82.0592 17.7698 81.72C17.7698 81.48 17.9398 81.15 18.4998 80.96C19.2698 80.7 22.4998 80.96 24.3898 81.14L25.3398 81.22C26.5728 81.3411 27.8139 81.3578 29.0498 81.27C30.0498 81.18 30.6198 80.96 30.8398 80.58C30.9188 80.4251 30.96 80.2538 30.96 80.08C30.96 79.9062 30.9188 79.7348 30.8398 79.58C30.557 79.0733 30.1468 78.6493 29.6498 78.35L29.4798 78.23L29.1498 77.99C28.1498 77.26 26.4698 76.04 26.3298 74.72C26.3047 74.4666 26.3357 74.2107 26.4203 73.9705C26.505 73.7304 26.6414 73.5117 26.8198 73.33C27.4498 72.62 28.4898 72.65 29.8198 73.41C31.6213 74.4949 33.3515 75.694 34.9998 77L36.2498 77.93C37.8881 79.1499 39.2795 80.6702 40.3498 82.41L40.4798 82.6C41.6898 84.48 43.0498 86.6 45.2998 87.16C45.3347 86.6887 45.4049 86.2208 45.5098 85.76C45.5098 85.57 45.5798 85.39 45.6098 85.22C45.9198 83.43 46.2598 81.64 46.6098 79.89C47.3198 76.5 48.1698 73.1 49.1398 69.78L49.4798 68.57C50.9298 63.48 52.4798 58.21 57.3798 55.09C61.6298 52.41 66.1298 49.91 70.4898 47.5C72.4898 46.39 74.5698 45.24 76.5898 44.09L76.0598 33.09C75.0843 33.0563 74.1447 32.7133 73.3771 32.1104C72.6094 31.5075 72.0535 30.6761 71.7896 29.7363C71.5257 28.7966 71.5676 27.7973 71.9092 26.8829C72.2508 25.9685 72.8744 25.1865 73.6898 24.65C73.7683 24.5985 73.857 24.5644 73.9498 24.55C73.7798 23.8 73.5998 23.04 73.4198 22.27C72.9298 20.18 72.4198 18.01 72.0798 15.87C71.7371 14.0597 72.0945 12.1868 73.0798 10.63C74.2733 9.20161 75.696 7.98162 77.2898 7.01997C77.0198 4.82997 79.2098 3.01999 81.3698 2.06999C87.0898 -0.47001 91.9198 2.68997 96.5798 5.73997L97.7598 6.50999L97.9398 6.62999C99.5898 7.68999 102.08 9.28999 101.23 11.63C101.115 11.937 100.939 12.2181 100.715 12.4567C100.49 12.6954 100.219 12.8868 99.9198 13.02C100.05 14.22 100.19 15.42 100.33 16.62C100.71 19.87 101.11 23.23 101.42 26.54C101.42 26.82 101.42 27.12 101.5 27.41C101.83 30.83 102.21 34.7 100.92 37.91C100.476 38.9806 99.7796 39.9275 98.8896 40.6695C97.9995 41.4115 96.9427 41.9264 95.8098 42.17C95.6084 42.907 95.581 43.6806 95.7298 44.43C95.8678 44.3749 96.0217 44.3749 96.1598 44.43C96.2288 44.3985 96.3039 44.3822 96.3798 44.3822C96.4557 44.3822 96.5307 44.3985 96.5998 44.43C98.2998 45.3033 100.003 46.17 101.71 47.03C105.06 48.74 108.52 50.51 111.91 52.27C113.83 53.1295 115.549 54.3793 116.96 55.94C118.04 57.4114 118.909 59.0272 119.54 60.74C119.67 61.05 119.8 61.35 119.94 61.66C122 66.39 124.02 71.18 125.94 75.9C126.13 76.36 126.31 76.84 126.51 77.33C128.27 81.89 130.51 87.56 136.15 87.71C136.264 87.6873 136.375 87.6503 136.48 87.6L136.75 87.49L137.55 87.26C138.927 86.9598 140.243 86.4253 141.44 85.68C141.796 85.4519 142.096 85.1465 142.318 84.7863C142.539 84.4262 142.677 84.0207 142.72 83.6C142.786 83.0706 142.982 82.5658 143.29 82.13C143.917 81.4398 144.688 80.8968 145.55 80.54C145.8 80.42 146.04 80.3 146.25 80.18L150.5 77.78C150.799 77.6148 151.089 77.4345 151.37 77.24C152.75 76.34 154.64 75.1 156.03 75.77C156.265 75.8627 156.472 76.0145 156.632 76.2106C156.791 76.4068 156.897 76.6408 156.94 76.89C156.965 77.222 156.91 77.5551 156.779 77.8613C156.649 78.1676 156.447 78.438 156.19 78.65C155.761 79.0023 155.283 79.2888 154.77 79.5C154.479 79.6272 154.195 79.7708 153.92 79.93C152.92 80.53 152.52 81.06 152.67 81.5C152.818 81.8605 153.068 82.1698 153.39 82.39C153.963 82.5796 154.576 82.6208 155.17 82.51H155.47C155.79 82.51 156.11 82.44 156.47 82.4C156.774 82.3479 157.081 82.3112 157.39 82.29L162.87 81.87L163.6 81.77C164.382 81.5306 165.218 81.5306 166 81.77C166.172 81.8765 166.315 82.0231 166.418 82.1973C166.521 82.3715 166.58 82.568 166.59 82.77C166.602 83.1221 166.54 83.4728 166.41 83.7999C166.279 84.127 166.081 84.4233 165.83 84.67C165.169 85.1891 164.375 85.5114 163.54 85.6C165.75 85.86 167.03 86.34 167.44 87.06C167.539 87.2391 167.591 87.4404 167.591 87.645C167.591 87.8496 167.539 88.0509 167.44 88.23C167.207 88.563 166.893 88.8302 166.527 89.0054C166.16 89.1807 165.755 89.2581 165.35 89.23C165.396 89.3772 165.411 89.5323 165.394 89.6855C165.376 89.8388 165.327 89.9867 165.25 90.12C165.024 90.4323 164.738 90.696 164.408 90.8953C164.078 91.0946 163.711 91.2254 163.33 91.28C162.825 91.3794 162.314 91.4363 161.8 91.45C161.957 91.5067 162.108 91.5804 162.25 91.67C162.532 91.7999 162.753 92.0324 162.87 92.32C162.911 92.4449 162.923 92.5778 162.904 92.7081C162.885 92.8384 162.836 92.9623 162.76 93.07C162.38 93.62 161.31 93.72 160.6 93.78H160.23C158.82 93.98 157.37 94.1 155.94 94.16C153.095 94.2609 150.246 94.1036 147.43 93.69L146.79 93.59C146.276 93.427 145.732 93.3774 145.197 93.4447C144.662 93.5121 144.148 93.6947 143.69 93.98C143.381 94.2038 143.099 94.4621 142.85 94.75C142.71 94.9 142.57 95.05 142.42 95.19C141.42 96.13 140.62 96.83 139.84 97.45L139.68 97.57L139.59 97.64C139.38 99.04 138.88 100.96 137.02 101.69C136.788 101.78 136.546 101.841 136.3 101.87C134.17 103.56 131.85 105.22 129.02 105.52C125.94 105.84 123.7 104.14 121.84 102.52C117.472 98.686 114.05 93.8947 111.84 88.52L112.32 97.01C112.32 97.47 112.32 97.93 112.4 98.39C112.58 101.91 112.74 105.24 114.16 108.46C115.75 112.07 118.41 118.11 113.26 120.46C113.188 120.493 113.11 120.512 113.03 120.515C112.951 120.518 112.871 120.505 112.797 120.477C112.723 120.449 112.654 120.407 112.597 120.352C112.539 120.298 112.492 120.233 112.46 120.16C112.43 120.1 112.413 120.034 112.409 119.967C112.406 119.901 112.416 119.834 112.44 119.771C112.463 119.708 112.499 119.651 112.546 119.602C112.592 119.554 112.648 119.516 112.71 119.49C116.97 117.49 115 112.82 113.26 108.68C112.594 107.284 112.084 105.818 111.74 104.31C111.182 100.078 110.868 95.8178 110.8 91.55C110.74 89.73 110.67 87.85 110.57 86.02C110.57 85.94 110.57 85.73 110.89 85.67C111.21 85.61 112.03 85.79 112.12 86.05C113.863 91.1756 116.725 95.8487 120.5 99.73L120.66 99.89C122.66 101.89 125.14 104.47 128.19 104.47C130.69 104.47 132.82 103.12 134.75 101.66C134.091 101.334 133.555 100.804 133.22 100.15C131.22 96.55 131.31 91.15 134.52 88.57C130.72 87.71 128.44 84.39 127.18 81.72C125.83 78.87 124.65 75.87 123.51 72.98C122.8 71.18 122.07 69.33 121.31 67.52C121.03 66.88 120.76 66.23 120.49 65.57C119.61 63.46 118.7 61.28 117.68 59.19C116.403 56.6195 114.286 54.5626 111.68 53.36C108.23 51.53 104.68 49.73 101.25 47.99C99.5498 47.13 97.8531 46.2666 96.1598 45.4C93.4798 47.83 90.9398 50.12 86.9298 50.12H86.6498C83.2998 50.04 80.0498 48.51 76.9998 45.58C76.8731 45.5154 76.7763 45.4043 76.7298 45.27L65.9498 51.42C65.0498 51.94 64.0798 52.42 63.1498 52.94C60.5468 54.1748 58.1025 55.7193 55.8698 57.54C53.2898 59.85 52.2698 63.3 51.2898 66.64C51.1598 67.1 51.0198 67.56 50.8798 68.02C49.7098 71.83 48.6898 75.77 47.8798 79.71C47.3998 81.95 47.0198 83.96 46.7098 85.84C46.6324 86.3202 46.6324 86.8098 46.7098 87.29C46.7151 87.3332 46.7151 87.3768 46.7098 87.42C46.7098 87.65 46.7098 88.35 47.8798 89.16C48.4268 89.5541 48.9035 90.0375 49.2898 90.59C49.9663 91.4827 50.4357 92.5147 50.664 93.6113C50.8923 94.7078 50.8738 95.8415 50.6098 96.93C50.0998 98.86 48.6098 100.78 46.4598 100.78H46.3598C45.7304 100.742 45.1165 100.57 44.5593 100.275C44.0021 99.9804 43.5146 99.5693 43.1298 99.07C43.5853 100.732 44.452 102.252 45.6498 103.49C48.6498 106.33 53.1398 105.22 55.8798 102.74C61.2498 97.87 62.4398 90.25 61.7698 84.74C61.7569 84.6714 61.7631 84.6006 61.7878 84.5353C61.8125 84.4701 61.8547 84.4128 61.9098 84.37C62.0192 84.3122 62.141 84.282 62.2648 84.282C62.3885 84.282 62.5104 84.3122 62.6198 84.37C62.7391 84.4129 62.8453 84.4862 62.9277 84.5827C63.0101 84.6791 63.066 84.7954 63.0898 84.92C63.0898 85.04 64.5898 98.45 64.3598 104.17C64.3598 104.71 64.3598 105.24 64.3098 105.78C64.304 108.007 64.1032 110.228 63.7098 112.42C63.3306 113.978 63.2626 115.595 63.5097 117.179C63.7568 118.762 64.3142 120.282 65.1498 121.65C65.2798 121.85 65.3198 121.91 65.2498 121.98C65.2445 122.008 65.2301 122.033 65.2089 122.053C65.1877 122.072 65.1608 122.083 65.1324 122.085C65.104 122.088 65.0756 122.081 65.0516 122.065C65.0277 122.05 65.0095 122.027 64.9998 122ZM62.7498 90.33C63.3597 96.0796 63.4701 101.871 63.0798 107.64C63.0098 108.56 62.8698 109.55 62.7098 110.64C62.1498 114.57 61.5098 119.01 64.6398 121.54C63.0508 118.776 62.5853 115.507 63.3398 112.41C63.7267 110.228 63.9208 108.016 63.9198 105.8C63.9198 105.26 63.9198 104.73 63.9798 104.19C64.1998 98.49 62.7198 85.1 62.7098 84.97C62.689 84.8846 62.6469 84.8059 62.5874 84.7412C62.528 84.6765 62.4531 84.6279 62.3698 84.6C62.2917 84.5627 62.2063 84.5434 62.1198 84.5434C62.0332 84.5434 61.9478 84.5627 61.8698 84.6C61.8448 84.6199 61.826 84.6463 61.8154 84.6764C61.8048 84.7064 61.8028 84.7389 61.8098 84.77C62.4898 90.34 61.2898 98.04 55.8098 102.96C52.9998 105.51 48.3498 106.63 45.2998 103.7C43.9538 102.311 43.0103 100.583 42.5698 98.7L42.4098 98.17L42.7498 98.61C43.1268 99.1825 43.6304 99.6606 44.2217 100.007C44.813 100.354 45.4761 100.56 46.1598 100.61H46.2498C48.3098 100.61 49.7098 98.77 50.1898 96.92C50.4485 95.8627 50.4678 94.761 50.2464 93.6952C50.0249 92.6295 49.5683 91.6267 48.9098 90.76C48.5378 90.2264 48.0779 89.7598 47.5498 89.38C46.2698 88.5 46.2798 87.71 46.2898 87.45V87.4C46.2237 86.8839 46.2406 86.3607 46.3398 85.85C46.6498 83.96 47.0298 81.95 47.5098 79.7C48.3598 75.76 49.3798 71.82 50.5098 67.99C50.6498 67.54 50.7798 67.08 50.9198 66.61C51.9198 63.25 52.9198 59.77 55.5498 57.42C57.7999 55.5902 60.2607 54.0358 62.8798 52.79C63.8098 52.3 64.7698 51.79 65.6698 51.28L76.6698 44.98V45.14C76.6657 45.1765 76.6657 45.2134 76.6698 45.25C76.6839 45.2954 76.7072 45.3374 76.7381 45.3735C76.7691 45.4096 76.8071 45.439 76.8498 45.46C79.8498 48.36 83.0798 49.87 86.3698 49.96H86.6398C90.6398 49.96 93.1298 47.68 95.7898 45.26L95.8498 45.21H95.9098L101.06 47.83C104.49 49.57 108.06 51.37 111.5 53.2C114.131 54.4333 116.264 56.5244 117.55 59.13C118.55 61.22 119.48 63.41 120.37 65.52L121.18 67.47C121.95 69.27 122.68 71.13 123.39 72.93C124.53 75.82 125.71 78.81 127.05 81.66C128.31 84.34 130.62 87.66 134.47 88.43L134.71 88.48L134.52 88.63C131.21 91.04 131.11 96.49 133.08 100.08C133.421 100.747 133.988 101.271 134.68 101.56L134.86 101.63L134.71 101.74C132.71 103.28 130.5 104.74 127.88 104.74H128C124.86 104.74 122.34 102.16 120.32 100.09L120.16 99.93C116.36 96.0285 113.48 91.3273 111.73 86.17C111.438 85.9695 111.08 85.8873 110.73 85.94C110.59 85.94 110.6 86.03 110.6 86.06C110.7 87.89 110.77 89.77 110.83 91.59C110.898 95.8512 111.212 100.105 111.77 104.33C112.11 105.82 112.613 107.269 113.27 108.65C114.96 112.65 117.07 117.65 112.62 119.74C112.584 119.754 112.552 119.775 112.525 119.802C112.498 119.83 112.477 119.862 112.464 119.898C112.451 119.934 112.445 119.973 112.448 120.011C112.451 120.049 112.462 120.086 112.48 120.12C112.5 120.166 112.53 120.208 112.567 120.243C112.604 120.278 112.647 120.305 112.695 120.323C112.742 120.34 112.793 120.348 112.844 120.346C112.894 120.344 112.944 120.332 112.99 120.31C117.99 118.02 115.35 112.11 113.79 108.57C112.35 105.31 112.18 101.81 112 98.42C112 97.96 112 97.5 111.93 97.04L111.37 87.23L111.62 87.85C113.798 93.4567 117.293 98.4573 121.81 102.43C124.14 104.43 126.13 105.65 128.81 105.37C131.49 105.09 133.89 103.42 136 101.75C136.236 101.72 136.468 101.659 136.69 101.57C138.47 100.88 138.93 99 139.13 97.64L139.27 97.53L139.41 97.43C140.2 96.8 140.99 96.11 141.99 95.17L142.4 94.75C142.661 94.4468 142.956 94.175 143.28 93.94C143.761 93.6445 144.3 93.4543 144.86 93.3819C145.42 93.3095 145.989 93.3566 146.53 93.52L147.17 93.62C149.973 94.0301 152.808 94.1841 155.64 94.08C157.07 94.03 158.5 93.9 159.91 93.71H160.29C160.92 93.65 161.97 93.56 162.29 93.09C162.344 93.0049 162.379 92.9085 162.391 92.808C162.403 92.7076 162.393 92.6057 162.36 92.51C162.36 92.3 162.08 92.14 161.84 91.99C161.599 91.8339 161.325 91.7379 161.04 91.71C160.85 91.685 160.663 91.6448 160.48 91.59L159.71 91.35H160.52C161.347 91.3887 162.176 91.3317 162.99 91.18C163.337 91.1424 163.674 91.0344 163.978 90.8624C164.282 90.6905 164.548 90.4583 164.76 90.18C164.826 90.05 164.861 89.9061 164.861 89.76C164.861 89.6139 164.826 89.4699 164.76 89.34L164.71 89.2H164.86C165.98 89.14 166.64 88.85 166.86 88.29C166.948 88.138 166.994 87.9655 166.994 87.79C166.994 87.6145 166.948 87.442 166.86 87.29C166.44 86.56 164.93 86.08 162.37 85.85L161.59 85.78L162.35 85.64L162.74 85.57C163.657 85.5034 164.537 85.1812 165.28 84.64C165.51 84.4158 165.691 84.1463 165.811 83.8485C165.932 83.5507 165.989 83.2311 165.98 82.91C165.974 82.7406 165.924 82.5756 165.837 82.4304C165.75 82.2852 165.627 82.1646 165.48 82.08C164.744 81.8723 163.965 81.8723 163.23 82.08C162.95 82.08 162.69 82.17 162.49 82.18L157.01 82.6C156.71 82.6 156.4 82.67 156.1 82.71C155.8 82.75 155.46 82.8 155.1 82.83H154.8C154.161 82.9519 153.502 82.9001 152.89 82.68C152.529 82.4318 152.248 82.0845 152.08 81.68C151.79 80.85 153.02 80.1 153.42 79.86C153.7 79.6955 153.991 79.5486 154.29 79.42C154.783 79.2197 155.242 78.9429 155.65 78.6C155.88 78.4112 156.063 78.1706 156.183 77.8978C156.303 77.6249 156.357 77.3275 156.34 77.03C156.3 76.8175 156.206 76.6187 156.068 76.4524C155.93 76.2862 155.751 76.158 155.55 76.08C154.26 75.46 152.43 76.65 151.1 77.53C150.76 77.75 150.47 77.94 150.22 78.08L145.97 80.48L145.26 80.85C144.425 81.186 143.677 81.7055 143.07 82.37C142.781 82.7786 142.599 83.253 142.54 83.75C142.493 84.1967 142.346 84.6271 142.111 85.0096C141.876 85.3921 141.557 85.7169 141.18 85.96C139.949 86.7253 138.596 87.2733 137.18 87.58C136.9 87.65 136.64 87.73 136.39 87.81L136.13 87.9C136.002 87.9667 135.863 88.0107 135.72 88.03C129.9 87.88 127.67 82.13 125.88 77.52C125.69 77.03 125.5 76.52 125.31 76.09C123.41 71.37 121.4 66.58 119.31 61.85L118.92 60.93C118.287 59.2372 117.426 57.6391 116.36 56.18C114.959 54.6453 113.257 53.4163 111.36 52.57C107.96 50.81 104.5 49.04 101.15 47.33L96.0398 44.73C95.9945 44.7026 95.9427 44.6882 95.8898 44.6882C95.8369 44.6882 95.785 44.7026 95.7398 44.73H95.6898H95.6398C95.5842 44.6908 95.5178 44.6698 95.4498 44.6698C95.3818 44.6698 95.3154 44.6908 95.2598 44.73L95.1298 44.83V44.66C94.9376 43.8143 94.9617 42.9339 95.1998 42.1V42.05H95.2598C96.3666 41.8139 97.3997 41.3131 98.2705 40.5903C99.1413 39.8675 99.8239 38.9444 100.26 37.9C101.53 34.74 101.16 30.9 100.83 27.5L100.74 26.63C100.43 23.32 100.04 19.96 99.6598 16.71C99.5198 15.49 99.3698 14.26 99.2398 13.04V12.96H99.3098C99.6002 12.8435 99.8632 12.6678 100.082 12.4439C100.301 12.2201 100.47 11.9531 100.58 11.66C101.37 9.48999 98.9598 7.94998 97.3698 6.92998L97.1898 6.80998L96.0098 6.03999C91.3998 3.03999 86.6198 -0.110013 81.0098 2.37999C78.8998 3.31999 76.7498 5.07998 77.0698 7.18998V7.26997H76.9998C75.4139 8.2141 73.9976 9.41745 72.8098 10.83C71.8585 12.3483 71.5257 14.1736 71.8798 15.93C72.2098 18.06 72.7198 20.23 73.2198 22.32C73.4098 23.12 73.5998 23.93 73.7798 24.74V24.91H73.6098C73.5672 24.8971 73.5221 24.8949 73.4785 24.9036C73.4349 24.9123 73.3941 24.9317 73.3598 24.96C72.5805 25.4795 71.9874 26.2342 71.6666 27.1141C71.3459 27.9941 71.3143 28.9534 71.5765 29.8525C71.8386 30.7517 72.3808 31.5437 73.1242 32.1134C73.8676 32.683 74.7734 33.0006 75.7098 33.02H75.8098L76.3598 44.31H76.2998C74.2998 45.48 72.1698 46.64 70.1398 47.76C65.7898 50.17 61.2898 52.66 57.0398 55.34C52.1698 58.41 50.7398 63.41 49.2398 68.7C49.1198 69.1 49.0098 69.51 48.8898 69.91C47.8898 73.23 47.0798 76.62 46.3698 80.01C45.9998 81.75 45.6598 83.54 45.3698 85.32C45.3698 85.5 45.3098 85.68 45.2698 85.87C45.1551 86.3627 45.0848 86.8647 45.0598 87.37V87.49H44.9298C42.5198 86.98 41.0998 84.76 39.8498 82.8L39.7198 82.61C38.6756 80.9015 37.3186 79.4054 35.7198 78.2L34.4698 77.26C32.8212 75.9544 31.0911 74.7553 29.2898 73.67C28.4298 73.17 27.2898 72.75 26.5498 73.54C26.3896 73.6994 26.267 73.8925 26.1909 74.1053C26.1148 74.3181 26.0871 74.5451 26.1098 74.77C26.2398 75.99 27.8698 77.18 28.8498 77.89L29.1798 78.13L29.3398 78.25C29.8752 78.5663 30.3143 79.0227 30.6098 79.57C30.7063 79.7588 30.7567 79.9679 30.7567 80.18C30.7567 80.3921 30.7063 80.6012 30.6098 80.79C30.3398 81.23 29.7198 81.49 28.6098 81.59C27.3603 81.6748 26.1059 81.6547 24.8598 81.53L23.9098 81.45C22.1398 81.3 18.8398 81.02 18.1098 81.26C17.7398 81.38 17.5398 81.58 17.5198 81.84C17.4698 82.31 17.9998 82.94 18.5198 83.23C19.2655 83.554 20.079 83.6913 20.8898 83.63H21.2098C21.8548 83.61 22.4997 83.6705 23.1298 83.81L23.9398 84.02H23.1098C22.2998 84.02 21.4898 84.02 20.6998 83.94H20.0498C19.8051 83.9337 19.5612 83.9103 19.3198 83.87C18.3198 83.76 17.1198 83.61 16.6998 84.37C16.5188 84.7187 16.4828 85.1249 16.5998 85.5C16.7525 85.9744 17.0819 86.3719 17.5198 86.61C17.6875 86.6959 17.8656 86.7598 18.0498 86.8H18.1898L18.1198 86.92C18.095 86.9524 18.0779 86.99 18.0698 87.03C18.0234 87.2424 18.0231 87.4623 18.069 87.6749C18.1148 87.8874 18.2057 88.0877 18.3356 88.2621C18.4654 88.4365 18.6312 88.581 18.8217 88.6859C19.0122 88.7908 19.223 88.8535 19.4398 88.87C19.7698 88.9325 20.1041 88.9693 20.4398 88.98H20.7198L20.5098 89.15C20.3855 89.257 20.2864 89.3902 20.2198 89.54C20.1444 89.6834 20.1051 89.843 20.1051 90.005C20.1051 90.167 20.1444 90.3266 20.2198 90.47C20.5698 91.08 21.6498 91.53 23.3398 91.78C25.0086 91.9392 26.6914 91.8651 28.3398 91.56C30.1655 91.2028 32.0383 91.1555 33.8798 91.42C35.3079 91.6723 36.6654 92.2277 37.8608 93.0488C39.0562 93.8698 40.0618 94.9375 40.8098 96.18C41.4598 99.43 42.3998 102.71 44.8098 104.69C46.0604 105.606 47.5504 106.14 49.0985 106.225C50.6466 106.31 52.1861 105.944 53.5298 105.17C58.5298 102.52 61.5298 97.3 62.0198 90.47L62.7498 90.33ZM136.3 100.79C136.21 100.805 136.119 100.805 136.03 100.79C135.868 100.745 135.718 100.668 135.587 100.563C135.457 100.458 135.349 100.328 135.27 100.18V100.09L135.37 100.04C136.379 99.5571 137.349 98.9954 138.27 98.36L138.5 98.2L138.44 98.47C138.436 98.5032 138.436 98.5368 138.44 98.57C138.44 98.88 138.56 99.57 137.39 100.44C137.075 100.667 136.698 100.789 136.31 100.79H136.3ZM135.52 100.14C135.656 100.335 135.853 100.479 136.08 100.55C136.282 100.58 136.489 100.566 136.686 100.509C136.882 100.452 137.064 100.353 137.22 100.22C138.22 99.51 138.22 98.91 138.22 98.6C137.362 99.178 136.463 99.6927 135.53 100.14H135.52ZM133.91 99.9L133.86 99.84C133.283 98.739 132.943 97.53 132.86 96.29V96.01C132.37 92.44 133.6 89.73 136.25 88.56L136.68 88.43L136.91 88.37L137.39 88.22C139.186 87.7966 140.9 87.0768 142.46 86.09C143.13 85.59 143.4 85.36 143.53 84.64C143.581 83.9387 143.824 83.2652 144.234 82.6935C144.643 82.1218 145.202 81.6742 145.85 81.4L148.21 80.04C149.96 79.04 151.77 77.98 153.59 77.04L154.59 76.59C154.74 76.504 154.908 76.4523 155.081 76.4384C155.254 76.4246 155.427 76.449 155.59 76.51C155.705 76.5399 155.809 76.6018 155.891 76.6885C155.972 76.7752 156.027 76.8832 156.05 77C156.1 77.4 155.69 77.9 154.82 78.49C154.527 78.7317 154.186 78.9089 153.82 79.01C153.663 79.0679 153.509 79.1347 153.36 79.21C152.805 79.471 152.321 79.8621 151.95 80.35C151.625 80.7655 151.47 81.2889 151.516 81.8143C151.563 82.3397 151.807 82.8279 152.2 83.18C153.074 83.5875 154.067 83.6587 154.99 83.38L155.88 83.26L160 83C160.47 83 161 82.89 161.41 82.82L162.28 82.68C162.76 82.62 163.19 82.57 163.64 82.55H163.8C164.36 82.55 165.21 82.47 165.55 82.93C165.613 83.0033 165.657 83.0905 165.68 83.1843C165.702 83.2782 165.702 83.3761 165.68 83.47C165.58 83.88 165.04 84.18 164.73 84.33C164.312 84.5205 163.872 84.6582 163.42 84.74C163.01 84.84 162.57 84.92 162.15 84.99L161.57 85.1L159.21 85.55H159.07C157.73 85.76 157.41 85.99 157.38 86.13C157.35 86.27 157.5 86.36 157.59 86.42C158.028 86.6387 158.535 86.6746 159 86.52H159.23C159.818 86.4601 160.411 86.4601 161 86.52H161.24C162.67 86.5664 164.095 86.727 165.5 87C165.87 87.08 166.38 87.22 166.5 87.53C166.533 87.5932 166.55 87.6635 166.55 87.735C166.55 87.8064 166.533 87.8768 166.5 87.94C166.34 88.25 165.86 88.43 165.08 88.46H163.78C160.77 88.4797 157.763 88.2893 154.78 87.89C154.743 87.8812 154.706 87.8804 154.669 87.8876C154.632 87.8947 154.597 87.9098 154.567 87.9316C154.537 87.9534 154.511 87.9816 154.493 88.0141C154.474 88.0466 154.463 88.0827 154.46 88.12C154.451 88.172 154.453 88.2252 154.466 88.2764C154.479 88.3276 154.502 88.3756 154.534 88.4177C154.565 88.4597 154.605 88.4949 154.651 88.5211C154.697 88.5473 154.747 88.5639 154.8 88.57C156.42 88.78 158.03 88.94 159.58 89.03C160.41 89.08 161.23 89.12 162.03 89.13C162.22 89.13 162.44 89.13 162.67 89.13C163.084 89.0346 163.515 89.0346 163.93 89.13C164.26 89.25 164.33 89.45 164.34 89.56C164.343 89.6774 164.313 89.7934 164.252 89.8943C164.192 89.9952 164.105 90.077 164 90.13C163.174 90.5345 162.257 90.7139 161.34 90.65C160.67 90.644 160.002 90.5906 159.34 90.49L158.9 90.43C158.087 90.3299 157.269 90.2798 156.45 90.28H155.72H154.72C154.32 90.23 154.08 90.23 154.02 90.53C154.02 90.64 154.1 90.75 154.19 90.85C154.73 91.2588 155.407 91.4416 156.08 91.36H156.45C157.38 91.36 158.45 91.46 159.45 91.59C159.848 91.643 160.242 91.7232 160.63 91.83H160.79C161.08 91.9 161.49 92 161.61 92.25C161.663 92.3555 161.69 92.4719 161.69 92.59C161.69 92.708 161.663 92.8244 161.61 92.93C161.561 93.0053 161.492 93.0657 161.411 93.1045C161.33 93.1433 161.239 93.1591 161.15 93.15C160.709 93.1598 160.271 93.21 159.84 93.3C159.51 93.3677 159.176 93.4144 158.84 93.44C158.24 93.49 157.63 93.49 157.04 93.49H156.66C153.987 93.5369 151.315 93.4066 148.66 93.1L147.66 92.92C146.839 92.7198 145.993 92.6456 145.15 92.7C143.66 92.9909 142.31 93.7683 141.31 94.91C140.91 95.28 140.01 96.02 139.31 96.56L138.51 97.22C137.115 98.2953 135.585 99.1829 133.96 99.86L133.91 99.9ZM155.08 76.65C154.936 76.6403 154.793 76.6753 154.67 76.75L153.67 77.21C151.86 78.15 150.05 79.21 148.31 80.21L146 81.58C145.379 81.8409 144.843 82.2688 144.451 82.8161C144.059 83.3633 143.827 84.0085 143.78 84.68C143.721 85.0134 143.586 85.3289 143.387 85.6027C143.188 85.8764 142.929 86.1012 142.63 86.26C141.048 87.2599 139.311 87.9899 137.49 88.42L137.01 88.57L136.78 88.63C136.64 88.6646 136.504 88.708 136.37 88.76C132.75 90.35 132.89 94.34 133.12 95.98V96.26C133.199 97.4317 133.498 98.5782 134 99.64C135.579 98.9704 137.068 98.1035 138.43 97.06C138.5 96.99 138.69 96.83 139.25 96.37C139.81 95.91 140.81 95.09 141.25 94.72C142.291 93.5381 143.7 92.7418 145.25 92.46C146.113 92.3997 146.98 92.474 147.82 92.68L148.82 92.86C151.475 93.1587 154.148 93.2856 156.82 93.24H157.2C157.79 93.24 158.39 93.24 158.98 93.19C159.31 93.19 159.63 93.11 159.98 93.05C160.421 92.9556 160.869 92.902 161.32 92.89C161.46 92.89 161.55 92.89 161.6 92.78C161.661 92.6294 161.661 92.4606 161.6 92.31C161.52 92.15 161.16 92.06 160.92 92L160.75 91.95C160.372 91.8496 159.988 91.7761 159.6 91.73C158.6 91.59 157.54 91.54 156.6 91.49H156.24C155.523 91.5663 154.805 91.358 154.24 90.91C154.164 90.8496 154.104 90.7714 154.066 90.6825C154.028 90.5935 154.012 90.4965 154.02 90.4C154.12 89.9 154.6 89.95 154.95 89.98H155.18H156.63C157.456 89.9828 158.28 90.0363 159.1 90.14L159.54 90.19C160.185 90.2921 160.837 90.3489 161.49 90.36C162.365 90.419 163.24 90.2502 164.03 89.87C164.1 89.8354 164.16 89.7831 164.204 89.7182C164.248 89.6533 164.274 89.5781 164.28 89.5C164.28 89.4 164.17 89.31 164.01 89.25C163.625 89.1593 163.225 89.1593 162.84 89.25C162.617 89.265 162.393 89.265 162.17 89.25C161.38 89.25 160.55 89.2 159.72 89.15C158.16 89.06 156.55 88.91 154.93 88.69C154.849 88.6815 154.77 88.6566 154.699 88.6168C154.628 88.5771 154.566 88.5233 154.517 88.4588C154.467 88.3942 154.431 88.3203 154.411 88.2414C154.391 88.1625 154.387 88.0804 154.4 88C154.407 87.9361 154.427 87.8744 154.459 87.8186C154.491 87.7628 154.534 87.7142 154.586 87.6758C154.637 87.6374 154.696 87.6099 154.759 87.5951C154.822 87.5804 154.886 87.5786 154.95 87.59C157.933 87.9843 160.94 88.1748 163.95 88.16H165.25C165.92 88.16 166.36 88 166.48 87.76C166.499 87.7265 166.509 87.6886 166.509 87.65C166.509 87.6114 166.499 87.5734 166.48 87.54C166.43 87.43 166.23 87.27 165.61 87.13C164.214 86.8616 162.8 86.7011 161.38 86.65H161C160.425 86.5901 159.845 86.5901 159.27 86.65H159.04C158.784 86.7343 158.515 86.7663 158.247 86.7439C157.978 86.7216 157.718 86.6454 157.48 86.52C157.24 86.3466 157.14 86.1767 157.18 86.01C157.27 85.6 158.18 85.4 159.05 85.26H159.18L161.54 84.81L162.13 84.7C162.54 84.63 162.97 84.56 163.38 84.46C163.82 84.3807 164.247 84.2428 164.65 84.05C164.87 83.95 165.4 83.67 165.48 83.33C165.493 83.2687 165.492 83.205 165.477 83.1442C165.461 83.0834 165.431 83.0272 165.39 82.98C165.12 82.61 164.31 82.66 163.82 82.69H163.66C163.211 82.7099 162.764 82.7533 162.32 82.82C162.03 82.82 161.74 82.9 161.45 82.95C160.99 83.02 160.5 83.1 160.03 83.13L155.92 83.45C155.65 83.45 155.35 83.51 155.04 83.56C154.062 83.8601 153.006 83.7742 152.09 83.32C151.645 82.9397 151.367 82.4012 151.312 81.8188C151.258 81.2363 151.433 80.6557 151.8 80.2C152.183 79.6805 152.692 79.2674 153.28 79C153.4 78.93 153.58 78.86 153.76 78.78C154.082 78.6822 154.384 78.5263 154.65 78.32C155.7 77.61 155.82 77.2 155.8 77.02C155.78 76.84 155.61 76.76 155.48 76.71C155.353 76.6715 155.222 76.6513 155.09 76.65H155.08ZM46.2898 99.9H46.1998C45.0098 99.9 43.9398 99.1 42.9298 97.56C42.4098 95.02 37.3598 90.93 33.3298 90.48C31.916 90.3773 30.4948 90.4783 29.1098 90.78C28.1196 90.9733 27.1172 91.0969 26.1098 91.15C25.36 91.1567 24.6109 91.1032 23.8698 90.99C23.3798 90.9351 22.895 90.8415 22.4198 90.71C21.5698 90.49 21.1698 90.24 21.2098 89.93C21.2698 89.3 23.2098 88.93 25.1198 88.93C25.4898 88.93 25.8798 88.93 26.2698 88.93C26.6598 88.93 27.2698 88.93 27.7398 88.93C27.7851 88.9264 27.8292 88.9135 27.8692 88.8921C27.9093 88.8707 27.9446 88.8412 27.9728 88.8055C28.0009 88.7698 28.0214 88.7287 28.0329 88.6847C28.0445 88.6408 28.0468 88.5949 28.0398 88.55C28.0438 88.4966 28.0372 88.443 28.0202 88.3923C28.0031 88.3416 27.9761 88.2947 27.9407 88.2547C27.9052 88.2146 27.8621 88.182 27.8139 88.1589C27.7656 88.1357 27.7132 88.1225 27.6598 88.12H26.3098C25.4127 88.09 24.5146 88.11 23.6198 88.18C22.7824 88.2629 21.9398 88.2796 21.0998 88.23C20.6336 88.2167 20.1733 88.1219 19.7398 87.95C19.5474 87.8887 19.3823 87.7624 19.2728 87.5927C19.1633 87.423 19.1163 87.2205 19.1398 87.02C19.1898 86.8 19.6498 86.74 20.5898 86.68H20.8898C22.7093 86.4761 24.5488 86.5401 26.3498 86.87C26.3993 86.8816 26.4507 86.8826 26.5006 86.8729C26.5505 86.8633 26.5978 86.8431 26.6394 86.8138C26.681 86.7845 26.7159 86.7468 26.7418 86.703C26.7677 86.6593 26.7841 86.6105 26.7898 86.56C26.8002 86.5216 26.802 86.4814 26.7951 86.4423C26.7882 86.4031 26.7727 86.366 26.7498 86.3335C26.7269 86.301 26.697 86.274 26.6625 86.2544C26.6279 86.2348 26.5894 86.223 26.5498 86.22C25.2796 85.9628 23.9856 85.842 22.6898 85.86C22.0898 85.86 21.5098 85.93 20.8198 86.01L19.7198 86.14C19.3993 86.2088 19.0659 86.1873 18.7569 86.0778C18.4479 85.9684 18.1754 85.7752 17.9698 85.52C17.889 85.4048 17.8384 85.2712 17.8227 85.1315C17.807 84.9917 17.8266 84.8502 17.8798 84.72C17.9116 84.6542 17.9613 84.5987 18.0232 84.5598C18.0851 84.5209 18.1567 84.5002 18.2298 84.5H23.7698C24.1998 84.5 24.6298 84.55 25.0398 84.59C25.4498 84.63 25.8698 84.68 26.2898 84.68C26.38 84.68 26.4664 84.6442 26.5302 84.5804C26.594 84.5166 26.6298 84.4302 26.6298 84.34C26.6298 84.2498 26.594 84.1633 26.5302 84.0996C26.4664 84.0358 26.38 84 26.2898 84H25.3598C24.4397 83.7797 23.5083 83.6094 22.5698 83.49C20.8198 83.24 19.2998 83.01 18.9698 82.49C18.9369 82.4424 18.9153 82.388 18.9066 82.3308C18.8979 82.2736 18.9025 82.2152 18.9198 82.16C18.9209 82.1345 18.9278 82.1095 18.9399 82.087C18.952 82.0645 18.9691 82.045 18.9898 82.03C19.3098 81.73 20.9898 81.85 23.8398 82.03C24.8398 82.11 25.8398 82.19 26.5898 82.23H27.0198C28.2898 82.29 30.6598 82.42 31.5698 81.6C31.7603 81.4489 31.9128 81.2554 32.0153 81.0349C32.1177 80.8144 32.1672 80.573 32.1598 80.33C32.0898 79.02 30.1598 77.65 29.2898 76.99C29.0098 76.79 27.0498 75.1 27.3898 74.29C27.5398 73.93 28.0798 73.83 29.0498 73.99C29.9447 74.3306 30.7563 74.8592 31.4298 75.54C31.7298 75.8 31.9898 76.01 32.1898 76.16L33.2898 76.92C35.4595 78.2319 37.3737 79.9259 38.9398 81.92C39.2198 82.32 39.4898 82.73 39.7498 83.13C40.3457 84.0992 41.0143 85.0219 41.7498 85.89C42.2684 86.4953 42.8792 87.015 43.5598 87.43C43.8999 87.6339 44.2623 87.7983 44.6398 87.92C45.2534 88.1618 45.7942 88.5579 46.2098 89.07C46.4142 89.2891 46.6312 89.4961 46.8598 89.69C47.7115 90.309 48.414 91.1108 48.9158 92.0365C49.4176 92.9622 49.7059 93.9884 49.7598 95.04C49.7828 96.4957 49.2622 97.9076 48.2998 99C48.0444 99.2799 47.7342 99.5043 47.3884 99.6592C47.0426 99.814 46.6686 99.896 46.2898 99.9ZM43.1198 97.45C44.1198 98.92 45.1198 99.65 46.2098 99.68C46.5706 99.6932 46.9302 99.6296 47.2646 99.4934C47.5991 99.3572 47.9008 99.1515 48.1498 98.89C49.0775 97.8022 49.5692 96.4091 49.5298 94.98C49.474 93.9602 49.191 92.9658 48.7013 92.0695C48.2117 91.1733 47.5278 90.3978 46.6998 89.8C46.4678 89.5993 46.2475 89.3857 46.0398 89.16C45.6479 88.6716 45.1339 88.2956 44.5498 88.07C44.1605 87.9373 43.7854 87.7665 43.4298 87.56C42.7305 87.1305 42.1029 86.594 41.5698 85.97C40.8173 85.0928 40.132 84.1602 39.5198 83.18L38.7198 81.98C37.1607 80.0144 35.2645 78.3417 33.1198 77.04L32.0198 76.28C31.8098 76.13 31.5498 75.91 31.2498 75.66C30.5986 75.0043 29.8189 74.4902 28.9598 74.15C28.1398 74.02 27.6398 74.08 27.5298 74.33C27.2998 74.88 28.8198 76.38 29.3598 76.77C30.3598 77.5 32.2498 78.85 32.3598 80.27C32.3642 80.545 32.3062 80.8175 32.1901 81.0669C32.0741 81.3164 31.903 81.5362 31.6898 81.71C30.6898 82.59 28.3798 82.46 26.9798 82.39H26.5698C25.7998 82.39 24.8298 82.28 23.7998 82.19C21.9998 82.04 19.2798 81.82 19.1098 82.09C19.0968 82.12 19.0902 82.1523 19.0902 82.185C19.0902 82.2177 19.0968 82.25 19.1098 82.28C19.3898 82.71 20.9998 82.94 22.5598 83.17C23.5015 83.2904 24.4361 83.4606 25.3598 83.68H26.2498C26.3841 83.6981 26.5074 83.7643 26.5967 83.8663C26.6859 83.9684 26.7351 84.0994 26.7351 84.235C26.7351 84.3706 26.6859 84.5016 26.5967 84.6036C26.5074 84.7057 26.3841 84.7719 26.2498 84.79C25.825 84.7856 25.4009 84.7556 24.9798 84.7C24.5698 84.7 24.1498 84.62 23.7298 84.62H18.1898C18.1562 84.619 18.1231 84.6279 18.0946 84.6457C18.0661 84.6635 18.0436 84.6894 18.0298 84.72C17.9934 84.8156 17.9817 84.9189 17.9956 85.0202C18.0096 85.1216 18.0488 85.2178 18.1098 85.3C18.2598 85.53 18.6598 85.91 19.6598 85.83L20.7498 85.69C21.4498 85.62 22.0398 85.56 22.6498 85.55C23.9588 85.5324 25.266 85.6531 26.5498 85.91C26.6172 85.918 26.6822 85.9402 26.7404 85.9751C26.7986 86.0101 26.8487 86.057 26.8875 86.1127C26.9262 86.1685 26.9527 86.2318 26.9652 86.2986C26.9776 86.3654 26.9758 86.434 26.9598 86.5C26.9478 86.5777 26.9202 86.6522 26.8786 86.7189C26.837 86.7856 26.7823 86.8431 26.7177 86.888C26.6532 86.9329 26.5802 86.9642 26.5032 86.98C26.4262 86.9958 26.3468 86.9958 26.2698 86.98C24.4918 86.6553 22.6761 86.5913 20.8798 86.79H20.5598C20.1333 86.7893 19.709 86.8499 19.2998 86.97C19.2198 87.35 19.6598 87.58 19.7898 87.64C20.1974 87.8041 20.6306 87.8955 21.0698 87.91C21.9 87.9618 22.733 87.9417 23.5598 87.85C24.4598 87.77 25.3798 87.79 26.2698 87.8H27.6198C27.7816 87.8077 27.9342 87.8775 28.046 87.9948C28.1577 88.1121 28.22 88.268 28.2198 88.43C28.228 88.5025 28.2215 88.576 28.2006 88.6459C28.1797 88.7159 28.1448 88.7808 28.0981 88.8369C28.0514 88.893 27.9937 88.939 27.9287 88.9722C27.8637 89.0054 27.7926 89.025 27.7198 89.03C27.2398 89.03 26.7198 89.03 26.2198 89.03H25.0798C22.6098 89.11 21.4098 89.58 21.3798 89.87C21.3798 89.87 21.3798 90.16 22.4298 90.42C22.8961 90.5459 23.3706 90.6394 23.8498 90.7C24.5805 90.8154 25.3201 90.8655 26.0598 90.85C27.0675 90.8071 28.0705 90.6868 29.0598 90.49C30.4651 90.1882 31.9061 90.0873 33.3398 90.19C37.5498 90.7 42.5698 94.82 43.1198 97.45ZM86.8398 49.27H86.5698C83.4698 49.18 80.4298 47.74 77.5698 44.97L76.9798 32.87H77.0298C77.09 32.816 77.1334 32.7457 77.1547 32.6677C77.176 32.5896 77.1743 32.5071 77.1498 32.43C77.1257 32.373 77.0827 32.326 77.0281 32.2968C76.9735 32.2677 76.9105 32.2582 76.8498 32.27C76.0238 32.3442 75.1951 32.1598 74.4785 31.7424C73.7618 31.325 73.1927 30.6951 72.8498 29.94C72.5048 29.1335 72.4763 28.2266 72.7698 27.4C72.9473 26.9402 73.2122 26.5191 73.5498 26.16L73.6998 25.98C73.8277 25.819 73.9717 25.6715 74.1298 25.54C74.2818 25.4522 74.4542 25.406 74.6298 25.406C74.8053 25.406 74.9778 25.4522 75.1298 25.54C75.3806 25.6605 75.6214 25.8009 75.8498 25.96C76.2814 26.2683 76.6511 26.655 76.9398 27.1C77.2375 27.5466 77.4423 28.0486 77.5419 28.576C77.6416 29.1034 77.634 29.6455 77.5198 30.17C77.5097 30.2175 77.5096 30.2665 77.5195 30.314C77.5295 30.3616 77.5491 30.4065 77.5773 30.446C77.6056 30.4855 77.6417 30.5187 77.6834 30.5435C77.7252 30.5683 77.7716 30.5841 77.8198 30.59C77.8591 30.6036 77.901 30.6087 77.9425 30.6047C77.9839 30.6007 78.0241 30.5878 78.0601 30.567C78.0962 30.5461 78.1273 30.5177 78.1514 30.4837C78.1755 30.4497 78.192 30.4109 78.1998 30.37C78.2045 30.3503 78.2045 30.3297 78.1998 30.31C78.1957 30.2868 78.1957 30.2631 78.1998 30.24C79.3198 22.56 79.4298 16.72 78.5298 12.9V12.82H78.6098C79.2039 12.5166 79.7724 12.1654 80.3098 11.77L81.0698 11.25L81.2298 11.15C81.9898 10.64 82.0298 10.64 82.9598 11.01H83.0698C83.8498 11.31 84.6398 11.58 85.4098 11.82C88.7719 12.8581 92.2711 13.384 95.7898 13.38H96.4498C97.2566 13.397 98.0633 13.3401 98.8598 13.21H98.9798V13.33C99.1498 14.77 99.3398 16.25 99.5298 17.67C100.352 22.839 100.757 28.0659 100.74 33.3C100.65 36.3 99.9598 40.39 95.0598 41.43C91.2566 42.16 87.3221 41.7387 83.7598 40.22C83.6943 40.1941 83.6233 40.1851 83.5534 40.1939C83.4835 40.2026 83.4169 40.2288 83.3598 40.27C83.3087 40.3082 83.2676 40.3582 83.2397 40.4156C83.2119 40.473 83.1982 40.5362 83.1998 40.6C83.1998 40.69 83.2698 40.75 83.3798 40.8C86.9493 42.2708 90.8392 42.7911 94.6698 42.31H94.8198V42.47C94.6347 43.3744 94.6655 44.3097 94.9098 45.2C94.927 45.2463 94.9506 45.29 94.9798 45.33L95.0398 45.41L94.9698 45.48C92.4998 47.47 90.2198 49.27 86.8398 49.27ZM77.7298 44.85C80.5598 47.55 83.5398 48.97 86.5698 49.06H86.8498C90.1198 49.06 92.2698 47.39 94.6998 45.2C94.6771 45.1592 94.6603 45.1154 94.6498 45.07C94.4024 44.2017 94.3579 43.2882 94.5198 42.4C90.6948 42.846 86.8194 42.3091 83.2598 40.84C83.1821 40.8124 83.1133 40.7644 83.0605 40.7011C83.0077 40.6377 82.9729 40.5614 82.9598 40.48C82.9534 40.3788 82.9719 40.2775 83.0137 40.1851C83.0556 40.0927 83.1195 40.012 83.1998 39.95C83.2861 39.8856 83.3875 39.8445 83.4943 39.8305C83.6011 39.8165 83.7097 39.8301 83.8098 39.87C87.3303 41.3741 91.2201 41.792 94.9798 41.07C98.6498 40.29 100.35 37.85 100.5 33.14C100.512 27.9194 100.107 22.7062 99.2898 17.55C99.1098 16.16 98.9198 14.73 98.7498 13.32C97.9756 13.438 97.1927 13.4882 96.4098 13.47H96.0798C92.4303 13.5046 88.7974 12.975 85.3098 11.9C84.5298 11.67 83.7398 11.39 82.9598 11.09H82.8398C81.9898 10.76 81.9898 10.76 81.3098 11.21L81.1498 11.32L80.3898 11.83C79.8658 12.2045 79.3142 12.5388 78.7398 12.83C79.6198 16.67 79.5098 22.51 78.3898 30.18V30.23C78.3947 30.2564 78.3947 30.2835 78.3898 30.31C78.3759 30.379 78.3479 30.4444 78.3075 30.5021C78.2672 30.5598 78.2153 30.6085 78.1551 30.6451C78.095 30.6817 78.028 30.7055 77.9582 30.7149C77.8884 30.7244 77.8175 30.7193 77.7498 30.7C77.6753 30.6868 77.6042 30.6589 77.5406 30.6179C77.477 30.5769 77.4222 30.5237 77.3794 30.4614C77.3366 30.399 77.3066 30.3287 77.2912 30.2547C77.2758 30.1806 77.2753 30.1042 77.2898 30.03C77.3967 29.5311 77.4031 29.016 77.3086 28.5146C77.2142 28.0133 77.0208 27.5357 76.7398 27.11C76.4715 26.6948 76.1331 26.3294 75.7398 26.03C75.5262 25.8755 75.2985 25.7416 75.0598 25.63C74.6898 25.46 74.4198 25.45 74.2298 25.63C74.0898 25.7569 73.9595 25.8939 73.8398 26.04L73.6898 26.22C73.3715 26.5598 73.1204 26.9568 72.9498 27.39C72.6703 28.1642 72.6989 29.0162 73.0298 29.77C73.3498 30.4959 73.8924 31.1012 74.5791 31.4985C75.2657 31.8958 76.061 32.0644 76.8498 31.98C76.9563 31.964 77.0651 31.985 77.1579 32.0397C77.2507 32.0943 77.322 32.1791 77.3598 32.28C77.4023 32.3886 77.4117 32.5073 77.3868 32.6212C77.3618 32.7351 77.3037 32.8391 77.2198 32.92L77.7298 44.85ZM77.8498 27.34L77.6898 27.03C77.1005 25.9271 76.1193 25.0851 74.9398 24.67H74.8898V24.61C74.6998 23.78 74.4998 22.93 74.2998 22.12C73.7998 20.01 73.2998 17.84 72.9698 15.69C72.8032 14.7974 72.8276 13.8797 73.0414 12.9972C73.2551 12.1147 73.6533 11.2875 74.2098 10.57C74.6693 10.1027 75.1641 9.67146 75.6898 9.27998C76.2907 8.83531 76.8497 8.33658 77.3598 7.78999H77.5698C77.5634 7.85826 77.5822 7.9265 77.6228 7.98179C77.6633 8.03709 77.7227 8.07559 77.7898 8.08998C78.5561 9.04991 79.6488 9.6942 80.8598 9.89998L81.0398 9.95L80.9198 10.08C80.0946 10.9894 79.0669 11.6917 77.9198 12.13C77.8303 12.1558 77.7538 12.2144 77.7056 12.2941C77.6574 12.3738 77.641 12.4687 77.6598 12.56C78.4798 15.9 78.5298 20.74 77.7998 26.96L77.8498 27.34ZM75.0698 24.49C76.1696 24.8892 77.1007 25.651 77.7098 26.65C78.3998 20.65 78.3398 15.9 77.5398 12.65C77.5079 12.5084 77.5303 12.36 77.6025 12.2341C77.6747 12.1082 77.7915 12.014 77.9298 11.97C78.9775 11.5598 79.9204 10.9209 80.6898 10.1C79.5027 9.87565 78.4371 9.22914 77.6898 8.27998C77.5682 8.24148 77.4649 8.15961 77.3998 8.04997C76.8959 8.53612 76.3651 8.99354 75.8098 9.42C75.299 9.80342 74.8176 10.2246 74.3698 10.68C73.8237 11.379 73.434 12.1872 73.227 13.0497C73.02 13.9123 73.0005 14.8092 73.1698 15.68C73.4798 17.82 73.9998 19.99 74.4998 22.09C74.6898 22.85 74.8898 23.68 75.0698 24.49ZM95.7198 12.58C94.9998 12.58 94.2898 12.58 93.5898 12.51C91.5452 12.3829 89.5167 12.0682 87.5298 11.57C86.5298 11.31 85.4098 10.99 84.3498 10.63C82.6772 10.1135 81.0699 9.40541 79.5598 8.51997C79.2144 8.32853 78.9177 8.06039 78.6923 7.73619C78.4669 7.41198 78.3189 7.04037 78.2598 6.64998C78.2603 6.19767 78.3632 5.75135 78.5606 5.3444C78.758 4.93745 79.0449 4.5804 79.3998 4.29997C80.9765 2.93179 82.965 2.12935 85.0498 2.01997C88.6698 1.74997 91.6198 3.64998 94.4798 5.49998L95.1498 5.92998C95.5098 6.16997 95.9598 6.40999 96.4298 6.65999C97.6362 7.19009 98.7115 7.97866 99.5798 8.96998C100.074 9.56633 100.328 10.3262 100.29 11.1C99.9498 12.5 97.6898 12.55 96.5998 12.57H95.7198V12.58ZM85.7198 2.19999C85.4864 2.19999 85.2564 2.19999 85.0298 2.19999C82.9962 2.31485 81.0567 3.09487 79.5098 4.42C79.1787 4.67924 78.9104 5.00996 78.7251 5.38746C78.5399 5.76497 78.4423 6.17947 78.4398 6.59999C78.4947 6.95943 78.6327 7.30112 78.8427 7.59794C79.0528 7.89477 79.3291 8.13856 79.6498 8.30998C81.1424 9.18742 82.7334 9.8856 84.3898 10.39C85.4398 10.76 86.4998 11.08 87.5498 11.34C89.5179 11.8289 91.526 12.1401 93.5498 12.27C94.4898 12.33 95.4698 12.35 96.4398 12.33H96.5498C97.5498 12.33 99.7298 12.27 100.03 11.03C100.061 10.3018 99.8181 9.58842 99.3498 9.02998C98.4999 8.07076 97.4526 7.30664 96.2798 6.78999C95.7998 6.52999 95.3498 6.28997 94.9798 6.04997L94.3098 5.61998C91.7198 3.99998 88.9998 2.19999 85.7498 2.19999H85.7198Z" fill="#231F20"/>
<path d="M95.6499 31.14C94.3805 28.9699 93.4275 26.6296 92.8199 24.19C92.6999 23.69 91.8199 23.9 91.9399 24.4C92.529 26.7529 93.4303 29.0163 94.6199 31.13C94.3055 31.2244 93.9718 31.2343 93.6523 31.1589C93.3328 31.0834 93.0388 30.9251 92.7999 30.7C92.3699 30.35 91.7199 30.9 92.1499 31.25C92.6062 31.6317 93.1622 31.875 93.7522 31.9512C94.3421 32.0273 94.9416 31.9333 95.4799 31.68C95.5297 31.6593 95.5743 31.6279 95.6107 31.5881C95.6471 31.5483 95.6744 31.501 95.6906 31.4496C95.7068 31.3981 95.7115 31.3438 95.7045 31.2903C95.6975 31.2368 95.6788 31.1855 95.6499 31.14Z" fill="#231F20"/>
<path d="M87.9999 20.49C86.7171 20.1222 85.3482 20.1926 84.1099 20.69C83.5599 20.9 83.7999 21.77 84.3499 21.55C85.4324 21.103 86.6344 21.036 87.7599 21.36C87.8753 21.3918 87.9986 21.3765 88.1027 21.3174C88.2067 21.2584 88.2831 21.1604 88.3149 21.045C88.3467 20.9296 88.3314 20.8064 88.2723 20.7023C88.2133 20.5982 88.1153 20.5218 87.9999 20.49Z" fill="#231F20"/>
<path d="M98.4198 19.89C97.0652 19.7648 95.6997 19.9388 94.4198 20.4C93.8698 20.59 94.1098 21.46 94.6698 21.26C95.8724 20.8247 97.1571 20.6641 98.4298 20.79C98.9998 20.84 98.9998 20 98.4198 19.89Z" fill="#231F20"/>
<path d="M92.9102 33.7C91.7072 33.1038 90.4237 32.686 89.1002 32.46C88.3911 32.149 87.5962 32.0924 86.8502 32.3C85.2802 32.98 86.5302 34.87 87.3602 35.59C88.7692 36.7316 90.5488 37.3153 92.3602 37.23C94.3002 37.05 94.1602 35.51 93.7502 34.66C93.5636 34.269 93.273 33.9368 92.9102 33.7Z" fill="#231F20"/>
<path d="M88.8201 23.66C88.8201 24.27 88.6701 24.76 88.4401 24.77C88.2101 24.78 88.0001 24.29 87.9801 23.69C87.9601 23.09 88.1301 22.6 88.3601 22.59C88.5901 22.58 88.8001 23.06 88.8201 23.66Z" fill="#010101"/>
<path d="M88.43 25.11C87.92 25.11 87.6601 24.41 87.6401 23.7C87.5911 23.252 87.7046 22.8013 87.96 22.43C88.01 22.3758 88.0702 22.332 88.1371 22.3011C88.204 22.2702 88.2764 22.2529 88.3501 22.25C88.88 22.25 89.13 22.94 89.16 23.65C89.16 24.36 88.9701 25.09 88.4501 25.11H88.43ZM88.38 23.11C88.3281 23.3021 88.3078 23.5014 88.3201 23.7C88.3223 23.9007 88.3561 24.0998 88.4201 24.29C88.472 24.0979 88.4923 23.8986 88.4801 23.7C88.4756 23.493 88.4419 23.2876 88.38 23.09V23.11Z" fill="#010101"/>
<path d="M97.8699 23.66C97.8699 24.27 97.7199 24.76 97.4899 24.77C97.2599 24.78 97.0499 24.29 97.0299 23.69C97.0099 23.09 97.1799 22.6 97.4099 22.59C97.6399 22.58 97.8499 23.06 97.8699 23.66Z" fill="#010101"/>
<path d="M97.4799 25.11C96.9699 25.11 96.7199 24.41 96.6899 23.7C96.6409 23.252 96.7544 22.8013 97.0099 22.43C97.0598 22.3758 97.12 22.332 97.1869 22.3011C97.2538 22.2702 97.3262 22.2529 97.3999 22.25C97.9099 22.25 98.1699 22.95 98.1899 23.65C98.2027 23.954 98.1655 24.258 98.0798 24.55C97.9098 25.02 97.6299 25.1 97.4799 25.11ZM97.4299 23.11C97.3779 23.3021 97.3576 23.5014 97.3699 23.7C97.3771 23.9002 97.4108 24.0986 97.4699 24.29C97.5218 24.0979 97.5421 23.8986 97.5299 23.7C97.5308 23.4925 97.497 23.2863 97.4299 23.09V23.11Z" fill="#010101"/>
<path d="M192.85 119.19H0.589844V122.6H192.85V119.19Z" fill="#010101"/>
<path d="M25.0501 13.1C24.0501 16.54 24.5601 20.1 24.5901 23.6C24.6507 23.8078 24.777 23.9902 24.9501 24.12C25.1232 24.2499 25.3337 24.32 25.5501 24.32C25.7664 24.32 25.977 24.2499 26.1501 24.12C26.3232 23.9902 26.4495 23.8078 26.5101 23.6C26.5101 20.27 25.9901 16.88 26.9101 13.6C26.91 13.381 26.838 13.1679 26.7051 12.9938C26.5722 12.8196 26.3858 12.6939 26.1745 12.6359C25.9632 12.578 25.7387 12.5911 25.5356 12.6731C25.3325 12.7551 25.1619 12.9016 25.0501 13.09V13.1Z" fill="#231F20"/>
<path d="M26.2301 21.11C27.1401 20.91 28.4201 20.69 28.9901 21.62C29.429 22.6485 29.5339 23.7887 29.2901 24.88C29.1501 26.11 31.0701 26.1 31.2101 24.88C31.3801 23.32 31.4001 21.46 30.3201 20.2C29.2401 18.94 27.3201 18.9 25.7201 19.26C24.5201 19.53 25.0301 21.39 26.2301 21.11Z" fill="#231F20"/>
<path d="M33.2299 20.72C35.3499 20.96 37.6499 20.42 38.5799 18.31C38.9171 17.5532 39.0323 16.7161 38.9119 15.8963C38.7915 15.0765 38.4405 14.3079 37.8999 13.68C36.5799 12.31 34.7699 12.91 33.6499 14.19C31.7099 16.42 30.7699 19.87 32.6499 22.41C34.8099 25.31 38.9599 25.41 41.8199 23.58C42.8199 22.9 41.8899 21.24 40.8199 21.92C38.5999 23.37 34.9599 23.39 33.7499 20.58C33.5225 19.9028 33.4575 19.1817 33.56 18.4747C33.6625 17.7678 33.9296 17.0948 34.3399 16.51C34.6199 16.01 35.2799 14.77 36.0099 14.78C36.7399 14.79 37.0699 16.3 37.0099 16.92C36.7299 18.79 34.7799 18.98 33.2299 18.8C32.0099 18.66 32.0199 20.58 33.2299 20.72Z" fill="#231F20"/>
<path d="M40.5102 17.26C42.6302 21.04 48.3402 21.58 48.9602 16.54C49.0902 15.44 47.3702 15.28 47.0702 16.28C46.0571 19.3288 45.5273 22.5174 45.5002 25.73C45.5608 25.9377 45.6871 26.1201 45.8602 26.25C46.0333 26.3798 46.2438 26.45 46.4602 26.45C46.6766 26.45 46.8871 26.3798 47.0602 26.25C47.2333 26.1201 47.3596 25.9377 47.4202 25.73C47.4485 22.6898 47.9547 19.6729 48.9202 16.79L47.0402 16.54C46.6502 19.74 43.2102 18.14 42.1702 16.29C42.0121 16.1339 41.8065 16.0349 41.5858 16.0087C41.3652 15.9825 41.1421 16.0305 40.9518 16.1451C40.7614 16.2598 40.6147 16.4346 40.5348 16.6419C40.4548 16.8492 40.4462 17.0772 40.5102 17.29V17.26Z" fill="#231F20"/>
<path d="M131.63 23.77C130.582 24.1011 129.503 24.3256 128.41 24.44C128.41 25.44 128.41 26.64 128.41 27.6C129.614 27.1584 130.879 26.9022 132.16 26.84C134.98 26.84 136.74 28.37 136.74 30.71C136.777 31.2313 136.702 31.7545 136.519 32.2441C136.336 32.7336 136.05 33.1781 135.68 33.5471C135.31 33.9162 134.864 34.2013 134.374 34.383C133.884 34.5646 133.361 34.6387 132.84 34.6C132.211 34.6182 131.588 34.4829 131.023 34.2058C130.459 33.9288 129.97 33.5183 129.6 33.01C129.82 32.738 130.021 32.4506 130.2 32.15C130.498 32.5766 130.897 32.9236 131.361 33.1606C131.824 33.3977 132.339 33.5177 132.86 33.51C133.226 33.524 133.591 33.4601 133.93 33.3227C134.27 33.1853 134.576 32.9774 134.829 32.7128C135.083 32.4481 135.277 32.1328 135.399 31.7876C135.522 31.4423 135.57 31.0751 135.54 30.71C135.54 29.1 134.37 27.84 132.14 27.85C130.862 27.9179 129.603 28.1879 128.41 28.65C128.41 29.88 128.41 31.85 128.41 32.31C128.431 32.6589 128.379 33.0083 128.256 33.3356C128.134 33.663 127.944 33.9608 127.699 34.2098C127.453 34.4589 127.158 34.6535 126.833 34.781C126.508 34.9085 126.159 34.9661 125.81 34.95C125.455 34.9819 125.098 34.9397 124.76 34.8261C124.423 34.7126 124.113 34.5302 123.849 34.2904C123.586 34.0507 123.375 33.7588 123.231 33.4334C123.086 33.108 123.011 32.7561 123.01 32.4C123.086 31.7449 123.313 31.1164 123.672 30.5631C124.031 30.0099 124.513 29.5468 125.08 29.21C125.776 28.7312 126.52 28.3257 127.3 28V24.5C125.97 24.61 124.64 24.63 123.3 24.61V23.49C124.76 23.49 126.08 23.49 127.3 23.39V20.3L128.97 20.4C128.97 20.6 128.79 20.72 128.51 20.75C128.51 21.4 128.46 22.38 128.44 23.31C129.464 23.1952 130.471 22.9602 131.44 22.61L131.63 23.77ZM127.31 32.25C127.31 31.82 127.31 30.46 127.31 29.1C126.713 29.3801 126.144 29.7149 125.61 30.1C125.21 30.348 124.868 30.679 124.608 31.0707C124.347 31.4623 124.174 31.9055 124.1 32.37C124.093 32.5894 124.133 32.8078 124.218 33.0103C124.302 33.2127 124.43 33.3946 124.591 33.5435C124.752 33.6925 124.944 33.805 125.152 33.8734C125.361 33.9418 125.582 33.9645 125.8 33.94C126.013 33.9441 126.224 33.9027 126.42 33.8188C126.615 33.7349 126.791 33.6103 126.935 33.4532C127.078 33.2962 127.187 33.1104 127.254 32.9081C127.32 32.7058 127.343 32.4917 127.32 32.28L127.31 32.25ZM136.68 25.75C135.563 24.7469 134.285 23.9389 132.9 23.36L133.48 22.36C134.902 22.9558 136.227 23.7615 137.41 24.75L136.68 25.75Z" fill="#231F20"/>
<path d="M125.82 35.38C125.407 35.4117 124.992 35.3576 124.601 35.2212C124.21 35.0847 123.852 34.8687 123.548 34.5869C123.245 34.3051 123.003 33.9636 122.838 33.5837C122.673 33.2039 122.589 32.7941 122.59 32.38C122.664 31.6558 122.907 30.9589 123.297 30.3444C123.688 29.73 124.216 29.2149 124.84 28.84C125.471 28.4071 126.141 28.0323 126.84 27.72V25C125.84 25.07 124.68 25.1 123.28 25.08H122.86V23.08H123.3C124.77 23.08 125.9 23.08 126.87 23.01V19.85L129.43 20V20.44C129.416 20.5804 129.364 20.7143 129.279 20.8272C129.195 20.9401 129.081 21.0275 128.95 21.08C128.95 21.58 128.95 22.19 128.95 22.82C129.766 22.7024 130.567 22.4979 131.34 22.21L131.83 22.03L132.18 24.03L131.83 24.15C130.875 24.4529 129.894 24.6638 128.9 24.78V26.06C128.9 26.37 128.9 26.68 128.9 26.98C129.973 26.6263 131.091 26.4243 132.22 26.38C135.22 26.38 137.22 28.07 137.22 30.68C137.268 31.2595 137.19 31.8427 136.99 32.3889C136.79 32.9351 136.474 33.4311 136.062 33.8424C135.651 34.2536 135.155 34.5702 134.609 34.7702C134.063 34.9701 133.479 35.0485 132.9 35C132.207 35.016 131.521 34.8643 130.899 34.5579C130.277 34.2514 129.739 33.7993 129.33 33.24L129 33L129.21 32.73C129.421 32.4778 129.609 32.2067 129.77 31.92L130.09 31.38L130.48 31.87C130.737 32.246 131.084 32.5524 131.489 32.7618C131.894 32.9712 132.344 33.0771 132.8 33.07C133.11 33.0859 133.421 33.0346 133.71 32.9195C133.998 32.8045 134.259 32.6285 134.474 32.4034C134.688 32.1784 134.852 31.9097 134.953 31.6158C135.054 31.3218 135.09 31.0094 135.06 30.7C135.067 30.3955 135.014 30.0926 134.902 29.8092C134.79 29.5258 134.623 29.2676 134.41 29.05C133.779 28.4994 132.956 28.2192 132.12 28.27C130.989 28.3233 129.873 28.5493 128.81 28.94C128.81 29.66 128.81 30.54 128.81 31.24C128.81 31.73 128.81 32.13 128.81 32.3C128.832 32.7026 128.771 33.1056 128.629 33.4833C128.488 33.8611 128.27 34.2055 127.989 34.4948C127.709 34.7842 127.371 35.0122 126.997 35.1646C126.624 35.3169 126.223 35.3903 125.82 35.38ZM127.72 24.05V28.3L127.46 28.41C126.711 28.717 125.997 29.1025 125.33 29.56C124.825 29.8647 124.394 30.2774 124.067 30.7684C123.74 31.2594 123.526 31.8165 123.44 32.4C123.442 32.7006 123.508 32.9974 123.632 33.2713C123.756 33.5452 123.935 33.7903 124.159 33.9908C124.383 34.1912 124.647 34.3428 124.933 34.4356C125.219 34.5285 125.521 34.5606 125.82 34.53C126.114 34.5481 126.409 34.5028 126.685 34.397C126.96 34.2913 127.21 34.1277 127.416 33.9172C127.623 33.7067 127.782 33.4543 127.883 33.177C127.983 32.8997 128.023 32.604 128 32.31C128 32.14 128 31.74 128 31.26C128 30.46 128 29.41 128 28.65V28.35L128.28 28.25C129.519 27.7646 130.83 27.4875 132.16 27.43C133.218 27.3674 134.257 27.727 135.05 28.43C135.344 28.7247 135.576 29.076 135.73 29.4627C135.885 29.8495 135.96 30.2636 135.95 30.68C135.983 31.1023 135.926 31.5267 135.783 31.9254C135.64 32.3241 135.414 32.688 135.12 32.9931C134.826 33.2983 134.471 33.5377 134.078 33.6957C133.685 33.8538 133.263 33.9268 132.84 33.91C132.354 33.9203 131.872 33.8287 131.424 33.6409C130.976 33.4532 130.573 33.1735 130.24 32.82L130.13 32.97C130.463 33.3536 130.877 33.6584 131.342 33.8625C131.807 34.0666 132.312 34.1648 132.82 34.15C133.285 34.1877 133.753 34.1239 134.191 33.9629C134.629 33.8019 135.027 33.5475 135.357 33.2174C135.687 32.8873 135.942 32.4894 136.103 32.0513C136.264 31.6132 136.328 31.1452 136.29 30.68C136.29 28.55 134.7 27.24 132.14 27.24C130.906 27.2993 129.688 27.5489 128.53 27.98L127.96 28.17V27.57C127.96 27.1 127.96 26.57 127.96 26.05C127.96 25.53 127.96 24.94 127.96 24.41V24.03L128.34 23.98C129.279 23.8788 130.209 23.7016 131.12 23.45L131.07 23.15C130.224 23.4193 129.353 23.6035 128.47 23.7L127.99 23.76V23.16C127.99 22.28 127.99 21.37 128.05 20.75H127.69V23.75H127.3C126.3 23.83 125.18 23.86 123.7 23.86V24.13C125.08 24.13 126.19 24.13 127.22 24.01L127.72 24.05ZM125.79 34.35C125.517 34.3664 125.244 34.3268 124.988 34.2336C124.731 34.1405 124.496 33.9957 124.297 33.8083C124.099 33.621 123.941 33.3949 123.833 33.1441C123.725 32.8933 123.669 32.623 123.67 32.35C123.741 31.8158 123.93 31.3039 124.222 30.851C124.514 30.3981 124.903 30.0153 125.36 29.73C125.915 29.3446 126.504 29.0099 127.12 28.73L127.72 28.45V29.12C127.72 29.99 127.72 30.85 127.72 31.48V32.28C127.738 32.5446 127.701 32.8101 127.612 33.06C127.523 33.3099 127.384 33.5389 127.203 33.7329C127.022 33.9269 126.804 34.0818 126.56 34.1879C126.317 34.2941 126.055 34.3492 125.79 34.35ZM126.87 29.79C126.53 29.98 126.18 30.19 125.87 30.42C125.526 30.6319 125.231 30.9129 125.002 31.2451C124.773 31.5774 124.616 31.9536 124.54 32.35C124.532 32.5136 124.561 32.6768 124.624 32.828C124.687 32.9792 124.782 33.1146 124.904 33.2245C125.025 33.3345 125.169 33.4162 125.326 33.4638C125.483 33.5114 125.648 33.5238 125.81 33.5C125.967 33.5012 126.122 33.4689 126.266 33.4051C126.409 33.3412 126.537 33.2474 126.642 33.13C126.746 33.0125 126.824 32.8741 126.87 32.724C126.916 32.574 126.93 32.4157 126.91 32.26V31.47C126.88 31 126.87 30.42 126.87 29.79ZM136.73 26.4L136.38 26.05C135.3 25.0853 134.066 24.308 132.73 23.75L132.29 23.56L133.29 21.84L133.63 21.99C135.096 22.6024 136.461 23.4317 137.68 24.45L137.97 24.71L136.73 26.4ZM133.51 23.17C134.627 23.6836 135.675 24.3354 136.63 25.11L136.83 24.83C135.851 24.0721 134.787 23.4312 133.66 22.92L133.51 23.17Z" fill="#231F20"/>
<path d="M141.73 22.18C141.691 22.2645 141.627 22.3349 141.546 22.3815C141.466 22.4281 141.373 22.4485 141.28 22.44C141.068 23.8098 140.961 25.1938 140.96 26.58C140.96 27.19 140.96 27.79 141.03 28.32C141.23 31.14 142.37 32.85 143.65 32.83C144.31 32.83 145.18 31.14 145.77 29.28C146.076 29.5524 146.412 29.7905 146.77 29.99C146 32.23 145.04 34.06 143.66 34.09C141.56 34.09 140.1 31.57 139.87 28.38C139.87 27.75 139.8 27.06 139.8 26.31C139.797 24.8197 139.88 23.3306 140.05 21.85L141.73 22.18ZM152.73 29.9C152.573 28.6031 152.112 27.3616 151.384 26.2771C150.656 25.1926 149.681 24.2958 148.54 23.66L149.27 22.76C150.528 23.4401 151.608 24.4078 152.421 25.5843C153.234 26.7608 153.758 28.1127 153.95 29.53L152.73 29.9Z" fill="#231F20"/>
<path d="M143.6 34.52C141.39 34.52 139.67 32.02 139.41 28.41C139.36 27.83 139.34 27.16 139.34 26.31C139.339 24.8031 139.422 23.2974 139.59 21.8L139.65 21.34L142.24 21.84L142.14 22.27C142.11 22.3913 142.051 22.5033 141.967 22.5959C141.883 22.6884 141.778 22.7586 141.66 22.8C141.482 24.0521 141.392 25.3152 141.39 26.58C141.39 27.18 141.39 27.77 141.46 28.29C141.65 30.99 142.69 32.4 143.63 32.4C143.87 32.4 144.63 31.4 145.35 29.15L145.56 28.48L146.06 28.98C146.325 29.2248 146.617 29.4394 146.93 29.62L147.23 29.8L147.12 30.13C146.49 31.99 145.43 34.47 143.62 34.52H143.6ZM140.39 22.35C140.27 23.59 140.2 24.98 140.2 26.35C140.2 27.18 140.2 27.83 140.26 28.35C140.49 31.49 141.86 33.66 143.59 33.66C144.5 33.66 145.35 32.5 146.18 30.17L146 30C145.49 31.42 144.65 33.26 143.67 33.26C142.07 33.26 140.85 31.26 140.67 28.35C140.67 27.8 140.61 27.2 140.61 26.58C140.609 25.1941 140.713 23.8102 140.92 22.44L140.39 22.35ZM152.39 30.45L152.31 29.97C152.166 28.7324 151.728 27.5472 151.032 26.5138C150.336 25.4803 149.403 24.6286 148.31 24.03L147.86 23.78L149.14 22.22L149.45 22.38C150.761 23.0977 151.887 24.1114 152.737 25.3405C153.588 26.5695 154.14 27.9801 154.35 29.46V29.83L152.39 30.45ZM149.2 23.54C150.21 24.1901 151.075 25.0416 151.741 26.0413C152.407 27.041 152.859 28.1674 153.07 29.35L153.48 29.23C153.257 28.0095 152.778 26.8503 152.072 25.8296C151.367 24.8088 150.453 23.9499 149.39 23.31L149.2 23.54Z" fill="#231F20"/>
<g style="mix-blend-mode:multiply" opacity="0.15">
<path d="M84.5298 1.59998C84.5298 1.59998 97.4498 10.87 97.4498 12.47C97.4498 14.07 99.7098 29.86 98.8598 33.34C98.0098 36.82 92.0898 42.16 92.0898 42.16V48C92.0898 48 113.95 56.72 118.71 70.8C123.47 84.88 132.62 91.8 132.62 91.8L135.38 88.18C135.38 88.18 129.03 86.67 128 82.86C126.97 79.05 120.84 64.21 120.84 64.21L116.36 56.21L114.2 54L97.3098 45.33L95.3098 44.87L95.1098 41.81L97.4498 40.81L98.8598 39.4L100.63 37.25L101.15 33.56V29.1L100.21 21.85L99.2898 12.47L100.63 11.13L100.21 8.52997L92.6098 3.96997C92.6098 3.96997 88.6998 1.59998 87.2798 1.59998H84.5298Z" fill="#010101"/>
</g>
<g style="mix-blend-mode:multiply" opacity="0.15">
<path d="M110.51 86.07C110.51 86.07 108.06 85.94 108.06 91.78C107.889 97.1019 108.298 102.427 109.28 107.66C110.46 113.66 110.51 114.66 110.51 116.83C110.444 118.268 110.022 119.667 109.28 120.9L113.06 120.41L115.37 118.41L115.96 116.6V114.84L114.09 109.78L111.57 103.47L110.9 95.47L110.51 86.07Z" fill="#010101"/>
</g>
<g style="mix-blend-mode:multiply" opacity="0.15">
<path d="M132.44 98.41C132.44 98.41 139.78 92.98 143.25 91.78C143.824 91.5992 144.413 91.472 145.01 91.4C149.23 90.79 156.48 91.4 156.48 91.4L161.56 91.79L162.04 93.34C161.89 92.85 159.33 93.26 158.94 93.27L155.56 93.36L151.3 94.07L144.71 93.07L139.34 97.61L138.34 100.49L136.85 101.62H134.85L132.44 98.41Z" fill="#010101"/>
</g>
<g style="mix-blend-mode:multiply" opacity="0.15">
<path d="M61.7098 84.74C61.1207 87.8617 60.1115 90.8892 58.7098 93.74C56.1498 99.28 52.5998 103.5 51.0298 103.5C49.4598 103.5 48.1898 103.5 45.0898 99.56C43.9129 97.9328 42.453 96.5305 40.7798 95.42L41.7798 98.42L44.1498 103.42L46.2898 105.57L49.6998 106.04L52.4998 105.78L56.6398 103.44L60.6398 98.37L63.3598 90.31L61.7098 84.74Z" fill="#010101"/>
</g>
<g style="mix-blend-mode:multiply" opacity="0.15">
<path d="M45.6298 88.16C45.6298 88.16 49.7898 93.02 47.9998 96.4C46.2098 99.78 45.0698 99.54 45.0698 99.54C45.0698 99.54 46.8298 101.26 47.9998 99.83L50.3398 96.92V93.44L48.3398 89.85L45.6298 88.16Z" fill="#010101"/>
</g>
<g style="mix-blend-mode:multiply" opacity="0.15">
<path d="M82.9999 11L81.1099 12.89C79.9699 14.02 78.3599 17.64 78.3599 17.64L77.6499 12.64L81.5099 9.44L82.9999 11Z" fill="#010101"/>
</g>
<g style="mix-blend-mode:multiply" opacity="0.15">
<path d="M159.1 18.86C159.1 18.86 159.1 28.34 154.85 34.95C152.718 38.2699 149.964 41.1461 146.74 43.42C146.74 43.42 158.74 39.13 161.44 29.9C162.94 24.77 159.1 18.86 159.1 18.86Z" fill="#010101"/>
</g>
<g style="mix-blend-mode:multiply" opacity="0.15">
<path d="M62.3802 13.82C62.3802 13.82 63.5802 19.82 54.9902 29.1C52.9612 31.1562 50.5933 32.8475 47.9902 34.1L53.5902 33.2L63.2903 35.8L61.0302 25.8L63.2903 22.42L63.9402 16.58L62.3802 13.82Z" fill="#010101"/>
</g>
<path d="M55.3499 51.25C51.7299 52.81 49.9199 56.3 48.4699 59.75C48.2499 60.26 49.0799 60.48 49.2899 59.98C50.6599 56.72 52.3699 53.45 55.7799 51.98C56.2799 51.76 55.8499 50.98 55.3499 51.24V51.25Z" fill="#231F20"/>
<path d="M144.45 98.13C147.6 98.39 150.66 98.97 153.81 98.4C154.35 98.3 154.12 97.47 153.59 97.57C150.53 98.13 147.51 97.57 144.45 97.27C143.91 97.27 143.91 98.08 144.45 98.13Z" fill="#231F20"/>
<path d="M59.4598 107.44C57.6798 110.13 57.5598 113.2 57.5498 116.33C57.5498 116.444 57.5951 116.553 57.6758 116.634C57.7564 116.715 57.8658 116.76 57.9798 116.76C58.0939 116.76 58.2032 116.715 58.2839 116.634C58.3645 116.553 58.4098 116.444 58.4098 116.33C58.4098 113.33 58.4998 110.45 60.1998 107.87C60.4998 107.41 59.7598 106.98 59.4598 107.44Z" fill="#231F20"/>
<path d="M103.14 7.19002C104.79 7.95002 105.8 10.64 105.77 12.36C105.786 12.4615 105.837 12.5541 105.915 12.621C105.993 12.6879 106.092 12.7246 106.195 12.7246C106.298 12.7246 106.397 12.6879 106.475 12.621C106.553 12.5541 106.604 12.4615 106.62 12.36C106.62 10.36 105.49 7.36003 103.57 6.45003C103.07 6.22003 102.64 6.96002 103.14 7.19002Z" fill="#231F20"/>
<path d="M13.34 82.94C12.7649 84.6736 12.7649 86.5465 13.34 88.28C13.5 88.8 14.34 88.58 14.16 88.06C13.6301 86.4697 13.6301 84.7504 14.16 83.16C14.33 82.64 13.5 82.42 13.34 82.94Z" fill="#231F20"/>
<g style="mix-blend-mode:multiply" opacity="0.15">
<path d="M111.86 86.13C111.86 86.13 118.39 96.39 124.09 100.4C129.79 104.41 131.09 104.6 131.09 104.6L128.09 105.17L124.72 104.63L121.78 102.51L116.86 97.27L113 91.13L111.86 86.13Z" fill="#010101"/>
</g>
<g style="mix-blend-mode:multiply" opacity="0.15">
<path d="M62.8202 84.92C62.8202 84.92 67.5802 91.01 67.5802 101.47V120.41H64.1802L62.1802 116.33L62.8902 109.58L63.9502 101.68L63.1002 89L62.8202 84.92Z" fill="#010101"/>
</g>
</svg>
