<svg version="1.2" xmlns="http://www.w3.org/2000/svg" viewBox="0 0 142 142" width="142" height="142"><style>.a{fill:#ec1c24}.b{opacity:.1;mix-blend-mode:multiply;fill:#050505}.c{stroke:#000;stroke-miterlimit:10;stroke-width:2}.d{fill:none;stroke:#000;stroke-linecap:round;stroke-linejoin:round;stroke-width:5}</style><path fill-rule="evenodd" class="a" d="m115.9 48.4l-10.8 27.6-28.3 39-7.1 3.9-22.1-31.9-16-27.2-2-22.2 5.3-13.3 12.7-11.9 14.8-8.1h19.6l15.2 7 12.9 16zm-20.2-3.5c0-13.2-10.5-23.9-23.3-23.9-12.9 0-23.3 10.7-23.3 23.9 0 13.1 10.4 23.8 23.3 23.8 12.8 0 23.3-10.7 23.3-23.8z"/><path class="b" d="m105.1 18.5c0 0 7.1 22.2-11 57.5-16.5 32.2-26.1 42.9-26.1 42.9l12.6-5.8 16.6-22.7 17.5-33.6v-26.3z"/><path fill-rule="evenodd" d="m82.5 114.6c0.8 1.9 3.2 0.6 4.8 1 2.1 0.5 5.3-0.1 5.1 3.3-0.3 3-3.2 2.4-5.2 2.4-4.9 0.1-9.9 0-14.8 0-5.3 0-10.6 0.1-15.9 0-1.9 0-4.3 0-4.3-2.8 0-2.3 2.2-2.5 4-2.8 7-1.2 7.1-1.3 2.5-7.2-8.9-11.6-17-23.9-24.3-36.7-14.8-25.7-6.2-48.8 10.4-61.9 12.5-9.7 26.8-12.9 41.6-7.2 11.3 4.4 17.8 9.9 23.7 17.9 8.4 12.7 10.7 27.2 4.3 42.2-6.8 16-32.7 50-31.9 51.8zm26.7-54.3c3.6-8.7 4.1-18.2 0.8-27-4.4-11.9-13.6-20.9-25.2-25.1-22.3-8.1-42.8 5.8-49.9 24.2-5.1 13-1.7 24.7 4.3 36.2 8.1 15.8 18.8 29.7 29.5 43.6 1.9 2.6 3.9 4.4 6.6 0.8 12.7-16.6 25.8-33 33.9-52.7z"/><path  d="m34.9 108.7c4.6 0.2 7.7 2.3 11.4 5.3 1.2 0.9 1.7 2.4 0.7 3.8-1.2 1.6-2.9 1.2-4.2 0.2-3.1-2.4-6.9-3.6-10.8-3.3-2.1 0.1-4.8-0.2-4.8-3 0-3.3 4.1-2.9 6.4-3q0.7 0 1.3 0z"/><path  d="m110.2 108.4c1.9-0.1 3.8 0.1 5.4 0.9 1.3 0.6 2.3 2.2 1.7 3.5-0.3 0.9-1.2 1.5-2.2 1.7-0.9 0.2-1.9 0.1-2.8 0.1-3.4-0.1-7.1 1.1-9.9 2.9-0.9 0.6-1.8 1.3-2.8 1.3-1.4 0-2.6-1.5-2.3-2.9 0.1-0.8 0.7-1.5 1.3-2.1 2.6-2.6 7.2-5 11.6-5.4z"/><path fill-rule="evenodd" class="c" d="m49 44.9c0-13.3 10.5-23.9 23.5-23.9 12.7 0 23.2 10.8 23.2 23.8 0 13.2-10.5 24-23.3 24-12.9-0.1-23.4-10.7-23.4-23.9zm23.3-20.6c-11 0-20.1 9.3-20.1 20.5 0 11.4 9.2 20.7 20.3 20.6 10.9 0 20-9.3 20-20.6 0-11.2-9.2-20.5-20.2-20.5z"/><path  d="m88 7.3c2 0 2-3 0-3-1.9 0-1.9 3 0 3z"/><path  d="m88.4 7.2c1.3 0 1.3-2 0-2-1.3 0-1.3 2 0 2z"/><path class="d" d="m103.3 98.7h20.6l15.1 40.6h-135.6l15.1-40.6h23.5"/><path  d="m54.3 121.4h10.1c1.4 0 2.6-1.2 2.6-2.6v-2.4c0-1.4-1.2-2.6-2.6-2.6h-10.1c-1.5 0-2.6 1.2-2.6 2.6v2.4c0 1.4 1.1 2.6 2.6 2.6z"/><path  d="m27.4 131.2h17.6c1.4 0 2.6-1.2 2.6-2.6v-2.4c0-1.4-1.2-2.5-2.6-2.5h-17.6c-1.5 0-2.6 1.1-2.6 2.5v2.4c0 1.4 1.1 2.6 2.6 2.6z"/><path  d="m99.8 131.2h17.6c1.5 0 2.6-1.2 2.6-2.6v-2.4c0-1.4-1.1-2.5-2.6-2.5h-17.6c-1.4 0-2.6 1.1-2.6 2.5v2.4c0 1.4 1.2 2.6 2.6 2.6z"/><path  d="m90.4 121.4h-8.1c-1.5 0-2.6-1.2-2.6-2.6v-2.4c0-1.4 1.1-2.6 2.6-2.6h8.1c1.5 0 2.6 1.2 2.6 2.6v2.4c0 1.4-1.1 2.6-2.6 2.6z"/></svg>