<svg width="334" height="337" viewBox="0 0 334 337" fill="none" xmlns="http://www.w3.org/2000/svg">
<path d="M47.1547 317.656L61.8078 319.882L56.2991 328.187V329.11H57.6212C77.1493 328.757 96.4848 329.49 115.848 330.603C121.852 330.413 127.857 330.033 133.889 329.87C146.834 329.3 159.807 328.187 172.449 329.68C179.39 330.413 186.221 331.716 192.914 332.991L188.59 274.363L197.596 277.702L209.247 279.357L221.228 276.942L230.979 268.066L257.283 246.053L255.41 236.988L240.949 216.088L227.976 221.516L210.321 234.083L209.192 210.768L206.575 181.182L191.729 152.872L174.074 142.015L153.224 140.739L148.514 140.359L143.639 148.312L125.24 152.574H111.909L119.979 177.735L112.46 179.011L101.443 176.296L91.1139 166.118L92.2431 179.445L52.6084 174.994L61.2569 165.005L59.384 151.135L54.1233 151.705L43.9874 163.349L34.7603 194.238L29.6924 248.822V288.206L35.6968 307.993L46.9895 317.629L47.1547 317.656Z" fill="#ED1C24"/>
<path d="M107.447 196.11L117.032 197.413L117.969 193.342L128.49 190.383L167.739 193.342L184.072 192.039L191.399 194.075L193.657 193.342L188.039 230.88L179.776 287.31L164.737 288.803H139.012L117.39 287.69L115.159 290.079V295.453L109.678 296.403L101.801 298.031H93.7304L86.5967 295.643L82.8232 288.803V278.244L88.4696 266.22L97.4763 263.832L106.868 262.719L107.447 196.11Z" fill="white"/>
<path d="M155.346 82.5179C155.346 84.1465 154.96 85.4765 154.327 85.5036C153.693 85.5307 153.17 84.2279 153.087 82.5722C153.005 80.9165 153.5 79.6136 154.134 79.5865C154.767 79.5593 155.291 80.8622 155.346 82.5179Z" fill="#010101"/>
<path d="M154.325 86.4264C153.885 86.4264 153.141 86.2364 152.645 85.015C152.351 84.2503 152.183 83.4437 152.149 82.6264C152.149 80.6722 152.673 78.7179 154.077 78.6636C155.482 78.6636 156.171 80.5636 156.226 82.4636C156.226 84.4178 155.73 86.3721 154.298 86.4264H154.325ZM154.16 80.9979C154.094 81.5024 154.094 82.0133 154.16 82.5179C154.157 83.0325 154.231 83.5448 154.38 84.0378C154.463 83.5345 154.463 83.0212 154.38 82.5179C154.383 82.0122 154.309 81.5089 154.16 81.025V80.9979Z" fill="#010101"/>
<path d="M130.942 82.6809C130.942 84.3094 130.529 85.6666 129.923 85.6937C129.317 85.7209 128.738 84.3909 128.683 82.7623C128.628 81.1337 129.069 79.7766 129.702 79.7766C130.336 79.7766 130.887 81.0523 130.942 82.6809Z" fill="#010101"/>
<path d="M129.894 86.6166C129.48 86.6166 128.737 86.4266 128.213 85.2052C127.916 84.433 127.757 83.6154 127.745 82.7895C127.745 80.8623 128.241 78.8809 129.673 78.8538C131.05 78.8538 131.739 80.7538 131.821 82.6537C131.821 84.5809 131.326 86.5623 129.894 86.6166ZM129.756 81.188C129.687 81.6924 129.687 82.2037 129.756 82.708C129.773 83.223 129.856 83.7338 130.004 84.228C130.059 83.7137 130.059 83.1952 130.004 82.6809C129.985 82.1839 129.901 81.6914 129.756 81.2152V81.188Z" fill="#010101"/>
<path d="M300.001 327.264H0V336.52H300.001V327.264Z" fill="#010101"/>
<path d="M99 97L165 94C165 99.2 161.667 108.5 160 112.5C157.6 119.3 147.5 124 142 124C136 126 132 123.5 122 118.5L118 117L115 118.5C126.2 126.5 135.5 130.5 145 127.5C148.6 131.9 145 141 140 149C126.8 155.8 115.667 151.833 110.5 149C107.7 144.2 103.833 122 102.5 112.5L99 97Z" fill="white"/>
<path d="M313.885 229.225C314.716 228.715 315.403 228.009 315.884 227.169C316.366 226.33 316.625 225.384 316.639 224.42C316.583 223.735 316.351 223.074 315.964 222.502C315.578 221.929 315.049 221.463 314.429 221.148C313.808 220.833 313.117 220.679 312.419 220.7C311.721 220.722 311.041 220.919 310.442 221.272C310.607 219.969 310.056 218.558 309.312 218.558C307.99 217.988 307.99 217.988 307.054 218.178C306.668 218.368 304.3 218.748 304.3 219.48C303.556 215.599 298.791 216.522 296.422 218.938C295.651 219.735 295.018 220.652 294.549 221.652C294.507 221.518 294.432 221.396 294.331 221.297C294.231 221.197 294.107 221.124 293.971 221.082L286.452 220.539C291.354 218.693 299.039 216.277 298.874 210.55C298.681 203.14 290.969 207.836 287.388 208.705C278.96 210.55 270.504 206.859 262.048 207.022C260.415 207.11 258.819 207.535 257.362 208.269C255.906 209.003 254.621 210.03 253.592 211.283C250.205 214.812 247.01 218.313 243.457 221.652C243.264 221.462 242.492 222.195 242.327 222.927C243.456 224.04 244.393 225.642 245.522 226.836C247.946 230.147 250.397 233.486 252.656 236.987C252.849 237.177 252.849 237.367 253.014 237.557C253.978 237.91 255.273 238.1 255.08 237.91C261.663 239.403 269.375 241.059 275.572 237.747C278.767 238.29 284.772 240.462 287.581 240.136C289.362 239.75 290.916 238.687 291.905 237.177C294.356 239.403 299.039 235.522 301.297 234.029C303.305 232.497 305.151 230.769 306.806 228.872C307.833 229.519 309.012 229.892 310.229 229.954C311.446 230.015 312.658 229.764 313.747 229.225H313.885ZM293.971 222.656L292.291 225.37C289.536 228.709 286.452 227.026 283.091 228.709C283.814 225.891 283.41 222.908 281.962 220.376C280.64 217.96 277.996 214.459 275.186 213.916C274.267 213.702 273.298 213.852 272.489 214.335C271.681 214.817 271.097 215.592 270.862 216.495C270.311 219.209 276.123 222.602 273.864 224.99C272.763 226.103 271.11 227.705 268.796 226.103C268.053 225.75 267.309 225.18 266.538 224.827C265.436 224.067 264.665 223.335 263.536 222.602C262.256 221.63 260.782 220.937 259.211 220.566C258.275 220.376 257.724 221.869 258.66 222.032C263.37 223.335 268.053 230.555 273.506 227.596C276.894 225.75 276.508 222.412 274.443 219.833C273.955 219.378 273.513 218.878 273.121 218.34C271.248 214.269 276.508 215.382 277.996 217.418C279.333 218.755 280.415 220.317 281.191 222.032C281.95 224.017 282.068 226.185 281.531 228.24C280.994 230.295 279.827 232.136 278.189 233.513C271.799 239.62 262.599 237.585 255.08 235.739C254.722 235.739 253.978 235.169 253.978 235.549C252.463 233.133 251.224 231.287 249.461 228.899C247.698 226.51 246.266 224.637 244.586 222.602C247.202 220.186 249.819 217.607 252.27 215.002C254.722 212.396 256.787 209.573 260.175 208.542C265.684 207.049 272.57 209.655 277.83 210.198C282.589 210.762 287.415 210.194 291.905 208.542C294.659 207.619 298.488 207.619 297.166 211.5C296.665 212.496 295.953 213.374 295.079 214.077C294.205 214.779 293.188 215.289 292.098 215.572C289.647 216.685 287.223 217.608 284.964 218.72C284.386 219.073 281.769 221.109 283.642 221.435C287.043 222.145 290.498 222.581 293.971 222.737V222.656ZM300.554 224.692C299.614 225.848 298.612 226.953 297.552 228.003C295.446 230.786 293.184 233.45 290.776 235.983C287.388 239.105 286.452 238.697 283.257 237.449C281.473 236.822 279.626 236.385 277.748 236.146C277.913 235.983 278.106 235.983 278.106 235.793C280.172 234.11 281.879 230.799 283.367 230.039C286.755 228.573 289.399 230.229 292.208 227.46C293.293 226.36 294.22 225.118 294.963 223.769C295.335 222.99 295.777 222.245 296.285 221.543C297.799 219.317 299.48 216.739 301.793 218.965C304.107 221.19 302.151 222.846 300.664 224.692H300.554ZM308.624 220.43C308.532 222.235 308.07 224.003 307.266 225.626C306.461 227.25 305.33 228.696 303.942 229.876C302.812 230.989 295.679 237.259 293.227 235.983C293.42 235.793 293.42 235.603 293.613 235.413C296.367 232.265 299.122 229.116 301.876 225.805C302.975 224.494 303.799 222.981 304.3 221.353C304.492 221.353 304.492 221.353 304.685 221.163C306.007 220.24 308.073 219.697 308.624 220.43ZM307.88 227.46C308.614 226.287 309.24 225.051 309.753 223.769C309.902 223.791 310.054 223.765 310.187 223.697C310.321 223.629 310.429 223.521 310.497 223.389C310.831 222.918 311.33 222.586 311.898 222.455C312.465 222.324 313.062 222.404 313.574 222.679C314.085 222.955 314.476 223.407 314.67 223.948C314.865 224.49 314.85 225.083 314.628 225.615C313.885 229.116 310.497 228.573 307.88 227.46Z" fill="#010101"/>
<path d="M286.892 241.113C284.335 240.908 281.811 240.407 279.373 239.62C278.023 239.24 276.619 238.914 275.71 238.697C269.264 241.982 261.497 240.299 255.19 238.887C254.326 238.931 253.465 238.763 252.683 238.399L252.353 238.209C252.206 238.057 252.085 237.883 251.995 237.693V237.503C249.764 234.002 247.285 230.636 244.889 227.379C244.298 226.749 243.755 226.078 243.264 225.37C242.816 224.727 242.319 224.119 241.776 223.552L241.391 223.172L241.528 222.656C241.634 222.228 241.835 221.828 242.116 221.486C242.397 221.143 242.751 220.866 243.153 220.675C245.687 218.286 248.001 215.87 250.452 213.292L253.014 210.577C254.123 209.236 255.505 208.137 257.07 207.352C258.635 206.567 260.35 206.112 262.103 206.017C265.684 206.049 269.254 206.422 272.762 207.13C277.525 208.263 282.467 208.456 287.305 207.7C288.196 207.489 289.07 207.217 289.922 206.886C292.676 205.855 295.926 204.715 298.185 206.126C298.82 206.648 299.319 207.312 299.64 208.063C299.961 208.814 300.095 209.629 300.03 210.442C300.168 215.382 295.431 218.015 290.913 219.833L294.274 220.077H294.494C294.897 219.354 295.397 218.687 295.981 218.096C296.813 217.213 297.858 216.552 299.018 216.172C300.178 215.793 301.417 215.707 302.619 215.925C303.114 216.055 303.577 216.284 303.98 216.596C304.382 216.909 304.716 217.299 304.961 217.743C305.407 217.562 305.867 217.416 306.338 217.309H306.751C307.252 217.144 307.785 217.093 308.31 217.159C308.834 217.225 309.337 217.406 309.781 217.689C310.237 217.883 310.631 218.194 310.922 218.591C311.213 218.988 311.389 219.454 311.433 219.942C312.65 219.664 313.928 219.818 315.041 220.376C315.821 220.745 316.486 221.311 316.97 222.017C317.454 222.723 317.739 223.543 317.796 224.393C317.797 225.509 317.518 226.609 316.985 227.593C316.451 228.578 315.68 229.418 314.738 230.039C313.636 230.647 312.394 230.967 311.13 230.967C309.867 230.967 308.624 230.647 307.522 230.039C305.909 231.821 304.119 233.439 302.179 234.87L301.16 235.576C298.681 237.313 295.072 239.837 292.428 238.507C291.352 239.882 289.823 240.842 288.104 241.222L286.892 241.113ZM275.407 236.77H275.737C276.866 236.96 278.326 237.367 279.869 237.774C282.316 238.614 284.88 239.081 287.47 239.159C288.725 238.891 289.846 238.2 290.638 237.204C289.758 238.193 288.556 238.848 287.238 239.056C285.921 239.264 284.571 239.012 283.422 238.344L282.953 238.182C281.259 237.584 279.505 237.165 277.72 236.933L275.792 236.716L276.729 235.766C269.953 240.244 261.029 238.073 254.914 236.553V236.879H255.3C261.47 238.263 269.072 240 275.131 236.879L275.407 236.77ZM279.814 235.467C281.098 235.707 282.361 236.052 283.587 236.499L284.028 236.662C286.782 237.612 287.333 237.829 290.142 235.223C291.699 233.703 293.127 232.06 294.411 230.31C295.21 229.306 296.009 228.275 296.835 227.325C297.887 226.275 298.88 225.169 299.81 224.013L300.416 223.307C302.013 221.489 302.399 220.783 301.049 219.562C300.581 219.1 300.196 218.91 299.893 218.965C299.011 218.965 297.937 220.593 297.138 221.869C296.641 222.567 296.199 223.302 295.816 224.067C295.085 225.506 294.159 226.839 293.062 228.03C292.336 228.732 291.474 229.281 290.528 229.645C289.581 230.009 288.569 230.18 287.553 230.147C286.335 230.141 285.128 230.371 284 230.826C283.155 231.489 282.429 232.287 281.852 233.187C281.108 233.947 280.475 234.734 279.814 235.467ZM254.446 234.517L254.914 234.68H255.162C263.756 236.77 271.688 238.182 277.555 232.699C279.049 231.448 280.115 229.773 280.608 227.903C281.101 226.033 280.997 224.058 280.309 222.249C279.575 220.647 278.559 219.186 277.307 217.933C276.887 217.407 276.338 216.996 275.711 216.74C275.084 216.483 274.401 216.389 273.726 216.467C273.561 216.467 273.589 217.065 273.947 217.825C274.286 218.255 274.664 218.655 275.076 219.019C275.767 219.772 276.283 220.666 276.588 221.636C276.892 222.607 276.978 223.631 276.839 224.637C276.655 225.418 276.298 226.15 275.793 226.779C275.288 227.408 274.648 227.918 273.919 228.275C269.898 230.473 266.29 227.867 263.122 225.56C261.707 224.402 260.106 223.485 258.385 222.846C258.19 222.805 258.005 222.725 257.841 222.612C257.678 222.498 257.54 222.354 257.434 222.186C257.329 222.019 257.259 221.833 257.228 221.638C257.197 221.444 257.207 221.245 257.256 221.055C257.337 220.58 257.605 220.156 258.003 219.876C258.4 219.596 258.894 219.483 259.376 219.562C261.073 219.971 262.667 220.72 264.059 221.76C264.637 222.14 265.105 222.52 265.601 222.9C266.097 223.28 266.51 223.606 267.033 223.959C267.557 224.312 267.749 224.366 268.163 224.61C268.496 224.835 268.845 225.035 269.209 225.207C270.945 226.266 271.964 225.56 273.176 224.257C273.809 223.606 273.176 222.683 271.881 220.892C271.248 220.287 270.748 219.56 270.412 218.757C270.076 217.954 269.91 217.092 269.925 216.223C270.011 215.671 270.216 215.144 270.524 214.676C270.833 214.208 271.239 213.81 271.716 213.509C272.796 212.81 274.111 212.556 275.379 212.803C278.849 213.509 281.659 217.852 282.54 219.399C283.079 218.76 283.71 218.202 284.413 217.743C285.845 217.037 287.168 216.44 288.682 215.843L291.685 214.54C292.653 214.296 293.56 213.857 294.347 213.249C295.134 212.642 295.784 211.88 296.257 211.012C296.45 210.387 296.615 209.573 296.257 209.193C295.634 208.895 294.952 208.741 294.26 208.741C293.568 208.741 292.885 208.895 292.263 209.193C287.629 210.885 282.655 211.471 277.748 210.903C276.068 210.74 274.277 210.36 272.239 209.98C268.373 208.842 264.295 208.582 260.313 209.22C257.793 210.218 255.62 211.915 254.06 214.106L252.849 215.436C250.618 217.797 248.166 220.213 245.743 222.466C247.23 224.257 248.745 226.13 250.122 228.166L250.397 228.546C251.967 230.799 253.152 232.482 254.446 234.517ZM253.537 236.634L253.152 236.01C251.719 233.757 250.397 232.02 248.937 229.795L248.662 229.387C247.147 227.189 245.467 225.126 243.814 223.145L243.539 222.819C243.952 223.307 244.338 223.796 244.696 224.312C245.153 224.955 245.659 225.563 246.211 226.13C248.717 229.55 251.196 232.943 253.482 236.472L253.537 236.634ZM305.098 221.977C304.572 223.448 303.789 224.817 302.785 226.022L302.619 226.239C300.251 229.279 297.744 232.129 295.265 234.87C298.217 233.374 300.92 231.443 303.28 229.143C305.732 227.072 307.296 224.162 307.66 221C306.786 221.101 305.952 221.419 305.236 221.923L305.098 221.977ZM298.818 228.085L298.212 228.709C297.689 229.306 297.138 229.985 296.587 230.69L298.818 228.085ZM309.257 227.026C310.321 227.485 311.52 227.533 312.618 227.162C312.918 226.975 313.173 226.725 313.364 226.429C313.555 226.133 313.676 225.799 313.719 225.452C313.845 225.079 313.827 224.675 313.669 224.315C313.512 223.954 313.226 223.664 312.865 223.497C312.599 223.351 312.284 223.314 311.99 223.396C311.696 223.477 311.446 223.67 311.296 223.932C311.204 224.098 311.078 224.244 310.926 224.361C310.775 224.478 310.6 224.563 310.414 224.61C310.056 225.37 309.698 226.13 309.367 226.917L309.257 227.026ZM283.78 222.357C284.326 223.964 284.513 225.667 284.331 227.352C285.171 227.143 286.028 227.007 286.892 226.945C287.777 226.974 288.656 226.804 289.463 226.446C290.27 226.089 290.983 225.553 291.547 224.882L292.373 223.497C289.481 223.292 286.609 222.874 283.78 222.249V222.357ZM303.721 220.539H304.162C305.353 219.611 306.867 219.182 308.376 219.345C308.021 219.16 307.608 219.112 307.219 219.209L306.641 219.399C306.119 219.501 305.617 219.685 305.153 219.942C305.187 219.836 305.187 219.722 305.153 219.616L303.335 219.779C303.475 219.956 303.595 220.147 303.694 220.349L303.721 220.539ZM297.083 213.699C295.818 215.022 294.237 216.012 292.483 216.576C291.492 217.037 290.473 217.472 289.481 217.879C288.49 218.286 286.727 219.073 285.405 219.697C285.063 219.944 284.74 220.216 284.441 220.512L287.195 219.453C290.721 217.96 295.21 216.305 297.056 213.509L297.083 213.699ZM301.903 218.015L302.372 218.395C302.778 218.753 303.122 219.175 303.391 219.643C303.335 219.261 303.167 218.903 302.907 218.614C302.648 218.325 302.309 218.116 301.931 218.015H301.903ZM271.853 216.63C271.853 216.63 271.853 216.63 271.853 216.82C271.786 217.051 271.786 217.295 271.853 217.526C271.785 217.168 271.775 216.801 271.826 216.44L271.853 216.63Z" fill="#010101"/>
<path d="M146.695 91.2309C145.758 86.9694 145.014 82.898 143.94 78.6638C143.555 76.628 140.36 77.5509 140.745 79.5866C141.296 82.5452 141.874 85.5037 142.618 88.4623C143.004 89.928 143.196 91.4209 143.555 92.8866C143.747 93.4566 143.747 93.8366 143.94 94.3794C144.684 96.2251 144.133 97.718 141.874 98.8308C140.938 96.958 138.101 98.6408 139.12 100.487C139.603 101.192 140.281 101.746 141.074 102.083C141.866 102.42 142.74 102.527 143.592 102.39C144.444 102.253 145.239 101.878 145.881 101.31C146.524 100.741 146.988 100.004 147.218 99.1837C147.788 96.5319 147.587 93.7755 146.639 91.2309H146.695Z" fill="#010101"/>
<path d="M144.271 109.172C141.857 109.906 139.28 109.949 136.842 109.296C134.404 108.642 132.204 107.319 130.5 105.481C129.177 103.988 126.919 106.214 128.241 107.707C130.319 109.928 132.983 111.537 135.936 112.352C138.888 113.167 142.013 113.156 144.96 112.321C147.025 111.588 146.089 108.439 144.216 109.172H144.271Z" fill="#010101"/>
<path d="M157.024 67.5625C155.344 66.9321 153.541 66.6876 151.751 66.8475C149.961 67.0074 148.232 67.5676 146.695 68.4853C146.405 68.7179 146.207 69.0435 146.135 69.4054C146.063 69.7672 146.123 70.1423 146.303 70.4654C146.483 70.7884 146.773 71.0388 147.121 71.173C147.47 71.3072 147.855 71.3166 148.21 71.1996C149.377 70.4798 150.706 70.0539 152.08 69.9592C153.453 69.8645 154.83 70.1041 156.087 70.6567C157.96 71.1996 158.842 68.241 157.024 67.5082V67.5625Z" fill="#010101"/>
<path d="M133.089 69.2181C130.763 67.9648 128.161 67.2922 125.511 67.2591C122.861 67.226 120.242 67.8334 117.885 69.0281C116.012 69.951 117.692 72.7467 119.565 71.7424C121.434 70.8046 123.507 70.3294 125.604 70.3578C127.701 70.3861 129.759 70.9173 131.602 71.9052C133.282 72.8281 134.797 70.0595 133.089 69.191V69.2181Z" fill="#010101"/>
<path d="M53.7099 319.501C55.2697 319.73 56.8432 319.857 58.4199 319.881L57.0977 329.11H59.852C60.2522 326.005 60.8224 322.925 61.5599 319.881C69.4473 319.219 77.1469 317.15 84.2831 313.774C89.9295 311.358 100.616 307.857 99.3216 300.203C105.326 300.203 117.528 297.814 116.784 290.784C137.678 292.218 158.653 292.091 179.528 290.404C182.282 289.671 182.53 290.784 183.274 285.6C184.21 279.113 184.21 277.267 184.981 270.97C187.736 291.707 190.986 312.417 193.244 333.398C193.795 333.588 194.539 333.588 195.117 333.778C194.374 322.487 193.795 313.041 193.244 309.16C191.729 297.326 190.049 285.491 188.534 273.874C193.238 277.055 198.667 279.04 204.338 279.651C210.009 280.262 215.745 279.48 221.035 277.376C228.748 274.227 234.807 267.957 240.949 262.583C247.014 257.929 252.439 252.518 257.09 246.487C258.605 244.261 258.605 244.261 258.605 244.071C259.348 242.796 257.09 240.38 256.924 240C256.759 239.62 248.469 226.89 244.337 221.326C244.337 221.326 241.335 217.254 240.757 216.332C240.178 215.409 240.013 215.789 237.754 216.902C237.561 216.902 237.369 216.902 237.369 217.064C229.106 221.326 220.292 225.017 213.516 231.124C212.58 208.949 209.77 184.71 200.736 164.353C197.183 156.4 191.922 148.99 183.852 145.109C180.81 143.693 177.585 142.697 174.267 142.15C176.19 139.462 177.41 136.349 177.82 133.085C177.828 130.614 177.644 128.145 177.269 125.702C176.525 119.215 178.206 116.989 182.337 112.755C185.091 109.606 188.342 106.648 188.534 102.196C188.92 97.0121 184.981 93.1306 181.951 89.2492C171.265 75.1893 178.206 57.6279 172.394 42.0751C169.006 33.0094 160.55 26.1695 150.58 27.4723C147.577 11.5667 128.793 6.5724 116.591 16.7509C112.074 20.4423 108.521 25.4366 103.453 28.5852C98.3851 31.7337 91.9952 32.2766 86.3488 34.6923C78.0859 38.1937 75.6345 44.6808 75.8273 53.1765C75.8273 55.8908 76.0201 58.605 76.0201 61.3193C75.7815 61.4515 75.5798 61.64 75.4334 61.868C75.287 62.0959 75.2003 62.3561 75.1812 62.6253C75.1621 62.8944 75.2112 63.1639 75.324 63.4098C75.4367 63.6556 75.6097 63.8699 75.8273 64.0336C75.4722 67.2163 74.0919 70.2032 71.8886 72.5564C68.8864 75.705 64.7547 77.7407 61.9178 81.2421C55.9133 89.0049 59.6869 98.0706 61.1742 106.593C61.8826 109.92 61.8632 113.357 61.1176 116.675C60.3719 119.993 58.9171 123.117 56.8499 125.838C54.2846 128.951 52.6617 132.714 52.1675 136.695C51.7819 140.956 53.8476 144.648 55.5553 148.529C55.9134 149.262 56.1062 150.022 56.4918 150.755C55.4906 151.159 54.5609 151.718 53.7375 152.41C37.7624 165.005 34.953 185.525 33.4657 204.199C31.3999 229.55 27.957 255.444 27.957 280.796C27.957 297.814 33.4656 316.298 53.4895 319.637L53.7099 319.501ZM92.7939 290.268C92.3702 290.268 91.9639 290.434 91.6643 290.73C91.3647 291.025 91.1963 291.425 91.1963 291.843C91.1963 292.26 91.3647 292.661 91.6643 292.956C91.9639 293.251 92.3702 293.417 92.7939 293.417C99.6843 293.328 106.52 292.202 113.066 290.078C115.82 296.376 102.572 298.221 99.2941 298.031H97.0355C88.9653 298.411 84.8338 292.874 84.8338 285.274C84.6987 280.296 85.9262 275.374 88.387 271.024C88.5798 270.861 88.5797 270.671 88.7725 270.481C92.904 264.564 102.104 266.22 108.494 265.867C110.559 265.677 128.022 263.641 127.471 267.903V268.066C126.727 268.066 125.956 268.256 125.405 268.256C114.691 269.911 103.976 272.137 93.2896 274.173C91.2239 274.553 92.1604 277.701 94.2262 277.131C98.1649 276.399 127.278 268.989 128.793 272.327C126.117 273.903 123.283 275.203 120.337 276.208L118.629 276.941C115.242 278.244 112.239 279.357 111.689 279.656C105.947 281.561 99.8898 282.371 93.8405 282.044C91.7748 281.881 91.7748 285.03 93.8405 285.193C102.351 285.521 110.827 283.944 118.629 280.578C117.886 289.074 98.7156 290.187 92.904 290.377L92.7939 290.268ZM108.934 199.449C110.442 199.481 111.951 199.417 113.451 199.259C112.476 207.548 111.979 215.885 111.964 224.23C111.386 236.987 110.835 249.771 110.256 262.719H110.064C109.696 241.439 109.32 220.349 108.934 199.449ZM179.913 287.31C159.158 288.997 138.303 289.124 117.528 287.69C118.969 286.841 120.139 285.609 120.904 284.135C121.668 282.662 121.997 281.006 121.852 279.357C125.984 277.891 133.696 275.476 133.503 271.404C133.476 270.628 133.15 269.891 132.593 269.342C132.036 268.793 131.288 268.473 130.501 268.446C130.501 268.256 130.693 268.256 130.693 268.066C131.437 261.796 124.303 261.959 119.676 262.149C117.61 262.339 115.737 262.339 113.672 262.339C114.223 250.694 114.801 238.86 115.159 227.053C115.13 217.07 115.765 207.097 117.06 197.196C117.28 195.82 117.593 194.46 117.996 193.125C118.414 193.294 118.868 193.359 119.318 193.315C132.649 193.315 143.529 192.582 155.758 193.857C167.574 195.16 179.61 192.582 191.426 193.667C186.937 224.936 183.163 256.096 179.803 287.093L179.913 287.31ZM80.2066 44.9794C82.9609 37.7866 90.3425 36.8366 96.7325 34.9909C104.996 32.6023 109.898 27.9609 116.013 22.0438C120.888 17.4295 125.956 13.1681 133.283 14.2809C136.838 14.8141 140.119 16.4754 142.629 19.0128C145.14 21.5502 146.741 24.8252 147.192 28.3409C147.192 28.5309 147.385 28.7209 147.385 28.8837C147.243 29.1577 147.186 29.4666 147.22 29.7723C147.255 30.078 147.379 30.367 147.578 30.6038C147.777 30.8405 148.043 31.0146 148.341 31.1044C148.64 31.1943 148.958 31.196 149.258 31.1095C169.171 26.4952 171.044 51.8465 171.292 64.7936C171.485 73.8593 172.422 82.8978 177.848 90.4978C182.365 96.6049 187.075 101.599 181.235 108.819C178.912 111.043 176.775 113.448 174.845 116.012C173.318 118.45 172.596 121.295 172.78 124.155C173.165 131.375 174.487 136.369 170.025 142.096C162.891 140.983 155.565 140.63 148.789 138.025H148.597C148.895 134.254 148.644 130.461 147.853 126.761C148.633 126.523 149.389 126.214 150.111 125.838C154.18 124.014 157.79 121.326 160.68 117.966C163.571 114.606 165.671 110.658 166.83 106.403C170.025 93.9992 167.023 78.6635 165.894 66.0693C165.926 60.408 164.575 54.8222 161.955 49.7837C158.76 44.7894 153.499 41.6408 150.497 36.4566C150.304 36.0766 150.111 36.0766 149.919 35.8866C149.997 35.6542 150.018 35.4068 149.981 35.1647C149.944 34.9226 149.848 34.6928 149.703 34.494C149.558 34.2953 149.367 34.1333 149.146 34.0215C148.925 33.9097 148.68 33.8512 148.431 33.8509C142.041 34.0409 131.52 32.5752 126.397 37.1894L126.204 37.3794C120.943 37.9223 116.619 42.1837 112.68 45.3322C104.224 51.8194 94.8321 58.4693 83.5669 55.5108C81.5012 54.9408 80.8125 58.0893 82.6304 58.4693C89.2125 60.1733 96.2081 59.3079 102.159 56.0536C105.855 54.1685 109.32 51.8736 112.487 49.2137C115.49 46.988 119.621 42.7537 123.753 41.0708C123.587 41.8308 123.202 42.5637 123.009 43.2965C121.329 49.0237 120.392 52.7422 115.131 56.6236C111.551 59.3379 108.356 61.4279 107.034 65.3093C97.6414 66.8022 87.7535 67.725 79.2426 62.595C79.2426 61.6722 79.4354 60.9122 79.4354 59.8808C79.8211 54.6965 78.6917 49.5394 80.3718 44.708L80.2066 44.9794ZM116.564 120.273C123.339 122.689 127.581 126.923 134.963 127.873C138.295 128.226 141.664 128.033 144.933 127.303C146.063 132.732 146.999 138.16 144.548 143.209C142.851 146.355 140.051 148.786 136.67 150.049C129.702 153.578 116.949 152.763 110.367 148.936C107.569 140.383 105.252 131.684 103.426 122.879C101.911 115.849 102.296 106.403 98.9086 99.9163C97.5865 97.5278 95.7135 96.7949 94.1986 94.7592C89.5162 88.2721 94.1986 83.9021 100.038 83.2778C101.718 83.0878 103.04 84.0107 104.72 83.8478C106.284 83.7403 107.755 83.0795 108.864 81.9872C109.972 80.8949 110.643 79.4446 110.752 77.9035C110.825 75.7351 110.631 73.5659 110.174 71.4436C110.041 70.0211 110.106 68.5874 110.367 67.1822C110.439 67.1123 110.494 67.027 110.527 66.9328C110.56 66.8387 110.571 66.7383 110.559 66.6393C111.762 63.5264 113.931 60.8668 116.757 59.0393C120.735 56.6542 123.679 52.9031 125.02 48.5079C125.405 47.2051 125.57 46.0923 125.956 44.8165C127.278 40.1751 130.666 38.3294 135.541 37.2166C139.59 36.7471 143.668 36.5657 147.743 36.6737C147.715 36.9933 147.782 37.3138 147.936 37.5966C149.692 40.5721 151.914 43.256 154.518 45.5494C159.427 50.1632 162.379 56.438 162.781 63.1108C163.718 73.4793 164.654 84.2007 164.847 94.5692C165.205 106.783 159.944 118.808 147.385 123.232C142.12 125.074 136.407 125.273 131.024 123.802C125.956 122.309 122.375 118.808 117.5 117.125C117.099 117.065 116.688 117.151 116.346 117.366C116.004 117.582 115.752 117.912 115.638 118.296C115.523 118.681 115.554 119.093 115.725 119.456C115.895 119.82 116.193 120.11 116.564 120.273ZM60.4029 126.381C62.5133 123.402 63.956 120.014 64.6351 116.443C65.3142 112.873 65.2141 109.2 64.3416 105.671C62.9544 100.956 62.032 96.12 61.5873 91.2306C61.7525 84.5807 65.8841 81.2421 70.7868 77.3607C74.7025 74.4961 77.4869 70.3801 78.6642 65.7165C87.1199 70.3307 97.0907 69.5979 106.483 68.295C106.483 74.0221 110.614 78.0935 100.093 79.9393C97.3386 80.5093 95.5757 79.5864 92.7663 81.4321C90.9809 82.6197 89.6208 84.3316 88.8791 86.3245C88.1374 88.3174 88.0519 90.49 88.6348 92.5335C89.3785 95.2478 91.3892 96.2249 93.1244 98.2606C97.6415 103.445 97.4487 110.285 98.633 116.772C100.341 126.761 106.345 148.013 107.282 151.162C110.036 159.495 113.286 167.827 116.867 175.943C112.064 177.17 107 176.964 102.317 175.35C97.6335 173.736 93.5424 170.787 90.5629 166.877C89.4336 165.602 87.5607 167.067 87.8085 168.37C88.387 171.085 88.9378 174.097 89.709 176.893C78.6917 176.893 67.3438 176.323 56.2714 175.4C60.3514 169.933 62.1638 163.138 61.3395 156.4C60.4981 152.379 59.176 148.471 57.4008 144.756C54.2058 137.346 56.0787 132.732 60.1551 126.435L60.4029 126.381ZM35.7792 215.164C37.2941 194.075 37.6797 168.75 56.0786 154.31C56.2714 154.12 56.8224 153.768 57.208 153.388C58.3262 157.179 58.4477 161.189 57.5612 165.039C56.6747 168.89 54.8091 172.455 52.14 175.4C51.9321 175.628 51.7938 175.909 51.7407 176.211C51.6876 176.513 51.7221 176.823 51.84 177.107C51.958 177.39 52.1546 177.635 52.4074 177.813C52.6602 177.992 52.959 178.096 53.2693 178.115C66.0818 179.386 78.9527 180.003 91.8299 179.96C92.9592 179.96 93.51 179.037 93.3172 177.925C92.9591 176.269 92.5736 174.613 92.188 172.767C95.8596 175.925 100.302 178.086 105.078 179.038C109.855 179.989 114.8 179.699 119.428 178.196C120.557 177.843 120.75 176.92 120.365 175.807C117.004 168.397 114.002 160.825 111.358 153.035C115.258 154.835 119.501 155.799 123.808 155.865C128.114 155.93 132.385 155.095 136.34 153.415C139.171 152.409 141.711 150.74 143.741 148.55C145.771 146.361 147.23 143.717 147.991 140.848C155.491 143.176 163.251 144.598 171.099 145.082C172.972 145.462 174.845 145.842 176.608 146.385C188.259 149.723 194.649 159.522 198.643 170.053C206.162 190.41 208.806 212.966 209.66 234.626C209.467 234.816 209.274 234.979 209.274 235.169C203.385 242.497 200.148 251.553 200.075 260.9C200.075 261.317 200.243 261.718 200.543 262.013C200.842 262.308 201.249 262.474 201.673 262.474C202.096 262.474 202.503 262.308 202.802 262.013C203.102 261.718 203.27 261.317 203.27 260.9C203.355 252.611 206.124 244.566 211.175 237.937C212.855 236.092 212.855 236.091 212.855 235.929C213.418 235.198 214.045 234.517 214.728 233.893C221.311 227.596 230.317 224.257 238.222 219.996C238.388 219.996 238.388 219.833 238.58 219.833C244.42 227.596 249.846 235.549 254.941 243.881C251.358 248.511 247.255 252.726 242.712 256.449C236.938 261.973 230.791 267.105 224.313 271.811C218.718 275.337 212.124 277.004 205.497 276.569C198.871 276.135 192.56 273.621 187.488 269.396C186.744 268.663 185.229 267.74 184.733 267.93C187.543 243.321 190.738 218.711 194.318 194.102C194.318 193.369 193.933 191.387 192.418 191.387C188.44 190.845 184.42 190.663 180.409 190.845L177.655 185.416C177.076 184.303 176.525 182.105 175.203 181.725C174.853 181.665 174.493 181.701 174.162 181.831C173.832 181.96 173.544 182.177 173.33 182.457C172.752 183.027 174.625 186.909 175.011 187.452C175.589 188.565 176.14 189.867 176.691 190.98C169.637 191.592 162.545 191.646 155.482 191.143C142.895 189.677 115.269 190.22 114.911 191.523C114.494 192.919 114.181 194.343 113.975 195.785C111.804 196.172 109.592 196.291 107.392 196.137H107.199C107.006 196.137 106.648 195.975 106.455 196.137C105.519 196.707 105.684 197.82 105.684 198.852C106.07 220.095 106.446 241.366 106.813 262.664C103.726 262.836 100.652 263.208 97.614 263.777C95.5302 264.043 93.4617 264.414 91.4167 264.89C90.3151 265.032 89.2756 265.474 88.4146 266.166C87.5194 267.133 86.3311 267.79 85.0266 268.039C82.9609 268.391 81.088 268.771 79.0222 268.961C75.8272 256.557 76.4057 243.99 75.2764 231.396C74.1471 219.372 72.0813 207.347 70.3736 195.513C70.0155 193.477 67.0134 194.4 67.1786 196.436C69.0791 209.03 71.3101 221.787 72.2741 234.436C71.8885 234.626 70.2084 258.104 67.0134 268.853H66.6277C63.3941 268.283 60.0835 268.283 56.8499 268.853C49.7162 270.319 44.0974 275.503 38.8367 280.117C37.3218 281.42 39.5803 283.836 41.0677 282.343C49.1654 275.123 55.7206 270.889 67.1786 272.164C70.3558 272.572 73.5635 272.699 76.7637 272.544L79.9588 272.354C81.0881 272.164 82.2173 272.164 83.3465 271.974C84.4758 271.784 84.6686 271.974 84.6686 271.974C81.6664 278.651 79.4079 287.337 83.5394 293.987C85.2207 296.676 87.6226 298.855 90.4803 300.284C90.8659 300.474 95.1901 301.397 95.1901 301.397C97.4211 304.356 91.2239 307.124 89.1581 308.237C77.3421 314.154 62.8818 320.071 49.5233 315.457C36.1648 310.843 32.0609 297.706 31.5101 285.301C30.188 261.986 34.2644 238.127 35.8068 215.192L35.7792 215.164ZM75.7997 269.179C73.9614 269.212 72.1226 269.148 70.2911 268.989C71.7427 264.211 72.8109 259.328 73.486 254.386C73.86 259.366 74.615 264.311 75.7446 269.179H75.7997Z" fill="#010101"/>
<g style="mix-blend-mode:multiply" opacity="0.15">
<path d="M252.655 236.988C252.655 236.988 223.735 270.753 211.148 270.753C198.56 270.753 184.513 256.937 184.513 256.937L182.503 270.672L179.583 290.513L186.001 331.987L195.172 333.806L188.59 273.875L204.813 277.946H216.105L240.894 262.583L257.035 246.488L252.655 236.988Z" fill="#010101"/>
</g>
<g style="mix-blend-mode:multiply" opacity="0.15">
<path d="M174.24 193.722L164.737 288.803L179.583 290.459L191.399 193.912L174.24 193.722Z" fill="#010101"/>
</g>
<g style="mix-blend-mode:multiply" opacity="0.15">
<path d="M98.9917 99.9166L114.306 153.578L124.111 176.731L117.032 175.943L109.21 156.754L98.7988 116.772L98.9917 99.9166Z" fill="#010101"/>
</g>
<g style="mix-blend-mode:multiply" opacity="0.15">
<path d="M70.4297 195.377L76.1587 201.023L81.0064 255.499L84.7247 271.947L76.8198 272.517L70.4297 230.799V195.377Z" fill="#010101"/>
</g>
<g style="mix-blend-mode:multiply" opacity="0.15">
<path d="M127.222 290.513C127.222 290.513 130.748 292.223 124.11 298.791C117.472 305.36 102.957 308.644 102.957 308.644L95.6304 315.864C86.0178 325.337 77.562 322.731 77.562 322.731L70.4282 331.987L57.29 329.273L61.6144 320.044L84.3376 313.937L97.2829 303.27L98.55 298.927L106.813 297.95L114.25 294.096L115.269 290.078L127.222 290.513Z" fill="#010101"/>
</g>
<g style="mix-blend-mode:multiply" opacity="0.15">
<path d="M39.085 281.176L42.2249 285.383C42.2249 285.383 51.2316 275.367 59.6599 275.367H77.563C78.6648 275.367 85.826 273.44 85.826 273.44L86.79 269.776L76.654 270.753L59.77 269.776C55.9249 270.405 52.1321 271.312 48.4222 272.49C47.5408 273.277 39.085 281.176 39.085 281.176Z" fill="#010101"/>
</g>
<path d="M41.3701 148.421C37.2899 149.884 33.7724 152.562 31.3049 156.083C28.8375 159.604 27.5422 163.794 27.5984 168.072C27.7912 170.271 31.3167 170.298 31.1239 168.072C31.0521 164.573 32.0695 161.137 34.0393 158.226C36.009 155.314 38.8365 153.067 42.1412 151.786C44.262 151.054 43.3532 147.688 41.2048 148.421H41.3701Z" fill="#231F20"/>
<path d="M194.015 138.514C203.82 137.238 206.905 149.696 210.733 156.184C210.991 156.529 211.369 156.768 211.795 156.855C212.22 156.942 212.664 156.871 213.04 156.656C213.416 156.44 213.697 156.095 213.831 155.688C213.964 155.28 213.94 154.838 213.763 154.446C209.246 146.711 205.5 133.546 194.015 135.039C191.811 135.338 191.783 138.812 194.015 138.514Z" fill="#231F20"/>
<path d="M298.542 241.656C296.519 243.765 294.068 245.43 291.349 246.543C288.63 247.656 285.703 248.192 282.759 248.116C280.501 247.98 280.501 251.455 282.759 251.59C286.166 251.661 289.55 251.034 292.698 249.749C295.846 248.464 298.689 246.549 301.048 244.126C302.673 242.579 300.194 240.109 298.542 241.656Z" fill="#231F20"/>
<path d="M216.627 285.844C214.257 287.134 211.647 287.939 208.954 288.209C206.261 288.48 203.54 288.211 200.955 287.419C198.806 286.686 197.87 290.133 200.018 290.757C203.055 291.687 206.253 291.998 209.416 291.672C212.579 291.345 215.641 290.387 218.417 288.857C220.345 287.663 218.582 284.65 216.627 285.844Z" fill="#231F20"/>
<path d="M121.743 0.0853923C111.717 -1.00032 106.732 8.52679 99.9289 13.9011C98.1661 15.3125 100.673 17.7553 102.435 16.371C108.385 11.6482 112.984 2.60966 121.716 3.55966C123.974 3.80395 123.974 0.329677 121.716 0.0853923H121.743Z" fill="#231F20"/>
<path d="M95.9614 229.55C94.6416 235.563 94.4455 241.762 95.3829 247.844C95.7961 250.043 99.2114 249.12 98.7707 246.922C97.9574 241.449 98.1535 235.877 99.3492 230.473C99.7348 228.302 96.3195 227.352 95.9614 229.55Z" fill="#231F20"/>
<path d="M259.128 189.569C258.577 186.855 257.53 184.14 256.731 181.209C255.464 176.92 254.5 175.78 259.486 174.776C263.838 173.908 270.503 177.49 274.304 175.563C278.105 173.636 279.124 166.362 279.813 162.942C280.198 160.689 279.289 154.039 280.556 152.383C283.311 148.991 296.036 151.135 299.837 151.081C300.411 151.067 300.968 150.876 301.427 150.536C301.886 150.195 302.226 149.721 302.398 149.181C303.018 145.715 303.018 142.169 302.398 138.703C302.205 136.804 300.663 131.728 302.398 130.316C303.472 129.475 311.68 130.968 312.975 131.104C316.363 131.456 316.335 126.245 312.975 125.892C308.289 125.317 303.564 125.109 298.845 125.268C298.272 125.289 297.719 125.486 297.265 125.831C296.811 126.177 296.477 126.654 296.311 127.195C295.182 132.325 298.432 138.514 296.669 143.019C294.906 147.525 291.932 145.733 286.836 145.733C283.584 145.791 280.346 146.164 277.169 146.846C276.624 147.015 276.147 147.345 275.801 147.793C275.456 148.24 275.26 148.782 275.24 149.343C275.301 154.519 274.877 159.689 273.974 164.788C272.982 169.212 273.065 169.185 269.925 170.216C264.802 171.709 258.329 167.801 253.151 170.813C245.99 174.966 252.875 185.118 254.032 191.116C254.666 194.428 259.761 193.016 259.128 189.732V189.569Z" fill="#231F20"/>
<path d="M319.97 141.228C319.97 137.672 324.597 135.799 327.213 134.116C329.601 132.768 331.72 131.002 333.466 128.905C333.798 128.302 333.887 127.597 333.713 126.932C333.539 126.267 333.116 125.692 332.529 125.322C327.573 121.83 322.862 118.012 318.427 113.895C318.041 113.575 317.573 113.366 317.074 113.29C316.576 113.214 316.066 113.275 315.6 113.465C315.133 113.656 314.729 113.968 314.431 114.37C314.133 114.771 313.953 115.245 313.91 115.741L314.681 141.228C314.681 144.566 320.19 144.593 319.97 141.228L319.198 115.741L314.681 117.586C319.462 121.991 324.532 126.08 329.858 129.828L328.921 126.272C324.542 131.891 314.764 132.596 314.681 141.228C314.848 141.792 315.196 142.287 315.673 142.639C316.15 142.992 316.73 143.182 317.325 143.182C317.921 143.182 318.501 142.992 318.978 142.639C319.455 142.287 319.803 141.792 319.97 141.228Z" fill="#231F20"/>
<path d="M64.9993 83.5C70.1993 81.5 75.9993 70.6667 78.9993 66L91.9993 69.5L105.999 68.5L106.999 73.5V76.5L103.999 79L99.9994 80L93.9993 80.5L90.9994 83.5L88.9993 86.5L90.9994 95L95.9994 102L99.9994 115L101.499 131L106.499 149.5L112.499 166L116.499 176L111.499 177L103.499 176L86.9989 166L89.9993 176C74.9993 177.333 49.399 176.7 58.999 173.5C62.3184 172.394 58.999 168.5 62 163.5C62.2003 154.176 56 142.308 56 140.5C56 136 58.999 125.5 58.999 128.5L62.4993 123C62.4993 118.167 65.9993 117 63.9992 106.5C62.2214 97.1678 58.4993 86 64.9993 83.5Z" fill="white"/>
<path d="M61 165.5L61.5 159.5H62L60 176L56 175.5L59.5 170L61 165.5Z" fill="white"/>
<path d="M308 221C307.6 221 306.5 221 305 222C305 223.2 298.167 231.333 295 235L296 234.5L298.5 233L303.5 229.5C305 229 308.5 221 308 221Z" fill="white"/>
<path d="M296 223.5C296.4 222.3 298.5 220 299.5 219C299.338 219.167 299.211 219.4 300 219C300.789 218.6 301.662 220.167 302 221L301 223L297.5 227L293 232.5C293 234 287.5 237.5 287 237.5C286.6 237.5 281.667 236 279.5 235.5C280.667 234 283.6 230.9 284 230.5C284.5 230 287 229.5 288.5 230C290 230.5 293.5 227.5 294 227C294.5 226.5 295.5 225 296 223.5Z" fill="white"/>
<path d="M287 210.5C289 210.5 292.333 209.167 294 208.5H294.5H295L296 209L296.5 209.5V210V211L296 211.5L295 212.5L294 213.5L293 214C292.167 214.333 290.3 215.1 289.5 215.5C288.7 215.9 287.5 216.333 287 216.5C286.2 216.5 283.667 218.667 282.5 219.5C276.906 209.71 272.181 213.395 270.757 214.343L270 216C270 216.894 269.833 217.333 270 217.5L270.5 218.5L271 219.5L273.5 223.5L273 224V224.5L272.5 225L271.5 225.5H271H270L269 225L268 224.5L266.5 223.5L265.5 222.5L264.5 222L264 221.5H263.5L263 221L262 220.5L260.5 220L260 219.5H259.5H259H258.5H258H257.5V220V220.5H257V221V222L257.5 222.5L258.5 223L260 223.5L261 224L262.5 225L264 226L265.5 227L267.5 228.5L269.5 229L273.5 228.5L275 227L276 226C276.167 225.667 276.1 225.2 276.5 224C277 222.5 276.167 220.667 275.5 220L273.5 217V216C281 216.5 281.333 224.333 280.5 228C279.818 231 278 232.5 276.5 233.5C275.7 234.7 272.167 236 270.5 236.5H264L255 235L246.5 222.5C247.7 218.9 255 214 258 210C260 209 263 208 268 209C269.573 209.787 277.236 210.638 280.345 210.983L280.5 211C281.667 211 285 210.5 287 210.5Z" fill="white"/>
<path d="M148 127C160.8 123 167.5 106.833 169 99H183C184.6 103 181.833 109 179.5 111C173.5 116.2 172.5 121.833 173 124.5C174.2 134.1 171.833 140.167 170 142C166.8 142.8 154.5 139.833 149 138L148 127Z" fill="white"/>
</svg>
