<svg width="446" height="311" viewBox="0 0 446 311" fill="none" xmlns="http://www.w3.org/2000/svg">
<path d="M238 121V90L276.5 88C277.3 94.4 278.333 98 279 99.5C282.2 103.9 285.5 103.667 286.5 102.5C286.1 100.5 286.5 97.1667 287 96C289.8 92 293 94.3333 294 96C294.8 96.4 295.5 99 295 101.5C295 104.3 290.5 106.5 287.5 106.5C285.9 106.1 285.167 107.333 285 108V113.5H282H273.5L262 125.5C261.706 125.941 261.37 126.349 261 126.726C257.343 130.451 250.33 131.151 247 131C241 129.8 238.5 123.833 238 121Z" fill="white"/>
<path d="M160.148 215.903L164.968 215.411L166.471 219.416L164.216 227.277L168.594 230.299L173.413 234.328L183.827 229.119L186.679 234.328L189.708 246.365L182.301 247.716L174.917 246.365L157.893 236.489L160.148 215.903Z" fill="#ED1C24"/>
<path d="M182.296 248.552L174.558 247.127L157.069 236.981L159.457 215.141L165.449 214.502L167.262 219.416L165.051 226.958L168.942 229.635L173.364 233.394L183.976 228.112L187.448 234.131L190.698 247.102L182.296 248.552ZM175.155 245.579L182.296 246.857L188.752 245.702L185.988 234.647L183.512 230.2L173.32 235.286L168.124 230.962L163.304 227.645L165.67 219.465L164.476 216.296L160.806 216.664L158.595 236.023L175.155 245.579Z" fill="#010101"/>
<path d="M249.71 143.062L248.649 151.268L262.07 147.263L275.645 139.893L285.152 129.674L290.414 144.585L304.453 160.136L313.032 169.963L315.751 180.158L313.784 195.905L306.244 218.507L295.786 242.68L281.305 282.208L269.543 307.659L236.975 306.48L202.927 281.029L209.25 274.003L191.872 258.698L195.034 252.826L201.224 255.013L207.857 232.559L203.634 231.06C201.524 228.383 199.256 225.863 196.847 223.518C196.25 223.518 192.624 215.657 192.624 215.657L201.468 215.485L212.522 188.462L220.659 179.421L231.36 157.999L243.431 145.937L249.909 142.915L249.71 143.062Z" fill="#ED1C24"/>
<path d="M269.894 308.494L236.619 307.315L201.752 281.152L208.142 274.076L190.786 258.968L194.611 251.893L200.647 254.03L206.815 233.173L203.123 231.871L202.902 231.674C200.882 229.095 198.742 226.635 196.49 224.304C196.004 224.304 195.164 223.346 191.781 216.001L191.228 214.797L200.713 214.625L211.746 188.019L219.816 179.053L230.627 157.508L242.898 145.224L250.614 141.638L249.531 150.039L261.846 146.354L275.112 139.107L285.348 128.101L290.964 144.021L304.893 159.448L313.737 169.693L316.5 180.084L314.511 196.004L306.927 218.777L296.359 242.95L281.899 282.429L269.894 308.494ZM237.105 305.644L268.987 306.799L280.528 281.815L294.966 242.361L305.556 218.212L313.073 195.684L314.953 180.305L312.344 170.479L303.876 160.652L289.704 144.807L284.84 131.074L275.863 140.778L262.288 148.148L247.63 152.57L248.669 144.561L243.517 147.018L231.644 158.662L220.966 180.084L212.918 189.027L201.863 216.32L193.859 216.468C194.809 218.656 195.91 220.759 197.154 222.757C197.684 223.027 199.055 224.255 204.052 230.323L208.805 232.043L201.62 256.241L195.296 254.03L192.776 258.673L210.464 274.052L204.118 280.808L237.105 305.644Z" fill="#010101"/>
<path d="M259.192 95.1573C259.192 96.5331 258.861 97.614 258.352 97.614C257.844 97.614 257.424 96.5331 257.38 95.1573C257.335 93.7816 257.711 92.7007 258.198 92.7007C258.684 92.7007 259.148 93.7816 259.192 95.1573Z" fill="#010101"/>
<path d="M258.381 98.5479C257.253 98.5479 256.7 96.9019 256.656 95.2559C256.627 94.5414 256.709 93.8267 256.899 93.1432C257.275 92.0377 257.872 91.8658 258.204 91.8412C259.331 91.8412 259.928 93.4626 259.972 95.1331C259.972 96.8036 259.552 98.4987 258.425 98.5479H258.381ZM258.27 93.9048C258.214 94.3365 258.214 94.775 258.27 95.2068C258.284 95.6326 258.351 96.0543 258.469 96.4597C258.562 96.0423 258.6 95.6118 258.58 95.1823C258.508 94.7393 258.381 94.3095 258.204 93.9048H258.27Z" fill="#010101"/>
<path d="M241.107 95.3295C241.107 96.7052 240.798 97.7861 240.289 97.7861C239.781 97.7861 239.36 96.7052 239.316 95.3295C239.272 93.9537 239.626 92.8728 240.134 92.8728C240.643 92.8728 241.063 93.9537 241.107 95.3295Z" fill="#010101"/>
<path d="M240.256 98.6952C240.101 98.6986 239.947 98.6678 239.803 98.6045C239.659 98.5413 239.527 98.4468 239.416 98.3267C238.815 97.5124 238.508 96.4794 238.554 95.4278C238.514 94.7128 238.596 93.9958 238.797 93.3151C239.151 92.2096 239.77 92.0131 240.102 92.0131C241.207 92.0131 241.76 93.6591 241.804 95.305C241.842 96.0119 241.76 96.7204 241.561 97.3932C241.207 98.4987 240.588 98.6952 240.256 98.6952ZM240.256 94.0767C240.153 94.4922 240.116 94.9244 240.146 95.3541C240.142 95.7878 240.201 96.2193 240.323 96.6316C240.427 96.2163 240.464 95.7839 240.433 95.3541C240.406 94.9233 240.317 94.5001 240.168 94.1012L240.256 94.0767Z" fill="#010101"/>
<path d="M425.076 302.623H0V311H425.076V302.623Z" fill="#010101"/>
<path d="M247.895 101.717C248.956 98.6952 249.862 95.87 250.901 92.8484C251.366 91.3498 249.243 90.6619 248.801 92.185C247.74 95.3541 246.701 98.5478 245.639 101.545C244.559 103.999 243.75 106.589 243.229 109.259C243.233 109.472 243.291 109.68 243.397 109.858C243.503 110.037 243.651 110.178 243.826 110.266C245.074 110.998 246.51 111.232 247.895 110.929C248.058 110.966 248.227 110.962 248.389 110.917C248.551 110.872 248.702 110.788 248.831 110.67C248.96 110.553 249.064 110.405 249.136 110.237C249.207 110.07 249.244 109.887 249.244 109.701C249.244 109.516 249.207 109.332 249.136 109.165C249.064 108.997 248.96 108.849 248.831 108.732C248.702 108.614 248.551 108.53 248.389 108.485C248.227 108.44 248.058 108.436 247.895 108.473C245.33 108.62 246.236 106.95 246.833 105.107C247.26 104.024 247.615 102.907 247.895 101.766V101.717Z" fill="#010101"/>
<path d="M247.895 101.717C248.956 98.6952 249.862 95.87 250.901 92.8484C251.366 91.3498 249.243 90.6619 248.801 92.185C247.74 95.3541 246.701 98.5478 245.639 101.545C244.559 103.999 243.75 106.589 243.229 109.259C243.233 109.472 243.291 109.68 243.397 109.858C243.503 110.037 243.651 110.178 243.826 110.266C245.074 110.998 246.51 111.232 247.895 110.929C248.058 110.966 248.227 110.962 248.389 110.917C248.551 110.872 248.702 110.788 248.831 110.67C248.96 110.553 249.064 110.405 249.136 110.237C249.207 110.07 249.244 109.887 249.244 109.701C249.244 109.516 249.207 109.332 249.136 109.165C249.064 108.997 248.96 108.849 248.831 108.732C248.702 108.614 248.551 108.53 248.389 108.485C248.227 108.44 248.058 108.436 247.895 108.473C245.33 108.62 246.236 106.95 246.833 105.107C247.26 104.024 247.615 102.907 247.895 101.766V101.717Z" fill="#010101"/>
<path d="M257.99 111.101C257.378 112.381 256.494 113.475 255.415 114.288C254.336 115.102 253.095 115.61 251.799 115.769C250.45 115.941 250.295 118.471 251.799 118.226C253.459 118.031 255.052 117.396 256.445 116.375C257.838 115.353 258.99 113.974 259.803 112.354C260.554 110.856 258.586 109.676 257.99 111.028V111.101Z" fill="#010101"/>
<path d="M257.99 111.101C257.378 112.381 256.494 113.475 255.415 114.288C254.336 115.102 253.095 115.61 251.799 115.769C250.45 115.941 250.295 118.471 251.799 118.226C253.459 118.031 255.052 117.396 256.445 116.375C257.838 115.353 258.99 113.974 259.803 112.354C260.554 110.856 258.586 109.676 257.99 111.028V111.101Z" fill="#010101"/>
<path d="M270.201 80.4665C268.792 79.0777 266.952 78.3523 265.07 78.444C263.189 78.5357 261.413 79.4373 260.119 80.9579C259.899 81.2022 259.775 81.5336 259.775 81.8791C259.775 82.2246 259.899 82.556 260.119 82.8004C260.339 83.0447 260.637 83.182 260.948 83.182C261.259 83.182 261.557 83.0447 261.777 82.8004C262.643 81.7303 263.851 81.0777 265.143 80.9814C266.435 80.8851 267.71 81.3525 268.697 82.2845C269.759 83.2917 271.417 81.4492 270.201 80.4665Z" fill="#010101"/>
<path d="M270.201 80.4665C268.792 79.0777 266.952 78.3523 265.07 78.444C263.189 78.5357 261.413 79.4373 260.119 80.9579C259.899 81.2022 259.775 81.5336 259.775 81.8791C259.775 82.2246 259.899 82.556 260.119 82.8004C260.339 83.0447 260.637 83.182 260.948 83.182C261.259 83.182 261.557 83.0447 261.777 82.8004C262.643 81.7303 263.851 81.0777 265.143 80.9814C266.435 80.8851 267.71 81.3525 268.697 82.2845C269.759 83.2917 271.417 81.4492 270.201 80.4665Z" fill="#010101"/>
<path d="M248.782 82.6287C248.145 81.6559 247.332 80.8411 246.395 80.2363C245.459 79.6315 244.42 79.2498 243.343 79.1157C241.84 78.9437 238.678 79.2876 238.236 81.3021C238.178 81.5469 238.189 81.8058 238.268 82.0433C238.347 82.2807 238.49 82.4852 238.678 82.6287C238.844 82.7846 239.048 82.8838 239.263 82.9143C239.479 82.9449 239.698 82.9054 239.894 82.8006C240.112 82.7114 240.3 82.551 240.435 82.3405C240.569 82.13 240.642 81.8794 240.646 81.6215C241.636 81.3725 242.663 81.3725 243.653 81.6215C244.867 81.9202 245.943 82.6968 246.682 83.8079C247.721 85.1345 249.689 83.8079 248.782 82.6287Z" fill="#010101"/>
<path d="M248.782 82.6287C248.145 81.6559 247.332 80.8411 246.395 80.2363C245.459 79.6315 244.42 79.2498 243.343 79.1157C241.84 78.9437 238.678 79.2876 238.236 81.3021C238.178 81.5469 238.189 81.8058 238.268 82.0433C238.347 82.2807 238.49 82.4852 238.678 82.6287C238.844 82.7846 239.048 82.8838 239.263 82.9143C239.479 82.9449 239.698 82.9054 239.894 82.8006C240.112 82.7114 240.3 82.551 240.435 82.3405C240.569 82.13 240.642 81.8794 240.646 81.6215C241.636 81.3725 242.663 81.3725 243.653 81.6215C244.867 81.9202 245.943 82.6968 246.682 83.8079C247.721 85.1345 249.689 83.8079 248.782 82.6287Z" fill="#010101"/>
<path d="M294.945 156.967C282.586 162.986 275.202 175.883 270.36 189.444C264.191 206.862 259.659 224.771 253.335 242.189C252.716 243.687 254.994 244.351 255.436 242.852C261.007 227.449 265.54 211.874 270.36 196.323C275.18 180.772 281.967 166.008 296.007 159.154C297.355 158.466 296.294 156.304 294.945 156.967Z" fill="#010101"/>
<path d="M254.356 244.228C254.105 244.235 253.855 244.179 253.625 244.064C253.395 243.949 253.192 243.778 253.03 243.564C252.878 243.337 252.786 243.068 252.763 242.787C252.739 242.505 252.786 242.222 252.897 241.968C256.191 232.952 259.021 223.616 261.741 214.576C264.283 206.248 266.914 197.625 269.877 189.248C275.869 172.444 283.983 161.708 294.706 156.5C294.906 156.395 295.122 156.335 295.343 156.325C295.564 156.315 295.784 156.355 295.991 156.442C296.198 156.529 296.386 156.662 296.545 156.833C296.705 157.003 296.831 157.208 296.917 157.434C297.058 157.82 297.058 158.252 296.917 158.638C296.847 158.857 296.735 159.059 296.591 159.228C296.446 159.397 296.271 159.531 296.077 159.62C281.418 166.818 274.808 183.106 270.695 196.47C269.678 199.836 268.639 203.177 267.622 206.518C263.952 218.531 260.149 230.937 255.771 243.049C255.681 243.349 255.517 243.616 255.299 243.82C255.08 244.023 254.815 244.156 254.533 244.203L254.356 244.228ZM295.458 157.36C295.356 157.33 295.25 157.33 295.148 157.36C284.646 162.47 276.709 172.985 270.828 189.542C267.865 197.895 265.234 206.493 262.692 214.822C259.95 223.862 257.098 233.222 253.848 242.287C253.797 242.366 253.77 242.46 253.77 242.557C253.77 242.654 253.797 242.749 253.848 242.827C253.941 242.926 254.053 242.999 254.176 243.042C254.298 243.084 254.428 243.095 254.555 243.073C254.672 243.049 254.78 242.991 254.87 242.905C254.959 242.818 255.026 242.707 255.064 242.582C259.486 230.47 263.244 218.015 266.914 206.076C267.931 202.735 268.948 199.394 269.988 196.053C274.166 182.443 280.866 165.909 295.878 158.564C295.953 158.539 296.023 158.495 296.08 158.435C296.138 158.376 296.182 158.302 296.209 158.22C296.262 158.07 296.262 157.903 296.209 157.753C296.137 157.608 296.026 157.492 295.891 157.421C295.756 157.351 295.604 157.329 295.458 157.36Z" fill="#010101"/>
<path d="M259.058 308.322C252.713 301.787 246.235 295.253 239.602 289.234C238.541 288.227 236.882 289.897 237.944 291.076C244.576 297.267 251.062 303.63 257.4 310.165C258.594 311.172 260.119 309.329 259.058 308.322Z" fill="#010101"/>
<path d="M258.19 310.975C257.822 310.968 257.466 310.831 257.173 310.582C250.828 304.048 244.284 297.636 237.695 291.469C237.545 291.311 237.426 291.121 237.344 290.909C237.263 290.698 237.221 290.471 237.221 290.241C237.221 290.011 237.263 289.784 237.344 289.573C237.426 289.362 237.545 289.171 237.695 289.013C237.988 288.652 238.395 288.43 238.831 288.393C239.268 288.356 239.7 288.508 240.039 288.816C247.025 295.154 253.791 302.009 259.495 307.905C259.642 308.041 259.764 308.21 259.852 308.4C259.94 308.59 259.993 308.797 260.007 309.011C260.021 309.224 259.997 309.438 259.936 309.64C259.874 309.843 259.777 310.029 259.65 310.189C259.476 310.434 259.254 310.632 259.001 310.769C258.749 310.905 258.471 310.975 258.19 310.975ZM238.933 289.455C238.708 289.465 238.494 289.571 238.336 289.75C238.275 289.81 238.226 289.883 238.192 289.966C238.159 290.049 238.142 290.138 238.142 290.229C238.142 290.319 238.159 290.409 238.192 290.492C238.226 290.574 238.275 290.648 238.336 290.708C244.969 296.825 251.469 303.261 257.77 309.772C257.939 309.9 258.146 309.951 258.347 309.914C258.549 309.877 258.73 309.756 258.854 309.575C258.907 309.52 258.949 309.453 258.978 309.379C259.006 309.305 259.021 309.226 259.021 309.145C259.021 309.065 259.006 308.985 258.978 308.911C258.949 308.837 258.907 308.77 258.854 308.715C253.172 302.819 246.406 295.965 239.42 289.627C239.345 289.554 239.256 289.501 239.161 289.471C239.065 289.441 238.965 289.436 238.867 289.455H238.933Z" fill="#010101"/>
<path d="M442.702 4.1136C442.696 3.8975 442.635 3.68775 442.525 3.50922C442.416 3.33068 442.262 3.1909 442.083 3.10639C442.083 2.44309 441.641 1.60782 440.889 1.75522C440.758 1.64074 440.591 1.58785 440.425 1.60783C430.476 -0.578603 420.217 1.09192 410.267 1.75522C410.125 1.68248 409.971 1.64479 409.814 1.64479C409.658 1.64479 409.503 1.68248 409.361 1.75522L409.228 1.92717H409.074C377.527 19.9119 347.095 40.2163 317.983 62.705C317.231 63.2209 315.573 65.5548 316.037 66.0461V66.2181C315.728 66.734 317.386 68.6747 317.983 69.2398C322.829 72.6469 327.284 76.6974 331.248 81.302C333.405 83.8978 335.832 86.1988 338.478 88.1561C328.932 112.924 317.851 136.926 305.314 159.989L303.501 158.466C282.696 139.721 286.145 125.325 286.3 121.149C286.455 118.299 285.393 112.6 286.609 110.094C287.516 108.252 288.71 108.743 290.523 107.908C295.962 105.451 298.969 96.3613 293.397 92.013C292.389 91.1327 291.193 90.5572 289.926 90.3425C289.926 90.1705 290.081 89.9986 290.081 89.8266C290.361 83.1445 290.508 76.446 290.523 69.7311C290.807 69.7557 291.091 69.6874 291.341 69.5346C292.329 68.9038 293.126 67.9621 293.633 66.8284C294.14 65.6946 294.334 64.4194 294.19 63.1635C294.046 61.9077 293.57 60.7274 292.823 59.7714C292.076 58.8154 291.091 58.1266 289.992 57.7917C290.616 56.4899 290.88 55.0125 290.751 53.5447C290.622 52.0768 290.107 50.6838 289.269 49.5402C288.431 48.3966 287.308 47.5532 286.04 47.1157C284.773 46.6781 283.417 46.666 282.143 47.0807C282.202 46.1773 282.084 45.2707 281.797 44.4227C281.511 43.5747 281.064 42.8053 280.485 42.1673C277.633 38.8017 273.565 39.9809 270.226 41.9953C269.51 40.0776 268.146 38.5482 266.426 37.7352C264.707 36.9223 262.769 36.8907 261.029 37.6471C260.817 36.7808 260.397 35.9954 259.812 35.376C259.227 34.7567 258.501 34.3272 257.712 34.134C254.109 32.9548 252.605 36.1239 249.731 37.4751C246.857 38.8263 244.004 36.1239 240.887 38.4823C238.168 40.4968 237.858 44.3292 235.448 46.3437C233.48 48.0142 231.38 48.3581 230.164 51.257C228.948 54.1558 230.031 56.6371 228.97 58.9709C227.599 61.9926 226.251 63.8842 227.312 67.6675C227.822 69.2161 228.689 70.589 229.825 71.6494C230.962 72.7098 232.329 73.4206 233.79 73.7109C232.802 80.7394 232.351 87.8481 232.441 94.961C232.286 106.016 229.412 121.984 238.168 130.116C241.124 132.842 244.874 134.274 248.714 134.145C248.714 134.317 248.559 134.489 248.559 134.636C248.426 137.32 248.426 140.01 248.559 142.694C234.387 150.555 225.344 164.288 218.711 180.011C218.529 179.904 218.316 179.88 218.118 179.945C217.92 180.009 217.752 180.156 217.65 180.355C210.132 190.653 204.22 202.278 200.161 214.748C199.706 214.72 199.25 214.778 198.813 214.92L192.932 215.411C192.774 215.405 192.619 215.451 192.485 215.543C192.352 215.635 192.245 215.768 192.18 215.927C188.887 212.632 184.892 210.323 180.572 209.22C175.288 208.041 168.036 209.22 165.339 214.576L160.497 214.232C160.497 214.085 160.364 214.085 160.364 213.913C158.154 210.4 156.142 205.707 152.516 203.693C148.355 201.977 144.063 200.686 139.692 199.836C139.509 199.757 139.308 199.748 139.12 199.81C138.931 199.873 138.767 200.003 138.653 200.18C134.872 186.619 131.556 172.886 128.836 158.982C128.682 158.146 127.93 157.999 127.333 158.146C127.208 157.978 127.038 157.856 126.848 157.799C126.658 157.742 126.457 157.752 126.272 157.827C110.058 161.103 93.9256 165.287 77.8741 170.381C77.6405 170.446 77.4332 170.597 77.2852 170.808C77.1371 171.02 77.0568 171.28 77.0568 171.548C77.0568 171.815 77.1371 172.076 77.2852 172.287C77.4332 172.498 77.6405 172.649 77.8741 172.714V174.385C78.1837 181.264 81.1905 188.953 83.1583 195.488C86.8664 208.202 91.3502 220.621 96.5787 232.657C96.424 232.657 96.2692 232.829 96.1144 232.829C78.1837 242.213 62.6407 258.28 47.1199 272.013C34.7607 283.043 22.3794 294.27 10.6172 305.988H13.9336C22.092 297.955 30.5378 290.094 38.9615 282.38C54.4381 268.328 70.18 253.244 87.0716 241.354C95.9154 234.991 105.931 229.807 116.632 229.316C127.333 228.825 136.53 234.671 145.131 240.862C162.31 253.416 179.047 266.485 196.403 278.695C208.607 287.416 221.121 296.113 233.48 304.49C234.432 304.342 235.394 304.285 236.355 304.318H237.571C206.617 283.215 176.482 260.958 146.192 238.676C138.786 233.173 130.716 228.137 121.761 226.958C113.78 226.233 105.767 227.852 98.5244 231.65C96.424 226.736 76.5255 173.722 80.2841 172.542C80.5994 172.431 80.8669 172.195 81.0358 171.879C96.1144 167.187 111.348 163.355 126.581 160.161C133.656 196.495 139.847 214.576 143.915 226.122C144.302 227.109 144.861 228.001 145.559 228.747C146.257 229.493 147.081 230.079 147.983 230.471C156.429 235.384 174.824 248.06 175.443 248.06C176.947 249.068 178.295 250.075 179.865 251.254C183.049 253.588 186.056 255.922 189.217 258.452C189.154 258.691 189.16 258.946 189.232 259.181C189.305 259.417 189.442 259.622 189.624 259.767C189.806 259.913 190.024 259.992 190.248 259.994C190.472 259.996 190.691 259.921 190.875 259.779C192.092 260.786 193.285 261.793 194.656 262.8C197.508 265.134 200.383 267.714 203.102 270.17C203.699 270.662 205.954 272.16 206.264 272.995C206.706 275.01 204.451 276.852 203.389 278.204C202.328 279.555 204.009 281.201 205.048 280.046L209.58 274.519C209.761 274.254 209.859 273.93 209.859 273.597C209.859 273.265 209.761 272.941 209.58 272.676C204.141 267.64 198.525 262.849 192.843 258.28C193.905 257.273 194.811 256.094 195.85 255.086C196.961 255.632 198.126 256.028 199.321 256.266C199.311 257.184 199.469 258.095 199.786 258.943C202.196 265.478 212.3 268.328 217.473 270.662C227.29 274.838 237.084 278.867 247.033 282.552C254.418 285.402 261.67 287.244 269.143 283.387C276.616 279.53 281.812 272.995 286.322 265.306C283.47 272.676 280.441 279.702 277.279 286.9C274.869 292.256 272.614 297.439 270.204 302.819C271.243 302.819 272.15 302.647 273.211 302.647C274.714 298.962 276.085 295.277 277.434 292.428C283.912 277.688 290.103 262.8 295.232 247.397V246.881C295.674 245.726 296.139 244.719 296.581 243.712C297.045 244.031 353.269 144.094 373.477 90.0231C373.477 89.8512 373.477 89.6792 373.632 89.6792C374.539 89.6792 374.605 87.7384 374.229 87.2225C373.853 86.7066 373.544 86.854 373.345 86.5347C372.941 86.002 372.413 85.6026 371.819 85.38C363.838 79.1647 356.608 72.1386 349.069 65.4565C380.022 46.1962 410.422 25.7568 440.425 4.50667C442.636 49.7093 443.454 95.0838 442.857 140.286C434.256 133.58 425.656 126.726 417.055 120.019C416.088 119.388 415.083 118.83 414.048 118.348C413.807 118.221 413.531 118.203 413.279 118.3C413.027 118.396 412.819 118.599 412.7 118.864C391.276 157.974 373.787 198.829 355.458 239.339C346.393 259.435 337.196 279.358 327.247 298.938C326.207 300.952 325.146 302.967 324.085 304.981L326.296 305.473C346.194 267.124 363.086 227.13 381.039 187.553C388.733 170.823 396.515 154.412 404.873 138.174C404.873 138.174 409.847 142.006 411.506 143.529C413.164 145.052 444.073 144.536 443.609 144.536C443.827 144.562 444.046 144.501 444.228 144.365C444.501 144.18 444.7 143.886 444.783 143.542C444.865 143.199 444.825 142.833 444.67 142.522C445.731 96.1402 444.825 50.1024 442.569 4.06449L442.702 4.1136ZM232.043 59.364C232.485 59.02 232.353 58.3568 232.198 57.8409C231.809 56.9021 231.632 55.8727 231.68 54.8408C231.728 53.8089 232.001 52.8055 232.475 51.9165C232.949 51.0275 233.61 50.2796 234.401 49.7368C235.192 49.1941 236.09 48.8727 237.018 48.8003C237.256 48.8257 237.494 48.7554 237.688 48.602C237.883 48.4487 238.022 48.2226 238.079 47.9651C238.685 45.6407 239.708 43.4764 241.086 41.6023L247.277 40.6196C247.874 40.6196 248.471 41.2829 249.09 40.939C249.709 40.5951 249.996 40.4477 250.438 40.2757C251.5 39.7598 258.42 31.0632 259.282 39.7598C259.415 40.6196 260.189 41.4549 260.94 40.767C261.641 40.3021 262.431 40.0289 263.246 39.9699C264.06 39.9109 264.876 40.0677 265.625 40.4276C266.374 40.7875 267.036 41.34 267.555 42.0397C268.075 42.7394 268.437 43.5662 268.612 44.452C268.652 44.6418 268.733 44.8178 268.849 44.9642C268.964 45.1106 269.111 45.2229 269.275 45.291C269.439 45.3591 269.616 45.381 269.79 45.3546C269.964 45.3283 270.129 45.2545 270.271 45.1399C273.299 42.2902 280.529 42.2902 279.114 49.1442C278.894 49.3886 278.771 49.72 278.771 50.0655C278.771 50.411 278.894 50.7424 279.114 50.9867C279.334 51.2311 279.632 51.3683 279.943 51.3683C280.254 51.3683 280.553 51.2311 280.772 50.9867C286.189 47.3017 288.467 49.4882 287.56 57.8409C287.401 58.0151 287.291 58.2371 287.243 58.4797C287.196 58.7224 287.213 58.9752 287.293 59.2071C287.372 59.4391 287.511 59.6403 287.692 59.7859C287.873 59.9316 288.089 60.0155 288.312 60.0273C294.348 59.6834 292.535 67.3973 290.412 67.3973L289.97 67.8886C289.8 67.8326 289.621 67.8201 289.446 67.8521C289.272 67.8841 289.106 67.9596 288.961 68.0731C288.816 68.1866 288.697 68.3351 288.611 68.5074C288.525 68.6797 288.476 68.8713 288.467 69.0678C288.467 75.9464 288.312 82.9725 288.002 89.8266C288.002 90.1705 288.002 90.3425 288.157 90.4899C285.15 91.4971 283.337 95.698 282.74 99.7024C277.743 97.2457 278.318 89.3353 278.208 84.2991C278.097 79.2629 277.744 74.7673 277.611 70.075C277.618 69.8865 277.585 69.6987 277.513 69.5274C277.442 69.3562 277.335 69.2065 277.2 69.091C277.066 68.9755 276.909 68.8974 276.742 68.8635C276.574 68.8295 276.403 68.8406 276.24 68.8958C274.123 69.6863 271.811 69.5153 269.806 68.4203C267.802 67.3252 266.268 65.3946 265.539 63.049C265.504 62.8932 265.44 62.7472 265.352 62.6198C265.264 62.4924 265.153 62.3863 265.027 62.3081C264.901 62.2299 264.761 62.1811 264.617 62.1649C264.474 62.1487 264.328 62.1653 264.19 62.2137C262.754 62.5633 261.251 62.2901 259.989 61.4499C258.728 60.6098 257.803 59.2661 257.403 57.6934C257.365 57.5368 257.299 57.3902 257.208 57.2627C257.118 57.1351 257.006 57.0292 256.878 56.9511C256.75 56.8731 256.609 56.8247 256.463 56.8087C256.318 56.7927 256.171 56.8095 256.032 56.8582C252.87 57.8408 251.61 49.3162 247.454 49.8076C243.673 50.3235 240.666 55.335 238.853 58.7007C236.779 62.7064 235.286 67.0509 234.431 71.5736C228.705 69.9031 227.489 63.2209 232.021 59.2903L232.043 59.364ZM234.763 118.668C233.105 108.841 234.453 97.2457 234.763 87.3699C235.072 77.4941 236.266 67.4464 240.931 59.0692C242.302 56.7354 245.906 50.2006 249.775 53.7136C250.682 54.5489 250.969 56.7353 251.875 57.7426C252.31 58.3297 252.869 58.7891 253.501 59.0804C254.133 59.3716 254.82 59.4859 255.501 59.4131C256.155 61.1623 257.301 62.6293 258.768 63.5947C260.234 64.56 261.943 64.9719 263.638 64.7686C264.613 67.2287 266.3 69.2561 268.431 70.529C270.562 71.8019 273.015 72.2474 275.4 71.7947C275.379 79.0094 275.733 86.2195 276.461 93.3888C277.213 97.7371 278.871 101.422 282.939 102.601H283.094C283.266 102.693 283.456 102.734 283.646 102.722C283.836 102.709 284.02 102.644 284.182 102.531C284.343 102.418 284.475 102.262 284.568 102.076C284.66 101.891 284.708 101.683 284.708 101.471C284.711 99.9499 284.866 98.4338 285.172 96.9509C287.87 86.9032 299.941 97.4668 290.744 104.984C289.183 106.118 287.31 106.597 285.46 106.335C285.32 106.332 285.182 106.36 285.053 106.419C284.924 106.477 284.807 106.564 284.71 106.675C284.613 106.785 284.537 106.917 284.487 107.061C284.437 107.206 284.414 107.36 284.421 107.515C284.421 110.856 284.266 114.025 284.266 117.341C284.111 120.166 284.708 124.367 283.801 127.045C281.988 133.064 275.356 139.771 270.536 142.104C264.505 145.116 258.246 147.524 251.831 149.302C251.158 144.424 250.81 139.498 250.792 134.562C250.815 134.32 250.76 134.076 250.637 133.875C255.444 133.128 259.84 130.454 262.996 126.357C263.903 125.178 262.4 123.336 261.338 124.515C253.202 134.71 237.526 133.727 234.807 118.471L234.763 118.668ZM216.169 186.767C211.636 198.829 208.32 211.554 204.871 223.273C204.407 221.602 203.964 219.907 203.5 218.089C203.307 217.196 202.946 216.358 202.439 215.632C205.737 205.324 210.362 195.602 216.169 186.767ZM196.27 217.573C197.455 217.3 198.665 217.185 199.874 217.229C201.687 217.745 202.284 222.757 202.748 224.599C202.784 224.755 202.847 224.901 202.935 225.028C203.024 225.156 203.134 225.262 203.26 225.34C203.387 225.418 203.526 225.467 203.67 225.483C203.814 225.499 203.959 225.483 204.097 225.434C203.655 226.958 203.19 228.628 202.748 230.127C198.835 227.67 196.867 221.749 193.904 217.843C194.711 217.877 195.518 217.819 196.314 217.671L196.27 217.573ZM147.629 229.119C146.723 226.786 145.971 224.206 145.197 221.749C145.364 221.769 145.53 221.717 145.662 221.602C145.971 221.43 146.259 221.43 146.413 221.258C147.165 223.592 148.072 225.95 148.978 228.284C148.708 228.282 148.441 228.358 148.205 228.505C147.969 228.651 147.77 228.863 147.629 229.119ZM157.114 233.32C155.456 232.313 153.798 231.306 151.985 230.299C152.005 230.068 151.958 229.836 151.852 229.635C150.416 226.469 149.203 223.184 148.226 219.809C148.146 219.567 148.002 219.357 147.812 219.208C147.623 219.059 147.397 218.977 147.165 218.973C146.232 218.804 145.275 218.986 144.446 219.489C144.167 218.455 143.82 217.445 143.407 216.468C145.087 216.584 146.773 216.359 148.381 215.804C148.823 221.332 150.592 227.179 156.075 228.088C157.424 228.26 157.424 225.754 156.075 225.631C151.388 224.968 150.791 218.605 150.482 214.429C150.482 213.421 149.575 213.077 148.823 213.249H148.226C146.633 213.88 144.934 214.106 143.252 213.913C142.971 213.919 142.703 214.042 142.5 214.257C142.036 212.733 141.594 211.063 141.129 209.564C143.31 210.142 145.582 210.142 147.762 209.564C149.133 209.22 148.536 206.887 147.165 207.231C145.27 207.668 143.31 207.609 141.439 207.059C141.129 206.887 140.842 207.059 140.532 207.231C140.09 205.535 139.626 204.037 139.184 202.317C142.5 203.152 145.971 203.816 149.133 204.995C153.798 206.838 155.766 210.842 158.485 215.043L158.618 215.215C158.58 215.505 158.635 215.8 158.773 216.05C158.176 221.897 157.579 227.596 157.114 233.247V233.32ZM176.129 245.874C170.535 241.845 164.963 238.16 159.082 234.647V234.475L160.895 216.934C162.089 216.934 163.305 217.106 164.521 217.106C164.393 217.593 164.341 218.099 164.366 218.605C164.333 218.787 164.337 218.974 164.378 219.154C164.418 219.334 164.494 219.502 164.599 219.646C164.705 219.789 164.838 219.905 164.989 219.984C165.14 220.064 165.305 220.105 165.472 220.105C165.639 220.105 165.803 220.064 165.954 219.984C166.105 219.905 166.238 219.789 166.344 219.646C166.45 219.502 166.526 219.334 166.566 219.154C166.606 218.974 166.61 218.787 166.577 218.605C166.577 218.114 166.732 217.598 166.732 217.106C166.992 216.991 167.201 216.767 167.313 216.481C167.425 216.196 167.43 215.873 167.329 215.583C168.153 214.222 169.281 213.121 170.603 212.389C171.924 211.657 173.394 211.319 174.868 211.407C171.11 212.07 167.329 217.942 165.671 220.791C164.477 222.781 162.664 225.705 163.725 228.309C163.945 228.938 164.341 229.474 164.854 229.836C165.367 230.198 165.971 230.369 166.577 230.323C166.602 231.23 166.898 232.101 167.419 232.8C167.939 233.498 168.655 233.984 169.451 234.18H169.584C170.288 235.154 171.269 235.833 172.366 236.105C173.463 236.377 174.61 236.227 175.62 235.679C178.649 234.352 181.965 227.645 185.282 233.345C186.94 236.195 186.034 242.041 187.095 245.628C187.227 245.972 187.227 246.292 187.382 246.635C183.713 246.169 180.021 245.947 176.327 245.972L176.129 245.874ZM190.743 256.929C187.117 253.907 183.358 251.057 179.578 248.38C182.607 248.38 185.613 248.724 188.642 249.043C189.94 251.053 191.577 252.764 193.462 254.079C192.556 255.086 191.649 255.922 190.743 256.929ZM201.156 248.208C200.692 249.878 199.94 251.893 199.498 253.907C198.621 253.721 197.762 253.441 196.933 253.072C196.921 252.844 196.854 252.624 196.741 252.434C196.628 252.244 196.472 252.09 196.288 251.988C196.104 251.886 195.9 251.84 195.695 251.853C195.49 251.866 195.292 251.939 195.121 252.065C191.052 249.608 188.93 245.358 188.178 239.339C187.891 236.17 188.023 231.65 185.967 229.119C185.292 228.359 184.419 227.852 183.471 227.672C182.523 227.491 181.548 227.645 180.683 228.112C179.489 228.628 176.77 232.141 175.708 232.485C174.36 234.647 169.982 233.812 171.795 230.028C173.608 227.867 177.057 225.508 179.622 226.024C180.993 226.515 181.59 224.01 180.241 223.567C176.018 222.241 169.827 225.754 168.921 230.937C166.82 229.095 171.132 224.575 172.082 223.395C173.741 221.406 175.708 218.04 178.583 218.482C180.086 218.654 179.931 216.148 178.583 216.025C177.588 215.925 176.587 216.097 175.666 216.525C174.745 216.953 173.932 217.625 173.298 218.482C171.331 220.495 169.512 222.68 167.86 225.017C167.371 225.706 167.017 226.501 166.82 227.351C166.666 227.351 166.666 227.351 166.511 227.523C166.25 227.412 166.02 227.228 165.844 226.987C165.667 226.747 165.551 226.459 165.506 226.153C165.461 225.847 165.49 225.533 165.588 225.243C165.687 224.953 165.853 224.697 166.069 224.501C166.356 223.838 166.666 223.346 166.975 222.658C167.69 221.278 168.543 219.993 169.518 218.826C170.579 217.303 174.205 212.611 176.305 213.79C177.676 214.453 178.737 212.463 177.521 211.628C177.073 211.305 176.552 211.127 176.018 211.112C177.889 211.148 179.754 211.37 181.589 211.775C186.2 213.234 190.302 216.215 193.352 220.325C197.575 226.024 198.481 232.387 205.711 233.713C204.053 238.627 202.704 243.417 201.289 248.109L201.156 248.208ZM293.132 245.53C288.599 255.75 283.779 266.289 276.55 274.494C273.028 278.757 268.464 281.788 263.417 283.215C257.248 284.542 251.212 281.864 245.486 279.678C235.227 275.845 225.123 271.816 215.019 267.394C208.077 264.225 201.002 261.695 202.66 251.5C203.95 245.684 205.612 239.978 207.634 234.426C215.174 235.924 221.961 239.929 229.191 242.631C236.246 245.302 243.611 246.824 251.057 247.151C254.717 252.391 257.571 258.269 259.503 264.545C259.968 266.068 262.068 265.38 261.714 263.881C259.859 257.85 257.214 252.155 253.865 246.979C254.085 246.83 254.255 246.605 254.35 246.339C254.445 246.073 254.46 245.78 254.393 245.503C254.326 245.227 254.18 244.982 253.977 244.805C253.775 244.629 253.526 244.529 253.268 244.523H252.207C252.036 244.365 251.821 244.278 251.599 244.278C251.377 244.278 251.162 244.365 250.991 244.523C243.118 244.051 235.35 242.304 227.931 239.339C220.989 236.489 214.511 232.804 207.281 231.65C206.973 231.628 206.664 231.678 206.374 231.797C206.26 231.783 206.152 231.732 206.065 231.65C205.601 231.62 205.145 231.504 204.716 231.306C204.716 231.134 204.849 231.134 204.849 230.962C214.046 200.843 221.298 161.316 248.891 145.421C249.178 147.878 246.923 150.334 247.52 152.791C247.829 153.798 248.736 153.626 249.731 153.11C255.457 149.769 261.935 148.59 268.126 146.084C274.759 143.234 278.827 138.714 284.111 133.801C284.266 133.801 284.266 132.106 284.421 131.958C286.134 138.385 288.999 144.36 292.844 149.524C298.88 157.385 312.146 165.271 314.268 175.982C316.479 187.356 311.394 200.917 307.79 211.481C303.368 222.855 298.438 234.254 293.309 245.456L293.132 245.53ZM371.996 88.8194C371.86 88.8827 371.736 88.9764 371.634 89.0947C371.531 89.213 371.451 89.3534 371.399 89.5072C353.888 136.184 328.109 177.947 305.955 221.749C307.768 217.44 309.377 213.029 310.775 208.533C313.782 199.492 317.098 189.1 316.656 179.397C316.192 170.872 312.124 166.18 306.994 161.315C319.595 138.09 330.735 113.925 340.335 88.9913C350.658 89.4651 360.998 89.1861 371.288 88.1561C371.465 88.465 371.73 88.6988 372.04 88.8194H371.996ZM368.724 86.1416C359.88 87.6647 349.865 89.5072 341.573 86.3136C341.728 86.1416 339.473 85.4783 339.473 85.6503C335.56 82.9725 332.685 78.7716 329.214 75.4305C326.22 72.4545 323.043 69.7129 319.707 67.2253L345.509 65.7267L347.167 66.8814C354.242 73.5881 361.339 80.2947 368.724 86.1416ZM346.614 64.5475C346.632 64.3902 346.617 64.2306 346.571 64.0804C346.525 63.9303 346.45 63.7936 346.35 63.6803C346.25 63.5671 346.129 63.4802 345.995 63.4262C345.861 63.3722 345.717 63.3524 345.575 63.3684L319.044 64.8915C348.122 42.4877 378.501 22.2417 409.98 4.28558C419.178 3.59772 428.972 2.09915 438.17 3.59772C408.322 24.8724 377.7 45.1399 346.637 64.5475H346.614ZM413.717 141.392C411.504 139.278 409.138 137.372 406.642 135.692C409.206 130.779 411.771 125.989 414.468 121.149C414.945 121.741 415.581 122.146 416.281 122.304C424.572 128.838 432.863 135.373 441.022 141.957C431.979 142.276 422.781 142.104 413.717 141.441V141.392Z" fill="#010101"/>
<path d="M14.0199 306.824H9.31055L10.217 305.915C21.2718 294.86 32.835 284.321 46.7197 271.915C49.9698 269.065 53.3526 266.043 56.4479 263.12C68.8071 251.819 81.5642 240.125 95.8248 232.682C90.6686 220.741 86.2368 208.43 82.5591 195.832C82.1391 194.431 81.6748 192.982 81.1884 191.459C79.1823 186.072 77.865 180.399 77.2749 174.606V173.28C77.0358 173.129 76.8364 172.911 76.6968 172.648C76.5571 172.385 76.482 172.086 76.479 171.781C76.4497 171.388 76.5503 170.997 76.7619 170.68C76.9735 170.364 77.2816 170.144 77.6287 170.061C93.5254 165.148 109.82 160.849 126.048 157.508C126.268 157.419 126.504 157.397 126.734 157.445C126.963 157.492 127.177 157.607 127.353 157.778C127.767 157.724 128.185 157.818 128.547 158.048C128.711 158.16 128.852 158.31 128.959 158.488C129.066 158.666 129.136 158.868 129.166 159.08C131.708 172.076 134.936 185.686 138.761 199.541C139.068 199.417 139.405 199.417 139.712 199.541C140.906 199.885 142.21 200.18 143.581 200.499C146.672 201.087 149.691 202.068 152.58 203.423C155.329 205.325 157.567 208.016 159.058 211.21C159.566 212.095 160.075 212.979 160.605 213.667V213.815L164.85 214.109C167.68 208.975 174.778 207.525 180.327 208.778C184.579 209.844 188.523 212.074 191.802 215.264C192.028 215.066 192.31 214.961 192.598 214.969L198.435 214.453C198.779 214.339 199.137 214.289 199.496 214.306C203.556 201.842 209.459 190.218 216.962 179.913C217.077 179.693 217.247 179.516 217.451 179.402C217.656 179.289 217.885 179.244 218.112 179.274C225.873 161.045 235.291 149.253 247.739 142.252C247.606 139.691 247.606 137.124 247.739 134.563C244 134.515 240.389 133.05 237.502 130.411C230.14 123.655 230.869 111.716 231.356 101.176C231.466 98.9163 231.577 96.8036 231.599 94.8383V92.3816C231.585 86.1974 231.999 80.0211 232.837 73.9075C231.39 73.5444 230.048 72.7825 228.935 71.6921C227.823 70.6016 226.975 69.2177 226.469 67.6676C226.097 66.3279 226.007 64.911 226.206 63.5265C226.406 62.142 226.889 60.8271 227.619 59.6834L228.15 58.5533C228.536 57.5118 228.703 56.3856 228.636 55.2614C228.577 53.7555 228.818 52.2536 229.344 50.864C230.103 49.0954 231.404 47.6847 233.014 46.8842C233.625 46.5281 234.209 46.1173 234.761 45.6559C235.774 44.6753 236.582 43.4593 237.126 42.0937C237.815 40.3863 238.879 38.8992 240.222 37.77C240.993 37.2303 241.857 36.8731 242.759 36.721C243.66 36.5688 244.58 36.6248 245.461 36.8856C246.699 37.1969 247.988 37.1375 249.198 36.7136C250.047 36.2757 250.848 35.7317 251.586 35.0922C252.351 34.2611 253.297 33.6639 254.331 33.3583C255.365 33.0527 256.453 33.0492 257.489 33.348C258.278 33.5408 259.01 33.9497 259.621 34.5376C260.231 35.1254 260.699 35.8734 260.982 36.7136C262.71 36.1028 264.577 36.1979 266.247 36.9816C267.918 37.7654 269.281 39.1863 270.091 40.9882C274.513 38.5315 278.051 38.679 280.483 41.5287C281.556 42.7525 282.192 44.3675 282.274 46.0735C283.567 45.7877 284.906 45.9015 286.145 46.4026C287.384 46.9036 288.475 47.7727 289.301 48.9152C290.126 50.0577 290.653 51.4299 290.826 52.8824C290.998 54.3349 290.808 55.812 290.277 57.1531C291.302 57.534 292.214 58.2178 292.915 59.131C293.616 60.0442 294.08 61.1525 294.257 62.3366C294.46 63.7546 294.285 65.2074 293.755 66.5167C293.225 67.826 292.362 68.9347 291.272 69.7066C291.091 69.8094 290.897 69.8838 290.697 69.9277C290.697 76.487 290.543 83.0709 290.255 89.581C291.395 89.8875 292.465 90.4566 293.395 91.2515C294.51 92.0851 295.392 93.2506 295.939 94.6147C296.486 95.9788 296.677 97.4865 296.49 98.9655C296.265 100.933 295.587 102.803 294.522 104.395C293.457 105.988 292.041 107.248 290.41 108.055C289.867 108.295 289.304 108.476 288.73 108.596C287.801 108.841 287.226 108.964 286.74 109.996C286.119 112.331 285.991 114.794 286.364 117.194C286.618 118.491 286.803 119.803 286.917 121.125C286.917 121.493 286.917 121.96 286.806 122.5C286.32 128.077 285.17 141.122 303.919 158.024L305.29 159.154C317.639 136.394 328.572 112.722 338.012 88.3035C335.478 86.3653 333.142 84.1246 331.047 81.6214C327.072 77.0511 322.618 73.0262 317.781 69.6329C317.781 69.6329 315.349 67.3482 315.57 66.1199C315.531 65.9507 315.531 65.7731 315.57 65.604C315.997 64.2602 316.765 63.0826 317.781 62.2138C346.897 39.7095 377.336 19.3966 408.894 1.41136L409.204 1.23938C409.392 1.14878 409.596 1.10207 409.801 1.10207C410.006 1.10207 410.209 1.14878 410.398 1.23938L416.39 0.748052C424.422 -0.353663 432.551 -0.237963 440.555 1.09198C440.732 1.06208 440.913 1.10582 441.064 1.21482C441.389 1.23205 441.703 1.3513 441.97 1.55876C442.295 1.87877 442.514 2.31171 442.589 2.78709C442.776 2.9358 442.93 3.13087 443.037 3.35687C443.145 3.58287 443.203 3.83358 443.208 4.08912C445.618 53.2224 446.326 98.5478 445.419 142.448C445.554 142.861 445.554 143.313 445.419 143.726C445.318 144.194 445.056 144.6 444.69 144.856C444.426 145.041 444.116 145.127 443.805 145.102C440.931 145.298 413.184 146.035 411.371 143.996C410.044 142.792 406.462 139.992 405.224 139.083C397.685 153.823 389.969 169.84 381.656 187.946C377.101 197.969 372.546 208.213 368.125 218.089C355.168 247.151 341.77 277.221 326.913 305.841L326.736 306.16L323.508 305.448L327.001 298.766C337.503 278.105 347.143 257.003 355.191 239.192L363.88 219.76C378.848 186.275 394.324 151.636 412.189 119.036C412.368 118.668 412.666 118.39 413.024 118.257C413.381 118.125 413.77 118.149 414.112 118.324C414.621 118.502 415.11 118.741 415.571 119.036C416.146 119.429 434.652 133.776 442.302 139.746C442.855 96.9264 442.059 51.8958 439.914 5.90706C407.789 28.6558 378.295 48.3091 349.818 65.997C351.786 67.7413 353.731 69.5346 355.677 71.3034C360.895 76.0448 366.267 80.9581 371.95 85.3556C372.441 85.6825 372.914 86.0435 373.365 86.4365L374.359 87.2226C374.506 87.3044 374.634 87.4221 374.733 87.5668C374.833 87.7115 374.902 87.8794 374.934 88.0579C375.067 88.8931 374.382 89.8021 373.984 90.3671L373.829 90.5637C354.549 142.154 301.155 238.357 296.888 244.277C296.446 245.26 296.004 246.242 295.584 247.348V247.913C289.99 264.692 283.136 280.832 277.763 292.993C276.835 294.958 275.906 297.317 274.911 299.798C274.469 300.903 274.027 302.058 273.54 303.212L273.43 303.507H273.12C272.612 303.507 272.125 303.507 271.639 303.507C271.153 303.507 270.644 303.507 270.113 303.507H269.229L269.583 302.746L273.12 294.786L276.658 286.851C278.869 281.938 281.323 276.189 283.755 270.17C280.023 276.094 274.993 280.863 269.141 284.026C261.999 287.76 255.035 286.483 246.766 283.215C237.922 279.972 228.592 276.189 217.206 271.325C216.277 270.907 215.238 270.49 214.088 270.047C208.649 267.886 201.22 264.938 199.142 259.312C198.855 258.53 198.69 257.699 198.656 256.855C197.74 256.646 196.845 256.342 195.981 255.946H195.759C195.317 256.364 194.897 256.855 194.477 257.297L193.394 258.477C198.612 262.604 203.94 267.222 209.688 272.504C209.925 272.86 210.053 273.29 210.053 273.732C210.053 274.175 209.925 274.605 209.688 274.961L205.244 280.808C205.101 280.976 204.928 281.11 204.736 281.201C215.687 289.029 226.683 296.727 237.723 304.293L239.138 305.252H236.264C235.333 305.217 234.4 305.275 233.478 305.423H233.301H233.146C220.92 297.144 208.428 288.472 196.047 279.628C185.545 272.258 175.087 264.397 165.094 256.806C158.461 251.893 151.673 246.734 144.886 241.796C136.816 235.974 127.309 229.783 116.674 230.323C107.609 230.741 98.0136 234.672 87.3568 242.287C73.319 252.568 59.8589 263.792 47.0514 275.894C44.4204 278.351 41.7893 280.808 39.1804 283.092C29.187 292.182 21.2497 299.699 14.1747 306.676L14.0199 306.824ZM11.8089 305.792H13.7103C20.7632 298.815 28.7005 291.347 38.6277 282.306L46.4986 275.133C59.2864 262.923 72.7397 251.601 86.782 241.231C97.5936 233.517 107.322 229.537 116.563 229.095C127.618 228.579 137.147 234.844 145.306 240.74C152.093 245.653 158.925 250.812 165.514 255.774C175.64 263.341 186.076 271.178 196.578 278.572C208.915 287.367 221.34 296.014 233.522 304.244C234.256 304.145 234.995 304.104 235.733 304.121C207.146 284.468 178.735 263.66 151.231 243.466L145.77 239.437C138.96 234.352 130.78 228.997 121.45 227.817C113.557 227.073 105.629 228.676 98.4779 232.461L98.0578 232.657L97.8588 232.19C96.488 228.948 77.1202 178.144 79.2869 173.009C79.3416 172.859 79.4254 172.724 79.5324 172.613C79.6394 172.503 79.7669 172.42 79.906 172.371C80.0828 172.371 80.3039 172.149 80.3702 171.978V171.756H80.5914C94.9625 167.285 110.284 163.33 126.159 160.014H126.601V160.529C133.919 198.018 140.42 216.492 143.913 226.417C144.61 228.093 145.793 229.46 147.273 230.299L146.964 229.488C146.057 227.031 145.284 224.575 144.532 222.118L144.333 221.43H145.217L145.682 221.234H145.881L146.411 220.644L146.632 221.455C147.384 223.789 148.313 226.172 149.197 228.456L149.462 229.193H148.755C148.561 229.19 148.369 229.243 148.199 229.346C148.028 229.449 147.885 229.6 147.782 229.783L147.34 230.544L147.671 230.667C152.646 233.517 160.937 238.995 166.973 242.951C170.931 245.555 174.645 248.036 175.087 248.183H175.242C176.635 249.117 177.961 250.075 179.664 251.377C182.516 253.49 185.39 255.701 189.016 258.575L189.304 258.796L189.193 259.164C189.153 259.299 189.152 259.444 189.192 259.579C189.231 259.714 189.308 259.832 189.412 259.914C189.516 259.997 189.641 260.04 189.769 260.038C189.896 260.035 190.02 259.988 190.122 259.901L190.409 259.705L190.674 259.926C191.868 260.909 193.084 261.916 194.433 262.923C197.219 265.208 200.071 267.689 202.901 270.293L203.476 270.735C204.561 271.363 205.5 272.263 206.217 273.364C206.659 275.305 205.2 276.926 204.006 278.277L203.232 279.162C203.116 279.332 203.065 279.546 203.09 279.757C203.115 279.969 203.214 280.161 203.365 280.292C203.417 280.359 203.481 280.413 203.554 280.45C203.626 280.488 203.705 280.507 203.785 280.507C203.865 280.507 203.944 280.488 204.016 280.45C204.089 280.413 204.153 280.359 204.205 280.292L208.627 274.789C208.76 274.543 208.915 273.954 208.627 273.659C202.768 268.23 197.307 263.537 191.957 259.312L191.846 258.698L192.31 258.256C192.819 257.789 193.327 257.224 193.792 256.708C194.256 256.192 194.787 255.602 195.339 255.086L195.538 254.89L196.29 255.209C197.213 255.64 198.178 255.953 199.164 256.143H199.584V256.61C199.569 257.452 199.712 258.289 200.004 259.066C201.906 264.25 209.114 267.124 214.398 269.212L217.515 270.49C228.879 275.403 238.276 279.113 247.053 282.38C255.101 285.475 261.867 286.802 268.721 283.24C275.022 280.022 280.439 274.347 285.723 265.331L286.541 265.822C283.512 273.634 280.262 281.152 277.476 287.465L273.938 295.4C272.877 297.857 271.727 300.166 270.755 302.574H271.44C271.852 302.549 272.266 302.549 272.678 302.574C273.098 301.517 273.518 300.486 273.916 299.454C274.911 296.997 275.84 294.54 276.791 292.624C282.119 280.513 288.973 264.446 294.478 247.741V247.127C294.942 245.948 295.385 244.94 295.827 243.958L296.07 243.417C300.05 237.325 353.4 141.638 372.635 90.2197C372.707 90.0345 372.813 89.8673 372.944 89.7284C373.143 89.4582 373.763 88.6229 373.696 88.2544C373.315 87.9891 372.946 87.7021 372.591 87.3946L371.419 86.4856H371.286C365.56 82.039 360.232 77.1012 354.903 72.3352C352.692 70.3945 350.658 68.4537 348.491 66.5375L347.939 66.0462L348.558 65.6777C377.433 47.7931 407.303 27.8696 439.914 4.75243L440.599 4.26106V5.17005C442.81 51.8467 443.584 97.5651 443.009 140.974V141.982L442.28 141.392C432.773 134.022 415.505 120.56 414.886 120.166C414.477 119.911 414.048 119.697 413.604 119.528C413.228 119.405 412.963 119.528 412.83 119.773C394.943 152.3 379.489 186.889 364.543 220.374C361.595 226.925 358.691 233.41 355.832 239.831C347.784 257.691 338.144 278.744 327.62 299.454L324.79 304.834L326.072 305.129C340.842 276.631 354.174 246.709 367.086 217.77C371.507 207.943 376.062 197.65 380.616 187.626C389.018 169.3 396.823 153.233 404.45 138.198L404.716 137.707L405.136 138.026C405.335 138.198 410.133 141.908 411.769 143.407C413.405 144.905 440.909 144.438 443.562 144.291H443.872C443.953 144.24 444.023 144.17 444.077 144.085C444.131 144 444.166 143.902 444.181 143.8C444.218 143.707 444.236 143.606 444.236 143.505C444.236 143.403 444.218 143.303 444.181 143.21V143.063V142.891C445.176 98.99 444.491 53.7137 441.97 4.48219C441.966 4.36654 441.933 4.25442 441.874 4.1588C441.816 4.06318 441.734 3.98794 441.638 3.94172L441.373 3.79433V3.20472C441.375 3.06631 441.35 2.92909 441.3 2.80208C441.251 2.67507 441.178 2.56113 441.086 2.46771C441.03 2.43912 440.97 2.42434 440.909 2.42434C440.848 2.42434 440.787 2.43912 440.732 2.46771H440.489L440.268 2.27117H440.091C432.174 0.961333 424.133 0.853918 416.19 1.95183L410.066 2.44316H409.934C409.868 2.40827 409.796 2.39015 409.724 2.39015C409.651 2.39015 409.579 2.40827 409.514 2.44316L409.27 2.71339H409.049C377.558 20.6595 347.185 40.9314 318.135 63.393C317.335 64.0741 316.703 64.9702 316.3 65.997V66.5866C316.753 67.5234 317.36 68.3569 318.091 69.0433C322.94 72.4657 327.395 76.5329 331.357 81.1546C333.49 83.718 335.887 85.9937 338.498 87.9351L338.852 88.1562L338.697 88.5738C329.145 113.362 318.064 137.388 305.533 160.48L305.267 160.972L303.057 159.105C283.888 141.908 285.126 127.905 285.568 122.672C285.568 122.156 285.568 121.714 285.568 121.346C285.583 120.181 285.539 119.016 285.435 117.857C285.042 115.255 285.209 112.587 285.922 110.07C286.18 109.53 286.557 109.072 287.016 108.737C287.476 108.402 288.005 108.201 288.553 108.153C289.075 108.036 289.586 107.863 290.078 107.637C291.553 106.904 292.834 105.762 293.798 104.321C294.762 102.88 295.377 101.188 295.584 99.4077C295.736 98.1098 295.56 96.7904 295.076 95.5973C294.592 94.4041 293.818 93.3842 292.842 92.6519C291.895 91.8326 290.777 91.2918 289.592 91.0796H289.194V90.6374C289.16 90.4758 289.16 90.3076 289.194 90.146C289.526 83.4639 289.68 76.7081 289.68 70.026V69.5101H290.145C290.336 69.5391 290.531 69.4958 290.697 69.3872C291.715 68.7624 292.534 67.8047 293.044 66.6444C293.555 65.484 293.731 64.1773 293.549 62.9016C293.38 61.8125 292.927 60.8022 292.248 59.9948C291.568 59.1874 290.691 58.6181 289.725 58.3568L289.172 58.1849L289.437 57.6198C290.016 56.4088 290.261 55.0349 290.142 53.6699C290.022 52.305 289.543 51.0094 288.765 49.9452C287.986 48.881 286.943 48.0953 285.765 47.6863C284.587 47.2774 283.326 47.2632 282.141 47.6458L281.478 47.8668V47.0807C281.515 46.2603 281.397 45.4404 281.13 44.6742C280.864 43.9081 280.455 43.213 279.93 42.6342C277.189 39.4159 273.142 40.8162 270.268 42.6342L269.804 42.9044L269.605 42.3639C268.943 40.5643 267.667 39.1285 266.056 38.3693C264.445 37.61 262.629 37.5889 261.004 38.3104L260.54 38.507L260.385 37.9665C260.194 37.1867 259.815 36.4796 259.289 35.9213C258.763 35.3629 258.11 34.9744 257.401 34.7974C256.498 34.5447 255.551 34.5591 254.655 34.8393C253.759 35.1194 252.945 35.6555 252.293 36.3942C251.493 37.0821 250.625 37.6673 249.707 38.1385C248.341 38.6232 246.884 38.6994 245.484 38.3596C244.712 38.1275 243.906 38.0731 243.116 38.1999C242.325 38.3266 241.566 38.6318 240.885 39.0966C239.734 40.1351 238.837 41.4783 238.276 43.0027C237.666 44.4952 236.767 45.8204 235.645 46.8842C235.053 47.3725 234.433 47.8157 233.788 48.2108C232.347 48.8861 231.182 50.1283 230.515 51.6993C230.042 52.9485 229.83 54.301 229.896 55.6545C229.957 56.9495 229.753 58.243 229.299 59.4377L228.769 60.5678C228.094 61.5851 227.643 62.7634 227.451 64.0089C227.259 65.2544 227.332 66.5326 227.663 67.7413C228.156 69.1987 228.982 70.4884 230.06 71.4834C231.138 72.4785 232.43 73.1446 233.81 73.4162H234.252V73.9075C233.345 80.1122 232.909 86.3906 232.948 92.6764V95.1331C232.948 97.123 232.815 99.2603 232.682 101.496C232.129 111.789 231.51 123.434 238.497 129.87C241.369 132.511 245.008 133.899 248.734 133.776H249.242V134.317C249.228 134.489 249.183 134.656 249.11 134.808C248.944 137.475 248.944 140.15 249.11 142.817V143.235L248.822 143.407C236.352 150.334 226.934 162.102 219.173 180.478L218.974 180.969L218.532 180.723C218.453 180.681 218.362 180.675 218.279 180.708C218.196 180.74 218.128 180.807 218.09 180.895C210.584 191.194 204.687 202.82 200.646 215.288L200.535 215.632H200.203C199.801 215.606 199.397 215.655 199.01 215.78L192.996 216.296C192.924 216.291 192.852 216.309 192.79 216.349C192.727 216.388 192.676 216.446 192.642 216.517L192.355 217.131L191.912 216.689C188.682 213.442 184.753 211.174 180.504 210.105C175.087 208.901 168.277 210.252 165.779 215.215L165.646 215.485L160.075 215.117V214.748C160.021 214.668 159.983 214.576 159.964 214.478C159.434 213.692 158.947 212.832 158.439 212.021C157.031 209.005 154.925 206.461 152.337 204.651C149.497 203.333 146.529 202.385 143.493 201.826C142.122 201.507 140.818 201.212 139.557 200.843C139.314 200.843 139.203 200.843 138.96 201.04L138.408 201.654L138.164 200.819C134.251 186.717 130.935 172.837 128.348 159.596C128.342 159.522 128.321 159.45 128.286 159.386C128.252 159.322 128.205 159.268 128.149 159.227C127.914 159.125 127.654 159.125 127.419 159.227H127.154L126.977 159.006C126.734 158.736 126.601 158.736 126.402 158.81C110.13 162.151 93.857 166.376 77.9825 171.363C77.8437 171.388 77.7185 171.47 77.6322 171.593C77.546 171.716 77.5052 171.871 77.5182 172.027C77.5182 172.346 77.7172 172.665 77.9383 172.69H78.3141V174.803C78.8989 180.488 80.2014 186.054 82.1832 191.336C82.6696 192.835 83.1561 194.309 83.5761 195.733C87.2793 208.43 91.7558 220.832 96.9745 232.854L97.284 233.591H96.5544C96.4578 233.677 96.3441 233.736 96.2227 233.763C82.0948 241.133 69.404 252.777 57.1111 264.029C53.9274 266.952 50.6331 269.974 47.383 272.824C33.8299 284.787 22.5762 295.081 11.7647 305.792H11.8089ZM117.735 226.515C119.08 226.51 120.423 226.592 121.759 226.761C131.2 227.989 139.447 233.419 146.389 238.578L151.85 242.582C168.476 254.865 185.434 267.149 202.547 279.432C202.524 279.194 202.546 278.953 202.611 278.725C202.675 278.497 202.782 278.286 202.923 278.105L203.741 277.172C204.736 276.066 205.952 274.715 205.687 273.389C204.999 272.579 204.209 271.884 203.343 271.325L202.702 270.834C199.85 268.18 197.02 265.724 194.256 263.464C192.996 262.53 191.846 261.572 190.718 260.639C190.471 260.771 190.196 260.828 189.922 260.803C189.648 260.778 189.385 260.673 189.16 260.498C188.935 260.322 188.756 260.084 188.641 259.806C188.527 259.529 188.48 259.223 188.508 258.919C185.014 256.143 182.206 254.005 179.421 251.917C177.762 250.64 176.48 249.706 175.109 248.797C174.601 248.601 173.119 247.643 166.796 243.466C160.473 239.29 152.491 233.984 147.649 231.183C146.687 230.77 145.81 230.146 145.069 229.348C144.329 228.551 143.74 227.596 143.338 226.54C139.867 216.713 133.367 198.264 126.093 161.021C110.461 164.288 95.3605 168.194 81.2104 172.592C80.9741 172.881 80.6885 173.114 80.3702 173.28C77.9161 175.515 94.6972 221.627 98.6327 231.208C104.634 228.225 111.118 226.628 117.691 226.515H117.735ZM145.991 222.118C146.61 224.157 147.229 226.245 147.959 228.186C148.121 228.059 148.3 227.959 148.489 227.891C147.738 225.95 146.964 223.936 146.279 221.946H146.057L145.991 222.118ZM260.142 284.1C255.621 283.805 251.175 282.676 246.987 280.759L245.506 280.194C233.743 275.772 224.06 271.841 215.017 267.787L213.779 267.222C207.367 264.323 200.734 261.326 202.37 251.303C203.154 247.198 204.264 243.178 205.687 239.29C206.261 237.595 206.858 235.826 207.367 234.156L207.5 233.713H207.898C212.757 234.872 217.498 236.576 222.048 238.799C224.48 239.88 227 240.985 229.521 241.919C236.526 244.599 243.85 246.114 251.254 246.414H251.475L251.608 246.586C255.297 251.881 258.173 257.815 260.12 264.152C260.147 264.246 260.192 264.334 260.25 264.409C260.309 264.485 260.381 264.546 260.461 264.59C260.542 264.633 260.63 264.658 260.719 264.663C260.809 264.668 260.898 264.653 260.982 264.618C261.118 264.562 261.234 264.458 261.314 264.324C261.353 264.249 261.373 264.164 261.373 264.078C261.373 263.992 261.353 263.907 261.314 263.832C259.487 257.844 256.872 252.19 253.554 247.053L253.244 246.586L253.686 246.292C253.781 246.204 253.852 246.088 253.891 245.958C253.93 245.828 253.936 245.688 253.907 245.555C253.875 245.386 253.796 245.234 253.681 245.119C253.565 245.004 253.42 244.933 253.266 244.916H252.116H252.006C251.851 244.793 251.586 244.646 251.409 244.916L251.254 245.088H251.033C243.116 244.59 235.305 242.828 227.84 239.855C225.961 239.094 224.104 238.258 222.313 237.398C217.526 234.983 212.492 233.226 207.323 232.166C207.118 232.119 206.908 232.119 206.704 232.166H206.505C206.332 232.158 206.164 232.098 206.018 231.994C205.564 231.935 205.118 231.811 204.692 231.625L204.36 231.502V231.134C204.36 230.951 204.423 230.775 204.537 230.643C205.886 226.27 207.146 221.774 208.494 216.984C216.255 189.567 225.054 158.49 248.8 144.807L249.397 144.463V145.2C249.451 146.505 249.191 147.802 248.645 148.959C248.098 150.032 247.881 151.274 248.026 152.496C248.042 152.563 248.069 152.626 248.107 152.681C248.145 152.736 248.193 152.781 248.247 152.816C248.358 152.816 248.689 152.938 249.463 152.496C253.146 150.53 256.998 148.983 260.96 147.878C263.171 147.141 265.625 146.379 267.925 145.421C272.842 143.057 277.336 139.729 281.19 135.594L283.644 133.31C283.644 133.162 283.644 132.892 283.644 132.695C283.644 131.958 283.644 131.639 283.91 131.418L284.44 130.853L284.706 131.614C286.392 138.001 289.236 143.937 293.063 149.057C295.47 151.944 298.08 154.614 300.868 157.041C306.904 162.642 313.138 168.44 314.576 175.712C316.787 186.521 312.365 199.197 308.805 209.392L308.075 211.505C304.25 221.332 299.652 232.239 293.572 245.555C288.597 256.757 283.932 266.682 276.901 274.641C273.357 278.979 268.744 282.063 263.635 283.51C262.475 283.826 261.291 284.024 260.098 284.1H260.142ZM208.119 234.966C207.654 236.539 207.102 238.16 206.571 239.708C205.172 243.533 204.077 247.487 203.299 251.524C201.795 260.712 207.522 263.316 214.132 266.264L215.371 266.829C224.391 270.883 234.075 274.813 245.815 279.113L247.297 279.678C252.559 281.717 257.975 283.805 263.503 282.626C268.467 281.245 272.952 278.261 276.393 274.052C283.313 266.215 287.956 256.364 292.886 245.235C298.966 231.92 303.565 221.135 307.346 211.26L308.075 209.171C311.547 199.099 315.88 186.57 313.802 176.105C312.431 169.177 306.329 163.502 300.425 157.999C297.587 155.53 294.933 152.811 292.488 149.868C288.946 145.191 286.257 139.792 284.573 133.973C284.529 134.102 284.442 134.208 284.33 134.268C283.49 135.029 282.694 135.791 281.898 136.552C277.934 140.741 273.329 144.11 268.3 146.502C265.957 147.435 263.569 148.222 261.27 148.959C257.367 150.043 253.575 151.566 249.95 153.503C249.657 153.719 249.325 153.861 248.978 153.921C248.63 153.98 248.276 153.955 247.938 153.847C247.751 153.758 247.585 153.623 247.451 153.453C247.317 153.283 247.219 153.082 247.164 152.865C246.945 151.413 247.18 149.923 247.827 148.639C248.152 147.857 248.382 147.031 248.513 146.183C225.629 159.866 216.985 190.403 209.357 217.426C208.03 222.143 206.77 226.614 205.443 230.962C205.678 230.996 205.916 230.996 206.151 230.962H206.35V231.085C206.643 230.985 206.95 230.943 207.256 230.962C212.54 232.049 217.686 233.847 222.578 236.318C224.369 237.104 226.226 237.939 228.061 238.774C235.407 241.697 243.09 243.443 250.878 243.958C251.102 243.795 251.363 243.708 251.63 243.708C251.897 243.708 252.158 243.795 252.382 243.958H253.31C253.667 243.983 254.006 244.139 254.274 244.401C254.542 244.664 254.724 245.017 254.792 245.407C254.846 245.664 254.851 245.93 254.805 246.188C254.76 246.447 254.664 246.692 254.526 246.906C257.791 252.019 260.374 257.629 262.198 263.562C262.269 263.787 262.296 264.026 262.277 264.263C262.258 264.5 262.193 264.73 262.088 264.938C261.897 265.298 261.588 265.562 261.226 265.675C261.027 265.759 260.815 265.797 260.603 265.787C260.391 265.776 260.183 265.717 259.992 265.613C259.801 265.51 259.632 265.364 259.494 265.184C259.356 265.004 259.253 264.795 259.191 264.569C257.313 258.372 254.527 252.561 250.945 247.373C243.527 247.039 236.192 245.516 229.167 242.852C226.624 241.894 224.104 240.764 221.65 239.683C217.271 237.62 212.725 236.024 208.074 234.917L208.119 234.966ZM190.962 257.666L190.63 257.396C187.269 254.595 183.643 251.795 179.575 248.871L178.205 247.913H179.819C182.892 247.913 185.965 248.257 188.928 248.576H189.149V248.773C190.414 250.737 192.014 252.407 193.858 253.686L194.322 254.03L193.924 254.497L192.554 255.922C192.111 256.388 191.647 256.831 191.205 257.347L190.962 257.666ZM181.366 248.871C184.815 251.328 187.999 253.784 190.829 256.241L191.912 255.111L192.841 254.153C191.14 252.915 189.645 251.361 188.419 249.559C186.164 249.289 183.754 249.018 181.366 248.871ZM199.982 254.423H199.54C198.632 254.236 197.743 253.948 196.887 253.563L196.578 253.416V253.072C196.565 252.93 196.517 252.795 196.439 252.682C196.361 252.569 196.255 252.483 196.135 252.433C196.049 252.363 195.944 252.326 195.837 252.326C195.73 252.326 195.625 252.363 195.538 252.433L195.295 252.654L195.03 252.482C190.94 250.026 188.64 245.776 187.844 239.364C187.844 238.75 187.844 238.111 187.712 237.448C187.824 234.608 187.12 231.803 185.7 229.439C185.088 228.761 184.302 228.311 183.45 228.153C182.598 227.994 181.723 228.135 180.946 228.554C180.07 229.148 179.267 229.867 178.558 230.692C177.836 231.547 177.001 232.276 176.082 232.854C175.592 233.504 174.911 233.942 174.159 234.09C173.407 234.238 172.632 234.088 171.97 233.664C171.55 233.394 170.267 232.264 171.461 229.832C173.539 227.375 177.121 224.919 179.796 225.557C179.883 225.616 179.982 225.647 180.084 225.647C180.185 225.647 180.285 225.616 180.371 225.557C180.472 225.447 180.545 225.31 180.584 225.16C180.622 225.009 180.625 224.85 180.592 224.698C180.571 224.601 180.523 224.514 180.456 224.448C180.389 224.383 180.305 224.341 180.216 224.329C179.032 224.038 177.808 224.015 176.615 224.26C175.423 224.504 174.287 225.012 173.274 225.754C172.337 226.342 171.517 227.135 170.863 228.085C170.209 229.035 169.736 230.122 169.471 231.281L169.339 232.117L168.72 231.601C168.505 231.419 168.328 231.19 168.198 230.928C168.069 230.665 167.99 230.376 167.968 230.078C167.835 228.039 170.179 225.361 171.329 223.911L171.815 223.322C172.102 222.978 172.368 222.609 172.655 222.241C174.181 220.276 176.038 217.819 178.713 218.114C178.778 218.132 178.845 218.134 178.911 218.12C178.976 218.105 179.038 218.074 179.091 218.029C179.144 217.984 179.188 217.926 179.218 217.86C179.248 217.794 179.265 217.721 179.266 217.647C179.292 217.417 179.238 217.184 179.114 216.997C178.991 216.809 178.808 216.682 178.603 216.64C177.668 216.562 176.731 216.746 175.877 217.175C175.023 217.604 174.28 218.265 173.716 219.096C171.761 221.09 169.957 223.26 168.322 225.582C167.874 226.204 167.55 226.924 167.371 227.695V228.137H167.039L166.818 228.358L166.442 228.211C166.132 228.034 165.861 227.784 165.647 227.478C165.433 227.173 165.282 226.819 165.204 226.442C165.176 226.069 165.221 225.694 165.336 225.342C165.45 224.99 165.632 224.67 165.867 224.403L166.288 223.567C166.42 223.273 166.575 223.002 166.708 222.683C167.454 221.25 168.344 219.914 169.361 218.703C170.422 217.18 174.203 212.193 176.701 213.569C176.874 213.662 177.074 213.676 177.256 213.607C177.438 213.538 177.588 213.392 177.674 213.2C177.713 213.126 177.738 213.045 177.748 212.96C177.758 212.875 177.753 212.789 177.732 212.706C177.711 212.624 177.676 212.547 177.628 212.479C177.58 212.412 177.521 212.357 177.453 212.316C177.076 212.047 176.641 211.894 176.193 211.874V210.842C178.093 210.873 179.988 211.095 181.853 211.505C186.561 213.001 190.753 216.04 193.88 220.226C195.015 221.781 196.049 223.423 196.975 225.14C199.186 229.046 201.022 232.51 205.974 233.345H206.527L206.328 233.959C205.333 236.858 204.448 239.806 203.586 242.631C202.989 244.547 202.414 246.464 201.817 248.331C201.641 248.994 201.419 249.706 201.176 250.443C200.823 251.598 200.447 252.9 200.159 253.981L199.982 254.423ZM197.484 252.63C198.069 252.869 198.667 253.066 199.275 253.219C199.54 252.163 199.872 251.107 200.203 250.075C200.535 249.043 200.646 248.65 200.822 247.987C201.419 246.12 201.994 244.228 202.569 242.312C203.387 239.634 204.227 236.907 205.134 234.156C200.181 233.026 198.191 229.414 196.069 225.606C195.18 223.887 194.174 222.244 193.062 220.693C190.064 216.682 186.051 213.764 181.543 212.316C180.968 212.316 179.774 211.947 178.381 211.8C178.518 212.052 178.59 212.341 178.59 212.635C178.59 212.93 178.518 213.218 178.381 213.471C178.187 213.906 177.845 214.238 177.431 214.394C177.017 214.55 176.564 214.519 176.17 214.306C174.755 213.52 171.97 216.271 169.936 219.219C168.968 220.369 168.123 221.639 167.415 223.002C167.283 223.322 167.128 223.617 166.973 223.911C166.808 224.203 166.66 224.507 166.531 224.82C166.111 225.385 165.956 225.778 166 226.122C166.073 226.44 166.245 226.719 166.487 226.908C166.724 226.137 167.075 225.415 167.526 224.771C169.197 222.414 171.03 220.204 173.009 218.163C173.694 217.247 174.569 216.53 175.559 216.072C176.548 215.614 177.623 215.429 178.691 215.534C179.138 215.607 179.541 215.872 179.813 216.272C180.086 216.671 180.207 217.174 180.15 217.671C180.137 217.883 180.085 218.09 179.996 218.278C179.907 218.466 179.783 218.631 179.633 218.763C179.483 218.895 179.31 218.991 179.125 219.044C178.94 219.097 178.747 219.106 178.558 219.072C176.347 218.801 174.778 220.963 173.318 222.855L172.478 223.936L171.97 224.55C170.586 225.935 169.523 227.671 168.874 229.611C169.651 227.551 171.009 225.827 172.743 224.698C173.862 223.878 175.118 223.318 176.437 223.052C177.756 222.786 179.109 222.819 180.415 223.15C180.666 223.204 180.897 223.336 181.082 223.532C181.266 223.729 181.395 223.98 181.455 224.255C181.538 224.588 181.538 224.939 181.457 225.272C181.375 225.605 181.214 225.907 180.99 226.147C180.8 226.35 180.563 226.489 180.305 226.55C180.047 226.611 179.779 226.59 179.531 226.491C177.32 226.049 174.048 228.112 172.169 230.372C171.925 230.913 171.528 232.092 172.434 232.829C172.918 233.113 173.475 233.203 174.011 233.082C174.547 232.961 175.029 232.637 175.375 232.166V232.018H175.529C176.343 231.459 177.087 230.781 177.74 230.004C178.539 229.092 179.446 228.307 180.438 227.67C181.389 227.157 182.462 226.992 183.503 227.199C184.544 227.407 185.499 227.976 186.23 228.825C188.065 231.011 188.264 234.45 188.441 237.472C188.441 238.135 188.441 238.75 188.574 239.339C189.326 245.26 191.382 249.166 195.052 251.5C195.255 251.391 195.478 251.334 195.704 251.334C195.93 251.334 196.153 251.391 196.356 251.5C196.617 251.586 196.856 251.74 197.052 251.949C197.248 252.159 197.396 252.417 197.484 252.703V252.63ZM188.22 247.102L187.358 246.979C183.688 246.509 179.997 246.288 176.303 246.316H176.148H176.038C170.356 242.213 164.806 238.553 159.036 235.114L158.792 234.966V234.475L160.495 216.394H160.893C161.512 216.394 162.109 216.394 162.728 216.394H164.519H165.16L164.961 217.082C164.85 217.521 164.805 217.978 164.828 218.433C164.822 218.523 164.832 218.614 164.858 218.7C164.884 218.786 164.925 218.866 164.978 218.934C165.031 219.003 165.096 219.059 165.169 219.099C165.242 219.14 165.322 219.164 165.403 219.17C165.5 219.177 165.597 219.161 165.688 219.125C165.779 219.088 165.862 219.032 165.932 218.958C166.003 218.884 166.059 218.795 166.097 218.696C166.135 218.598 166.155 218.491 166.155 218.384C166.155 218.163 166.155 217.868 166.155 217.598C166.176 217.377 166.176 217.155 166.155 216.934V216.517H166.509C166.552 216.501 166.592 216.476 166.627 216.442C166.661 216.408 166.689 216.367 166.708 216.32C166.781 216.115 166.781 215.887 166.708 215.682V215.46V215.264C167.56 213.81 168.743 212.633 170.137 211.852C171.531 211.071 173.086 210.714 174.645 210.817V211.849C171.218 212.463 167.614 217.843 165.801 220.988C164.651 222.904 162.927 225.778 163.878 228.014C164.053 228.545 164.378 229 164.804 229.31C165.23 229.62 165.735 229.768 166.243 229.734H166.73V230.274C166.747 231.068 167.002 231.832 167.454 232.447C167.907 233.061 168.531 233.489 169.228 233.664H169.56L169.692 233.935C170.344 234.785 171.23 235.374 172.213 235.609C173.196 235.845 174.222 235.714 175.131 235.237C176.074 234.702 176.945 234.024 177.718 233.222C179.222 231.797 180.791 230.323 182.516 230.618C183.123 230.773 183.693 231.073 184.186 231.497C184.678 231.921 185.082 232.46 185.368 233.075C186.276 235.275 186.7 237.683 186.606 240.101C186.612 241.891 186.82 243.674 187.225 245.407C187.287 245.584 187.338 245.764 187.38 245.948C187.407 246.082 187.444 246.213 187.491 246.341L188.22 247.102ZM176.392 245.26C179.848 245.248 183.302 245.445 186.739 245.849V245.702C186.287 243.852 186.057 241.944 186.053 240.027C186.124 237.793 185.746 235.569 184.948 233.517C184.726 233.031 184.414 232.603 184.033 232.261C183.652 231.918 183.211 231.668 182.737 231.527C181.433 231.306 180.018 232.633 178.669 233.984C177.832 234.869 176.877 235.606 175.839 236.17C174.758 236.73 173.543 236.887 172.376 236.617C171.208 236.347 170.151 235.664 169.361 234.672C168.546 234.479 167.805 234.009 167.243 233.326C166.68 232.643 166.323 231.783 166.221 230.864C165.596 230.803 164.998 230.557 164.488 230.15C163.978 229.744 163.577 229.193 163.325 228.554C162.153 225.754 164.055 222.585 165.315 220.497V220.374C165.112 220.367 164.913 220.317 164.729 220.224C164.544 220.131 164.379 219.999 164.241 219.834C164.103 219.669 163.996 219.476 163.926 219.265C163.856 219.054 163.825 218.83 163.833 218.605C163.812 218.27 163.812 217.933 163.833 217.598H162.573H161.224L159.633 234.524C165.315 237.742 170.82 241.354 176.369 245.333L176.392 245.26ZM167.857 215.559C167.935 215.897 167.935 216.252 167.857 216.59C168.921 215.072 170.154 213.71 171.527 212.537C169.996 213.017 168.685 214.123 167.857 215.632V215.559ZM157.665 234.131L157.024 233.738C155.388 232.755 153.707 231.748 151.916 230.741L151.651 230.593V230.274C151.668 230.168 151.668 230.06 151.651 229.955V229.832C150.226 226.657 149.007 223.373 148.003 220.005C147.961 219.867 147.88 219.748 147.773 219.664C147.666 219.58 147.537 219.536 147.406 219.539C146.552 219.361 145.669 219.517 144.908 219.981L144.421 220.251L144.244 219.686C143.953 218.744 143.606 217.825 143.205 216.934L142.807 216.075H143.67C145.29 216.171 146.913 215.955 148.467 215.436L149.02 215.239V215.878C149.617 223.248 152.005 226.982 156.294 227.621C156.67 227.621 156.758 227.375 156.781 227.13C156.814 226.912 156.77 226.689 156.659 226.506C156.548 226.323 156.378 226.194 156.184 226.147C150.988 225.41 150.457 218.286 150.192 214.453C150.198 214.356 150.183 214.258 150.149 214.169C150.114 214.079 150.061 214 149.993 213.937C149.86 213.843 149.711 213.78 149.555 213.75C149.4 213.721 149.24 213.726 149.086 213.765H148.489C146.853 214.409 145.108 214.635 143.382 214.429C143.241 214.448 143.109 214.517 143.006 214.625L142.454 215.215L142.21 214.429L141.547 211.972C141.304 211.186 141.083 210.375 140.862 209.638L140.596 208.754L141.414 208.95C143.521 209.517 145.719 209.517 147.826 208.95C148.047 208.95 148.158 208.803 148.202 208.606C148.237 208.47 148.239 208.325 148.208 208.187C148.177 208.049 148.114 207.923 148.025 207.82C147.952 207.736 147.861 207.674 147.761 207.639C147.66 207.605 147.553 207.599 147.45 207.624C145.485 208.104 143.443 208.045 141.503 207.452C141.405 207.425 141.303 207.423 141.203 207.444C141.104 207.465 141.01 207.51 140.928 207.575L140.419 207.869L140.265 207.28L139.579 204.823C139.336 204.037 139.115 203.251 138.894 202.366L138.673 201.507L139.447 201.703L142.078 202.342C144.571 202.879 147.037 203.568 149.462 204.405C153.641 206.051 155.741 209.319 157.952 212.93L159.036 214.625L159.279 214.895V215.117C159.266 215.28 159.266 215.444 159.279 215.608L159.434 215.78V216.001L159.257 217.819C158.704 223.125 158.195 228.137 157.775 233.247L157.665 234.131ZM152.58 229.955C154.083 230.765 155.476 231.625 156.847 232.411C156.957 231.036 157.09 229.635 157.201 228.235C157.057 228.377 156.889 228.483 156.706 228.547C156.523 228.61 156.33 228.63 156.139 228.604C155.021 228.46 153.944 228.053 152.979 227.409C152.014 226.765 151.185 225.899 150.546 224.869C151.121 226.368 151.762 227.842 152.381 229.291C152.506 229.494 152.576 229.733 152.58 229.979V229.955ZM149.352 212.635C149.784 212.624 150.206 212.78 150.546 213.077C150.719 213.234 150.857 213.433 150.949 213.659C151.042 213.885 151.085 214.132 151.076 214.379C151.342 217.868 151.806 224.427 156.25 225.066C156.493 225.093 156.727 225.185 156.932 225.335C157.136 225.484 157.304 225.687 157.422 225.926C157.687 223.248 157.974 220.57 158.262 217.794L158.417 216.173C158.318 215.943 158.272 215.69 158.284 215.436C157.842 214.797 157.488 214.232 157.134 213.667C154.923 210.105 153 207.059 149.109 205.511C146.72 204.687 144.292 204.014 141.835 203.496L139.999 203.054C140.132 203.57 140.287 204.062 140.419 204.577C140.552 205.093 140.795 205.83 140.972 206.494C141.098 206.434 141.233 206.404 141.37 206.404C141.507 206.404 141.642 206.434 141.768 206.494C143.543 206.987 145.394 207.029 147.185 206.616C147.454 206.543 147.736 206.552 148.001 206.642C148.266 206.733 148.504 206.903 148.688 207.132C148.885 207.37 149.023 207.66 149.089 207.974C149.155 208.288 149.146 208.616 149.064 208.926C148.992 209.193 148.854 209.433 148.667 209.619C148.48 209.805 148.25 209.931 148.003 209.982C146.026 210.524 143.967 210.582 141.967 210.154C142.1 210.645 142.255 211.137 142.387 211.653C142.52 212.169 142.719 212.807 142.896 213.372C143.057 213.347 143.221 213.347 143.382 213.372C145.011 213.554 146.657 213.336 148.202 212.734H148.954C149.082 212.685 149.216 212.66 149.352 212.66V212.635ZM147.384 218.531C147.787 218.553 148.167 218.747 148.445 219.072C148.289 218.26 148.171 217.44 148.091 216.615C146.853 216.997 145.574 217.187 144.289 217.18C144.51 217.77 144.687 218.359 144.864 218.924C145.653 218.558 146.519 218.447 147.362 218.605L147.384 218.531ZM203.056 230.815L202.547 230.495C199.979 228.445 197.881 225.752 196.423 222.634C195.55 221.017 194.582 219.466 193.526 217.991L192.885 217.131H193.902C194.643 217.159 195.384 217.102 196.113 216.959C196.515 216.928 196.914 216.862 197.307 216.762C198.144 216.518 199.019 216.477 199.872 216.64C201.596 217.131 202.282 220.57 202.768 223.101C202.879 223.592 202.967 224.034 203.033 224.378C203.079 224.546 203.182 224.688 203.321 224.771C203.484 224.844 203.666 224.844 203.829 224.771L204.448 224.599L204.028 223.002C203.608 221.406 203.166 219.809 202.746 218.089C202.662 217.873 202.588 217.651 202.525 217.426C202.4 216.829 202.15 216.273 201.795 215.804L201.596 215.583V215.264C204.921 204.931 209.567 195.185 215.393 186.324L217.714 182.836L216.211 186.84C212.784 195.979 210.042 205.511 207.367 214.723L205.112 223.42L204.736 224.722L204.471 225.631C204.227 226.393 204.006 227.179 203.785 228.088C203.564 228.997 203.321 229.685 203.1 230.544L203.056 230.815ZM194.853 218.163C195.693 219.391 196.467 220.619 197.219 222.069C198.546 224.824 200.35 227.261 202.525 229.242C202.702 228.677 202.857 228.112 203.011 227.523L203.498 225.877L203.078 225.705C202.892 225.592 202.729 225.438 202.599 225.252C202.47 225.066 202.377 224.852 202.326 224.624C202.326 224.304 202.149 223.838 202.061 223.322C201.685 221.455 200.999 217.991 199.85 217.647C199.111 217.53 198.359 217.581 197.639 217.794C197.202 217.9 196.758 217.966 196.312 217.991C195.834 218.129 195.346 218.22 194.853 218.261V218.163ZM202.901 215.46C203.237 215.988 203.484 216.579 203.63 217.205C203.63 217.45 203.785 217.671 203.851 217.893C204.161 219.17 204.493 220.349 204.78 221.504C205.466 219.219 206.129 216.885 206.814 214.527C209.025 206.69 211.369 198.632 214.132 190.771C209.493 198.459 205.721 206.751 202.901 215.46ZM306.506 222.02L305.665 221.553C307.495 217.26 309.105 212.856 310.485 208.361C313.824 198.362 316.764 188.707 316.344 179.421C315.88 170.946 311.768 166.376 306.859 161.709L306.55 161.438L306.749 161.045C319.301 137.835 330.403 113.695 339.979 88.7949L340.178 88.279L340.621 88.5246C350.842 88.9391 361.076 88.6438 371.264 87.6402H371.596L371.751 87.9596C371.751 88.1561 372.038 88.279 372.281 88.4018L373.143 88.8686L372.281 89.3353C372.109 89.423 371.974 89.5815 371.905 89.7776C359.723 122.328 343.163 152.938 327.289 182.541C320.39 195.39 313.205 208.705 306.484 222.02H306.506ZM307.766 161.217C312.541 165.762 316.809 170.651 317.273 179.372C317.715 188.781 314.73 198.632 311.37 208.852C310.928 210.351 310.419 211.874 309.844 213.495C315.327 202.882 321.009 192.343 326.537 182.074C342.478 152.594 358.927 121.911 371.109 89.409C371.165 89.2662 371.239 89.1337 371.33 89.016C371.273 88.965 371.222 88.9074 371.176 88.844C361.069 89.8562 350.914 90.127 340.775 89.6547C331.235 114.312 320.199 138.221 307.744 161.217H307.766ZM251.542 150.064V149.573C250.847 144.639 250.485 139.654 250.458 134.661C250.472 134.563 250.472 134.464 250.458 134.366L249.773 133.629H250.746C255.44 132.879 259.73 130.26 262.817 126.259C262.932 126.086 262.984 125.872 262.964 125.658C262.944 125.444 262.852 125.247 262.707 125.104C262.651 125.04 262.584 124.988 262.51 124.953C262.436 124.918 262.356 124.9 262.276 124.9C262.195 124.9 262.115 124.918 262.041 124.953C261.967 124.988 261.9 125.04 261.845 125.104C259.738 127.811 257.006 129.828 253.943 130.936C250.881 132.044 247.604 132.203 244.467 131.393C241.894 130.576 239.588 128.953 237.823 126.718C236.059 124.484 234.911 121.731 234.517 118.791C233.535 110.893 233.409 102.892 234.141 94.9611C234.296 92.3079 234.429 89.8021 234.495 87.37C234.959 77.5433 236.043 67.2745 240.752 58.8236L240.863 58.627C241.968 56.7108 244.268 52.7311 247.075 52.2397C247.64 52.1611 248.212 52.2192 248.754 52.41C249.296 52.6008 249.795 52.9199 250.215 53.3452C250.76 53.9754 251.175 54.7299 251.431 55.5562C251.644 56.2245 251.958 56.8476 252.36 57.3987C252.741 57.9317 253.235 58.3504 253.799 58.6164C254.363 58.8824 254.978 58.9874 255.588 58.9218H255.919L256.074 59.2658C256.696 60.9115 257.777 62.2916 259.158 63.2027C260.54 64.1139 262.148 64.5078 263.746 64.3265H264.078L264.21 64.6704C265.137 67.0306 266.749 68.9769 268.79 70.1975C270.831 71.418 273.181 71.842 275.464 71.4017H275.995V71.9667C275.995 74.1532 276.127 76.4133 276.149 78.5997C276.121 83.5875 276.416 88.5711 277.034 93.5117C277.896 98.425 279.842 101.299 283.114 102.282H283.423C283.536 102.349 283.661 102.384 283.788 102.384C283.915 102.384 284.041 102.349 284.153 102.282C284.228 102.231 284.291 102.158 284.333 102.072C284.376 101.986 284.398 101.889 284.396 101.791C284.396 100.237 284.552 98.6877 284.861 97.1721C285.634 94.2978 287.226 92.6764 289.282 92.6273C290.44 92.7008 291.55 93.163 292.466 93.9525C293.381 94.7421 294.06 95.8219 294.412 97.0493C294.832 98.4741 295.407 102.208 291.117 105.746C289.464 106.944 287.481 107.449 285.524 107.171C285.447 107.17 285.372 107.188 285.302 107.222C285.231 107.256 285.168 107.305 285.116 107.368C285.064 107.43 285.025 107.504 285 107.584C284.975 107.664 284.965 107.749 284.971 107.834C284.971 109.505 284.971 111.151 284.971 112.747C284.971 114.344 284.971 116.015 284.971 117.661C284.971 118.594 284.971 119.651 284.971 120.781C285.173 123.048 285.001 125.338 284.463 127.536C282.627 133.703 275.995 140.459 270.954 142.915L270.312 143.21C264.456 146.106 258.382 148.424 252.161 150.138L251.542 150.064ZM251.298 134.464V134.71C251.331 139.421 251.648 144.123 252.249 148.787C258.258 147.102 264.124 144.842 269.782 142.031L270.401 141.761C275.154 139.451 281.655 132.818 283.401 127.021C283.887 124.937 284.037 122.775 283.843 120.633C283.843 119.479 283.843 118.398 283.843 117.44C283.843 115.794 283.843 114.172 283.843 112.526C283.843 110.88 283.843 109.283 283.843 107.613C283.837 107.388 283.873 107.165 283.947 106.956C284.022 106.748 284.134 106.558 284.277 106.399C284.42 106.24 284.59 106.116 284.778 106.033C284.966 105.95 285.167 105.911 285.369 105.918C287.123 106.171 288.9 105.727 290.388 104.665C293.041 102.479 294.124 99.7516 293.328 97.1475C293.035 96.1355 292.477 95.2438 291.724 94.5872C290.972 93.9305 290.06 93.5389 289.105 93.4626C287.491 93.4626 286.231 94.8137 285.59 97.1967C285.306 98.6327 285.165 100.099 285.17 101.57C285.17 101.845 285.107 102.115 284.987 102.356C284.868 102.597 284.695 102.799 284.485 102.945C284.254 103.101 283.995 103.195 283.726 103.221C283.458 103.246 283.188 103.202 282.937 103.093H282.76C279.046 102.012 276.879 98.9655 275.928 93.4626C275.305 88.473 275.002 83.4405 275.022 78.4032C275.022 76.4133 275.022 74.3497 274.889 72.3598C272.529 72.6987 270.134 72.1961 268.047 70.9245C265.961 69.6529 264.292 67.6781 263.282 65.2846C261.597 65.4128 259.917 64.9694 258.464 64.013C257.011 63.0567 255.854 61.6325 255.145 59.9291C254.449 59.9461 253.757 59.7894 253.122 59.4706C252.487 59.1517 251.924 58.6788 251.475 58.0866C250.991 57.4425 250.61 56.7114 250.348 55.9247C250.148 55.2445 249.824 54.6173 249.397 54.0822C249.082 53.7568 248.708 53.5113 248.299 53.3628C247.891 53.2144 247.458 53.1665 247.031 53.2224C244.643 53.64 242.499 57.3496 241.46 59.143L241.349 59.3395C236.75 67.5693 235.689 77.6907 235.247 87.37C235.247 89.8267 235.026 92.2833 234.893 94.9857C234.164 102.826 234.283 110.736 235.247 118.545C235.588 121.304 236.65 123.891 238.3 125.987C239.951 128.082 242.117 129.595 244.533 130.337C247.503 131.091 250.602 130.932 253.496 129.876C256.39 128.819 258.971 126.907 260.96 124.343C261.103 124.176 261.274 124.044 261.464 123.953C261.654 123.863 261.859 123.816 262.066 123.816C262.272 123.816 262.477 123.863 262.667 123.953C262.857 124.044 263.029 124.176 263.171 124.343C263.501 124.665 263.704 125.118 263.737 125.605C263.771 126.092 263.631 126.573 263.348 126.947C260.211 130.944 255.919 133.602 251.21 134.464H251.298ZM431.866 142.596C425.786 142.596 419.684 142.375 413.648 141.933H412.94L413.117 141.515C411.008 139.61 408.793 137.854 406.485 136.258L406.042 135.987L406.286 135.521C408.806 130.755 411.393 125.841 414.134 120.928L414.4 120.461L414.82 120.781C414.997 120.928 433.303 135.103 441.351 141.539L442.479 142.448H441.108C437.858 142.547 434.829 142.596 431.778 142.596H431.866ZM413.935 140.901C422.425 141.515 431.026 141.687 439.56 141.417C431.8 135.226 417.185 123.925 414.577 121.886C412.012 126.48 409.58 131.074 407.236 135.521C409.547 137.146 411.755 138.943 413.847 140.901H413.935ZM283.158 100.464L282.605 100.194C277.962 97.7371 277.874 91.1533 277.83 86.2645C277.83 85.5766 277.83 84.9379 277.83 84.3238C277.83 81.8671 277.631 79.607 277.52 77.224C277.41 74.841 277.299 72.4335 277.211 70.0997C277.212 69.9633 277.182 69.8287 277.124 69.7085C277.066 69.5883 276.982 69.4862 276.879 69.4118C276.829 69.3794 276.771 69.3624 276.713 69.3624C276.655 69.3624 276.598 69.3794 276.547 69.4118C274.307 70.2527 271.858 70.0799 269.732 68.9305C267.605 67.7812 265.971 65.7478 265.183 63.2701C265.163 63.1774 265.125 63.0902 265.074 63.0137C265.023 62.9371 264.958 62.8729 264.884 62.8248C264.809 62.7766 264.727 62.7456 264.642 62.7335C264.557 62.7214 264.47 62.7284 264.387 62.7543C262.83 63.1328 261.202 62.8346 259.837 61.9208C258.472 61.0071 257.473 59.5471 257.047 57.8409C257.026 57.7482 256.989 57.6609 256.938 57.5844C256.886 57.5079 256.821 57.4437 256.747 57.3956C256.673 57.3474 256.591 57.3164 256.506 57.3042C256.42 57.2921 256.334 57.2992 256.251 57.325C254.416 57.9146 253.2 55.9493 252.006 54.0576C250.812 52.166 249.507 50.0778 247.584 50.3235C244.113 50.7657 241.216 55.458 239.337 58.9464C237.302 62.9075 235.847 67.2029 235.026 71.6719L234.915 72.2124L234.451 72.065C233.147 71.7751 231.945 71.0779 230.986 70.0553C230.026 69.0327 229.349 67.7271 229.034 66.2918C228.816 64.8909 228.967 63.4498 229.469 62.1421C229.971 60.8345 230.803 59.7161 231.864 58.9218C231.864 58.9218 232.041 58.7007 231.864 58.0129C231.433 56.9952 231.233 55.876 231.28 54.7526C231.327 53.6291 231.621 52.5356 232.135 51.567C232.65 50.5984 233.369 49.784 234.231 49.1948C235.093 48.6056 236.072 48.2594 237.082 48.1862C237.48 48.1862 237.635 48.1862 237.745 47.7194C238.364 45.3291 239.418 43.1051 240.841 41.1848L240.951 41.0373L247.12 40.0547C247.447 40.0727 247.769 40.1559 248.07 40.3003C248.402 40.4477 248.623 40.546 248.778 40.4477C249.016 40.3574 249.245 40.2422 249.463 40.1038C249.698 39.9685 249.942 39.8535 250.193 39.7599C250.536 39.4918 250.861 39.1962 251.166 38.8755C252.846 37.3032 255.588 34.65 257.666 35.559C258.749 36.0503 259.368 37.4015 259.567 39.6862C259.599 39.8459 259.66 39.9964 259.748 40.1277C259.836 40.2589 259.947 40.368 260.076 40.4477C260.134 40.4821 260.198 40.5001 260.264 40.5001C260.329 40.5001 260.394 40.4821 260.452 40.4477C261.216 39.9217 262.082 39.607 262.979 39.5304C263.875 39.4537 264.775 39.6172 265.602 40.0072C266.43 40.3972 267.161 41.0022 267.734 41.7714C268.308 42.5406 268.707 43.4515 268.897 44.4275C268.92 44.5275 268.964 44.6199 269.025 44.6969C269.087 44.7739 269.165 44.8332 269.251 44.8697C269.339 44.9235 269.438 44.9517 269.539 44.9517C269.639 44.9517 269.738 44.9235 269.826 44.8697C270.929 43.891 272.256 43.2717 273.657 43.0809C275.058 42.89 276.48 43.1351 277.763 43.7888C278.583 44.3755 279.198 45.2548 279.507 46.2819C279.817 47.309 279.802 48.4225 279.466 49.4391L279.355 49.6602C279.234 49.798 279.166 49.9832 279.166 50.1761C279.166 50.369 279.234 50.5543 279.355 50.692C279.488 50.8375 279.666 50.9192 279.853 50.9192C280.039 50.9192 280.218 50.8375 280.35 50.692C283.092 48.825 285.059 48.4073 286.386 49.3409C287.713 50.2744 288.398 53.2715 287.889 58.0375V58.1849C287.795 58.323 287.733 58.4855 287.71 58.6573C287.686 58.829 287.703 59.0045 287.757 59.1675C287.807 59.2747 287.883 59.364 287.977 59.4248C288.071 59.4857 288.179 59.5157 288.287 59.5114C289.048 59.3662 289.831 59.4647 290.544 59.7953C291.256 60.1259 291.869 60.675 292.311 61.3785C292.677 62.1336 292.869 62.9777 292.869 63.8352C292.869 64.6926 292.677 65.5367 292.311 66.2918C292.158 66.6652 291.932 66.9958 291.649 67.2593C291.365 67.5229 291.033 67.7127 290.675 67.815L290.145 68.38H289.901C289.65 68.3278 289.39 68.3802 289.172 68.5274C289.105 68.5909 289.053 68.6704 289.019 68.7598C288.984 68.8492 288.968 68.9462 288.973 69.0433C288.973 75.9957 288.818 82.9971 288.531 89.8267V90.0969L289.083 90.7357L288.332 90.9813C285.391 91.964 283.777 96.1649 283.246 99.7762L283.158 100.464ZM276.636 68.2817C276.895 68.2825 277.149 68.3679 277.365 68.5274C277.604 68.6889 277.801 68.9165 277.936 69.1877C278.072 69.459 278.142 69.7648 278.139 70.0751C278.139 72.4089 278.316 74.7919 278.449 77.1749C278.581 79.5578 278.67 81.9408 278.736 84.2992C278.736 84.9133 278.736 85.5521 278.736 86.24C278.736 90.8831 278.847 96.6071 282.406 98.9163C283.047 95.3542 284.617 91.5464 287.558 90.1952V89.8267C287.845 82.9726 288 75.9957 288 69.0679C287.995 68.812 288.044 68.5585 288.144 68.3279C288.244 68.0973 288.392 67.8963 288.575 67.7413C288.928 67.4421 289.37 67.3017 289.813 67.3482L290.255 66.8814H290.432C290.764 66.8814 291.162 66.4884 291.471 65.8742C291.76 65.2687 291.91 64.594 291.91 63.9089C291.91 63.2238 291.76 62.5491 291.471 61.9436C291.103 61.4063 290.61 60.9916 290.045 60.7446C289.479 60.4977 288.864 60.428 288.265 60.5432C287.993 60.5553 287.723 60.4837 287.485 60.3363C287.247 60.189 287.051 59.9715 286.917 59.708C286.789 59.3889 286.736 59.0389 286.763 58.6908C286.79 58.3428 286.896 58.0081 287.071 57.7181C287.514 53.6155 287.071 50.9868 285.988 50.1761C284.905 49.3654 283.335 49.9305 280.991 51.5027C280.67 51.7901 280.262 51.9298 279.851 51.8933C279.439 51.8567 279.057 51.6467 278.78 51.3062C278.508 51.0058 278.344 50.605 278.32 50.1795C278.295 49.754 278.412 49.3333 278.648 48.9969C278.898 48.2091 278.907 47.3519 278.676 46.5573C278.444 45.7627 277.984 45.0747 277.365 44.5995C276.247 44.0461 275.013 43.8472 273.799 44.025C272.586 44.2027 271.44 44.7502 270.489 45.6067C270.28 45.7816 270.035 45.8956 269.777 45.9385C269.518 45.9814 269.254 45.9518 269.008 45.8524C268.769 45.7569 268.558 45.5929 268.395 45.3772C268.232 45.1615 268.123 44.9016 268.079 44.6241C267.921 43.8203 267.592 43.0704 267.119 42.4377C266.645 41.8049 266.042 41.3078 265.36 40.9882C264.68 40.6492 263.935 40.5011 263.191 40.5568C262.447 40.6124 261.726 40.8702 261.093 41.3076C260.916 41.4571 260.708 41.5556 260.488 41.5942C260.268 41.6327 260.043 41.6103 259.833 41.5287C259.548 41.3845 259.299 41.1664 259.107 40.8927C258.914 40.619 258.784 40.2979 258.727 39.9564C258.55 38.0402 258.108 36.9593 257.401 36.6154C255.919 35.9521 253.288 38.4333 251.873 39.7844C251.492 40.1898 251.069 40.5444 250.613 40.8408C250.39 40.9219 250.175 41.0289 249.972 41.1602C249.731 41.3002 249.48 41.4153 249.22 41.5041C248.994 41.6009 248.752 41.6401 248.511 41.6188C248.27 41.5976 248.036 41.5164 247.827 41.3813C247.654 41.2877 247.466 41.2295 247.274 41.2093L241.327 42.1674C240.049 43.9527 239.095 45.9968 238.519 48.1862C238.433 48.5515 238.237 48.8729 237.963 49.0965C237.69 49.3202 237.355 49.4324 237.016 49.4146C236.17 49.4806 235.352 49.7747 234.631 50.2712C233.911 50.7677 233.31 51.4518 232.881 52.2643C232.448 53.0836 232.198 54.0064 232.152 54.9553C232.105 55.9042 232.265 56.8516 232.616 57.7181C232.749 58.1357 233.102 59.2658 232.306 59.8554C231.4 60.5461 230.688 61.5082 230.254 62.63C229.82 63.7518 229.68 64.9874 229.852 66.1936C230.105 67.3433 230.633 68.3957 231.38 69.2391C232.128 70.0824 233.066 70.6854 234.097 70.9841C234.976 66.6118 236.429 62.4068 238.409 58.5042C240.398 54.8192 243.494 49.8813 247.363 49.3654C249.839 49.0706 251.343 51.4536 252.669 53.5418C253.996 55.6299 254.77 56.7846 255.897 56.4161C256.095 56.3527 256.301 56.3336 256.505 56.3601C256.71 56.3865 256.907 56.4578 257.086 56.5699C257.265 56.6819 257.422 56.8324 257.548 57.0127C257.675 57.193 257.767 57.3994 257.821 57.6198C258.194 59.0706 259.052 60.3083 260.219 61.0799C261.386 61.8516 262.774 62.0989 264.1 61.7716C264.296 61.7126 264.5 61.6977 264.702 61.7278C264.903 61.7579 265.097 61.8323 265.272 61.9467C265.447 62.0611 265.6 62.2132 265.721 62.3941C265.842 62.5749 265.93 62.7809 265.979 62.9999C266.687 65.1977 268.139 67.0009 270.027 68.0246C271.915 69.0482 274.089 69.211 276.083 68.4783C276.221 68.3711 276.38 68.3036 276.547 68.2817H276.636ZM352.405 88.6475C349.164 88.6944 345.933 88.2313 342.809 87.2718L341.726 87.0015C340.86 86.8592 340.022 86.5517 339.25 86.0926C336.773 84.2426 334.502 82.0738 332.484 79.6315C331.334 78.3541 330.163 77.0274 328.925 75.8237C325.942 72.8673 322.78 70.1422 319.462 67.6676L318.312 66.7832L345.639 65.1863L347.43 66.4638C354.439 73.0722 361.624 79.8526 369.009 85.724L369.96 86.461L367.086 86.9524C362.209 87.9373 357.271 88.504 352.316 88.6475H352.405ZM321.142 67.6676C324.076 69.9302 326.882 72.3915 329.544 75.0376C330.804 76.2659 331.998 77.4942 333.17 78.8945C335.145 81.2863 337.372 83.406 339.802 85.2082C340.497 85.6 341.243 85.8654 342.013 85.9943L343.141 86.2645C350.857 88.7212 359.082 87.2963 367.041 85.9206H367.616C360.541 80.2211 353.643 73.6373 346.966 67.3973L345.485 66.341L321.142 67.6676ZM317.361 65.5057L318.71 64.4493C347.809 42.0461 378.201 21.7923 409.69 3.81888H409.867C411.791 3.69605 413.736 3.49952 415.704 3.32756C423.163 2.34876 430.697 2.29107 438.167 3.15557L439.428 3.3767L438.366 4.11367C410 24.332 379.201 44.8206 346.811 65.0881L346.104 65.5303V64.6213C346.104 64.1545 345.949 63.9826 345.529 63.9826L317.361 65.5057ZM410.044 4.80153C379.107 22.4569 349.233 42.3239 320.611 64.2774L345.507 62.8525C345.793 62.8224 346.08 62.8912 346.329 63.0495C346.579 63.2078 346.778 63.4479 346.9 63.7369C378.649 43.8871 408.806 23.767 436.775 3.94172C429.787 3.2913 422.758 3.41472 415.793 4.31021L410.044 4.80153Z" fill="#010101"/>
<path d="M133.601 306.308H136.785C124.904 292.466 114.298 277.34 105.124 261.154C104.966 260.864 104.71 260.656 104.414 260.576C104.117 260.495 103.804 260.549 103.543 260.724C103.282 260.9 103.095 261.184 103.022 261.514C102.95 261.843 102.998 262.191 103.156 262.481C112.089 278.099 122.279 292.785 133.601 306.357V306.308Z" fill="#010101"/>
<path d="M137.869 306.824H133.447L133.315 306.676C121.972 293.079 111.76 278.369 102.804 262.727C102.689 262.527 102.612 262.303 102.578 262.069C102.544 261.835 102.553 261.596 102.604 261.366C102.656 261.136 102.75 260.921 102.879 260.732C103.008 260.544 103.171 260.386 103.356 260.27C103.534 260.144 103.733 260.059 103.941 260.019C104.149 259.979 104.362 259.986 104.568 260.038C104.774 260.091 104.968 260.188 105.14 260.325C105.311 260.462 105.457 260.635 105.567 260.835C114.729 276.995 125.313 292.104 137.162 305.939L137.869 306.824ZM133.823 305.792H135.68C124.085 292.142 113.718 277.266 104.727 261.376C104.621 261.23 104.471 261.134 104.305 261.103C104.139 261.073 103.969 261.112 103.827 261.212C103.685 261.312 103.581 261.467 103.535 261.646C103.489 261.826 103.504 262.018 103.577 262.186C112.464 277.698 122.587 292.292 133.823 305.792Z" fill="#010101"/>
<path d="M147.149 227.965H144.143V238.184H147.149V227.965Z" fill="#010101"/>
<path d="M119.265 283.706C111.605 289.83 104.841 297.23 99.2114 305.644C98.1501 307.315 100.56 308.814 101.621 307.143C106.901 299.129 113.315 292.119 120.613 286.384C121.962 285.205 120.613 282.527 119.265 283.706Z" fill="#010101"/>
<g style="mix-blend-mode:multiply" opacity="0.15">
<path d="M443.846 144.586L411.743 143.578L406.613 135.717L414.44 121.149L443.846 144.586Z" fill="#010101"/>
</g>
<path d="M308 162.5L341 92L371 91L362 112.5L332 173L309.5 215.5L317.5 181.5C319.1 174.3 311.833 165.833 308 162.5Z" fill="white"/>
<g style="mix-blend-mode:multiply" opacity="0.15">
<path d="M340.557 88.9913L372.218 88.8193L355.569 127.88L306.177 227.252L313.849 195.979L313.097 170.037L307.216 161.315L340.557 88.9913Z" fill="#010101"/>
</g>
<g style="mix-blend-mode:multiply" opacity="0.15">
<path d="M233.717 73.9318L251.802 57.6932L247.447 49.8074L240.947 59.0199L233.717 73.9318Z" fill="#010101"/>
</g>
<path d="M142.536 226.5L126 161.5L101.5 167L80.0358 174C79.2358 175.6 92.0358 213.333 98.5358 232C119.736 219.6 137 232 144.536 237V229L142.536 226.5Z" fill="white"/>
<path d="M147 238.5V231L158 238.5L172.5 247.5L189 260L205.5 274L202 279L201 278.5L147 238.5Z" fill="white"/>
<g style="mix-blend-mode:multiply" opacity="0.15">
<path d="M313.015 170.037L292.807 149.597L285.422 131.614L284.383 107.588L290.707 105.131L296.389 98.1545L293.426 92.0865L288.142 90.5634L289.955 67.9621L293.979 62.2135L287.545 57.9144L289.955 51.0848L276.225 68.9694C276.225 68.9694 275.628 113.975 275.628 139.967C275.628 165.958 300.368 171.633 300.368 181.73C300.368 191.827 266.696 274.322 266.696 274.322H251.794C244.741 274.273 202.91 251.328 202.91 251.328L189.644 246.414L190.75 256.241L182.238 247.741L147.769 229.218L126.19 158.244L116.285 160.406L135.918 232.362L145.05 241.28L185.775 267.394L236.273 304.735L269.437 307.757L301.761 226.368L310.915 208.631L315.093 185.538L313.015 170.037Z" fill="#010101"/>
</g>
<path d="M89.5 240.18C80.3 243.38 38 283.18 18 302.68H101L106.5 295.68L116 285.68C111 278.514 101 263.68 101 261.68C101 259.18 104.5 259.68 105 261.68C105.4 263.28 122 289.18 132.5 302.68H227.5L147 244.68C125.4 222.28 99.6667 232.347 89.5 240.18Z" fill="white"/>
<g style="mix-blend-mode:multiply" opacity="0.15">
<path d="M84.3555 305.718L112.28 274.813L165.342 307.659L136.6 306.308L119.089 283.706C113.275 291.519 107.327 299.331 101.402 307.143L84.3555 305.718Z" fill="#010101"/>
</g>
<path d="M169.262 204.651H182.527C182.903 204.651 183.263 204.485 183.528 204.191C183.793 203.896 183.942 203.496 183.942 203.079C183.942 202.662 183.793 202.262 183.528 201.967C183.263 201.672 182.903 201.506 182.527 201.506H169.262C168.886 201.506 168.526 201.672 168.261 201.967C167.996 202.262 167.847 202.662 167.847 203.079C167.847 203.496 167.996 203.896 168.261 204.191C168.526 204.485 168.886 204.651 169.262 204.651Z" fill="#231F20"/>
<path d="M77.3993 160.603C71.6509 162.691 64.4211 169.791 66.9637 177.21C67.6048 179.102 70.3464 178.291 69.7052 176.375C67.7375 170.675 73.8176 165.221 78.151 163.649C79.8756 163.01 79.1239 159.989 77.3993 160.603Z" fill="#231F20"/>
<path d="M286.244 40.0546C289.533 40.3879 292.64 41.8815 295.11 44.317C297.58 46.7524 299.285 50.0021 299.974 53.5908C300.372 55.5561 303.091 54.7209 302.716 52.731C301.862 48.4785 299.8 44.6441 296.834 41.7949C293.867 38.9457 290.154 37.2329 286.244 36.9101C284.431 36.7135 284.453 39.8581 286.244 40.0546Z" fill="#231F20"/>
<path d="M387.691 196.298C384.264 211.038 378.007 225.287 371.795 238.897C370.976 240.69 373.431 242.287 374.249 240.494C380.55 226.687 386.939 212.168 390.433 197.134C390.482 196.934 390.496 196.725 390.472 196.519C390.449 196.313 390.389 196.114 390.297 195.934C390.205 195.754 390.081 195.596 389.934 195.469C389.786 195.341 389.618 195.248 389.438 195.193C389.258 195.138 389.07 195.123 388.885 195.149C388.699 195.175 388.521 195.241 388.359 195.344C388.196 195.446 388.054 195.583 387.939 195.747C387.825 195.911 387.741 196.098 387.691 196.298Z" fill="#231F20"/>
<path d="M37.3834 267.714C30.2863 269.384 22.1279 274.076 19.6959 282.306C19.121 284.247 21.9068 285.058 22.4374 283.141C24.5378 275.993 32.0993 272.16 38.1351 270.858C39.926 270.441 39.1743 267.419 37.3834 267.812V267.714Z" fill="#231F20"/>
<path d="M179.339 115.818C173.171 113.951 164.239 111.126 158.977 116.874C157.826 117.964 156.975 119.391 156.521 120.993C156.067 122.595 156.028 124.306 156.409 125.932C156.79 127.557 157.574 129.03 158.674 130.183C159.773 131.336 161.142 132.121 162.625 132.449C165.918 133.22 169.275 133.599 172.64 133.579C174.206 133.63 175.763 133.869 177.283 134.292C180.6 135.275 182.147 136.749 179.981 140.556C175.338 148.713 166.074 146.379 160.79 141.588C158.689 139.697 155.66 143.013 157.783 144.929C161.977 149.014 167.448 151.105 173.016 150.752C179.052 149.965 189.863 140.114 184.071 132.941C179.45 127.192 170.518 129.624 164.548 128.027C162.337 127.487 160.524 126.824 160.392 124.072C160.237 120.805 162.956 118.815 165.477 118.324C169.678 117.488 174.188 119.061 178.19 120.264C178.667 120.256 179.13 120.075 179.507 119.75C179.885 119.425 180.158 118.973 180.284 118.461C180.411 117.949 180.386 117.406 180.211 116.911C180.037 116.417 179.723 115.999 179.317 115.719L179.339 115.818Z" fill="#231F20"/>
<path d="M162.904 106.851C168.763 124.269 169.227 143.136 174.843 160.652C175.749 163.502 179.862 162.274 178.933 159.399C173.317 141.883 172.853 123.016 166.994 105.598C166.043 102.773 161.931 104.001 162.904 106.851Z" fill="#231F20"/>
<path d="M113.15 84.8395C117.793 90.367 120.048 97.7861 125.089 102.994C127.079 105.058 130.108 101.741 128.096 99.6532C123.077 94.4942 120.778 87.026 116.135 81.4985C114.277 79.2629 111.271 82.604 113.15 84.8395Z" fill="#231F20"/>
<path d="M135.208 74.8409C132.09 91.5707 117.277 105.058 125.988 122.795C127.293 125.448 130.963 123.065 129.658 120.338C122.031 104.788 136.534 90.8583 139.298 76.1183C139.851 73.1703 135.761 71.8929 135.208 74.8654V74.8409Z" fill="#231F20"/>
<path d="M117.155 112.084H136.612C137.071 111.935 137.474 111.625 137.761 111.2C138.048 110.774 138.204 110.257 138.204 109.726C138.204 109.194 138.048 108.677 137.761 108.252C137.474 107.826 137.071 107.516 136.612 107.367H117.155C116.696 107.516 116.293 107.826 116.006 108.252C115.719 108.677 115.563 109.194 115.563 109.726C115.563 110.257 115.719 110.774 116.006 111.2C116.293 111.625 116.696 111.935 117.155 112.084Z" fill="#231F20"/>
<path d="M117.155 118.864H136.612C137.071 118.716 137.474 118.405 137.761 117.98C138.048 117.555 138.204 117.038 138.204 116.506C138.204 115.974 138.048 115.457 137.761 115.032C137.474 114.607 137.071 114.296 136.612 114.148H117.155C116.696 114.296 116.293 114.607 116.006 115.032C115.719 115.457 115.563 115.974 115.563 116.506C115.563 117.038 115.719 117.555 116.006 117.98C116.293 118.405 116.696 118.716 117.155 118.864Z" fill="#231F20"/>
<path d="M182.491 55.0403C175.858 52.903 167.744 50.8885 161.266 54.5981C154.788 58.3076 153.13 66.8814 153.196 74.5216C153.196 82.9234 155.695 88.7457 163.123 91.5709C170.626 94.425 178.808 94.1455 186.139 90.7847C188.638 89.5564 186.471 85.5029 183.928 86.7067C178.523 89.0412 172.599 89.4617 166.97 87.9104C159.409 85.9451 157.198 81.2774 157.397 72.9002C157.53 66.5866 158.945 60.0519 164.981 57.9883C170.22 56.1949 176.212 57.9883 181.297 59.5851C181.775 59.5763 182.237 59.3959 182.615 59.0708C182.992 58.7457 183.265 58.2934 183.392 57.7817C183.519 57.27 183.493 56.7263 183.319 56.2321C183.145 55.7379 182.831 55.3198 182.425 55.0403H182.491Z" fill="#231F20"/>
<path d="M147.943 70.8364H181.904C182.363 70.6876 182.766 70.3773 183.053 69.952C183.34 69.5268 183.495 69.0096 183.495 68.478C183.495 67.9465 183.34 67.4293 183.053 67.004C182.766 66.5788 182.363 66.2685 181.904 66.1196H147.943C147.484 66.2685 147.081 66.5788 146.794 67.004C146.507 67.4293 146.352 67.9465 146.352 68.478C146.352 69.0096 146.507 69.5268 146.794 69.952C147.081 70.3773 147.484 70.6876 147.943 70.8364Z" fill="#231F20"/>
<path d="M147.943 79.9264C159.462 80.1966 171.004 80.5651 182.545 80.6388C183.004 80.49 183.407 80.1797 183.694 79.7544C183.981 79.3292 184.137 78.812 184.137 78.2804C184.137 77.7489 183.981 77.2317 183.694 76.8064C183.407 76.3812 183.004 76.0709 182.545 75.922C171.004 75.922 159.462 75.4798 147.943 75.2096C147.484 75.3584 147.081 75.6688 146.794 76.094C146.507 76.5192 146.352 77.0365 146.352 77.568C146.352 78.0996 146.507 78.6167 146.794 79.042C147.081 79.4672 147.484 79.7776 147.943 79.9264Z" fill="#231F20"/>
<g style="mix-blend-mode:multiply" opacity="0.15">
<path d="M414.337 121.149L310.024 306.308L324.926 304.613L414.337 121.149Z" fill="#010101"/>
</g>
<path d="M375.422 87.2317L350.287 65.8979L351.357 64.4756L379.166 47.4086L414.997 24.1784L439.062 6.63721L441.736 47.4086V100.032V139.381L414.997 117.573L411.788 119.944L398.953 142.7L365.796 216.657L325.152 301.992H274.882L297.343 246.999L314.991 213.813L350.287 146.492L375.422 87.2317Z" fill="white"/>
<path d="M407.509 135.114L414.997 122.314L439.062 141.277L413.927 140.803L413.392 140.329L407.509 135.114Z" fill="white"/>
<path d="M178 214L179 212C180.6 211.6 184.667 213.833 186.5 215C192.1 217.4 195.833 224 197 227C199.8 232.2 203.5 234.167 205 234.5L199 253.5C192.2 253.5 189.167 243.833 188.5 239C188.9 229 184.667 226.833 182.5 227C180.5 226.6 179.333 228.167 179 229L178 226.5C180.8 226.9 181.167 225.333 181 224.5C181.8 222.9 178.667 222.833 177 223V219C177.667 219 179.2 218.7 180 217.5C180.8 216.3 179.667 215.667 179 215.5L177 215L178 214Z" fill="white"/>
</svg>
