<svg width="112" height="127" viewBox="0 0 112 127" fill="none" xmlns="http://www.w3.org/2000/svg">
<path d="M109.527 122.906H0.304932V126.316H109.527V122.906Z" fill="#010101"/>
<path d="M77.959 98.5262L81.7595 93.8662C81.7595 93.8662 88.2575 90.1862 90.7143 86.9862C93.1711 83.7862 97.2123 73.4962 97.2123 73.4962L100.562 78.3262L103.159 81.1062L104.894 84.7362L104.292 86.2062L103.781 87.9362L100.842 91.4862L89.5511 100.546L87.4352 102.796L84.9082 102.936L81.6893 105.316L77.959 98.5262Z" fill="#ED1C24"/>
<path d="M47.6964 46.7062L47.0145 47.2562L45.1693 49.2562L39.0825 50.8962L33.3366 53.6862L30.3884 54.8862L28.3828 59.6562L26.8787 66.9462L24.6926 73.3562L23.0481 67.9762L21.9551 63.8162L12.8599 67.1562L14.7049 75.1562L18.1244 85.7862L20.5912 88.7862L22.7071 91.1762H24.833L30.238 89.3362L33.9282 85.9262L32.9255 91.1062V95.6062L34.219 96.8962L36.8162 99.4862H48.4384L50.0128 91.7862L44.8786 87.1562C44.8786 87.1562 33.3165 71.2062 40.3661 58.4562C47.4156 45.7062 48.7092 47.8962 48.7092 47.8962L47.7064 46.7362L47.6964 46.7062Z" fill="#ED1C24"/>
<path d="M54.4552 27.2062C54.4552 27.8062 54.3048 28.2962 54.0842 28.3062C53.8636 28.3162 53.653 27.8362 53.633 27.2362C53.6129 26.6362 53.7834 26.1362 54.004 26.1262C54.2246 26.1162 54.4352 26.6062 54.4552 27.2062Z" fill="#010101"/>
<path d="M54.0235 28.6462C53.5221 28.6462 53.2714 27.9462 53.2413 27.2462C53.2112 26.5462 53.4218 25.8062 53.9433 25.7862C54.0736 25.7862 54.3745 25.8462 54.575 26.3062C54.6835 26.5907 54.7411 26.8919 54.7455 27.1962C54.7455 27.9062 54.565 28.6362 54.0436 28.6462H54.0235ZM53.9734 26.6462C53.8796 27.0137 53.8796 27.3987 53.9734 27.7662C54.0153 27.5826 54.0322 27.3943 54.0235 27.2062C54.0296 27.0215 54.0128 26.8368 53.9734 26.6562V26.6462Z" fill="#010101"/>
<path d="M45.5105 27.2763C45.5105 27.8763 45.3701 28.3663 45.1394 28.3763C44.9088 28.3863 44.7183 27.9063 44.6982 27.2963C44.6782 26.6863 44.8386 26.2063 45.0692 26.1963C45.2999 26.1863 45.4904 26.6663 45.5105 27.2763Z" fill="#010101"/>
<path d="M45.1384 28.7162C44.978 28.7162 44.7072 28.6462 44.5267 28.1962C44.4182 27.9152 44.3605 27.6173 44.3562 27.3162C44.3562 26.5962 44.5367 25.8762 45.0582 25.8562C45.5696 25.8562 45.8202 26.5562 45.8503 27.2562C45.8503 27.9762 45.6598 28.6962 45.1484 28.7162H45.1384ZM45.0882 26.7162C45.0581 26.9017 45.0581 27.0908 45.0882 27.2762C45.0919 27.4654 45.1189 27.6535 45.1684 27.8362C45.1986 27.6508 45.1986 27.4617 45.1684 27.2762C45.1687 27.09 45.1417 26.9047 45.0882 26.7262V26.7162Z" fill="#010101"/>
<path d="M50.3034 33.0063C49.9238 33.0246 49.5519 33.1198 49.2104 33.2862C48.9731 33.4178 48.7156 33.509 48.4483 33.5563C48.1775 33.6963 48.0471 33.5562 48.0471 33.2862C47.8366 33.0762 47.8366 32.8762 48.0471 32.7362C48.3853 31.8419 48.7945 30.9758 49.2706 30.1463C49.411 29.8063 48.7291 29.6063 48.5887 29.9463C48.2477 30.6963 47.9068 31.4462 47.5859 32.1262C47.3753 32.6062 46.904 33.2163 47.2449 33.6963C47.997 34.6963 49.5714 33.5563 50.4538 33.5563C51.0054 33.5563 50.7948 33.0063 50.3235 33.0063H50.3034Z" fill="#010101"/>
<path d="M48.097 34.2262C47.9033 34.241 47.7092 34.2055 47.5334 34.1231C47.3577 34.0407 47.2063 33.9143 47.0942 33.7562C46.7833 33.3262 47.0942 32.8062 47.2747 32.3962C47.2747 32.2862 47.385 32.1862 47.4251 32.0862C47.7661 31.3962 48.117 30.6362 48.4279 29.8962C48.4891 29.7902 48.5886 29.7116 48.706 29.6763C48.8234 29.641 48.9499 29.6517 49.0596 29.7062C49.1087 29.7198 49.1544 29.7432 49.194 29.7752C49.2336 29.8071 49.2661 29.8468 49.2896 29.8919C49.3132 29.9369 49.3272 29.9862 49.3307 30.0369C49.3343 30.0875 49.3273 30.1383 49.3103 30.1862C49.2 30.4162 49.0797 30.6362 48.9594 30.8662C48.6075 31.4698 48.3153 32.1061 48.087 32.7662C48.0594 32.7801 48.0352 32.7998 48.0162 32.824C47.9971 32.8482 47.9836 32.8762 47.9766 32.9062C47.9781 32.9525 47.9896 32.998 48.0103 33.0394C48.0311 33.0808 48.0607 33.1173 48.097 33.1462V33.1962C48.0925 33.2327 48.0966 33.2697 48.1088 33.3044C48.1209 33.339 48.1409 33.3705 48.1672 33.3962C48.1672 33.3962 48.2674 33.3962 48.3577 33.3962C48.525 33.3794 48.6862 33.3247 48.829 33.2362L49.0697 33.1362C49.4244 32.9672 49.81 32.8719 50.2028 32.8562C50.3366 32.8418 50.4708 32.8796 50.5773 32.9616C50.6839 33.0436 50.7545 33.1635 50.7744 33.2962C50.7753 33.3427 50.7636 33.3885 50.7407 33.429C50.7178 33.4694 50.6844 33.503 50.644 33.5262C50.554 33.5911 50.4441 33.6229 50.3332 33.6162C49.9885 33.6503 49.6506 33.7345 49.3304 33.8662C48.939 34.0455 48.5235 34.1667 48.097 34.2262ZM48.8892 29.8762C48.8483 29.8704 48.8067 29.878 48.7705 29.8978C48.7343 29.9177 48.7056 29.9487 48.6886 29.9862C48.3477 30.7262 48.0067 31.4862 47.6858 32.1762L47.5354 32.4962C47.3248 32.8962 47.1043 33.3062 47.3349 33.6262C47.7962 34.2562 48.6084 33.9762 49.3404 33.7062C49.6834 33.5675 50.0449 33.4799 50.4134 33.4462C50.4754 33.4654 50.5419 33.4654 50.6039 33.4462C50.6092 33.4371 50.612 33.4267 50.612 33.4162C50.612 33.4057 50.6092 33.3953 50.6039 33.3862C50.6039 33.2962 50.4635 33.1562 50.253 33.1562C49.8872 33.1734 49.5288 33.2653 49.2 33.4262C49.1242 33.4501 49.0503 33.4802 48.9794 33.5162C48.8117 33.6191 48.6235 33.6839 48.4279 33.7062C48.3716 33.7434 48.3057 33.7636 48.2381 33.7644C48.1705 33.7652 48.1042 33.7465 48.047 33.7106C47.9898 33.6747 47.9443 33.6231 47.9158 33.562C47.8873 33.5009 47.8771 33.4329 47.8864 33.3662C47.8349 33.3178 47.7947 33.2586 47.7687 33.193C47.7427 33.1273 47.7315 33.0567 47.736 32.9862C47.7431 32.9316 47.762 32.8791 47.7914 32.8325C47.8209 32.7859 47.8601 32.7462 47.9064 32.7162C48.1369 32.0538 48.429 31.4144 48.7789 30.8062L49.1298 30.1362C49.1298 30.0262 49.0296 29.9662 48.9894 29.9462L48.8892 29.8762Z" fill="#010101"/>
<path d="M54.2641 35.4662C53.264 36.5372 52.0564 37.3945 50.7143 37.9862C50.6376 38.0309 50.5795 38.1014 50.5505 38.1851C50.5216 38.2688 50.5237 38.36 50.5565 38.4423C50.5892 38.5246 50.6505 38.5924 50.7291 38.6335C50.8077 38.6746 50.8985 38.6862 50.985 38.6662C52.4774 38.0703 53.8122 37.1396 54.8858 35.9462C55.1565 35.5962 54.5348 35.1262 54.2641 35.4662Z" fill="#010101"/>
<path d="M50.865 38.7962C50.7576 38.7933 50.6542 38.7547 50.5714 38.6864C50.4885 38.6181 50.431 38.5241 50.408 38.4194C50.3849 38.3148 50.3976 38.2054 50.4441 38.1088C50.4906 38.0121 50.5681 37.9338 50.6645 37.8862C51.9928 37.2992 53.1896 36.4525 54.1842 35.3962C54.2242 35.3444 54.276 35.3028 54.3353 35.275C54.3946 35.2472 54.4597 35.2339 54.5252 35.2362C54.6458 35.2465 54.7609 35.2917 54.8561 35.3662C54.9464 35.4425 55.0126 35.5432 55.0467 35.6562C55.0608 35.7168 55.0609 35.7798 55.047 35.8404C55.0331 35.9011 55.0055 35.9578 54.9664 36.0062C53.8872 37.2208 52.5374 38.1661 51.0255 38.7662C50.9743 38.7859 50.9199 38.796 50.865 38.7962ZM54.5051 35.4562C54.4764 35.4558 54.4479 35.4619 54.4219 35.474C54.3958 35.4862 54.3729 35.504 54.3547 35.5262C53.3423 36.6084 52.1213 37.4757 50.7648 38.0762C50.7357 38.0892 50.7094 38.1078 50.6875 38.1309C50.6657 38.1541 50.6487 38.1814 50.6375 38.2111C50.6263 38.2409 50.6212 38.2726 50.6224 38.3044C50.6236 38.3362 50.6311 38.3674 50.6445 38.3962C50.6546 38.428 50.6711 38.4574 50.6928 38.4827C50.7146 38.508 50.7412 38.5287 50.7711 38.5436C50.801 38.5585 50.8336 38.5673 50.8669 38.5695C50.9003 38.5717 50.9338 38.5672 50.9654 38.5562C52.4421 37.9673 53.7606 37.0428 54.816 35.8562C54.9163 35.7362 54.816 35.5862 54.7258 35.5262C54.6631 35.4772 54.5847 35.4523 54.5051 35.4562Z" fill="#010101"/>
<path d="M47.014 24.5562C45.5873 24.3781 44.147 24.3346 42.7121 24.4262C42.2307 24.4962 42.2307 25.1762 42.7121 25.1062C44.1464 24.9779 45.5911 25.0249 47.014 25.2462C47.4954 25.3062 47.4954 24.6262 47.014 24.5562Z" fill="#010101"/>
<path d="M47.0848 25.3562H47.0045C45.5877 25.141 44.15 25.0974 42.7226 25.2262C42.6509 25.2386 42.5771 25.2322 42.5086 25.2077C42.4401 25.1831 42.379 25.1413 42.3315 25.0862C42.2896 25.0205 42.2673 24.9442 42.2673 24.8662C42.2673 24.7883 42.2896 24.712 42.3315 24.6462C42.365 24.561 42.4208 24.4863 42.4932 24.43C42.5655 24.3737 42.6517 24.3379 42.7427 24.3262C44.1912 24.2338 45.6453 24.2807 47.0848 24.4662C47.1513 24.4723 47.2159 24.4919 47.2747 24.5237C47.3334 24.5556 47.385 24.599 47.4263 24.6514C47.4676 24.7039 47.4978 24.7641 47.5149 24.8286C47.532 24.893 47.5358 24.9603 47.526 25.0262C47.5199 25.0773 47.5035 25.1266 47.4778 25.1711C47.452 25.2157 47.4175 25.2546 47.3762 25.2854C47.335 25.3163 47.2879 25.3385 47.2378 25.3506C47.1877 25.3628 47.1356 25.3647 47.0848 25.3562ZM44.2368 24.9262C45.1732 24.9298 46.1082 25 47.0346 25.1362C47.0596 25.1421 47.0856 25.1428 47.111 25.1383C47.1363 25.1339 47.1605 25.1244 47.1821 25.1103C47.2036 25.0963 47.2221 25.0781 47.2364 25.0568C47.2507 25.0354 47.2605 25.0114 47.2652 24.9862C47.2694 24.9481 47.2659 24.9095 47.255 24.8728C47.2441 24.836 47.2261 24.8017 47.2018 24.772C47.1776 24.7422 47.1476 24.7175 47.1138 24.6994C47.0799 24.6812 47.0428 24.67 47.0045 24.6662C45.5819 24.4805 44.1444 24.4336 42.7126 24.5262C42.6609 24.5351 42.6124 24.5573 42.5719 24.5906C42.5315 24.6239 42.5005 24.6672 42.482 24.7162C42.4617 24.7512 42.4511 24.7908 42.4511 24.8312C42.4511 24.8716 42.4617 24.9113 42.482 24.9462C42.5083 24.9711 42.5406 24.9887 42.5757 24.9974C42.6108 25.0062 42.6476 25.0058 42.6825 24.9962C43.204 24.9562 43.7154 24.9262 44.2368 24.9262Z" fill="#010101"/>
<path d="M55.9084 24.0662C54.4716 24.1989 53.051 24.4702 51.6667 24.8762C51.2555 25.0162 51.3959 25.6962 51.8071 25.5662C53.1897 25.1512 54.6109 24.8765 56.0488 24.7462C56.5202 24.7462 56.3898 24.0662 55.9084 24.0662Z" fill="#010101"/>
<path d="M51.6971 25.7062C51.6114 25.7071 51.5288 25.6749 51.4665 25.6162C51.4046 25.5586 51.359 25.4858 51.3343 25.405C51.3097 25.3243 51.3068 25.2384 51.3261 25.1562C51.3411 25.0741 51.3779 24.9975 51.4325 24.9342C51.4871 24.8709 51.5577 24.8233 51.6369 24.7962C53.0278 24.387 54.455 24.1124 55.8987 23.9762C55.9685 23.9749 56.0379 23.9873 56.1029 24.0127C56.1679 24.0381 56.2272 24.0761 56.2775 24.1244C56.3278 24.1727 56.368 24.2303 56.396 24.2941C56.4239 24.358 56.4389 24.4266 56.4402 24.4962C56.441 24.5924 56.4052 24.6853 56.34 24.7562C56.3002 24.795 56.2532 24.8256 56.2016 24.8462C56.1499 24.8668 56.0947 24.877 56.0391 24.8762C54.6116 25.0051 53.2007 25.2765 51.8275 25.6862L51.6971 25.7062ZM55.9088 24.1862C54.4816 24.3234 53.0711 24.598 51.6971 25.0062C51.6549 25.0193 51.6174 25.0441 51.5889 25.0778C51.5605 25.1115 51.5424 25.1526 51.5367 25.1962C51.5255 25.242 51.5261 25.2898 51.5383 25.3352C51.5506 25.3806 51.5741 25.4223 51.6068 25.4562C51.6297 25.4741 51.658 25.4838 51.687 25.4838C51.7161 25.4838 51.7444 25.4741 51.7673 25.4562C53.1618 25.0479 54.5923 24.7734 56.0391 24.6362C56.1996 24.6362 56.2397 24.5462 56.2397 24.4762C56.2279 24.3967 56.1881 24.3239 56.1275 24.2708C56.0669 24.2177 55.9894 24.1877 55.9088 24.1862Z" fill="#010101"/>
<path d="M33.2067 125.066C34.6407 116.686 36.0746 108.296 37.5086 99.9862C37.5086 99.9162 37.5788 99.9162 37.5788 99.8462V99.7162C41.2088 99.6462 44.8289 99.6462 48.5191 99.5762V99.7162C48.6595 99.7162 48.7999 99.6462 48.9302 99.6462H49.3414C49.3534 99.2098 49.4003 98.7751 49.4818 98.3462C49.6121 96.8462 49.7525 95.3462 49.8929 93.8562H50.0935C53.172 93.3062 56.3207 94.2562 59.3992 94.8562C59.6667 94.9343 59.943 94.978 60.2215 94.9862C60.2215 95.1262 61.0338 95.2662 61.104 95.1962L67.1206 96.4162C67.0605 96.4162 67.0605 96.4862 66.9903 96.4862C64.3229 98.3262 68.9056 99.5562 71.232 100.096C69.2264 100.716 67.2209 101.326 65.2755 102.006C64.1761 102.331 63.1217 102.791 62.1368 103.376C59.329 104.526 61.6555 106.576 61.9965 106.576C61.104 107.256 60.5625 108.276 62.0667 108.896C62.2392 108.968 62.4219 109.012 62.6081 109.026C62.4039 109.225 62.2822 109.492 62.2672 109.776C62.2419 109.951 62.2521 110.13 62.2973 110.301C62.3425 110.472 62.4217 110.632 62.5302 110.772C62.6387 110.912 62.7743 111.029 62.929 111.115C63.0836 111.202 63.2542 111.257 63.4304 111.276C64.5936 111.486 65.9574 110.596 66.9903 110.186C68.9608 109.315 70.8587 108.288 72.666 107.116C72.7405 107.068 72.7938 106.993 72.8152 106.907C72.8365 106.821 72.8244 106.73 72.7811 106.652C72.7378 106.575 72.6666 106.517 72.582 106.49C72.4973 106.463 72.4055 106.468 72.3251 106.506C71.0288 107.348 69.69 108.122 68.3139 108.826C67.666 109.164 66.996 109.458 66.3084 109.706C65.7669 109.916 65.2154 110.186 64.6739 110.396C63.8516 110.796 62.6683 110.796 63.3001 109.396C65.5387 108.403 67.7094 107.264 69.798 105.986C69.8726 105.938 69.9259 105.863 69.9473 105.777C69.9686 105.691 69.9565 105.6 69.9132 105.522C69.8699 105.445 69.7987 105.387 69.7141 105.36C69.6294 105.333 69.5376 105.338 69.4571 105.376C68.3556 106.058 67.2137 106.672 66.0376 107.216C65.3852 107.527 64.7156 107.801 64.0321 108.036C63.28 108.446 61.4349 108.106 62.3975 106.946C62.6683 106.736 65.7468 105.716 66.4989 105.446C66.9101 105.306 66.6995 104.626 66.2883 104.766C65.583 105.062 64.851 105.289 64.1023 105.446C63.2098 105.646 62.0967 106.126 61.7056 105.236C61.3145 104.346 62.2571 104.016 63.0794 103.606C63.6684 103.297 64.2864 103.046 64.9245 102.856C67.5919 101.856 70.2593 101.156 72.9468 100.266C73.3579 100.126 72.6059 99.6562 72.5357 99.6562L68.7752 98.6562C68.2237 98.5262 67.6822 98.4562 67.4014 97.9062C67.3474 97.7978 67.3254 97.6764 67.3379 97.5561C67.3503 97.4357 67.3966 97.3213 67.4716 97.2262C67.7926 96.9945 68.1701 96.8529 68.5646 96.8162C69.1862 96.8007 69.8076 96.8476 70.4198 96.9562C72.7915 97.1577 75.1406 97.5693 77.4392 98.1862C78.1619 100.547 79.1722 102.811 80.4475 104.926C79.0136 105.816 77.5094 106.636 76.0754 107.456C76.005 107.451 75.9348 107.468 75.874 107.504C75.8132 107.539 75.7645 107.593 75.7345 107.656C75.5239 107.796 75.3233 107.856 75.1127 107.996C74.2203 108.476 73.3379 108.946 72.4454 109.356C72.0342 109.566 67.9329 111.816 67.9329 110.356C67.9183 110.267 67.8724 110.186 67.8036 110.128C67.7347 110.07 67.6472 110.038 67.5568 110.038C67.4665 110.038 67.379 110.07 67.3101 110.128C67.2412 110.186 67.1954 110.267 67.1808 110.356C67.1106 112.356 71.4225 110.626 71.4225 110.626C72.9267 109.876 74.4309 109.126 75.8648 108.306C76.9685 110.89 77.8377 113.567 78.4621 116.306C78.7428 117.736 79.0136 119.166 79.154 120.596C79.2141 121.206 79.2843 121.886 79.2843 122.506C79.2094 123.279 79.233 124.059 79.3545 124.826C79.2843 124.686 78.4621 124.886 78.4621 124.956C70.6003 124.956 40.918 125.026 33.0562 125.026C32.9658 125.026 32.8791 125.062 32.8152 125.126C32.7512 125.19 32.7153 125.276 32.7153 125.366C32.7153 125.456 32.7512 125.543 32.8152 125.607C32.8791 125.67 32.9658 125.706 33.0562 125.706C41.0785 125.846 80.0364 125.706 80.1066 125.706C80.1768 125.706 80.0364 124.006 80.0364 123.186C79.9838 121.474 79.823 119.768 79.5551 118.076C79.0078 114.623 77.9959 111.259 76.5468 108.076C77.9908 107.256 79.4949 106.436 80.9289 105.626C81.0593 105.756 81.1294 105.966 81.2698 106.096C81.2983 106.141 81.3363 106.179 81.3811 106.207C81.4259 106.236 81.4764 106.254 81.5291 106.26C81.5817 106.267 81.6352 106.262 81.6858 106.246C81.7363 106.23 81.7826 106.202 81.8213 106.166C82.6455 105.422 83.5349 104.752 84.4787 104.166C85.4815 103.616 86.6046 103.416 87.6977 102.936C89.1076 102.228 90.3996 101.307 91.5282 100.206C94.8635 97.5092 98.0599 94.6455 101.105 91.6262C103.221 89.4462 105.477 87.0562 104.655 83.8562C104.047 82.1039 103.145 80.4672 101.987 79.0162C100.694 77.1062 99.3198 75.1962 97.9761 73.2862C97.7054 72.9462 97.0837 73.2862 97.3544 73.6262C98.4575 75.2662 99.6207 76.8362 100.714 78.4662C101.946 79.9844 102.959 81.6675 103.722 83.4662C105.156 87.6262 100.914 90.8262 98.1766 93.4162C95.439 96.0062 92.6413 98.3162 89.7634 100.706C88.3294 101.936 86.8252 102.346 85.1205 103.096C83.8303 103.694 82.6317 104.472 81.5607 105.406C81.4905 105.336 81.4904 105.276 81.4203 105.206C81.4466 105.148 81.4581 105.084 81.454 105.021C81.4498 104.957 81.43 104.895 81.3964 104.841C81.3627 104.787 81.3162 104.741 81.2609 104.709C81.2057 104.677 81.1432 104.659 81.0793 104.656C80.0547 103.034 79.2298 101.295 78.6225 99.4762C78.4446 99.1167 78.3951 98.7075 78.4821 98.3162C78.5714 98.2253 78.6217 98.1034 78.6225 97.9762C78.823 97.7062 79.164 97.4362 79.5049 97.0262C80.1259 96.4225 80.6775 95.7517 81.1495 95.0262C81.4202 94.6162 80.8086 94.2762 80.5378 94.6762C79.8091 95.8117 78.8819 96.8075 77.8002 97.6162C75.8087 97.0549 73.7721 96.6668 71.7134 96.4562C70.5423 96.221 69.347 96.127 68.1535 96.1762C68.1535 96.1162 68.0232 95.9762 67.953 95.9762L61.4549 94.6762C61.5353 94.4333 61.6022 94.1863 61.6555 93.9362C62.0666 92.4962 62.4777 91.1362 62.8889 89.7062C63.5106 87.4562 63.9819 85.2062 64.4632 82.9562C65.6395 83.4124 66.8914 83.6431 68.1535 83.6362C67.4014 87.4562 66.7195 91.3462 65.9674 95.1562C65.8972 95.5662 66.5791 95.7762 66.6493 95.3662C67.4014 91.4762 68.0833 87.5262 68.8454 83.6362C71.1683 83.4545 73.3943 82.6303 75.2732 81.2562C78.4821 78.8662 81.2197 74.9162 81.6308 70.9662C81.9717 67.6262 79.6253 63.6762 75.6843 64.0162C70.6704 64.4862 70.4097 71.8462 69.7278 75.3262L68.2237 83.0262C66.956 83.0217 65.7018 82.7668 64.5335 82.2762L64.734 81.1162C65.6265 75.9362 66.3786 70.3462 65.2855 65.1762C64.6036 61.8962 61.5953 59.6562 58.3764 61.8962C54.9569 64.2862 55.5084 69.8062 56.3708 73.2862C56.8103 75.2984 57.6959 77.187 58.9626 78.8136C60.2293 80.4401 61.845 81.7633 63.6912 82.6862C63.3502 84.3262 63.0092 85.9562 62.5981 87.5962L61.7758 90.8662C61.7056 91.2062 61.1641 93.4562 60.8934 94.6162L58.226 94.0662C55.4884 93.5262 52.7508 92.8362 49.8829 93.3162C49.8127 93.3162 49.7425 93.3862 49.6723 93.4562C49.6178 93.4392 49.5602 93.435 49.5038 93.4439C49.4474 93.4528 49.3939 93.4745 49.3473 93.5074C49.3007 93.5403 49.2624 93.5835 49.2353 93.6336C49.2082 93.6837 49.193 93.7393 49.191 93.7962C49.0606 95.4262 48.6495 97.2662 48.5793 99.0462C44.8189 99.1062 41.0585 99.1062 37.298 99.1762C37.233 99.1737 37.1686 99.1899 37.1125 99.2228C37.0564 99.2556 37.0109 99.3038 36.9814 99.3617C36.9518 99.4195 36.9395 99.4846 36.9459 99.5492C36.9522 99.6137 36.977 99.6752 37.0172 99.7262V99.7962C33.1866 97.6762 33.327 93.3862 34.1493 89.7062C34.8312 86.6362 35.7939 83.6362 35.1521 80.4362C34.4702 77.0262 32.7655 74.0262 32.8958 70.4862C33.1064 66.6662 34.8111 63.0562 36.5259 59.6562C36.7264 59.2462 36.1147 58.9062 35.9042 59.3062C34.3298 62.5862 32.6953 65.9862 32.2841 69.6062C31.873 72.9362 33.1064 75.6662 33.9889 78.6662V78.8662C34.2869 80.4862 34.194 82.1536 33.718 83.7307C33.242 85.3079 32.3964 86.7494 31.2513 87.9362C28.6541 90.6562 23.6001 92.4962 20.7923 89.0262C18.536 86.2962 17.6436 82.2062 16.6208 78.9362C15.4754 75.1973 14.538 71.3982 13.8129 67.5562L22.3667 64.5662C23.0485 67.5662 23.941 70.4962 24.8937 73.4262C24.8335 73.5562 25.3048 74.3762 25.5856 73.6262C26.6837 71.0402 27.5527 68.3633 28.1828 65.6262C28.7243 63.1762 28.9348 60.6262 29.6869 58.2662C30.6897 54.9962 33.1064 53.7662 36.3153 52.6762C39.2634 51.7262 42.2718 50.8362 45.2801 50.0862C45.3503 50.3562 45.8919 50.4262 45.9621 50.0862C46.1501 49.0783 46.5995 48.1371 47.2657 47.3562C47.2962 47.3995 47.3368 47.4348 47.3839 47.4591C47.431 47.4835 47.4833 47.4962 47.5364 47.4962C48.0767 47.489 48.6048 47.6575 49.0405 47.9762C49.3815 48.2462 49.7926 47.6362 49.3815 47.3562C48.9668 47.0402 48.4682 46.8524 47.9475 46.8162C47.9113 46.4471 47.8407 46.0823 47.7369 45.7262C47.6066 45.2462 47.5364 44.8362 47.396 44.3662C52.1191 45.3662 57.7948 41.0862 59.7101 36.7962C59.9106 36.3862 59.299 36.0462 59.0884 36.4562C57.3837 40.2762 53.4829 43.8862 48.9704 43.8862C44.0467 43.8862 42.2718 38.7062 41.5799 34.8862C40.7739 30.3799 40.9621 25.7526 42.1314 21.3262C42.2016 20.9862 42.342 20.7162 42.4021 20.3762C43.3847 18.2935 44.4828 16.2671 45.6913 14.3062C45.8216 17.0362 49.5821 22.0062 50.7052 21.7362C50.7588 21.7185 50.8078 21.6891 50.8487 21.6501C50.8895 21.6112 50.9211 21.5637 50.9413 21.511C50.9615 21.4584 50.9697 21.4019 50.9652 21.3457C50.9608 21.2895 50.9439 21.235 50.9157 21.1862C49.6823 18.9462 48.5191 16.4862 48.9102 13.9662C49.9943 16.7344 51.5179 19.3106 53.4227 21.5962C53.4796 21.6512 53.5527 21.6866 53.6313 21.6972C53.7099 21.7078 53.7898 21.693 53.8594 21.655C53.9289 21.6169 53.9844 21.5577 54.0177 21.4859C54.051 21.4142 54.0604 21.3337 54.0444 21.2562C53.8339 20.3762 53.6934 19.4862 53.5631 18.5962C54.0873 19.5616 54.7645 20.4362 55.5686 21.1862C57.2733 22.8262 60.4221 23.4362 61.2444 25.6862C63.0193 30.9362 61.6555 37.7562 58.6472 42.3162C58.3664 42.7262 58.9881 43.0662 59.2588 42.6562C62.1672 38.0303 63.2633 32.4975 62.3374 27.1162C62.2082 25.9835 61.8354 24.892 61.2444 23.9162C60.5525 23.0262 59.4594 22.9162 58.577 22.4162C57.2425 21.7213 56.0747 20.7466 55.1538 19.559C54.2329 18.3714 53.5807 16.999 53.2422 15.5362C53.172 15.1962 52.4901 15.2662 52.5603 15.6062C52.6906 17.0362 52.9012 18.4662 53.172 19.8962C51.5233 17.6793 50.231 15.2198 49.3414 12.6062C49.3228 12.53 49.279 12.4624 49.2172 12.414C49.1553 12.3656 49.079 12.3393 49.0004 12.3393C48.9218 12.3393 48.8455 12.3656 48.7837 12.414C48.7219 12.4624 48.6781 12.53 48.6595 12.6062C47.5664 15.5362 48.7898 17.7162 50.2338 20.3762C49.2311 20.5762 46.8745 16.0762 46.674 15.0562C46.5336 14.4462 46.674 13.2862 45.7815 13.2862C44.889 13.2862 43.5955 16.1462 43.2545 16.8962C42.5933 18.1276 42.0202 19.4041 41.5398 20.7162C41.269 21.8062 40.9983 22.8962 40.7877 24.0562C40.4492 26.2189 40.3149 28.4085 40.3865 30.5962C40.5169 34.2062 41.0685 38.3662 43.2545 41.4362C44.1179 42.7252 45.394 43.6841 46.8746 44.1562C46.836 44.1904 46.8047 44.2319 46.7823 44.2782C46.7599 44.3245 46.747 44.3748 46.7442 44.4262V45.0662C46.7442 45.1962 46.8144 45.3362 46.9448 45.3362C47.0751 45.3362 47.015 45.5362 47.015 45.6762C47.1263 45.9373 47.1972 46.2138 47.2255 46.4962C47.2255 46.5054 47.2237 46.5145 47.2202 46.523C47.2166 46.5315 47.2115 46.5392 47.2049 46.5457C47.1984 46.5522 47.1907 46.5573 47.1822 46.5608C47.1736 46.5644 47.1645 46.5662 47.1553 46.5662C47.0383 46.5557 46.9207 46.5764 46.8144 46.6262C46.1398 47.3673 45.6457 48.2536 45.3704 49.2162C43.3648 49.6962 41.269 50.2162 39.2835 50.8562C37.7869 44.9362 37.3021 38.8069 37.8496 32.7262C38.4011 26.6662 39.7648 20.1862 42.6428 14.7262C45.3704 9.47619 51.0461 7.22619 56.9324 8.72619C62.4677 10.1562 66.4388 14.7262 68.7652 19.5662C71.8437 26.1062 72.3251 34.2862 73.2777 41.3062C73.3479 41.7162 74.0298 41.7862 74.0298 41.3062C72.8666 32.9262 72.1145 21.3062 66.3686 14.1762C66.5791 14.3162 66.9903 14.2462 66.9201 13.9062C66.8634 13.1537 66.9073 12.3971 67.0504 11.6562C67.5526 11.497 68.0191 11.2423 68.4242 10.9062C70.8108 8.90618 70.3395 5.52619 68.354 3.48619C66.3685 1.44619 63.1597 0.206183 60.4923 1.43618C59.9662 1.67188 59.5014 2.02511 59.1341 2.46853C58.7668 2.91196 58.5067 3.43369 58.3739 3.9934C58.2411 4.55311 58.2391 5.13579 58.3682 5.69636C58.4974 6.25693 58.7541 6.78037 59.1185 7.22619L57.9552 7.7762C57.9054 7.79866 57.8621 7.83346 57.8295 7.8773C57.7969 7.92114 57.7761 7.97256 57.7691 8.02667C57.7621 8.08078 57.7691 8.13578 57.7894 8.18646C57.8097 8.23713 57.8426 8.28179 57.885 8.31619C53.4427 6.95619 48.0378 7.56619 44.6183 10.8462C42.5024 12.8462 41.3392 15.6762 40.3164 18.4062C39.081 21.7375 38.1872 25.1851 37.649 28.6962C36.5091 36.163 36.8498 43.7802 38.6518 51.1162C37.4183 51.5262 36.195 51.8662 34.9615 52.3462C32.6351 53.1662 30.7198 54.3462 29.6268 56.5062C28.4635 58.8862 28.3232 61.5062 27.7817 64.1362C27.1575 66.9413 26.3331 69.6983 25.3148 72.3862C24.3121 69.5162 23.9511 67.3862 23.0586 64.3862C22.7878 63.5662 22.1761 63.8462 22.1761 63.8462C21.765 63.9762 21.4241 64.1162 21.0129 64.2562C20.6187 63.4172 20.2836 62.5517 20.0102 61.6662C19.9166 61.5602 19.8485 61.4344 19.8109 61.2982C19.7734 61.1621 19.7675 61.0192 19.7936 60.8804C19.8197 60.7416 19.8771 60.6106 19.9616 60.4972C20.046 60.3839 20.1552 60.2912 20.2809 60.2262C21.3772 59.1827 22.4054 58.0705 23.3594 56.8962C23.7449 56.0905 23.8643 55.1837 23.7004 54.3062C23.57 53.5562 23.4296 51.5762 22.5472 51.3762C21.6647 51.1762 21.2436 51.9162 21.2436 52.5962C21.2633 52.9653 21.18 53.3327 21.003 53.6575C20.8259 53.9823 20.5621 54.2519 20.2408 54.4362C20.1104 54.5062 19.8998 54.5762 19.7694 54.6462C19.5589 54.3062 18.0547 51.3062 19.4887 51.4362C19.8397 51.5062 19.8397 51.8462 20.311 51.7762C20.5072 51.7114 20.6876 51.6065 20.8408 51.4682C20.9939 51.3299 21.1165 51.1612 21.2005 50.9729C21.2845 50.7846 21.3281 50.5809 21.3286 50.3748C21.3291 50.1688 21.2865 49.9649 21.2035 49.7762C20.9496 49.2933 20.5455 48.9056 20.0519 48.6712C19.5583 48.4368 19.0018 48.3684 18.4658 48.4762C17.3886 49.0617 16.5802 50.0399 16.2096 51.2062C15.5979 49.2062 15.1166 47.2062 14.3645 45.2762C13.9534 44.2762 13.7528 42.0762 12.359 42.8962C12.2315 42.9753 12.1267 43.086 12.0546 43.2174C11.9826 43.3488 11.9458 43.4965 11.9478 43.6462C12.1584 44.5262 13.8029 49.5662 13.2514 50.8662C12.5682 49.7917 11.952 48.6762 11.4063 47.5262C11.0654 46.7762 10.9249 45.5262 10.3133 44.8662C9.83192 44.3962 9.07983 44.2562 8.73889 44.9362C8.39794 45.6162 8.80909 46.2962 8.93945 46.7762C9.35059 48.0062 9.76177 49.1662 10.1729 50.3162C10.3133 50.7962 10.9952 51.7562 10.0325 51.8862C9.28042 51.9562 8.32775 50.5962 8.11717 50.0462C7.90658 49.4962 8.18738 48.6162 7.57569 48.2062C6.964 47.7962 6.27207 48.2762 6.00132 48.9562C5.51999 50.3162 6.34225 51.8162 7.30492 52.8462C8.057 53.6562 9.00966 54.2762 9.83194 55.0262C10.7859 55.9345 11.511 57.0551 11.9478 58.2962C12.9506 60.8862 14.6854 66.2962 14.6854 66.2962C14.2041 66.4362 13.7327 66.6362 13.2514 66.7762C13.1638 66.7997 13.0879 66.8544 13.038 66.93C12.9881 67.0055 12.9677 67.0966 12.9807 67.1862C13.9888 72.4379 15.3831 77.6085 17.1522 82.6562C18.155 85.6562 19.3383 89.9462 22.8982 91.1062C26.458 92.2662 30.078 90.1062 32.1939 87.6262C33.3508 86.2417 34.171 84.6092 34.5905 82.8562C34.2496 88.8562 30.0078 96.4162 36.5961 100.096C36.6663 100.166 33.9989 116.726 32.585 125.046C32.5742 125.142 32.5992 125.238 32.6552 125.316C32.6303 125.37 32.6202 125.43 32.6258 125.489C32.6314 125.549 32.6525 125.605 32.687 125.654C32.7215 125.703 32.7683 125.741 32.8225 125.766C32.8768 125.791 32.9366 125.802 32.9961 125.796M71.1016 70.3862C71.3261 68.8544 71.884 67.3901 72.7362 66.0962C74.3807 63.9162 77.3189 64.0462 79.174 65.9562C82.2425 69.1562 79.9863 74.2062 77.73 77.2062C75.4738 80.2062 72.3953 82.4462 68.6348 82.7262C69.4571 78.6362 70.2794 74.5462 71.1016 70.3862ZM58.8578 77.4762C56.8175 74.1515 55.9722 70.2334 56.4611 66.3662C56.7419 64.1862 57.8951 61.9362 60.3619 61.5262C63.0995 61.0462 64.1223 63.5262 64.5335 65.6162C65.3557 70.6162 64.734 75.8362 63.8516 80.7462L63.641 81.7462C61.6857 80.7756 60.0322 79.2926 58.8578 77.4562V77.4762ZM60.3519 2.06619C61.2029 1.7308 62.1194 1.59341 63.0317 1.66445C63.944 1.7355 64.828 2.01312 65.6165 2.47619C66.4409 2.8734 67.1685 3.44511 67.7487 4.15148C68.3289 4.85786 68.7476 5.6819 68.9757 6.56619C69.1684 7.42087 69.0437 8.31621 68.6248 9.08619C68.3742 9.57774 68.0342 10.0186 67.622 10.3862C67.3679 10.615 67.0926 10.8192 66.7997 10.9962C66.7671 10.9559 66.7259 10.9233 66.679 10.9008C66.6322 10.8783 66.5809 10.8665 66.529 10.8662C66.4744 10.7441 66.3786 10.645 66.2583 10.5862C64.321 8.53039 61.8208 7.08732 59.0683 6.43618C58.8475 6.07201 58.7041 5.66653 58.6468 5.24484C58.5895 4.82314 58.6195 4.3942 58.7352 3.98457C58.8508 3.57493 59.0495 3.19333 59.3189 2.86335C59.5884 2.53338 59.9229 2.26206 60.3018 2.06619H60.3519ZM12.9606 59.4562C12.5298 57.9458 11.8522 56.5166 10.955 55.2262C9.73166 53.7262 7.74619 52.8462 6.85372 51.0662C6.71333 50.8662 6.1718 49.0662 6.51275 48.9562C6.85369 48.8462 7.06427 49.5662 7.19463 49.8462C7.46538 50.3862 7.46538 50.8462 7.94671 51.3462C8.23386 51.6885 8.58859 51.9681 8.98885 52.1677C9.3891 52.3672 9.8263 52.4825 10.2732 52.5062C11.4364 52.3662 11.0954 51.4162 10.8848 50.5962C10.5439 49.5962 10.203 48.5962 9.88207 47.5962C9.71844 47.2194 9.5811 46.8318 9.47095 46.4362C9.2704 45.6862 9.13002 45.4362 9.61136 45.4862L10.1528 46.3662C10.5038 46.9862 10.7044 47.7962 11.0453 48.4762C11.546 49.5149 12.1189 50.5173 12.76 51.4762C12.8119 51.5484 12.8863 51.6013 12.9717 51.6267C13.057 51.652 13.1484 51.6483 13.2314 51.6162C14.0536 51.2762 14.0537 50.4562 13.9233 49.6162C13.5854 47.712 13.1503 45.8262 12.6197 43.9662C13.7127 43.2862 13.7127 44.9662 14.3244 47.6462C14.6051 48.9362 15.1467 50.2362 15.4876 51.4562C15.628 51.8662 16.6508 51.6662 16.721 51.3962C16.9111 50.7125 17.2898 50.0958 17.8141 49.6162C18.2954 49.1462 19.2581 48.8062 19.8196 49.3462C21.2536 50.0962 20.6419 50.8462 20.3009 50.8462C19.96 50.8462 19.4787 50.3662 18.9271 50.5762C17.2224 51.1162 18.5862 53.9762 19.1377 54.9362C18.9877 55.0047 18.849 55.0958 18.7266 55.2062C17.6871 55.925 16.8652 56.9141 16.35 58.0662C16.1394 58.4662 16.7611 58.8162 16.9617 58.4062C17.3483 57.5125 17.9349 56.719 18.6764 56.0862C19.5124 55.5783 20.3798 55.1241 21.2736 54.7262C22.2262 54.1062 21.5444 53.1562 21.6146 53.0162C22.507 51.5862 22.848 54.1062 22.848 54.1762C23.3895 57.8562 20.6619 57.9962 19.0876 60.2462C18.2653 61.4062 19.5589 63.3062 19.97 64.5362L15.0464 66.1762V66.0662C14.4347 63.7462 13.6826 61.6362 12.9306 59.4562H12.9606Z" fill="#010101"/>
<path d="M33.0655 126.066C32.9681 126.071 32.8708 126.053 32.7818 126.013C32.6929 125.973 32.6148 125.912 32.5541 125.836C32.5085 125.771 32.4761 125.698 32.4589 125.621C32.4417 125.544 32.44 125.464 32.4538 125.386C32.4092 125.286 32.3886 125.176 32.3937 125.066C33.7575 117.206 36.2143 101.936 36.4048 100.266C31.5012 97.4362 32.5541 92.5262 33.5569 87.7662C33.7374 86.9262 33.9179 86.0762 34.0683 85.2362C33.6248 86.1552 33.0728 87.018 32.4238 87.8062C30.1876 90.3962 26.4071 92.4962 22.8472 91.3662C19.2873 90.2362 18.1944 86.5062 17.1816 83.4862L16.9409 82.7562C15.1731 77.6971 13.7756 72.5169 12.7593 67.2562C12.7336 67.1058 12.7644 66.9513 12.8458 66.8222C12.9272 66.693 13.0535 66.5983 13.2005 66.5562C13.4512 66.4862 13.6819 66.3962 13.9225 66.3162L14.3938 66.1462C14.0428 65.0662 12.6289 60.6762 11.7465 58.4362C11.3291 57.2379 10.6432 56.1503 9.74089 55.2562C9.42001 54.9662 9.05901 54.6862 8.73812 54.4162C8.18986 54.0096 7.67668 53.5581 7.2039 53.0662C5.92034 51.6962 5.41898 50.1562 5.85017 48.9262C5.9297 48.6825 6.0602 48.4584 6.23307 48.2688C6.40594 48.0792 6.61724 47.9283 6.85295 47.8262C7.02638 47.7821 7.20782 47.7799 7.38225 47.82C7.55668 47.86 7.71905 47.9409 7.85573 48.0562C8.06592 48.2355 8.22949 48.4628 8.33251 48.7188C8.43554 48.9747 8.47491 49.2518 8.44733 49.5262C8.4516 49.6972 8.46834 49.8676 8.49746 50.0362C8.70804 50.5862 9.65067 51.7362 10.142 51.6862C10.2122 51.6862 10.3526 51.6862 10.3927 51.5662C10.4328 51.4462 10.3125 51.0662 10.2022 50.8262L10.0518 50.4462C9.64061 49.2862 9.23953 48.1262 8.82839 46.9062C8.82839 46.8062 8.76825 46.7162 8.72814 46.6062C8.58662 46.3383 8.50606 46.0426 8.4922 45.7401C8.47833 45.4376 8.53148 45.1358 8.6479 44.8562C8.71627 44.7037 8.82184 44.5708 8.95497 44.4695C9.08809 44.3682 9.24453 44.3017 9.41002 44.2762C9.63424 44.2531 9.86076 44.2827 10.0715 44.3626C10.2822 44.4424 10.4711 44.5704 10.6233 44.7362C11.0314 45.2869 11.3185 45.9173 11.4657 46.5862C11.5475 46.8855 11.648 47.1794 11.7665 47.4662C12.2097 48.4013 12.7017 49.3125 13.2406 50.1962C13.0456 48.3047 12.6557 46.4381 12.0774 44.6262C11.9571 44.2262 11.8668 43.9162 11.8267 43.7462C11.8172 43.5484 11.8605 43.3517 11.9521 43.176C12.0437 43.0004 12.1804 42.852 12.3482 42.7462C12.5024 42.6385 12.6801 42.5688 12.8666 42.5428C13.053 42.5167 13.2431 42.535 13.4211 42.5962C14.0629 42.8462 14.3236 43.7462 14.5543 44.5362C14.6245 44.7962 14.7047 45.0462 14.7849 45.2562C15.2863 46.5362 15.6774 47.8962 16.0484 49.2562L16.4395 50.5862C16.8504 49.6116 17.6023 48.8191 18.5554 48.3562C19.1433 48.2372 19.7541 48.3111 20.2964 48.5671C20.8387 48.8231 21.2833 49.2473 21.5637 49.7762C21.6778 50.0222 21.7369 50.2901 21.7369 50.5612C21.7369 50.8323 21.6778 51.1001 21.5637 51.3462C21.469 51.5503 21.3299 51.7307 21.1564 51.8743C20.9829 52.0179 20.7795 52.121 20.5609 52.1762C20.4286 52.2031 20.2917 52.1971 20.1623 52.1587C20.0329 52.1204 19.9149 52.0508 19.8189 51.9562C19.7663 51.9011 19.7008 51.8599 19.6283 51.8362C19.4278 51.8362 19.3977 51.8962 19.3877 51.9262C19.127 52.3362 19.7186 53.7962 20.0696 54.4662C20.1465 54.4409 20.2204 54.4074 20.2901 54.3662C20.5641 54.2016 20.7857 53.9631 20.9294 53.6782C21.0732 53.3933 21.1331 53.0737 21.1024 52.7562C21.0956 52.5055 21.1442 52.2565 21.2447 52.0266C21.3453 51.7968 21.4952 51.5918 21.684 51.4262C21.8292 51.3276 21.9951 51.2637 22.169 51.2394C22.3429 51.2152 22.5201 51.2312 22.6868 51.2862C23.5993 51.4962 23.82 53.0062 23.9603 54.0162C23.9603 54.1662 23.9603 54.3062 24.0305 54.4162C24.1963 55.3491 24.0666 56.3102 23.6595 57.1662C23.1374 58.0515 22.4578 58.8343 21.6539 59.4762L21.4132 59.6962C21.2282 59.9142 21.0271 60.1181 20.8116 60.3062L20.5408 60.5762C20.3392 60.697 20.1866 60.8846 20.1096 61.1062C20.0943 61.2071 20.1026 61.3102 20.1339 61.4074C20.1652 61.5045 20.2187 61.5931 20.2901 61.6662V61.7762C20.4142 62.3153 20.5992 62.8387 20.8417 63.3362C20.952 63.5862 21.0623 63.8462 21.1525 64.0862L21.4935 63.9662L22.0851 63.7562C22.2946 63.6743 22.5274 63.6743 22.7369 63.7562C22.8742 63.8249 22.9953 63.922 23.0921 64.0409C23.189 64.1599 23.2593 64.298 23.2985 64.4462C23.6795 65.7362 23.9804 66.8762 24.3012 67.9762C24.6221 69.0762 24.933 70.4062 25.3542 71.7262C26.2518 69.2672 26.9855 66.7517 27.5502 64.1962C27.7007 63.4762 27.821 62.7362 27.9413 62.0162C28.1649 60.1185 28.6614 58.2628 29.4155 56.5062C30.4182 54.5062 32.1029 53.2062 34.8906 52.2262C35.7129 51.9062 36.5552 51.6462 37.3574 51.3862L38.3602 51.0662C36.6046 43.7662 36.2946 36.1946 37.4477 28.7762C37.9953 25.2488 38.8956 21.7848 40.1351 18.4362C41.1379 15.7062 42.3513 12.8562 44.5072 10.7762C47.6459 7.77621 52.73 6.7762 57.5434 8.0662C57.5603 7.97857 57.5984 7.89636 57.6543 7.82667C57.7102 7.75698 57.7822 7.70192 57.8643 7.66621L58.7567 7.24619C58.4387 6.75934 58.2231 6.21314 58.1231 5.64073C58.0232 5.06831 58.0409 4.48161 58.1751 3.91621C58.3252 3.34451 58.6035 2.81429 58.9891 2.36561C59.3748 1.91693 59.8577 1.5615 60.4012 1.3262C63.209 0.0261958 66.7087 1.4462 68.5639 3.4262C69.1397 4.01248 69.5902 4.7091 69.8884 5.47396C70.1866 6.23882 70.3262 7.05603 70.2987 7.8762C70.27 8.52239 70.1041 9.15515 69.812 9.73264C69.5198 10.3101 69.1081 10.8192 68.604 11.2262C68.2131 11.5451 67.7728 11.7984 67.3004 11.9762C67.1797 12.6356 67.1427 13.3076 67.1901 13.9762C67.2104 14.0725 67.2011 14.1726 67.1636 14.2636C67.126 14.3545 67.0619 14.4321 66.9795 14.4862H66.9193C71.6925 20.7362 72.936 30.2562 73.8685 37.9362C74.0089 39.1062 74.1493 40.2462 74.2997 41.3162C74.308 41.3914 74.301 41.4674 74.279 41.5398C74.257 41.6122 74.2205 41.6793 74.1718 41.7373C74.1231 41.7952 74.0631 41.8427 73.9955 41.8769C73.9279 41.9111 73.854 41.9312 73.7783 41.9362C73.6102 41.9567 73.4405 41.9121 73.3044 41.8117C73.1682 41.7112 73.0758 41.5625 73.0463 41.3962C72.8658 40.1162 72.7154 38.8062 72.5549 37.4762C71.8129 31.3662 71.0507 25.0462 68.5438 19.7262C66.9694 16.4462 63.3594 10.7262 56.8815 9.02621C51.0052 7.52621 45.51 9.8362 42.8426 14.8962C40.3256 19.6762 38.7212 25.6962 38.0894 32.7862C37.5474 38.7506 38.0083 44.7633 39.4532 50.5762C41.2382 50.0262 43.1635 49.5162 45.149 49.0462C45.4379 48.0991 45.9346 47.2281 46.603 46.4962H46.6732C46.7501 46.4579 46.8307 46.4278 46.9139 46.4062C46.8637 46.1762 46.7635 45.7862 46.6833 45.5062C46.5855 45.1786 46.5118 44.8444 46.4627 44.5062C46.4571 44.4664 46.4571 44.426 46.4627 44.3862C45.0538 43.8555 43.8449 42.9016 43.0031 41.6562C40.6365 38.3362 40.2053 33.8062 40.085 30.6562C40.0166 28.4516 40.1543 26.2454 40.4961 24.0662C40.7067 22.9062 40.9775 21.7962 41.2482 20.7362C41.7278 19.3915 42.3077 18.0845 42.983 16.8262L43.0532 16.6862C43.8554 14.9062 44.8081 13.0762 45.7406 13.0762C46.6732 13.0762 46.7434 13.9962 46.8237 14.6062C46.8237 14.7662 46.8237 14.9262 46.8838 15.0562C47.496 16.7567 48.3909 18.3422 49.5312 19.7462C48.2877 17.4162 47.3551 15.2962 48.378 12.5662C48.4207 12.4456 48.4992 12.3408 48.6031 12.2658C48.707 12.1908 48.8313 12.1491 48.9596 12.1462C49.0863 12.1496 49.2091 12.1904 49.3126 12.2634C49.4161 12.3363 49.4956 12.4382 49.5411 12.5562C50.2915 14.7885 51.3441 16.9081 52.6698 18.8562C52.4993 17.7962 52.359 16.7262 52.2587 15.6762C52.2446 15.5424 52.2842 15.4084 52.3687 15.3035C52.4532 15.1986 52.5759 15.1313 52.71 15.1162C52.7863 15.095 52.8662 15.089 52.9449 15.0986C53.0236 15.1083 53.0996 15.1333 53.1686 15.1723C53.2375 15.2114 53.298 15.2636 53.3467 15.3261C53.3953 15.3885 53.4311 15.4599 53.452 15.5362C53.7835 16.9613 54.4203 18.2979 55.3186 19.4544C56.217 20.6109 57.3556 21.5599 58.6564 22.2362C58.9313 22.3827 59.2161 22.5096 59.5088 22.6162C60.241 22.8254 60.8984 23.2381 61.404 23.8062C61.9817 24.7147 62.3515 25.739 62.487 26.8062L62.5472 27.0762C63.4964 32.5237 62.3852 38.1287 59.4286 42.8062C59.3846 42.8794 59.3262 42.9428 59.2568 42.9928C59.1875 43.0428 59.1088 43.0782 59.0253 43.0969C58.9419 43.1156 58.8555 43.1172 58.7714 43.1016C58.6873 43.086 58.6072 43.0535 58.5361 43.0062C58.4133 42.9231 58.3244 42.799 58.2854 42.6562C58.2574 42.4925 58.2933 42.3243 58.3857 42.1862C61.5444 37.3862 62.6073 30.6462 60.9528 25.7762C60.4815 24.4862 59.1779 23.7762 57.784 23.0062C56.9078 22.5686 56.0893 22.0245 55.3473 21.3862C54.8356 20.9178 54.3812 20.3908 53.9935 19.8162C54.0737 20.2762 54.164 20.7462 54.2643 21.2062C54.2941 21.3418 54.279 21.4834 54.2211 21.6097C54.1632 21.7359 54.0657 21.84 53.9434 21.9062C53.8265 21.9682 53.6925 21.99 53.562 21.9683C53.4315 21.9466 53.3118 21.8826 53.2214 21.7862C51.5234 19.7531 50.1224 17.4907 49.0598 15.0662C49.2391 17.1971 49.9267 19.2543 51.0654 21.0662C51.1051 21.1454 51.1258 21.2327 51.1258 21.3212C51.1258 21.4097 51.1051 21.497 51.0654 21.5762C51.0359 21.6702 50.984 21.7557 50.9142 21.8254C50.8443 21.895 50.7585 21.9468 50.6643 21.9762C50.4597 21.9993 50.2526 21.9762 50.0582 21.9087C49.8638 21.8412 49.6871 21.731 49.5411 21.5862C47.5495 19.8288 46.0994 17.5435 45.3596 14.9962C44.5674 16.2262 43.5446 18.3362 42.953 19.5462C42.7023 20.0462 42.5719 20.3162 42.4917 20.4662C42.4114 20.6162 42.4014 20.7762 42.3512 20.9262C42.2973 21.073 42.2537 21.2233 42.2209 21.3762C41.0617 25.7737 40.877 30.3703 41.6794 34.8462C42.3914 38.8462 44.2164 43.6262 48.8091 43.6262C53.4019 43.6262 57.1322 39.8562 58.6965 36.3562C58.7372 36.2606 58.8038 36.1782 58.8888 36.1181C58.9738 36.0581 59.0739 36.0228 59.1779 36.0162C59.29 36.0123 59.4013 36.0368 59.5012 36.0875C59.6012 36.1383 59.6867 36.2135 59.7495 36.3062C59.8042 36.3986 59.833 36.5039 59.833 36.6112C59.833 36.7185 59.8042 36.8238 59.7495 36.9162C57.8041 41.2662 52.2587 45.4062 47.5557 44.6862C47.5557 44.7862 47.5557 44.8862 47.6259 44.9862C47.6961 45.0862 47.7261 45.4262 47.7963 45.6562C47.8172 45.7675 47.8439 45.8777 47.8766 45.9862C47.9311 46.1932 47.9713 46.4037 47.9969 46.6162C48.081 46.6512 48.1523 46.7113 48.2008 46.7883C48.2492 46.8653 48.2726 46.9554 48.2677 47.0462C48.2228 47.2542 48.1056 47.4396 47.9367 47.5696C47.7678 47.6996 47.5582 47.7657 47.3451 47.7562C47.2655 47.756 47.1869 47.739 47.1144 47.7062C46.5654 48.4203 46.1911 49.2524 46.0215 50.1362C45.9957 50.2623 45.9263 50.3754 45.8255 50.4558C45.7248 50.5362 45.5989 50.5788 45.4699 50.5762C45.3767 50.5812 45.2837 50.5659 45.1971 50.5313C45.1105 50.4968 45.0325 50.4439 44.9685 50.3762C42.2309 51.0662 39.2827 51.9162 36.2042 52.9162C32.8249 54.0662 30.6889 55.3162 29.7363 58.3462C29.2975 59.8177 28.9624 61.318 28.7335 62.8362C28.5731 63.7662 28.4127 64.7362 28.2021 65.6762C27.5679 68.4146 26.6921 71.0917 25.5848 73.6762C25.4846 73.9562 25.3241 74.1162 25.1235 74.1462C25.013 74.1506 24.9033 74.125 24.8062 74.0722C24.7091 74.0194 24.6282 73.9413 24.572 73.8462C24.4719 73.7163 24.4126 73.5597 24.4016 73.3962C23.6395 71.0562 22.6868 67.9962 21.9447 64.8462L18.0339 66.1662L13.9526 67.5462C14.6679 71.3059 15.585 75.0246 16.7002 78.6862C16.8807 79.2562 17.0612 79.8562 17.2417 80.4662C18.064 83.2862 18.9965 86.4662 20.8316 88.6862C21.2601 89.2338 21.8055 89.6795 22.4282 89.9909C23.0509 90.3022 23.7352 90.4714 24.4316 90.4862C25.6508 90.4528 26.8511 90.1783 27.9631 89.6788C29.0751 89.1793 30.0766 88.4646 30.9096 87.5762C32.0302 86.4225 32.8572 85.0178 33.3213 83.4797C33.7854 81.9416 33.8731 80.315 33.5769 78.7362V78.5262C33.4065 77.9662 33.236 77.4262 33.0555 76.8862C32.2733 74.4462 31.5313 72.1562 31.8622 69.3862C32.2833 65.7462 33.8677 62.3362 35.5023 59.0362C35.5344 58.9635 35.5812 58.8981 35.6397 58.8441C35.6982 58.7902 35.7672 58.7488 35.8424 58.7225C35.9177 58.6963 35.9975 58.6857 36.077 58.6915C36.1565 58.6973 36.2339 58.7193 36.3045 58.7562C36.3785 58.7913 36.4446 58.8409 36.499 58.902C36.5534 58.9632 36.5949 59.0345 36.6211 59.1119C36.6473 59.1894 36.6576 59.2712 36.6514 59.3527C36.6453 59.4342 36.6228 59.5136 36.5853 59.5862C34.8104 63.1362 33.1858 66.6362 32.9953 70.3162C33.0204 72.4562 33.435 74.5739 34.2187 76.5662C34.6248 77.7587 34.9596 78.9742 35.2215 80.2062C35.753 82.9862 35.1313 85.6362 34.5196 88.2062C34.4093 88.6662 34.2989 89.1262 34.1987 89.5962C33.1457 94.3162 33.9079 97.4462 36.5251 99.1462C36.5211 99.113 36.5211 99.0794 36.5251 99.0462C36.5766 98.9523 36.6541 98.875 36.7483 98.8236C36.8425 98.7722 36.9495 98.7488 37.0566 98.7562C38.9318 98.7562 40.807 98.7062 42.6922 98.6862L48.0971 98.6262C48.0971 97.6262 48.2877 96.6962 48.4281 95.7562C48.5384 94.9962 48.6387 94.2862 48.6988 93.6062C48.7027 93.5248 48.7226 93.4449 48.7575 93.3711C48.7923 93.2973 48.8414 93.2312 48.902 93.1764C48.9625 93.1216 49.0333 93.0792 49.1103 93.0517C49.1873 93.0242 49.269 93.0122 49.3506 93.0162C49.3888 92.9781 49.4342 92.9479 49.4841 92.9273C49.534 92.9068 49.5875 92.8962 49.6415 92.8962C52.1693 92.6152 54.7276 92.812 57.1823 93.4762L60.4514 94.1462L60.7823 92.7862C61.013 91.7862 61.2436 90.8562 61.2837 90.6462L62.106 87.3662C62.4971 85.7962 62.838 84.2062 63.1088 82.6662C61.2773 81.7074 59.6779 80.3614 58.4222 78.7223C57.1665 77.0832 56.2848 75.1904 55.8386 73.1762C55.0665 69.9162 54.3244 64.0762 57.9846 61.5262C58.5602 61.0565 59.2492 60.7456 59.983 60.6245C60.7167 60.5035 61.4695 60.5764 62.1661 60.8362C62.9829 61.2167 63.6946 61.7897 64.2396 62.5058C64.7847 63.2218 65.1468 64.0594 65.2948 64.9462C66.4179 70.2762 65.6057 76.0162 64.7433 80.9962C64.7433 81.1962 64.6831 81.3862 64.643 81.5762C64.6029 81.7662 64.643 81.8162 64.5728 81.9462C65.592 82.3504 66.6752 82.5705 67.7717 82.5962L69.2357 75.1062C69.336 74.5962 69.4263 73.9962 69.5266 73.3462C70.0982 69.6262 70.9605 64.0162 75.4129 63.5862C76.2024 63.5089 76.9991 63.6119 77.7427 63.8874C78.4864 64.1629 79.1573 64.6036 79.7047 65.1762C80.4136 65.9232 80.9532 66.8134 81.2871 67.7864C81.621 68.7595 81.7414 69.7927 81.6401 70.8162C81.259 74.5562 78.722 78.6662 75.1822 81.2862C73.3148 82.6477 71.1164 83.4867 68.8146 83.7162C68.4536 85.5762 68.1026 87.4662 67.7617 89.3462C67.4207 91.2262 67.0396 93.2862 66.6586 95.2362C66.6642 95.2693 66.6642 95.3031 66.6586 95.3362L67.7817 95.5562C67.9001 95.5789 68.0067 95.6427 68.0826 95.7362C69.0908 95.6986 70.1001 95.7758 71.0909 95.9662L71.5521 96.0262C73.5859 96.2396 75.5983 96.6209 77.5688 97.1662C78.5774 96.3885 79.4455 95.445 80.1359 94.3762C80.1818 94.3038 80.2417 94.2411 80.3119 94.1918C80.3822 94.1426 80.4616 94.1076 80.5455 94.089C80.6294 94.0704 80.7161 94.0686 80.8007 94.0835C80.8853 94.0985 80.9661 94.13 81.0384 94.1762C81.1587 94.2597 81.2443 94.3842 81.2791 94.5262C81.2984 94.607 81.2994 94.6912 81.2821 94.7725C81.2647 94.8538 81.2295 94.9302 81.1788 94.9962C80.7002 95.7469 80.1421 96.4443 79.5142 97.0762C79.3437 97.2762 79.1732 97.4462 79.0128 97.6062C78.8524 97.7662 78.7822 97.8362 78.6919 97.9462C78.6736 98.0771 78.6218 98.201 78.5415 98.3062C78.4826 98.6254 78.5283 98.955 78.6719 99.2462C79.273 100.998 80.0738 102.676 81.0585 104.246C81.1466 104.269 81.2288 104.31 81.2997 104.367C81.3705 104.424 81.4285 104.495 81.4696 104.576C81.4988 104.64 81.5191 104.707 81.5298 104.776C82.5326 103.93 83.6458 103.224 84.8389 102.676L86.0122 102.186C87.2471 101.77 88.4005 101.144 89.4216 100.336C91.9186 98.2562 94.8667 95.7662 97.8249 93.0462L98.8277 92.1662C101.515 89.6962 104.574 86.9062 103.35 83.3662C102.774 81.9249 101.987 80.5768 101.014 79.3662C100.793 79.0662 100.573 78.7662 100.372 78.4662C99.8204 77.6462 99.2589 76.8562 98.6973 76.0562C98.1358 75.2562 97.5642 74.4462 97.0127 73.6262C96.9585 73.5562 96.9228 73.4737 96.9088 73.3864C96.8948 73.299 96.9029 73.2096 96.9324 73.1262C96.9802 73.0261 97.0517 72.9391 97.1408 72.8729C97.23 72.8067 97.334 72.7632 97.4439 72.7462C97.5555 72.7302 97.6694 72.743 97.7747 72.7832C97.88 72.8235 97.9732 72.8899 98.0455 72.9762C98.7073 73.9762 99.3692 74.9062 100.051 75.8562C100.733 76.8062 101.385 77.7662 102.057 78.7162L102.357 79.1562C103.404 80.5043 104.214 82.019 104.754 83.6362C105.627 87.0362 103.14 89.6362 101.134 91.6362C98.0822 94.6651 94.8793 97.5387 91.5375 100.246L90.8556 100.826C89.9101 101.722 88.8267 102.462 87.6467 103.016C87.1654 103.216 86.6439 103.376 86.2228 103.526C85.6133 103.712 85.0197 103.946 84.4478 104.226C83.56 104.778 82.7184 105.4 81.9309 106.086L81.8306 106.176C81.7669 106.233 81.692 106.275 81.6109 106.301C81.5297 106.327 81.444 106.335 81.3593 106.326C81.2691 106.316 81.182 106.287 81.1042 106.24C81.0263 106.194 80.9594 106.131 80.9081 106.056C80.8377 105.981 80.7771 105.897 80.7276 105.806L78.722 106.926L76.7165 108.036C78.117 111.187 79.1045 114.504 79.6546 117.906C79.9201 119.608 80.0808 121.325 80.1359 123.046C80.1359 123.416 80.1359 123.976 80.1359 124.466C80.1961 125.776 80.1961 125.776 79.9655 125.836H79.8953H79.7448C73.1967 125.836 40.1853 125.956 32.8349 125.836H32.7747L33.0655 126.066ZM78.6719 125.066L78.5415 125.186H55.8386H33.1357C33.1357 125.186 33.0355 125.186 33.0355 125.266C33.0355 125.346 33.1056 125.356 33.1357 125.356C40.446 125.476 73.2468 125.356 79.9454 125.356C79.9454 125.136 79.9454 124.806 79.9454 124.526C79.9454 124.016 79.9454 123.446 79.9454 123.086C79.8901 121.388 79.7294 119.695 79.4641 118.016C78.9079 114.565 77.8963 111.203 76.4557 108.016L76.566 107.696L78.7521 106.466L80.9381 105.236H81.249C81.3286 105.322 81.3992 105.416 81.4596 105.516C81.4896 105.588 81.534 105.652 81.59 105.706C81.59 105.776 81.6702 105.796 81.7002 105.796C81.726 105.806 81.7547 105.806 81.7805 105.796L81.8908 105.696C82.7036 104.984 83.5759 104.341 84.498 103.776C85.0948 103.481 85.7153 103.237 86.3531 103.046C86.8044 102.896 87.2757 102.736 87.737 102.536C88.8703 102.007 89.91 101.298 90.8155 100.436C91.0462 100.236 91.2768 100.036 91.5074 99.8562C94.5158 97.3662 97.9553 94.4462 101.064 91.2862C103.069 89.2162 105.346 86.8762 104.554 83.7562C104.021 82.1987 103.235 80.7392 102.227 79.4362L101.916 78.9962C101.274 78.0462 100.603 77.0862 99.9107 76.1362C99.2188 75.1862 98.567 74.2262 97.9052 73.2762C97.8697 73.2623 97.8303 73.2623 97.7948 73.2762C97.7733 73.2783 97.7525 73.2847 97.7335 73.295C97.7146 73.3053 97.6979 73.3193 97.6845 73.3362C98.2561 74.1762 98.8277 74.9762 99.3893 75.7862C99.9508 76.5962 100.512 77.3762 101.064 78.1962L101.696 79.0862C102.703 80.3405 103.515 81.7397 104.102 83.2362C105.436 87.0862 102.097 90.1262 99.4494 92.5762L98.4466 93.4462C95.4383 96.1862 92.5202 98.6762 90.0233 100.756C88.956 101.595 87.7564 102.25 86.4735 102.696C86.0924 102.846 85.7114 102.996 85.3103 103.176C84.0438 103.772 82.8661 104.539 81.8106 105.456H81.4696C81.4186 105.408 81.3777 105.35 81.3493 105.286L81.2992 104.936C81.3064 104.91 81.3064 104.882 81.2992 104.856C81.2886 104.836 81.2728 104.819 81.2534 104.806C81.2341 104.794 81.2118 104.787 81.1888 104.786L80.9783 104.666C79.956 103.036 79.1313 101.29 78.5215 99.4662C78.3288 99.0648 78.2759 98.6109 78.371 98.1762L78.4412 98.0462C78.4781 98.0008 78.4992 97.9446 78.5014 97.8862V97.7362C78.6309 97.5764 78.7716 97.426 78.9226 97.2862L79.4039 96.7762C80.0125 96.1666 80.5568 95.4965 81.0284 94.7762C81.0284 94.7762 81.0284 94.6862 81.0284 94.6662C81.0284 94.6462 80.9281 94.5962 80.8479 94.7162C80.1053 95.877 79.1574 96.8935 78.0502 97.7162H77.8295C75.8604 97.1628 73.8476 96.7781 71.8129 96.5662L71.3516 96.4962C70.3614 96.3023 69.3505 96.2351 68.3432 96.2962L68.1227 96.0962H68.0725L61.5645 94.7762L61.374 94.4362C61.4341 94.2462 61.4943 93.9962 61.5645 93.7462C61.7751 92.9862 61.9857 92.2862 62.1862 91.5862C62.3868 90.8862 62.5974 90.1862 62.8079 89.4762C63.4196 87.2362 63.901 84.9562 64.3723 82.7462L64.7132 82.5562C65.8598 83.0048 67.0815 83.2322 68.3132 83.2262L68.5639 83.5262C68.1928 85.4362 67.8318 87.3662 67.4708 89.2862C67.1098 91.2062 66.7589 93.1362 66.3778 95.0462C66.3778 95.0462 66.3778 95.0462 66.3778 95.1262C66.3983 95.1353 66.4206 95.14 66.443 95.14C66.4655 95.14 66.4877 95.1353 66.5082 95.1262C66.8892 93.1262 67.2502 91.1962 67.6112 89.2262C67.9722 87.2562 68.3232 85.3262 68.6942 83.3962L68.9349 83.1862C71.2102 82.9999 73.3896 82.1901 75.2323 80.8462C78.6518 78.3062 81.1086 74.3362 81.4797 70.7362C81.5695 69.7882 81.4569 68.8319 81.1492 67.9305C80.8416 67.029 80.3458 66.2027 79.6947 65.5062C79.2018 64.9856 78.5955 64.5849 77.9226 64.3352C77.2497 64.0856 76.5282 63.9935 75.8139 64.0662C75.4295 64.102 75.0517 64.1894 74.6908 64.3262C75.0157 64.2226 75.3529 64.1621 75.6936 64.1462C76.391 64.1155 77.0868 64.2364 77.7327 64.5006C78.3786 64.7648 78.9591 65.1659 79.434 65.6762C82.4423 68.8162 80.6774 73.6762 78.0201 77.2562C76.9656 78.8009 75.5909 80.102 73.989 81.0715C72.3871 82.041 70.5952 82.6564 68.7343 82.8762L68.6441 82.7762V82.8762L68.3934 83.0862C67.0915 83.0799 65.8035 82.8182 64.6029 82.3162L64.4524 82.0362C64.4524 81.8262 64.5127 81.6462 64.5528 81.4562C64.5929 81.2662 64.6229 81.0862 64.653 80.8762C65.4953 75.9462 66.3076 70.2562 65.2045 65.0262C65.0773 64.2219 64.755 63.4608 64.2657 62.8091C63.7763 62.1573 63.1348 61.6345 62.3968 61.2862C61.9529 61.1155 61.4793 61.0355 61.0038 61.051C60.5284 61.0664 60.0608 61.177 59.6291 61.3762C59.887 61.2873 60.1521 61.2203 60.4213 61.1762C62.0157 60.8962 64.1015 61.4162 64.8837 65.4662C65.7661 70.7762 64.9839 76.3962 64.2018 80.6962L63.9912 81.6962L63.6302 81.8762C61.631 80.8811 59.9397 79.3639 58.7367 77.4862C56.671 74.1121 55.8153 70.1385 56.3099 66.2162C56.3654 65.7378 56.4662 65.2657 56.6108 64.8062C55.7183 67.4562 56.2297 70.8062 56.7411 73.0062C57.1765 74.9794 58.0466 76.8314 59.2884 78.4278C60.5303 80.0242 62.1127 81.3251 63.921 82.2362L64.0614 82.5162C63.7205 84.1562 63.3695 85.8062 62.9684 87.4362L62.1461 90.7062C62.1461 90.9062 61.8753 91.8762 61.6346 92.8562L61.2536 94.4462L60.9528 94.6462L57.443 93.9262C55.0336 93.2771 52.5241 93.0805 50.0425 93.3462L49.9724 93.4162L49.7117 93.4762C49.6959 93.469 49.6788 93.4653 49.6615 93.4653C49.6442 93.4653 49.6271 93.469 49.6114 93.4762C49.6043 93.4884 49.6006 93.5022 49.6006 93.5162C49.6006 93.5303 49.6043 93.544 49.6114 93.5562C49.5512 94.2762 49.4409 94.9962 49.3306 95.7562C49.1902 96.7562 49.0297 97.8062 48.9896 98.8162L48.7389 99.0562C46.8637 99.0562 44.9785 99.0562 43.1033 99.1262C41.2281 99.1962 39.3429 99.1262 37.4577 99.1962C37.4314 99.189 37.4037 99.189 37.3774 99.1962C37.3683 99.2167 37.3636 99.2388 37.3636 99.2612C37.3636 99.2836 37.3683 99.3057 37.3774 99.3262V99.4962L37.5981 99.2762L43.0733 99.2062C44.8783 99.2062 46.7033 99.2062 48.5384 99.1362L48.6587 99.2562C48.7452 99.2449 48.8329 99.2449 48.9194 99.2562H49.0799C49.1037 98.8936 49.1506 98.5329 49.2203 98.1762L49.6214 93.6962L49.8821 93.4662H50.0827C52.6097 93.0162 55.2369 93.5862 57.774 94.1362C58.3255 94.2662 58.887 94.3862 59.4386 94.4962C59.6894 94.5718 59.9489 94.6155 60.2107 94.6262L60.4614 94.8762C60.4635 94.8473 60.4582 94.8183 60.4459 94.7921C60.4336 94.7658 60.4148 94.7432 60.3912 94.7262C60.5903 94.8005 60.8004 94.8411 61.0129 94.8462H61.1333L64.1416 95.4562L67.1499 96.0662L67.0898 96.5762C67.1292 96.5864 67.1706 96.5864 67.2101 96.5762C67.1693 96.6196 67.1173 96.6507 67.0597 96.6662C66.5784 97.0162 66.3577 97.3262 66.4079 97.6162C66.5082 98.1062 67.4107 98.8962 71.2513 99.7962V100.286C69.2458 100.896 67.2402 101.516 65.3149 102.186C64.2334 102.512 63.1936 102.961 62.2163 103.526C61.3539 103.896 60.9428 104.326 60.9728 104.856C61.0282 105.149 61.1465 105.427 61.3196 105.671C61.4926 105.914 61.7164 106.117 61.9756 106.266L62.0959 106.716C61.5745 107.116 61.2837 107.556 61.3338 107.886C61.384 108.216 61.7851 108.466 62.106 108.596H62.2263C62.3304 108.644 62.4428 108.671 62.5572 108.676L62.7377 109.106C62.5837 109.258 62.4909 109.461 62.477 109.676C62.4471 109.818 62.4486 109.966 62.4815 110.107C62.5144 110.249 62.5779 110.382 62.6675 110.496C62.8603 110.728 63.1314 110.881 63.4297 110.926C64.3484 110.939 65.2521 110.693 66.0369 110.216C66.3176 110.076 66.5884 109.946 66.8391 109.846C68.7938 108.996 70.6782 107.992 72.4747 106.846C72.5248 106.846 72.5549 106.776 72.4747 106.716C72.3944 106.656 72.4145 106.636 72.3644 106.666C71.0909 107.466 69.7672 108.306 68.3533 108.996C67.7016 109.329 67.0321 109.626 66.3477 109.886C66.0669 109.986 65.7962 110.106 65.5254 110.226L64.7031 110.576C64.4458 110.736 64.1488 110.82 63.8458 110.82C63.5428 110.82 63.2458 110.736 62.9884 110.576C62.7979 110.376 62.6375 109.986 62.9884 109.256L63.2191 109.116C65.3971 108.107 67.5194 106.982 69.5767 105.746C69.5767 105.746 69.6569 105.676 69.5767 105.616C69.4965 105.556 69.5766 105.536 69.4663 105.616C68.3586 106.302 67.21 106.92 66.0268 107.466C65.375 107.781 64.7053 108.058 64.0213 108.296C63.6826 108.448 63.3084 108.503 62.9401 108.456C62.5718 108.408 62.224 108.259 61.9355 108.026C61.7751 107.836 61.5845 107.416 62.0959 106.806C63.1458 106.301 64.2359 105.882 65.355 105.556L66.3578 105.226C66.3578 105.226 66.4179 105.136 66.3578 105.086C66.2976 105.036 66.2876 105.016 66.2675 105.026C65.5546 105.332 64.8119 105.563 64.0514 105.716L63.6402 105.816C62.828 106.036 61.8152 106.316 61.374 105.366C60.9328 104.416 61.8954 103.866 62.6174 103.516L62.8581 103.396C63.4602 103.082 64.0916 102.828 64.7433 102.636C66.3377 102.056 67.9722 101.556 69.5466 101.056C70.5494 100.746 71.5521 100.426 72.5549 100.056C72.4791 99.9906 72.3987 99.9304 72.3143 99.8762L70.4391 99.3662L68.5538 98.8562H68.3834C68.1073 98.8327 67.8406 98.7444 67.6053 98.5984C67.37 98.4524 67.1727 98.2529 67.0296 98.0162C66.9497 97.8688 66.9147 97.7012 66.9289 97.5342C66.9432 97.3672 67.0061 97.2081 67.1098 97.0762C67.4328 96.7941 67.8359 96.6193 68.2631 96.5762H68.3633C68.8191 96.5433 69.2771 96.5668 69.7271 96.6462L70.2886 96.7162C72.6838 96.915 75.0565 97.3266 77.3783 97.9462L77.5488 98.1162C78.2716 100.461 79.282 102.708 80.5571 104.806L80.4769 105.156C79.4039 105.816 78.3009 106.436 77.2279 107.036L76.0847 107.686H75.9644C75.9408 107.684 75.917 107.689 75.8958 107.7C75.8746 107.71 75.8567 107.726 75.8441 107.746L75.7638 107.846C75.6558 107.919 75.5417 107.983 75.4228 108.036L75.1421 108.186C74.2496 108.676 73.3371 109.186 72.4446 109.566L72.3143 109.636C71.4184 110.125 70.4825 110.536 69.5165 110.866C70.0943 110.729 70.6608 110.549 71.2112 110.326C72.6653 109.606 74.2195 108.846 75.6334 108.026L75.9944 108.146C77.0957 110.732 77.9681 113.409 78.6017 116.146C78.8724 117.566 79.1532 119.026 79.2936 120.476C79.3742 121.117 79.421 121.761 79.434 122.406C79.434 122.546 79.434 122.726 79.434 122.926C79.3688 123.5 79.3959 124.081 79.5142 124.646L79.0329 124.836C79.0575 124.881 79.0963 124.916 79.1432 124.936C78.9338 124.94 78.7268 124.981 78.5315 125.056L78.6719 125.066ZM34.3992 82.7762L34.9006 82.8462C34.7581 84.5311 34.4866 86.2026 34.0884 87.8462C33.0856 92.6862 32.0828 97.2562 36.8259 99.8462H36.8861C37.0064 99.9762 37.0265 99.9962 35.5023 109.446C34.7803 113.926 33.7474 120.206 32.9753 124.666C34.3992 116.366 35.8132 108.076 37.2371 99.8562C37.2385 99.7946 37.2596 99.735 37.2973 99.6862L36.9563 99.8862C33.7775 98.1262 32.7948 94.7362 33.948 89.5162C34.0482 89.0562 34.1586 88.5862 34.2689 88.1262C34.8906 85.4962 35.4822 83.0162 34.9708 80.3562C34.7064 79.1445 34.3716 77.9491 33.968 76.7762C33.1658 74.7255 32.7412 72.5473 32.7146 70.3462C32.9151 66.5562 34.5497 63.0062 36.3647 59.4062C36.3712 59.3932 36.3747 59.379 36.3751 59.3645C36.3755 59.3501 36.3727 59.3356 36.367 59.3223C36.3613 59.309 36.3527 59.2971 36.3419 59.2874C36.3311 59.2777 36.3184 59.2705 36.3045 59.2662C36.2444 59.2662 36.2142 59.2662 36.2042 59.2662C34.6299 62.5362 33.0154 65.9062 32.6043 69.4662C32.2834 72.1262 33.0054 74.3662 33.7775 76.7462C33.958 77.3062 34.1385 77.8662 34.309 78.4362V78.7062C34.6138 80.358 34.5181 82.0586 34.0296 83.666C33.5412 85.2734 32.6742 86.741 31.5012 87.9462C31.6917 87.7462 31.8822 87.5562 32.0527 87.3562C33.173 86.0267 33.9755 84.4606 34.3992 82.7762ZM37.7485 100.066C36.3313 108.28 34.9207 116.503 33.5168 124.736H55.8386H78.4613C78.5707 124.677 78.6893 124.636 78.8122 124.616L79.1131 124.556C79.063 124.047 79.063 123.535 79.1131 123.026C79.1131 122.836 79.1131 122.666 79.1131 122.536C79.0998 121.907 79.0529 121.28 78.9727 120.656C78.8424 119.226 78.5616 117.786 78.2908 116.376C77.6873 113.761 76.862 111.202 75.824 108.726C74.4401 109.496 73.0062 110.216 71.6123 110.906C71.2914 111.036 68.5438 112.136 67.4508 111.376C67.3133 111.284 67.201 111.158 67.124 111.012C67.047 110.865 67.0077 110.702 67.0096 110.536C66.7789 110.626 66.5483 110.736 66.3076 110.856C65.4297 111.386 64.4149 111.647 63.3895 111.606C62.9689 111.541 62.5871 111.324 62.3166 110.996C62.1831 110.833 62.0869 110.643 62.0349 110.439C61.983 110.236 61.9764 110.023 62.0157 109.816C62.0196 109.626 62.0713 109.441 62.1661 109.276H62.0959H61.9857C61.3038 108.996 60.9829 108.626 60.8726 108.156C60.8706 107.889 60.9301 107.624 61.0466 107.383C61.1631 107.142 61.3334 106.931 61.5444 106.766C61.0461 106.41 60.6907 105.889 60.5417 105.296C60.4213 104.706 60.5416 103.876 62.0358 103.296C63.0312 102.718 64.0914 102.258 65.1946 101.926C66.8792 101.346 68.594 100.806 70.2686 100.286C67.4508 99.5562 66.1071 98.8162 65.9366 97.9262C65.9109 97.6937 65.9485 97.4585 66.0455 97.2456C66.1426 97.0326 66.2955 96.8497 66.4881 96.7162L64.0814 96.2262L61.0731 95.6162C60.7791 95.6287 60.4856 95.5811 60.2107 95.4762L60.0603 95.4062C59.802 95.3813 59.5467 95.3311 59.2982 95.2562C58.7567 95.1562 58.2052 95.0362 57.6436 94.9062C55.1567 94.3662 52.5796 93.8062 50.1127 94.2462L49.7217 98.5162C49.646 98.9356 49.6024 99.3602 49.5913 99.7862L49.3306 100.036H48.9194H48.7791C48.6892 100.047 48.5982 100.047 48.5083 100.036L48.378 99.9062L43.0432 99.9662L37.8087 100.036C37.7895 100.048 37.7693 100.058 37.7485 100.066ZM67.6614 110.246C67.6247 110.246 67.5892 110.259 67.5615 110.283C67.5338 110.307 67.5159 110.34 67.511 110.376C67.4971 110.476 67.5114 110.577 67.5521 110.669C67.5928 110.761 67.6585 110.839 67.7416 110.896C67.9074 111 68.0975 111.058 68.2931 111.066C68.222 111.047 68.1544 111.016 68.0925 110.976C67.9818 110.914 67.891 110.822 67.8306 110.71C67.7703 110.599 67.7429 110.473 67.7516 110.346C67.7516 110.296 67.7516 110.246 67.6714 110.246H67.6614ZM68.1427 109.956C68.2287 110.068 68.2746 110.205 68.2731 110.346C68.2731 110.496 68.3232 110.526 68.3533 110.546C68.5538 110.656 69.3561 110.766 72.2641 109.236L72.4145 109.156C73.297 108.746 74.1995 108.266 75.0719 107.806C75.1728 107.736 75.2803 107.676 75.3928 107.626L75.6234 107.506C75.6715 107.428 75.7374 107.361 75.8158 107.313C75.8941 107.264 75.9828 107.235 76.0747 107.226L77.1677 106.616C78.1705 106.056 79.1733 105.476 80.1761 104.876C78.9748 102.845 78.0156 100.68 77.3181 98.4262C75.0669 97.8336 72.7688 97.4355 70.4491 97.2362L69.8775 97.1662C69.4742 97.0922 69.0628 97.072 68.6541 97.1062H68.5739C68.2632 97.1281 67.9647 97.2354 67.7115 97.4162C67.6751 97.4748 67.6558 97.5423 67.6558 97.6112C67.6558 97.6801 67.6751 97.7476 67.7115 97.8062C67.892 98.1662 68.2129 98.2562 68.7143 98.3762L68.9048 98.4262L70.79 98.9362L72.6752 99.4462C72.8959 99.5162 73.3471 99.8362 73.3872 100.116C73.4024 100.211 73.3808 100.309 73.3268 100.388C73.2729 100.468 73.1905 100.525 73.0965 100.546C72.0335 100.906 70.9605 101.236 69.8976 101.546C68.3232 102.036 66.6987 102.546 65.1043 103.116C64.478 103.303 63.8703 103.547 63.2893 103.846L63.0285 103.976C62.1561 104.396 61.7951 104.636 62.0257 105.156C62.2564 105.676 62.8079 105.566 63.6904 105.326L64.1216 105.216C64.8597 105.061 65.5815 104.836 66.2775 104.546C66.3541 104.509 66.4381 104.49 66.5232 104.49C66.6083 104.49 66.6924 104.509 66.7689 104.546C66.8863 104.626 66.9744 104.742 67.0196 104.876C67.0701 105.019 67.0701 105.174 67.0196 105.316C66.9883 105.396 66.9397 105.468 66.8773 105.527C66.8149 105.585 66.7402 105.63 66.6586 105.656L65.7059 105.986C64.7031 106.336 62.828 106.986 62.6274 107.116C62.4269 107.246 62.4068 107.526 62.5171 107.656C62.7308 107.803 62.9794 107.891 63.2381 107.912C63.4967 107.933 63.7564 107.886 63.9912 107.776C64.6748 107.541 65.3444 107.267 65.9968 106.956C67.1633 106.416 68.2953 105.805 69.3862 105.126C69.5235 105.05 69.6854 105.03 69.8372 105.071C69.9891 105.112 70.1187 105.211 70.1984 105.346C70.2422 105.413 70.272 105.487 70.2861 105.566C70.3002 105.644 70.2983 105.724 70.2805 105.802C70.2627 105.879 70.2294 105.952 70.1826 106.017C70.1357 106.081 70.0763 106.135 70.0079 106.176C67.926 107.432 65.7732 108.568 63.56 109.576C63.4196 109.886 63.3895 110.116 63.4898 110.216C63.5901 110.316 64.1817 110.316 64.623 110.096C65.0642 109.876 65.1845 109.866 65.4552 109.746L66.2876 109.396C66.9756 109.153 67.6458 108.862 68.2931 108.526C69.6483 107.823 70.967 107.052 72.2441 106.216C72.3833 106.14 72.5469 106.121 72.7001 106.163C72.8533 106.205 72.9842 106.304 73.0649 106.441C73.1457 106.577 73.1701 106.74 73.1329 106.894C73.0958 107.048 72.9999 107.181 72.8658 107.266C71.3499 108.246 69.7723 109.128 68.1427 109.906V109.956ZM37.7685 99.9562V100.016C37.7685 100.016 37.7685 99.9562 37.7685 99.9362V99.9562ZM61.9054 94.3762L65.8363 95.1562C65.8313 95.1063 65.8313 95.0561 65.8363 95.0062C66.2073 93.0962 66.5683 91.1662 66.9293 89.2462C67.2903 87.3262 67.6112 85.5962 67.9321 83.7862C66.8446 83.7584 65.7684 83.5593 64.7433 83.1962C64.292 85.3162 63.8207 87.5062 63.2291 89.6662C63.0185 90.3862 62.818 91.0862 62.6074 91.7762C62.3968 92.4662 62.1963 93.1762 61.9957 93.8962C61.9957 94.0662 61.9455 94.2062 61.9054 94.3562V94.3762ZM14.9554 66.2462L14.805 66.5362C14.5743 66.5962 14.3437 66.6862 14.1131 66.7662C13.8824 66.8462 13.6217 66.9362 13.371 67.0062C13.3108 67.0062 13.2807 67.0062 13.2807 67.1762C14.2967 72.3956 15.6875 77.5355 17.4423 82.5562L17.693 83.2962C18.6958 86.2062 19.869 89.8262 23.0277 90.8562C23.977 91.1113 24.9678 91.1755 25.9422 91.045C26.9166 90.9145 27.8553 90.592 28.7035 90.0962C27.4711 90.7583 26.0921 91.102 24.6923 91.0962C23.9168 91.0807 23.1544 90.8932 22.4606 90.5472C21.7668 90.2013 21.159 89.7056 20.6812 89.0962C18.786 86.8062 17.8434 83.5662 17.0011 80.7062C16.8206 80.0962 16.6501 79.4962 16.4696 78.9262C15.3239 75.1765 14.3833 71.3676 13.6518 67.5162L13.8222 67.2262L18.1141 65.7762L22.3057 64.3662L22.6367 64.5462C23.3787 67.8062 24.3714 70.9762 25.1636 73.3862V73.4862C25.193 73.5722 25.2409 73.6507 25.304 73.7162L25.3642 73.5762C26.4597 71.0108 27.3255 68.3538 27.9514 65.6362C28.162 64.7062 28.3224 63.7462 28.4728 62.8162C28.7039 61.2754 29.0389 59.752 29.4756 58.2562C30.4784 55.0262 32.7346 53.7062 36.2744 52.5062C39.4332 51.5062 42.4515 50.6062 45.2994 49.9062L45.6103 50.0962C45.6585 50.1157 45.7125 50.1157 45.7607 50.0962C45.9832 49.0453 46.4581 48.0639 47.1446 47.2362H47.5256C47.5858 47.3062 47.5858 47.3062 47.6158 47.3062C47.6883 47.3037 47.7595 47.2865 47.825 47.2555C47.8906 47.2245 47.9491 47.1805 47.9969 47.1262L47.7663 46.8762C47.7523 46.6359 47.712 46.3978 47.6459 46.1662C47.6459 46.0562 47.5858 45.9362 47.5657 45.8362C47.5457 45.7362 47.4554 45.3862 47.4052 45.1662C47.3551 44.9462 47.2949 44.7262 47.2348 44.4962L47.5356 44.1762C52.0782 45.1762 57.6336 41.0662 59.5689 36.7562C59.5689 36.7562 59.5689 36.6762 59.5689 36.6462C59.5565 36.6283 59.54 36.6136 59.5209 36.6032C59.5017 36.5928 59.4804 36.587 59.4586 36.5862C57.8341 40.2362 53.8932 44.1562 49.11 44.1562C45.1891 44.1562 42.5518 40.9762 41.4688 34.9562C40.6594 30.4134 40.8476 25.7495 42.0203 21.2862C42.0203 21.1162 42.1106 20.9462 42.1607 20.7862C42.2147 20.6428 42.2583 20.4958 42.2911 20.3462L42.3814 20.2662C42.3814 20.2062 42.622 19.8062 42.8326 19.3762C43.6463 17.5826 44.5915 15.8513 45.6604 14.1962L46.1217 14.3462C46.232 16.5062 48.6988 20.1062 50.193 21.2262C50.544 21.4862 50.7646 21.5562 50.8749 21.5362C50.9852 21.5162 50.8748 21.5362 50.925 21.4562C50.9311 21.4456 50.9344 21.4335 50.9344 21.4212C50.9344 21.4089 50.9311 21.3969 50.925 21.3862C50.7846 21.1362 50.6543 20.8862 50.5239 20.6362C50.418 20.6503 50.3103 20.6434 50.2071 20.616C50.1038 20.5885 50.007 20.541 49.9222 20.4762C48.7389 19.7062 46.8437 16.0162 46.6632 15.1162C46.6314 14.9508 46.6079 14.7839 46.593 14.6162C46.5128 13.8662 46.4226 13.5462 46.0215 13.5462C45.6203 13.5462 45.0186 14.1262 43.7953 16.8562L43.7251 17.0162C43.0689 18.2301 42.5025 19.4901 42.0304 20.7862C41.7596 21.8762 41.4889 22.9662 41.2883 24.1062C40.9465 26.2518 40.8088 28.4248 40.8772 30.5962C40.9975 33.5962 41.4087 38.0862 43.705 41.2962C44.5392 42.5387 45.7684 43.465 47.1947 43.9262L47.305 44.3462C47.2348 44.4062 47.2348 44.4162 47.2348 44.4362C47.2348 44.4562 47.3551 44.9562 47.4454 45.2762C47.5696 45.6712 47.6602 46.076 47.7161 46.4862C47.7161 46.5711 47.6823 46.6525 47.6221 46.7125C47.562 46.7725 47.4804 46.8062 47.3953 46.8062C47.3324 46.7933 47.2676 46.7933 47.2047 46.8062C46.5809 47.5139 46.122 48.3506 45.861 49.2562L45.6704 49.4362C43.5446 49.9362 41.4989 50.4362 39.6036 51.0662L39.2828 50.8862C37.7714 44.9415 37.2831 38.784 37.8387 32.6762C38.4805 25.5162 40.105 19.4262 42.6521 14.5862C45.3997 9.30621 51.1256 6.9062 57.2325 8.4662C63.921 10.1862 67.6213 16.0762 69.2658 19.4662C71.8029 24.8562 72.565 31.2162 73.2769 37.3762C73.4374 38.7062 73.5978 40.0062 73.7683 41.2762C73.7797 41.314 73.804 41.3466 73.8369 41.3685C73.8698 41.3904 73.9094 41.4002 73.9488 41.3962C73.9989 41.3962 74.0089 41.3962 74.0089 41.3162C73.8686 40.3162 73.7282 39.1362 73.5778 37.9662C72.575 30.1662 71.3716 20.4662 66.4079 14.3562L66.7489 13.9762C66.7757 13.9881 66.8047 13.9942 66.834 13.9942C66.8634 13.9942 66.8925 13.9881 66.9193 13.9762C66.842 13.1879 66.8826 12.3926 67.0396 11.6162L67.2302 11.4162C68.0095 11.1478 68.6906 10.6529 69.1856 9.99532C69.6806 9.33772 69.967 8.54746 70.0079 7.7262C70.0321 6.97552 69.9033 6.22773 69.6292 5.52815C69.3551 4.82856 68.9415 4.19171 68.4134 3.6562C66.7488 1.8762 63.7004 0.586202 61.1634 1.5362C62.914 1.1932 64.7299 1.51618 66.2536 2.44158C67.7773 3.36698 68.8985 4.82773 69.3962 6.5362C69.6005 7.4482 69.4688 8.40309 69.0252 9.2262C68.7794 9.74115 68.4393 10.2058 68.0224 10.5962C67.7633 10.8408 67.4774 11.0555 67.17 11.2362H66.8591C66.799 11.1762 66.789 11.1762 66.7689 11.1762L66.5382 11.0362C66.526 10.9988 66.5051 10.9649 66.4772 10.9371C66.4493 10.9093 66.4153 10.8884 66.3778 10.8762L66.3076 10.8262C64.4142 8.818 61.9749 7.40367 59.2882 6.7562C59.3691 6.89557 59.4596 7.02922 59.559 7.1562L59.4586 7.5362L58.2954 8.08621C58.2866 8.09461 58.2796 8.1047 58.2748 8.11587C58.27 8.12704 58.2676 8.13906 58.2676 8.15121C58.2676 8.16335 58.27 8.17536 58.2748 8.18653C58.2796 8.1977 58.2866 8.20779 58.2954 8.2162L58.0347 8.6462C53.2314 7.1762 48.1273 8.13619 44.9986 11.1062C42.9228 13.1062 41.7596 15.8962 40.7569 18.5762C39.5261 21.8911 38.6358 25.322 38.0995 28.8162C36.951 36.2492 37.2919 43.8354 39.1023 51.1362L38.9318 51.4362L37.6983 51.8362C36.8961 52.0862 36.0638 52.3462 35.2516 52.6662C32.5842 53.6062 30.9898 54.8462 30.0572 56.6662C29.32 58.3731 28.8402 60.1793 28.6333 62.0262C28.5129 62.7562 28.3825 63.5062 28.2321 64.2362C27.6076 67.0554 26.7798 69.8259 25.7553 72.5262H25.274C24.7325 70.8962 24.3714 69.5262 23.9804 68.0462C23.6996 66.9462 23.3987 65.8062 22.9776 64.5462C22.959 64.4672 22.9245 64.3928 22.8762 64.3275C22.828 64.2622 22.767 64.2073 22.6968 64.1662C22.613 64.1338 22.52 64.1338 22.4361 64.1662L21.8344 64.3762L21.2528 64.5862L20.9219 64.4262C20.8114 64.1032 20.6842 63.7861 20.5408 63.4762C20.2959 62.9569 20.1044 62.4141 19.9692 61.8562C19.868 61.7277 19.7951 61.5793 19.7553 61.4208C19.7156 61.2622 19.7099 61.0971 19.7386 60.9362C19.8275 60.5994 20.0382 60.3073 20.3302 60.1162C20.4124 60.0281 20.4995 59.9446 20.591 59.8662C20.7973 59.6821 20.9916 59.4851 21.1726 59.2762L21.4434 59.0262C22.198 58.4234 22.8396 57.6921 23.3386 56.8662C23.6945 56.1085 23.8033 55.2587 23.6495 54.4362C23.6495 54.3262 23.6494 54.1762 23.5893 54.0162C23.4789 53.2562 23.2684 51.8462 22.6868 51.7062C22.5871 51.6685 22.48 51.6543 22.3739 51.6647C22.2678 51.6751 22.1655 51.7099 22.0751 51.7662C21.9495 51.8831 21.8511 52.0261 21.787 52.1851C21.7229 52.344 21.6946 52.5151 21.7041 52.6862C21.9448 52.3762 22.1854 52.2662 22.4361 52.3362C23.118 52.5262 23.2684 54.1562 23.2684 54.1662C23.6595 56.7362 22.4562 57.6862 21.1927 58.6862C20.5362 59.1603 19.9548 59.73 19.4679 60.3762C18.9264 61.1362 19.4678 62.3762 19.9592 63.3762C20.1196 63.7462 20.2801 64.0962 20.3905 64.3762L20.2199 64.6962L15.2963 66.3362L14.9554 66.2462ZM71.4117 70.4262C70.6095 74.4762 69.8174 78.4262 69.0151 82.4262C70.7388 82.1631 72.3896 81.5488 73.8648 80.6214C75.3399 79.6941 76.6076 78.4737 77.5889 77.0362C78.4613 75.8762 82.6028 69.8762 79.0429 66.1262C78.6188 65.67 78.1008 65.3104 77.5245 65.0723C76.9482 64.8341 76.3271 64.7229 75.7037 64.7462C75.1713 64.7791 74.6529 64.9299 74.1863 65.1877C73.7197 65.4454 73.3166 65.8036 73.0062 66.2362C72.1897 67.473 71.6526 68.8719 71.4318 70.3362L71.4117 70.4262ZM61.0731 61.7162C60.8683 61.7187 60.6639 61.7355 60.4614 61.7662C57.5233 62.2562 56.9016 65.4262 56.7812 66.3862C56.2961 70.1927 57.1235 74.0507 59.1277 77.3262C60.2152 79.0292 61.7245 80.4241 63.5099 81.3762L63.6502 80.6862C64.4224 76.4362 65.1945 70.8762 64.3321 65.6862C63.8307 63.0662 62.7377 61.6962 61.0731 61.6962V61.7162ZM6.60226 49.3362C6.67056 49.8913 6.80866 50.4356 7.01337 50.9562C7.59551 51.9291 8.37822 52.7676 9.30971 53.4162C9.96223 53.912 10.5636 54.4714 11.1047 55.0862C11.9312 56.1846 12.5559 57.4204 12.9498 58.7362C13.04 58.9462 13.1203 59.1662 13.2005 59.3862L13.4312 60.0562C14.103 61.9862 14.7347 63.8062 15.2762 65.8162L19.6684 64.3562C19.5782 64.1262 19.4679 63.8762 19.3475 63.6162C18.8361 62.4762 18.2044 61.0662 18.9063 60.0762C19.4239 59.3911 20.0387 58.7847 20.7314 58.2762C21.9848 57.2762 22.9676 56.5162 22.6266 54.1962C22.6266 53.7262 22.3258 52.8462 22.1553 52.8162C22.1553 52.8162 22.065 52.8162 21.9046 53.0662V53.1362C22.0576 53.441 22.0921 53.7916 22.0014 54.1202C21.9106 54.4489 21.7011 54.7324 21.4132 54.9162C21.0577 55.1292 20.6855 55.3132 20.3002 55.4662C19.5953 55.7124 18.9524 56.108 18.4157 56.626C17.879 57.1439 17.4614 57.7717 17.1916 58.4662C17.1507 58.5597 17.0854 58.6406 17.0025 58.7004C16.9196 58.7603 16.8221 58.7968 16.7203 58.8062C16.6078 58.8121 16.4959 58.7884 16.3956 58.7375C16.2952 58.6866 16.2101 58.6103 16.1487 58.5162C16.095 58.4235 16.0667 58.3183 16.0667 58.2112C16.0667 58.1041 16.095 57.9989 16.1487 57.9062C16.654 56.7544 17.4611 55.7595 18.4851 55.0262C18.5456 54.9584 18.6167 54.901 18.6958 54.8562C18.3147 54.1362 17.4322 52.2862 17.8735 51.1662C17.948 50.9697 18.0675 50.7932 18.2224 50.6509C18.3773 50.5085 18.5634 50.4042 18.7659 50.3462C18.9353 50.3046 19.1113 50.2973 19.2836 50.3248C19.4558 50.3523 19.6208 50.414 19.7687 50.5062C19.869 50.5662 20.0495 50.6462 20.0896 50.6262H20.1899C20.2321 50.6132 20.2696 50.5883 20.298 50.5547C20.3265 50.521 20.3446 50.4799 20.3503 50.4362C20.4105 50.1962 20.1197 49.8862 19.5882 49.6162H19.528C19.1169 49.2062 18.3046 49.4962 17.9035 49.8862C17.4176 50.3371 17.0699 50.9162 16.9007 51.5562C16.8205 51.8862 16.289 52.0262 15.9581 52.0362C15.6272 52.0462 15.2662 51.9062 15.176 51.6262C15.0356 51.1362 14.8751 50.6262 14.7047 50.1362C14.4254 49.3679 14.1943 48.5831 14.0127 47.7862C13.8723 47.2162 13.7721 46.6862 13.6819 46.2162C13.4813 45.2162 13.3008 44.2862 13.03 44.2162C13.0015 44.2041 12.9708 44.1979 12.9398 44.1979C12.9087 44.1979 12.8781 44.2041 12.8495 44.2162C12.9398 44.5862 13.04 44.9562 13.1303 45.3262C13.5483 46.7659 13.8831 48.2283 14.1331 49.7062C14.2233 50.2262 14.4239 51.4762 13.2908 51.9562C13.1584 52.0042 13.0145 52.0107 12.8784 51.975C12.7422 51.9392 12.6202 51.8629 12.5286 51.7562C11.8777 50.7718 11.2915 49.7463 10.7738 48.6862C10.613 48.3605 10.469 48.0267 10.3426 47.6862C10.2196 47.3219 10.0687 46.9675 9.89134 46.6262L9.57044 46.0962V46.2562L9.64064 46.4962C9.72983 46.8373 9.8438 47.1715 9.98161 47.4962L10.0418 47.6362L10.5632 49.1762C10.7337 49.6662 10.9041 50.1762 11.0746 50.6562V50.8462C11.185 51.0985 11.2421 51.3709 11.2421 51.6462C11.2421 51.9215 11.185 52.1939 11.0746 52.4462C10.9689 52.5804 10.8352 52.6901 10.6829 52.7678C10.5306 52.8455 10.3631 52.8893 10.1922 52.8962C9.70339 52.8831 9.2231 52.7657 8.78372 52.5518C8.34433 52.3379 7.9561 52.0325 7.64512 51.6562C7.36667 51.3583 7.16377 50.9983 7.05346 50.6062C7.00072 50.431 6.93369 50.2604 6.85295 50.0962L6.76267 49.8962C6.73215 49.6973 6.67833 49.5026 6.60226 49.3162V49.3362ZM19.0768 50.8262H18.9264C18.7974 50.86 18.6783 50.9239 18.579 51.0126C18.4796 51.1012 18.4028 51.2121 18.3548 51.3362C18.0038 52.2262 18.7659 53.9462 19.2673 54.8162L19.157 55.1762C19.0333 55.2328 18.9185 55.3069 18.8161 55.3962C17.8498 56.0895 17.0879 57.0289 16.61 58.1162C16.6003 58.1329 16.5951 58.1519 16.5951 58.1712C16.5951 58.1905 16.6003 58.2095 16.61 58.2262C16.6377 58.2595 16.6772 58.2809 16.7203 58.2862C16.7241 58.2698 16.7241 58.2527 16.7203 58.2362C17.0139 57.4837 17.4656 56.8026 18.045 56.2386C18.6244 55.6746 19.3181 55.2408 20.0795 54.9662C20.4266 54.8225 20.7619 54.652 21.0823 54.4562C21.2647 54.3493 21.3995 54.177 21.4591 53.9745C21.5187 53.772 21.4987 53.5545 21.4032 53.3662C21.2518 53.9159 20.8923 54.3856 20.4004 54.6762C20.3076 54.7282 20.2103 54.7717 20.1096 54.8062C20.0327 54.8315 19.9588 54.865 19.8891 54.9062L19.5581 54.8062C19.5581 54.8062 18.2144 52.4062 18.7659 51.5362C18.8477 51.4144 18.9635 51.3192 19.0989 51.2624C19.2344 51.2055 19.3835 51.1894 19.528 51.2162C19.7009 51.2442 19.8596 51.3287 19.9793 51.4562C20.0159 51.501 20.0648 51.5342 20.1199 51.5519C20.1751 51.5697 20.2342 51.5711 20.2901 51.5562C20.4336 51.5169 20.5666 51.4463 20.6793 51.3495C20.7921 51.2526 20.8818 51.1319 20.942 50.9962C21.0236 50.8207 21.0659 50.6296 21.0659 50.4362C21.0659 50.2428 21.0236 50.0517 20.942 49.8762C20.8333 49.5756 20.6507 49.3069 20.4109 49.0949C20.1711 48.8829 19.8818 48.7342 19.5695 48.6625C19.2572 48.5909 18.9319 48.5985 18.6233 48.6848C18.3147 48.771 18.0328 48.9331 17.8033 49.1562C18.0834 48.9453 18.4249 48.8312 18.7759 48.8312C19.127 48.8312 19.4685 48.9453 19.7487 49.1562C20.7514 49.7062 20.8116 50.2662 20.7514 50.5462C20.7188 50.6916 20.643 50.8237 20.5339 50.9254C20.4247 51.0271 20.2874 51.0936 20.1398 51.1162C20.0202 51.139 19.8973 51.1375 19.7784 51.1117C19.6595 51.0859 19.5471 51.0364 19.4478 50.9662C19.3334 50.8937 19.2081 50.8396 19.0768 50.8062V50.8262ZM6.16103 49.8262C6.29179 50.8924 6.7752 51.8847 7.53483 52.6462C7.99238 53.1162 8.48514 53.5508 9.00889 53.9462C9.35986 54.2262 9.72086 54.5062 10.0117 54.8162C10.7633 55.5171 11.3727 56.3557 11.8066 57.2862C11.5197 56.6001 11.1384 55.9573 10.6735 55.3762C10.1531 54.7873 9.57533 54.2513 8.94872 53.7762C7.96496 53.0889 7.14081 52.1988 6.53206 51.1662C6.35693 50.7422 6.2324 50.2992 6.16103 49.8462V49.8262ZM6.51198 48.6762C6.93315 48.6762 7.1437 49.1862 7.29411 49.5362L7.37435 49.7062C7.46246 49.8949 7.53951 50.0886 7.60503 50.2862C7.69156 50.6061 7.85308 50.9008 8.07631 51.1462C8.33808 51.4613 8.66172 51.7196 9.02731 51.9053C9.3929 52.0911 9.79272 52.2003 10.2022 52.2262C10.2985 52.2238 10.3934 52.2023 10.4812 52.1628C10.5691 52.1233 10.6481 52.0666 10.7136 51.9962C10.7693 51.8989 10.7971 51.7882 10.7939 51.6762C10.799 51.6992 10.799 51.7231 10.7939 51.7462C10.7274 51.8559 10.6351 51.9478 10.525 52.014C10.415 52.0802 10.2904 52.1187 10.1621 52.1262C9.15933 52.2062 8.15656 50.6262 7.97606 50.1262C7.92474 49.92 7.8978 49.7086 7.89582 49.4962C7.89582 49.0462 7.89582 48.6262 7.5248 48.4062C7.45137 48.343 7.36433 48.2974 7.27043 48.2732C7.17652 48.2489 7.07824 48.2465 6.98326 48.2662C6.77579 48.3413 6.60408 48.4911 6.50194 48.6862L6.51198 48.6762ZM15.6673 51.3862H15.7676C15.9935 51.4232 16.2252 51.377 16.4194 51.2562H16.0584C15.8479 50.5862 15.6573 49.9162 15.4668 49.2562C15.1156 47.9293 14.6973 46.6209 14.2133 45.3362C14.1331 45.1262 14.0529 44.8562 13.9726 44.5762C13.7821 43.9362 13.5414 43.1362 13.1403 42.9662C13.0357 42.9408 12.9269 42.9383 12.8213 42.959C12.7156 42.9798 12.6158 43.0232 12.5286 43.0862C12.3883 43.1762 12.2078 43.4262 12.2379 43.5462C12.2649 43.6679 12.2984 43.788 12.3381 43.9062L12.3983 43.7362C12.5135 43.6478 12.6487 43.5889 12.792 43.5645C12.9353 43.5401 13.0824 43.551 13.2206 43.5962C13.742 43.8262 13.9025 44.6462 14.2233 46.0162C14.3136 46.4862 14.4139 47.0162 14.5442 47.5762C14.7318 48.3508 14.9594 49.1151 15.2261 49.8662C15.3966 50.3662 15.567 50.8662 15.7074 51.3762L15.6673 51.3862ZM9.42006 45.1962H9.57044L9.76097 45.3162L10.3024 46.2062C10.4986 46.575 10.6631 46.9597 10.7939 47.3562C10.9242 47.6862 11.0546 48.0262 11.205 48.3562C11.7042 49.3917 12.2703 50.3938 12.8997 51.3562C12.9263 51.3743 12.9578 51.3839 12.9899 51.3839C13.0221 51.3839 13.0535 51.3743 13.0802 51.3562C13.269 51.2701 13.4264 51.1276 13.5306 50.9485C13.6347 50.7694 13.6806 50.5624 13.6618 50.3562C13.6489 50.564 13.6085 50.7691 13.5415 50.9662H13.0802C12.3965 49.8798 11.7771 48.7546 11.225 47.5962C11.0887 47.272 10.978 46.9377 10.8941 46.5962C10.7707 46.0053 10.5248 45.4467 10.1721 44.9562C10.0743 44.8537 9.95581 44.7731 9.82444 44.7196C9.69306 44.6662 9.55182 44.6412 9.41002 44.6462C9.32223 44.6639 9.24031 44.7034 9.17194 44.7611C9.10356 44.8188 9.05095 44.8928 9.01892 44.9762C8.94492 45.1643 8.91197 45.3659 8.92234 45.5677C8.93272 45.7694 8.98618 45.9667 9.07909 46.1462C8.95876 45.7262 8.88856 45.4662 9.07909 45.2762C9.18099 45.2138 9.30289 45.1923 9.42006 45.2162V45.1962ZM9.55036 47.6162L9.67075 47.9462C9.67075 47.8462 9.60052 47.7562 9.57044 47.6562L9.55036 47.6162ZM53.8732 18.4862C54.3827 19.4246 55.0356 20.2782 55.8085 21.0162C56.5216 21.6224 57.3063 22.1395 58.145 22.5562C59.5589 23.3362 61.013 24.1362 61.5545 25.6162C63.2492 30.6162 62.1662 37.5462 58.9272 42.4662C58.9272 42.4662 58.9272 42.5562 58.9272 42.5762C58.9426 42.5867 58.9601 42.5938 58.9785 42.597C58.997 42.6001 59.0158 42.5993 59.0339 42.5946C59.0519 42.5898 59.0688 42.5813 59.0833 42.5695C59.0977 42.5577 59.1095 42.5429 59.1177 42.5262C61.9872 37.9557 63.0588 32.4878 62.1261 27.1762L62.0659 26.9062C61.9477 25.9031 61.605 24.9394 61.0631 24.0862C60.613 23.6041 60.0362 23.2577 59.3985 23.0862C59.0858 22.9769 58.781 22.8466 58.486 22.6962C57.1209 21.9812 55.9263 20.9814 54.9832 19.7649C54.0402 18.5484 53.3709 17.1437 53.0208 15.6462C52.9911 15.6264 52.9562 15.6159 52.9205 15.6159C52.8848 15.6159 52.8499 15.6264 52.8203 15.6462C52.9807 17.0462 53.1813 18.4862 53.452 19.8962L52.9907 20.0962C51.3261 17.8591 50.0234 15.3756 49.13 12.7362C49.1238 12.7141 49.1107 12.6945 49.0928 12.6802C49.0748 12.6658 49.0528 12.6574 49.0298 12.6562C49.0054 12.658 48.9824 12.6678 48.9642 12.6841C48.9461 12.7004 48.9338 12.7222 48.9295 12.7462C48.4432 13.9754 48.3903 15.333 48.7791 16.5962C48.5954 15.7345 48.5716 14.8465 48.7089 13.9762H49.2002C50.2714 16.7207 51.7818 19.2739 53.6726 21.5362C53.6868 21.5476 53.7046 21.5538 53.7228 21.5538C53.741 21.5538 53.7587 21.5476 53.7729 21.5362C53.7964 21.5221 53.8149 21.5011 53.8257 21.4759C53.8365 21.4508 53.8391 21.4229 53.8331 21.3962C53.6325 20.5062 53.4921 19.6062 53.3617 18.7262L53.8732 18.4862ZM66.7388 10.6062L66.8692 10.6662C67.0885 10.5225 67.2964 10.362 67.4909 10.1862C67.8654 9.82922 68.1742 9.40955 68.4034 8.94621C68.7926 8.23121 68.9067 7.39914 68.7243 6.60619C68.5058 5.75727 68.1036 4.96639 67.5457 4.28915C66.9879 3.61191 66.288 3.06477 65.4954 2.6862C64.7483 2.23597 63.9067 1.96464 63.0367 1.8935C62.1668 1.82236 61.2921 1.95336 60.4815 2.27621C60.1612 2.42445 59.8748 2.63675 59.6402 2.89994C59.4056 3.16314 59.2278 3.47161 59.1177 3.80621C58.8692 4.59844 58.9411 5.45618 59.3182 6.19621C62.0581 6.86861 64.5446 8.31677 66.4781 10.3662C66.5858 10.4293 66.6756 10.5188 66.7388 10.6262V10.6062Z" fill="#010101"/>
<path d="M69.106 115.066H68.9957L50.4443 111.986C50.3175 111.966 50.1991 111.91 50.1031 111.825C50.0071 111.74 49.9377 111.629 49.9028 111.506L47.8973 104.826C47.8726 104.735 47.8726 104.638 47.8973 104.546L49.4415 93.4162V92.1662C41.7603 86.4962 37.5386 78.4162 37.5386 69.4062C37.5386 53.1962 50.8755 40.5062 67.9027 40.5062C84.9298 40.5062 98.2668 53.1962 98.2668 69.4062C98.2668 81.4062 89.8736 92.3062 77.3489 96.6062L76.8575 97.6062L75.6441 96.9962L76.2558 95.7662C76.2942 95.6859 76.3487 95.6142 76.416 95.5558C76.4832 95.4973 76.5618 95.4532 76.6469 95.4262C88.7605 91.4262 96.903 80.9262 96.903 69.4262C96.903 53.9862 84.1677 41.8862 67.9027 41.8862C51.6376 41.8862 38.9124 53.9862 38.9124 69.4262C38.9124 78.1062 43.0338 85.8662 50.5246 91.2962C50.6121 91.3588 50.6834 91.4413 50.7322 91.537C50.7811 91.6328 50.8061 91.7388 50.8053 91.8462V93.5762L49.3212 104.576L51.1362 110.706L68.8653 113.636L72.9867 108.686L73.9895 109.556L69.6174 114.806C69.5554 114.883 69.4778 114.946 69.3896 114.991C69.3015 115.036 69.2048 115.061 69.106 115.066Z" fill="#010101"/>
<path d="M65.2052 117.786H65.0848L53.593 115.606C53.4603 115.581 53.338 115.518 53.2416 115.423C53.1451 115.329 53.079 115.208 53.0515 115.076L52.3696 111.806L53.7033 111.526L54.295 114.356L64.8843 116.356L66.7495 113.356L67.9026 114.086L65.7868 117.426C65.7295 117.531 65.6457 117.62 65.5438 117.683C65.4418 117.746 65.3251 117.782 65.2052 117.786Z" fill="#010101"/>
<path d="M48.5393 103.883L48.3467 105.229L61.7485 107.136L61.9411 105.789L48.5393 103.883Z" fill="#010101"/>
<path d="M49.8107 98.8024L49.6165 100.149L67.1945 102.671L67.3888 101.325L49.8107 98.8024Z" fill="#010101"/>
<g style="mix-blend-mode:multiply" opacity="0.15">
<path d="M57.9551 8.33617C61.6959 12.2898 64.487 17.0393 66.1177 22.2262C68.0389 28.4147 69.3323 34.78 69.9784 41.2262L73.7488 41.6162C73.2395 37.0335 72.4897 32.4806 71.5026 27.9762C70.5682 23.3066 68.8745 18.8208 66.4887 14.6962L66.8998 11.4062C66.8998 11.4062 69.4469 10.7762 69.4469 6.93616C69.4469 3.09616 67.672 2.75616 67.672 2.75616C67.672 2.75616 65.847 9.96616 64.8141 10.9962C63.7812 12.0262 57.9551 8.33617 57.9551 8.33617Z" fill="#010101"/>
</g>
<g style="mix-blend-mode:multiply" opacity="0.15">
<path d="M42.1611 21.3563L45.5205 16.2563L46.3327 15.4463L50.5043 21.2163L49.9527 15.7563L54.1343 21.2863L54.9466 19.5963L53.282 16.9663L53.5126 21.6263L48.9299 13.1263L48.3182 14.9763L50.1633 19.6263L50.775 21.7663L48.9299 20.5063L45.9316 13.8363L44.0464 15.7263L42.1611 21.3563Z" fill="#010101"/>
</g>
<g style="mix-blend-mode:multiply" opacity="0.15">
<path d="M59.4686 22.8062C59.4686 22.8062 61.8653 24.2762 62.2162 26.1262C62.5672 27.9762 62.6073 30.3062 61.6146 35.3462C60.6218 40.3862 58.7166 42.7062 58.7166 42.7062L57.5032 42.9262C57.5032 42.9262 60.702 34.3462 60.702 29.0562C60.702 23.7662 59.4686 22.8062 59.4686 22.8062Z" fill="#010101"/>
</g>
<g style="mix-blend-mode:multiply" opacity="0.15">
<path d="M83.9476 46.0662C83.9476 46.0662 99.1397 52.8162 97.2144 73.5062C95.8707 87.9962 76.8379 96.0662 76.8379 96.0662L75.5142 97.3262H74.3811L75.2736 93.6662C75.2736 93.6662 94.3264 89.4762 93.8451 66.5362C93.6946 57.9862 83.9476 46.0662 83.9476 46.0662Z" fill="#010101"/>
</g>
<g style="mix-blend-mode:multiply" opacity="0.15">
<path d="M55.2767 93.4862L54.4143 100.246L53.8427 105.096L55.8483 111.986L56.4499 115.446L53.7224 114.926L53.0305 111.656L50.5737 111.316L48.6985 103.806L50.0924 93.4562L55.2767 93.4862Z" fill="#010101"/>
</g>
<g style="mix-blend-mode:multiply" opacity="0.15">
<path d="M98.1072 73.2162C98.1072 73.2162 103.462 82.5063 104.736 83.7863C106.009 85.0663 103.783 87.9362 103.783 87.9362L92.5618 98.7462L88.1998 101.976L84.9006 102.976L81.6817 105.356L70.6512 110.596L68.054 110.336C68.054 110.336 101.737 89.9663 101.737 86.6963C101.737 83.4263 96.7234 75.3163 96.7234 75.3163L98.1072 73.2162Z" fill="#010101"/>
</g>
<g style="mix-blend-mode:multiply" opacity="0.15">
<path d="M76.7368 108.566L79.1636 116.386L80.1663 123.996L77.3285 124.606C77.3285 124.606 77.7596 116.666 76.1853 112.966C74.6109 109.266 74.4104 108.566 74.4104 108.566H76.7368Z" fill="#010101"/>
</g>
<g style="mix-blend-mode:multiply" opacity="0.15">
<path d="M75.3826 108.566L70.469 116.586L67.2602 119.226L62.4167 118.236L53.7227 114.926L65.8562 117.106V114.386H69.1052L71.5019 110.566L75.3826 108.566Z" fill="#010101"/>
</g>
<g style="mix-blend-mode:multiply" opacity="0.15">
<path d="M36.626 59.5262L37.4182 60.5262C37.4182 60.5262 33.8082 65.8962 35.5229 75.2762C37.2377 84.6562 38.6617 81.1962 37.2377 87.7662C36.4353 91.8098 37.2524 96.006 39.514 99.4562H36.7563C35.5388 98.8342 34.5618 97.828 33.9777 96.5943C33.3936 95.3607 33.2353 93.969 33.5274 92.6362C34.0907 89.0252 34.4588 85.3866 34.6305 81.7362L33.6277 75.5662L32.3943 70.7262L34.3998 62.6062L36.626 59.5262Z" fill="#010101"/>
</g>
<g style="mix-blend-mode:multiply" opacity="0.15">
<path d="M19.9978 64.4962C19.9978 64.4962 23.3972 76.5562 24.6808 79.2662C25.9643 81.9762 30.527 66.1362 30.527 66.1362L33.3347 53.6562L31.2389 54.6562L29.6445 56.5262L27.7994 64.1562L26.6662 70.9062L24.9214 73.4262L23.0763 64.4262L19.9978 64.4962Z" fill="#010101"/>
</g>
<g style="mix-blend-mode:multiply" opacity="0.15">
<path d="M21.6436 52.9762C21.7349 53.621 21.6843 54.2778 21.4955 54.9012C21.3068 55.5245 20.9844 56.0995 20.5506 56.5862C19.0865 58.0462 16.1283 59.7762 16.8403 61.8362C17.2865 63.1226 17.8089 64.3815 18.4046 65.6062L20.6609 65.1562L20.0693 61.7062L20.34 60.2662L23.4185 56.9362L23.7595 54.3462L22.6063 51.4162L21.6436 52.9762Z" fill="#010101"/>
</g>
<g style="mix-blend-mode:multiply" opacity="0.15">
<path d="M44.8574 43.0862L45.9906 50.1162L47.976 46.8462L47.4245 44.3962L44.8574 43.0862Z" fill="#010101"/>
</g>
<path d="M84.2668 40.3362C90.464 42.6162 96.1096 48.5862 98.7169 54.5562C99.0478 55.3062 100.151 54.6562 99.8299 53.9062C97.0723 47.6062 91.1258 41.4962 84.6078 39.1062C83.8356 38.8262 83.4947 40.1062 84.2668 40.3362Z" fill="#231F20"/>
<path d="M108.605 80.2862C109.437 83.1062 111.142 86.1562 109.768 89.0662C108.896 90.9162 107.191 92.2762 106.108 94.0162C105.667 94.7162 106.78 95.3662 107.211 94.6662C108.525 92.5562 110.701 90.9862 111.362 88.5062C112.145 85.5062 110.671 82.7262 109.848 79.9462C109.803 79.7818 109.694 79.642 109.546 79.5576C109.397 79.4732 109.221 79.4511 109.056 79.4962C108.891 79.5413 108.751 79.6499 108.666 79.798C108.582 79.9462 108.56 80.1218 108.605 80.2862Z" fill="#231F20"/>
<path d="M29.3855 94.4563C29.0109 95.8612 29.0128 97.3397 29.3912 98.7437C29.7695 100.148 30.5111 101.428 31.5415 102.456C32.1131 103.046 33.0256 102.146 32.454 101.546C31.5781 100.678 30.9472 99.5956 30.625 98.407C30.3028 97.2183 30.3007 95.966 30.6189 94.7763C30.6498 94.6181 30.6196 94.4542 30.5345 94.3172C30.4495 94.1802 30.3157 94.0803 30.16 94.0374C30.0042 93.9944 29.838 94.0116 29.6944 94.0856C29.5509 94.1595 29.4406 94.2848 29.3855 94.4363V94.4563Z" fill="#231F20"/>
<path d="M1.93945 49.0662C1.93945 52.9162 2.80182 56.3262 6.24135 58.4462C6.95332 58.8762 7.59512 57.7662 6.89318 57.3362C3.83471 55.4562 3.18287 52.4462 3.22298 49.0662C3.22298 48.8965 3.15537 48.7337 3.03502 48.6137C2.91466 48.4937 2.75146 48.4262 2.58125 48.4262C2.41104 48.4262 2.24777 48.4937 2.12741 48.6137C2.00706 48.7337 1.93945 48.8965 1.93945 49.0662Z" fill="#231F20"/>
<path d="M39.9947 8.60616C40.6766 5.92616 44.5974 4.60617 47.0743 4.52617C47.2445 4.52617 47.4077 4.45874 47.528 4.33871C47.6484 4.21869 47.7161 4.05591 47.7161 3.88617C47.7161 3.71643 47.6484 3.55363 47.528 3.43361C47.4077 3.31359 47.2445 3.24615 47.0743 3.24615C44.0659 3.31615 39.5936 4.98615 38.7512 8.24615C38.7288 8.32757 38.7227 8.4126 38.7333 8.49637C38.7439 8.58013 38.7708 8.661 38.8127 8.73436C38.8546 8.80772 38.9106 8.87212 38.9775 8.9239C39.0444 8.97569 39.1208 9.01384 39.2024 9.03616C39.2841 9.05849 39.3694 9.06455 39.4534 9.05402C39.5374 9.04348 39.6185 9.01656 39.692 8.97478C39.7656 8.93299 39.8302 8.87716 39.8821 8.81049C39.934 8.74381 39.9723 8.66759 39.9947 8.58617V8.60616Z" fill="#231F20"/>
<path d="M12.6794 21.3663C14.3841 21.9963 15.2966 23.4563 17.242 23.2163C18.9969 22.9863 20.4308 21.5063 21.8447 20.5763L20.6815 20.4263C23.6899 22.9263 27.0592 22.7162 30.6291 21.6062C31.8023 21.2462 31.3009 19.3863 30.1177 19.7563C27.3299 20.6263 24.4921 21.1363 22.0353 19.0663C21.8817 18.9227 21.6867 18.8309 21.4779 18.804C21.2692 18.7771 21.0572 18.8163 20.8721 18.9163C19.2275 19.9963 17.8637 21.6663 15.4972 20.8063C14.705 20.5163 14.0331 19.8063 13.1908 19.5163C12.0275 19.0863 11.5262 20.9363 12.6794 21.3663Z" fill="#231F20"/>
<path d="M29.9873 27.7962C28.2726 27.1662 27.3701 25.6962 25.4247 25.9462C23.6598 26.1662 22.2359 27.6562 20.8119 28.5762L21.9852 28.7262C18.9768 26.2362 15.5975 26.4362 12.0376 27.5462C10.8544 27.9162 11.3558 29.7662 12.5491 29.3962C15.3368 28.5262 18.1646 28.0262 20.5713 30.0862C20.7248 30.2298 20.9198 30.3216 21.1286 30.3485C21.3374 30.3754 21.5493 30.3361 21.7345 30.2362C23.379 29.1662 24.7428 27.4862 27.1094 28.3562C27.9016 28.6462 28.5835 29.3562 29.4158 29.6462C30.589 30.0762 31.0904 28.2162 29.9372 27.7962H29.9873Z" fill="#231F20"/>
<path d="M28.6433 33.7962C28.7227 34.932 28.4646 36.066 27.9012 37.0562C27.837 37.269 27.8456 37.497 27.9258 37.7043C28.006 37.9116 28.1531 38.0864 28.344 38.2011C28.5348 38.3157 28.7585 38.3637 28.9798 38.3375C29.201 38.3113 29.4072 38.2123 29.5658 38.0562C30.3048 36.7732 30.6532 35.3034 30.5686 33.8262C30.5686 32.5962 28.563 32.5862 28.6433 33.8262V33.7962Z" fill="#231F20"/>
<path d="M24.0308 34.1962C24.2313 35.6762 24.7428 37.3262 23.7701 38.6262C23.0381 39.6262 24.7027 40.6262 25.4347 39.6262C26.6481 37.9962 26.2069 36.0762 25.9562 34.2262C25.7957 33.0162 23.8703 32.9962 24.0308 34.2262V34.1962Z" fill="#231F20"/>
<path d="M16.3501 8.96622C13.5824 9.80622 11.4966 12.3462 12.4092 15.3062C12.5233 15.4899 12.6939 15.6318 12.8956 15.7107C13.0973 15.7895 13.3193 15.8011 13.5282 15.7437C13.7371 15.6863 13.9216 15.5629 14.0544 15.3921C14.1871 15.2213 14.2607 15.0123 14.2643 14.7962C13.6626 12.8562 15.0866 11.3562 16.8615 10.7962C17.0457 10.6824 17.188 10.5122 17.267 10.3111C17.3461 10.1099 17.3577 9.88863 17.3002 9.68033C17.2426 9.47203 17.1189 9.28793 16.9476 9.15559C16.7763 9.02326 16.5667 8.94981 16.3501 8.94623V8.96622Z" fill="#231F20"/>
<path d="M10.9543 6.06623C8.60784 7.65623 6.55212 12.0662 9.29973 14.1562C10.3025 14.9062 11.2351 13.2462 10.3025 12.4962C8.91867 11.4462 10.9744 8.38624 11.9571 7.72624C12.9398 7.06624 12.0173 5.37623 10.9543 6.06623Z" fill="#231F20"/>
</svg>
