<svg version="1.2" xmlns="http://www.w3.org/2000/svg" viewBox="0 0 107 159" width="107" height="159"><style>.a{fill:#ec1c24}.b{opacity:.1;mix-blend-mode:multiply;fill:#050505}.c{fill:#231f20}</style><path class="a" d="m82 155.4h-77.3v-23.7h77.3z"/><path class="a" d="m82 31.1h-78.9v-26.9h78.9z"/><path fill-rule="evenodd" d="m8.6 158.9c-3.9-1.2-6.6-3.5-7.6-7.5-0.2-0.9-0.2-1.7-0.2-2.5q0-69 0-138.1c0-5.8 4.3-10 10-10 21.6 0 43.1 0.1 64.7-0.1 6-0.1 11.3 3.9 11.3 11.4-0.1 11.1 0 22.2-0.1 33.3 0 1.6 0.5 2.4 1.8 3.2 10.3 6.2 16.5 15.3 17.7 27.3 1.5 15.5-4.9 27.4-18.2 35.6-1 0.6-1.3 1.4-1.3 2.5q0.1 17 0 34c0 4.3-1.5 7.8-5.5 9.9-0.7 0.4-1.5 0.7-2.2 1q-35.2 0-70.4 0zm-0.9-79q0 21.8 0 43.7c0 2.2 0 2.2 2.2 2.2q19.7 0 39.5 0c9.5 0 19 0 28.5 0 1.4 0 2-0.2 1.9-1.8-0.1-2.5-0.1-5.1 0-7.7 0-1.1-0.4-1.3-1.3-1-3.6 0.8-7.1 1.1-10.7 0.9-6.6-0.4-12.5-2.6-17.9-6-0.8-0.5-1.6-1.8-2.4-1.4-0.7 0.4-0.2 1.9-0.3 2.8 0 3-1.3 4.7-3.6 4.7-2.2-0.1-3.3-1.6-3.3-4.6q0-31.8 0-63.6c0-0.5 0-0.9 0-1.4 0.1-1.7 1.3-2.9 3.1-3.1 1.6-0.2 3.1 0.8 3.6 2.5 0.3 1.1 0.2 2.2 0.2 3.3 0.1 0.6-0.2 1.3 0.3 1.6 0.5 0.4 0.9-0.4 1.4-0.7 2.7-2 5.7-3.6 9-4.7 6.7-2.3 13.6-2.8 20.6-1.1 1 0.3 1.3 0 1.3-1.1-0.1-2.4 0-4.9 0-7.4 0-2 0-2-2-2q-34 0-67.9 0c-2.2 0-2.2 0-2.2 2.2q0 21.9 0 43.7zm39.5 0c0 5.5 0.1 11 0 16.5 0 1.7 0.6 2.9 1.7 4 7.3 7.1 16 10 26.2 8.4 17.3-2.6 28.4-20.9 23.1-37.7-4-12.6-16.2-21.5-29.9-20.5-7.7 0.5-14.2 3.6-19.6 9-1 1-1.5 2.1-1.5 3.7 0.1 5.5 0 11.1 0 16.6zm-3.4 52.9c-11.4 0-22.8 0-34.1-0.1-1.6 0-2 0.5-2 2 0.1 4.4 0 8.8 0 13.2 0 3.3 0.9 4.2 4.2 4.2 21.2 0 42.4-0.1 63.6 0 3.5 0 4.3-1.8 4.3-4.4 0-4.3-0.1-8.6 0-13 0.1-1.5-0.3-2-1.9-2-11.4 0.1-22.8 0.1-34.1 0.1zm0-105.8q12.6 0 25.3 0 4.6 0 9.2 0c0.8 0 1.5 0 1.5-1.1 0-4.9 0.1-9.8-0.1-14.8 0-2.3-1.3-3.4-3.6-3.4q-32.4 0-64.8 0c-2.5 0-3.6 1.1-3.6 3.6 0 4.6 0.1 9.2 0 13.8 0 1.5 0.4 2 2 2 11.4-0.1 22.7-0.1 34.1-0.1z"/><path  d="m43.8 139.1c2.1 0 4.2-0.1 6.3 0 2 0 3.4 1.2 3.6 3.1 0.2 1.7-1 3.2-3 3.6q-1 0.2-2 0.2-5.2 0-10.4 0c-1 0-1.9-0.1-2.7-0.5-1.4-0.7-2.1-2.2-1.8-3.7 0.3-1.6 1.4-2.7 3.1-2.7 2.3-0.1 4.6 0 6.9 0q0 0 0 0z"/><path  d="m50.2 20.7c-1.1 0-2.3 0.1-3.4 0-1.8-0.1-3.1-1.3-3.2-3.1-0.2-1.6 0.8-3.2 2.5-3.5 2.7-0.5 5.5-0.5 8.3 0 1.7 0.3 2.7 1.8 2.6 3.5-0.2 1.7-1.5 3-3.2 3.1-1.2 0.1-2.4 0-3.6 0z"/><path  d="m35.4 20.7c-0.6 0-1.3 0.1-1.9 0-1.6-0.1-2.8-1.3-3.1-2.8-0.2-1.7 0.6-3.3 2.2-3.8 1.9-0.5 3.8-0.5 5.7 0 1.6 0.5 2.4 2.1 2.2 3.9-0.3 1.4-1.6 2.6-3.1 2.7-0.7 0.1-1.4 0-2 0z"/><path class="b" d="m70 129.5l-16.3 25.9h26.1l4.5-4.5v-24z"/><path class="b" d="m68.8 5.8l-15.1 25.8h24.2l4.1-4.4v-24.1z"/><path class="c" d="m70.9 94.7q-2 0-3.7-0.5-1.8-0.5-3.3-1.4-1.5-0.9-2.8-2.4l2.7-3.3q1.5 1.8 3.2 2.6 1.8 0.9 3.9 0.9 2.8 0 4.2-1.1 1.4-1.1 1.4-3.4 0-1.6-0.7-2.4-0.8-0.9-2-1.3-1.3-0.4-2.7-0.7-1.5-0.2-3.1-0.6-1.5-0.4-2.9-1.2-1.3-0.7-2.1-2.2-0.7-1.5-0.7-4.1 0-4.4 2.3-6.6 2.4-2.2 7.2-2.2 2.1 0 4.2 0.7 2 0.7 4 2l-2.5 3.4q-1.4-1-2.9-1.5-1.4-0.5-2.8-0.5-2.7 0-4 1.1-1.3 1.1-1.3 3.3 0 1.7 0.9 2.5 0.9 0.9 2.3 1.3 1.4 0.4 3 0.7 1.5 0.4 2.9 0.8 1.4 0.5 2.6 1.3 1.2 0.9 1.9 2.4 0.7 1.5 0.7 3.9 0 4.2-2.5 6.4-2.5 2.1-7.4 2.1zm-1.7 3.2v-36.3h4.1v36.3z"/></svg>