<svg width="59" height="61" viewBox="0 0 59 61" fill="none" xmlns="http://www.w3.org/2000/svg">
<path d="M0.632324 33.6189L9.28037 29.2791L20.7797 32.9392L27.4102 30.9145L30.5305 29.2791L37.0939 32.9392L44.7601 30.1853L51.6933 29.2791L58.0011 33.5056L56.8915 25.449L51.8278 16.4508L44.7601 10.4118L37.0939 6.1499L29.3604 6.43308L24.2833 6.98529H18.9976L13.9137 9.47025L7.01414 16.4508L4.88237 22.0578L0.632324 33.6189Z" fill="#ED1C24"/>
<path d="M57.7256 29.3568C56.692 22.0394 53.1287 15.3813 47.7192 10.6595C43.3137 6.72391 37.8592 4.32014 32.1044 3.77813H31.9228C30.6653 3.65777 30.6652 3.65778 30.6383 2.21353C30.6383 1.74628 30.598 0.521503 29.3472 0.500264C28.0964 0.479025 28.0023 1.74627 28.0023 2.16397C27.9619 3.70733 27.9619 3.70733 26.422 3.79229H26.3009H25.9243C14.2636 5.69671 6.27464 12.5073 2.17255 24.033C1.31363 26.4419 0.81014 28.9751 0.679633 31.5444C0.639285 32.2241 0.625837 32.9108 0.639287 33.6046C0.605082 33.8999 0.660085 34.199 0.796487 34.4595C0.93289 34.7201 1.14377 34.9287 1.39919 35.0559C1.67677 35.1888 1.98903 35.2185 2.28472 35.14C2.58042 35.0616 2.84198 34.8796 3.02656 34.6241L3.46369 34.1356C4.48714 33.0416 5.71117 32.1782 7.06141 31.5977C8.41164 31.0171 9.85991 30.7317 11.3182 30.7586C12.719 30.7705 14.1026 31.0851 15.3831 31.683C16.6637 32.281 17.8139 33.1495 18.7625 34.2347C19.3139 34.8719 19.7039 35.2188 20.1746 35.2259C20.6387 35.2259 21.0556 34.8719 21.607 34.263C23.1642 32.5404 25.1887 31.366 27.4037 30.9002C27.7669 30.8152 27.8745 30.8577 27.9148 30.9002C27.9552 30.9427 28.0023 31.0064 28.0023 31.3321C28.0023 34.5132 28.0023 37.6966 28.0023 40.8825C28.0023 45.4842 28.0023 50.0813 28.0023 54.6736C27.9885 55.5416 27.6591 56.371 27.0818 56.9909C26.5046 57.6109 25.7235 57.9741 24.8994 58.0059C24.0754 58.0376 23.2711 57.7355 22.6523 57.1617C22.0336 56.5878 21.6474 55.786 21.5734 54.9214C21.5523 54.4043 21.3399 53.9165 20.9816 53.5621C20.8424 53.4563 20.6839 53.3822 20.516 53.3444C20.3481 53.3066 20.1746 53.306 20.0065 53.3426C19.1659 53.4701 18.7961 54.1001 18.9104 55.2187C19.0325 56.7986 19.731 58.2673 20.8594 59.3166C21.9878 60.366 23.4584 60.9145 24.9627 60.847H25.3393C26.8042 60.7101 28.1663 59.9973 29.1545 58.8507C30.1428 57.704 30.6845 56.2076 30.672 54.6594C30.672 52.04 30.672 49.4182 30.672 46.794V40.132C30.672 37.2435 30.672 34.3551 30.672 31.4666C30.672 31.0418 30.7392 30.9356 30.7728 30.9073C30.8065 30.879 30.9208 30.8294 31.3108 30.9073C33.5006 31.3443 35.5021 32.502 37.0268 34.2135C37.5917 34.8365 38.0087 35.1975 38.4794 35.1975C38.9501 35.1975 39.3604 34.8506 39.9589 34.2064C41.2195 32.7798 42.8192 31.7336 44.5926 31.176C46.366 30.6184 48.2487 30.5696 50.046 31.0347C52.1606 31.5321 54.0691 32.7277 55.493 34.4471C55.6778 34.7367 55.9465 34.9559 56.2591 35.0719C56.5716 35.188 56.9115 35.1948 57.228 35.0913C58.0013 34.7728 58.0215 34.0294 58.0417 33.4843V33.3781C58.0602 32.03 57.9543 30.6833 57.7256 29.3568ZM36.3544 11.1055C35.8235 9.6291 35.1235 8.22641 34.2697 6.92857C44.7536 9.05246 53.4083 18.256 55.0088 29.2577C55.0354 29.4402 55.0759 29.6201 55.1299 29.7958C55.1769 29.9869 55.3114 30.5037 55.224 30.5674C55.1366 30.6312 54.8676 30.3692 54.7196 30.2347C54.5594 30.0834 54.3861 29.9483 54.2019 29.8312C49.3802 27.1338 44.6191 27.3462 40.0463 30.4613C39.9594 30.5239 39.8783 30.595 39.8042 30.6737C39.7504 30.7232 39.6562 30.8152 39.663 30.8365C39.6539 30.7494 39.6539 30.6616 39.663 30.5745C39.6726 30.4686 39.6726 30.3619 39.663 30.2559C39.3469 22.3197 38.318 16.4153 36.3544 11.1055ZM24.2835 6.99228C21.9904 10.7657 20.9615 14.8507 20.2487 18.3834C19.4604 22.4214 19.0103 26.5245 18.9037 30.6453C16.5838 28.96 13.8468 28.025 11.029 27.9551C8.3684 28.0037 5.77543 28.8457 3.55111 30.3834C3.43679 27.8347 5.41387 22.0153 7.63303 18.5675C11.5939 12.4365 18.0631 7.95511 24.2835 6.9852V6.99228ZM37.0605 30.3551C37.0805 30.465 37.0805 30.5779 37.0605 30.6878C36.9587 30.6324 36.8657 30.5608 36.7848 30.4754C36.6834 30.3706 36.5731 30.2758 36.4553 30.1922C34.4322 28.8063 32.0845 28.0364 29.6717 27.9677C27.259 27.899 24.8751 28.5341 22.7839 29.8029C22.3915 30.0269 22.012 30.2751 21.6474 30.5462L21.5465 30.6241C21.5434 30.5864 21.5434 30.5485 21.5465 30.5108C21.5465 30.171 21.5802 29.8029 21.5936 29.4914C21.5936 28.6843 21.6675 27.8489 21.7348 27.0347C22.0484 22.3102 22.925 17.6459 24.344 13.1516C24.926 11.1465 25.8892 9.28699 27.1751 7.68609C27.4335 7.33368 27.759 7.04204 28.1307 6.8299C28.5025 6.61776 28.9122 6.48979 29.3337 6.45423C29.7581 6.50368 30.1681 6.64568 30.5374 6.87119C30.9068 7.09669 31.2274 7.40075 31.4789 7.76396C32.7425 9.38848 33.6928 11.257 34.2765 13.2648C35.7452 17.9122 36.6159 22.7457 36.8655 27.6365C36.8655 28.1533 36.9462 28.663 36.9932 29.1728L37.047 29.8099C37.0342 29.9851 37.0433 30.1612 37.0739 30.3338L37.0605 30.3551Z" fill="black"/>
<g style="mix-blend-mode:multiply" opacity="0.15">
<path d="M27.2018 5.58337L23.6915 9.47717L21.5664 16.4506L20.2618 23.1409L20.7796 32.9674L13.0462 28.8046C13.0462 28.8046 12.3737 23.5302 16.0051 15.3533C21.5665 2.8294 27.2018 5.58337 27.2018 5.58337Z" fill="#010101"/>
</g>
<g style="mix-blend-mode:multiply" opacity="0.15">
<path d="M29.3203 29.2788H34.2697L38.3785 32.4788L37.0941 21.8169L33.846 8.30894L31.6538 6.14258L29.3203 29.2788Z" fill="#010101"/>
</g>
<g style="mix-blend-mode:multiply" opacity="0.15">
<path d="M33.9341 5.32861L42.8847 9.364L51.8286 16.4436L55.2515 25.3498L56.3207 30.8224L55.4532 34.4684L50.2416 29.4702C50.2416 29.4702 53.113 24.1463 44.7609 15.3534C36.5298 6.68791 35.4673 12.0259 33.9341 5.32861Z" fill="#010101"/>
</g>
</svg>
