<svg width="55" height="51" viewBox="0 0 55 51" fill="none" xmlns="http://www.w3.org/2000/svg">
<path d="M12.2676 20.2634V40.7713L27.4402 49.4226L44.5031 40.5814L42.6201 21.0078L27.4402 14.5212L12.2676 20.2634Z" fill="#ED1C24" stroke="#ED1C24" stroke-width="0.25" stroke-miterlimit="10"/>
<path d="M12.2676 20.2634L27.4402 28.2843L43.457 20.1267L27.4402 14.5212L12.2676 20.2634Z" fill="white"/>
<path d="M0.457031 46.3845C0.666259 45.0629 0.875514 43.7336 1.07031 42.412C1.10078 41.9374 1.23669 41.4769 1.46712 41.0676C1.60595 40.8263 1.81932 40.6426 2.0715 40.5472C2.32369 40.4518 2.59936 40.4505 2.85234 40.5435C3.14993 40.6196 3.41003 40.8094 3.58205 41.0761C3.75406 41.3429 3.82569 41.6674 3.78302 41.9867C3.72531 42.7462 3.58823 43.5058 3.4728 44.4704C4.54058 43.9539 5.2188 43.0652 6.12064 42.5791C9.08591 40.9841 9.98054 38.5535 9.72802 35.0596C9.40336 30.3352 9.6703 25.5652 9.63423 20.818C9.56908 20.2882 9.69638 19.752 9.99069 19.3168C10.285 18.8816 10.7246 18.5795 11.2215 18.471C15.7956 16.9519 20.3409 15.2733 24.9295 13.7086C25.1214 13.681 25.306 13.613 25.4723 13.5086C25.6387 13.4043 25.7833 13.2658 25.8978 13.1014C26.0122 12.937 26.0941 12.75 26.1384 12.5516C26.1828 12.3531 26.1888 12.1473 26.156 11.9464C26.0839 9.78171 26.156 7.6018 26.156 5.25479C25.5598 5.63827 25.0283 6.1234 24.5832 6.69034C23.9627 7.29039 23.2701 7.57142 22.5847 6.91061C21.8993 6.2498 22.1085 5.39151 22.729 4.7307C24.0349 3.31034 25.3624 1.91277 26.6827 0.5H28.2627C29.5253 1.852 30.8023 3.19641 32.0577 4.5636C32.9379 5.51304 33.0461 6.31816 32.3607 6.91061C31.531 7.67016 30.8456 7.19924 30.1963 6.52324C29.8103 6.0179 29.338 5.59287 28.8039 5.26998C28.8039 7.83727 28.8039 10.3058 28.8039 12.7819C28.8039 13.4579 29.4243 13.5415 29.8572 13.6706C34.3303 15.2961 38.8083 16.9139 43.2911 18.5241C45.1308 19.185 45.2463 19.3521 45.2463 21.4104C45.2463 27.1147 45.2463 32.8037 45.2463 38.5079C45.2205 38.8985 45.2938 39.2893 45.4586 39.6403C45.6234 39.9913 45.8738 40.2899 46.1842 40.5056C47.8797 41.7968 49.5463 43.1412 51.3428 44.5616C51.3869 43.7784 51.3213 42.9927 51.1479 42.2297C51.0758 41.3563 51.3355 40.7106 52.1724 40.5207C52.3488 40.476 52.5325 40.4725 52.7103 40.5105C52.8882 40.5486 53.0559 40.6272 53.2018 40.7409C53.3476 40.8546 53.468 41.0006 53.5544 41.1686C53.6408 41.3366 53.6912 41.5225 53.702 41.7132C53.9978 43.2323 54.2142 44.8274 54.4667 46.3845V48.2834C54.1204 48.5796 53.8823 49.0429 53.4062 49.1416C51.4798 49.4455 49.5463 49.7645 47.6344 49.9696C47.4721 49.9876 47.308 49.9697 47.1527 49.9169C46.9975 49.8642 46.8544 49.7778 46.7328 49.6633C46.6111 49.5488 46.5136 49.4088 46.4464 49.2522C46.3793 49.0957 46.344 48.9261 46.3429 48.7543C46.3206 48.5856 46.3301 48.414 46.3711 48.2493C46.412 48.0845 46.4835 47.9299 46.5814 47.7944C46.6793 47.6588 46.8017 47.545 46.9415 47.4595C47.0814 47.3739 47.2359 47.3183 47.3963 47.2959C47.8652 47.1668 48.3558 47.1288 48.8392 47.0301C49.0773 46.9845 49.4236 47.1061 49.4741 46.7263C49.5246 46.3465 49.2432 46.3389 49.0701 46.2022C47.5694 45.0097 46.0543 43.8324 44.5681 42.6247C44.3702 42.4435 44.1199 42.3381 43.8579 42.3257C43.5959 42.3133 43.3377 42.3946 43.1251 42.5563C38.1133 45.2705 33.0942 47.9719 28.0679 50.6608H26.8919C21.8608 47.8808 16.8369 45.0958 11.8203 42.3057C11.6066 42.1828 11.3596 42.1399 11.1198 42.1841C10.8799 42.2282 10.6614 42.3568 10.5 42.5487C9.28071 43.5362 8.02531 44.4856 6.81323 45.4882C6.35149 45.8756 5.46407 46.1642 5.55065 46.7035C5.63723 47.2428 6.57518 47.0529 7.11628 47.1972C8.22014 47.4934 8.81893 48.0555 8.6097 48.8682C8.34275 49.9392 7.56359 50.1063 6.65453 49.962C5.31258 49.7569 3.97785 49.491 2.6359 49.3695C2.22282 49.3633 1.81582 49.2638 1.44241 49.0777C1.069 48.8917 0.737898 48.6234 0.471475 48.291L0.457031 46.3845ZM42.6057 31.1479V23.6663C42.6057 22.3979 42.5407 22.3523 41.4008 22.9068C37.512 24.6537 33.6377 26.507 29.7778 28.2844C29.4597 28.3911 29.1866 28.6107 29.005 28.9057C28.8235 29.2008 28.7447 29.5529 28.7822 29.9022C28.7822 35.2191 28.7822 40.5359 28.7822 45.8528C28.7822 47.1137 28.7822 47.144 29.8788 46.6124C33.8325 44.5008 37.7718 42.3589 41.7399 40.2701C42.0313 40.1463 42.2764 39.9258 42.4378 39.642C42.5993 39.3582 42.6684 39.0267 42.6345 38.6978C42.584 36.1305 42.6057 33.6392 42.6057 31.1479ZM26.1344 37.9838C26.1344 35.2571 26.1344 32.5227 26.1344 29.7959C26.1793 29.5058 26.1276 29.2084 25.9883 28.9538C25.849 28.6991 25.6305 28.5029 25.3696 28.3983C21.3197 26.4893 17.2867 24.5575 13.2705 22.6029C12.4047 22.1776 12.2532 22.4814 12.2604 23.3625C12.2604 28.3857 12.2604 33.4088 12.2604 38.432C12.2249 38.7621 12.2932 39.0953 12.4548 39.3807C12.6164 39.666 12.8623 39.8877 13.155 40.0118C17.1568 42.1791 21.1514 44.3717 25.1387 46.5896C25.9612 47.0529 26.1488 46.8706 26.1344 45.9515C26.1127 43.2551 26.1704 40.6043 26.1704 37.9535L26.1344 37.9838ZM14.8505 20.142C14.9807 20.268 15.1207 20.3823 15.269 20.4838C19.1168 22.3371 22.9767 24.1904 26.8486 26.0437C27.0676 26.1527 27.308 26.2054 27.5501 26.1975C27.7922 26.1896 28.029 26.1212 28.2411 25.9981C30.2251 25.0487 32.2164 24.1372 34.2077 23.2106L40.0516 20.4762C39.9106 20.3364 39.753 20.2164 39.5827 20.1192L27.9669 15.9417C27.6122 15.809 27.2249 15.809 26.8703 15.9417L14.8505 20.142Z" fill="black"/>
<g style="mix-blend-mode:multiply" opacity="0.15">
<path d="M27.4404 28.2844V49.4227L44.5033 40.5815L43.4572 20.1268L27.4404 28.2844Z" fill="#010101"/>
</g>
<g style="mix-blend-mode:multiply" opacity="0.15">
<path d="M30.2836 28L23.9995 45.5532L30.2836 49.1383V28Z" fill="#010101"/>
</g>
</svg>
