<svg width="716" height="517" viewBox="0 0 716 517" fill="none" xmlns="http://www.w3.org/2000/svg">
<path d="M318.33 384.67L333.71 375.36L350.35 396.34L328.57 406.51L318.48 403.25L318.33 384.67Z" fill="#FBBF9E"/>
<path d="M333.51 407.82L331.84 408.69C331.84 408.69 334.71 442.13 329.46 445.2L301.32 390.34L320.57 381.5C320.85 391.64 324.79 400.4 333.51 407.82Z" fill="#455B64"/>
<g opacity="0.6">
<path d="M316.84 389.67C316.388 389.226 315.79 388.962 315.157 388.925C314.525 388.888 313.901 389.082 313.4 389.47C312.925 389.877 312.627 390.453 312.567 391.076C312.508 391.698 312.691 392.32 313.08 392.81C313.561 393.279 314.196 393.557 314.867 393.594C315.539 393.631 316.2 393.423 316.73 393.01C317.61 392.1 317.73 390.2 316.66 389.51" fill="white"/>
</g>
<g opacity="0.6">
<path d="M300.77 389.89L305.4 387.77L330.68 441.13C330.68 441.13 330.83 444.13 328.91 444.76L300.77 389.89Z" fill="white"/>
</g>
<path d="M331.23 408.52C330.94 408.65 330.13 407.38 328.57 406.52C327.01 405.66 325.47 405.52 325.46 405.24C325.45 404.96 327.25 404.53 329.12 405.61C330.99 406.69 331.51 408.45 331.23 408.52Z" fill="#263238"/>
<path d="M331.72 415.52C331.48 415.72 330.41 414.8 328.78 414.52C327.15 414.24 325.78 414.57 325.64 414.29C325.5 414.01 326.99 413.06 329.02 413.49C331.05 413.92 332 415.38 331.72 415.52Z" fill="#263238"/>
<path d="M326.27 422.41C326.09 422.2 327.27 421.12 329.15 421.04C331.03 420.96 332.27 421.9 332.15 422.13C332.03 422.36 330.77 422 329.23 422.13C327.69 422.26 326.44 422.66 326.27 422.41Z" fill="#263238"/>
<path d="M410 242.77L402.6 320.4L325.11 374.66L340.11 402.53L431.34 347.46C434.138 345.534 436.274 342.793 437.46 339.61L464.86 265.9L410 242.77Z" fill="#231F20"/>
<path d="M101 444.84L354.95 444.84V309.83H101L101 444.84Z" fill="#ED1C24"/>
<path d="M122 362.53V355.63H158.46V362.53H122ZM136.6 407.3V359.87H143.85V407.3H136.6Z" fill="white"/>
<path d="M157.41 407.3L176.46 355.63H182.64L201.69 407.3H193.87L179.55 365.62L165.23 407.3H157.41ZM166.19 396V389.1H193.37V396H166.19Z" fill="white"/>
<path d="M222.19 407.84C219.808 407.851 217.432 407.613 215.1 407.13C212.952 406.671 210.867 405.956 208.89 405C206.943 404.042 205.123 402.846 203.47 401.44L208 395.9C209.913 397.568 212.116 398.87 214.5 399.74C216.977 400.61 219.585 401.043 222.21 401.02C225.963 401.02 228.867 400.32 230.92 398.92C231.9 398.294 232.701 397.423 233.242 396.394C233.784 395.365 234.049 394.212 234.01 393.05C234.066 392.232 233.957 391.411 233.689 390.636C233.421 389.861 233 389.148 232.45 388.54C231.299 387.429 229.885 386.627 228.34 386.21C226.516 385.669 224.659 385.248 222.78 384.95C220.84 384.617 218.88 384.223 216.9 383.77C214.987 383.348 213.149 382.637 211.45 381.66C209.764 380.671 208.38 379.239 207.45 377.52C206.344 375.283 205.824 372.802 205.94 370.31C205.94 365.497 207.54 361.77 210.74 359.13C213.93 356.49 218.45 355.13 224.27 355.13C227.038 355.13 229.788 355.583 232.41 356.47C235.187 357.415 237.802 358.785 240.16 360.53L236 366.26C234.21 364.889 232.229 363.788 230.12 362.99C228.234 362.295 226.24 361.936 224.23 361.93C220.703 361.93 217.963 362.633 216.01 364.04C215.057 364.713 214.288 365.616 213.776 366.664C213.264 367.713 213.024 368.874 213.08 370.04C213.025 370.861 213.148 371.683 213.442 372.451C213.735 373.22 214.192 373.915 214.78 374.49C216.069 375.581 217.597 376.352 219.24 376.74C221.08 377.23 223.05 377.68 225.16 378.11C227.05 378.49 228.95 378.94 230.84 379.48C232.674 379.982 234.421 380.761 236.02 381.79C237.598 382.827 238.883 384.253 239.75 385.93C240.766 388.069 241.246 390.424 241.15 392.79V392.86C241.15 397.62 239.483 401.303 236.15 403.91C232.817 406.517 228.163 407.827 222.19 407.84Z" fill="white"/>
<path d="M250.76 407.3V355.63H258V407.3H250.76ZM255.38 395.51L256.45 384.63L279.26 355.63H288.18L255.38 395.51ZM281.47 407.3L265.05 379.73L270.77 374.43L290.35 407.3H281.47Z" fill="white"/>
<path d="M310.86 407.84C308.478 407.852 306.102 407.614 303.77 407.13C301.618 406.673 299.53 405.958 297.55 405C295.605 404.039 293.784 402.844 292.13 401.44L296.64 395.9C298.556 397.568 300.763 398.87 303.15 399.74C305.626 400.611 308.235 401.044 310.86 401.02C314.6 401.02 317.5 400.32 319.56 398.92C320.54 398.294 321.341 397.423 321.882 396.394C322.424 395.365 322.689 394.212 322.65 393.05C322.706 392.232 322.597 391.411 322.329 390.636C322.061 389.861 321.64 389.148 321.09 388.54C319.941 387.431 318.531 386.63 316.99 386.21C315.166 385.671 313.308 385.25 311.43 384.95C309.477 384.617 307.513 384.223 305.54 383.77C303.628 383.345 301.79 382.633 300.09 381.66C298.404 380.671 297.02 379.239 296.09 377.52C294.984 375.283 294.464 372.802 294.58 370.31C294.58 365.497 296.18 361.77 299.38 359.13C302.58 356.49 307.093 355.157 312.92 355.13C315.688 355.132 318.437 355.584 321.06 356.47C323.833 357.418 326.444 358.787 328.8 360.53L324.68 366.29C322.891 364.912 320.91 363.804 318.8 363C316.917 362.306 314.927 361.947 312.92 361.94C309.387 361.94 306.643 362.643 304.69 364.05C303.741 364.727 302.975 365.63 302.464 366.678C301.952 367.726 301.71 368.885 301.76 370.05C301.705 370.871 301.828 371.693 302.122 372.461C302.415 373.23 302.872 373.925 303.46 374.5C304.749 375.591 306.277 376.362 307.92 376.75C309.76 377.24 311.73 377.69 313.84 378.12C315.74 378.5 317.63 378.95 319.53 379.49C321.361 379.992 323.104 380.771 324.7 381.8C326.278 382.837 327.563 384.263 328.43 385.94C329.446 388.079 329.926 390.434 329.83 392.8V392.87C329.83 397.63 328.163 401.313 324.83 403.92C321.497 406.527 316.84 407.833 310.86 407.84Z" fill="white"/>
<path d="M556.38 445C556.38 445.15 461.57 445.26 344.65 445.26C227.73 445.26 132.89 445.15 132.89 445C132.89 444.85 227.68 444.74 344.65 444.74C461.62 444.74 556.38 444.81 556.38 445Z" fill="#263238"/>
<path d="M355 444.83C354.45 444.83 354 414.61 354 377.33C354 340.05 354.45 309.82 355 309.82C355.55 309.82 356 340.04 356 377.33C356 414.62 355.5 444.83 355 444.83Z" fill="#263238"/>
<path d="M304.9 313.65C304.9 313.51 314.19 313.39 325.64 313.39C337.09 313.39 346.38 313.51 346.38 313.65C346.38 313.79 337.1 313.91 325.64 313.91C314.18 313.91 304.9 313.79 304.9 313.65Z" fill="white"/>
<path d="M285.38 312.19C282.1 329.38 279.17 346.64 276.3 363.91C273.38 381.5 270.53 399.09 267.5 416.66C265.84 426.25 264.13 435.83 262.31 445.39C262.16 445.99 262.247 446.625 262.552 447.163C262.858 447.701 263.358 448.101 263.95 448.28C264.551 448.44 265.19 448.358 265.731 448.051C266.271 447.745 266.67 447.238 266.84 446.64C270.12 429.44 273.05 412.18 275.92 394.91C278.84 377.33 281.69 359.73 284.72 342.17C286.38 332.58 288.09 323 289.91 313.44C290.06 312.839 289.974 312.202 289.668 311.663C289.363 311.123 288.863 310.721 288.27 310.54C287.668 310.38 287.027 310.464 286.487 310.772C285.946 311.081 285.548 311.59 285.38 312.19Z" fill="#455B64"/>
<path d="M279.68 312.45V443.23C279.68 446.23 284.38 446.23 284.38 443.23V312.45C284.38 309.45 279.68 309.45 279.68 312.45Z" fill="#455B64"/>
<path d="M290 312.09C289.651 302.734 286.548 293.69 281.08 286.09C279.66 284.14 278.08 281.91 275.49 281.65C274.894 281.58 274.29 281.639 273.718 281.82C273.146 282.002 272.619 282.304 272.173 282.705C271.727 283.106 271.371 283.597 271.129 284.146C270.887 284.696 270.765 285.29 270.77 285.89C270.77 288.06 271.89 290.33 272.69 292.3C273.59 294.52 274.56 296.71 275.64 298.84C278.104 303.657 281.027 308.225 284.37 312.48C284.814 312.918 285.412 313.163 286.035 313.163C286.658 313.163 287.256 312.918 287.7 312.48C288.126 312.03 288.364 311.435 288.364 310.815C288.364 310.195 288.126 309.6 287.7 309.15C282.97 303.088 279.184 296.345 276.47 289.15C276.18 288.35 275.86 287.56 275.63 286.74C275.55 286.466 275.496 286.184 275.47 285.9C275.358 286.033 275.254 286.174 275.16 286.32C275.16 286.4 275.49 286.62 275.54 286.67C275.86 286.982 276.157 287.316 276.43 287.67C276.96 288.35 277.43 289.05 277.94 289.77C282.418 296.375 284.966 304.097 285.3 312.07C285.43 315.07 290.13 315.07 290 312.07V312.09Z" fill="#455B64"/>
<path d="M289.77 315.13C295.732 305.801 299.493 295.238 300.77 284.24C301.07 281.68 300.77 278.6 297.88 277.68C294.99 276.76 292.73 279.19 291.43 281.36C288.751 285.882 286.879 290.836 285.9 296C284.763 302.018 284.807 308.199 286.03 314.2C286.2 314.798 286.599 315.305 287.139 315.611C287.68 315.918 288.319 316 288.92 315.84C289.513 315.663 290.015 315.263 290.321 314.725C290.627 314.186 290.712 313.55 290.56 312.95C288.829 304.352 289.861 295.426 293.51 287.45C293.96 286.45 294.44 285.55 294.96 284.63C295.21 284.18 295.45 283.71 295.74 283.29C295.87 283.1 296.62 282.4 296.61 282.29C296.573 282.211 296.515 282.143 296.443 282.094C296.371 282.045 296.287 282.016 296.2 282.01C295.89 282.01 296.2 281.7 296.13 282.01C296.13 281.91 296.18 282.43 296.13 282.32C296.148 283.31 296.061 284.299 295.87 285.27C295.215 289.911 294.093 294.475 292.52 298.89C290.775 303.76 288.477 308.414 285.67 312.76C284.03 315.32 288.1 317.68 289.73 315.14L289.77 315.13Z" fill="#455B64"/>
<path d="M487.92 423.98L489.92 406.11L517.5 405.88L512.19 429.33L503.22 435.29L487.92 423.98Z" fill="white" stroke="#231F20" stroke-miterlimit="10"/>
<path d="M513.34 428.79L513.03 430.49C513.03 430.49 539.17 447.28 538.48 452.82L482.48 442.24L486.8 423.31C494.36 428.83 503 430.92 513.34 428.79Z" fill="#231F20"/>
<path d="M513.2 430.69C513.14 430.97 511.75 430.84 510.2 431.48C508.65 432.12 507.75 433.17 507.52 433.01C507.29 432.85 508 431.31 509.85 430.56C511.7 429.81 513.31 430.44 513.2 430.69Z" fill="#263238"/>
<path d="M518.61 434.29C518.61 434.57 517.35 434.82 516.2 435.83C515.05 436.84 514.55 438.04 514.28 437.98C514.01 437.92 514.13 436.3 515.58 435.07C517.03 433.84 518.66 434 518.61 434.29Z" fill="#263238"/>
<path d="M520.61 442.12C520.35 442.12 520.23 440.66 521.22 439.26C522.21 437.86 523.6 437.49 523.67 437.74C523.74 437.99 522.8 438.67 522.01 439.83C521.22 440.99 520.89 442.14 520.61 442.12Z" fill="#263238"/>
<path d="M437.46 283.19L496.58 320.7L486.75 423.31L517.86 427.88L536.19 328.23C536.19 328.23 541.06 309.65 530.71 299.35C518.54 287.25 476.08 247 476.08 247L480.83 237.47L435.59 208L425.59 214C416.38 221.29 410.67 229.7 409.16 241.34C408.951 242.952 408.828 244.575 408.79 246.2C408.633 250.641 409.396 255.067 411.03 259.2C415.86 271.27 437.46 283.19 437.46 283.19Z" fill="#231F20"/>
<path d="M495.88 321C495.88 321 495.78 321 495.61 320.85L494.85 320.38L492 318.54L481.45 311.54L446.74 288.36L427.67 275.55L419.32 270C418.057 269.137 416.9 268.131 415.87 267C414.909 265.97 414.029 264.867 413.24 263.7C410.902 260.144 409.42 256.095 408.91 251.87C408.71 250.328 408.677 248.769 408.81 247.22C408.822 247.323 408.822 247.427 408.81 247.53V248.42C408.832 249.564 408.918 250.706 409.07 251.84C409.651 256.009 411.169 259.992 413.51 263.49C414.291 264.636 415.164 265.716 416.12 266.72C417.139 267.827 418.287 268.807 419.54 269.64L427.88 275.21L447 288L481.61 311.3L492.07 318.41L494.9 320.41L495.63 320.93C495.715 320.947 495.798 320.971 495.88 321Z" fill="#455B64"/>
<path d="M451.67 225.33C452.132 225.596 452.57 225.9 452.98 226.24C453.8 226.86 454.98 227.78 456.37 228.96C459.2 231.3 462.97 234.68 467.04 238.52C471.11 242.36 474.73 245.91 477.33 248.52L480.39 251.59C480.781 251.954 481.142 252.348 481.47 252.77C481.035 252.472 480.627 252.138 480.25 251.77L477.07 248.77L466.69 238.92C462.62 235.09 458.89 231.67 456.13 229.26C454.76 228.05 453.63 227.09 452.85 226.42C452.426 226.092 452.031 225.727 451.67 225.33Z" fill="#455B64"/>
<path d="M526 76.44C525.858 74.4512 525.059 72.5659 523.73 71.08C522.326 69.368 520.484 68.0686 518.4 67.32C516.483 66.6755 514.423 66.5783 512.454 67.0394C510.484 67.5004 508.682 68.5014 507.25 69.93C505.86 71.3865 504.912 73.2066 504.514 75.1798C504.115 77.153 504.284 79.1986 505 81.08C506.5 84.82 511.5 88.52 515.54 88.78L521.4 84C523.94 82.22 526 79.5 526 76.44Z" fill="#263238"/>
<path d="M552.77 81.34C547.99 77.53 542.25 76.95 536.18 77.4C530.104 77.9352 524.336 80.3148 519.65 84.22C514.673 88.2252 511.158 93.7618 509.65 99.97C508.925 103.083 508.842 106.31 509.404 109.456C509.966 112.602 511.162 115.601 512.92 118.27C517.86 125.5 527.28 129.18 535.92 128.03C544.56 126.88 552.29 121.29 556.8 113.9C559.984 108.8 561.456 102.815 561 96.82C560.752 93.8118 559.89 90.8862 558.468 88.2239C557.045 85.5615 555.093 83.2187 552.73 81.34" fill="#263238"/>
<path d="M528 90.63C529.88 89.07 530.81 86.69 532.29 84.76C535.54 80.51 541.39 78.91 546.78 79.54C551.78 80.13 556.56 83.27 560.6 87.54C563.438 90.4377 565.395 94.0828 566.24 98.05C566.716 100.663 566.549 103.353 565.755 105.888C564.961 108.422 563.562 110.726 561.68 112.6L539.52 95.8C536.25 96.38 532.9 96.96 529.6 96.46C528.619 96.3674 527.679 96.0229 526.87 95.46C526.476 95.1734 526.173 94.7799 525.996 94.3263C525.818 93.8726 525.775 93.3777 525.87 92.9C526.13 91.88 527.16 91.3 528 90.63Z" fill="#263238"/>
<path d="M557.44 94.38L534 87.07C532.996 86.5887 531.848 86.5004 530.782 86.8223C529.716 87.1443 528.81 87.8533 528.24 88.81L503.57 133.67C501.88 136.737 501.267 140.283 501.83 143.74L502.41 147.4C503.75 155.73 513.32 160.29 520.41 155.76C520.83 155.511 521.214 155.204 521.55 154.85C521.819 154.567 522.073 154.27 522.31 153.96L529.83 141.96C529.83 141.96 539.01 145.67 547.29 135.96C551.4 131.15 556.47 122.25 560.37 114.82C563.89 108.18 564.37 97.66 557.44 94.38Z" fill="white" stroke="#231F20" stroke-linejoin="round"/>
<path d="M552.26 120.63C551.61 121.79 550.44 122.39 549.65 121.97C548.86 121.55 548.73 120.26 549.37 119.1C550.01 117.94 551.19 117.34 551.99 117.77C552.79 118.2 552.91 119.47 552.26 120.63Z" fill="#263238"/>
<path d="M555.68 118.24C555.39 118.31 554.8 116.9 553.3 115.99C551.8 115.08 550.24 115.15 550.18 114.87C550.18 114.74 550.53 114.52 551.18 114.47C552.102 114.424 553.017 114.661 553.8 115.15C554.584 115.614 555.2 116.314 555.56 117.15C555.85 117.79 555.81 118.21 555.68 118.24Z" fill="#263238"/>
<path d="M540.75 114C540.544 114.448 540.175 114.801 539.718 114.987C539.261 115.173 538.75 115.177 538.29 115C537.89 114.713 537.621 114.279 537.54 113.794C537.459 113.308 537.574 112.811 537.86 112.41C538.066 111.96 538.432 111.603 538.886 111.407C539.341 111.212 539.851 111.191 540.32 111.35C540.525 111.493 540.7 111.676 540.833 111.888C540.966 112.1 541.056 112.337 541.096 112.584C541.136 112.831 541.126 113.084 541.067 113.327C541.007 113.57 540.899 113.799 540.75 114Z" fill="#263238"/>
<path d="M544.28 109.75C544 109.82 543.41 108.41 541.9 107.5C540.39 106.59 538.84 106.66 538.79 106.38C538.79 106.25 539.13 106.03 539.79 105.98C540.716 105.932 541.634 106.17 542.42 106.66C543.201 107.127 543.816 107.826 544.18 108.66C544.46 109.3 544.42 109.72 544.28 109.75Z" fill="#263238"/>
<path d="M538.64 122.57C539.467 123.074 540.241 123.66 540.95 124.32C541.3 124.61 541.65 124.86 541.87 124.75C542.09 124.64 542.27 124.26 542.41 123.82L543.41 121.04C544.86 117.11 546.19 114.04 546.41 114.11C546.63 114.18 545.56 117.48 544.1 121.4C543.74 122.4 543.39 123.28 543.1 124.16C542.94 124.55 542.82 125.07 542.27 125.27C542.118 125.309 541.96 125.313 541.806 125.284C541.652 125.254 541.507 125.192 541.38 125.1C541.163 124.963 540.962 124.802 540.78 124.62C540 124.009 539.284 123.323 538.64 122.57Z" fill="#263238" stroke="#263238" stroke-width="0.5" stroke-miterlimit="10"/>
<path d="M529.84 142C524.668 138.966 520.424 134.574 517.57 129.3" stroke="#231F20" stroke-miterlimit="10"/>
<path d="M525.9 85.29C531.59 80.21 545.9 76.93 552.27 81.29L559.27 93.76C557.863 95.347 556.054 96.5254 554.034 97.1712C552.014 97.817 549.857 97.9064 547.79 97.43C545.58 96.9 543.22 95.73 541.17 96.67C539.12 97.61 538.37 100.39 536.32 101.44C533.49 102.91 529.53 100.44 526.96 102.32C525.83 103.14 525.32 104.6 524.18 105.39C522.66 106.45 517.85 106.12 516.59 104.74C515.33 103.36 516.83 100.74 517.12 99.12C517.378 97.2208 518.295 95.4724 519.71 94.18C522.14 91.49 523.19 87.72 525.9 85.29Z" fill="#263238"/>
<path d="M520.34 104.79C518.34 103.16 514.43 100.99 511.13 106.31C508.42 110.7 511.38 116.79 514.74 117.63" fill="white"/>
<path d="M520.34 104.79C518.34 103.16 514.43 100.99 511.13 106.31C508.42 110.7 511.38 116.79 514.74 117.63" stroke="#231F20" stroke-linejoin="round"/>
<path d="M514.58 112.32C514.58 112.32 514.39 112.32 514.11 112.32C513.914 112.297 513.724 112.234 513.552 112.136C513.381 112.038 513.23 111.907 513.11 111.75C512.5 110.98 512.6 109.35 513.37 108.02C513.744 107.387 514.252 106.844 514.86 106.43C515.071 106.244 515.325 106.113 515.598 106.047C515.872 105.981 516.157 105.982 516.43 106.05C516.603 106.101 516.753 106.21 516.854 106.36C516.954 106.51 516.999 106.691 516.98 106.87C516.98 107.13 516.82 107.25 516.85 107.29C516.88 107.33 517.08 107.29 517.21 106.93C517.285 106.723 517.285 106.497 517.21 106.29C517.098 106.011 516.883 105.786 516.61 105.66C516.278 105.542 515.921 105.508 515.573 105.56C515.224 105.612 514.893 105.75 514.61 105.96C513.906 106.397 513.322 107.002 512.91 107.72C512.05 109.21 511.91 111.06 512.84 112.02C513.004 112.199 513.206 112.339 513.43 112.431C513.655 112.523 513.898 112.563 514.14 112.55C514.45 112.49 514.59 112.35 514.58 112.32Z" stroke="#231F20" stroke-width="0.5" stroke-linejoin="round"/>
<path d="M513.46 91.4C513.651 90.5479 513.99 89.7357 514.46 89C516.498 85.2881 519.734 82.3764 523.64 80.74C524.429 80.3579 525.278 80.1144 526.15 80.02C526.23 80.19 522.3 81.26 518.73 84.52C515.16 87.78 513.63 91.5 513.46 91.4Z" fill="#ED1C24" stroke="#231F20" stroke-miterlimit="10"/>
<path d="M558.29 90.25C557.29 93.68 559.82 100.2 560.56 103.71C561.98 110.42 561.92 112.35 556.25 122.43C560.05 119.98 563.38 117.35 565.43 113.34C567.559 109.297 568.118 104.61 567 100.18C566.407 97.9663 565.312 95.919 563.799 94.1969C562.287 92.4748 560.399 91.1243 558.28 90.25" fill="#263238"/>
<path d="M509.22 68.75C509.22 68.75 509.43 68.53 509.92 68.3C510.633 68.001 511.397 67.8447 512.17 67.84C513.331 67.8395 514.475 68.1137 515.51 68.64C516.768 69.3108 517.84 70.2832 518.63 71.47C519.995 73.6081 520.666 76.1159 520.55 78.65C520.584 79.6652 520.449 80.6791 520.15 81.65C520.04 81.65 520.15 80.47 520.15 78.65C520.132 76.2316 519.439 73.8663 518.15 71.82C517.423 70.7177 516.442 69.8056 515.29 69.16C514.344 68.6443 513.296 68.3438 512.22 68.28C511.201 68.2774 510.189 68.436 509.22 68.75Z" fill="#455B64"/>
<path d="M506.42 83.14C506.083 82.3405 506.009 81.4542 506.21 80.61C506.595 78.5461 507.709 76.6896 509.35 75.38C510.983 74.1109 512.88 73.2226 514.9 72.78C515.714 72.5216 516.566 72.4033 517.42 72.43C516.644 72.7504 515.845 73.0111 515.03 73.21C513.122 73.7577 511.334 74.6601 509.76 75.87C508.227 77.0985 507.139 78.7948 506.66 80.7C506.526 81.5072 506.446 82.3223 506.42 83.14Z" fill="#455B64"/>
<path d="M530.33 120.72C530.42 120.72 530.39 121.48 530.58 122.62C530.802 124.041 531.346 125.392 532.17 126.57C532.877 127.57 533.892 128.312 535.06 128.68C535.88 128.92 536.42 128.85 536.44 128.98C536.46 129.11 535.93 129.34 535.03 129.23C534.374 129.119 533.747 128.876 533.188 128.515C532.63 128.154 532.15 127.683 531.78 127.13C530.86 125.816 530.307 124.279 530.18 122.68C530.061 122.025 530.113 121.35 530.33 120.72Z" fill="#263238" stroke="#263238" stroke-miterlimit="10"/>
<path d="M554.62 211.21C554.62 211.21 547.62 220.14 544.87 221.42C542.12 222.7 519.87 223.06 520.01 222.87C520.15 222.68 527.57 209.37 527.57 209.37L535.57 210.42L539.33 204.02L544.77 196.96L549.33 196.65L554.62 211.21Z" fill="white" stroke="#231F20" stroke-linejoin="round"/>
<path d="M543.82 194C543.82 194 553.59 191.95 553.82 192.06L553.16 194.2C552.734 195.407 551.943 196.451 550.896 197.188C549.85 197.924 548.6 198.316 547.32 198.31L545.13 200.51C545.13 200.51 548.76 211.58 545.72 215.76C542.68 219.94 535.61 210.45 535.61 210.45C535.61 210.45 538.52 202.45 538.61 202.12C538.7 201.79 543.82 194 543.82 194Z" fill="white"/>
<path d="M553.79 192C553.79 192 556.03 192.35 556.33 194.18C556.377 195.522 555.924 196.833 555.06 197.86C553.972 199.06 552.695 200.073 551.28 200.86C549.71 201.47 548.41 202.23 547.58 200.86C546.42 198.98 547.78 198.23 547.78 198.23L553.79 192Z" fill="white" stroke="#231F20" stroke-linejoin="round"/>
<path d="M555.42 197.39C555.42 197.39 559.17 198.7 556.75 202.08C554.33 205.46 550.12 206.71 548.41 205.84C546.7 204.97 546.18 204.5 545.9 203.4C545.62 202.3 547.24 201.32 548.14 201.47C549.04 201.62 555.42 197.39 555.42 197.39Z" fill="white" stroke="#231F20" stroke-linejoin="round"/>
<path d="M556.33 200.36C556.757 200.471 557.148 200.692 557.463 201C557.779 201.309 558.008 201.694 558.128 202.119C558.249 202.544 558.256 202.992 558.149 203.42C558.042 203.849 557.825 204.242 557.52 204.56C555.35 207.56 551.59 208.7 550.06 207.93C548.53 207.16 548.06 206.72 547.81 205.74C547.56 204.76 549.01 203.88 549.81 204.01C550.61 204.14 556.33 200.36 556.33 200.36Z" fill="white" stroke="#231F20" stroke-linejoin="round"/>
<path d="M556.49 204.33C556.917 204.441 557.308 204.662 557.623 204.97C557.939 205.279 558.168 205.665 558.288 206.089C558.409 206.514 558.416 206.962 558.309 207.391C558.202 207.819 557.985 208.212 557.68 208.53C555.51 211.53 551.74 212.68 550.22 211.9C548.7 211.12 548.22 210.7 547.97 209.71C547.72 208.72 549.17 207.85 549.97 207.99C550.77 208.13 556.49 204.33 556.49 204.33Z" fill="white" stroke="#231F20" stroke-linejoin="round"/>
<path d="M505.32 203.89L534 206.43L531.53 223.62C531.53 223.62 500.1 223.09 495.59 222.57C491.08 222.05 490.44 214.9 490.44 214.9L505.32 203.89Z" fill="#ED1C24" stroke="#231F20" stroke-linejoin="round"/>
<path d="M524.4 151L504.82 131.34L487.82 128.52C485.677 128.18 483.493 128.18 481.35 128.52C472.35 130.13 469.63 137.04 466.43 144.52L448.84 185.43L434.45 202C434.45 202 427.8 199.68 430.54 209.06L476.31 240.14C477.572 241.129 479.166 241.594 480.761 241.44C482.357 241.285 483.832 240.523 484.88 239.31L497.82 222.77C497.82 222.77 518.59 204.09 523.18 192.98C527.77 181.87 524.4 151 524.4 151Z" fill="#ED1C24" stroke="#231F20" stroke-miterlimit="10"/>
<g style="mix-blend-mode:multiply" opacity="0.15">
<path d="M450.06 200C450.06 200 448.85 212.77 460.81 218.19C472.77 223.61 511.26 209.09 511.26 209.09L518.45 200.57L450.06 200Z" fill="#010101"/>
</g>
<path d="M516.91 180.25L481.64 187.88L491.3 160.69C491.3 160.69 497.9 142.95 497.06 137.69C496.37 133.28 491.46 127.69 484.78 128.34C483.11 128.5 480.31 128.52 478.59 129.34C472.82 132.08 469.59 136.51 467.31 142.47C463.68 151.9 458.31 168.22 457.37 170.47C457.37 170.47 450.64 192.6 450.17 196.3C449.02 205.3 457.08 217.3 470 215.17C483.47 212.91 521 200.78 521 200.78L516.91 180.25Z" fill="#ED1C24" stroke="#231F20" stroke-miterlimit="10"/>
<path d="M483.3 187.26C482.485 187.705 481.644 188.099 480.78 188.44C478.76 189.37 476.815 190.453 474.96 191.68C473.109 192.915 471.357 194.293 469.72 195.8C469.072 196.464 468.387 197.091 467.67 197.68C468.174 196.891 468.779 196.172 469.47 195.54C472.637 192.317 476.437 189.784 480.63 188.1C481.48 187.706 482.377 187.423 483.3 187.26Z" fill="#263238"/>
<path d="M464.6 149.77C464.6 149.77 464.55 149.97 464.44 150.34C464.33 150.71 464.14 151.29 463.91 152C463.44 153.47 462.74 155.61 461.85 158.35C460.06 163.86 457.44 171.84 454.32 181.72C453.55 184.19 452.73 186.78 451.93 189.49C451.502 190.859 451.151 192.251 450.88 193.66C450.666 195.134 450.549 196.621 450.53 198.11C450.439 201.236 451.24 204.323 452.84 207.01C453.676 208.405 454.729 209.657 455.96 210.72C456.592 211.265 457.26 211.766 457.96 212.22C458.31 212.45 458.68 212.64 459.05 212.85C459.41 213.068 459.788 213.256 460.18 213.41C461.742 214.113 463.4 214.582 465.1 214.8C465.962 214.907 466.831 214.954 467.7 214.94C468.14 214.94 468.58 214.94 469.02 214.89L470.33 214.74C473.85 214.18 477.42 213.29 481.02 212.37C484.62 211.45 488.28 210.42 492.02 209.37C495.76 208.32 499.48 207.24 503.24 206.03L520.94 200.5L520.76 200.8C519.37 193.7 518.03 186.85 516.76 180.3L517.06 180.5L481.77 188.08L481.43 188.15L481.54 187.82L491 160.88C492.13 157.71 493 155.24 493.62 153.55C493.92 152.72 494.15 152.09 494.32 151.64C494.49 151.19 494.57 151 494.57 151C494.57 151 494.51 151.23 494.37 151.66L493.73 153.58L491.17 161C488.96 167.4 485.76 176.63 481.82 188L481.6 187.75L516.86 180H517.11V180.24C518.41 186.78 519.76 193.64 521.16 200.73V200.95L521 201L503.31 206.54C499.54 207.74 495.78 208.81 492.08 209.88C488.38 210.95 484.71 211.96 481.08 212.88C477.45 213.8 473.9 214.68 470.34 215.24L468.99 215.4C468.54 215.425 468.09 215.425 467.64 215.4C466.744 215.418 465.849 215.372 464.96 215.26C463.215 215.025 461.514 214.536 459.91 213.81C459.507 213.654 459.119 213.464 458.75 213.24C458.38 213.02 457.99 212.83 457.63 212.59C456.926 212.123 456.258 211.605 455.63 211.04C454.367 209.941 453.286 208.649 452.43 207.21C450.796 204.447 449.978 201.278 450.07 198.07C450.069 195.102 450.562 192.155 451.53 189.35C452.33 186.63 453.16 184.05 453.95 181.58C457.12 171.71 459.79 163.75 461.64 158.26C462.57 155.53 463.3 153.4 463.79 151.94C464.04 151.23 464.23 150.68 464.37 150.3C464.51 149.92 464.6 149.77 464.6 149.77Z" fill="#231F20" stroke="#231F20" stroke-linejoin="round"/>
<path d="M489.88 128.63C490.172 128.671 490.453 128.766 490.71 128.91C491.42 129.232 492.092 129.635 492.71 130.11C494.852 131.691 496.401 133.944 497.11 136.51C497.389 137.942 497.409 139.411 497.17 140.85C497 142.005 496.767 143.15 496.47 144.28C496.253 145.333 495.942 146.363 495.54 147.36C495.655 146.294 495.845 145.238 496.11 144.2C496.31 143.2 496.54 142.07 496.69 140.79C497.048 138.838 496.843 136.825 496.099 134.985C495.355 133.145 494.104 131.555 492.49 130.4C491.65 129.767 490.779 129.176 489.88 128.63Z" fill="#231F20"/>
<path d="M497.82 222.8C498.028 222.477 498.281 222.184 498.57 221.93L500.73 219.72C502.56 217.85 505.09 215.28 507.82 212.38C510.55 209.48 512.98 206.81 514.73 204.87L516.81 202.58C517.3 202.04 517.59 201.75 517.62 201.78C517.436 202.114 517.215 202.426 516.96 202.71C516.52 203.29 515.85 204.11 514.96 205.11C513.28 207.11 510.9 209.84 508.15 212.74C505.4 215.64 502.83 218.18 500.93 219.98C499.93 220.88 499.21 221.6 498.66 222.08C498.406 222.348 498.124 222.59 497.82 222.8Z" fill="#263238"/>
<path d="M554.65 297.33C554.65 282.33 554.65 267.33 554.19 252.33C553.89 241.6 553.42 230.85 552.19 220.18C551.439 212.397 549.912 204.709 547.63 197.23C544.97 189.1 540.51 181.69 535.9 174.54C532.11 168.69 527.8 163.21 523.47 157.75C518.66 151.75 513.84 145.63 508.66 139.88C506.23 137.19 503.73 134.56 501.08 132.07C498.43 129.58 495.5 126.88 492.02 125.37C485.02 122.37 477.66 124.68 471.55 128.73C465.44 132.78 460.32 138.09 455.08 143.3L432.08 166.14L399.23 198.75L362.4 235.31L327.43 270L300.21 297L286.58 310.53L285.98 311.13C283.83 313.26 287.16 316.59 289.31 314.45L298.67 305.16L322.77 281.24L355.92 248.33L392.64 211.89L426.83 177.89L453 152C457.17 147.86 461.32 143.69 465.52 139.58C467.224 137.952 469.021 136.423 470.9 135C476.07 131 482.71 127 489.41 129.41C492.67 130.58 495.29 133.12 497.76 135.41C500.52 138 503.12 140.75 505.65 143.56C510.71 149.21 515.43 155.15 520.14 161.09C527.58 170.46 534.63 180.2 540.02 190.92C540.34 191.56 540.65 192.21 540.95 192.86C541.1 193.2 541.25 193.53 541.39 193.86C541.64 194.43 541.2 193.39 541.44 193.98L541.65 194.49C542.25 195.99 542.793 197.51 543.28 199.05C544.333 202.417 545.187 205.843 545.84 209.31C547.436 218.136 548.438 227.06 548.84 236.02C549.58 248.66 549.78 261.33 549.89 274.02C549.96 281.8 549.97 289.58 549.98 297.36C549.98 300.36 554.68 300.36 554.68 297.36L554.65 297.33Z" fill="#455B64"/>
<path d="M319.11 285C318.97 285.06 318.54 284 317.57 283.1C316.6 282.2 315.57 281.88 315.57 281.73C316.016 281.695 316.464 281.768 316.877 281.942C317.289 282.116 317.654 282.386 317.94 282.73C318.285 283.004 318.567 283.348 318.769 283.739C318.97 284.131 319.087 284.56 319.11 285Z" fill="#263238"/>
<path d="M316.56 287.72C316.41 287.78 315.98 286.72 315.02 285.82C314.393 285.308 313.724 284.85 313.02 284.45C313.468 284.414 313.918 284.487 314.332 284.661C314.746 284.835 315.112 285.105 315.4 285.45C315.743 285.725 316.023 286.069 316.223 286.461C316.423 286.852 316.538 287.281 316.56 287.72Z" fill="#263238"/>
<path d="M313.71 290.42C313.57 290.48 313.14 289.42 312.17 288.51C311.2 287.6 310.17 287.3 310.17 287.15C310.17 287 311.46 287.08 312.54 288.15C312.885 288.424 313.167 288.768 313.369 289.159C313.57 289.551 313.687 289.98 313.71 290.42Z" fill="#263238"/>
<path d="M311 293.25C310.85 293.31 310.42 292.25 309.45 291.35C308.48 290.45 307.45 290.13 307.45 289.98C307.896 289.945 308.344 290.018 308.757 290.192C309.169 290.366 309.534 290.636 309.82 290.98C310.165 291.255 310.448 291.599 310.651 291.99C310.854 292.381 310.973 292.81 311 293.25Z" fill="#263238"/>
<path d="M308 296.06C307.85 296.12 307.42 295.06 306.46 294.16C305.5 293.26 304.41 292.94 304.46 292.79C304.908 292.754 305.358 292.827 305.772 293.001C306.186 293.175 306.552 293.445 306.84 293.79C307.183 294.065 307.463 294.409 307.663 294.801C307.863 295.192 307.978 295.621 308 296.06Z" fill="#263238"/>
<path d="M304.93 299.11C304.79 299.16 304.36 298.11 303.39 297.2C302.762 296.693 302.093 296.238 301.39 295.84C301.39 295.69 302.68 295.77 303.76 296.84C304.105 297.114 304.387 297.458 304.589 297.849C304.79 298.241 304.907 298.67 304.93 299.11Z" fill="#263238"/>
<path d="M301.72 302.38C301.58 302.43 301.15 301.38 300.18 300.47C299.552 299.963 298.883 299.508 298.18 299.11C298.18 298.96 299.47 299.04 300.55 300.11C300.895 300.384 301.177 300.728 301.379 301.119C301.58 301.511 301.697 301.94 301.72 302.38Z" fill="#263238"/>
<path d="M298.38 305.49C298.23 305.55 297.8 304.49 296.83 303.59C295.86 302.69 294.83 302.37 294.83 302.22C295.276 302.185 295.724 302.258 296.137 302.432C296.549 302.606 296.914 302.876 297.2 303.22C297.545 303.495 297.828 303.839 298.031 304.23C298.234 304.621 298.353 305.05 298.38 305.49Z" fill="#263238"/>
<path d="M295 308.61C294.85 308.67 294.42 307.61 293.45 306.7C292.48 305.79 291.45 305.49 291.45 305.34C291.897 305.301 292.346 305.372 292.759 305.546C293.172 305.72 293.536 305.993 293.82 306.34C294.165 306.615 294.448 306.959 294.651 307.35C294.854 307.741 294.973 308.17 295 308.61Z" fill="#263238"/>
<path d="M291.68 311.73C291.53 311.73 291.1 310.73 290.13 309.82C289.502 309.313 288.833 308.858 288.13 308.46C288.577 308.422 289.026 308.493 289.439 308.667C289.852 308.841 290.216 309.113 290.5 309.46C290.845 309.734 291.129 310.078 291.333 310.469C291.536 310.86 291.654 311.29 291.68 311.73Z" fill="#263238"/>
<path d="M289.69 314.71C289.58 314.82 288.74 314.06 287.48 313.64C286.69 313.459 285.888 313.332 285.08 313.26C285.467 313.039 285.901 312.914 286.347 312.895C286.792 312.876 287.235 312.963 287.64 313.15C289.06 313.62 289.8 314.64 289.69 314.71Z" fill="#263238"/>
<path d="M289 319C288.89 319.12 288.06 318.35 286.79 317.93C286.001 317.743 285.199 317.619 284.39 317.56C284.776 317.333 285.212 317.203 285.66 317.182C286.108 317.161 286.554 317.25 286.96 317.44C288.36 317.88 289.1 318.9 289 319Z" fill="#263238"/>
<path d="M288.12 323.44C288.01 323.55 287.18 322.79 285.91 322.37C285.121 322.182 284.319 322.055 283.51 321.99C283.898 321.766 284.334 321.639 284.782 321.62C285.229 321.601 285.674 321.69 286.08 321.88C287.5 322.35 288.23 323.36 288.12 323.44Z" fill="#263238"/>
<path d="M287.15 328.28C287.05 328.39 286.21 327.62 284.95 327.21C284.159 327.017 283.352 326.89 282.54 326.83C282.928 326.607 283.364 326.48 283.812 326.461C284.259 326.442 284.704 326.531 285.11 326.72C286.53 327.19 287.26 328.2 287.15 328.28Z" fill="#263238"/>
<path d="M286.37 332.55C286.26 332.66 285.43 331.9 284.16 331.48C283.371 331.292 282.569 331.165 281.76 331.1C282.149 330.879 282.585 330.754 283.032 330.735C283.479 330.716 283.924 330.803 284.33 330.99C285.74 331.46 286.48 332.48 286.37 332.55Z" fill="#263238"/>
<path d="M285.59 336.82C285.48 336.94 284.64 336.17 283.38 335.76C282.592 335.567 281.789 335.44 280.98 335.38C281.365 335.154 281.799 335.024 282.245 335.004C282.691 334.983 283.136 335.071 283.54 335.26C285 335.74 285.7 336.75 285.59 336.82Z" fill="#263238"/>
<path d="M284.8 341.1C284.7 341.21 283.86 340.44 282.6 340.03C281.809 339.836 281.003 339.709 280.19 339.65C280.578 339.427 281.014 339.3 281.462 339.281C281.909 339.262 282.354 339.351 282.76 339.54C284.18 340 284.91 341 284.8 341.1Z" fill="#263238"/>
<path d="M284.37 345.51C284.27 345.63 283.37 344.91 282.11 344.57C281.311 344.422 280.502 344.338 279.69 344.32C280.065 344.074 280.493 343.923 280.938 343.877C281.384 343.832 281.834 343.895 282.25 344.06C283.69 344.46 284.48 345.43 284.37 345.51Z" fill="#263238"/>
<path d="M283.56 349.8C283.47 349.93 282.56 349.29 281.23 349.06C280.421 348.996 279.609 348.996 278.8 349.06C279.151 348.784 279.563 348.597 280.002 348.513C280.44 348.43 280.892 348.453 281.32 348.58C281.758 348.613 282.185 348.739 282.571 348.95C282.957 349.16 283.294 349.45 283.56 349.8Z" fill="#263238"/>
<path d="M282.69 353.38C282.6 353.5 281.69 352.86 280.36 352.63C279.548 352.569 278.732 352.569 277.92 352.63C278.274 352.356 278.687 352.169 279.127 352.086C279.567 352.002 280.02 352.024 280.45 352.15C280.889 352.185 281.316 352.312 281.702 352.524C282.088 352.736 282.425 353.028 282.69 353.38Z" fill="#263238"/>
<path d="M282.27 357.16C282.18 357.29 281.21 356.71 279.89 356.56C279.078 356.534 278.265 356.574 277.46 356.68C277.795 356.367 278.202 356.141 278.645 356.022C279.088 355.903 279.553 355.896 280 356C280.438 356.026 280.866 356.143 281.256 356.343C281.647 356.542 281.992 356.821 282.27 357.16Z" fill="#263238"/>
<path d="M281.62 360.78C281.53 360.92 280.56 360.34 279.24 360.19C278.428 360.163 277.616 360.2 276.81 360.3C277.143 360.002 277.544 359.789 277.978 359.679C278.411 359.569 278.865 359.566 279.3 359.67C279.743 359.681 280.179 359.786 280.578 359.977C280.978 360.169 281.333 360.442 281.62 360.78Z" fill="#263238"/>
<path d="M281 364.41C280.91 364.54 279.94 363.96 278.62 363.81C277.808 363.784 276.995 363.824 276.19 363.93C276.522 363.629 276.922 363.414 277.356 363.302C277.79 363.191 278.244 363.187 278.68 363.29C279.124 363.302 279.56 363.408 279.96 363.601C280.36 363.794 280.714 364.07 281 364.41Z" fill="#263238"/>
<path d="M280.32 368C280.23 368.13 279.26 367.55 277.94 367.4C277.128 367.374 276.315 367.414 275.51 367.52C275.843 367.222 276.244 367.009 276.678 366.899C277.111 366.789 277.565 366.786 278 366.89C278.443 366.901 278.879 367.006 279.278 367.197C279.678 367.389 280.033 367.662 280.32 368Z" fill="#263238"/>
<path d="M279.67 371.65C279.58 371.79 278.61 371.21 277.29 371.06C276.478 371.033 275.666 371.07 274.86 371.17C275.193 370.872 275.594 370.659 276.028 370.549C276.461 370.439 276.915 370.436 277.35 370.54C277.793 370.551 278.229 370.656 278.628 370.847C279.028 371.039 279.383 371.312 279.67 371.65Z" fill="#263238"/>
<path d="M279.08 375.87C279 376 278.02 375.42 276.7 375.27C275.888 375.244 275.075 375.284 274.27 375.39C274.604 375.093 275.004 374.88 275.438 374.769C275.871 374.657 276.324 374.651 276.76 374.75C277.203 374.765 277.639 374.872 278.038 375.065C278.438 375.257 278.793 375.532 279.08 375.87Z" fill="#263238"/>
<path d="M278.49 380.08C278.41 380.22 277.44 379.64 276.11 379.49C275.298 379.464 274.486 379.501 273.68 379.6C274.015 379.304 274.415 379.092 274.849 378.983C275.282 378.873 275.735 378.869 276.17 378.97C276.613 378.982 277.048 379.087 277.448 379.278C277.848 379.47 278.203 379.743 278.49 380.08Z" fill="#263238"/>
<path d="M277.8 384.05C277.72 384.19 276.74 383.61 275.42 383.46C274.608 383.434 273.796 383.471 272.99 383.57C273.325 383.274 273.725 383.062 274.159 382.953C274.592 382.843 275.045 382.839 275.48 382.94C275.923 382.952 276.358 383.057 276.758 383.248C277.158 383.44 277.513 383.713 277.8 384.05Z" fill="#263238"/>
<path d="M277.11 388C277.03 388.14 276.05 387.56 274.73 387.41C273.918 387.384 273.106 387.421 272.3 387.52C272.634 387.223 273.035 387.011 273.468 386.901C273.902 386.792 274.355 386.788 274.79 386.89C275.233 386.901 275.669 387.006 276.068 387.197C276.468 387.389 276.823 387.662 277.11 388Z" fill="#263238"/>
<path d="M276.42 392C276.33 392.14 275.36 391.56 274.04 391.41C273.228 391.383 272.416 391.42 271.61 391.52C271.943 391.222 272.344 391.009 272.778 390.899C273.211 390.789 273.665 390.786 274.1 390.89C274.543 390.901 274.979 391.006 275.378 391.197C275.778 391.389 276.133 391.662 276.42 392Z" fill="#263238"/>
<path d="M275.73 396C275.64 396.13 274.67 395.55 273.35 395.4C272.538 395.38 271.726 395.42 270.92 395.52C271.253 395.222 271.654 395.009 272.088 394.899C272.521 394.789 272.975 394.786 273.41 394.89C273.853 394.901 274.289 395.006 274.688 395.197C275.088 395.389 275.443 395.662 275.73 396Z" fill="#263238"/>
<path d="M275 399.93C274.92 400.06 274 399.48 272.63 399.33C271.818 399.304 271.005 399.344 270.2 399.45C270.533 399.152 270.934 398.939 271.368 398.829C271.801 398.719 272.255 398.716 272.69 398.82C273.132 398.829 273.567 398.933 273.966 399.124C274.364 399.316 274.717 399.59 275 399.93Z" fill="#263238"/>
<path d="M274.34 403.9C274.26 404.03 273.34 403.45 271.96 403.3C271.151 403.274 270.342 403.314 269.54 403.42C269.873 403.122 270.274 402.909 270.708 402.799C271.141 402.689 271.595 402.686 272.03 402.79C272.472 402.801 272.906 402.905 273.304 403.097C273.702 403.288 274.056 403.562 274.34 403.9Z" fill="#263238"/>
<path d="M273.65 407.87C273.57 408 272.65 407.42 271.27 407.27C270.458 407.245 269.645 407.285 268.84 407.39C269.175 407.094 269.575 406.882 270.009 406.773C270.442 406.663 270.895 406.659 271.33 406.76C271.773 406.77 272.21 406.873 272.61 407.065C273.01 407.256 273.364 407.531 273.65 407.87Z" fill="#263238"/>
<path d="M273 411.84C272.92 411.97 271.94 411.39 270.62 411.24C269.808 411.215 268.995 411.255 268.19 411.36C268.525 411.064 268.925 410.851 269.358 410.74C269.791 410.628 270.244 410.622 270.68 410.72C271.124 410.733 271.56 410.839 271.96 411.032C272.36 411.225 272.714 411.5 273 411.84Z" fill="#263238"/>
<path d="M272.27 415.81C272.19 415.94 271.21 415.36 269.89 415.21C269.078 415.184 268.265 415.224 267.46 415.33C267.793 415.031 268.194 414.817 268.627 414.706C269.06 414.595 269.514 414.589 269.95 414.69C270.394 414.7 270.831 414.805 271.231 414.998C271.632 415.192 271.986 415.468 272.27 415.81Z" fill="#263238"/>
<path d="M271.58 419.78C271.49 419.91 270.52 419.33 269.2 419.18C268.388 419.154 267.575 419.194 266.77 419.3C267.102 418.999 267.502 418.784 267.936 418.672C268.37 418.561 268.824 418.557 269.26 418.66C269.704 418.672 270.14 418.778 270.54 418.971C270.94 419.164 271.294 419.44 271.58 419.78Z" fill="#263238"/>
<path d="M270.89 423.75C270.8 423.88 269.83 423.3 268.51 423.15C267.698 423.124 266.885 423.164 266.08 423.27C266.412 422.969 266.812 422.754 267.246 422.642C267.68 422.531 268.134 422.527 268.57 422.63C269.014 422.642 269.45 422.748 269.85 422.941C270.25 423.134 270.604 423.41 270.89 423.75Z" fill="#263238"/>
<path d="M270.2 427.72C270.11 427.85 269.14 427.27 267.82 427.12C267.008 427.094 266.195 427.134 265.39 427.24C265.722 426.939 266.122 426.724 266.556 426.612C266.99 426.501 267.444 426.497 267.88 426.6C268.324 426.612 268.76 426.718 269.16 426.911C269.56 427.104 269.914 427.38 270.2 427.72Z" fill="#263238"/>
<path d="M269.5 431.69C269.42 431.82 268.45 431.24 267.13 431.09C266.318 431.069 265.506 431.106 264.7 431.2C265.033 430.902 265.434 430.689 265.868 430.579C266.301 430.469 266.755 430.466 267.19 430.57C267.633 430.58 268.069 430.685 268.467 430.878C268.866 431.071 269.218 431.348 269.5 431.69Z" fill="#263238"/>
<path d="M268.81 435.65C268.73 435.79 267.76 435.21 266.43 435.06C265.622 435.034 264.813 435.07 264.01 435.17C264.343 434.872 264.744 434.659 265.178 434.549C265.611 434.439 266.065 434.436 266.5 434.54C266.941 434.553 267.375 434.658 267.773 434.849C268.171 435.041 268.524 435.313 268.81 435.65Z" fill="#263238"/>
<path d="M268.12 439.62C268.04 439.76 267.07 439.18 265.74 439.03C264.928 439.004 264.116 439.041 263.31 439.14C263.645 438.844 264.045 438.632 264.479 438.523C264.912 438.413 265.365 438.409 265.8 438.51C266.243 438.522 266.678 438.627 267.078 438.818C267.478 439.01 267.833 439.283 268.12 439.62Z" fill="#263238"/>
<path d="M267.43 443.59C267.35 443.73 266.37 443.15 265.05 443C264.238 442.974 263.426 443.011 262.62 443.11C262.955 442.814 263.355 442.602 263.789 442.493C264.222 442.383 264.675 442.379 265.11 442.48C265.553 442.49 265.99 442.593 266.39 442.785C266.79 442.976 267.144 443.251 267.43 443.59Z" fill="#263238"/>
<path d="M322 282.17C321.86 282.23 321.43 281.17 320.46 280.27C319.49 279.37 318.46 279.05 318.46 278.9C318.906 278.865 319.354 278.938 319.767 279.112C320.179 279.286 320.544 279.556 320.83 279.9C321.175 280.174 321.457 280.518 321.659 280.909C321.86 281.301 321.977 281.73 322 282.17Z" fill="#263238"/>
<path d="M324.7 279.44C324.55 279.49 324.12 278.44 323.15 277.53C322.522 277.023 321.853 276.568 321.15 276.17C321.597 276.132 322.046 276.203 322.459 276.377C322.872 276.551 323.236 276.823 323.52 277.17C323.863 277.446 324.145 277.79 324.348 278.181C324.551 278.572 324.671 279.001 324.7 279.44Z" fill="#263238"/>
<path d="M327.43 276.7C327.29 276.76 326.86 275.7 325.89 274.8C324.92 273.9 323.89 273.58 323.89 273.43C324.336 273.395 324.784 273.468 325.197 273.642C325.609 273.816 325.974 274.086 326.26 274.43C326.605 274.704 326.887 275.048 327.089 275.439C327.29 275.831 327.407 276.26 327.43 276.7Z" fill="#263238"/>
<path d="M330.17 274C330.02 274 329.59 273 328.62 272.09C327.992 271.583 327.323 271.128 326.62 270.73C327.067 270.692 327.516 270.763 327.929 270.937C328.342 271.111 328.706 271.383 328.99 271.73C329.333 272.006 329.615 272.35 329.818 272.741C330.021 273.132 330.141 273.561 330.17 274Z" fill="#263238"/>
<path d="M332.9 271.23C332.76 271.29 332.33 270.23 331.36 269.33C330.39 268.43 329.36 268.11 329.36 267.96C329.806 267.925 330.254 267.998 330.667 268.172C331.079 268.346 331.444 268.616 331.73 268.96C332.075 269.234 332.357 269.578 332.559 269.969C332.76 270.361 332.877 270.79 332.9 271.23Z" fill="#263238"/>
<path d="M335.64 268.5C335.49 268.55 335.06 267.5 334.09 266.59C333.462 266.083 332.793 265.628 332.09 265.23C332.537 265.191 332.986 265.262 333.399 265.436C333.812 265.61 334.176 265.883 334.46 266.23C334.805 266.505 335.088 266.849 335.291 267.24C335.494 267.631 335.613 268.06 335.64 268.5Z" fill="#263238"/>
<path d="M338.37 265.76C338.23 265.82 337.8 264.76 336.83 263.86C335.86 262.96 334.83 262.64 334.83 262.49C335.276 262.455 335.724 262.528 336.137 262.702C336.549 262.876 336.914 263.146 337.2 263.49C337.545 263.764 337.827 264.108 338.029 264.499C338.23 264.891 338.347 265.32 338.37 265.76Z" fill="#263238"/>
<path d="M341.11 263C340.96 263.05 340.53 262 339.56 261.09C338.932 260.583 338.263 260.128 337.56 259.73C338.007 259.691 338.456 259.762 338.869 259.936C339.282 260.11 339.646 260.383 339.93 260.73C340.275 261.005 340.558 261.349 340.761 261.74C340.964 262.131 341.083 262.56 341.11 263Z" fill="#263238"/>
<path d="M343.84 260.29C343.7 260.35 343.27 259.29 342.3 258.39C341.33 257.49 340.3 257.17 340.3 257.02C340.746 256.985 341.194 257.058 341.607 257.232C342.019 257.406 342.384 257.676 342.67 258.02C343.015 258.294 343.297 258.638 343.499 259.029C343.7 259.421 343.817 259.85 343.84 260.29Z" fill="#263238"/>
<path d="M346.58 257.56C346.43 257.61 346 256.56 345.03 255.65C344.402 255.143 343.733 254.688 343.03 254.29C343.03 254.14 344.32 254.22 345.4 255.29C345.745 255.565 346.028 255.909 346.231 256.3C346.434 256.691 346.553 257.12 346.58 257.56Z" fill="#263238"/>
<path d="M349.31 254.82C349.17 254.88 348.74 253.82 347.77 252.92C347.14 252.412 346.471 251.954 345.77 251.55C346.218 251.514 346.668 251.586 347.082 251.76C347.496 251.934 347.862 252.205 348.15 252.55C348.493 252.825 348.773 253.169 348.973 253.561C349.173 253.952 349.288 254.381 349.31 254.82Z" fill="#263238"/>
<path d="M352.05 252.09C351.9 252.15 351.47 251.09 350.5 250.18C349.53 249.27 348.5 248.97 348.5 248.82C348.5 248.67 349.79 248.75 350.87 249.82C351.215 250.095 351.498 250.439 351.701 250.83C351.904 251.221 352.023 251.65 352.05 252.09Z" fill="#263238"/>
<path d="M354.9 249.51C354.75 249.56 354.32 248.51 353.35 247.6C352.722 247.093 352.053 246.638 351.35 246.24C351.797 246.202 352.246 246.273 352.659 246.447C353.072 246.621 353.436 246.893 353.72 247.24C354.064 247.515 354.347 247.859 354.55 248.25C354.753 248.641 354.872 249.07 354.9 249.51Z" fill="#263238"/>
<path d="M357.69 246.77C357.55 246.83 357.12 245.77 356.15 244.87C355.18 243.97 354.15 243.65 354.15 243.5C354.596 243.465 355.044 243.538 355.457 243.712C355.869 243.886 356.234 244.156 356.52 244.5C356.865 244.774 357.147 245.118 357.349 245.509C357.55 245.901 357.667 246.33 357.69 246.77Z" fill="#263238"/>
<path d="M360.41 244C360.26 244.05 359.83 243 358.86 242.09C358.232 241.583 357.563 241.128 356.86 240.73C356.86 240.58 358.15 240.66 359.23 241.73C359.574 242.005 359.857 242.349 360.06 242.74C360.263 243.131 360.382 243.56 360.41 244Z" fill="#263238"/>
<path d="M363.09 241.23C362.94 241.29 362.51 240.23 361.54 239.33C360.57 238.43 359.54 238.11 359.54 237.96C359.986 237.925 360.434 237.998 360.847 238.172C361.259 238.346 361.624 238.616 361.91 238.96C362.255 239.235 362.538 239.579 362.741 239.97C362.944 240.361 363.063 240.79 363.09 241.23Z" fill="#263238"/>
<path d="M365.91 238.42C365.76 238.47 365.33 237.42 364.36 236.51C363.732 236.003 363.063 235.548 362.36 235.15C362.807 235.112 363.256 235.183 363.669 235.357C364.082 235.531 364.446 235.803 364.73 236.15C365.076 236.423 365.36 236.767 365.563 237.158C365.767 237.55 365.885 237.98 365.91 238.42Z" fill="#263238"/>
<path d="M368.56 235.82C368.41 235.87 367.98 234.82 367.01 233.91C366.382 233.403 365.713 232.948 365.01 232.55C365.01 232.4 366.3 232.48 367.38 233.55C367.724 233.825 368.007 234.169 368.21 234.56C368.413 234.951 368.532 235.38 368.56 235.82Z" fill="#263238"/>
<path d="M371.38 233.17C371.23 233.23 370.8 232.17 369.83 231.27C368.86 230.37 367.83 230.05 367.83 229.9C368.276 229.864 368.725 229.937 369.137 230.111C369.55 230.285 369.914 230.555 370.2 230.9C370.545 231.175 370.828 231.519 371.031 231.91C371.234 232.301 371.353 232.73 371.38 233.17Z" fill="#263238"/>
<path d="M373.92 230.21C373.78 230.27 373.35 229.21 372.38 228.31C371.41 227.41 370.38 227.09 370.38 226.94C370.826 226.905 371.274 226.978 371.687 227.152C372.099 227.326 372.464 227.596 372.75 227.94C373.095 228.214 373.377 228.558 373.579 228.949C373.78 229.341 373.897 229.77 373.92 230.21Z" fill="#263238"/>
<path d="M377 227.64C376.85 227.69 376.42 226.64 375.46 225.73C374.831 225.224 374.162 224.769 373.46 224.37C373.908 224.332 374.359 224.403 374.773 224.577C375.188 224.751 375.554 225.023 375.84 225.37C376.181 225.646 376.461 225.991 376.661 226.382C376.861 226.773 376.976 227.202 377 227.64Z" fill="#263238"/>
<path d="M379.66 225.12C379.51 225.17 379.08 224.12 378.12 223.21C377.491 222.704 376.822 222.249 376.12 221.85C376.567 221.811 377.016 221.882 377.429 222.056C377.842 222.23 378.206 222.503 378.49 222.85C378.835 223.124 379.118 223.468 379.32 223.859C379.521 224.25 379.637 224.68 379.66 225.12Z" fill="#263238"/>
<path d="M382.16 222.51C382.02 222.56 381.59 221.51 380.62 220.6C379.994 220.089 379.325 219.634 378.62 219.24C379.068 219.202 379.519 219.273 379.933 219.447C380.348 219.621 380.714 219.893 381 220.24C381.341 220.516 381.621 220.861 381.821 221.252C382.021 221.643 382.136 222.072 382.16 222.51Z" fill="#263238"/>
<path d="M385 219.58C384.85 219.63 384.42 218.58 383.45 217.67C382.822 217.163 382.153 216.708 381.45 216.31C381.897 216.272 382.346 216.343 382.759 216.517C383.172 216.691 383.536 216.963 383.82 217.31C384.164 217.585 384.447 217.929 384.65 218.32C384.853 218.711 384.972 219.14 385 219.58Z" fill="#263238"/>
<path d="M387.91 216.85C387.76 216.91 387.33 215.85 386.36 214.95C385.39 214.05 384.36 213.73 384.36 213.58C384.806 213.544 385.255 213.617 385.667 213.791C386.08 213.965 386.444 214.235 386.73 214.58C387.075 214.855 387.358 215.199 387.561 215.59C387.764 215.981 387.883 216.41 387.91 216.85Z" fill="#263238"/>
<path d="M390.63 214C390.49 214.05 390.06 213 389.09 212.09C388.12 211.18 387.09 210.88 387.09 210.73C387.09 210.58 388.38 210.66 389.46 211.73C389.805 212.004 390.087 212.348 390.289 212.739C390.49 213.131 390.607 213.56 390.63 214Z" fill="#263238"/>
<path d="M393.07 211.39C392.92 211.44 392.49 210.39 391.52 209.48C390.892 208.973 390.223 208.518 389.52 208.12C389.967 208.082 390.416 208.153 390.829 208.327C391.242 208.501 391.606 208.773 391.89 209.12C392.233 209.396 392.515 209.74 392.718 210.131C392.921 210.522 393.041 210.951 393.07 211.39Z" fill="#263238"/>
<path d="M396 208.69C395.86 208.74 395.43 207.69 394.46 206.78C393.832 206.273 393.163 205.818 392.46 205.42C392.46 205.27 393.75 205.35 394.83 206.42C395.175 206.694 395.457 207.038 395.659 207.429C395.86 207.821 395.977 208.25 396 208.69Z" fill="#263238"/>
<path d="M398.79 205.9C398.65 205.96 398.22 204.9 397.25 203.99C396.28 203.08 395.25 202.78 395.25 202.63C395.696 202.595 396.144 202.668 396.557 202.842C396.969 203.016 397.334 203.286 397.62 203.63C397.965 203.904 398.247 204.248 398.449 204.639C398.65 205.031 398.767 205.46 398.79 205.9Z" fill="#263238"/>
<path d="M401.59 203.21C401.44 203.26 401.01 202.21 400.04 201.3C399.412 200.793 398.743 200.338 398.04 199.94C398.04 199.79 399.33 199.87 400.41 200.94C400.754 201.215 401.037 201.559 401.24 201.95C401.443 202.341 401.562 202.77 401.59 203.21Z" fill="#263238"/>
<path d="M404.19 200.53C404.05 200.59 403.62 199.53 402.65 198.63C401.68 197.73 400.65 197.41 400.65 197.26C401.096 197.225 401.544 197.298 401.957 197.472C402.369 197.646 402.734 197.916 403.02 198.26C403.365 198.534 403.647 198.878 403.849 199.269C404.05 199.661 404.167 200.09 404.19 200.53Z" fill="#263238"/>
<path d="M406.91 197.82C406.77 197.88 406.34 196.82 405.37 195.92C404.742 195.413 404.073 194.958 403.37 194.56C403.37 194.41 404.66 194.49 405.74 195.56C406.083 195.833 406.365 196.175 406.567 196.565C406.768 196.954 406.885 197.382 406.91 197.82Z" fill="#263238"/>
<path d="M409.78 194.85C409.63 194.9 409.2 193.85 408.23 192.94C407.602 192.433 406.933 191.978 406.23 191.58C406.677 191.541 407.126 191.612 407.539 191.786C407.952 191.96 408.316 192.233 408.6 192.58C408.945 192.855 409.228 193.199 409.431 193.59C409.634 193.981 409.753 194.41 409.78 194.85Z" fill="#263238"/>
<path d="M412.69 192.12C412.54 192.12 412.11 191.12 411.15 190.21C410.521 189.704 409.852 189.249 409.15 188.85C409.597 188.811 410.046 188.882 410.459 189.056C410.872 189.23 411.236 189.503 411.52 189.85C411.865 190.124 412.148 190.468 412.35 190.859C412.551 191.25 412.667 191.68 412.69 192.12Z" fill="#263238"/>
<path d="M415.3 189.48C415.15 189.54 414.72 188.48 413.76 187.58C412.8 186.68 411.71 186.36 411.76 186.21C412.206 186.174 412.655 186.247 413.067 186.421C413.48 186.595 413.844 186.865 414.13 187.21C414.475 187.484 414.758 187.827 414.96 188.219C415.161 188.61 415.277 189.04 415.3 189.48Z" fill="#263238"/>
<path d="M417.94 186.77C417.79 186.83 417.36 185.77 416.4 184.87C415.44 183.97 414.4 183.65 414.4 183.5C414.846 183.464 415.295 183.537 415.707 183.711C416.12 183.885 416.484 184.155 416.77 184.5C417.115 184.774 417.398 185.118 417.6 185.509C417.801 185.9 417.917 186.33 417.94 186.77Z" fill="#263238"/>
<path d="M420.79 184C420.65 184.06 420.22 183 419.25 182.1C418.28 181.2 417.25 180.88 417.25 180.73C417.696 180.695 418.144 180.768 418.557 180.942C418.969 181.116 419.334 181.386 419.62 181.73C419.965 182.004 420.247 182.348 420.449 182.739C420.65 183.131 420.767 183.56 420.79 184Z" fill="#263238"/>
<path d="M423.52 181.34C423.38 181.4 422.95 180.34 421.98 179.44C421.01 178.54 419.98 178.22 419.98 178.07C420.426 178.035 420.874 178.108 421.287 178.282C421.699 178.456 422.064 178.726 422.35 179.07C422.695 179.344 422.977 179.688 423.179 180.079C423.38 180.471 423.497 180.9 423.52 181.34Z" fill="#263238"/>
<path d="M426.23 178.79C426.09 178.84 425.66 177.79 424.69 176.88C424.064 176.369 423.395 175.914 422.69 175.52C423.138 175.482 423.589 175.553 424.003 175.727C424.418 175.901 424.784 176.173 425.07 176.52C425.411 176.796 425.691 177.141 425.891 177.532C426.091 177.923 426.206 178.352 426.23 178.79Z" fill="#263238"/>
<path d="M428.84 176.05C428.7 176.11 428.27 175.05 427.3 174.15C426.33 173.25 425.3 172.93 425.3 172.78C425.746 172.745 426.194 172.818 426.607 172.992C427.019 173.166 427.384 173.436 427.67 173.78C428.015 174.054 428.297 174.398 428.499 174.789C428.7 175.181 428.817 175.61 428.84 176.05Z" fill="#263238"/>
<path d="M431.66 173.13C431.51 173.19 431.08 172.13 430.11 171.23C429.14 170.33 428.11 170.01 428.11 169.86C428.556 169.824 429.005 169.897 429.417 170.071C429.83 170.245 430.194 170.515 430.48 170.86C430.825 171.135 431.108 171.479 431.311 171.87C431.514 172.261 431.633 172.69 431.66 173.13Z" fill="#263238"/>
<path d="M434.5 170.58C434.35 170.64 433.92 169.58 432.96 168.68C432 167.78 430.96 167.46 430.96 167.31C431.408 167.274 431.858 167.347 432.272 167.521C432.686 167.694 433.052 167.965 433.34 168.31C433.683 168.585 433.963 168.929 434.163 169.321C434.363 169.712 434.478 170.141 434.5 170.58Z" fill="#263238"/>
<path d="M437.39 167.64C437.24 167.7 436.81 166.64 435.84 165.74C434.87 164.84 433.84 164.52 433.84 164.37C434.286 164.337 434.734 164.41 435.146 164.584C435.558 164.758 435.923 165.027 436.21 165.37C436.555 165.645 436.838 165.989 437.041 166.38C437.244 166.771 437.363 167.2 437.39 167.64Z" fill="#263238"/>
<path d="M440.08 165C439.94 165.05 439.51 164 438.54 163.09C437.912 162.583 437.243 162.128 436.54 161.73C436.54 161.58 437.83 161.66 438.91 162.73C439.253 163.005 439.535 163.35 439.736 163.741C439.938 164.132 440.055 164.561 440.08 165Z" fill="#263238"/>
<path d="M442.94 162.21C442.79 162.27 442.36 161.21 441.39 160.31C440.42 159.41 439.39 159.09 439.39 158.94C439.836 158.905 440.284 158.978 440.697 159.152C441.109 159.326 441.474 159.596 441.76 159.94C442.105 160.215 442.388 160.559 442.591 160.95C442.794 161.341 442.913 161.77 442.94 162.21Z" fill="#263238"/>
<path d="M445.56 159.4C445.41 159.46 444.98 158.4 444.01 157.5C443.04 156.6 442.01 156.28 442.01 156.13C442.456 156.095 442.904 156.168 443.317 156.342C443.729 156.516 444.094 156.786 444.38 157.13C444.725 157.405 445.008 157.749 445.211 158.14C445.414 158.531 445.533 158.96 445.56 159.4Z" fill="#263238"/>
<path d="M448.36 156.63C448.22 156.69 447.79 155.63 446.82 154.73C445.85 153.83 444.82 153.51 444.82 153.36C445.266 153.325 445.714 153.398 446.127 153.572C446.539 153.746 446.904 154.016 447.19 154.36C447.535 154.634 447.817 154.978 448.019 155.369C448.22 155.761 448.337 156.19 448.36 156.63Z" fill="#263238"/>
<path d="M451.12 153.64C450.97 153.69 450.54 152.64 449.57 151.73C448.942 151.223 448.273 150.768 447.57 150.37C448.017 150.331 448.466 150.402 448.879 150.576C449.292 150.75 449.656 151.023 449.94 151.37C450.287 151.643 450.572 151.986 450.775 152.378C450.979 152.769 451.096 153.199 451.12 153.64Z" fill="#263238"/>
<path d="M454.23 150.9C454.08 150.96 453.65 149.9 452.68 149C451.71 148.1 450.68 147.78 450.68 147.63C451.126 147.595 451.574 147.668 451.987 147.842C452.399 148.016 452.764 148.286 453.05 148.63C453.395 148.905 453.678 149.249 453.881 149.64C454.084 150.031 454.203 150.46 454.23 150.9Z" fill="#263238"/>
<path d="M457.14 148.06C457 148.12 456.57 147.06 455.6 146.16C454.63 145.26 453.6 144.94 453.6 144.79C454.046 144.755 454.494 144.828 454.907 145.002C455.319 145.176 455.684 145.446 455.97 145.79C456.315 146.064 456.597 146.408 456.799 146.799C457 147.191 457.117 147.62 457.14 148.06Z" fill="#263238"/>
<path d="M460.06 145.22C459.92 145.28 459.49 144.22 458.52 143.32C457.55 142.42 456.52 142.1 456.52 141.95C456.966 141.915 457.414 141.988 457.827 142.162C458.239 142.336 458.604 142.606 458.89 142.95C459.235 143.224 459.517 143.568 459.719 143.959C459.92 144.351 460.037 144.78 460.06 145.22Z" fill="#263238"/>
<path d="M463 142.38C462.85 142.44 462.42 141.38 461.46 140.48C460.833 139.968 460.164 139.51 459.46 139.11C459.908 139.074 460.358 139.147 460.772 139.321C461.186 139.494 461.552 139.765 461.84 140.11C462.183 140.385 462.463 140.729 462.663 141.121C462.863 141.512 462.978 141.941 463 142.38Z" fill="#263238"/>
<path d="M465.9 139.54C465.75 139.6 465.32 138.54 464.35 137.64C463.38 136.74 462.35 136.42 462.35 136.27C462.796 136.234 463.245 136.307 463.657 136.481C464.07 136.655 464.434 136.925 464.72 137.27C465.067 137.543 465.352 137.886 465.555 138.278C465.759 138.669 465.876 139.099 465.9 139.54Z" fill="#263238"/>
<path d="M468.82 136.7C468.67 136.76 468.24 135.7 467.27 134.8C466.3 133.9 465.27 133.58 465.27 133.43C465.716 133.395 466.164 133.468 466.577 133.642C466.989 133.816 467.354 134.086 467.64 134.43C467.985 134.705 468.268 135.049 468.471 135.44C468.674 135.831 468.793 136.26 468.82 136.7Z" fill="#263238"/>
<path d="M472 134.12C471.85 134.18 471.42 133.12 470.46 132.22C469.5 131.32 468.46 131 468.46 130.85C468.906 130.814 469.355 130.887 469.767 131.061C470.18 131.235 470.544 131.505 470.83 131.85C471.175 132.124 471.458 132.468 471.66 132.859C471.861 133.25 471.977 133.68 472 134.12Z" fill="#263238"/>
<path d="M475.15 132.25C475 132.25 474.81 131.16 474.07 130.06C473.33 128.96 472.34 128.42 472.4 128.28C472.46 128.14 473.68 128.5 474.5 129.77C474.779 130.113 474.981 130.512 475.093 130.94C475.205 131.367 475.225 131.814 475.15 132.25Z" fill="#263238"/>
<path d="M478.88 130.19C478.73 130.19 478.79 129.05 478.3 127.81C477.947 127.078 477.535 126.376 477.07 125.71C477.07 125.58 478.27 126.21 478.79 127.62C478.989 128.017 479.1 128.452 479.116 128.895C479.132 129.339 479.051 129.78 478.88 130.19Z" fill="#263238"/>
<path d="M483 128.87C482.85 128.87 483.17 127.74 483 126.42C482.826 125.628 482.585 124.852 482.28 124.1C482.36 123.98 483.34 124.85 483.52 126.35C483.619 126.783 483.625 127.232 483.535 127.667C483.445 128.102 483.263 128.512 483 128.87Z" fill="#263238"/>
<path d="M486.7 128.87C486.57 128.78 487.21 127.87 487.45 126.54C487.52 125.728 487.52 124.912 487.45 124.1C487.726 124.453 487.913 124.867 487.995 125.307C488.077 125.748 488.051 126.202 487.92 126.63C487.886 127.068 487.76 127.495 487.55 127.881C487.34 128.267 487.05 128.604 486.7 128.87Z" fill="#263238"/>
<path d="M491 130.19C490.89 130.07 491.73 129.31 492.24 128.08C492.491 127.309 492.685 126.52 492.82 125.72C493.009 126.124 493.099 126.567 493.081 127.012C493.064 127.458 492.94 127.892 492.72 128.28C492.15 129.66 491.08 130.31 491 130.19Z" fill="#263238"/>
<path d="M494.63 132.31C494.55 132.17 495.53 131.59 496.3 130.51C496.707 129.807 497.061 129.075 497.36 128.32C497.459 128.756 497.453 129.209 497.342 129.642C497.23 130.076 497.017 130.476 496.72 130.81C496.497 131.193 496.195 131.525 495.835 131.783C495.475 132.042 495.064 132.221 494.63 132.31Z" fill="#263238"/>
<path d="M497.57 135.25C497.49 135.11 498.47 134.53 499.24 133.45C499.647 132.747 500.001 132.015 500.3 131.26C500.399 131.696 500.393 132.149 500.282 132.582C500.17 133.016 499.957 133.416 499.66 133.75C499.437 134.133 499.135 134.465 498.775 134.723C498.415 134.982 498.004 135.161 497.57 135.25Z" fill="#263238"/>
<path d="M500.51 138.19C500.43 138.05 501.41 137.48 502.18 136.39C502.587 135.687 502.941 134.955 503.24 134.2C503.339 134.636 503.333 135.089 503.222 135.522C503.11 135.956 502.897 136.356 502.6 136.69C502.377 137.073 502.075 137.405 501.715 137.663C501.355 137.922 500.944 138.101 500.51 138.19Z" fill="#263238"/>
<path d="M503.45 141.13C503.37 140.99 504.35 140.42 505.12 139.33C505.531 138.629 505.886 137.897 506.18 137.14C506.283 137.576 506.278 138.03 506.166 138.464C506.055 138.897 505.84 139.298 505.54 139.63C505.317 140.013 505.015 140.345 504.655 140.603C504.295 140.862 503.884 141.041 503.45 141.13Z" fill="#263238"/>
<path d="M506.34 144.22C506.28 144.08 507.34 143.65 508.25 142.68C508.764 142.055 509.223 141.385 509.62 140.68C509.77 140.68 509.69 141.97 508.62 143.04C508.345 143.386 507.999 143.67 507.606 143.874C507.213 144.077 506.782 144.195 506.34 144.22Z" fill="#263238"/>
<path d="M509.36 147.85C509.31 147.7 510.36 147.27 511.27 146.31C512.18 145.35 512.5 144.31 512.65 144.31C512.683 144.756 512.61 145.204 512.436 145.616C512.262 146.028 511.993 146.393 511.65 146.68C511.373 147.026 511.025 147.309 510.631 147.511C510.236 147.713 509.803 147.828 509.36 147.85Z" fill="#263238"/>
<path d="M512.39 151.47C512.33 151.32 513.39 150.9 514.3 149.93C515.21 148.96 515.52 147.93 515.67 147.93C515.82 147.93 515.74 149.23 514.67 150.3C514.395 150.646 514.049 150.929 513.656 151.131C513.263 151.332 512.831 151.448 512.39 151.47Z" fill="#263238"/>
<path d="M515.41 155.09C515.41 154.95 516.41 154.52 517.32 153.55C517.834 152.925 518.293 152.255 518.69 151.55C518.84 151.55 518.76 152.84 517.69 153.91C517.415 154.256 517.069 154.54 516.676 154.744C516.283 154.947 515.852 155.065 515.41 155.09Z" fill="#263238"/>
<path d="M518.44 158.72C518.39 158.57 519.39 158.2 520.31 157.36C521.23 156.52 521.58 155.53 521.72 155.56C521.86 155.59 521.8 155.86 521.66 156.29C521.458 156.852 521.113 157.351 520.66 157.74C520.376 158.046 520.033 158.291 519.651 158.459C519.269 158.628 518.857 158.717 518.44 158.72Z" fill="#263238"/>
<path d="M521.46 162.34C521.41 162.19 522.38 161.82 523.27 160.99C524.16 160.16 524.49 159.2 524.63 159.22C524.77 159.24 524.72 159.52 524.63 159.94C524.427 160.496 524.082 160.989 523.63 161.37C523.359 161.678 523.025 161.924 522.651 162.091C522.276 162.258 521.87 162.343 521.46 162.34Z" fill="#263238"/>
<path d="M524.68 166.42C524.68 166.27 525.6 165.9 526.49 165.07C527.38 164.24 527.71 163.28 527.85 163.31C527.99 163.34 527.94 163.6 527.8 164.03C527.611 164.577 527.283 165.066 526.85 165.45C526.579 165.758 526.245 166.005 525.871 166.172C525.496 166.339 525.09 166.424 524.68 166.42Z" fill="#263238"/>
<path d="M527.83 170.8C527.78 170.66 528.75 170.29 529.64 169.46C530.53 168.63 530.85 167.66 530.99 167.69C531.13 167.72 531.08 167.98 530.99 168.41C530.783 168.964 530.439 169.456 529.99 169.84C529.72 170.145 529.387 170.389 529.014 170.554C528.642 170.72 528.238 170.804 527.83 170.8Z" fill="#263238"/>
<path d="M540.79 191.94C540.79 191.78 541.79 191.74 542.93 191.24C544.07 190.74 544.65 189.92 544.78 189.99C544.91 190.06 544.78 190.3 544.51 190.66C544.151 191.118 543.684 191.479 543.15 191.71C542.796 191.914 542.402 192.039 541.995 192.079C541.588 192.119 541.177 192.071 540.79 191.94Z" fill="#263238"/>
<path d="M542.08 194.47C542.08 194.31 543.08 194.27 544.22 193.77C544.872 193.407 545.491 192.989 546.07 192.52C546.13 192.52 546.07 192.83 545.8 193.19C545.444 193.651 544.976 194.012 544.44 194.24C544.085 194.444 543.692 194.57 543.285 194.609C542.878 194.649 542.467 194.601 542.08 194.47Z" fill="#263238"/>
<path d="M544.51 202.31C544.51 202.16 545.51 202.11 546.66 201.61C547.81 201.11 548.38 200.29 548.5 200.37C548.62 200.45 548.5 200.67 548.23 201.03C547.874 201.491 547.406 201.852 546.87 202.08C546.516 202.286 546.122 202.413 545.715 202.453C545.308 202.493 544.897 202.444 544.51 202.31Z" fill="#263238"/>
<path d="M545.58 205.52C545.58 205.36 546.58 205.32 547.73 204.82C548.88 204.32 549.45 203.5 549.57 203.57C549.69 203.64 549.57 203.88 549.3 204.24C548.941 204.698 548.474 205.059 547.94 205.29C547.585 205.493 547.191 205.619 546.785 205.658C546.378 205.698 545.967 205.651 545.58 205.52Z" fill="#263238"/>
<path d="M546.35 209.21C546.35 209.06 547.35 209.01 548.49 208.51C549.63 208.01 550.22 207.19 550.34 207.27C550.46 207.35 550.34 207.57 550.07 207.93C549.714 208.391 549.246 208.752 548.71 208.98C548.356 209.186 547.963 209.313 547.555 209.353C547.148 209.393 546.737 209.344 546.35 209.21Z" fill="#263238"/>
<path d="M546.5 212.59C546.5 212.44 547.56 212.59 548.75 212.37C549.459 212.149 550.151 211.874 550.82 211.55C550.82 211.55 550.74 211.84 550.41 212.14C549.961 212.509 549.429 212.764 548.86 212.88C548.469 213.006 548.056 213.045 547.648 212.995C547.241 212.945 546.849 212.807 546.5 212.59Z" fill="#263238"/>
<path d="M547.08 216.1C547.08 215.94 548.14 216.1 549.33 215.87C550.04 215.651 550.732 215.377 551.4 215.05C551.45 215.05 551.33 215.34 550.99 215.64C550.544 216.013 550.011 216.268 549.44 216.38C549.049 216.502 548.637 216.54 548.23 216.492C547.823 216.444 547.432 216.31 547.08 216.1Z" fill="#263238"/>
<path d="M547.67 219.6C547.67 219.45 548.72 219.6 549.91 219.37C550.621 219.153 551.313 218.879 551.98 218.55C551.98 218.55 551.91 218.85 551.57 219.14C551.125 219.515 550.592 219.77 550.02 219.88C549.631 220.002 549.22 220.041 548.815 219.993C548.41 219.944 548.02 219.81 547.67 219.6Z" fill="#263238"/>
<path d="M547.88 223C547.94 222.86 548.95 223.21 550.21 223.15C550.97 223.047 551.719 222.88 552.45 222.65C552.45 222.7 552.32 222.93 551.93 223.18C551.416 223.481 550.835 223.649 550.24 223.67C549.822 223.727 549.396 223.697 548.99 223.582C548.584 223.467 548.206 223.268 547.88 223Z" fill="#263238"/>
<path d="M548.2 226.77C548.26 226.63 549.27 226.99 550.53 226.92C551.291 226.823 552.04 226.655 552.77 226.42C552.77 226.47 552.64 226.71 552.25 226.95C551.736 227.251 551.155 227.419 550.56 227.44C550.142 227.501 549.715 227.473 549.308 227.357C548.902 227.242 548.524 227.042 548.2 226.77Z" fill="#263238"/>
<path d="M548.48 230.2C548.48 230.06 549.54 230.41 550.8 230.35C551.56 230.253 552.31 230.085 553.04 229.85C553.04 229.85 552.92 230.13 552.53 230.38C552.012 230.679 551.428 230.847 550.83 230.87C550.413 230.929 549.989 230.901 549.584 230.785C549.179 230.67 548.803 230.47 548.48 230.2Z" fill="#263238"/>
<path d="M548.75 233.63C548.75 233.48 549.82 233.84 551.07 233.78C551.83 233.676 552.58 233.506 553.31 233.27C553.36 233.33 553.19 233.56 552.8 233.81C552.282 234.109 551.698 234.277 551.1 234.3C550.683 234.359 550.259 234.331 549.854 234.215C549.449 234.1 549.073 233.9 548.75 233.63Z" fill="#263238"/>
<path d="M549 237.06C549.06 236.91 550.07 237.27 551.32 237.2C552.084 237.102 552.837 236.935 553.57 236.7C553.57 236.75 553.44 236.99 553.05 237.23C552.534 237.535 551.949 237.704 551.35 237.72C550.934 237.781 550.51 237.754 550.105 237.64C549.7 237.526 549.324 237.329 549 237.06Z" fill="#263238"/>
<path d="M549.29 240.49C549.35 240.34 550.36 240.7 551.62 240.63C552.38 240.531 553.13 240.364 553.86 240.13C553.86 240.18 553.73 240.42 553.34 240.66C552.825 240.966 552.239 241.135 551.64 241.15C551.224 241.211 550.8 241.184 550.395 241.07C549.99 240.956 549.614 240.759 549.29 240.49Z" fill="#263238"/>
<path d="M549.56 243.91C549.62 243.77 550.63 244.12 551.89 244.06C552.651 243.963 553.4 243.795 554.13 243.56C554.13 243.61 554 243.85 553.61 244.09C553.093 244.392 552.509 244.56 551.91 244.58C551.493 244.639 551.069 244.611 550.664 244.495C550.259 244.38 549.883 244.18 549.56 243.91Z" fill="#263238"/>
<path d="M549.56 247.73C549.62 247.58 550.63 247.94 551.89 247.87C552.651 247.773 553.4 247.605 554.13 247.37C554.13 247.42 554 247.66 553.61 247.9C553.095 248.206 552.509 248.375 551.91 248.39C551.494 248.451 551.07 248.424 550.665 248.31C550.26 248.196 549.884 247.999 549.56 247.73Z" fill="#263238"/>
<path d="M549.72 251.3C549.78 251.16 550.72 251.58 552.03 251.6C552.795 251.547 553.554 251.43 554.3 251.25C554.3 251.3 554.15 251.53 553.75 251.74C553.214 252.01 552.619 252.14 552.02 252.12C551.601 252.152 551.179 252.096 550.783 251.955C550.387 251.813 550.024 251.59 549.72 251.3Z" fill="#263238"/>
<path d="M549.76 254.74C549.83 254.6 550.76 255.02 552.07 255.04C552.835 254.989 553.595 254.872 554.34 254.69C554.34 254.74 554.19 254.96 553.79 255.18C553.255 255.452 552.66 255.583 552.06 255.56C551.641 255.592 551.219 255.536 550.823 255.395C550.427 255.253 550.064 255.03 549.76 254.74Z" fill="#263238"/>
<path d="M549.8 258.18C549.87 258.03 550.86 258.46 552.11 258.48C552.877 258.434 553.637 258.314 554.38 258.12C554.38 258.18 554.24 258.4 553.83 258.62C553.293 258.887 552.699 259.018 552.1 259C551.681 259.029 551.26 258.971 550.864 258.83C550.469 258.689 550.106 258.468 549.8 258.18Z" fill="#263238"/>
<path d="M549.73 262.08C549.8 261.93 550.79 262.36 552.05 262.38C552.816 262.332 553.576 262.211 554.32 262.02C554.32 262.08 554.17 262.3 553.76 262.52C553.227 262.786 552.636 262.917 552.04 262.9C551.619 262.929 551.197 262.872 550.8 262.731C550.402 262.589 550.038 262.368 549.73 262.08Z" fill="#263238"/>
<path d="M549.9 266.11C549.97 265.97 550.96 266.39 552.21 266.41C552.975 266.359 553.735 266.242 554.48 266.06C554.48 266.11 554.34 266.34 553.93 266.55C553.395 266.822 552.8 266.953 552.2 266.93C551.781 266.962 551.359 266.906 550.963 266.765C550.567 266.623 550.204 266.4 549.9 266.11Z" fill="#263238"/>
<path d="M549.9 270C549.97 269.86 550.96 270.28 552.21 270.3C552.975 270.249 553.735 270.132 554.48 269.95C554.48 270 554.34 270.23 553.93 270.44C553.395 270.712 552.8 270.843 552.2 270.82C551.781 270.852 551.359 270.796 550.963 270.655C550.567 270.513 550.204 270.29 549.9 270Z" fill="#263238"/>
<path d="M549.91 274.17C549.98 274.02 550.96 274.45 552.22 274.47C552.987 274.424 553.747 274.304 554.49 274.11C554.49 274.17 554.35 274.39 553.94 274.61C553.403 274.877 552.809 275.008 552.21 274.99C551.791 275.022 551.369 274.966 550.973 274.825C550.577 274.683 550.214 274.46 549.91 274.17Z" fill="#263238"/>
<path d="M549.91 278.1C549.98 277.95 550.96 278.38 552.22 278.4C552.987 278.354 553.747 278.234 554.49 278.04C554.49 278.1 554.35 278.32 553.94 278.54C553.403 278.807 552.809 278.938 552.21 278.92C551.791 278.952 551.369 278.896 550.973 278.755C550.577 278.613 550.214 278.39 549.91 278.1Z" fill="#263238"/>
<path d="M549.92 282.22C549.98 282.08 550.97 282.5 552.23 282.52C552.995 282.469 553.755 282.352 554.5 282.17C554.5 282.22 554.35 282.45 553.95 282.66C553.415 282.932 552.82 283.063 552.22 283.04C551.801 283.072 551.379 283.016 550.983 282.875C550.587 282.733 550.224 282.51 549.92 282.22Z" fill="#263238"/>
<path d="M549.92 286.15C549.98 286.01 550.97 286.43 552.23 286.45C552.995 286.399 553.755 286.282 554.5 286.1C554.5 286.1 554.35 286.38 553.95 286.59C553.415 286.862 552.82 286.993 552.22 286.97C551.801 287.002 551.379 286.946 550.983 286.805C550.587 286.663 550.224 286.44 549.92 286.15Z" fill="#263238"/>
<path d="M549.92 290.28C549.99 290.13 550.98 290.56 552.24 290.58C553.006 290.532 553.766 290.411 554.51 290.22C554.51 290.28 554.36 290.5 553.95 290.72C553.417 290.986 552.826 291.117 552.23 291.1C551.809 291.129 551.387 291.072 550.99 290.931C550.592 290.789 550.228 290.568 549.92 290.28Z" fill="#263238"/>
<path d="M549.92 294.21C549.99 294.06 550.98 294.49 552.24 294.51C553.006 294.462 553.766 294.341 554.51 294.15C554.51 294.21 554.36 294.43 553.95 294.65C553.417 294.916 552.826 295.047 552.23 295.03C551.809 295.059 551.387 295.002 550.99 294.861C550.592 294.719 550.228 294.498 549.92 294.21Z" fill="#263238"/>
<path d="M517.8 183.36L521.13 181.82C522.59 177.64 523.96 174.73 525.5 173.68C527.64 172.23 535.02 167.41 535.02 167.41H534.9C534.9 167.41 540.32 165.89 541.57 167.34C542.82 168.79 540.94 170.81 540.94 170.81C541.666 170.798 542.386 170.942 543.052 171.231C543.718 171.521 544.314 171.95 544.8 172.49C546.18 174.26 544.64 176.7 544.64 176.7C545.081 176.62 545.535 176.697 545.924 176.919C546.314 177.14 546.613 177.491 546.77 177.91C547.47 179.46 544.94 182.6 544.94 182.6C545.384 182.678 545.807 182.847 546.182 183.097C546.557 183.346 546.877 183.671 547.12 184.05C547.63 185.2 545.54 186.72 544.87 187.29C544.2 187.86 527.5 194.6 527.5 194.6L520.43 196.65L517.8 183.36Z" fill="white" stroke="#231F20" stroke-linejoin="round"/>
<path d="M535.58 210.42C535.8 209.82 538.58 202.09 538.58 202.09L543.83 193.97L553.3 190.97C553.719 191.878 553.803 192.905 553.538 193.87C553.272 194.834 552.674 195.674 551.85 196.24C548.85 198.51 547.3 198.24 547.3 198.24L545.93 201.36" fill="white"/>
<path d="M535.58 210.42C535.8 209.82 538.58 202.09 538.58 202.09L543.83 193.97L553.3 190.97C553.719 191.878 553.803 192.905 553.538 193.87C553.272 194.834 552.674 195.674 551.85 196.24C548.85 198.51 547.3 198.24 547.3 198.24L545.93 201.36" stroke="#231F20" stroke-linejoin="round"/>
<path d="M553.28 191.16C553.408 191.402 553.486 191.667 553.51 191.94C553.656 192.704 553.601 193.493 553.35 194.23C552.925 195.344 552.172 196.303 551.19 196.98C549.988 197.846 548.659 198.52 547.25 198.98L547.39 198.87C547.06 199.46 546.762 200.067 546.5 200.69C546.354 201.006 546.26 201.344 546.22 201.69C546.211 201.746 546.211 201.804 546.22 201.86L546.31 202.13L546.46 202.67C547.35 206.191 547.235 209.891 546.13 213.35C545.767 214.385 545.222 215.347 544.52 216.19C544.331 216.42 544.124 216.634 543.9 216.83C543.75 216.96 543.67 217.03 543.65 217.02C544.586 215.896 545.311 214.612 545.79 213.23C546.752 209.827 546.811 206.232 545.96 202.8L545.81 202.28L545.73 202.02C545.708 201.901 545.708 201.779 545.73 201.66C545.775 201.273 545.879 200.895 546.04 200.54C546.317 199.899 546.631 199.275 546.98 198.67V198.59H547.07C548.435 198.166 549.732 197.546 550.92 196.75C551.858 196.139 552.593 195.261 553.03 194.23C553.294 193.546 553.396 192.81 553.33 192.08C553.284 191.776 553.267 191.468 553.28 191.16Z" fill="white" stroke="#231F20" stroke-linejoin="round"/>
<path d="M538.64 215.75L545.84 209.32V207.03L545.98 202.72L544.8 198.87L538.64 215.75Z" fill="white"/>
<g style="mix-blend-mode:multiply" opacity="0.15">
<path d="M561 96.82C561 96.82 550.67 125.21 543.63 132.25C536.59 139.29 526 139.06 526 139.06L519.83 146.4L524.4 151L529.84 141.92L532.25 143.13L539.87 141.92L547.3 135.92L556.3 122.35L560.49 118.16L564.44 108.93L561 96.82Z" fill="#010101"/>
</g>
<g style="mix-blend-mode:multiply" opacity="0.15">
<path d="M519.78 146.4L520.56 167.65L520.17 175.46V182.27L521.13 181.82L523.7 177.12L524.68 174.43L525.5 173.68L524.4 151.04L519.78 146.4Z" fill="#010101"/>
</g>
<g style="mix-blend-mode:multiply" opacity="0.15">
<path d="M492.53 130.4C492.53 130.4 495.16 134.96 493.08 143.56C491 152.16 476.72 190 476.72 190L481.6 187.7L490.76 162.23L495.58 147.37L496.73 140.8L497.15 136.52L495.64 134.14L492.53 130.4Z" fill="#010101"/>
</g>
<g style="mix-blend-mode:multiply" opacity="0.15">
<path d="M532.25 218.23L531.48 223.62L497.82 222.8L504.11 216.94L532.25 218.23Z" fill="#010101"/>
</g>
<g style="mix-blend-mode:multiply" opacity="0.15">
<path d="M533.29 218.54C533.29 218.54 540.47 219.46 543.92 216.75C547.37 214.04 547.08 211.54 547.08 211.54L547.67 219.6L544.87 221.42L531.64 222.51L532.25 218.23L533.29 218.54Z" fill="#010101"/>
</g>
<g style="mix-blend-mode:multiply" opacity="0.15">
<path d="M550.82 211.55L556.49 204.33L557.82 205.66L558.41 207.03L557.68 208.53L555.78 210.47L554.62 211.21L551.4 215.05L550.82 211.55Z" fill="#010101"/>
</g>
<g style="mix-blend-mode:multiply" opacity="0.15">
<path d="M292.95 445.21L289.96 343.91L295.03 308.61L289.69 314.71L283.56 342.8L284.39 444.76L292.95 445.21Z" fill="#010101"/>
</g>
<g style="mix-blend-mode:multiply" opacity="0.15">
<path d="M279.67 371.65V387.46L272.28 444.76L267.16 444.95L279.67 371.65Z" fill="#010101"/>
</g>
<g style="mix-blend-mode:multiply" opacity="0.15">
<path d="M538.48 452.82H341L281 444.83L497.82 444.95L538.48 452.82Z" fill="#010101"/>
</g>
</svg>
