<svg width="334" height="337" viewBox="0 0 334 337" fill="none" xmlns="http://www.w3.org/2000/svg">
<path d="M140.5 80.5L146 105C143.333 106.333 137.1 108.2 133.5 105C129.9 101.8 121.333 101 117.5 101H108C101 103.5 85.3 108.6 78.5 109C71.7 109.4 50.3333 102.167 40.5 98.5L16.5002 80.5C13.1669 69.6667 7.80021 46.2 13.0002 39C19.5002 30 31.0002 18.5 44.0002 12C57.0002 5.50004 86.5002 3.00004 90.0002 4.50004C93.5002 6.00004 134.5 18.5 140.5 32.5C146.5 46.5 149 50.5 146 63C143.6 73 141.334 78.8334 140.5 80.5Z" fill="white"/>
<path d="M162.5 137V146L176 139C180.333 137.667 189.5 136.1 191.5 140.5C194 146 208 151 213.5 152C217.9 152.8 227 146.333 231 143L236.5 135C250.833 142 280.5 157.1 284.5 161.5C288.5 165.9 299.167 200.667 304 217.5L310.5 224V209.5L308 187.5L316 177.5L319 167L312 153.5L289 123L278 86.5L275.5 63H282.5V53.5L294 48V32.5L282.5 19H270C268.667 23.5 265.4 30.7 263 23.5C260 14.5 248.5 8.50004 242.5 4.50004C237.7 1.30004 223.5 3.16671 217 4.50004C211.833 7.00004 200.2 12.8 195 16C188.5 20 187.5 28 184 32.5C180.5 37 175.5 69 175 74.5C174.6 78.9 176.833 96.6667 178 105L171.5 120.5L162.5 137Z" fill="white"/>
<path d="M49 281.5C46.6 259.9 46 242.5 46 236.5L49 229C84.3333 227.5 156.1 226.2 160.5 233C164.9 239.8 166 251.833 166 257C167.333 275.333 172.9 309 184.5 297C196.1 285 201.667 285 203 286.5L227.5 297L234.5 309.5V317L227.5 322V329.5L170 332L55.5 329.5C54.3333 322.5 51.4 303.1 49 281.5Z" fill="white"/>
<path d="M284.798 326.492H38.6279V336.521H284.798V326.492Z" fill="#010101"/>
<g style="mix-blend-mode:multiply" opacity="0.15">
<path d="M164.975 238.638L161.628 235.491L153.69 230.285L142.184 230.873L153.69 328.521L229.698 333.551L228.979 320.668L226.13 318.462L196.535 321.492L182.926 322.08L175.762 319.462L164.975 249.462V238.638Z" fill="#010101"/>
</g>
<path d="M234.621 133.461L275.557 152.491L284.989 161.138L292.734 181.373L307.449 224.05L315.553 261.345V272.168L305.18 285.815L266.125 308.257L236.142 317.08L227.651 295.433L262.723 271.756L277.272 260.55L266.512 227.08L262.364 241.491L258.574 255.727L260.095 265.756L266.125 317.08V325.492L227.844 327.286L226.13 318.463L211.055 320.286L174.268 319.669L164.836 253.344L161.434 234.903L153.883 231.285L146.525 229.08L68.0555 228.874L62.5789 224.05L55.415 212.432L62.2193 202.226L75.2193 183.579L98.0384 202.226L119.557 220.05L128.436 208.432L142.017 172.756L155.791 149.491L175.762 138.873L190.117 135.079L195.953 144.696L205.025 149.285L213.489 151.108H221.427L230.278 144.491L234.621 133.461Z" fill="#ED1C24"/>
<path d="M227.651 295.432L203.698 284.991L191.998 288.403L183.12 295.432L180.852 298.638L181.986 303.638L184.641 302.433L188.043 308.638L193.132 309.462L194.82 315.668L201.237 316.874L201.983 321.492L226.13 318.462L227.845 323.492L236.143 317.08L228.039 299.021L227.651 295.432Z" fill="white"/>
<path d="M194.626 84.5487C195.109 83.0736 195.749 81.6623 196.535 80.3428C197.669 77.7252 198.775 75.1369 199.909 72.7251C200.297 71.7251 198.969 70.931 198.609 71.931C197.088 75.3428 195.843 78.5487 194.267 81.9605C193.492 83.7546 191.805 86.3723 192.386 88.5782C192.582 89.1803 192.92 89.719 193.367 90.143C193.815 90.5671 194.356 90.8625 194.941 91.001C195.526 91.1395 196.135 91.1167 196.709 90.9346C197.283 90.7524 197.804 90.4172 198.222 89.9606C198.366 89.7994 198.446 89.5845 198.443 89.3619C198.441 89.1393 198.356 88.9266 198.208 88.7692C198.06 88.6118 197.86 88.5221 197.651 88.5194C197.442 88.5167 197.24 88.6011 197.088 88.7547C194.322 89.7547 193.492 88.7547 194.322 85.8135C194.128 85.4017 194.322 85.0194 194.488 84.6076L194.626 84.5487Z" fill="#010101"/>
<path d="M195.623 92.0489C195.231 92.0581 194.84 92.0086 194.461 91.9018C193.765 91.7313 193.123 91.3701 192.599 90.8541C192.075 90.3382 191.687 89.6854 191.474 88.9606C191.212 86.81 191.705 84.6322 192.857 82.8429L193.41 81.6665C194.157 79.9312 194.876 78.3135 195.568 76.6664C196.259 75.0193 196.978 73.3429 197.753 71.6076C197.828 71.4029 197.942 71.2166 198.087 71.0594C198.231 70.9022 198.404 70.7775 198.595 70.6925C198.786 70.6075 198.991 70.564 199.198 70.5646C199.404 70.5651 199.609 70.6098 199.799 70.6958C200.212 70.889 200.546 71.2334 200.74 71.6664C200.843 71.9116 200.896 72.1772 200.896 72.4458C200.896 72.7144 200.843 72.98 200.74 73.2252C199.578 75.6958 198.444 78.2841 197.338 80.8723C196.56 82.3755 195.912 83.9506 195.402 85.5783V85.99C194.904 87.6077 195.153 87.99 195.153 87.99C195.153 87.99 195.623 88.1665 196.674 87.7842C196.877 87.6119 197.116 87.4928 197.371 87.4366C197.625 87.3804 197.889 87.3886 198.14 87.4606C198.443 87.5527 198.718 87.7252 198.941 87.9619C199.163 88.1986 199.326 88.4917 199.412 88.8136C199.49 89.1255 199.488 89.4541 199.405 89.7647C199.322 90.0753 199.162 90.3564 198.942 90.5783C198.511 91.0497 197.995 91.4231 197.424 91.6759C196.854 91.9286 196.241 92.0556 195.623 92.0489Z" fill="#010101"/>
<path d="M209.342 94.5486C208.402 94.5486 207.849 95.9604 206.576 96.9604C204.045 99.6643 200.84 101.542 197.338 102.372C196.511 102.482 195.727 102.827 195.07 103.372C194.83 103.831 194.754 104.366 194.855 104.879C194.957 105.393 195.23 105.85 195.623 106.166C198.389 108.578 203.174 107.166 206.189 105.784C207.392 105.297 208.485 104.544 209.396 103.576C210.306 102.608 211.014 101.446 211.472 100.166C211.859 98.7545 211.472 95.7545 210.144 94.9604C209.893 94.6985 209.556 94.5508 209.204 94.5486H209.342Z" fill="#010101"/>
<path d="M199.771 108.52C198.121 108.583 196.501 108.043 195.18 106.99C194.617 106.518 194.226 105.853 194.074 105.108C193.973 104.714 193.955 104.302 194.022 103.9C194.089 103.498 194.239 103.117 194.461 102.784C195.184 102.095 196.076 101.636 197.033 101.461H197.282C200.622 100.692 203.679 98.9029 206.078 96.3137C206.439 95.9717 206.772 95.5978 207.074 95.196C207.316 94.771 207.647 94.4099 208.039 94.14C208.432 93.87 208.877 93.6981 209.342 93.6372C209.897 93.643 210.434 93.8505 210.863 94.2254C211.635 95.027 212.195 96.0308 212.487 97.1358C212.778 98.2408 212.79 99.4079 212.522 100.52C212.035 101.946 211.263 103.245 210.261 104.326C209.259 105.407 208.049 106.246 206.714 106.784C204.526 107.831 202.169 108.42 199.771 108.52ZM209.342 95.5784C209.203 95.5784 208.761 96.1078 208.512 96.4313C208.144 96.9011 207.747 97.3433 207.322 97.7549C204.682 100.594 201.316 102.547 197.642 103.373C197.007 103.474 196.402 103.725 195.871 104.108C195.847 104.283 195.847 104.462 195.871 104.637C195.937 104.937 196.092 105.205 196.314 105.402C199.08 107.726 203.948 105.814 205.939 104.873C207.02 104.454 208.004 103.793 208.825 102.936C209.646 102.078 210.284 101.044 210.697 99.902C211.001 98.7255 210.697 96.3137 209.812 95.8431H209.591C209.574 95.78 209.542 95.7225 209.499 95.6761C209.455 95.6298 209.401 95.5961 209.342 95.5784Z" fill="#010101"/>
<path d="M192.553 58.2839C189.534 56.4335 186.013 55.7283 182.568 56.2839C181.627 56.4897 181.627 58.2839 182.568 58.1074C185.687 57.4819 188.914 58.122 191.612 59.9015C191.81 59.9786 192.026 59.9808 192.225 59.9078C192.424 59.8348 192.593 59.691 192.703 59.5008C192.814 59.3105 192.859 59.0855 192.832 58.8638C192.804 58.6421 192.706 58.4372 192.553 58.2839Z" fill="#010101"/>
<path d="M191.945 60.9603C191.726 61.0028 191.501 61.0028 191.282 60.9603C188.742 59.2528 185.691 58.6229 182.735 59.1956C182.524 59.2448 182.306 59.244 182.095 59.1931C181.885 59.1423 181.688 59.0427 181.518 58.9015C181.218 58.6451 181.02 58.2773 180.965 57.872C180.848 57.3495 180.931 56.7991 181.196 56.3415C181.46 55.8839 181.884 55.5565 182.375 55.4308C186.048 54.8048 189.812 55.5533 193.024 57.5485C193.364 57.8287 193.597 58.2311 193.678 58.6804C193.76 59.1297 193.685 59.5951 193.467 59.9897C193.31 60.2739 193.088 60.5116 192.822 60.6812C192.557 60.8507 192.255 60.9467 191.945 60.9603Z" fill="#010101"/>
<path d="M243.502 79.5484C242.562 79.7543 242.921 81.5484 244.055 81.1367C248.204 79.9308 247.845 90.1662 245.383 90.1662C244.443 90.1662 244.443 91.9603 245.383 91.9603C248.398 91.7838 248.785 87.1661 248.785 84.5485C248.785 81.9308 246.323 78.6661 243.502 79.5484Z" fill="#010101"/>
<path d="M245.438 92.9604C245.207 92.9647 244.978 92.9185 244.764 92.8247C244.551 92.7309 244.358 92.5914 244.197 92.4149C244.036 92.2384 243.911 92.0287 243.83 91.7987C243.748 91.5688 243.712 91.3235 243.723 91.078C243.725 90.6373 243.85 90.2071 244.083 89.8427C244.233 89.6278 244.43 89.4542 244.656 89.3365C244.882 89.2188 245.131 89.1604 245.383 89.1662C245.862 88.3552 246.167 87.4421 246.277 86.4916C246.387 85.5411 246.299 84.5765 246.019 83.6662C245.521 81.7544 244.636 82.0191 244.304 82.1074C244.011 82.2164 243.695 82.2356 243.391 82.1628C243.088 82.09 242.81 81.9281 242.589 81.6956C242.345 81.4532 242.169 81.1432 242.081 80.8003C241.993 80.4574 241.997 80.0952 242.092 79.7544C242.165 79.4588 242.316 79.1915 242.526 78.9832C242.737 78.775 242.998 78.6345 243.281 78.5779C243.882 78.4004 244.513 78.3636 245.129 78.4703C245.745 78.5769 246.332 78.8244 246.849 79.1956C248.383 80.473 249.378 82.3452 249.615 84.4015C249.615 91.2839 247.292 92.8428 245.328 92.9604H245.438Z" fill="#010101"/>
<path d="M250.858 58.1072C241.233 59.4895 232.188 56.2836 226.712 47.0777C226.131 46.0777 224.831 47.0777 225.384 48.0777C227.092 51.0372 229.34 53.6029 231.996 55.6235C234.651 57.6442 237.66 59.0787 240.846 59.8425C244.152 60.5338 247.553 60.5338 250.858 59.8425C255.948 59.0484 263.305 58.2248 264.688 65.4602C264.854 66.6661 266.375 66.0484 266.182 64.8425C264.688 57.0483 256.556 57.2248 250.914 58.0483L250.858 58.1072Z" fill="#010101"/>
<path d="M265.242 67.1664C264.856 67.1614 264.485 67.006 264.2 66.7295C263.914 66.453 263.734 66.0747 263.693 65.6663C262.698 60.1957 257.885 59.7839 250.998 60.9016C247.582 61.6114 244.069 61.6114 240.653 60.9016C237.334 60.1189 234.198 58.6284 231.436 56.5203C228.674 54.4122 226.343 51.7303 224.583 48.6368C224.42 48.3427 224.334 48.0075 224.334 47.6662C224.334 47.3248 224.42 46.9897 224.583 46.6956C224.728 46.3983 224.946 46.1483 225.214 45.9722C225.482 45.7961 225.789 45.7005 226.104 45.6956C226.4 45.6901 226.692 45.7691 226.95 45.9243C227.208 46.0794 227.422 46.3051 227.57 46.5779C232.466 54.8427 240.708 58.6075 250.776 57.1368C254.372 56.6368 265.242 55.078 267.123 64.7252C267.175 64.9939 267.176 65.2709 267.126 65.5401C267.076 65.8092 266.976 66.065 266.832 66.2924C266.688 66.5199 266.502 66.7143 266.286 66.8644C266.07 67.0145 265.828 67.1171 265.574 67.1664H265.242ZM237.279 57.6957C240.084 58.921 243.098 59.5119 246.13 59.431C243.107 59.3993 240.113 58.8122 237.279 57.6957Z" fill="#010101"/>
<path d="M157.481 231.285C157.287 230.08 155.766 230.285 155.959 231.285C159.168 258.139 165.198 302.051 169.374 328.698C169.54 329.904 171.061 329.286 170.868 328.11C166.719 301.639 160.689 257.933 157.481 231.285Z" fill="#010101"/>
<path d="M169.984 330.345C169.602 330.341 169.235 330.19 168.95 329.919C168.665 329.649 168.482 329.278 168.435 328.875C164.259 302.139 158.257 258.286 155.021 231.403C154.976 231.122 155.001 230.833 155.093 230.564C155.185 230.296 155.341 230.058 155.546 229.874C155.777 229.67 156.054 229.533 156.35 229.476C156.645 229.419 156.95 229.445 157.233 229.55C157.538 229.68 157.805 229.892 158.009 230.165C158.213 230.439 158.346 230.764 158.395 231.109C161.631 258.109 167.633 301.521 171.782 327.875C171.864 328.411 171.75 328.961 171.461 329.41C171.173 329.859 170.733 330.173 170.233 330.286L169.984 330.345Z" fill="#010101"/>
<path d="M212.744 72.0781C212.744 74.1664 212.274 75.9017 211.555 75.9311C210.835 75.9605 210.172 74.284 210.116 72.1663C210.061 70.0487 210.586 68.3428 211.306 68.3134C212.025 68.284 212.689 69.9604 212.744 72.0781Z" fill="#010101"/>
<path d="M211.527 76.9016C211.085 76.9016 210.282 76.6663 209.702 75.1957C209.375 74.2528 209.198 73.259 209.176 72.2545C209.13 71.2612 209.242 70.2668 209.508 69.3133C210.006 67.7544 210.808 67.4897 211.278 67.4603C212.855 67.4603 213.602 69.7839 213.685 72.1957C213.685 74.578 213.131 77.0192 211.582 77.078L211.527 76.9016ZM211.334 69.6074C211.093 70.4145 210.999 71.263 211.057 72.1074C211.06 72.9529 211.21 73.7906 211.499 74.578C211.741 73.7709 211.844 72.924 211.804 72.078C211.805 71.2387 211.645 70.4079 211.334 69.6368V69.6074Z" fill="#010101"/>
<path d="M189.537 70.0777C189.537 72.166 189.067 73.9013 188.348 73.9307C187.628 73.9601 186.965 72.2836 186.909 70.166C186.854 68.0483 187.379 66.3424 188.099 66.313C188.818 66.2836 189.482 67.9601 189.537 70.0777Z" fill="#010101"/>
<path d="M188.459 74.9309C186.938 74.9309 186.191 72.5779 186.108 70.1955C186.025 67.8131 186.634 65.3719 188.21 65.3131C188.708 65.3131 189.51 65.4896 190.091 67.019C190.417 67.9619 190.595 68.9557 190.617 69.9602C190.659 70.9534 190.547 71.9471 190.285 72.9014C189.787 74.4603 188.957 74.725 188.514 74.725L188.459 74.9309ZM188.293 67.6367C188.054 68.4444 187.951 69.2908 187.989 70.1367C187.992 70.9822 188.142 71.8198 188.431 72.6073C188.702 71.8071 188.805 70.9542 188.736 70.1073C188.689 69.2524 188.492 68.4144 188.155 67.6367H188.293Z" fill="#010101"/>
<path d="M100.169 289.874C99.2591 289.83 98.3677 289.588 97.5495 289.163C96.7313 288.738 96.0036 288.139 95.4113 287.404C93.7848 285.477 92.6765 283.12 92.2028 280.58C91.6408 278.055 91.7172 275.416 92.4241 272.933C92.7004 271.81 93.2496 270.784 94.0167 269.958C94.7838 269.132 95.7417 268.535 96.7943 268.227C100.611 267.315 104.594 271.345 105.839 277.374C106.401 279.899 106.325 282.537 105.618 285.021C105.341 286.147 104.791 287.176 104.025 288.007C103.258 288.837 102.301 289.441 101.247 289.756C100.893 289.839 100.531 289.879 100.169 289.874ZM97.873 272.227H97.5964C96.9602 272.374 96.3794 273.139 95.9922 274.315C95.543 276.117 95.543 278.013 95.9922 279.815C96.3415 281.64 97.122 283.341 98.2603 284.756C98.5262 285.134 98.8736 285.438 99.2731 285.643C99.6727 285.847 100.113 285.947 100.556 285.933C101.192 285.933 101.773 285.021 102.16 283.845C102.595 282.04 102.595 280.149 102.16 278.345C101.386 274.58 99.339 272.109 97.873 272.109V272.227Z" fill="#010101"/>
<path d="M319.151 170.755C320.285 161.932 315.362 154.902 309.885 149.108C302.168 141.078 295.364 133.461 290.524 122.843C285.617 111.864 281.994 100.288 279.736 88.372C278.049 79.7543 276.528 71.1366 274.841 62.5189C277.302 64.9012 280.677 66.5189 283.332 63.6954C286.541 60.4894 284.273 56.2835 282.004 52.8717C283.654 53.5434 285.447 53.712 287.182 53.3587C288.917 53.0053 290.524 52.144 291.824 50.8717C296.719 45.8717 296.166 37.4598 293.511 31.2245C288.809 19.4597 273.513 11.7831 264.662 23.8126C263.888 24.8126 264.828 25.6362 264.828 26.2244C263.604 23.5248 262.218 20.9116 260.679 18.4008C249.615 0.753615 228.068 -2.1876 210.892 4.37128C201.219 8.19412 192.802 14.9311 186.672 23.7587C180.541 32.5863 176.963 43.1219 176.373 54.0776C176.36 54.1865 176.37 54.297 176.403 54.4011C176.436 54.5051 176.49 54.6001 176.561 54.6791C176.633 54.758 176.72 54.819 176.817 54.8574C176.913 54.8958 177.017 54.9108 177.12 54.9011C174.834 65.6029 173.949 76.5893 174.492 87.5485C174.69 90.9344 175.191 94.2926 175.986 97.578C175.725 99.2988 175.66 101.047 175.792 102.784C175.986 119.225 160.718 129.255 159.777 145.49V145.902C155.478 149.371 151.741 153.563 148.713 158.314C142.877 167.549 140.222 178.755 136.073 188.785C131.703 199.222 126.464 209.223 120.418 218.667C111.373 212.226 102.688 205.432 94.1964 198.079C90.0475 194.697 85.8986 191.079 81.9433 187.255C80.2284 185.667 77.7943 182.049 75.3326 183.461C74.2364 184.176 73.2939 185.128 72.5667 186.255C69.3582 182.461 66.1497 178.638 63.1348 174.49C62.2563 173.052 61.0886 171.839 59.7158 170.939C58.3431 170.039 56.7995 169.474 55.1965 169.285C46.8987 168.49 38.4072 171.873 30.1093 169.285C26.7349 168.285 19.3775 162.667 18.7966 170.49C18.4094 176.373 25.7668 179.696 30.4966 181.902C28.0349 181.902 25.6008 182.108 23.1391 182.108C22.7519 182.108 22.5859 182.314 22.5859 182.52C22.0728 181.502 21.5 180.52 20.8711 179.579C18.7966 176.99 14.0945 175.785 13.1264 179.785C13.32 178.99 11.0519 178.373 10.6924 178.196C9.75193 177.785 9.75195 177.785 8.42429 178.373C7.97355 178.69 7.61204 179.13 7.37824 179.648C7.14445 180.166 7.04709 180.742 7.09661 181.314C6.54603 180.892 5.90275 180.629 5.22857 180.548C4.55439 180.467 3.87198 180.572 3.24696 180.853C2.62193 181.133 2.07529 181.58 1.65958 182.15C1.24388 182.72 0.973079 183.395 0.873219 184.108C0.801893 185.11 0.972909 186.114 1.36993 187.025C1.76695 187.936 2.37678 188.724 3.14132 189.314C4.20273 189.959 5.40398 190.298 6.6264 190.298C7.84882 190.298 9.05011 189.959 10.1115 189.314C11.5645 191.507 13.2852 193.486 15.2285 195.197C17.303 196.991 21.6179 201.402 24.0796 199.197C24.9965 200.861 26.4832 202.083 28.2285 202.608C30.9945 203.226 37.1072 201.197 40.3157 200.814C46.3455 204.608 53.8965 203.402 60.4795 202.197C59.693 203.265 58.9987 204.407 58.405 205.608C56.3305 209.02 55.6391 211.491 57.6582 215.05C60.4242 219.638 63.8816 223.873 66.8965 228.256L49.9136 228.873C49.5484 228.805 49.1735 228.822 48.8151 228.923C48.4568 229.025 48.1237 229.209 47.8391 229.462C43.8838 233.285 44.6306 237.903 44.8242 243.491C45.3958 252.923 46.1518 262.344 47.0923 271.756C48.7795 289.609 51.2412 307.433 54.2561 325.08C54.0559 325.135 53.8812 325.265 53.7642 325.447C53.6471 325.628 53.5957 325.848 53.6192 326.067C53.6428 326.285 53.7398 326.487 53.8924 326.635C54.045 326.784 54.243 326.869 54.4497 326.874L141.992 328.08L185.362 328.698C198.749 328.904 213.022 330.698 226.105 327.698C226.298 327.698 226.492 327.492 226.685 327.286C227.337 327.349 227.991 327.205 228.566 326.874C228.639 326.949 228.726 327.007 228.821 327.043C228.917 327.078 229.019 327.091 229.119 327.08C240.46 327.286 251.773 327.08 263.085 326.874C263.279 327.698 264.773 327.492 264.773 326.874H267.815C268.562 326.874 268.756 326.08 268.368 325.492C268.562 325.286 268.756 325.08 268.562 324.668C267.484 319.135 266.974 313.494 267.041 307.845C272.905 305.433 278.547 302.845 284.217 299.815C291.791 295.586 299.099 290.841 306.096 285.609C311.185 281.58 317.16 276.991 318.543 269.962C319.105 266.551 318.916 263.047 317.989 259.727C316.855 254.521 315.224 249.521 314.007 244.491C312.513 238.609 310.826 232.726 309.304 226.667C313.647 213.844 310.992 200.197 307.783 187.373C310.837 185.788 313.472 183.421 315.451 180.484C317.431 177.547 318.693 174.133 319.124 170.549L319.151 170.755ZM268.396 22.0185C269.393 20.9969 270.58 20.2077 271.88 19.7013C273.18 19.1948 274.565 18.9823 275.947 19.0773C278.671 19.3053 281.31 20.1905 283.664 21.6656C286.367 23.4782 288.657 25.9067 290.37 28.7755C292.082 31.6442 293.174 34.8817 293.566 38.2539C294.119 43.0775 292.819 48.6658 288.836 50.8717C287.475 51.6412 285.933 51.9757 284.397 51.8348C282.861 51.6939 281.396 51.0836 280.179 50.0776C279.844 49.7493 279.461 49.4811 279.045 49.2835C278.658 49.0776 278.104 49.4893 277.911 49.8717C277.717 50.254 278.104 50.2835 278.104 50.4893C279.239 52.2835 280.732 53.6953 281.866 55.6953C282.415 56.5747 282.691 57.6147 282.657 58.6695C282.622 59.7243 282.278 60.7412 281.673 61.5777C281.202 61.9742 280.663 62.2682 280.086 62.4428C279.509 62.6175 278.905 62.6695 278.309 62.5957C277.713 62.522 277.137 62.3239 276.613 62.013C276.089 61.702 275.628 61.2842 275.256 60.7835C273.759 58.6787 272.806 56.1948 272.49 53.5776C270.956 44.379 268.354 35.4183 264.745 26.9009C265.519 26.3127 266.46 23.695 268.147 21.9009L268.396 22.0185ZM180.3 47.6658C181.759 40.4289 184.865 33.6828 189.345 28.0186C191.571 25.3903 194.361 23.3723 197.477 22.1361C201.158 20.2271 205.271 19.4624 209.343 19.9302C209.587 19.9139 209.831 19.956 210.057 20.0534C210.284 20.1508 210.487 20.301 210.651 20.493C210.816 20.6849 210.938 20.9137 211.008 21.1625C211.079 21.4112 211.096 21.6736 211.058 21.9303C211.776 34.7361 214.419 47.337 218.885 59.2541C217.795 58.469 216.554 57.9532 215.252 57.7446C213.951 57.5359 212.621 57.6397 211.362 58.0482C210.975 58.2247 210.394 58.4306 210.228 58.8424C210.062 59.2541 210.034 59.8424 210.394 60.0482C210.584 60.116 210.788 60.1327 210.985 60.0968C211.183 60.0609 211.37 59.9735 211.528 59.8424C212.403 59.4227 213.357 59.223 214.317 59.2587C215.276 59.2944 216.215 59.5646 217.06 60.0482C218 60.6365 218.941 61.4306 219.826 61.2541C223.76 69.4733 229.442 76.6035 236.422 82.0779C235.841 82.9014 236.034 84.1073 236.781 83.6955C237.148 83.5265 237.528 83.3888 237.915 83.2837C238.109 83.4896 238.302 83.4896 238.662 83.4896C238.809 83.4689 238.945 83.3965 239.049 83.2837C239.394 83.0429 239.677 82.7158 239.875 82.3312C240.073 81.9466 240.179 81.5162 240.183 81.0778C240.377 80.4896 239.796 80.6955 239.63 79.872C239.617 79.7703 239.572 79.6765 239.501 79.6068C239.43 79.537 239.339 79.4955 239.243 79.4896C239.177 78.6272 239.326 77.7616 239.675 76.9803C240.025 76.1989 240.562 75.5296 241.233 75.0401C241.904 74.5505 242.685 74.2581 243.496 74.1924C244.307 74.1268 245.121 74.2901 245.854 74.666C249.062 75.8719 250.362 79.4896 251.136 82.9014C251.664 85.2648 251.72 87.7193 251.302 90.1073C250.979 91.662 250.193 93.0645 249.062 94.1074C245.854 96.3133 239.796 92.1074 238.496 98.3133C230.751 119.166 231.498 122.784 232.826 137.814C230.978 141.635 228.215 144.87 224.815 147.194C221.416 149.518 217.501 150.847 213.464 151.049C209.383 150.979 205.39 149.774 201.882 147.556C198.374 145.337 195.473 142.181 193.466 138.402C193.826 132.814 194.766 119.578 194.6 118.784C194.6 118.578 194.6 118.578 194.407 118.372C198.7 119.397 203.177 119.134 207.338 117.612C211.498 116.091 215.18 113.371 217.973 109.755C218.05 109.676 218.112 109.582 218.155 109.478C218.198 109.373 218.22 109.261 218.222 109.147C218.223 109.034 218.203 108.921 218.162 108.815C218.122 108.71 218.062 108.614 217.987 108.534C217.911 108.453 217.821 108.39 217.722 108.347C217.623 108.304 217.517 108.283 217.41 108.284C217.303 108.285 217.197 108.31 217.099 108.355C217.001 108.4 216.912 108.466 216.839 108.549C213.408 112.88 208.635 115.764 203.38 116.681C198.125 117.598 192.735 116.487 188.183 113.549C178.364 107.137 175.543 94.9309 175.543 83.1073C175.951 71.1193 177.593 59.2149 180.439 47.607L180.3 47.6658ZM177.479 103.784C177.3 103.07 177.17 102.342 177.092 101.607C179.655 107.946 184.093 113.223 189.732 116.637C190.833 117.187 191.97 117.649 193.134 118.019C192.941 118.225 193.134 118.637 193.134 119.019C192.747 124.431 192.388 129.843 192.194 135.078H192C192 134.872 190.866 135.078 190.313 135.078C180.025 134.9 169.961 138.274 161.63 144.696C162.958 129.255 177.839 117.637 177.479 103.784ZM1.84132 186.138C1.28813 183.196 4.85622 181.52 6.18388 184.108C6.25505 184.249 6.36434 184.363 6.49755 184.436C6.63076 184.51 6.78168 184.539 6.93066 184.52C7.32694 185.898 7.83599 187.236 8.45194 188.52C5.99024 189.549 2.61578 189.932 1.84132 186.138ZM12.2136 191.138C10.9465 189.798 9.94382 188.202 9.2646 186.444C8.58537 184.687 8.24327 182.802 8.25834 180.902C8.83919 180.108 11.0243 180.902 12.0477 182.108C12.2136 182.108 12.2137 182.314 12.4073 182.314C12.7954 184.051 13.5002 185.689 14.4817 187.138C16.9434 190.726 19.5711 194.344 22.0328 197.961C22.2264 198.167 22.2264 198.344 22.42 198.549C19.9583 199.549 13.3477 192.667 12.2136 191.138ZM32.0455 200.961C28.837 201.961 27.8689 202.373 24.6881 198.961C22.42 196.344 20.5115 193.079 18.437 190.138C17.4537 188.951 16.5742 187.671 15.8094 186.314C14.4817 184.314 12.6009 182.314 14.869 180.108C17.137 177.902 18.6306 180.902 20.1519 183.314C20.5115 184.108 20.8987 184.932 21.2859 185.726C21.9259 187.195 22.6848 188.602 23.554 189.932C26.32 193.138 29.0859 191.549 32.2114 193.344C33.7327 194.138 34.9774 197.755 37.1348 199.755C37.3008 199.961 37.4944 199.961 37.4944 200.167C35.6189 200.029 33.7366 200.299 31.9625 200.961H32.0455ZM37.3008 197.344C35.8127 195.744 34.8051 193.71 34.4062 191.5C34.0073 189.29 34.235 187.004 35.0604 184.932C35.911 183.071 37.1279 181.426 38.6285 180.108C40.1497 177.902 45.4327 177.167 43.3582 181.314L42.0306 182.726C39.7625 185.314 39.2646 188.608 42.4178 190.932C47.5072 194.344 52.5965 187.138 57.2986 185.932C58.2391 185.726 57.8795 183.932 56.7455 184.314C55.184 184.656 53.7056 185.337 52.4029 186.314C51.2689 187.138 50.3284 187.932 49.388 188.52L47.1199 189.726C44.354 191.138 43.1646 189.344 42.0306 188.138C40.1497 185.196 45.9859 182.255 45.6263 179.314C45.5371 178.83 45.3588 178.37 45.1016 177.96C44.8444 177.55 44.5134 177.198 44.1278 176.925C43.7421 176.651 43.3093 176.462 42.8545 176.367C42.3996 176.272 41.9316 176.274 41.4774 176.373C38.7114 176.579 35.8072 180.373 34.4795 182.785C32.9386 185.338 32.3379 188.407 32.7923 191.402C29.7774 189.608 26.3753 190.991 23.9136 187.402C23.3497 186.461 22.8506 185.479 22.42 184.461H22.503C25.8774 184.461 29.0859 184.255 32.4881 184.255C34.3689 184.255 31.9349 181.667 31.354 181.314C29.0859 179.902 26.8179 178.696 24.5774 177.52C22.8625 176.52 20.4008 175.108 19.8476 172.902C18.9072 168.696 22.6136 169.079 25.3795 169.961C29.7396 171.95 34.4716 172.846 39.2093 172.579C44.4923 172.373 51.4625 170.167 56.7455 171.99C59.954 173.167 61.8348 176.579 64.1029 179.402C66.3709 182.226 68.805 185.285 71.0731 187.814C69.1922 189.814 67.505 192.02 65.7901 194.226C64.0752 196.432 62.7752 198.432 61.088 200.844C60.8944 200.432 60.3412 201.05 59.9539 201.05C52.5965 202.432 43.1646 203.991 37.3008 197.226V197.344ZM224.445 326.757C217.555 327.548 210.63 327.951 203.7 327.962C196.896 327.962 189.871 327.757 183.122 327.757L139.752 327.139L55.2242 325.962C52.4029 309.315 50.1441 292.648 48.4476 275.962C47.7008 267.932 46.9263 259.903 46.3731 251.903C45.7923 245.491 43.9114 233.667 48.0604 231.462H48.6412C79.7581 230.05 110.875 229.844 142.186 230.844C145.588 231.05 148.99 230.844 152.392 231.256L154.273 231.462C159.362 232.462 160.883 236.256 161.63 241.285C162.958 249.903 164.092 258.726 165.392 267.344L172.943 319.433C173.137 320.462 180.494 321.845 182.956 322.051C187.49 322.148 192.025 321.951 196.537 321.462C198.224 321.256 199.745 321.256 201.432 321.051C201.82 321.256 208.596 320.639 211.417 320.462L219.162 319.845C220.103 319.845 221.043 319.639 222.177 319.639C227.46 319.256 228.041 320.845 228.041 322.58C228.041 326.58 225.773 326.168 224.445 326.786V326.757ZM315.694 261.344C317.962 272.168 312.098 278.374 304.934 283.991C298.578 288.973 291.895 293.465 284.936 297.433C269.534 306.196 252.913 312.282 235.702 315.462C234.762 315.668 235.149 317.286 236.283 317.08C245.987 315.224 255.52 312.468 264.773 308.845C264.794 314.43 265.294 320.002 266.266 325.492H263.058C251.994 325.904 240.626 325.904 229.479 325.698C229.786 325.238 229.981 324.705 230.049 324.146C230.116 323.587 230.054 323.019 229.866 322.492C229.866 322.286 229.673 321.874 229.673 321.668C231.661 320.738 233.56 319.605 235.343 318.286C234.805 310.666 232.537 303.298 228.732 296.815L261.564 272.785C262.117 273.168 263.058 272.785 262.698 271.962L270.056 266.55C272.296 264.962 276.085 263.344 277.413 260.668C278.741 257.991 276.832 255.05 275.892 252.844C274.37 248.638 272.877 244.432 271.549 240.02C270.802 237.815 270.222 235.815 269.668 233.609C269.281 232.197 268.922 228.403 267.981 227.403C268.728 228.197 268.728 225.785 268.534 225.579C268.341 225.373 267.981 225.197 267.787 225.373C267.421 225.469 267.092 225.685 266.847 225.991C270.027 215.666 272.359 205.067 273.817 194.314C274.011 193.108 272.49 192.726 272.296 193.902C270.609 208.344 266.266 221.785 262.117 235.609C258.715 247.373 256.585 259.668 260.624 271.285C249.56 279.315 238.496 287.521 227.432 295.55H227.183C227.138 295.305 227.01 295.085 226.824 294.933C219.466 291.344 211.528 286.727 203.617 285.109C197.781 283.903 190.037 288.933 185.694 292.933C183.813 294.727 177.396 300.756 180.992 304.168C182.873 305.756 185.307 303.962 186.828 302.962C190.977 300.021 194.932 296.756 198.888 293.55C199.662 292.933 198.888 291.344 198.141 292.139L190.59 298.021C189.456 299.021 186.081 302.639 184.56 302.639C178.143 302.639 186.441 294.815 187.575 293.815C189.535 292.181 191.693 290.835 193.992 289.815C196.47 288.242 199.231 287.24 202.096 286.874C204.764 287.209 207.373 287.952 209.841 289.08C215.511 291.286 220.905 294.109 226.243 296.697H226.63C226.63 296.752 226.651 296.804 226.687 296.843C226.723 296.882 226.772 296.903 226.824 296.903C230.914 303.19 233.323 310.54 233.794 318.168C233.695 318.155 233.595 318.164 233.5 318.195C233.405 318.225 233.316 318.276 233.241 318.345C232.003 319.355 230.595 320.104 229.092 320.551C227.017 317.962 222.675 318.168 219.826 318.168L201.93 319.345C201.638 319.042 201.443 318.648 201.373 318.22C201.304 317.792 201.363 317.352 201.543 316.962C201.737 316.551 201.543 316.345 201.349 316.139C202.331 315.736 203.26 315.202 204.115 314.551C207.324 312.139 210.505 309.55 213.547 307.139C214.294 306.521 213.547 304.933 212.773 305.727C210.339 307.727 207.877 309.727 205.222 311.609C204.295 312.45 203.284 313.18 202.207 313.786C201.505 314.402 200.667 314.817 199.773 314.992C196.564 315.815 194.849 314.198 194.849 310.198C194.918 310.032 194.939 309.849 194.909 309.671C194.88 309.493 194.801 309.328 194.683 309.198C198.637 307.154 202.207 304.364 205.222 300.962C205.316 300.891 205.395 300.799 205.453 300.692C205.511 300.585 205.547 300.466 205.557 300.343C205.568 300.221 205.553 300.097 205.515 299.98C205.476 299.864 205.414 299.758 205.333 299.67C205.252 299.582 205.154 299.513 205.045 299.469C204.937 299.425 204.821 299.406 204.705 299.415C204.59 299.423 204.477 299.458 204.375 299.517C204.273 299.576 204.185 299.657 204.115 299.756C202.207 301.58 200.326 303.374 198.251 304.992C197.505 305.58 196.564 306.198 195.79 306.786C195.14 307.209 194.443 307.545 193.715 307.786C191.281 309.198 189.566 307.992 188.626 304.374C189.013 303.374 187.326 302.962 187.132 303.992C186.935 304.781 186.931 305.611 187.122 306.402C187.312 307.193 187.691 307.918 188.222 308.509C188.752 309.1 189.416 309.535 190.151 309.774C190.885 310.013 191.665 310.048 192.415 309.874C192.775 309.874 193.356 309.668 193.715 309.668C193.447 310.459 193.351 311.304 193.434 312.14C193.517 312.976 193.778 313.781 194.196 314.494C194.614 315.208 195.178 315.811 195.847 316.259C196.516 316.707 197.272 316.988 198.058 317.08C198.816 317.214 199.594 317.153 200.326 316.903C200.092 317.763 200.161 318.683 200.52 319.492C199.822 319.458 199.124 319.527 198.445 319.698C195.043 319.904 191.641 320.286 188.073 320.286C184.505 320.286 179.028 321.109 175.986 319.08C175.432 318.698 175.045 318.698 174.686 318.08C172.611 303.874 170.537 289.433 168.462 275.197C167.328 267.991 166.388 260.756 165.254 253.55C164.479 247.668 164.479 240.315 161.852 235.109C161.073 233.578 159.93 232.291 158.536 231.378C157.143 230.464 155.549 229.956 153.913 229.903C152.582 208.355 152.647 186.735 154.107 165.196C154.107 164.986 154.028 164.784 153.888 164.635C153.748 164.486 153.558 164.402 153.36 164.402C153.162 164.402 152.972 164.486 152.832 164.635C152.692 164.784 152.613 164.986 152.613 165.196C151.221 186.679 151.156 208.235 152.42 229.726C146.556 229.138 140.332 229.314 134.496 229.138C121.109 228.726 107.722 228.52 94.5007 228.726C85.8156 228.726 77.1581 228.932 68.4731 229.138C68.4731 228.932 68.4731 228.932 68.2795 228.726C65.8178 225.109 63.3837 221.697 60.7284 218.108C59.6553 216.979 58.8808 215.569 58.4827 214.02C58.0845 212.471 58.0768 210.838 58.4603 209.285C59.6097 206.852 61.0105 204.564 62.6369 202.461C65.0709 198.844 67.5326 195.461 70.1603 192.255C71.381 190.615 72.7121 189.072 74.1433 187.638C75.4433 186.638 75.6369 184.696 78.2922 186.226C79.039 186.843 80.5326 188.226 81.0581 188.844C93.3907 200.047 106.32 210.486 119.781 220.109C119.588 220.314 120.915 221.314 121.109 221.109L122.05 219.697C126.986 211.964 131.396 203.865 135.243 195.461C139.779 185.432 142.601 174.608 147.33 164.784C151.43 156.255 157.713 149.132 165.455 144.235C173.197 139.338 182.083 136.868 191.088 137.108C192.856 141.928 195.975 146.054 200.022 148.926C204.069 151.799 208.849 153.279 213.713 153.167C218.642 152.828 223.368 150.954 227.303 147.78C231.237 144.605 234.207 140.27 235.841 135.314C243.751 138.255 251.69 141.725 259.407 145.549C266.855 148.782 273.845 153.098 280.179 158.373C286.596 164.255 289.804 173.079 292.819 181.608C295.834 190.138 298.655 199.255 301.311 208.079C306.207 225.109 311.683 242.962 315.445 261.021L315.694 261.344ZM268.147 233.079C268.728 235.285 269.475 237.491 270.056 239.491C271.356 243.697 272.822 248.109 274.204 252.315C275.145 254.932 276.832 257.726 274.951 260.55C273.229 262.288 271.248 263.709 269.087 264.756C266.847 266.55 264.385 268.168 262.117 269.962C257.968 257.55 260.983 244.697 264.883 232.697C265.436 230.873 266.017 228.873 266.57 227.079V227.462C266.846 229.418 267.416 231.315 268.258 233.079H268.147ZM305.709 186.167C305.512 186.286 305.352 186.463 305.249 186.678C305.146 186.892 305.104 187.134 305.128 187.373C307.894 199.402 310.992 212.05 307.396 224.256C306.455 221.05 305.709 217.844 304.63 214.844C301.864 204.814 298.794 194.991 295.392 185.167C292.626 176.961 289.86 168.137 284.826 161.314C279.294 153.902 270.996 149.549 263.141 145.696C254.114 140.88 244.79 136.723 235.232 133.255C234.845 133.049 234.458 133.461 234.292 133.872C232.771 121.049 233.711 115.637 238.994 102.402C239.139 102.849 239.371 103.259 239.673 103.606C239.976 103.953 240.343 104.23 240.751 104.418C241.16 104.606 241.6 104.702 242.045 104.699C242.491 104.696 242.93 104.595 243.336 104.402C244.547 103.669 245.453 102.477 245.874 101.065C246.294 99.6529 246.198 98.124 245.605 96.7839C246.862 97.1624 248.208 97.0151 249.366 96.3721C253.709 93.9897 253.322 86.7544 252.381 82.3426C251.441 77.9308 248.039 72.3131 242.949 72.9307C242.123 73.0408 241.327 73.3283 240.608 73.7759C239.89 74.2234 239.265 74.8217 238.771 75.5342C238.277 76.2467 237.924 77.0586 237.734 77.9206C237.544 78.7826 237.521 79.6767 237.666 80.5484V81.1367C237.666 81.3426 237.86 81.7543 237.86 81.9602C237.86 81.9861 237.855 82.0117 237.845 82.0353C237.835 82.0589 237.82 82.0798 237.802 82.0967C237.783 82.1135 237.762 82.1258 237.738 82.1327C237.715 82.1396 237.69 82.141 237.666 82.1367C237.457 81.7087 237.128 81.3596 236.726 81.1367C228.158 74.2571 221.778 64.7523 218.443 53.9011C215.139 43.1034 213.05 31.9273 212.22 20.6067C212.227 20.3143 212.179 20.0232 212.079 19.7505C211.979 19.4779 211.83 19.229 211.639 19.0185C211.445 18.8126 211.085 18.8126 210.698 18.6067C195.043 16.8126 183.924 29.4303 179.581 44.254C179.194 45.8717 178.641 47.1952 178.254 48.8717C179.704 39.8589 183.246 31.3732 188.559 24.1832C193.872 16.9932 200.787 11.326 208.679 7.69485C226.215 -0.128744 248.675 2.48893 259.794 21.1361C266.017 31.7539 269.419 44.3717 272.075 57.1953C271.494 57.0188 275.449 77.0484 276.97 84.6661C280.566 103.313 285.656 122.549 296.581 137.784C302.251 145.608 311.102 151.226 315.445 160.226C316.613 162.571 317.285 165.159 317.415 167.81C317.545 170.46 317.129 173.109 316.197 175.571C315.264 178.033 313.838 180.248 312.017 182.063C310.196 183.878 308.024 185.249 305.653 186.079L305.709 186.167Z" fill="#010101"/>
<path d="M208.153 330.61C203.921 330.61 199.633 330.433 195.429 330.257C192.055 330.257 188.68 329.963 185.389 329.904L54.4763 328.11C54.0302 328.103 53.6028 327.918 53.2797 327.591C52.9566 327.263 52.7616 326.818 52.7338 326.345C52.7023 326.062 52.7307 325.775 52.8168 325.506C52.903 325.236 53.0447 324.99 53.2317 324.786C50.1615 306.698 47.6998 288.962 46.1785 272.08C45.2381 262.727 44.4913 253.197 43.9104 243.785V241.844C43.6892 237.109 43.4955 232.609 47.3402 228.932C47.7114 228.578 48.1528 228.318 48.6317 228.17C49.1105 228.023 49.6144 227.991 50.1061 228.079L65.2636 227.55L62.9125 224.315C60.7922 221.594 58.8338 218.736 57.0487 215.756C54.753 211.785 55.5551 208.991 57.8232 205.285C58.0447 204.774 58.3036 204.282 58.5976 203.814C53.0657 204.756 46.0125 205.491 40.287 202.05C39.2913 202.05 38.019 202.491 36.6913 202.785C33.9417 203.616 31.0827 203.964 28.2275 203.814C26.5269 203.363 25.0409 202.264 24.0509 200.726C21.2849 202.02 17.7445 198.785 15.5041 196.814L14.8126 196.167C13.0054 194.603 11.3887 192.804 9.99985 190.814C8.86425 191.409 7.60385 191.684 6.33965 191.612C5.07546 191.54 3.84993 191.123 2.78071 190.403C1.86175 189.724 1.12391 188.804 0.639144 187.732C0.154378 186.659 -0.060756 185.472 0.0147626 184.285C0.115536 183.391 0.437451 182.542 0.947663 181.824C1.45788 181.105 2.13813 180.544 2.91902 180.197C4.03356 179.698 5.27803 179.636 6.43179 180.02C6.52771 179.522 6.72629 179.052 7.01325 178.646C7.30021 178.239 7.66839 177.905 8.09133 177.667C9.61261 176.961 9.88922 176.902 11.1339 177.432L11.5211 177.608C12.0057 177.763 12.4775 177.96 12.9317 178.197C13.4642 177.324 14.2994 176.711 15.2552 176.491C16.4457 176.315 17.6587 176.462 18.7809 176.92C19.9032 177.378 20.8979 178.131 21.6722 179.108C22.1646 179.792 22.5996 180.52 22.9722 181.285C24.0509 181.285 25.2679 181.285 26.4296 181.285C22.1147 179.049 17.5786 175.844 17.9105 170.667C17.8883 169.806 18.0629 168.952 18.4194 168.178C18.7759 167.405 19.3036 166.735 19.9573 166.226C22.1424 164.814 25.2402 166.226 27.9509 167.549C28.8913 167.961 29.7764 168.373 30.4126 168.579C35.152 169.733 40.0601 169.873 44.8508 168.991C48.3228 168.475 51.8343 168.327 55.3338 168.549C57.0627 168.748 58.7286 169.353 60.2114 170.319C61.6941 171.286 62.9567 172.59 63.9082 174.138C66.6742 177.814 69.6891 181.402 72.5933 184.844C73.2835 183.997 74.119 183.299 75.055 182.785C77.6273 181.314 79.9784 183.844 81.6933 185.726C82.0529 186.108 82.3848 186.491 82.7167 186.785C86.3124 190.255 90.2954 193.785 94.9145 197.55C103.544 204.903 111.842 211.373 120.306 217.403C126.119 208.27 131.155 198.604 135.353 188.52C136.708 185.255 137.953 181.755 139.114 178.373C141.326 171.158 144.334 164.247 148.076 157.785C151.046 153.095 154.685 148.928 158.863 145.432C159.361 137.314 163.261 130.726 167.161 124.373C171.227 117.52 175.099 111.049 174.989 102.843C174.897 101.086 174.952 99.3244 175.155 97.5782C174.384 94.3185 173.893 90.9911 173.689 87.637C173.184 76.6027 174.114 65.5471 176.455 54.7837C176.648 51.2837 179.94 16.1657 210.836 3.45974C226.823 -3.09914 249.559 -1.39324 261.757 17.8716C262.697 19.5187 263.638 21.1658 264.523 22.8129C266.101 20.6343 268.195 18.9413 270.591 17.9076C272.988 16.8738 275.599 16.5366 278.159 16.9305C281.806 17.5784 285.24 19.1962 288.141 21.6336C291.043 24.071 293.318 27.2488 294.754 30.8717C297.327 36.7542 298.378 45.9895 292.846 51.6367C291.759 52.7572 290.449 53.6033 289.012 54.1124C287.576 54.6215 286.05 54.7806 284.548 54.5779C286.125 57.5191 287.591 61.4308 284.41 64.5779C283.404 65.6401 282.069 66.2767 280.654 66.3687C279.239 66.4607 277.841 66.0019 276.72 65.0779C277.384 68.5486 278.02 71.9898 278.684 75.4604C279.459 79.7545 280.261 84.0193 281.118 88.3134C283.32 100.15 286.897 111.65 291.767 122.549C296.726 132.356 303.281 141.149 311.129 148.52C316.218 153.932 321.888 161.373 320.644 171.02C320.206 174.62 318.976 178.06 317.053 181.059C315.131 184.059 312.571 186.535 309.58 188.285C312.54 200.314 315.112 214.138 310.963 227.05C311.682 229.991 312.457 232.932 313.231 235.668C314.005 238.403 314.835 241.55 315.582 244.491L316.827 249.021C317.767 252.491 318.763 256.08 319.593 259.756C320.563 263.219 320.753 266.877 320.146 270.433C318.569 277.815 312.623 282.492 307.34 286.639C300.301 291.902 292.957 296.686 285.35 300.962C280.123 303.727 274.646 306.286 268.755 308.757C268.736 314.08 269.227 319.392 270.22 324.61C270.303 324.804 270.346 325.014 270.346 325.227C270.346 325.44 270.303 325.651 270.22 325.845C270.373 326.292 270.373 326.781 270.22 327.227C270.069 327.506 269.851 327.737 269.589 327.897C269.327 328.057 269.029 328.141 268.727 328.139H266.238C265.85 328.484 265.36 328.672 264.855 328.672C264.349 328.672 263.86 328.484 263.472 328.139C252.408 328.345 241.206 328.521 230.004 328.316C229.82 328.337 229.634 328.337 229.45 328.316C228.962 328.499 228.447 328.589 227.929 328.58C227.675 328.837 227.339 328.984 226.989 328.992C220.785 330.266 214.468 330.808 208.153 330.61ZM56.0253 324.904L183.259 326.698H193.548C196.978 326.698 200.408 326.698 203.81 326.698C210.667 326.692 217.518 326.29 224.333 325.492L225.218 325.227C226.408 324.904 227.182 324.698 227.182 322.286C227.182 321.668 227.182 321.345 226.85 321.11C226.519 320.874 225.329 320.257 222.37 320.463C221.826 320.427 221.281 320.427 220.738 320.463H219.272L209.093 321.257C206.568 321.567 204.028 321.704 201.487 321.668C200.685 321.668 199.91 321.668 199.136 321.874C198.361 322.08 197.559 321.874 196.729 322.08C192.135 322.577 187.516 322.773 182.899 322.668C182.761 322.668 172.444 321.551 172.029 319.257L164.478 267.109C163.814 262.786 163.206 258.433 162.57 254.08C161.934 249.727 161.353 245.256 160.689 241.05C159.97 236.168 158.587 232.932 154.106 232.05L152.28 231.874C150.289 231.638 148.242 231.609 146.251 231.579C144.895 231.579 143.485 231.579 142.129 231.579C111.04 230.579 79.5912 230.785 48.6679 232.197H48.3083C45.5423 234.05 46.4551 243.227 47.0359 248.756C47.0359 249.756 47.2296 250.697 47.3125 251.55C47.8657 259.58 48.6402 267.697 49.387 275.58C51.0466 292.139 53.287 308.639 56.0253 324.904ZM267.206 326.08H267.51L267.206 325.639L267.648 325.08C266.563 319.479 266.053 313.769 266.127 308.051V307.58L265.574 307.815V308.845C265.598 314.372 266.098 319.885 267.067 325.316L267.206 326.08ZM228.953 323.139C228.908 323.843 228.739 324.531 228.455 325.168V324.963C228.812 324.479 228.99 323.871 228.953 323.257V323.139ZM230.778 324.61C242.727 324.786 253.265 324.61 262.891 324.374H264.993C264.232 319.679 263.798 314.931 263.693 310.168C254.786 313.569 245.626 316.167 236.31 317.933H236.116C236.116 319.051 232.299 321.11 230.584 321.963C230.896 322.846 230.963 323.805 230.778 324.727V324.61ZM175.459 317.933C175.563 318.022 175.674 318.101 175.791 318.168L176.399 318.521C178.889 320.168 184.006 319.815 187.048 319.61H187.906C190.34 319.61 192.663 319.433 194.931 319.257L198.278 319.021L199.163 318.845V318.463C198.689 318.564 198.2 318.564 197.725 318.463C196.776 318.329 195.868 317.965 195.072 317.399C194.276 316.833 193.612 316.08 193.133 315.198C192.475 314.021 192.202 312.645 192.359 311.286C191.37 311.416 190.365 311.285 189.434 310.906C188.504 310.526 187.675 309.909 187.021 309.109C186.536 308.494 186.194 307.766 186.021 306.985C185.848 306.204 185.849 305.39 186.025 304.609C185.241 305.258 184.287 305.629 183.295 305.671C182.303 305.713 181.323 305.424 180.493 304.845C180.053 304.451 179.699 303.961 179.455 303.407C179.212 302.854 179.084 302.25 179.082 301.639C179.082 298.345 182.291 294.874 185.085 292.198C190.036 287.609 197.863 282.815 203.893 284.05C210.554 285.763 216.984 288.362 223.033 291.786C224.472 292.521 225.799 293.256 227.321 293.933L227.597 294.139C232.963 290.286 238.246 286.374 243.557 282.374C248.867 278.374 254.206 274.55 259.544 270.609C255.506 258.462 258.161 245.815 261.314 235.021L262.476 231.079C266.58 218.879 269.59 206.294 271.465 193.491C271.494 193.241 271.57 193 271.689 192.783C271.807 192.565 271.967 192.376 272.157 192.226C272.329 192.089 272.526 191.991 272.735 191.935C272.944 191.88 273.161 191.868 273.374 191.903C273.853 192.002 274.276 192.299 274.55 192.729C274.825 193.159 274.929 193.686 274.84 194.197C273.482 204.325 271.317 214.312 268.367 224.05C268.712 224.133 269.028 224.316 269.28 224.579C269.944 225.285 269.557 227.079 269.557 227.079L269.391 227.521C269.82 228.79 270.134 230.1 270.331 231.432C270.415 231.968 270.526 232.498 270.663 233.021C271.299 235.521 271.852 237.432 272.516 239.374C273.844 243.815 275.282 248.197 276.859 252.197L277.274 253.138C278.297 255.344 279.68 258.344 278.297 260.874C276.88 263.138 274.884 264.923 272.544 266.021C271.852 266.433 271.216 266.815 270.663 267.227L263.804 272.256C263.791 272.459 263.74 272.657 263.655 272.839C263.569 273.021 263.451 273.183 263.306 273.315C263.098 273.502 262.853 273.635 262.589 273.707C262.326 273.778 262.051 273.785 261.784 273.727L229.948 297.109C232.95 302.42 234.942 308.306 235.812 314.433C252.806 311.236 269.217 305.201 284.438 296.551C291.352 292.599 297.997 288.137 304.325 283.198C312.235 276.992 316.744 271.227 314.725 261.58C311.571 246.491 307.201 231.521 302.997 217.02C302.167 214.256 301.365 211.491 300.591 208.756C297.963 199.932 295.059 191.108 292.127 182.285C289.195 173.461 285.765 165.079 279.735 159.432C273.904 154.524 267.463 150.496 260.595 147.461L259.212 146.755C252.021 143.226 244.387 139.902 236.587 136.902C234.774 141.854 231.663 146.15 227.623 149.278C223.583 152.406 218.784 154.236 213.795 154.549H213.353C208.457 154.625 203.653 153.134 199.565 150.27C195.476 147.407 192.291 143.303 190.423 138.49C181.693 138.348 173.101 140.814 165.624 145.608C158.148 150.402 152.087 157.332 148.131 165.608C145.725 170.856 143.583 176.236 141.714 181.726C140 186.55 138.202 191.52 136.183 196.256C132.322 204.717 127.885 212.866 122.906 220.638L121.578 222.638L120.749 222.462C120.067 222.209 119.477 221.736 119.061 221.109C105.603 211.535 92.6735 201.145 80.338 189.991C79.7571 189.373 78.2635 187.991 77.572 187.403C76.4103 186.726 76.2444 186.932 75.5806 187.726C75.2792 188.139 74.9255 188.505 74.5295 188.814C73.4352 189.929 72.4096 191.118 71.4593 192.373L70.7401 193.285C68.4167 196.079 66.038 199.314 63.2444 203.432C62.8018 204.167 62.2487 204.932 61.6955 205.726C60.6666 206.999 59.8356 208.439 59.2338 209.991C58.8894 211.385 58.9028 212.851 59.2725 214.237C59.6422 215.624 60.3548 216.879 61.3359 217.873C63.5763 220.815 66.2316 224.579 68.887 228.491C77.1848 228.285 85.8146 228.109 94.3613 228.109C106.227 227.932 119.255 228.109 134.385 228.491C136.321 228.491 138.312 228.491 140.331 228.491C143.955 228.491 147.661 228.491 151.395 228.873C150.233 207.721 150.325 186.513 151.672 165.373C151.686 164.894 151.877 164.441 152.203 164.111C152.529 163.781 152.964 163.6 153.414 163.608C153.625 163.607 153.834 163.65 154.029 163.736C154.224 163.822 154.4 163.948 154.548 164.108C154.714 164.285 154.844 164.497 154.93 164.73C155.015 164.962 155.055 165.211 155.046 165.461C153.588 186.715 153.514 208.05 154.825 229.315C156.468 229.492 158.044 230.097 159.414 231.077C160.785 232.057 161.906 233.381 162.68 234.932C164.543 239.478 165.576 244.359 165.723 249.315C165.861 250.844 165.999 252.256 166.165 253.697C166.746 257.285 167.272 260.903 167.77 264.521C168.268 268.139 168.821 271.727 169.374 275.315L175.459 317.933ZM221.07 317.139C224.007 316.794 226.96 317.611 229.367 319.433C230.558 318.991 231.678 318.356 232.687 317.551C232.124 310.484 229.846 303.694 226.076 297.845H225.744L223.642 296.815C219.023 294.521 214.265 292.168 209.397 290.256L207.35 289.521C205.647 288.745 203.833 288.278 201.984 288.139C199.584 288.382 197.258 289.153 195.153 290.403L194.268 290.845C192.037 291.833 189.944 293.139 188.044 294.727C185.278 297.286 182.706 300.609 183.01 301.404C183.01 301.404 183.37 301.756 184.448 301.756C185.527 301.756 188.072 299.109 188.985 298.227L189.897 297.374L197.476 291.492C197.656 291.297 197.884 291.16 198.133 291.098C198.383 291.035 198.644 291.05 198.887 291.139C199.19 291.248 199.458 291.448 199.659 291.713C199.86 291.979 199.985 292.3 200.021 292.639C200.08 292.983 200.049 293.337 199.932 293.664C199.815 293.991 199.616 294.277 199.357 294.492C195.816 297.433 192.165 300.374 188.293 303.08C188.523 303.192 188.73 303.352 188.902 303.551C189.057 303.731 189.172 303.947 189.239 304.181C189.306 304.415 189.323 304.662 189.289 304.904C189.731 306.462 190.312 307.462 191.004 307.845C191.329 307.948 191.671 307.973 192.006 307.917C192.341 307.861 192.66 307.726 192.94 307.521C193.475 307.362 193.987 307.125 194.461 306.815L195.042 306.492L196.148 305.668L197.365 304.786C199.377 303.181 201.307 301.463 203.146 299.639C203.389 299.397 203.692 299.234 204.019 299.169C204.346 299.105 204.684 299.141 204.993 299.274C205.301 299.407 205.567 299.631 205.759 299.92C205.952 300.209 206.062 300.55 206.078 300.904C206.092 301.158 206.055 301.413 205.969 301.652C205.884 301.89 205.751 302.106 205.58 302.286L205.331 302.551C202.465 305.67 199.162 308.299 195.54 310.345C195.594 310.557 195.594 310.78 195.54 310.992C195.493 311.602 195.561 312.216 195.742 312.797C195.922 313.378 196.211 313.914 196.591 314.374C197.002 314.64 197.466 314.802 197.945 314.848C198.424 314.894 198.907 314.822 199.357 314.639C200.127 314.487 200.85 314.134 201.459 313.609C202.528 313.005 203.53 312.275 204.446 311.433C207.212 309.374 209.619 307.374 212.025 305.404C212.205 305.209 212.432 305.072 212.682 305.01C212.932 304.947 213.193 304.961 213.436 305.051C213.733 305.18 213.994 305.389 214.193 305.658C214.392 305.927 214.521 306.246 214.569 306.585C214.616 306.923 214.58 307.269 214.464 307.587C214.347 307.906 214.155 308.188 213.906 308.404L212.163 309.786C209.674 311.786 207.046 313.874 204.446 315.845C203.825 316.331 203.168 316.764 202.482 317.139C202.48 317.398 202.413 317.652 202.289 317.874C202.179 318.167 202.179 318.493 202.289 318.786L220.323 317.61L221.07 317.139ZM198.002 316.345C198.637 316.519 199.303 316.519 199.938 316.345H199.799C199.171 316.476 198.529 316.515 197.891 316.462L198.002 316.345ZM187.74 305.286C187.68 305.71 187.709 306.144 187.824 306.555C187.938 306.967 188.136 307.347 188.404 307.668C188.745 308.114 189.181 308.467 189.676 308.698C188.707 307.835 187.996 306.69 187.629 305.404L187.74 305.286ZM201.763 285.698C196.895 285.698 190.699 289.403 186.302 293.462C184.891 294.815 180.77 298.668 180.77 301.462C180.766 301.788 180.831 302.11 180.961 302.406C181.09 302.701 181.28 302.961 181.516 303.168C181.78 303.386 182.093 303.525 182.423 303.571C182.754 303.618 183.09 303.57 183.397 303.433C182.935 303.421 182.486 303.263 182.107 302.981C181.728 302.698 181.436 302.303 181.268 301.845C180.272 298.904 185.776 293.903 186.799 293.021C188.837 291.32 191.079 289.916 193.465 288.845L194.295 288.433C196.644 287.036 199.247 286.194 201.929 285.962C204.007 286.1 206.046 286.618 207.959 287.492C208.623 287.756 209.287 288.021 209.95 288.227C214.957 290.168 219.742 292.551 224.361 294.845L226.159 295.727L222.01 293.609C216.107 290.272 209.835 287.733 203.34 286.05C202.789 285.883 202.224 285.774 201.653 285.727L201.763 285.698ZM316.578 261.021C319.067 272.786 312.152 279.462 305.514 284.697C299.129 289.696 292.418 294.207 285.433 298.198L283.248 299.404L283.995 299.021C291.516 294.8 298.777 290.074 305.735 284.874C310.714 280.933 316.384 276.492 317.822 269.815C318.339 266.558 318.15 263.218 317.269 260.05C316.467 256.433 315.499 252.874 314.503 249.432C314.089 247.903 313.674 246.491 313.286 244.874C312.512 241.932 311.71 238.991 310.935 236.05C310.161 233.109 309.303 230.168 308.557 227.226V226.903V226.609C312.871 213.844 310.022 199.961 307.008 187.932L306.814 187.108L307.533 186.755C308.904 186.093 310.187 185.243 311.35 184.226C309.766 185.531 307.978 186.526 306.067 187.167C306.061 187.265 306.061 187.363 306.067 187.461C308.833 199.638 311.876 212.226 308.225 224.609L307.699 226.491C310.963 237.844 314.116 249.462 316.55 261.197L316.578 261.021ZM271.244 264.521H271.05C270.497 264.844 269.999 265.109 269.64 265.374C268.561 266.227 267.372 267.08 266.155 267.962C264.938 268.844 263.997 269.521 262.974 270.315L269.529 265.491C269.889 265.374 270.469 265.139 271.078 264.639L271.244 264.521ZM266.32 230.785C266.099 231.521 265.906 232.197 265.684 232.874C262.061 244.403 259.24 256.609 262.642 268.168L265.104 266.344C266.265 265.521 267.455 264.668 268.561 263.786C269.031 263.462 269.557 263.168 270.138 262.815C271.641 262.104 273.01 261.108 274.176 259.874C275.476 257.903 274.729 256.021 273.844 253.815C273.678 253.403 273.484 252.962 273.346 252.55C272.129 249.109 271.023 245.579 269.944 242.138L269.169 239.668C268.948 238.844 268.699 238.021 268.423 237.168C268.146 236.315 267.621 234.579 267.289 233.256L266.818 232.021L266.32 230.785ZM276.748 257.256C276.813 258.228 276.65 259.202 276.273 260.09C275.897 260.978 275.318 261.753 274.591 262.344C275.403 261.729 276.082 260.937 276.582 260.021C276.91 259.163 276.91 258.203 276.582 257.344L276.748 257.256ZM162.846 241.815C163.012 243.021 163.206 244.256 163.372 245.462C163.068 244.315 162.902 243.08 162.68 241.903L162.846 241.815ZM48.6125 230.403H48.8061C55.0019 230.109 61.2252 229.873 67.4763 229.697V229.491L50.2998 230.109C49.3317 230.109 49.1104 230.109 48.8338 230.403H48.6125ZM267.51 228.168C267.648 228.842 267.842 229.501 268.091 230.138C267.908 229.483 267.658 228.852 267.344 228.256L267.51 228.168ZM267.51 226.609V227.373C267.495 227.5 267.495 227.629 267.51 227.756L268.727 226.462C268.549 226.389 268.352 226.389 268.174 226.462C268.079 226.479 267.989 226.517 267.908 226.573C267.827 226.628 267.758 226.701 267.703 226.785C267.703 226.785 267.703 226.579 267.703 226.403L267.51 226.579V226.609ZM235.01 132.196C235.222 132.209 235.429 132.269 235.618 132.373C245.174 135.835 254.498 139.982 263.527 144.785L263.969 145.02C271.797 149.079 279.874 153.255 285.544 160.696C289.868 167.214 293.165 174.436 295.308 182.079L296.248 184.844C299.429 194.05 302.472 203.785 305.514 214.55C306.04 216.226 306.51 217.991 306.98 219.756L307.201 220.52C309.276 209.726 306.676 198.638 304.131 187.903V187.638C304.061 187.179 304.124 186.708 304.312 186.287C304.5 185.867 304.803 185.518 305.182 185.285H305.348C307.64 184.481 309.734 183.141 311.476 181.365C313.218 179.589 314.564 177.421 315.416 175.02C316.301 172.752 316.689 170.299 316.55 167.848C316.411 165.397 315.749 163.012 314.614 160.873C311.746 155.794 308.089 151.269 303.799 147.49C300.905 144.776 298.214 141.826 295.75 138.667C284.327 122.755 279.321 102.667 275.974 85.1369C271.88 64.5485 270.995 59.1955 271.023 57.5485C268.672 46.1072 265.491 32.96 258.908 21.9305C247.484 2.75385 224.997 1.75386 208.955 8.87157C200.432 12.6315 193.086 18.8829 187.768 26.9011C190.613 23.4876 194.19 20.8529 198.196 19.2199C202.201 17.5868 206.518 17.0033 210.78 17.5187H211.084H211.416C211.741 17.5964 212.038 17.7697 212.274 18.0187C212.554 18.3209 212.773 18.6796 212.921 19.0736C213.068 19.4676 213.14 19.8889 213.131 20.3128C213.959 31.5135 216.029 42.5708 219.299 53.2543C222.491 63.7077 228.526 72.9197 236.642 79.7251C236.521 77.8992 237.033 76.0895 238.08 74.6368C238.637 73.8214 239.348 73.1385 240.167 72.632C240.986 72.1255 241.896 71.8066 242.838 71.6956C248.591 70.9898 252.076 76.7545 253.265 81.8722C253.874 84.8134 255.367 93.9311 249.78 97.0488C248.864 97.5424 247.847 97.785 246.821 97.7547C247.141 99.1745 247.004 100.668 246.432 101.995C245.861 103.323 244.887 104.408 243.667 105.078C242.921 105.426 242.094 105.531 241.291 105.379C240.489 105.227 239.747 104.826 239.159 104.225C234.65 116.049 233.848 121.402 235.01 132.196ZM120.776 219.991L121.163 219.403C126.077 211.722 130.459 203.671 134.274 195.314C134.717 194.314 135.159 193.344 135.574 192.373C131.466 201.72 126.656 210.701 121.191 219.226L120.776 219.991ZM76.3827 184.991C77.145 185.036 77.8855 185.279 78.5401 185.697C79.5963 186.564 80.6031 187.497 81.555 188.491C88.055 194.373 94.472 199.814 100.917 204.991C98.538 203.05 96.1316 201.05 93.7252 199.109C89.0784 195.285 85.0401 191.726 81.4167 188.255L80.3103 187.108C78.5954 185.226 77.1572 183.844 75.8848 184.579C74.8883 185.248 74.024 186.117 73.3401 187.138L72.8422 187.814L73.3125 187.344C73.6041 187.107 73.8646 186.83 74.0869 186.52C74.3341 186.096 74.6696 185.737 75.0676 185.472C75.4656 185.206 75.9155 185.042 76.3827 184.991ZM32.1275 200.814V201.667H32.3211L32.1275 200.814ZM35.0594 201.109C34.5542 201.174 34.0547 201.282 33.5658 201.432L35.0594 201.109ZM38.1296 196.52C43.6615 203.109 53.0934 201.314 59.8976 200.02H60.1465C60.3477 199.912 60.5617 199.833 60.7827 199.785C61.1699 199.256 61.5295 198.726 61.8614 198.226C62.8848 196.756 63.8529 195.285 65.1805 193.638C66.5082 191.991 68.2231 189.697 69.8827 187.755C67.7529 185.314 65.5678 182.755 63.4657 179.991C62.9955 179.402 62.4976 178.755 62.0274 178.108C60.6908 175.845 58.7706 174.038 56.4955 172.902C52.6569 172.033 48.6894 172.033 44.8508 172.902C43.018 173.208 41.1716 173.415 39.3189 173.52C34.4686 173.781 29.626 172.866 25.1573 170.844C23.3318 170.167 21.6998 170.049 21.119 170.608C20.5381 171.167 20.8147 171.844 20.953 172.491C21.3956 174.197 23.5254 175.432 25.102 176.402C27.3977 177.608 29.7211 178.844 32.0168 180.285C32.7277 180.693 33.3351 181.279 33.787 181.991C34.3955 180.902 37.604 175.402 41.4764 175.138C42.8286 174.965 44.1902 175.367 45.2657 176.255C45.6586 176.598 45.9815 177.023 46.2145 177.504C46.4476 177.984 46.5859 178.51 46.621 179.05C46.87 180.814 45.5976 182.344 44.4083 183.844C43.2189 185.344 42.3615 186.608 42.887 187.373L43.0529 187.55C44.2423 188.844 45.0444 189.579 46.787 188.667L49.0551 187.461C49.59 187.108 50.107 186.725 50.604 186.314L51.9593 185.314C53.3499 184.261 54.933 183.529 56.6061 183.167C56.9003 183.065 57.215 183.049 57.517 183.122C57.8189 183.194 58.0967 183.352 58.321 183.579C58.5554 183.834 58.7224 184.151 58.8049 184.497C58.8875 184.843 58.8827 185.206 58.7912 185.55C58.7157 185.849 58.5609 186.119 58.3451 186.328C58.1294 186.536 57.8617 186.675 57.5742 186.726C55.8679 187.338 54.2625 188.231 52.8168 189.373C49.5253 191.608 45.7912 194.167 41.9742 191.608C41.2831 191.171 40.69 190.579 40.2361 189.873C39.7823 189.167 39.4788 188.364 39.3466 187.52C39.2858 186.475 39.4399 185.429 39.7981 184.453C40.1564 183.478 40.7102 182.598 41.421 181.873L42.6657 180.55C42.97 179.902 43.053 179.373 42.887 179.255C42.2654 179.126 41.6226 179.175 41.0247 179.397C40.4268 179.62 39.8954 180.007 39.4849 180.52C38.0322 181.795 36.8452 183.378 35.9998 185.167C35.2371 187.059 35.0218 189.149 35.3814 191.171C35.7411 193.193 36.6593 195.056 38.0189 196.52H38.1296ZM55.7487 170.608L57.1317 170.991C59.7386 172.263 61.9468 174.304 63.4934 176.873C63.9636 177.52 64.4338 178.138 64.9316 178.755C67.1167 181.697 69.4125 184.285 71.6252 186.844L72.5103 187.844L71.8465 188.52C70.0103 190.54 68.2746 192.661 66.6465 194.873C65.3465 196.52 64.4061 197.814 63.3827 199.344L62.1657 201.138H62.5529C65.0699 197.491 67.2274 194.608 69.3572 192.02L70.0487 191.138C70.8508 190.138 71.7359 189.02 72.8146 187.991L72.0954 187.138C68.9422 183.402 65.6784 179.52 62.6359 175.373C61.8602 174.103 60.8406 173.022 59.6441 172.201C58.4475 171.38 57.1011 170.837 55.6934 170.608H55.7487ZM31.6572 200.02L32.1275 200.903L31.8509 199.961C33.0144 199.53 34.221 199.244 35.4466 199.109C34.8874 198.367 34.3702 197.591 33.8977 196.785C33.4086 195.786 32.7306 194.904 31.9062 194.197C30.8257 193.632 29.6504 193.303 28.4487 193.226C27.4037 193.205 26.3739 192.956 25.4225 192.496C24.4712 192.036 23.6185 191.373 22.9168 190.55C22.2443 189.646 21.6777 188.658 21.2296 187.608C21.0083 187.138 20.787 186.667 20.5381 186.226L18.9339 183.02C18.2148 181.814 17.3849 180.461 16.6658 180.344C16.2487 180.371 15.8552 180.559 15.5594 180.873C14.3148 182.079 14.7573 182.961 16.1679 185.02L16.6658 185.755C17.4172 187.087 18.2879 188.338 19.2658 189.491C20.0956 190.638 20.8977 191.844 21.6998 193.05C22.833 194.889 24.0902 196.639 25.4615 198.285C28.0339 201.02 28.6147 200.844 31.5466 199.932L31.6572 200.02ZM38.4891 199.726C38.5184 199.852 38.5184 199.983 38.4891 200.109V200.403H39.1806L38.4891 199.726ZM9.33605 181.55C9.48417 184.882 10.8075 188.032 13.0424 190.373C15.1861 192.94 17.6636 195.169 20.3998 196.991L17.6339 193.05C16.3616 191.226 15.0615 189.432 13.8445 187.608C13.6232 187.255 13.4849 186.961 13.319 186.667C12.5727 185.534 12.0203 184.269 11.6871 182.932L11.4382 182.785C10.8341 182.129 10.0664 181.67 9.22538 181.461L9.33605 181.55ZM24.1892 188.991L24.3828 189.226C24.9278 189.858 25.5904 190.361 26.3285 190.706C27.0666 191.05 27.864 191.227 28.67 191.226C30.0941 191.328 31.4852 191.728 32.7637 192.403C33.3467 192.736 33.8486 193.209 34.2296 193.785L33.9806 193.079L32.4317 192.167C31.4014 191.617 30.2865 191.269 29.1402 191.138C27.2703 190.993 25.4947 190.209 24.0786 188.903L24.1892 188.991ZM24.0232 185.255C24.2722 185.726 24.5211 186.226 24.7977 186.697C25.3579 187.442 26.0635 188.048 26.8658 188.475C27.6681 188.901 28.5479 189.138 29.4445 189.167C30.2494 189.276 31.0448 189.453 31.8232 189.697C31.7959 188.131 32.0109 186.571 32.4594 185.079C30.8551 185.079 29.3062 185.079 27.7296 185.079C26.153 185.079 25.2679 185.167 23.9126 185.167L24.0232 185.255ZM4.4403 183.814C4.26695 183.776 4.08811 183.776 3.91476 183.814C3.54086 183.943 3.2271 184.219 3.03707 184.585C2.84703 184.951 2.79495 185.38 2.89137 185.785C2.93896 186.179 3.06773 186.558 3.26852 186.893C3.46931 187.229 3.73718 187.513 4.05307 187.726C5.08542 188.15 6.22923 188.15 7.26158 187.726C6.89801 186.905 6.58387 186.06 6.32113 185.197C6.13393 185.127 5.96172 185.018 5.8145 184.877C5.66728 184.735 5.54802 184.564 5.46369 184.373C5.35567 184.158 5.1904 183.982 4.98863 183.867C4.78686 183.752 4.55759 183.703 4.32964 183.726L4.4403 183.814ZM7.12328 183.579H7.67646C7.67646 183.579 7.67646 183.402 7.67646 183.285L6.79138 182.579C6.32018 182.203 5.74843 181.997 5.15943 181.991C5.90099 182.194 6.54302 182.688 6.95733 183.373L7.12328 183.579ZM21.3679 183.373H21.8934L21.3956 182.432C21.1026 181.789 20.7505 181.178 20.3445 180.608C19.8128 179.953 19.1517 179.431 18.4084 179.079C19.2799 179.929 20.0176 180.922 20.5934 182.02L21.3679 183.373ZM12.9041 181.52H13.236C13.3604 181.123 13.5374 180.747 13.7615 180.402L12.4892 180.079C12.4462 180.232 12.4462 180.396 12.4892 180.55C12.0331 180.244 11.5399 180.007 11.0233 179.844L10.4701 179.608C9.97218 179.402 9.94454 179.402 9.05943 179.814C10.3655 179.83 11.6186 180.365 12.5722 181.314L12.9041 181.52ZM41.8636 177.138H41.4764C41.0146 177.172 40.5635 177.302 40.1487 177.52C40.8108 177.253 41.5151 177.123 42.2232 177.138H41.8636ZM35.0041 171.461C36.3581 171.551 37.716 171.551 39.07 171.461C40.0104 171.461 41.0062 171.314 42.0572 171.197C39.7434 171.471 37.4134 171.56 35.087 171.461H35.0041ZM22.2253 168.285C23.3963 168.328 24.5536 168.566 25.6551 168.991C26.8548 169.52 28.0832 169.971 29.3339 170.344C28.67 170.108 27.8956 169.755 27.0934 169.373C24.9083 168.344 22.17 167.079 20.8147 167.932C20.5091 168.149 20.269 168.455 20.1232 168.814C20.7921 168.428 21.5481 168.245 22.3083 168.285H22.2253ZM160.523 146.52L160.329 146.696C156.152 150.115 152.519 154.226 149.57 158.873C147.467 162.305 145.67 165.938 144.204 169.726C144.923 168.02 145.67 166.344 146.444 164.667C150.659 155.964 157.097 148.701 165.018 143.712C172.939 138.723 182.022 136.21 191.225 136.461H191.778L192.165 137.284L192.525 138.167L192.663 136.049H191.363H191.197H190.451C180.367 135.898 170.506 139.197 162.321 145.461L160.634 146.755L160.523 146.52ZM272.986 58.6955C273.318 61.225 274.535 68.0485 277.799 84.5487C281.146 101.872 286.097 121.667 297.161 137.255C299.543 140.425 302.17 143.376 305.016 146.079C309.43 150.015 313.173 154.731 316.08 160.02C317.136 161.957 317.822 164.095 318.099 166.314C317.352 159.608 313.037 154.138 309.082 149.961C301.129 142.436 294.49 133.474 289.471 123.49C284.568 112.398 280.982 100.7 278.795 88.6664C277.938 84.3722 277.163 80.0781 276.361 75.7839C275.559 71.4898 274.729 67.1368 273.899 62.8132L273.291 59.725L273.595 60.0191C273.383 59.632 273.198 59.229 273.042 58.8132L272.986 58.6955ZM194.295 141.755C196.358 145.19 199.231 147.991 202.628 149.879C206.024 151.768 209.827 152.678 213.657 152.52C218.418 152.208 222.986 150.409 226.789 147.348C230.593 144.288 233.462 140.101 235.038 135.314L235.37 134.402H235.093L233.793 137.343L233.35 134.637C233.35 135.108 233.35 135.608 233.35 136.108L233.544 138.314L233.406 138.579C231.47 142.566 228.578 145.939 225.023 148.356C221.468 150.773 217.375 152.149 213.159 152.343C209.455 152.271 205.818 151.275 202.542 149.436C199.266 147.597 196.441 144.966 194.295 141.755ZM194.295 138.226C196.243 141.766 199.019 144.71 202.353 146.772C205.688 148.834 209.468 149.942 213.325 149.99C217.154 149.796 220.871 148.548 224.11 146.367C227.349 144.186 229.999 141.147 231.801 137.549V135.961C230.584 122.225 230.197 118.078 237.693 97.9017C238.633 93.3723 242.146 93.5782 244.691 93.7253C246.018 93.9476 247.378 93.7745 248.618 93.2253C249.55 92.3002 250.205 91.103 250.499 89.784C250.867 87.5371 250.791 85.2336 250.278 83.0193C249.338 78.7251 247.872 76.4016 245.604 75.5486C244.888 75.2747 244.119 75.1932 243.366 75.3112C242.614 75.4292 241.9 75.7431 241.289 76.2251C240.933 76.5384 240.65 76.9353 240.463 77.3844C240.276 77.8335 240.189 78.3226 240.21 78.8134C240.349 78.935 240.46 79.0877 240.537 79.2606C240.613 79.4335 240.653 79.6223 240.652 79.8134C240.869 79.916 241.045 80.0952 241.151 80.3205C241.257 80.5457 241.286 80.8031 241.233 81.0487C241.24 81.4627 241.165 81.8736 241.012 82.2546C240.737 82.9984 240.254 83.6348 239.629 84.0781C239.371 84.2726 239.072 84.3959 238.758 84.437C238.444 84.4781 238.126 84.4356 237.831 84.3134L237.223 84.5781C236.954 84.7261 236.645 84.7717 236.348 84.7075C236.051 84.6433 235.784 84.4731 235.591 84.2252C235.412 83.9552 235.293 83.6449 235.245 83.3184C235.197 82.9919 235.221 82.658 235.314 82.3428C228.591 76.984 223.074 70.102 219.161 62.1956C218.328 62.041 217.541 61.6781 216.865 61.1367L216.423 60.8426C215.703 60.4727 214.913 60.2806 214.113 60.2806C213.313 60.2806 212.524 60.4727 211.804 60.8426C211.52 61.0403 211.194 61.16 210.857 61.1908C210.519 61.2216 210.179 61.1626 209.867 61.0191C209.517 60.8292 209.249 60.5025 209.121 60.1073C208.974 59.5687 209.024 58.9913 209.259 58.4896C209.567 57.9471 210.048 57.5401 210.614 57.3426L210.974 57.1661C212.915 56.4902 215.008 56.4902 216.948 57.1661C213.108 45.8055 210.808 33.9216 210.116 21.8717C210.116 21.5776 210.116 21.1952 210.116 21.107C210.043 20.9949 209.943 20.9058 209.826 20.8489C209.709 20.792 209.58 20.7694 209.453 20.7834C205.495 20.3486 201.502 21.0919 197.919 22.9305C194.907 24.1713 192.235 26.1935 190.146 28.8129C185.758 34.3417 182.727 40.9403 181.323 48.019C178.482 59.557 176.849 71.3937 176.455 83.3134C176.455 97.637 180.548 107.608 188.653 112.725C193.012 115.565 198.187 116.641 203.231 115.755C208.275 114.869 212.85 112.081 216.119 107.902C216.281 107.726 216.474 107.586 216.688 107.49C216.902 107.395 217.131 107.346 217.363 107.346C217.595 107.346 217.825 107.395 218.038 107.49C218.252 107.586 218.446 107.726 218.608 107.902C218.922 108.217 219.11 108.649 219.133 109.108C219.145 109.369 219.103 109.63 219.013 109.873C218.922 110.117 218.784 110.337 218.608 110.52C215.859 114.069 212.281 116.788 208.232 118.404C204.183 120.019 199.806 120.475 195.54 119.725C195.54 121.461 195.236 126.02 194.544 135.931L194.295 138.226ZM178.363 106.137C177.81 112.578 174.353 118.461 170.729 124.637C167.098 130.054 164.435 136.136 162.874 142.579C171.014 136.866 180.588 133.903 190.34 134.079H190.948H191.225C191.419 129.226 191.778 124.167 192.11 119.373V118.99C191.363 118.725 190.755 118.431 190.036 118.108L189.344 117.784C184.704 115.099 180.884 111.058 178.336 106.137H178.363ZM235.48 134.431L236.282 134.726C240.948 136.49 245.557 138.363 250.112 140.343C245.207 138.167 240.33 136.196 235.48 134.431ZM191.087 135.079C191.073 135.196 191.073 135.314 191.087 135.431V135.079ZM195.733 117.725C199.582 118.46 203.546 118.084 207.212 116.637C203.525 118.027 199.566 118.401 195.706 117.725H195.733ZM238.965 99.8723L239.85 101.99C239.946 102.323 240.107 102.63 240.325 102.89C240.542 103.149 240.81 103.356 241.109 103.496C241.409 103.636 241.733 103.705 242.06 103.699C242.387 103.693 242.709 103.611 243.004 103.461C243.972 102.809 244.682 101.802 244.998 100.631C245.314 99.4599 245.215 98.206 244.718 97.1076L244.276 95.8135C241.51 95.8135 239.961 95.8135 239.352 98.6076C238.855 99.9312 238.412 101.196 237.97 102.372L238.135 101.99L238.965 99.8723ZM246.101 95.9017C247.041 96.0772 248.009 95.9331 248.867 95.49C249.741 95.0019 250.455 94.2429 250.914 93.3135C250.531 93.9751 250.033 94.5539 249.448 95.0194C248.426 95.6498 247.255 95.9559 246.074 95.9017H246.101ZM238.578 80.4898V81.0781C238.704 81.3322 238.77 81.6146 238.772 81.9016C238.785 82.0287 238.785 82.1569 238.772 82.284C238.971 82.0011 239.121 81.6823 239.214 81.3428V81.1663C239.051 81.0039 238.928 80.8021 238.855 80.5781L238.578 80.4898ZM277.91 63.5779C278.647 64.0321 279.505 64.2149 280.35 64.0979C281.195 63.9809 281.981 63.5707 282.584 62.9309C283.165 62.3739 283.578 61.6463 283.77 60.8401C283.962 60.0339 283.925 59.1852 283.663 58.4014C283.742 59.1177 283.668 59.8436 283.448 60.5256C283.228 61.2077 282.866 61.8286 282.391 62.3426C281.951 62.8127 281.424 63.1788 280.842 63.417C280.261 63.6553 279.638 63.7602 279.016 63.725C278.664 63.7331 278.312 63.7035 277.965 63.6367L277.91 63.5779ZM266.072 27.1658C269.551 35.5566 272.095 44.3519 273.65 53.3719L273.844 54.2543C274.086 56.3919 274.859 58.4224 276.084 60.1367C276.467 60.6008 276.933 60.978 277.456 61.2458C277.979 61.5137 278.547 61.6666 279.127 61.6956C279.492 61.7095 279.855 61.6465 280.197 61.5102C280.539 61.3739 280.852 61.167 281.118 60.9014C281.591 60.1978 281.846 59.3545 281.846 58.4896C281.846 57.6247 281.591 56.7815 281.118 56.0778C280.535 55.0939 279.868 54.1685 279.127 53.3131C278.546 52.5778 277.938 51.8131 277.384 50.9602L277.246 50.6954V50.4307C277.246 50.4307 277.052 50.166 277.052 49.8131V49.3719C277.316 48.8538 277.749 48.4563 278.269 48.2543C278.651 48.0922 279.077 48.0922 279.459 48.2543C279.968 48.5047 280.435 48.8425 280.842 49.2543C281.912 50.1024 283.185 50.6129 284.516 50.7273C285.847 50.8418 287.18 50.5555 288.365 49.9013C292.044 47.8719 293.15 42.5777 292.625 38.1365C292.246 34.8932 291.191 31.781 289.535 29.0278C287.879 26.2746 285.665 23.9501 283.055 22.2246C280.836 20.8339 278.348 19.999 275.78 19.7834C274.527 19.7075 273.273 19.9088 272.097 20.3745C270.921 20.8403 269.849 21.5604 268.948 22.4893C268.143 23.4442 267.438 24.4896 266.846 25.607C266.652 26.3717 266.376 26.9011 266.127 27.2247L266.072 27.1658ZM178.695 48.9601C178.419 50.4307 178.253 51.6367 178.142 52.5778C178.391 51.4014 178.668 50.2249 178.944 49.019L178.695 48.9601ZM279.652 50.9307H279.846L279.625 50.7249L279.431 50.5484C279.549 50.6817 279.651 50.8298 279.735 50.9896L279.652 50.9307ZM227.901 2.63621C234.34 2.38134 240.73 3.90896 246.447 7.06946C252.163 10.23 257.01 14.915 260.512 20.6658C263.452 25.7969 265.863 31.25 267.703 36.9306C266.701 33.7018 265.519 30.5394 264.163 27.46L263.831 26.7247C262.619 24.102 261.261 21.5583 259.765 19.1069C248.176 0.724422 226.408 -0.863831 211.084 5.43034C208.561 6.50221 206.12 7.78057 203.782 9.25391C205.221 8.43038 206.714 7.69507 208.236 7.01859C214.455 4.19309 221.139 2.70371 227.901 2.63621ZM266.072 23.5187L265.352 24.4305C265.352 24.4305 265.352 24.607 265.352 24.8423L266.072 23.5187Z" fill="#010101"/>
<g style="mix-blend-mode:multiply" opacity="0.15">
<path d="M234.596 5.57741C234.596 5.57741 255.257 13.8128 267.649 74.1957C274.536 107.696 277.496 131.49 291.242 146.137C304.989 160.785 305.072 165.402 305.072 172.932C305.072 180.461 298.462 184.255 299.955 196.461C301.449 208.667 309.332 226.903 309.332 226.903L312.485 210.609L307.811 187.608L312.485 182.638L319.151 170.873L316.634 159.402L309.387 150.137L297.881 137.902L289.583 124.549L280.594 96.9606L275.587 72.0191L272.517 56.3131L268.672 38.6659L264.8 26.107L258.355 16.5481L249.504 8.40096L232.106 1.95972L234.596 5.57741Z" fill="#010101"/>
</g>
<g style="mix-blend-mode:multiply" opacity="0.15">
<path d="M281.226 19.342C281.226 19.342 288.141 29.548 289.026 37.3716C289.911 45.1952 284.573 45.1658 280.341 44.607C269.637 43.1952 272.514 56.3718 272.514 56.3718L275.612 62.4895L280.812 64.0483L283.965 60.6953L281.946 51.8717H290.243L293.646 44.8128V36.754L292.18 28.4303L285.265 20.4303L281.226 19.342Z" fill="#010101"/>
</g>
<g style="mix-blend-mode:multiply" opacity="0.15">
<path d="M248.315 74.8721L243.779 73.6074L239.796 74.8721L238.911 81.1369L237.666 82.1369L232.135 78.3133L224.003 67.4897L218.471 56.6661L214.35 42.7247L211.832 24.8422L211.556 18.9598L207.407 20.0775C207.407 20.0775 203.728 43.6071 214.045 62.9014C219.414 72.4933 225.922 81.3109 233.407 89.1369C233.407 89.1369 224.694 111.784 224.694 122.667C224.897 130.587 225.823 138.467 227.46 146.196L233.435 139.873V122.225L236.201 106.314L241.013 96.5193H246.766L251.33 94.9605L252.658 84.431L248.315 74.8721Z" fill="#010101"/>
</g>
<g style="mix-blend-mode:multiply" opacity="0.15">
<path d="M189.731 116.637L188.431 135.902L191.058 137.461L193.575 131.343L194.488 116.637H189.731Z" fill="#010101"/>
</g>
<g style="mix-blend-mode:multiply" opacity="0.15">
<path d="M273.676 191.608L262.336 197.491C259.238 211.638 244.053 253.138 246.985 267.58C249.917 282.021 252.517 279.197 252.517 279.197L261.34 272.697L261.894 269.756L258.491 255.521L260.013 239.844L266.983 219.256L273.676 191.608Z" fill="#010101"/>
</g>
<g style="mix-blend-mode:multiply" opacity="0.15">
<path d="M266.125 308.256L255.255 311.58L260.068 331.051H266.125V308.256Z" fill="#010101"/>
</g>
<g style="mix-blend-mode:multiply" opacity="0.15">
<path d="M153.884 163.02H161.435L164.976 249.461L161.629 235.491L153.69 230.285L153.884 163.02Z" fill="#010101"/>
</g>
<g style="mix-blend-mode:multiply" opacity="0.15">
<path d="M83.5465 191.255L62.304 221.226L55.4167 212.403L60.5061 202.373H46.3721L37.1338 199.579C42.5027 198.546 47.7643 196.96 52.8444 194.844C58.6402 192.495 63.9557 188.98 68.4997 184.491L75.4146 183.549L83.5465 191.255Z" fill="#010101"/>
</g>
<g style="mix-blend-mode:multiply" opacity="0.15">
<path d="M233.487 139.814C233.487 139.814 274.672 152.226 282.97 171.049C291.268 189.873 313.672 254.491 310.63 263.903C307.587 273.315 289.996 285.874 275.53 292.756C261.064 299.639 233.404 310.962 233.404 310.962L235.119 318.286L260.621 308.257L289.387 295.286L310.906 279.492L318.485 270.168L314.862 253.374L292.734 181.52L284.796 161.461L266.125 146.285L233.487 129.755V139.814Z" fill="#010101"/>
</g>
<path d="M325.125 155.049C327.891 160.932 327.891 167.108 327.891 173.549C327.891 174.049 328.078 174.528 328.41 174.881C328.742 175.234 329.192 175.432 329.661 175.432C330.131 175.432 330.581 175.234 330.913 174.881C331.245 174.528 331.432 174.049 331.432 173.549C331.432 166.373 331.432 159.667 328.251 153.138C327.227 150.99 324.157 152.873 325.181 155.049H325.125Z" fill="#231F20"/>
<path d="M330.352 266.844C328.332 277.197 327.254 288.021 319.426 295.492C317.711 297.109 320.228 299.756 321.915 298.168C330.213 290.227 331.596 278.903 333.754 267.844C334.224 265.462 330.822 264.462 330.352 266.844Z" fill="#231F20"/>
<path d="M46.3727 161.637C53.3983 161.637 62.3046 162.049 64.1301 170.902C64.628 173.285 68.0301 172.285 67.5323 169.902C65.3472 159.226 55.0855 157.873 46.3727 157.873C45.9033 157.873 45.453 158.071 45.121 158.424C44.789 158.777 44.6025 159.256 44.6025 159.755C44.6025 160.254 44.789 160.733 45.121 161.086C45.453 161.439 45.9033 161.637 46.3727 161.637Z" fill="#231F20"/>
<path d="M41.8645 218.991C38.5432 221.132 35.5645 223.822 33.0411 226.962C30.806 230.66 29.8299 235.062 30.2752 239.432C30.2752 241.844 33.8986 241.844 33.8156 239.432C33.3118 235.676 34.1292 231.853 36.1114 228.697C38.308 226.196 40.8105 224.02 43.5518 222.226C45.3773 220.815 43.5518 217.55 41.7539 218.991H41.8645Z" fill="#231F20"/>
<path d="M278.269 10.4012C283.801 10.4012 291.325 10.8424 293.842 16.9895C294.754 19.2248 297.825 17.313 296.912 15.1071C293.842 7.63648 284.963 6.75412 278.269 6.63647C277.8 6.63647 277.35 6.8348 277.018 7.18782C276.686 7.54083 276.499 8.01961 276.499 8.51884C276.499 9.01808 276.686 9.49686 277.018 9.84987C277.35 10.2029 277.8 10.4012 278.269 10.4012Z" fill="#231F20"/>
<path d="M146.969 110.019C146.714 110.013 146.462 109.964 146.222 109.872C133.609 105.402 118.424 101.049 115.796 102.166C104.167 107.427 91.6473 110.1 79.0093 110.019C40.286 110.019 8.72656 86.0779 8.72656 56.6953C8.72656 27.3127 40.2307 3.37134 78.9817 3.37134C117.733 3.37134 149.264 27.3127 149.264 56.7247C149.229 64.8186 146.917 72.7162 142.626 79.4014C141.077 81.9308 144.728 95.4898 149.099 106.578C149.272 107.025 149.32 107.515 149.236 107.99C149.153 108.465 148.942 108.905 148.628 109.255C148.191 109.732 147.595 110.007 146.969 110.019ZM78.9817 8.37137C42.8307 8.37137 13.4287 30.048 13.4287 56.6953C13.4287 83.3426 42.8307 104.99 78.9817 104.99C90.9409 105.05 102.784 102.497 113.777 97.4898C117.926 95.578 133.139 100.107 142.737 103.372C139.75 95.0192 135.628 81.3132 138.588 76.519C142.354 70.6459 144.395 63.7155 144.452 56.6071C144.562 30.048 115.133 8.37137 78.9817 8.37137Z" fill="#010101"/>
<path d="M50.6049 54.0189C54.3943 53.7836 57.907 64.2248 59.1517 67.1955C59.5242 67.8272 60.1085 68.285 60.7863 68.4761C61.4641 68.6672 62.1849 68.5774 62.8028 68.2249C68.8602 65.4602 68.3347 58.2836 71.9028 53.2836C76.3283 46.9894 73.8113 53.4895 77.8772 56.4895C78.7382 57.2925 79.8309 57.7594 80.9751 57.813C86.0091 58.0189 88.4155 48.9894 92.4814 51.5777C94.3899 52.7542 95.9112 58.5189 97.5154 60.6072C99.0525 62.7649 101.177 64.367 103.601 65.1954C106.837 66.4013 108.247 60.9601 105.011 59.7542C99.4793 57.666 96.9899 47.813 93.4495 43.0188C93.0237 42.5899 92.4808 42.3161 91.8991 42.2368C91.3174 42.1575 90.7271 42.2768 90.2133 42.5776C87.1708 44.8423 82.8283 52.1365 80.5878 50.7541C78.3474 49.3718 77.8219 44.2541 74.1708 43.8423C66.6474 42.9894 65.4581 60.9013 60.1198 63.3425L63.7432 64.3425C61.4475 58.8719 57.6305 47.9306 50.6049 48.3718C47.2028 48.5777 47.1752 54.2542 50.6049 54.0189Z" fill="#010101"/>
<path d="M49.4147 50.4308C43.3296 51.2837 39.7892 59.1073 36.6914 63.9309C35.3914 65.9309 38.4616 67.8133 39.7339 65.8133C41.0062 63.8133 42.4998 61.4603 43.8828 59.372C45.2658 57.2838 47.1743 54.5191 49.4147 54.1955C51.6551 53.872 51.6828 50.1367 49.4147 50.4308Z" fill="#010101"/>
<path d="M115.52 39.254C115.192 43.1877 115.407 47.151 116.156 51.0189C116.28 51.5025 116.581 51.9137 116.991 52.1619C117.4 52.4101 117.886 52.475 118.341 52.3424C118.796 52.2098 119.182 51.8905 119.416 51.4547C119.649 51.019 119.71 50.5025 119.586 50.0189C118.912 46.4679 118.735 42.8306 119.06 39.2247C119.06 38.7254 118.874 38.2466 118.542 37.8936C118.21 37.5406 117.759 37.3423 117.29 37.3423C116.82 37.3423 116.37 37.5406 116.038 37.8936C115.706 38.2466 115.52 38.7254 115.52 39.2247V39.254Z" fill="#010101"/>
<path d="M119.641 72.8429C120.215 72.6647 120.72 72.2932 121.079 71.7841C121.438 71.275 121.632 70.6558 121.632 70.0194C121.632 69.383 121.438 68.7637 121.079 68.2546C120.72 67.7455 120.215 67.374 119.641 67.1958C119.066 67.374 118.562 67.7455 118.203 68.2546C117.844 68.7637 117.649 69.383 117.649 70.0194C117.649 70.6558 117.844 71.275 118.203 71.7841C118.562 72.2932 119.066 72.6647 119.641 72.8429Z" fill="#010101"/>
<g style="mix-blend-mode:multiply" opacity="0.15">
<path d="M141.438 41.254C141.438 41.254 144.757 58.9013 120.997 86.1662C115.381 92.208 108.832 97.1819 101.636 100.872L117.153 98.2251L143.982 105.872L137.731 76.4602L143.982 66.519L145.78 49.3423L141.438 41.254Z" fill="#010101"/>
</g>
</svg>
