<svg width="158" height="120" viewBox="0 0 158 120" fill="none" xmlns="http://www.w3.org/2000/svg">
<path d="M46.65 27.13C46.6473 28.8654 45.9561 30.5289 44.728 31.7551C43.4999 32.9813 41.8354 33.67 40.1 33.67C38.26 33.67 34.23 30.74 34.23 27.13C34.23 23.52 36.48 20.59 40.1 20.59C40.9608 20.5847 41.8141 20.7501 42.6105 21.0768C43.4069 21.4035 44.1306 21.8848 44.7398 22.4931C45.3489 23.1013 45.8314 23.8243 46.1593 24.6202C46.4872 25.4161 46.6539 26.2692 46.65 27.13Z" fill="#010101"/>
<path d="M40.1 34C38 34 33.89 30.88 33.89 27.12C33.89 23.12 36.5 20.23 40.1 20.23C41.0091 20.2192 41.9112 20.3904 42.7531 20.7333C43.5951 21.0763 44.3601 21.5841 45.0029 22.227C45.6458 22.8699 46.1537 23.6348 46.4966 24.4768C46.8396 25.3188 47.0107 26.2209 47 27.13C46.9947 28.9556 46.2651 30.7045 44.9714 31.9925C43.6777 33.2806 41.9256 34.0026 40.1 34ZM40.1 20.92C36.85 20.92 34.58 23.47 34.58 27.12C34.58 30.57 38.58 33.32 40.1 33.32C41.7453 33.32 43.3233 32.6671 44.4876 31.5046C45.6519 30.3422 46.3073 28.7652 46.31 27.12C46.3167 26.3035 46.1605 25.4939 45.8506 24.7386C45.5406 23.9833 45.0831 23.2973 44.5048 22.7209C43.9266 22.1445 43.2392 21.6893 42.4828 21.3817C41.7265 21.0742 40.9164 20.9206 40.1 20.93V20.92Z" fill="#010101"/>
<path d="M36.42 46.96L39.35 46.23L41.74 49.69L45.69 52L52.49 53.48L53.94 52.75L54.69 47.37L56.13 51.05L57.9 65.29L59.67 85.81L61.11 103.87H56.13L53.06 103.73L46.58 101.41L45.62 88.8L44.19 76.88L42.42 67.06L37.92 52.07L36.42 46.96Z" fill="#ED1C24"/>
<path d="M64.8599 28.68C64.8599 29.39 64.69 29.98 64.42 29.99C64.15 30 63.93 29.43 63.9 28.71C63.87 27.99 64.0699 27.41 64.3299 27.4C64.5899 27.39 64.8299 27.96 64.8599 28.68Z" fill="#010101"/>
<path d="M64.41 30.3301C63.86 30.3301 63.59 29.5301 63.56 28.7201C63.53 27.9101 63.76 27.0801 64.32 27.0601C64.49 27.0601 64.79 27.1201 65 27.6401C65.1171 27.9613 65.1846 28.2985 65.2 28.6401C65.2565 29.1585 65.1252 29.6801 64.8299 30.1101C64.7805 30.1682 64.7193 30.2152 64.6503 30.2479C64.5814 30.2807 64.5063 30.2985 64.43 30.3001L64.41 30.3301ZM64.35 27.8501C64.2626 28.1245 64.2253 28.4124 64.2399 28.7001C64.248 28.9877 64.3056 29.2719 64.41 29.5401C64.4979 29.2658 64.5318 28.9772 64.51 28.6901C64.5089 28.4026 64.4547 28.1178 64.35 27.8501Z" fill="#010101"/>
<path d="M56.4701 28C56.4701 28.71 56.3001 29.3 56.0301 29.31C55.7601 29.32 55.5401 28.75 55.5101 28.03C55.4801 27.31 55.6801 26.73 55.9401 26.72C56.2001 26.71 56.4401 27.28 56.4701 28Z" fill="#010101"/>
<path d="M55.9999 29.65C55.8299 29.65 55.5399 29.57 55.3399 29.07C55.2139 28.7513 55.1462 28.4126 55.14 28.07C55.1277 27.7317 55.1716 27.3938 55.2699 27.07C55.4399 26.54 55.7399 26.46 55.8999 26.45C56.4499 26.45 56.7299 27.25 56.7599 28.06C56.7599 28.87 56.5599 29.7 55.9999 29.72V29.65ZM55.9999 27.17C55.9126 27.4444 55.8753 27.7323 55.89 28.02C55.898 28.3076 55.9555 28.5918 56.0599 28.86C56.1465 28.5853 56.1837 28.2976 56.1699 28.01C56.1619 27.7223 56.1043 27.4381 55.9999 27.17Z" fill="#010101"/>
<path d="M113.89 101.34C113.764 101.35 113.637 101.35 113.51 101.34C113.129 101.233 112.783 101.028 112.506 100.745C112.229 100.463 112.03 100.113 111.93 99.73C111.671 98.8862 111.643 97.9882 111.85 97.13C112.3 95.08 113.73 93.71 115.12 94.01C115.5 94.1192 115.845 94.3249 116.122 94.607C116.399 94.8891 116.598 95.2381 116.7 95.62C116.956 96.4645 116.983 97.3615 116.78 98.22C116.37 100 115.15 101.34 113.89 101.34ZM114.72 95.29C114.19 95.29 113.46 96.13 113.18 97.39C113.018 98.0029 113.018 98.6472 113.18 99.26C113.215 99.4142 113.285 99.5581 113.386 99.6798C113.487 99.8014 113.615 99.8975 113.76 99.9601C114.3 100.09 115.11 99.22 115.4 97.88C115.567 97.2679 115.567 96.6222 115.4 96.01C115.27 95.61 115.06 95.36 114.82 95.31L114.72 95.29Z" fill="#010101"/>
<path d="M132.51 115.86H9.67993V119.27H132.51V115.86Z" fill="#010101"/>
<path d="M14.9299 107.82C14.7999 110 14.5899 114.22 14.4599 116.41C14.4527 116.445 14.4534 116.481 14.4618 116.516C14.4703 116.55 14.4863 116.583 14.5088 116.61C14.5313 116.638 14.5597 116.66 14.5919 116.676C14.6241 116.691 14.6593 116.699 14.695 116.699C14.7306 116.699 14.7658 116.691 14.798 116.676C14.8302 116.66 14.8586 116.638 14.8811 116.61C14.9036 116.583 14.9197 116.55 14.9281 116.516C14.9366 116.481 14.9372 116.445 14.9299 116.41C15.0699 114.22 15.27 110 15.41 107.82C15.41 107.55 14.9299 107.55 14.9299 107.82Z" fill="#010101"/>
<path d="M14.69 117C14.613 117.001 14.5365 116.987 14.4654 116.958C14.3942 116.928 14.3299 116.885 14.2764 116.829C14.2229 116.774 14.1814 116.708 14.1545 116.636C14.1276 116.564 14.1158 116.487 14.1199 116.41C14.1799 115.31 14.27 113.73 14.35 112.14C14.43 110.55 14.52 108.91 14.59 107.81C14.59 107.656 14.6511 107.509 14.7598 107.4C14.8686 107.291 15.0161 107.23 15.17 107.23C15.3238 107.23 15.4713 107.291 15.5801 107.4C15.6888 107.509 15.75 107.656 15.75 107.81C15.68 108.92 15.6 110.52 15.51 112.12C15.42 113.72 15.3399 115.33 15.2699 116.42C15.2727 116.497 15.2597 116.574 15.2315 116.645C15.2034 116.717 15.1607 116.782 15.1063 116.836C15.0519 116.891 14.9868 116.933 14.9152 116.962C14.8435 116.99 14.7669 117.003 14.69 117Z" fill="#010101"/>
<path d="M72.9999 111.29C70.9999 108.57 69.6599 107.29 66.4499 106.18C66.1799 106.11 66.0399 106.52 66.3199 106.66C69.3899 107.66 70.6799 108.98 72.5899 111.57C72.7299 111.77 73.1399 111.57 72.9999 111.29Z" fill="#010101"/>
<path d="M72.8 112C72.7107 112.002 72.6224 111.981 72.5436 111.939C72.4647 111.897 72.3981 111.835 72.35 111.76C70.46 109.21 69.19 107.97 66.25 106.99C66.1036 106.932 65.986 106.819 65.9223 106.675C65.8587 106.531 65.8543 106.367 65.91 106.22C65.9559 106.087 66.0503 105.975 66.1745 105.909C66.2987 105.842 66.4435 105.825 66.58 105.86C69.92 107 71.35 108.4 73.32 111.1C73.3873 111.233 73.3998 111.387 73.3549 111.529C73.3101 111.671 73.2114 111.79 73.08 111.86C73.0004 111.93 72.9039 111.978 72.8 112Z" fill="#010101"/>
<path d="M66.83 111.09C64.102 110.341 61.2776 110.004 58.45 110.09C55.45 110.02 52.38 110.09 49.37 110.22C49.3385 110.22 49.3073 110.226 49.2782 110.238C49.249 110.25 49.2226 110.268 49.2003 110.29C49.178 110.313 49.1603 110.339 49.1483 110.368C49.1362 110.397 49.13 110.429 49.13 110.46C49.13 110.492 49.1362 110.523 49.1483 110.552C49.1603 110.581 49.178 110.607 49.2003 110.63C49.2226 110.652 49.249 110.67 49.2782 110.682C49.3073 110.694 49.3385 110.7 49.37 110.7C52.24 110.56 55.1 110.49 57.97 110.49C60.84 110.49 63.97 110.49 66.7 111.49C67.04 111.62 67.17 111.22 66.83 111.08V111.09Z" fill="#010101"/>
<path d="M66.83 111.87C66.7401 111.869 66.6514 111.849 66.5701 111.81C64.1123 111.118 61.5616 110.814 59.0101 110.91H57.9601C55.1201 110.91 52.2301 110.97 49.3901 111.11C49.2363 111.11 49.0887 111.049 48.9799 110.94C48.8712 110.831 48.8101 110.684 48.8101 110.53C48.8101 110.376 48.8712 110.229 48.9799 110.12C49.0887 110.011 49.2363 109.95 49.3901 109.95C52.7701 109.8 55.7501 109.75 58.4701 109.81H59.0901C61.7486 109.749 64.4012 110.086 66.9601 110.81C67.0357 110.834 67.1057 110.872 67.1658 110.924C67.2259 110.975 67.2748 111.039 67.3094 111.11C67.3441 111.181 67.3638 111.259 67.3673 111.338C67.3709 111.417 67.3582 111.496 67.33 111.57C67.3034 111.64 67.2619 111.703 67.2083 111.754C67.1548 111.806 67.0905 111.846 67.0201 111.87C66.9575 111.884 66.8926 111.884 66.83 111.87Z" fill="#010101"/>
<path d="M62.67 33.19C61.5988 31.6258 60.9134 29.8301 60.67 27.95C60.6 27.67 60.19 27.74 60.19 28.08C60.4485 29.8566 61.0752 31.5597 62.03 33.08C60.9975 33.2013 59.9524 33.0097 59.03 32.53C58.76 32.39 58.49 32.8 58.76 32.94C59.8921 33.5257 61.1875 33.7158 62.44 33.48C62.78 33.48 62.85 33.28 62.71 33.14L62.67 33.19Z" fill="#010101"/>
<path d="M61.2999 34C60.3443 34.0041 59.4027 33.7704 58.5599 33.32C58.4773 33.2773 58.4067 33.2147 58.3543 33.1379C58.3019 33.0611 58.2695 32.9724 58.2599 32.88C58.2573 32.7725 58.2827 32.6663 58.3335 32.5716C58.3844 32.477 58.4589 32.3971 58.5499 32.34C58.6389 32.2861 58.7409 32.2577 58.8449 32.2577C58.9489 32.2577 59.051 32.2861 59.14 32.34C59.8393 32.7086 60.6194 32.8976 61.4099 32.89C60.5889 31.4365 60.0463 29.8425 59.8099 28.19C59.7977 28.0283 59.8463 27.868 59.9462 27.7403C60.0461 27.6127 60.1901 27.5269 60.3499 27.5C60.4853 27.4837 60.622 27.5174 60.7343 27.5947C60.8466 27.6721 60.9268 27.7877 60.9599 27.92C61.2164 29.7597 61.9015 31.5135 62.9599 33.04C63.0286 33.1097 63.0749 33.1984 63.0927 33.2946C63.1105 33.3909 63.0991 33.4903 63.0599 33.58C63.0052 33.6995 62.9133 33.7981 62.798 33.8612C62.6827 33.9242 62.5501 33.9484 62.42 33.93C62.0496 33.9882 61.6746 34.0117 61.2999 34Z" fill="#010101"/>
<path d="M58.45 24C56.9834 23.5301 55.4066 23.5301 53.94 24C53.67 24.07 53.81 24.55 54.08 24.48C55.4491 23.9998 56.9409 23.9998 58.31 24.48C58.58 24.62 58.72 24.14 58.45 24Z" fill="#010101"/>
<path d="M58.4 24.84C58.3149 24.8404 58.2315 24.8161 58.16 24.77C56.864 24.3235 55.4559 24.3235 54.16 24.77C54.0838 24.7893 54.0045 24.7932 53.9268 24.7815C53.849 24.7697 53.7744 24.7425 53.7074 24.7015C53.6403 24.6605 53.5821 24.6066 53.5362 24.5428C53.4902 24.479 53.4576 24.4066 53.44 24.33C53.4188 24.2591 53.4122 24.1847 53.4204 24.1111C53.4287 24.0376 53.4518 23.9665 53.4882 23.902C53.5246 23.8376 53.5736 23.7812 53.6324 23.7362C53.6911 23.6912 53.7583 23.6585 53.83 23.64C55.3541 23.1449 56.9958 23.1449 58.52 23.64H58.57C58.6647 23.6888 58.7451 23.7615 58.803 23.851C58.8609 23.9405 58.8943 24.0436 58.9 24.15C58.9117 24.2557 58.8947 24.3626 58.8507 24.4594C58.8067 24.5563 58.7373 24.6394 58.65 24.7C58.5824 24.7705 58.4954 24.8193 58.4 24.84Z" fill="#010101"/>
<path d="M61.31 35.8499C60.4424 35.6239 59.5453 35.5328 58.65 35.5799C57.6372 35.4856 56.6159 35.6014 55.65 35.9199C54.56 36.4599 55.51 38.0999 55.99 38.8499C56.67 39.7399 57.99 40.6199 59.06 40.0099C60.42 39.2599 61.17 37.2099 61.31 35.8499Z" fill="#010101"/>
<path d="M58.2801 40.55C57.7711 40.5013 57.2787 40.3429 56.8367 40.0856C56.3948 39.8284 56.0139 39.4785 55.7201 39.06C55.1074 38.3023 54.8006 37.3426 54.8601 36.37C54.9063 36.205 54.9873 36.0518 55.0977 35.9207C55.2081 35.7896 55.3453 35.6836 55.5001 35.61C56.4084 35.2809 57.3777 35.1546 58.3401 35.24H58.6501C59.5796 35.1906 60.5111 35.2885 61.4101 35.53L61.6801 35.61V35.89C61.5501 37.2 60.7901 39.46 59.2501 40.31C58.9543 40.476 58.6191 40.559 58.2801 40.55ZM58.0001 35.92C57.2736 35.8694 56.5446 35.9716 55.8601 36.22C55.788 36.251 55.7238 36.2975 55.6719 36.3563C55.62 36.4151 55.5818 36.4847 55.5601 36.56C55.4801 36.85 55.5601 37.45 56.3301 38.67C56.8601 39.36 58.0101 40.23 58.9401 39.67C59.503 39.2375 59.9711 38.6938 60.3151 38.0728C60.6592 37.4518 60.8719 36.7667 60.9401 36.06C60.1902 35.9076 59.4246 35.8472 58.6601 35.88H58.0001V35.92Z" fill="#010101"/>
<path d="M149.9 75.24C149.77 74.24 148.33 74.24 147.65 74.15C146.175 74.05 144.695 74.05 143.22 74.15H92.8201C92.808 74.1335 92.7922 74.1201 92.7739 74.1108C92.7557 74.1015 92.7355 74.0967 92.715 74.0967C92.6946 74.0967 92.6744 74.1015 92.6561 74.1108C92.6379 74.1201 92.6221 74.1335 92.61 74.15C92.41 74.15 92.27 74.63 92.34 74.63C88.34 82.74 84.4301 90.92 80.5401 99.1C75.7701 97.73 77.1301 90.3 77.2001 86.62C77.3401 81.51 77.2 76.33 76.86 71.22C76.59 67.13 76.11 62.98 74.27 59.29C72.5725 56.0248 69.9359 53.3429 66.7001 51.59C63.7001 49.82 55.7901 47.3 55.3801 47.23C55.3801 47.16 55.31 47.03 55.31 46.96C55.17 46.69 54.76 46.82 54.83 47.1H54.7601C54.9001 45.8 54.9701 44.51 55.0401 43.21V43.14C57.9701 43.35 61.51 43.42 63.49 41.03C64.4606 39.6844 65.1416 38.1522 65.49 36.53C66.1283 34.3597 66.6326 32.1522 67 29.92C67.7836 25.3239 68.0952 20.6596 67.93 16C67.93 15.9364 67.9048 15.8753 67.8598 15.8303C67.8147 15.7853 67.7537 15.76 67.69 15.76C67.6264 15.76 67.5653 15.7853 67.5203 15.8303C67.4753 15.8753 67.4501 15.9364 67.4501 16C67.5616 19.1061 67.4681 22.2162 67.1701 25.31L63.22 24.49C62.95 24.42 62.81 24.9 63.08 24.97C64.31 25.24 65.54 25.44 66.77 25.72C66.63 25.92 66.9 26.26 67.11 25.99C67.04 26.81 66.9 27.69 66.77 28.51C66.492 30.446 66.081 32.3605 65.5401 34.24C65.1458 36.0392 64.5729 37.7946 63.83 39.48C62.06 42.96 58.0401 42.82 54.6301 42.62C51.4201 42.41 48.01 41.73 45.83 39.14C45.62 38.94 45.28 39.28 45.49 39.48C47.6 42 50.94 42.82 54.15 43.03H54.56V43.1C54.4047 46.4561 54.0171 49.7975 53.4 53.1C52.0824 53.487 50.6725 53.4165 49.4 52.9C47.9797 52.4987 46.5896 51.9975 45.24 51.4C42.8296 50.334 40.8074 48.5493 39.4501 46.29C39.6445 46.0752 39.8249 45.8481 39.99 45.61C40.5288 44.5322 40.9867 43.4158 41.36 42.27C42.1479 40.0046 42.6714 37.6557 42.9201 35.27C44.6943 36.866 46.6395 38.2611 48.72 39.43C48.8384 39.7013 49.0006 39.9513 49.2001 40.17C50.1501 41.27 52.27 41.74 53.43 40.65C54.79 39.43 52.54 37.52 51.43 36.97C50.32 36.42 48.63 36.56 48.22 37.79C46.2996 36.423 44.4997 34.894 42.84 33.22H42.77C43.6599 32.6826 44.4266 31.9636 45.02 31.11C46.65 29 47.81 25.93 46.31 23.61C47.4306 22.3842 48.2874 20.9414 48.8276 19.3709C49.3677 17.8004 49.5796 16.1358 49.4501 14.48H49.52C51.7757 14.3586 54.0379 14.4726 56.27 14.82C58.18 15.16 60.0901 15.82 62.0701 15.98C65.3877 16.4089 68.7555 15.7641 71.68 14.14C73.68 12.91 75.16 10.14 73.87 7.94004C72.3 5.15004 68.62 6.10004 65.96 6.37004C66.43 5.28004 66.9601 3.85003 65.8901 3.03003C65.5155 2.78023 65.0753 2.64692 64.625 2.64692C64.1748 2.64692 63.7346 2.78023 63.36 3.03003C60.57 1.87003 57.5 0.850038 54.43 1.33004C51.7912 0.40208 48.9349 0.285891 46.2294 0.996458C43.5239 1.70702 41.0933 3.21176 39.251 5.31664C37.4087 7.42152 36.2391 10.03 35.8932 12.8058C35.5472 15.5816 36.0407 18.3974 37.31 20.89C37.45 21.16 37.86 20.96 37.72 20.62C36.5315 18.2757 36.0521 15.6358 36.3404 13.0233C36.6287 10.4108 37.6723 7.93899 39.3434 5.91028C41.0145 3.88158 43.2408 2.38397 45.7497 1.60069C48.2587 0.817417 50.9415 0.782436 53.47 1.50004C50.88 2.18004 48.62 4.09004 46.58 5.66004C41.53 9.54004 39.35 15.2 37.71 21.2C37.71 21.27 37.71 21.4 37.78 21.4C37.85 21.4 37.58 21.27 37.44 21.34C34.98 22.7 33.9601 25.42 34.1701 28.34C34.2869 29.6293 34.792 30.8527 35.6186 31.849C36.4452 32.8452 37.5545 33.5673 38.8 33.92C39.3941 34.133 40.029 34.2077 40.6563 34.1384C41.2836 34.069 41.8868 33.8576 42.4201 33.52C42.4201 33.58 42.42 33.65 42.49 33.65C44.2068 35.4042 46.0777 37.0006 48.08 38.42C48.0786 38.4606 48.088 38.5008 48.1071 38.5366C48.1262 38.5724 48.1545 38.6025 48.189 38.6238C48.2236 38.6451 48.2631 38.6569 48.3037 38.658C48.3443 38.6591 48.3844 38.6495 48.4201 38.63H48.56V38.83C46.1785 37.4405 43.9784 35.761 42.0101 33.83C41.8001 33.62 41.4601 33.96 41.6701 34.17C41.9258 34.4386 42.1998 34.6892 42.49 34.92V35C42.2922 36.9575 41.9275 38.8946 41.4 40.79C41.12 41.61 40.85 42.49 40.58 43.31C40.2978 44.2284 39.8834 45.1009 39.3501 45.9C39.2801 45.9 39.2101 45.83 39.1401 45.83C39.1039 45.8179 39.0655 45.8139 39.0276 45.8183C38.9898 45.8227 38.9533 45.8353 38.9209 45.8554C38.8884 45.8754 38.8608 45.9023 38.8399 45.9342C38.819 45.9662 38.8054 46.0023 38.8 46.04C38.74 46.1 38.6701 46.1 38.6001 46.17C38.5301 46.24 38.53 46.17 38.46 46.24C37.7564 46.6399 36.9446 46.8079 36.1401 46.72C36.0462 46.4617 35.9325 46.2109 35.8 45.97C35.7839 45.9414 35.7618 45.9165 35.7352 45.8971C35.7086 45.8777 35.6782 45.8642 35.646 45.8576C35.6138 45.8509 35.5805 45.8513 35.5484 45.8586C35.5163 45.8659 35.4862 45.8801 35.46 45.9H35.3901C31.7801 47.19 28.16 48.63 24.62 50.19C22.78 51.01 20.93 51.9 19.09 52.78C17.676 53.4057 16.419 54.3383 15.41 55.51C14.5405 56.743 13.9158 58.1315 13.5701 59.6C13.0201 61.51 12.48 63.48 11.93 65.46C10.93 69.46 9.93006 73.46 9.20006 77.59C8.40564 81.4395 7.8148 85.3283 7.43004 89.24C6.97178 92.9125 7.34427 96.6409 8.52003 100.15C9.48249 102.951 11.3555 105.348 13.84 106.96C16.6482 108.522 19.7723 109.431 22.9801 109.62C31.5177 110.558 40.1011 111.019 48.69 111C48.6991 111.079 48.735 111.153 48.7917 111.209C48.8484 111.265 48.9226 111.3 49.0019 111.308C49.0812 111.316 49.161 111.297 49.2279 111.254C49.2949 111.211 49.345 111.146 49.37 111.07C49.37 111 51.22 105.69 52.37 104.07C52.37 104.105 52.3837 104.138 52.4081 104.162C52.4325 104.186 52.4656 104.2 52.5 104.2C54.4295 104.604 56.4109 104.698 58.37 104.48C59.32 104.48 60.21 104.41 61.16 104.41C61.1986 104.444 61.2484 104.464 61.3 104.464C61.3517 104.464 61.4015 104.444 61.44 104.41C62.4433 104.412 63.4454 104.479 64.44 104.61C68.6 105.23 72.14 107.34 73.71 111.43C73.85 111.7 74.26 111.56 74.19 111.29C73.6945 109.963 72.9384 108.749 71.9664 107.718C70.9943 106.688 69.826 105.862 68.53 105.29H68.6001C69.5501 105.01 69.0701 102.49 69.0701 101.88C69.0101 97.65 69.01 93.43 68.94 89.2L68.8 63.37C68.8 63.3064 68.7748 63.2453 68.7298 63.2003C68.6847 63.1553 68.6237 63.13 68.56 63.13C68.4964 63.13 68.4353 63.1553 68.3903 63.2003C68.3453 63.2453 68.3201 63.3064 68.3201 63.37L68.53 83.95C68.6 87.29 68.6001 90.63 68.6701 93.95L68.7301 99.2C68.7301 99.61 68.8001 102.88 68.6701 104.11H68.53C68.39 104.11 68.3201 104.11 68.2601 104.24C68.2084 104.335 68.1814 104.442 68.1814 104.55C68.1814 104.658 68.2084 104.765 68.2601 104.86C67.7101 104.65 67.1001 104.45 66.4801 104.24C64.8963 103.854 63.2698 103.673 61.6401 103.7C61.3701 101.52 61.1001 99.34 60.8901 97.15C62.1201 93.2 63.2801 89.15 64.5101 85.23C64.9801 83.59 65.7301 81.82 65.3201 80.12C64.7693 78.6565 63.9635 77.3022 62.94 76.12C61.71 74.49 60.75 72.17 62.46 70.54C63.46 69.54 64.57 68.9 64.91 67.47C65.73 64.54 64.1 61.13 63 58.47C61.5006 54.8045 59.6521 51.2916 57.4801 47.98C64.3001 50.09 71.3301 53.09 74.2601 60.11C76.1001 64.4 76.26 69.11 76.58 73.67C76.85 78.78 76.85 83.89 76.71 88.94C76.58 92.41 76.24 98 80.4 99.23C78.49 103.32 76.5801 107.41 74.6701 111.56H70.8501V111.43C70.124 110.251 69.1712 109.227 68.0469 108.419C66.9226 107.61 65.649 107.033 64.3 106.72C64.03 106.66 63.89 107.13 64.16 107.2C65.431 107.483 66.6337 108.013 67.6993 108.761C68.7649 109.51 69.6725 110.461 70.37 111.56H68.2601V111.43C67.1001 109.25 64.98 108.56 62.53 108.29C62.19 108.29 62.25 108.77 62.53 108.77C64.78 108.97 66.69 109.59 67.78 111.56C58.3 111.49 48.89 111.43 39.41 111.43C39.4076 111.375 39.3847 111.323 39.3458 111.284C39.307 111.245 39.255 111.222 39.2001 111.22H39.0701C39.0001 111.15 38.18 111.97 38.3801 111.97C38.3801 112.11 38.4501 112.31 38.4501 112.45C38.4501 113.27 38.32 116.13 38.18 116.95C38.11 117.22 38.59 117.36 38.66 117.08C38.6493 116.984 38.6742 116.888 38.7301 116.81C38.7646 116.805 38.7965 116.789 38.8202 116.763C38.8439 116.738 38.858 116.705 38.86 116.67C38.9766 115.29 39.0233 113.905 39 112.52V112.04L74.74 112.24C74.8 112.38 75.0801 112.45 75.1401 112.24L81.08 99.57C81.15 99.57 81.35 99.16 81.28 99.09C85.1667 90.85 89.1234 82.65 93.15 74.49H147.37C147.71 74.49 149.89 74.63 149.01 76.49C129.84 77.1 95.2 76.28 95.06 76.49C95.06 76.49 92.67 81.6 91.31 84.49L86.81 94.3C83.81 100.84 79.37 108.75 76.37 115.36C76.24 115.63 76.64 115.9 76.78 115.63C79.78 109.09 84.22 101.18 87.22 94.57C88.72 91.37 90.15 88.17 91.65 84.96C93.08 81.9 93.65 80.06 95.33 77.06C114.56 77.6 129.77 77.54 149.01 76.99C149.218 76.6412 149.398 76.2768 149.55 75.9C149.55 75.97 149.48 75.97 149.48 76.04C149.41 75.9 148.48 77.26 148.39 77.4C141.58 90.1 134.69 102.91 129 116C128.87 116.27 129.28 116.54 129.41 116.27C132.41 109.27 137.05 100.94 140.41 94.05C142.12 90.64 143.82 87.17 145.6 83.83L148.26 78.72C148.39 77.83 149.96 76.06 149.89 75.24H149.9ZM46.24 6.34003C47.4505 5.34819 48.7268 4.43945 50.06 3.62004C51.227 2.75365 52.5417 2.10647 53.94 1.71004C54.0934 1.65343 54.2569 1.62958 54.4201 1.64004C54.4901 1.64004 54.5601 1.71004 54.6301 1.71004C54.7001 1.71004 54.83 1.71004 54.9 1.57004C57.6249 1.44501 60.3394 1.98379 62.81 3.14004C62.74 3.21004 62.6101 3.21003 62.5401 3.28003C62.4701 3.35003 62.47 3.21004 62.4 3.21004C57.9199 3.70909 53.6924 5.54063 50.2643 8.46786C46.8361 11.3951 44.3649 15.2834 43.1701 19.63C43.0301 19.63 42.9 20.38 42.96 20.63C42.9752 20.682 43.0068 20.7276 43.05 20.76C43.0933 20.7925 43.146 20.81 43.2001 20.81C43.2542 20.81 43.3068 20.7925 43.3501 20.76C43.3933 20.7276 43.4249 20.682 43.44 20.63C44.4226 16.4346 46.6069 12.6167 49.7257 9.64355C52.8445 6.67038 56.7625 4.67097 61 3.89004C60.93 4.02004 61.07 4.30004 61.27 4.23004C62.36 4.02004 63.1101 3.23004 64.2001 3.00004C66.7901 2.32004 66.04 5.12003 65.43 6.27003C65.36 6.41003 65.43 6.68004 65.6301 6.61004C68.23 6.48004 73.0001 5.12004 73.8201 8.80004C74.5701 12.2 71.0201 14.11 68.2901 14.8C66.7948 15.1776 65.2618 15.3856 63.72 15.42C62.0264 15.3495 60.3475 15.0742 58.72 14.6C55.7292 13.8854 52.6503 13.6092 49.58 13.78L49 13.7C49.1832 15.3587 49.0103 17.0373 48.4929 18.6238C47.9756 20.2103 47.1257 21.6682 46 22.9C45.93 22.77 45.8001 22.7 45.7301 22.56C43.8901 20.72 40.48 19.15 38.16 20.72C39.73 15.41 41.71 10.02 46.21 6.34003H46.24ZM41.19 33.26C40.03 33.6 36.0101 32.65 34.9201 29.44C33.9201 26.51 34.98 23.58 35.87 22.7C39.96 18.61 46.1 21.7 46.58 25.22C47.06 28.42 44.19 32.44 41.19 33.22V33.26ZM35.6001 46.14C42.4275 62.3229 46.0185 79.6866 46.1701 97.25C43.5128 95.427 41.5443 92.7649 40.58 89.69C40.0143 88.0491 39.7798 86.3122 39.8901 84.58C40.0301 82.67 40.5801 80.76 40.8901 78.85C41.4401 75.72 41.09 72.65 38.37 70.68C36.9261 69.7963 35.4186 69.0208 33.86 68.36C31.75 67.13 32.64 64.07 32.86 62.09C33.27 57.09 33.68 52.09 34.02 47.09C34.025 47.0622 34.0233 47.0337 34.0152 47.0066C34.007 46.9796 33.9926 46.9549 33.9732 46.9345C33.9537 46.914 33.9297 46.8984 33.9031 46.889C33.8765 46.8795 33.8481 46.8765 33.8201 46.88C34.4119 46.5802 35.0273 46.3293 35.66 46.13L35.6001 46.14ZM49 110.27C40.4 110.14 34.2601 109.66 26.7601 109.18C23.5027 109.128 20.2684 108.623 17.15 107.68C15.5695 107.151 14.11 106.313 12.8567 105.214C11.6034 104.115 10.5813 102.778 9.85005 101.28C6.57005 94.67 8.28006 86.69 9.51006 79.81C10.1901 76.13 10.94 72.45 11.83 68.81C12.5928 65.2309 13.5713 61.7011 14.7601 58.24C15.402 56.3289 16.7076 54.7111 18.44 53.68C20.1879 52.6977 21.9871 51.8097 23.83 51.02C27.03 49.52 30.31 48.22 33.58 47.02C33.51 47.09 33.5101 47.09 33.5101 47.15L32.4201 61.15C32.3501 62.24 32.22 63.4 32.15 64.49C32.015 65.3246 32.015 66.1755 32.15 67.01C32.56 68.58 34.1501 69.01 35.4201 69.6C37.2001 70.42 39.04 71.44 39.99 73.22C41.08 75.22 40.67 77.65 40.27 79.83C39.58 83.37 39.0401 86.57 40.2001 90.05C41.2775 93.2553 43.3877 96.0126 46.2001 97.89V101.23C39.5328 99.1238 33.0147 96.5713 26.69 93.59C26.7434 93.5878 26.794 93.5663 26.8327 93.5295C26.8713 93.4927 26.8952 93.4432 26.9 93.39C27.5667 83.85 28.4534 74.3534 29.56 64.9C29.63 64.56 29.08 64.63 29.08 64.9C27.9867 74.3667 27.1001 83.8634 26.4201 93.39V93.46C24.3101 92.46 22.26 91.46 20.21 90.32C19.94 90.19 19.67 90.59 19.94 90.73C30.1126 96.1836 40.867 100.474 52 103.52L51.94 103.59C50.5848 105.639 49.5716 107.896 48.94 110.27H49ZM61.1401 103.87H60.3201C58.0001 103.87 55.32 104.34 53.09 103.73C53.142 103.715 53.1876 103.683 53.22 103.64C53.2525 103.597 53.27 103.544 53.27 103.49C53.27 103.436 53.2525 103.383 53.22 103.34C53.1876 103.297 53.142 103.265 53.09 103.25C50.91 102.71 48.79 102.09 46.68 101.41C46.68 100.32 44.49 70.47 40.33 57.52C39.17 53.98 37.8801 50.52 36.5101 47.03C37.3219 47.0941 38.1333 46.9017 38.83 46.48H39.11C40.61 49.0438 42.9428 51.0166 45.72 52.07C48.11 53.07 53.0001 54.55 54.0401 52.68C54.0401 52.62 53.9701 52.75 53.91 52.75C54.25 50.98 54.4501 49.21 54.66 47.37C54.7901 47.37 54.86 47.44 55 47.44C58.07 56.16 57.73 65.56 58.27 74.7C58.68 82.26 59.5001 89.76 60.3201 97.25V97.46C60.6601 99.57 60.9301 101.68 61.1401 103.87ZM61.8901 57.25C62.6589 58.9594 63.3267 60.7124 63.8901 62.5C64.5184 64.0872 64.7083 65.8142 64.44 67.5C63.96 69.21 62.5301 69.68 61.5701 70.91C61.2258 71.4408 61.0206 72.0496 60.9734 72.6805C60.9262 73.3114 61.0385 73.944 61.3 74.52C61.9653 75.8272 62.7664 77.0607 63.69 78.2C64.2742 78.9343 64.6722 79.7988 64.8501 80.72C64.9379 81.8614 64.7492 83.0071 64.3 84.06C63.07 88.06 61.91 92.06 60.69 96.06C59.87 88.77 59.12 81.47 58.69 74.18C58.21 65.25 58.42 56.12 55.55 47.6C55.96 47.74 56.3 47.81 56.71 47.94C58.6374 50.9272 60.3484 54.0485 61.83 57.28L61.8901 57.25Z" fill="#010101"/>
<path d="M38.46 117.71C38.4105 117.72 38.3596 117.72 38.31 117.71C38.176 117.681 38.056 117.607 37.97 117.5C37.9165 117.436 37.8787 117.36 37.8596 117.278C37.8405 117.196 37.8406 117.111 37.86 117.03C37.98 116.28 38.12 113.45 38.12 112.61C38.1288 112.554 38.1288 112.496 38.12 112.44C38.1158 112.387 38.1158 112.333 38.12 112.28V112.2C38.03 111.85 38.59 111.37 38.83 111.2C34.02 110.98 28.83 110.57 23.04 109.97C19.7793 109.775 16.6043 108.849 13.75 107.26C11.1951 105.607 9.27165 103.141 8.29004 100.26C7.09738 96.7235 6.71794 92.9635 7.18002 89.26C7.57 85.335 8.16413 81.4331 8.96002 77.57C9.78002 73.09 10.85 68.73 11.69 65.42C12.24 63.42 12.79 61.42 13.33 59.55C13.69 58.0417 14.3349 56.6161 15.23 55.35C16.272 54.1399 17.57 53.1766 19.03 52.53C20.84 51.66 22.71 50.76 24.57 49.93C28 48.41 31.64 46.93 35.37 45.63H35.46C35.5679 45.5997 35.6821 45.5997 35.79 45.63C35.876 45.6438 35.9576 45.6771 36.0287 45.7274C36.0998 45.7777 36.1584 45.8435 36.2 45.92C36.2817 46.0642 36.3519 46.2147 36.41 46.37C36.41 46.37 36.41 46.45 36.41 46.49C37.2895 46.3306 38.1529 46.093 38.99 45.78L39.21 45.71C39.612 45.1094 39.9221 44.4521 40.13 43.76C40.2 43.56 40.27 43.4 40.31 43.29C40.44 42.9 40.58 42.48 40.71 42.06L41.12 40.79C41.6384 38.9584 41.9931 37.0843 42.18 35.19C41.95 35 41.71 34.76 41.48 34.53C41.448 34.5013 41.421 34.4675 41.4 34.43C40.5296 34.6826 39.6013 34.6511 38.75 34.34C37.4402 33.9617 36.2748 33.1973 35.406 32.1465C34.5373 31.0958 34.0055 29.8076 33.88 28.45C33.65 25.29 34.88 22.61 37.18 21.26L37.12 21.15C35.8199 18.6049 35.3082 15.7299 35.6503 12.8924C35.9925 10.055 37.1729 7.38408 39.0408 5.22098C40.9087 3.05789 43.3792 1.50089 46.1365 0.749008C48.8938 -0.00287628 51.8126 0.0845032 54.52 0.999977C57.61 0.549977 60.61 1.52998 63.41 2.67998C63.828 2.4247 64.3123 2.29892 64.8017 2.3185C65.2911 2.33808 65.7637 2.50213 66.16 2.78998C67.25 3.65998 66.91 5.05997 66.55 5.98997L67.11 5.91997C69.62 5.58997 72.76 5.17998 74.22 7.78998C75.59 10.17 74.1 13.1 71.92 14.45C70.781 15.1261 69.5474 15.6283 68.26 15.94C68.26 15.94 68.26 16 68.26 16.03C68.4392 20.7151 68.1376 25.4063 67.36 30.03C66.9741 32.2769 66.4498 34.4978 65.79 36.68C65.4469 38.3376 64.7661 39.9069 63.79 41.29C61.79 43.69 58.45 43.75 55.39 43.56C55.33 44.64 55.27 45.75 55.16 46.85C55.3026 46.8662 55.4413 46.9067 55.57 46.97C56.57 47.25 64.03 49.66 66.9 51.35C70.2034 53.1252 72.8888 55.863 74.6 59.2C76.54 63.07 76.98 67.45 77.23 71.2C77.59 76.56 77.7 81.75 77.57 86.63C77.57 87.21 77.52 87.87 77.47 88.63C77.24 92.37 76.91 97.46 80.39 98.71C84.16 90.79 88.05 82.61 92.01 74.61C92.0149 74.452 92.0632 74.2984 92.1497 74.1661C92.2361 74.0338 92.3573 73.9279 92.5 73.86C92.5684 73.8205 92.646 73.7997 92.725 73.7997C92.804 73.7997 92.8816 73.8205 92.95 73.86H143.25C143.75 73.86 144.25 73.86 144.72 73.86C145.718 73.766 146.722 73.766 147.72 73.86H147.85C148.63 73.93 150.09 74.07 150.26 75.22C150.155 75.9836 149.848 76.7052 149.37 77.31C149.047 77.7594 148.795 78.255 148.62 78.78C148.625 78.8165 148.625 78.8534 148.62 78.89L145.91 84C144.49 86.67 143.09 89.47 141.75 92.17L140.75 94.17C139.53 96.69 138.16 99.35 136.75 102.17C134.27 106.98 131.75 111.94 129.82 116.38C129.79 116.448 129.747 116.51 129.692 116.56C129.637 116.611 129.572 116.65 129.502 116.674C129.432 116.699 129.357 116.708 129.282 116.702C129.208 116.696 129.136 116.675 129.07 116.64C128.998 116.605 128.933 116.556 128.879 116.495C128.826 116.435 128.785 116.365 128.759 116.288C128.733 116.212 128.722 116.131 128.728 116.051C128.733 115.971 128.754 115.892 128.79 115.82C134.29 103.1 140.79 90.93 148.1 77.5C128.48 78.04 113.65 78.05 95.6 77.5C94.6 79.33 94.02 80.7 93.33 82.29C92.94 83.17 92.54 84.11 92.03 85.2C91.2834 86.8 90.5434 88.4033 89.81 90.01C89.0767 91.6166 88.3367 93.2166 87.59 94.81C86.06 98.19 84.12 101.97 82.24 105.63C80.46 109.09 78.62 112.68 77.16 115.86C77.1303 115.927 77.087 115.987 77.0327 116.037C76.9785 116.086 76.9146 116.124 76.845 116.148C76.7754 116.171 76.7017 116.18 76.6285 116.173C76.5554 116.167 76.4844 116.145 76.42 116.11C76.2877 116.044 76.1818 115.934 76.12 115.8C76.0827 115.722 76.0634 115.636 76.0634 115.55C76.0634 115.463 76.0827 115.378 76.12 115.3C77.65 111.92 79.59 108.14 81.47 104.49C83.24 101.02 85.08 97.44 86.55 94.25L91.05 84.43C92.41 81.5 94.8 76.43 94.8 76.43C94.97 76.16 94.97 76.16 104.8 76.28C116.49 76.42 136.01 76.64 148.8 76.28C148.86 76.1587 148.891 76.0253 148.891 75.89C148.891 75.7547 148.86 75.6212 148.8 75.5C148.53 75.07 147.68 74.98 147.38 74.98H93.38C89.11 83.66 85.28 91.61 81.66 99.29C81.6566 99.3979 81.6293 99.5038 81.58 99.6C81.5336 99.7263 81.4622 99.8419 81.37 99.94L75.47 112.54C75.4377 112.632 75.3783 112.711 75.2997 112.768C75.2212 112.825 75.1271 112.857 75.03 112.86C74.8789 112.869 74.7294 112.823 74.61 112.73L39.36 112.53V112.67C39.3983 114.078 39.3516 115.487 39.22 116.89C39.2155 116.957 39.195 117.022 39.1602 117.079C39.1254 117.137 39.0773 117.185 39.02 117.22C39.0111 117.317 38.9768 117.409 38.9206 117.488C38.8644 117.567 38.7883 117.63 38.7 117.67C38.6237 117.7 38.5419 117.713 38.46 117.71ZM74.69 112.04H74.75C74.8101 112.041 74.8688 112.059 74.92 112.09L80.78 99.56C80.8023 99.5063 80.8408 99.4608 80.89 99.43L80.96 99.29C80.9344 99.2258 80.9344 99.1542 80.96 99.09C84.62 91.33 88.5 83.28 92.83 74.49H92.69V74.57C92.7144 74.6413 92.7144 74.7187 92.69 74.79C88.69 82.91 84.69 91.22 80.89 99.25C80.8686 99.3013 80.8341 99.3461 80.79 99.38C80.8046 99.4255 80.8046 99.4744 80.79 99.52L80.65 99.83C78.79 103.83 76.93 107.83 75.07 111.83C75.0345 111.896 74.9779 111.949 74.9091 111.98C74.8403 112.011 74.7633 112.018 74.69 112V112.04ZM70.51 112.04H70.74C70.6957 112.025 70.6549 112.001 70.62 111.97C70.5849 111.985 70.5479 111.995 70.51 112V112.04ZM39 111.84H39.21C39.1637 111.813 39.1283 111.77 39.11 111.72L38.98 111.84H39ZM71.12 111.36H73.29C71.45 106.94 67.45 105.47 64.39 105.02C63.4422 104.89 62.4867 104.824 61.53 104.82C61.4583 104.855 61.3797 104.872 61.3 104.872C61.2204 104.872 61.1418 104.855 61.07 104.82C60.63 104.82 60.2 104.82 59.78 104.82C59.36 104.82 58.85 104.82 58.37 104.82H57.53C55.8315 104.992 54.1165 104.89 52.45 104.52C51.3568 106.625 50.4371 108.816 49.7 111.07C49.7036 111.097 49.7036 111.123 49.7 111.15C55.59 111.15 61.45 111.22 67.2 111.26C66.29 110 64.85 109.36 62.54 109.15C62.3915 109.137 62.2536 109.068 62.1549 108.956C62.0562 108.844 62.0044 108.699 62.01 108.55C62.0086 108.475 62.0225 108.401 62.0508 108.332C62.079 108.262 62.1211 108.2 62.1745 108.147C62.2278 108.095 62.2913 108.054 62.3611 108.027C62.4308 108 62.5053 107.987 62.58 107.99C64.82 108.24 67.26 108.82 68.58 111.26H69.78C68.404 109.393 66.4021 108.083 64.14 107.57C64.0667 107.554 63.9975 107.523 63.9369 107.479C63.8763 107.434 63.8255 107.378 63.7879 107.313C63.7502 107.248 63.7265 107.176 63.7183 107.102C63.7101 107.027 63.7175 106.952 63.74 106.88C63.7736 106.73 63.8646 106.599 63.9935 106.515C64.1224 106.431 64.279 106.4 64.43 106.43C65.8177 106.767 67.1245 107.376 68.2747 108.223C69.4249 109.069 70.3954 110.135 71.13 111.36H71.12ZM69.21 105.31C71.6587 106.551 73.5507 108.668 74.51 111.24C76.31 107.31 78.12 103.44 79.93 99.57C76.01 98.1 76.22 92.85 76.36 89.35V89.06C76.52 83.4 76.47 78.42 76.23 73.83V73.23C75.98 68.9 75.71 64.43 73.97 60.38C71.23 53.81 64.9 50.84 58.31 48.73C60.2644 51.8242 61.9378 55.0872 63.31 58.48L63.63 59.24C64.69 61.78 66.01 64.93 65.23 67.7C64.9235 68.7286 64.2832 69.6258 63.41 70.25C63.18 70.46 62.93 70.68 62.69 70.92C60.93 72.6 62.46 75.08 63.2 76.06L63.71 76.75C64.5633 77.743 65.2185 78.8904 65.64 80.13C65.8649 81.6432 65.6712 83.189 65.08 84.6C64.99 84.88 64.9 85.15 64.82 85.42C64.2134 87.42 63.61 89.42 63.01 91.42C62.41 93.42 61.8167 95.3867 61.23 97.32C61.42 99.4 61.68 101.47 61.93 103.49C63.4899 103.487 65.0444 103.671 66.56 104.04L67.84 104.48C67.8624 104.374 67.903 104.272 67.96 104.18C67.996 104.107 68.0495 104.044 68.1159 103.997C68.1822 103.95 68.2592 103.92 68.34 103.91C68.42 102.76 68.4 100.58 68.39 99.71L68.31 94.09C68.31 92.41 68.29 90.7433 68.25 89.09C68.25 87.43 68.25 85.77 68.18 84.09L68 63.46C68 63.3062 68.0611 63.1586 68.1699 63.0499C68.2787 62.9411 68.4262 62.88 68.58 62.88C68.7338 62.88 68.8814 62.9411 68.9901 63.0499C69.0989 63.1586 69.16 63.3062 69.16 63.46L69.3 89.29C69.3 91.39 69.3234 93.49 69.37 95.59C69.37 97.71 69.37 99.84 69.44 101.96C69.44 102.08 69.44 102.26 69.44 102.48C69.6457 103.424 69.5692 104.409 69.22 105.31H69.21ZM39.62 111.23H40.27H39.6H39.62ZM48.68 110.68C48.7699 110.681 48.8559 110.717 48.92 110.78C48.9531 110.81 48.9791 110.848 48.9964 110.889C49.0137 110.93 49.0217 110.975 49.02 111.02C49.0604 110.857 49.1105 110.697 49.17 110.54C49.1064 110.587 49.0291 110.611 48.95 110.61C41.65 110.5 36 110.13 30.02 109.74L26.61 109.52C23.352 109.458 20.1181 108.947 17 108C15.3791 107.455 13.8825 106.593 12.5968 105.465C11.3111 104.338 10.262 102.966 9.51004 101.43C8.65921 99.6773 8.09212 97.8006 7.83002 95.87C8.01191 97.279 8.34723 98.6638 8.83002 100C9.7611 102.733 11.586 105.072 14.01 106.64C16.777 108.172 19.8526 109.064 23.01 109.25C31.5329 110.21 40.1032 110.688 48.68 110.68ZM33.1 47.56C30.48 48.56 27.18 49.84 23.93 51.36L23.01 51.78C21.4915 52.4334 20.0123 53.1746 18.58 54C16.9093 54.9886 15.6521 56.5477 15.04 58.39C13.8628 61.8368 12.8878 65.3495 12.12 68.91C11.32 72.15 10.59 75.63 9.80002 79.91L9.60004 81C8.42004 87.54 7.08003 94.95 10.12 101.09C10.8319 102.55 11.8271 103.853 13.0478 104.925C14.2685 105.996 15.6902 106.814 17.23 107.33C20.2917 108.249 23.4641 108.747 26.66 108.81L30.07 109.03C35.97 109.41 41.55 109.78 48.71 109.9C49.3342 107.714 50.2562 105.625 51.45 103.69C40.4486 100.662 29.8169 96.4223 19.75 91.05C19.6662 91.01 19.5949 90.9479 19.5438 90.8703C19.4927 90.7928 19.4637 90.7028 19.46 90.61C19.4591 90.504 19.4842 90.3993 19.533 90.3052C19.5818 90.2111 19.6528 90.1303 19.74 90.07C19.8316 90.0183 19.9349 89.9911 20.04 89.9911C20.1452 89.9911 20.2485 90.0183 20.34 90.07C22.07 90.99 23.9 91.92 26.08 92.98C26.75 83.68 27.64 74.24 28.71 64.91C28.7171 64.8103 28.7516 64.7145 28.8099 64.6333C28.8682 64.552 28.9478 64.4886 29.04 64.45C29.1362 64.3907 29.247 64.3593 29.36 64.3593C29.473 64.3593 29.5838 64.3907 29.68 64.45C29.7574 64.512 29.8155 64.5948 29.8474 64.6887C29.8793 64.7826 29.8837 64.8837 29.86 64.98C28.78 74.41 27.86 83.98 27.21 93.42C27.2147 93.4397 27.2147 93.4602 27.21 93.48C33.2531 96.3166 39.4766 98.7519 45.84 100.77V98.08C43.034 96.1649 40.9279 93.3883 39.84 90.17C38.69 86.74 39.14 83.69 39.84 79.77C40.21 77.82 40.67 75.38 39.6 73.39C38.7 71.72 36.95 70.73 35.19 69.92L34.55 69.64C33.41 69.14 32.11 68.58 31.73 67.11C31.5952 66.366 31.5952 65.6039 31.73 64.86V64.47C31.73 63.93 31.82 63.37 31.87 62.8C31.92 62.23 31.97 61.68 32 61.14L33.1 47.56ZM51.76 104.45C50.8723 105.972 50.1578 107.589 49.63 109.27C50.2334 107.617 50.9484 106.006 51.77 104.45H51.76ZM141.55 91C138.94 96 136.45 100.82 134.11 105.69C134.76 104.41 135.42 103.13 136.11 101.85C137.56 99.04 138.93 96.38 140.11 93.85L141.11 91.85C141.27 91.58 141.41 91.3 141.55 91ZM61.45 104.11C62.4538 104.109 63.4563 104.179 64.45 104.32C65.7264 104.483 66.9746 104.82 68.16 105.32C68.1552 105.29 68.1552 105.26 68.16 105.23H68.1C67.55 105.02 66.95 104.82 66.34 104.62C64.7894 104.24 63.1963 104.062 61.6 104.09C61.5529 104.091 61.5062 104.081 61.4631 104.062C61.42 104.043 61.3814 104.015 61.35 103.98V104.05L61.27 104.11C61.3317 104.102 61.3942 104.113 61.45 104.14V104.11ZM68.55 104.52C68.55 104.59 68.55 104.66 68.55 104.82C68.5646 104.866 68.5646 104.914 68.55 104.96C68.6792 104.836 68.7577 104.669 68.77 104.49C68.7238 104.499 68.6762 104.499 68.63 104.49L68.55 104.52ZM52.67 103.94L52.89 103.99C52.8391 103.963 52.7964 103.923 52.7665 103.873C52.7366 103.824 52.7205 103.768 52.72 103.71C52.7139 103.635 52.7352 103.56 52.78 103.5L52.36 103.4C52.3778 103.458 52.3788 103.52 52.3628 103.578C52.3469 103.636 52.3147 103.689 52.27 103.73L52.21 103.79C52.2559 103.77 52.3052 103.76 52.355 103.76C52.4049 103.76 52.4542 103.77 52.5 103.79C52.5805 103.837 52.641 103.912 52.67 104V103.94ZM53.58 103.47C55.0788 103.703 56.6016 103.74 58.11 103.58C58.83 103.58 59.58 103.49 60.29 103.49H60.73C60.53 101.49 60.28 99.49 59.95 97.49V97.23C59.14 89.9 58.31 82.23 57.9 74.7C57.79 72.8 57.71 70.86 57.64 68.99C57.36 62.06 57.08 54.9 54.88 48.22C54.88 48.3 54.88 48.39 54.88 48.47C54.65 51 54.41 52.97 53.66 53.47C52.17 54.53 47.91 53.33 45.58 52.33C42.7958 51.2782 40.4441 49.3243 38.9 46.78C38.3222 47.1097 37.6746 47.2982 37.01 47.33C38.5 51.16 39.66 54.33 40.65 57.33C41.8256 61.2852 42.7376 65.3141 43.38 69.39C45.191 77.6084 46.2288 85.9782 46.48 94.39C46.78 97.8 46.96 100.25 47 101.06C49.12 101.74 51.14 102.32 53.16 102.82C53.2819 102.847 53.3914 102.913 53.4712 103.009C53.5509 103.105 53.5962 103.225 53.6 103.35L53.58 103.47ZM60.53 96.29C60.53 96.54 60.58 96.78 60.61 97.02C60.68 96.79 60.75 96.55 60.83 96.31C60.7738 96.3203 60.7162 96.3203 60.66 96.31C60.618 96.3231 60.5736 96.3266 60.53 96.32V96.29ZM34.3 47V47.09C33.96 52.09 33.56 57.09 33.14 62.09C33.14 62.42 33.06 62.77 33 63.09C32.73 64.96 32.42 67.09 34 67.99C34.54 68.29 35.13 68.55 35.69 68.8C36.6908 69.2025 37.6433 69.7157 38.53 70.33C41 72.12 41.87 74.91 41.19 78.84C41.08 79.61 40.92 80.39 40.77 81.14C40.5219 82.2581 40.3416 83.3901 40.23 84.53C40.1208 86.2245 40.3485 87.924 40.9 89.53C41.7819 92.3134 43.4998 94.7575 45.82 96.53C45.82 95.83 45.82 95.14 45.82 94.44C45.24 88.02 44.21 78.21 42.74 69.62C41.0097 61.7132 38.5698 53.9785 35.45 46.51C35.0576 46.6509 34.6736 46.8145 34.3 47ZM56.11 48.07C58.28 54.91 58.56 62.18 58.84 69.23C58.91 70.86 58.97 72.5 59.06 74.12C59.44 81.01 60.14 87.87 60.85 94.34C61.29 92.88 61.73 91.43 62.16 89.97C62.76 87.97 63.37 85.97 63.99 83.97L64.09 83.65C64.4644 82.746 64.612 81.7641 64.52 80.79C64.3494 79.9199 63.9722 79.1037 63.42 78.41C63.16 78.03 62.89 77.66 62.62 77.3C61.9706 76.4901 61.4231 75.6034 60.99 74.66C60.7033 74.0304 60.5821 73.338 60.6381 72.6484C60.6941 71.9588 60.9254 71.295 61.31 70.72C61.67 70.2815 62.0756 69.8826 62.52 69.53C63.2654 69.016 63.8263 68.2764 64.12 67.42C64.3643 65.8069 64.178 64.1579 63.58 62.64C63.0182 60.8649 62.3503 59.1251 61.58 57.43C60.1403 54.2485 58.4691 51.177 56.58 48.24L56.11 48.07ZM11.65 68C10.95 70.87 10.17 74.24 9.54004 77.67C9.26004 79.12 8.94002 80.77 8.65003 82.54C8.74003 82.01 8.84002 81.48 8.93002 80.96L9.14005 79.8C9.93005 75.54 10.67 72.05 11.47 68.8L11.65 68ZM96.58 77C108.93 77.34 119.82 77.43 131.88 77.27C122.14 77.27 111.96 77.16 104.76 77.08C101.27 77 98.27 76.91 96.58 76.91V77ZM149 74.72C149.162 74.8252 149.299 74.9653 149.4 75.13C149.476 75.2424 149.53 75.3678 149.56 75.5C149.573 75.4272 149.573 75.3528 149.56 75.28C149.52 75 149.29 74.83 149 74.72ZM16.08 55.27C15.94 55.42 15.81 55.57 15.68 55.74C14.858 56.8972 14.2641 58.2004 13.93 59.58C14.09 59.12 14.24 58.66 14.41 58.21C14.7906 57.1247 15.3556 56.1132 16.08 55.22V55.27ZM39.91 46.37C41.2349 48.471 43.157 50.1285 45.43 51.13C46.7609 51.7259 48.1348 52.2207 49.54 52.61C50.6729 53.0534 51.9118 53.1508 53.1 52.89C53.6794 49.7547 54.0502 46.5844 54.21 43.4H54.15C49.98 43.13 47.07 41.93 45.23 39.73C45.165 39.6642 45.1186 39.5823 45.0957 39.4926C45.0729 39.403 45.0744 39.3089 45.1 39.22C45.1296 39.1162 45.1858 39.022 45.2629 38.9465C45.3401 38.8711 45.4356 38.8172 45.54 38.79C45.6329 38.7649 45.7307 38.7647 45.8237 38.7892C45.9167 38.8138 46.0017 38.8623 46.07 38.93C48.31 41.58 51.83 42.13 54.65 42.31C57.65 42.49 61.81 42.74 63.53 39.31C64.161 37.9253 64.6534 36.4816 65 35L65.22 34.16C65.7571 32.2936 66.1647 30.3924 66.44 28.47C66.55 27.82 66.66 27.09 66.74 26.39H66.65C66.5338 26.3091 66.4518 26.1879 66.42 26.05L64.87 25.74C64.25 25.62 63.64 25.5 63.02 25.36C62.9382 25.3413 62.862 25.3034 62.7977 25.2495C62.7334 25.1956 62.6828 25.1273 62.65 25.05C62.6096 24.9265 62.6096 24.7934 62.65 24.67C62.6655 24.595 62.6956 24.5238 62.7388 24.4605C62.7819 24.3972 62.8371 24.343 62.9013 24.3012C62.9654 24.2594 63.0372 24.2306 63.1125 24.2167C63.1878 24.2028 63.2652 24.2039 63.34 24.22L65.34 24.62L66.94 24.96C67.2048 22.0513 67.285 19.1288 67.18 16.21C65.5313 16.5187 63.8451 16.5727 62.18 16.37C60.9741 16.2157 59.7786 15.9886 58.6 15.69C57.86 15.52 57.11 15.34 56.37 15.21C54.2543 14.874 52.1097 14.7568 49.97 14.86C50.1303 18.0948 49.0257 21.2651 46.89 23.7C48.3 26.16 47.09 29.25 45.45 31.37C44.926 32.1258 44.2686 32.7798 43.51 33.3C44.9895 34.7481 46.5738 36.0851 48.25 37.3C48.4867 36.9309 48.838 36.6498 49.25 36.5C49.6585 36.355 50.0929 36.297 50.5251 36.3297C50.9574 36.3624 51.378 36.4851 51.76 36.69C52.51 37.07 54.14 38.28 54.32 39.56C54.3558 39.8131 54.3258 40.0711 54.233 40.3093C54.1402 40.5475 53.9876 40.7578 53.79 40.92C53.5086 41.1748 53.178 41.3692 52.8185 41.4913C52.4591 41.6134 52.0784 41.6606 51.7 41.63C50.7029 41.5816 49.7634 41.1478 49.08 40.42C48.8861 40.2007 48.7245 39.9549 48.6 39.69C46.7183 38.6325 44.9491 37.3861 43.32 35.97C43.0611 38.169 42.558 40.3324 41.82 42.42C41.4391 43.582 40.9745 44.715 40.43 45.81L40.29 46.01L39.91 46.37ZM48.79 39.07L48.92 39.15C48.9803 39.1807 49.0293 39.2297 49.06 39.29C49.162 39.532 49.304 39.7551 49.48 39.95C50.0378 40.5524 50.81 40.9115 51.63 40.95C51.9181 40.9771 52.2087 40.9449 52.4838 40.8555C52.759 40.7661 53.0129 40.6212 53.23 40.43C53.3464 40.3439 53.4368 40.2274 53.4915 40.0934C53.5462 39.9594 53.563 39.8129 53.54 39.67C53.43 38.8 52.16 37.67 51.34 37.31C51.0463 37.1482 50.722 37.0496 50.388 37.0203C50.0539 36.991 49.7174 37.0318 49.4 37.14C49.2172 37.2034 49.0511 37.3074 48.9143 37.4442C48.7774 37.5811 48.6734 37.7471 48.61 37.93C48.5915 37.9793 48.5621 38.0238 48.524 38.0601C48.486 38.0965 48.4402 38.1238 48.39 38.14H48.28C48.33 38.1744 48.3684 38.2233 48.39 38.28C48.6 38.28 48.9 38.42 48.9 38.62V38.82C48.8848 38.8907 48.846 38.9541 48.79 39V39.07ZM36.15 31.92C36.9047 32.71 37.8526 33.2891 38.9 33.6C39.6857 33.8808 40.5444 33.8808 41.33 33.6H41.28C40.351 33.6952 39.4123 33.5901 38.5273 33.2917C37.6423 32.9932 36.8317 32.5084 36.15 31.87V31.92ZM37.74 21.79C37.1381 22.1037 36.5883 22.5084 36.11 22.99C35.31 23.79 34.34 26.61 35.24 29.39C36.29 32.46 40.19 33.25 41.09 32.98C44.02 32.18 46.67 28.24 46.23 25.32C46.01 23.74 44.47 22.17 42.47 21.5C41.0356 20.9848 39.4589 21.0349 38.06 21.64C38.0219 21.6856 37.9714 21.7192 37.9147 21.737C37.858 21.7547 37.7973 21.7557 37.74 21.74V21.79ZM67.11 25.69H67.23V25.61C67.1743 25.6248 67.1157 25.6248 67.06 25.61L67.11 25.69ZM46.11 23.28L46.16 23.36C46.4691 23.0149 46.7563 22.6509 47.02 22.27C46.79 22.58 46.55 22.88 46.29 23.18C46.2363 23.2142 46.1737 23.2316 46.11 23.23V23.28ZM43.77 20.72C44.5875 21.1416 45.3388 21.6806 46 22.32V22.37C47.79 20.23 48.58 17.67 48.58 14.15C48.5827 14.0732 48.6031 13.9981 48.6395 13.9305C48.6759 13.8628 48.7274 13.8045 48.79 13.76C49.74 12.99 56.43 13.76 58.79 14.26C60.4177 14.7317 62.0967 15.0037 63.79 15.07C65.3047 15.0342 66.8107 14.8296 68.28 14.46C69.28 14.21 74.4 12.73 73.55 8.86998C72.94 6.12998 69.79 6.49998 67.26 6.79998C66.71 6.86998 66.2 6.92997 65.75 6.94997C65.664 6.97181 65.5735 6.96935 65.4888 6.94287C65.4041 6.91639 65.3283 6.86693 65.27 6.79998C65.1914 6.70701 65.1419 6.59295 65.1277 6.47202C65.1134 6.35109 65.1351 6.22866 65.19 6.11998C65.61 5.32998 65.97 3.96998 65.57 3.45998C65.33 3.14998 64.77 3.21998 64.35 3.32998C63.8834 3.46471 63.4363 3.65969 63.02 3.90998C62.5158 4.21407 61.9652 4.43363 61.39 4.55997C61.2932 4.58683 61.1907 4.58507 61.0949 4.5549C60.999 4.52473 60.914 4.46745 60.85 4.38998L60.78 4.28998C56.6756 5.10249 52.8911 7.07743 49.8772 9.97966C46.8633 12.8819 44.7469 16.5891 43.78 20.66L43.77 20.72ZM40.41 19.79C41.1657 19.7986 41.9139 19.9408 42.62 20.21C42.6461 19.9675 42.721 19.7328 42.84 19.52C44.0072 15.2555 46.3901 11.4228 49.6982 8.48936C53.0063 5.55595 57.0965 3.64861 61.47 2.99998C59.448 2.17668 57.2707 1.80469 55.09 1.90998C55.0335 1.98102 54.9568 2.03332 54.87 2.05998C54.7602 2.09969 54.6399 2.09969 54.53 2.05998L54.37 1.99998C54.2805 1.98684 54.1896 1.98684 54.1 1.99998C52.7147 2.3965 51.411 3.03648 50.25 3.88998C48.926 4.70157 47.6596 5.60372 46.46 6.58997C42.15 10.11 40.19 15.3 38.76 20.02C39.2883 19.8268 39.8476 19.7319 40.41 19.74V19.79ZM50 1.39998C48.1891 1.39022 46.3951 1.74762 44.7262 2.45059C43.0573 3.15355 41.5482 4.1875 40.29 5.48997C38.5718 7.38556 37.4245 9.72825 36.9804 12.2478C36.5363 14.7674 36.8135 17.3612 37.78 19.73C39.34 14.4 41.57 9.08998 46.38 5.38998L47.06 4.86998C48.6144 3.54771 50.3399 2.44107 52.19 1.57998C51.4661 1.46048 50.7337 1.40028 50 1.39998ZM69.44 14.83C69.1 14.94 68.76 15.04 68.44 15.12C67.1599 15.4347 65.8551 15.6388 64.54 15.73C66.2061 15.6779 67.8546 15.3745 69.43 14.83H69.44ZM57.84 14.75L58.66 14.94C59.22 15.08 59.79 15.21 60.37 15.33C59.81 15.21 59.24 15.07 58.65 14.92L57.84 14.75ZM61.32 3.65998C61.3504 3.71245 61.3707 3.77009 61.38 3.82998C61.6479 3.75598 61.9089 3.65895 62.16 3.53998C61.88 3.59998 61.6 3.65331 61.32 3.69997V3.65998Z" fill="#010101"/>
<path d="M54.9 1.57003L52.03 2.39003L47.4 5.46003L42.9 9.89003L39.28 16.09L37.78 21.27L40.3 20.25L42.96 20.58L44.33 16.43L48.21 10.5L54.9 5.39003L62.4 3.21003L62.74 2.59003L59.47 1.50003L55.58 1.03003L54.9 1.57003Z" fill="#010101"/>
<path d="M37.7799 21.61C37.6949 21.609 37.6131 21.577 37.5499 21.52C37.5045 21.4752 37.4714 21.4195 37.4539 21.3582C37.4364 21.2968 37.435 21.232 37.45 21.17L38.9999 16L42.6499 9.72001C42.6499 9.72001 42.6499 9.72001 42.7099 9.65001L47.2099 5.22001L51.8999 2.12001H51.9899L54.8599 1.30001C56.4096 0.993492 58.0019 0.969777 59.5599 1.23001C60.743 1.42349 61.8874 1.80498 62.95 2.36001C63.0261 2.4058 63.0813 2.47958 63.1037 2.56555C63.1261 2.65152 63.114 2.74286 63.07 2.82001L62.73 3.43001C62.7094 3.46901 62.6811 3.50336 62.6466 3.53089C62.6122 3.55842 62.5725 3.57855 62.5299 3.59L55.0899 5.76001L48.4999 10.76L44.67 16.61L43.32 20.72C43.2987 20.798 43.2488 20.865 43.1801 20.9077C43.1115 20.9504 43.0293 20.9655 42.95 20.95L40.38 20.62L37.9399 21.62C37.8867 21.6308 37.8315 21.6273 37.7799 21.61ZM43.17 10.1L39.5799 16.26L38.2999 20.69L40.1799 19.93C40.2356 19.9147 40.2943 19.9147 40.35 19.93L42.73 20.23L43.9999 16.32C43.9999 16.32 43.9999 16.32 43.9999 16.24L47.89 10.31C47.9113 10.2785 47.9384 10.2514 47.9699 10.23L54.6499 5.12001C54.682 5.09249 54.7195 5.07204 54.76 5.06001L62.1299 2.92001L62.23 2.73001C61.313 2.31791 60.3492 2.01905 59.3599 1.84001C57.8944 1.60189 56.3985 1.6222 54.9399 1.90001L52.14 2.70001L47.5499 5.70001L43.17 10.1Z" fill="#010101"/>
<path d="M39.89 30.4C39.1465 30.4707 38.3989 30.3146 37.7458 29.9525C37.0926 29.5903 36.5643 29.0389 36.2304 28.3709C35.8965 27.7028 35.7725 26.9493 35.8749 26.2095C35.9772 25.4697 36.3011 24.7782 36.8039 24.2259C37.3066 23.6736 37.9648 23.2864 38.6918 23.1151C39.4188 22.9439 40.1805 22.9967 40.8769 23.2666C41.5733 23.5365 42.1718 24.0108 42.5935 24.6272C43.0153 25.2436 43.2407 25.9731 43.24 26.72C43.2808 27.6515 42.9514 28.5613 42.3237 29.2507C41.6961 29.9402 40.8212 30.3534 39.89 30.4ZM39.89 23.72C39.2869 23.6512 38.677 23.767 38.1411 24.0521C37.6052 24.3372 37.1684 24.7782 36.8883 25.3167C36.6083 25.8553 36.4982 26.4662 36.5727 27.0686C36.6472 27.6711 36.9026 28.2368 37.3053 28.691C37.7081 29.1452 38.2391 29.4665 38.8283 29.6126C39.4175 29.7586 40.0372 29.7225 40.6054 29.5089C41.1736 29.2954 41.6637 28.9145 42.0109 28.4165C42.3581 27.9186 42.5461 27.327 42.55 26.72C42.5911 25.9704 42.3348 25.2349 41.8367 24.6732C41.3387 24.1115 40.6391 23.7689 39.89 23.72Z" fill="white"/>
<g style="mix-blend-mode:multiply" opacity="0.15">
<path d="M67.45 16V20.78L66.77 28.51L65.47 36.51L63.47 41.01L59.74 42.72C59.74 42.72 65.61 32.26 64.86 21.6C64.67 18.83 64.65 15.96 64.65 15.96L67.45 16Z" fill="#010101"/>
</g>
<g style="mix-blend-mode:multiply" opacity="0.15">
<path d="M64.6701 16C64.6701 16 71.57 13.12 69.79 11.34C68.01 9.56 62.53 9.55 62.53 9.55C62.53 9.55 61.53 4.78 58.53 4.78C57.25 4.78 61.36 4.25 61.36 4.25L63.4201 3H66V4.76L65.72 6.61L69.2 5.61H71.54L73.98 7.96L73.91 8.85L73.98 12.28L71.79 14.16L67.93 16H64.6701Z" fill="#010101"/>
</g>
<g style="mix-blend-mode:multiply" opacity="0.15">
<path d="M54.9 1.57L51.44 0.5L45.25 1.03L39.49 5.18C39.49 5.18 43.12 3 46.11 3H53.11L54.9 1.57Z" fill="#010101"/>
</g>
<g style="mix-blend-mode:multiply" opacity="0.15">
<path d="M52.19 42.74C52.1716 45.0639 51.9575 47.3821 51.55 49.67L50.91 52.87V53.72L53.4 53.09L54.11 50.95L55.04 43.14L52.19 42.74Z" fill="#010101"/>
</g>
<g style="mix-blend-mode:multiply" opacity="0.15">
<path d="M79.07 98.53L77.79 96.18L77.15 92.13L77 77.51L76.36 66.31L74.55 59.81L71.67 55.75L67.45 52L63 50L55.42 47.24L57.42 55.01L57.91 63.55L57.42 57.26L61.42 104.49L60.26 91.6L60.87 97.26L64.87 83.82L65.32 80.23L61.88 75.28L61.44 72.28L62.44 70.67L64.53 68.22V62.46L58.74 50.7C63.6 52.41 74.45 57.41 74.45 68.01C74.45 81.66 74.98 93.4 74.98 96.6C74.98 99.8 79.68 101.93 79.68 101.93L81.26 99.22L79.07 98.53Z" fill="#010101"/>
</g>
<g style="mix-blend-mode:multiply" opacity="0.15">
<path d="M66.91 104.61H68.51V62.79L66.91 63.64V104.61Z" fill="#010101"/>
</g>
<g style="mix-blend-mode:multiply" opacity="0.15">
<path d="M29.36 64.28L26.39 93.51L28.41 94.47L30.96 65.67L29.36 64.28Z" fill="#010101"/>
</g>
<g style="mix-blend-mode:multiply" opacity="0.15">
<path d="M35.87 47.23L40.24 58.23L42.42 67.08L44.93 80.52L46.11 96V101.76H47.39C47.39 101.76 48.67 88.53 43.55 64.96C38.43 41.39 37.36 47.26 37.36 47.26L35.87 47.23Z" fill="#010101"/>
</g>
<g style="mix-blend-mode:multiply" opacity="0.15">
<path d="M66.91 109.51C63.43 107.32 52.62 108.71 52.62 108.71L55.04 104.48L52.38 104.14L50.91 105.67L49.37 110.75H49.8L48.42 111.75H68.27C68.27 111.75 70.38 111.7 66.91 109.51Z" fill="#010101"/>
</g>
<g style="mix-blend-mode:multiply" opacity="0.15">
<path d="M15.41 107.82L22.98 109.59L39.28 110.79L39.17 111.53L39.01 112.66L38.87 116.81L22.48 116.54L15.41 107.82Z" fill="#010101"/>
</g>
<g style="mix-blend-mode:multiply" opacity="0.15">
<path d="M132.82 74.63L134.75 76.83L116.08 116.81L129.44 116.27L149.56 76.06L149.04 74.63H132.82Z" fill="#010101"/>
</g>
<g style="mix-blend-mode:multiply" opacity="0.15">
<path d="M56.33 14.79L48.42 22.7L48.96 14.15L56.33 14.79Z" fill="#010101"/>
</g>
<path d="M148.34 66.5499C151.66 67.3299 155.25 68.8099 156 72.5499C156.16 73.3499 157.4 73.01 157.23 72.21C156.39 68.06 152.44 66.2099 148.68 65.3599C147.88 65.1699 147.54 66.4099 148.34 66.5899V66.5499Z" fill="#231F20"/>
<path d="M75.42 51.17C77.8623 54.3162 79.7185 57.8763 80.9 61.68C80.9223 61.7614 80.9604 61.8376 81.0122 61.9043C81.064 61.971 81.1284 62.0268 81.2018 62.0686C81.2751 62.1104 81.356 62.1373 81.4398 62.1478C81.5235 62.1584 81.6086 62.1523 81.69 62.13C81.7714 62.1076 81.8476 62.0695 81.9143 62.0177C81.981 61.9659 82.0368 61.9015 82.0786 61.8282C82.1204 61.7548 82.1473 61.6739 82.1578 61.5902C82.1684 61.5064 82.1623 61.4214 82.14 61.34C80.9259 57.4294 79.0264 53.7657 76.53 50.52C76.05 49.86 74.94 50.52 75.42 51.17Z" fill="#231F20"/>
<path d="M34.69 3.36001C33.3093 4.25011 32.1692 5.46663 31.3704 6.90204C30.5716 8.33746 30.1387 9.94755 30.11 11.59C30.11 12.41 31.42 12.42 31.39 11.59C31.4144 10.169 31.7873 8.77571 32.476 7.53252C33.1647 6.28933 34.1482 5.23427 35.34 4.46001C36.01 4.00001 35.34 2.89001 34.69 3.36001Z" fill="#231F20"/>
<path d="M0.750021 99C2.03002 101.36 2.92002 103.89 4.69002 105.95C5.23002 106.58 6.13003 105.67 5.60003 105.05C3.91003 103.05 3.07001 100.61 1.86001 98.35C1.47001 97.62 0.360021 98.27 0.750021 99Z" fill="#231F20"/>
<path d="M95.8101 40.57C93.6125 42.8421 91.568 45.2574 89.6901 47.8C89.0001 48.8 90.6901 49.8 91.3501 48.8C93.1362 46.3903 95.0805 44.1019 97.1701 41.95C97.9901 41.03 96.6401 39.67 95.8101 40.6V40.57Z" fill="#231F20"/>
<path d="M89.41 49.3899C91.8 51.4999 94.67 52.6499 97.5 54.0199C98.61 54.5599 99.58 52.8999 98.5 52.3599C95.84 51.0699 93.0499 50.0199 90.7999 48.0299C89.8799 47.2199 88.52 48.5699 89.44 49.3899H89.41Z" fill="#231F20"/>
<path d="M104.71 38.6799C104.617 45.5179 103.328 52.2868 100.9 58.6799C100.44 59.8199 102.3 60.3199 102.75 59.1899C103.885 55.9189 104.706 52.5469 105.2 49.1199C106.02 45.6889 106.499 42.1852 106.63 38.6599C106.569 38.4522 106.443 38.2698 106.27 38.1399C106.097 38.0101 105.886 37.9399 105.67 37.9399C105.454 37.9399 105.243 38.0101 105.07 38.1399C104.897 38.2698 104.771 38.4522 104.71 38.6599V38.6799Z" fill="#231F20"/>
<path d="M110 40.66C111.862 43.7233 114.137 46.5161 116.76 48.96C117.67 49.8 119.03 48.45 118.12 47.61C115.616 45.2765 113.443 42.6119 111.66 39.69C111.01 38.69 109.35 39.61 110 40.69V40.66Z" fill="#231F20"/>
<path d="M117.15 48C115.109 50.3406 112.729 52.3629 110.09 54C109.09 54.66 110.01 56.3301 111.09 55.6601C113.875 53.9286 116.385 51.7918 118.54 49.32C119.33 48.38 117.97 47.01 117.18 47.96L117.15 48Z" fill="#231F20"/>
</svg>
