<svg width="52" height="46" viewBox="0 0 52 46" fill="none" xmlns="http://www.w3.org/2000/svg">
<path d="M40.2405 43.7292C45.6065 43.7292 49.9566 39.1496 49.9566 33.5003C49.9566 27.8511 45.6065 23.2715 40.2405 23.2715C34.8745 23.2715 30.5244 27.8511 30.5244 33.5003C30.5244 39.1496 34.8745 43.7292 40.2405 43.7292Z" fill="#ED1C24" stroke="#ED1C24" stroke-width="0.25" stroke-miterlimit="10"/>
<g style="mix-blend-mode:multiply" opacity="0.15">
<path d="M47.8195 26.8761C47.8195 26.8761 44.6191 40.4679 40.5732 44.6764C39.1421 46.164 49.6673 38.9549 49.6673 38.9549L50.5067 32.8138L47.8195 26.8761Z" fill="#010101"/>
</g>
<path d="M33.8279 22.3497C33.613 22.3456 33.4062 22.2627 33.243 22.1153C33.0799 21.968 32.9707 21.7653 32.9342 21.5423C32.8195 21.0147 32.5658 20.9638 32.1371 21.0973C29.468 21.911 26.799 22.7205 24.1299 23.5258C24.0378 23.5344 23.9491 23.5669 23.8717 23.6204C23.7944 23.6738 23.7308 23.7465 23.6866 23.8321C23.6424 23.9176 23.6189 24.0134 23.6183 24.1108C23.6177 24.2082 23.6399 24.3042 23.6831 24.3904C24.456 27.1706 25.2149 29.953 25.9596 32.7375C26.1046 33.2651 26.3582 33.4876 26.8896 33.3732C27.0218 33.3122 27.1654 33.2835 27.3096 33.2894C27.4539 33.2953 27.595 33.3355 27.7223 33.4071C27.8496 33.4788 27.9598 33.5798 28.0447 33.7028C28.1295 33.8257 28.1867 33.9674 28.212 34.117C28.3751 34.7972 28.0127 35.1977 27.4149 35.3884C26.8171 35.5792 26.8111 35.8716 26.95 36.3929C27.3304 37.6643 27.6685 38.9739 28.0248 40.2645C28.212 40.951 28.2543 41.5995 27.4814 41.911C26.8775 42.1589 26.3763 41.7902 26.1046 40.8557C25.7422 39.5842 25.386 38.3128 25.072 37.0413C24.921 36.4056 24.6794 36.2085 24.0575 36.4056C22.3485 36.9523 20.6276 37.4673 18.9066 37.9631C18.3389 38.1221 18.345 38.3636 18.7314 38.7196C19.3353 39.2791 19.909 39.8385 20.543 40.3662C20.6667 40.4427 20.7738 40.5458 20.8574 40.6686C20.941 40.7914 20.9991 40.9314 21.0281 41.0793C21.0572 41.2273 21.0564 41.38 21.0259 41.5276C20.9954 41.6753 20.9358 41.8145 20.851 41.9364C20.4524 42.5721 19.8848 42.4641 19.3594 42.0699C18.3184 41.2913 17.3679 40.3866 16.5273 39.3744C16.414 39.1877 16.2405 39.0502 16.0386 38.9871C15.8368 38.9241 15.6201 38.9397 15.4283 39.0311C14.8245 39.26 14.1783 39.4253 13.5443 39.5969C12.9102 39.7686 12.1615 40.0547 11.8112 39.1138C11.5516 38.4081 11.9682 37.9123 13.0491 37.5753C13.3511 37.48 13.653 37.3846 13.9549 37.321C14.5588 37.1875 14.6856 36.9269 14.2991 36.3547C12.9877 34.3306 11.9093 32.1496 11.0866 29.8576C10.9014 29.3881 10.7401 28.9085 10.6035 28.4209C10.4646 27.8869 10.1868 27.7851 9.71582 27.9441C8.63492 28.2937 7.54193 28.6179 6.45499 28.9485C6.18425 29.042 5.90787 29.1164 5.62771 29.171C5.05404 29.2664 4.50452 29.171 4.33544 28.4972C4.29292 28.3528 4.28073 28.2004 4.29971 28.0506C4.31868 27.9007 4.36839 27.757 4.44536 27.6294C4.52234 27.5018 4.62474 27.3934 4.74549 27.3116C4.86623 27.2298 5.00242 27.1766 5.14463 27.1558C6.23761 26.8188 7.33058 26.52 8.41753 26.1704C9.80037 25.7317 9.78829 25.7254 9.4924 24.2632C8.93605 21.6372 8.69064 18.9489 8.76173 16.2594C8.76173 15.4584 8.55039 15.4075 7.95257 15.6237C7.526 15.7818 7.09035 15.9113 6.64823 16.0115C6.04437 16.1641 5.47071 16.0623 5.27748 15.3376C5.08424 14.6129 5.47673 14.206 6.09267 14.0089C6.82334 13.7674 7.56005 13.5321 8.3028 13.3732C8.54073 13.329 8.75744 13.2013 8.91755 13.0108C9.07766 12.8203 9.17172 12.5783 9.18442 12.3243C9.36204 11.2045 9.63695 10.1044 10.0057 9.03756C10.2955 8.17933 10.7786 7.82968 11.3583 8.08397C12.1192 8.41455 12.0769 9.05663 11.8837 9.74322C11.6904 10.4298 11.4972 11.11 11.3221 11.803C11.2013 12.2607 11.2798 12.4832 11.8233 12.3116C13.5322 11.7648 15.2472 11.2372 16.9682 10.7477C17.6686 10.5442 17.7653 10.1755 17.572 9.47621C17.1735 8.20476 16.8474 6.93331 16.5153 5.7C16.2858 4.85448 16.5153 4.23782 17.1191 4.09796C17.874 3.92632 18.194 4.42854 18.3812 5.09605C18.7375 6.36751 19.1239 7.63896 19.45 8.96763C19.6131 9.63514 19.9029 9.84493 20.543 9.63514C22.2278 9.10113 23.9186 8.59891 25.6094 8.09668C26.177 7.9314 26.2555 7.68346 25.8026 7.2766C25.3497 6.86973 24.758 6.34208 24.2145 5.878C23.671 5.41392 23.4234 4.86719 23.8824 4.25054C24.3413 3.63388 24.927 3.80553 25.4584 4.21875C26.3883 4.97005 27.2404 5.8224 28.0007 6.76166C28.1158 6.92834 28.2807 7.0496 28.4689 7.10607C28.6572 7.16253 28.858 7.15095 29.0393 7.07316C29.8002 6.82523 30.561 6.59637 31.3279 6.38022C31.9318 6.20222 32.5356 6.29758 32.7168 7.01595C32.898 7.73432 32.4753 8.17933 31.8412 8.39548C31.4679 8.53621 31.0867 8.65298 30.6999 8.74512C29.9753 8.87227 29.7881 9.1202 30.2651 9.83858C31.7568 12.0927 32.9455 14.5529 33.7977 17.1494C34.1842 18.3001 34.1963 18.3001 35.3255 17.9568L38.6709 16.9333C39.48 16.6917 40.0476 16.9333 40.1926 17.569C40.3677 18.3573 39.9088 18.7324 39.2808 18.9295C38.073 19.3173 36.8291 19.6923 35.5972 20.042C35.0296 20.2073 34.7216 20.4425 34.8545 21.1672C34.9873 21.892 34.5586 22.3433 33.8279 22.3497ZM23.2785 21.5995H23.3872C26.1589 20.754 28.9306 19.9148 31.7023 19.0566C32.1311 18.9295 32.1733 18.637 32.0465 18.2238C31.1319 15.3014 29.7715 12.5551 28.0188 10.0929C27.9532 9.96158 27.8461 9.85857 27.7159 9.80168C27.5858 9.7448 27.4409 9.73761 27.3062 9.78136C25.1323 10.4468 22.9564 11.1058 20.7785 11.7585C20.701 11.7679 20.6267 11.797 20.5622 11.8432C20.4976 11.8894 20.4447 11.9515 20.4079 12.024C20.3711 12.0965 20.3515 12.1773 20.3509 12.2595C20.3502 12.3417 20.3685 12.4228 20.4041 12.4959C21.2093 15.3906 22.0044 18.281 22.7894 21.1672C22.8618 21.4088 22.9403 21.6822 23.2785 21.5995ZM10.7605 16.6408C10.7122 19.2688 10.9718 21.8929 11.5334 24.4539C11.6603 25.0197 11.8837 25.0897 12.3607 24.9434C14.9694 24.1297 17.572 23.3223 20.2109 22.5531C20.8691 22.3624 20.9838 22.0509 20.8148 21.3961C20.0418 18.6794 19.291 15.9606 18.5624 13.2397C18.4054 12.6421 18.1819 12.4832 17.6022 12.6803C16.1771 13.1634 14.7279 13.5766 13.2907 14.0217C10.7545 14.7972 10.7545 14.7972 10.7605 16.6281V16.6408ZM17.2158 36.2657C17.2701 36.2657 17.4694 36.2149 17.6566 36.1577C19.5889 35.5728 21.5152 34.9561 23.4536 34.3967C24.1179 34.206 24.2265 33.8818 24.0575 33.227C23.2845 30.5442 22.5418 27.853 21.8292 25.1532C21.6601 24.5175 21.4005 24.3586 20.8087 24.5175C18.2302 25.3249 15.6457 26.1068 13.0552 26.8824C12.5177 27.0413 12.3064 27.2702 12.5177 27.8932C13.4443 30.691 14.7391 33.3381 16.3643 35.7572C16.4411 35.9215 16.5639 36.0571 16.7161 36.1458C16.8684 36.2344 17.0427 36.2718 17.2158 36.253V36.2657Z" fill="black"/>
<path d="M2.91015 23.0681C2.90467 26.422 3.68693 29.7253 5.18731 32.684C6.6877 35.6426 8.85966 38.1649 11.5098 40.0262C14.16 41.8875 17.2062 43.03 20.3773 43.3522C23.5483 43.6744 26.7459 43.1662 29.6852 41.8729C29.8885 41.7344 30.1255 41.6607 30.3676 41.6607C30.6097 41.6607 30.8467 41.7344 31.05 41.8729C31.6538 42.3751 31.4485 43.3541 30.6212 43.7165C28.947 44.4631 27.19 44.9842 25.3918 45.2677C22.6017 45.7217 19.7537 45.5894 17.0124 44.8784C14.2711 44.1674 11.6907 42.8917 9.42026 41.125C7.14982 39.3584 5.23428 37.1357 3.78426 34.5854C2.33423 32.035 1.37846 29.2076 0.972097 26.2663C0.565734 23.3249 0.71684 20.328 1.4167 17.4485C2.11656 14.5689 3.3513 11.8639 5.04964 9.48951C6.74797 7.11513 8.87624 5.11846 11.3116 3.61476C13.7469 2.11107 16.4411 1.13015 19.2385 0.728643C30.7601 -1.00689 41.5813 7.32749 43.3385 19.2855C43.4834 20.2963 43.26 20.7858 42.6078 20.8939C41.9556 21.002 41.5511 20.576 41.4001 19.6224C39.8663 11.4534 35.3615 5.99246 27.8374 3.44956C16.9136 -0.250374 4.93911 7.639 3.15773 19.5652C2.98968 20.7244 2.90691 21.8955 2.91015 23.0681Z" fill="black"/>
<path d="M51.8356 33.5449C51.844 35.1311 51.5506 36.703 50.9727 38.1679C50.3948 39.6328 49.5442 40.9611 48.4709 42.0744C47.3977 43.1878 46.1235 44.0636 44.7236 44.6502C43.3237 45.2368 41.8264 45.5224 40.32 45.4902C37.3067 45.4717 34.4223 44.2007 32.2948 41.9539C30.1674 39.7071 28.9693 36.6664 28.9614 33.494C28.9774 30.2797 30.2027 27.203 32.369 24.9379C34.5353 22.6727 37.4661 21.4037 40.5193 21.4088C42.021 21.4171 43.5063 21.7383 44.8895 22.3538C46.2728 22.9694 47.5265 23.8672 48.5785 24.9954C49.6305 26.1236 50.46 27.4599 51.019 28.9273C51.578 30.3947 51.8555 31.964 51.8356 33.5449ZM31.0146 33.5449C31.023 35.5099 31.585 37.4281 32.6295 39.0567C33.6739 40.6853 35.1539 41.951 36.882 42.6937C38.6101 43.4363 40.5086 43.6225 42.3373 43.2286C44.166 42.8348 45.8425 41.8786 47.1547 40.4811C48.4669 39.0836 49.3558 37.3077 49.7088 35.3781C50.0618 33.4485 49.863 31.452 49.1377 29.6414C48.4124 27.8308 47.1931 26.2874 45.6342 25.2067C44.0753 24.126 42.2469 23.5565 40.3804 23.5703C39.1411 23.5736 37.9148 23.8351 36.772 24.3397C35.6292 24.8444 34.5926 25.5822 33.7219 26.5106C32.8513 27.439 32.1638 28.5397 31.6991 29.7492C31.2345 30.9586 31.0018 32.253 31.0146 33.5576V33.5449Z" fill="black"/>
<path d="M36.5986 28.3827C36.7829 28.3929 36.9629 28.4447 37.1265 28.5346C37.2901 28.6246 37.4334 28.7506 37.5466 28.904C38.3618 29.7685 39.2012 30.6141 39.962 31.5104C40.0307 31.6297 40.1237 31.7315 40.2343 31.8082C40.3449 31.885 40.4704 31.935 40.6016 31.9544C40.7328 31.9739 40.8665 31.9624 40.9929 31.9208C41.1194 31.8792 41.2355 31.8085 41.3328 31.7139C41.9166 31.3041 42.5214 30.9285 43.1444 30.5886C43.7482 30.2581 44.3521 30.0801 44.7748 30.8239C45.1975 31.5677 44.7748 32.0508 44.1709 32.4132C43.1685 33.0171 42.1661 33.6338 41.1516 34.2504C40.925 34.4359 40.6413 34.5268 40.3549 34.5057C40.0685 34.4846 39.7996 34.3529 39.5997 34.136C38.392 32.8645 37.1843 31.5698 35.9766 30.2517C35.8003 30.1044 35.6755 29.8995 35.6219 29.6693C35.5683 29.4391 35.589 29.1967 35.6807 28.9802C35.7533 28.7908 35.8816 28.6306 36.0466 28.5232C36.2117 28.4157 36.4051 28.3665 36.5986 28.3827Z" fill="white"/>
<path d="M41.0375 25.7317C41.0375 26.3675 40.7477 26.9206 40.3974 26.8633C40.0472 26.8061 39.854 26.3103 39.86 25.6682C39.866 25.0261 40.0351 24.6447 40.4095 24.5938C40.7839 24.5429 41.0436 25.0388 41.0375 25.7317Z" fill="white"/>
<path d="M41.0375 41.218C41.0375 41.8537 40.7477 42.4068 40.3974 42.3495C40.0472 42.2923 39.854 41.7965 39.86 41.1544C39.866 40.5123 40.0351 40.1309 40.4095 40.08C40.7839 40.0291 41.0436 40.525 41.0375 41.218Z" fill="white"/>
<path d="M47.8004 34.0915C47.1966 34.0915 46.6712 33.7864 46.7256 33.4177C46.7799 33.0489 47.2509 32.8392 47.8608 32.8519C48.4707 32.8646 48.833 33.0362 48.8813 33.4304C48.9296 33.8245 48.4586 34.0979 47.8004 34.0915Z" fill="white"/>
<path d="M33.0907 34.0915C32.4868 34.0915 31.9614 33.7864 32.0218 33.4177C32.0822 33.0489 32.5411 32.8392 33.151 32.8519C33.7609 32.8646 34.1233 33.0362 34.1716 33.4304C34.2199 33.8245 33.7489 34.0979 33.0907 34.0915Z" fill="white"/>
</svg>
