<svg width="49" height="56" viewBox="0 0 49 56" fill="none" xmlns="http://www.w3.org/2000/svg">
<path d="M1.75292 23.6233L7.47518 21.5428L10.842 27.392L7.5883 27.1118L6.91627 31.735V37.6122L9.67759 41.9763L12.0863 45.7169L14.7079 48.4769L18.7001 50.9706L23.6173 51.4399H27.2902L36.1597 47.0478L37.7034 50.2561L34.4364 52.1474L27.2902 54.396L22.8721 54.9844L15.4265 52.7429L9.67759 48.9252L5.79177 42.7258L3.72909 38.0395V29.3464V26.033L0.967773 23.9736L1.75292 23.6233Z" fill="#ED1C24"/>
<path d="M10.8423 15.6587L12.346 18.7129L18.3611 14.657L23.6176 13.7744L29.2866 14.0756L35.5079 17.529L40.1456 22.4115L42.6075 30.5232V35.2866L41.1503 39.7417L39.447 39.1533L40.0258 43.6365L40.5847 44.337L47.7708 42.4106L44.6169 40.7434L45.0428 38.0395L45.8612 33.6964V29.0592L44.404 23.9736L42.8337 20.352L40.0258 16.5904L35.967 13.4592L30.0385 10.7342L25.4207 9.87964L19.8049 10.5521L14.7081 12.4925L10.8423 15.6587Z" fill="#ED1C24"/>
<path d="M24.9618 0.507001C26.4256 0.507001 27.8828 0.507001 29.34 0.507001C30.3048 0.507001 30.6042 0.836229 30.6175 1.83794C30.6175 3.01477 30.6175 4.19861 30.6175 5.38245C30.6175 6.12497 30.3847 6.65734 29.6128 6.78343C29.1803 6.83947 29.0539 7.11267 29.0606 7.48393C29.0606 7.98828 29.0606 8.49264 29.0606 8.98999C29.0606 9.48734 29.2735 9.81657 29.8124 9.94966C33.1363 10.7537 36.2297 12.382 38.835 14.699C43.1863 18.4958 45.9794 23.9128 46.6332 29.8227C47.0229 33.0861 46.73 36.3998 45.7749 39.5315C45.5553 40.232 45.6951 40.6173 46.3737 40.8625C46.9482 41.0935 47.5082 41.3626 48.0505 41.668C48.2247 41.7365 48.3725 41.8635 48.4711 42.0294C48.5698 42.1953 48.6137 42.3909 48.5961 42.5857C48.584 42.7827 48.5131 42.9706 48.3936 43.1228C48.2742 43.275 48.1122 43.3836 47.9307 43.4333C45.562 44.2459 43.1866 45.0584 40.8045 45.85C40.6903 45.8928 40.5687 45.9099 40.4478 45.9001C40.3269 45.8903 40.2093 45.8538 40.1026 45.793C39.9959 45.7323 39.9026 45.6485 39.8286 45.5473C39.7547 45.4461 39.7018 45.3297 39.6734 45.2055C38.835 42.8869 38.0166 40.5613 37.1982 38.2006C37.1071 38.0153 37.0754 37.8041 37.1077 37.5983C37.1401 37.3925 37.2348 37.2032 37.3778 37.0588C37.5366 36.9084 37.738 36.8174 37.9509 36.7996C38.1638 36.7819 38.3763 36.8385 38.5555 36.9607C39.0878 37.2269 39.6201 37.4861 40.1325 37.7873C40.6448 38.0885 40.9309 38.0114 41.084 37.36C42.4946 31.3497 41.5431 25.8229 37.7571 21.0315C36.1359 18.8762 34.0462 17.163 31.6641 16.0365C29.282 14.91 26.6774 14.4032 24.0702 14.5589C19.9848 14.6652 16.0831 16.3682 13.1247 19.3363C12.1666 20.275 11.6409 20.1489 11.1286 18.902C10.7959 18.1174 10.4632 17.3259 10.1172 16.5623C9.9532 16.2833 9.89897 15.9479 9.96606 15.6275C10.0332 15.307 10.2163 15.0267 10.4765 14.8461C13.1455 12.4208 16.3474 10.7354 19.7918 9.94266C20.6635 9.73952 21.1226 9.42429 20.9429 8.4436C20.913 8.15024 20.913 7.85434 20.9429 7.56098C20.9429 7.08465 20.8564 6.76941 20.3175 6.74139C19.5922 6.69236 19.3061 6.19502 19.3061 5.48051C19.3061 4.26866 19.3061 3.0568 19.3061 1.84495C19.3061 0.850246 19.6454 0.51401 20.5836 0.5C22.0807 0.507005 23.5046 0.507001 24.9618 0.507001ZM45.0496 42.4246C43.2864 41.3528 43.2664 41.3458 43.8852 39.4825C44.9436 36.3819 45.259 33.0543 44.8034 29.7947C43.7788 22.5305 40.219 16.9686 33.991 13.6833C26.5654 9.73951 19.3527 10.5171 12.5725 15.6167C12.0069 16.044 11.9071 16.4993 12.3462 17.0177C12.7854 17.536 13.0116 16.9616 13.2911 16.7655C16.9573 13.7375 21.5863 12.3035 26.2261 12.7586C33.7448 13.5432 39.0945 17.6621 42.0887 24.9402C43.9624 29.4666 44.096 34.5814 42.4613 39.2093C42.0022 40.6103 41.6628 40.7364 40.4186 40.134C40.2323 40.0499 40.0593 39.8257 39.7532 40.0359C40.1347 41.1146 40.5117 42.1934 40.8844 43.2722C40.9975 43.5944 41.1705 43.7625 41.5497 43.6364L45.0496 42.4246ZM25.0483 2.37732C24.0702 2.37732 23.0854 2.43336 22.114 2.37732C21.249 2.31427 21.1492 2.78361 21.1758 3.49811C21.2024 4.21262 21.076 4.85707 22.114 4.81504C23.844 4.74499 25.5806 4.81504 27.3106 4.81504C28.8011 4.81504 28.7944 4.81504 28.7678 3.24594C28.7678 2.58047 28.4883 2.37732 27.8961 2.39833C26.9446 2.38432 25.9932 2.36331 25.0483 2.36331V2.37732ZM24.9618 9.38226H25.5474C27.3106 9.38226 27.4437 9.23516 27.1975 7.37185C27.1376 6.96556 26.9646 6.79744 26.5987 6.79744H23.325C23.2559 6.78763 23.1856 6.79241 23.1183 6.81148C23.0509 6.83055 22.9879 6.86354 22.9327 6.90852C22.8776 6.95351 22.8316 7.00959 22.7972 7.0735C22.7629 7.13741 22.741 7.20787 22.7328 7.28078C22.4068 8.96196 22.7328 9.38226 24.2898 9.38226C24.516 9.33323 24.7422 9.34023 24.9618 9.34023V9.38226Z" fill="black"/>
<path d="M24.5025 55.727C19.2404 55.7149 14.1565 53.7185 10.1723 50.0998C6.18806 46.481 3.56712 41.4792 2.7845 36.0011C2.35685 32.9857 2.49247 29.9114 3.18373 26.9507C3.35007 26.2502 3.1438 25.977 2.56492 25.7878C1.98604 25.5987 1.50697 25.4026 0.974664 25.1994C0.751554 25.1527 0.54973 25.0287 0.401391 24.8471C0.253053 24.6656 0.16675 24.437 0.15625 24.1977C0.15625 23.6794 0.488937 23.4132 0.901472 23.238L7.55527 20.4361C7.68028 20.3652 7.81859 20.3243 7.96036 20.3162C8.10212 20.3081 8.24383 20.333 8.37539 20.3892C8.50694 20.4454 8.62509 20.5315 8.72141 20.6413C8.81773 20.7511 8.88985 20.882 8.93261 21.0245C9.89519 23.2567 10.8533 25.4913 11.807 27.7282C11.9157 27.914 11.962 28.1328 11.9384 28.3496C11.9148 28.5664 11.8227 28.7685 11.6769 28.9236C11.5311 29.0787 11.3401 29.1778 11.1344 29.2049C10.9288 29.232 10.7204 29.1856 10.5428 29.0732C9.98933 28.8727 9.44726 28.6388 8.9193 28.3727C8.3138 28.0364 8.08757 28.2115 7.96115 28.877C7.37475 31.7216 7.48234 34.6761 8.27388 37.4651C10.4696 44.8623 15.2604 49.2544 22.513 50.3752C24.6652 50.7108 26.8601 50.5762 28.9608 49.9796C31.0614 49.3831 33.0228 48.3374 34.7227 46.9077C36.5126 45.4647 36.6789 45.5068 37.4641 47.7483C38.5353 50.7815 38.8281 50.3892 35.9869 52.3296C32.5511 54.6066 28.5621 55.7867 24.5025 55.727ZM3.72934 24.0996C5.46598 25.1504 5.45267 25.1504 4.9869 27.1188C4.24612 30.1253 4.13754 33.2658 4.66875 36.321C5.19996 39.3763 6.35815 42.2726 8.06248 44.808C9.7668 47.3433 11.9762 49.4565 14.5364 51C17.0966 52.5435 19.946 53.4802 22.8856 53.7446C27.4293 54.2069 31.9811 52.953 35.7274 50.2071C35.8351 50.1541 35.9294 50.0751 36.0028 49.9767C36.0762 49.8783 36.1265 49.763 36.1498 49.6403C36.1732 49.5176 36.1687 49.3909 36.137 49.2703C36.1052 49.1497 36.047 49.0387 35.967 48.9462C35.5944 48.3017 35.3016 48.8691 35.0288 49.0583C27.8294 54.2489 17.6491 53.3873 11.4943 46.8587C6.37089 41.4299 4.71409 34.8662 6.3975 27.406C6.79008 25.6828 7.06288 25.5567 8.68641 26.1801C8.84663 26.2215 9.00876 26.2542 9.17215 26.2782C8.63984 25.0523 8.16741 23.9666 7.68834 22.8808C7.54861 22.5656 7.32238 22.5726 7.02296 22.6847L3.72934 24.0996Z" fill="black"/>
<path d="M28.1083 33.2131C28.1001 33.719 27.9946 34.2178 27.7983 34.6796C27.602 35.1414 27.319 35.5566 26.9661 35.9001C26.6133 36.2437 26.1981 36.5084 25.7455 36.6785C25.2929 36.8485 24.8123 36.9204 24.3326 36.8896C23.8529 36.8588 23.3841 36.7261 22.9544 36.4995C22.5248 36.2729 22.1432 35.957 21.8326 35.5709C21.522 35.1848 21.2889 34.7366 21.1473 34.2531C21.0057 33.7696 20.9585 33.261 21.0087 32.7578C21.6164 27.9897 22.2175 23.2241 22.8119 18.4607C22.9849 17.0947 23.7634 16.4082 24.8879 16.6324C25.2275 16.6729 25.5441 16.8335 25.7858 17.088C26.0275 17.3425 26.1801 17.6758 26.2186 18.0334C26.8618 23.0022 27.4895 27.9711 28.1016 32.9399C28.1109 33.0306 28.1131 33.122 28.1083 33.2131ZM24.6283 19.8547H24.4753C24.116 22.7127 23.7501 25.5707 23.3974 28.4287C23.2044 30.0048 22.9849 31.588 22.8718 33.1711C22.8552 33.4089 22.889 33.6475 22.9707 33.8699C23.0524 34.0923 23.18 34.2928 23.3442 34.457C23.5085 34.6211 23.7052 34.7449 23.9204 34.8193C24.1356 34.8937 24.3637 34.9169 24.5884 34.8873C24.821 34.8961 25.0526 34.8529 25.2681 34.7604C25.4836 34.6679 25.6779 34.5283 25.8383 34.3508C25.9987 34.1734 26.1215 33.9621 26.1985 33.7309C26.2756 33.4998 26.3051 33.254 26.2852 33.0099C25.7462 28.6178 25.1806 24.2328 24.6283 19.8547Z" fill="black"/>
<path d="M37.6103 33.15C37.3024 33.1352 36.9958 33.1001 36.6921 33.0449C36.58 33.0303 36.4719 32.9923 36.3741 32.933C36.2763 32.8737 36.1907 32.7943 36.1225 32.6997C36.0543 32.605 36.0048 32.4969 35.9769 32.3817C35.949 32.2666 35.9433 32.1467 35.9601 32.0292C35.9619 31.917 35.9846 31.8062 36.027 31.7032C36.0694 31.6002 36.1307 31.507 36.2073 31.4289C36.2839 31.3509 36.3744 31.2895 36.4736 31.2482C36.5727 31.207 36.6786 31.1867 36.7852 31.1886C37.3726 31.157 37.9611 31.157 38.5485 31.1886C38.6695 31.1834 38.7901 31.2051 38.9027 31.2521C39.0152 31.2992 39.1171 31.3706 39.2018 31.4617C39.2864 31.5528 39.352 31.6616 39.3942 31.7811C39.4364 31.9006 39.4543 32.028 39.4467 32.1553C39.4521 32.2744 39.4347 32.3935 39.3954 32.5054C39.3562 32.6173 39.296 32.7197 39.2184 32.8067C39.1408 32.8936 39.0474 32.9632 38.9438 33.0113C38.8401 33.0595 38.7283 33.0852 38.615 33.0869C38.3156 33.129 38.0029 33.122 37.6103 33.15Z" fill="black"/>
<path d="M16.2452 42.0814C16.2452 42.7188 14.6815 44.3229 14.076 44.337C13.9279 44.3479 13.7797 44.3171 13.6466 44.248C13.5134 44.1788 13.4001 44.0736 13.3182 43.9433C13.2364 43.8129 13.1888 43.6619 13.1805 43.5059C13.1722 43.3498 13.2034 43.1942 13.2709 43.055C13.698 42.2912 14.3054 41.6566 15.0342 41.2127C15.1682 41.1489 15.3156 41.1224 15.4622 41.1358C15.6088 41.1492 15.7496 41.2021 15.8712 41.2893C15.9928 41.3765 16.0911 41.4952 16.1565 41.6339C16.222 41.7726 16.2525 41.9267 16.2452 42.0814Z" fill="black"/>
<path d="M32.9062 22.6006C32.9305 22.436 32.9871 22.2786 33.0725 22.1383C33.5339 21.5907 34.0249 21.0714 34.543 20.5832C34.7109 20.4546 34.9169 20.3933 35.1239 20.4104C35.3309 20.4275 35.5253 20.5218 35.6722 20.6764C35.819 20.8309 35.9086 21.0356 35.9248 21.2535C35.941 21.4715 35.8828 21.6883 35.7607 21.8651C35.3241 22.4344 34.8336 22.9555 34.2968 23.4202C34.1626 23.5301 34.0005 23.5959 33.8309 23.6094C33.6613 23.6228 33.4917 23.5834 33.3433 23.4959C33.1949 23.4084 33.0743 23.2769 32.9966 23.1176C32.9188 22.9584 32.8874 22.7786 32.9062 22.6006Z" fill="black"/>
<path d="M11.315 33.15C11.0155 33.15 10.7028 33.15 10.4034 33.073C10.1921 33.0482 9.99825 32.9378 9.86289 32.7652C9.72752 32.5927 9.66125 32.3714 9.67812 32.1483C9.66713 32.0377 9.6773 31.9258 9.70802 31.8194C9.73873 31.7129 9.78938 31.614 9.85697 31.5285C9.92456 31.443 10.0077 31.3726 10.1016 31.3214C10.1954 31.2703 10.298 31.2394 10.4034 31.2307C11.0409 31.1712 11.6822 31.1712 12.3197 31.2307C12.5403 31.2508 12.7457 31.3574 12.8953 31.5292C13.045 31.701 13.128 31.9257 13.128 32.1588C13.128 32.3919 13.045 32.6166 12.8953 32.7884C12.7457 32.9603 12.5403 33.0668 12.3197 33.087C11.987 33.115 11.6543 33.122 11.315 33.15Z" fill="black"/>
<path d="M35.5074 42.5928C35.5154 42.7682 35.4761 42.9425 35.3942 43.0954C35.3122 43.2483 35.1909 43.3738 35.0441 43.4573C34.8974 43.5407 34.7312 43.5788 34.5647 43.5672C34.3983 43.5555 34.2384 43.4946 34.1034 43.3914C33.555 42.9764 33.0722 42.4728 32.6729 41.8994C32.5445 41.7374 32.4776 41.5312 32.4849 41.3204C32.4923 41.1096 32.5735 40.9091 32.7128 40.7575C32.811 40.5901 32.9658 40.4681 33.1461 40.4161C33.3264 40.3641 33.5187 40.386 33.6842 40.4774C34.401 40.9345 35.0052 41.5633 35.4475 42.3126C35.4816 42.402 35.5018 42.4967 35.5074 42.5928Z" fill="black"/>
<path d="M16.0321 23.9737C15.4133 23.9737 13.9495 22.4816 13.9229 21.8161C13.9086 21.6547 13.9387 21.4923 14.0094 21.3483C14.0802 21.2043 14.1887 21.0846 14.3221 21.0036C14.4617 20.9011 14.6277 20.8462 14.7979 20.8462C14.968 20.8462 15.1341 20.9011 15.2736 21.0036C15.8699 21.4374 16.3824 21.9865 16.784 22.6217C16.8711 22.7574 16.92 22.9163 16.925 23.08C16.93 23.2437 16.891 23.4056 16.8124 23.5469C16.7338 23.6883 16.6188 23.8033 16.4808 23.8788C16.3427 23.9543 16.1872 23.9872 16.0321 23.9737Z" fill="black"/>
<path d="M25.4074 47.0619C25.4074 47.4191 25.4074 47.7624 25.4074 48.1196C25.404 48.3303 25.323 48.5313 25.1815 48.6803C25.04 48.8293 24.849 48.9146 24.6489 48.9182C24.5445 48.9362 24.4377 48.9324 24.3347 48.9069C24.2317 48.8815 24.1344 48.8349 24.0485 48.7698C23.9626 48.7048 23.8898 48.6225 23.8341 48.5278C23.7784 48.433 23.741 48.3277 23.724 48.2177C23.6076 47.4614 23.6076 46.6904 23.724 45.9341C23.732 45.8217 23.7619 45.7122 23.8119 45.6125C23.8619 45.5128 23.9309 45.425 24.0146 45.3547C24.0983 45.2843 24.1949 45.2329 24.2983 45.2036C24.4017 45.1744 24.5097 45.1679 24.6156 45.1846C24.828 45.1883 25.0304 45.2802 25.1787 45.4402C25.327 45.6003 25.4092 45.8156 25.4074 46.0392C25.4407 46.3894 25.4074 46.7397 25.4074 47.0969V47.0619Z" fill="black"/>
<g style="mix-blend-mode:multiply" opacity="0.15">
<path d="M42.834 20.3521C42.834 20.3521 45.0697 29.0312 43.8387 32.1624C42.6078 35.2936 41.1772 39.7417 41.1772 39.7417H38.2495L40.8312 45.836L47.9574 43.4193L44.6305 40.7434L45.5155 35.6088L45.8748 31.1607V25.914L42.834 20.3521Z" fill="#010101"/>
</g>
<g style="mix-blend-mode:multiply" opacity="0.15">
<path d="M24.2896 10.0478L28.1088 10.377V6.75545L29.6259 5.15832L30.6173 1.82397L24.2896 10.0478Z" fill="#010101"/>
</g>
<g style="mix-blend-mode:multiply" opacity="0.15">
<path d="M24.5823 18.4607L24.2896 35.6158L27.2904 34.8803V31.1607L24.5823 18.4607Z" fill="#010101"/>
</g>
<g style="mix-blend-mode:multiply" opacity="0.15">
<path d="M36.1594 47.0477L28.5674 53.9966L34.436 52.1473L37.7031 50.256L36.1594 47.0477Z" fill="#010101"/>
</g>
</svg>
