<svg width="334" height="337" viewBox="0 0 334 337" fill="none" xmlns="http://www.w3.org/2000/svg">
<path d="M227.326 291.305C227.059 290.841 226.784 290.405 226.5 290C220.9 282 224.718 287.536 227.326 291.305Z" fill="white"/>
<path d="M284.743 147.783C230.794 83.0114 165.088 109.651 138.978 131.068C118.229 143.403 114.425 176.951 115.117 192.183C113.042 210.988 139.151 236.932 152.466 247.553C157.86 245.881 187.912 252.428 202.264 255.911H208.489L229.238 258L231.313 255.911C241.273 255.911 261.4 241.981 270.218 235.016C304.662 207.018 294.253 165.195 284.743 147.783Z" fill="white"/>
<path d="M190 78L115 91V94L122 128L132 125L195 103.5L190 78Z" fill="white"/>
<path d="M327.633 327.376H0V336.52H327.633V327.376Z" fill="#010101"/>
<path d="M232.939 261.997L244.34 249.501C244.34 249.501 263.832 239.632 271.201 231.051C278.571 222.47 290.693 194.876 290.693 194.876L300.74 207.828L308.531 215.283L313.735 225.018L311.93 228.96L310.396 233.599L301.582 243.119L267.712 267.414L261.365 273.448L253.785 273.823L244.129 280.206L232.939 261.997Z" fill="#ED1C24"/>
<path d="M142.157 123.035L140.111 124.51L134.576 129.873L116.318 134.271L99.0818 141.753L90.2382 144.971L84.2222 157.762L79.7102 177.312L73.1527 194.501L68.2195 180.074L64.9409 168.918L37.6582 177.875L43.1928 199.328L53.4503 227.833L60.8499 235.878L67.1969 242.287H73.5739L89.787 237.353L100.857 228.209L97.8486 242.1V254.167L101.729 257.626L109.52 264.572H144.382L149.105 243.923L133.704 231.507C133.704 231.507 99.0217 188.735 120.168 154.544C141.314 120.354 145.195 126.226 145.195 126.226L142.187 123.116L142.157 123.035Z" fill="#ED1C24"/>
<path d="M162.432 70.7434C162.432 72.3524 161.981 73.6664 161.319 73.6932C160.657 73.72 160.026 72.4328 159.966 70.8238C159.906 69.2148 160.417 67.874 161.078 67.8472C161.74 67.8204 162.372 69.1344 162.432 70.7434Z" fill="#010101"/>
<path d="M161.137 74.6049C159.634 74.6049 158.882 72.7277 158.792 70.8506C158.701 68.9734 159.333 66.9891 160.897 66.9354C161.288 66.9354 162.19 67.0963 162.791 68.3299C163.116 69.0928 163.289 69.9005 163.302 70.7165C163.302 72.6205 162.761 74.5781 161.198 74.6049H161.137ZM160.987 69.2416C160.706 70.2271 160.706 71.2596 160.987 72.245C161.113 71.7528 161.163 71.2477 161.137 70.7433C161.156 70.2481 161.105 69.7527 160.987 69.2684V69.2416Z" fill="#010101"/>
<path d="M135.601 70.9312C135.601 72.5402 135.18 73.8542 134.488 73.881C133.797 73.9078 133.225 72.6206 133.165 70.9849C133.105 69.3491 133.586 68.0619 134.278 68.0351C134.97 68.0083 135.541 69.2955 135.601 70.9312Z" fill="#010101"/>
<path d="M134.487 74.7928C134.006 74.7928 133.194 74.6051 132.653 73.3983C132.327 72.6448 132.154 71.8459 132.142 71.0385C132.142 69.1077 132.683 67.1769 134.247 67.1233C135.78 67.1233 136.532 69.0005 136.622 70.8776C136.622 72.8084 136.051 74.7391 134.517 74.7928H134.487ZM134.337 69.4295C134.246 69.9268 134.246 70.4339 134.337 70.9312C134.348 71.4387 134.429 71.943 134.577 72.433C134.668 71.9356 134.668 71.4286 134.577 70.9312C134.578 70.4318 134.497 69.9349 134.337 69.4563V69.4295Z" fill="#010101"/>
<path d="M149.979 86.297C148.84 86.3461 147.725 86.6016 146.701 87.0478C145.989 87.4005 145.217 87.6452 144.415 87.7719C143.603 88.1473 143.212 87.7718 143.212 87.0478C142.581 86.4847 142.581 85.9483 143.212 85.5729C144.227 83.1746 145.454 80.8521 146.881 78.6275C147.302 77.7157 145.257 77.1794 144.836 78.0912C143.814 80.1024 142.792 82.1136 141.829 83.9371C141.198 85.2243 139.784 86.8601 140.807 88.1473C143.062 90.8289 147.783 87.7719 150.43 87.7719C152.084 87.7719 151.452 86.297 150.039 86.297H149.979Z" fill="#010101"/>
<path d="M143.364 89.5685C142.783 89.6082 142.201 89.5129 141.673 89.292C141.146 89.0711 140.692 88.7321 140.356 88.3081C139.423 87.155 140.356 85.7606 140.897 84.6611C140.897 84.3661 141.228 84.098 141.348 83.8298C142.371 81.9795 143.424 79.9414 144.356 77.957C144.54 77.6729 144.839 77.4619 145.191 77.3672C145.543 77.2725 145.922 77.3012 146.252 77.4475C146.399 77.4838 146.536 77.5468 146.654 77.6324C146.773 77.7181 146.871 77.8246 146.941 77.9453C147.012 78.0661 147.054 78.1984 147.065 78.3342C147.075 78.47 147.054 78.6063 147.004 78.7347C146.673 79.3514 146.312 79.9414 145.951 80.5582C144.895 82.1768 144.019 83.8832 143.334 85.6533C143.251 85.6904 143.179 85.7433 143.121 85.8082C143.064 85.8731 143.024 85.9483 143.003 86.0287C143.007 86.1529 143.042 86.2748 143.104 86.3859C143.166 86.497 143.255 86.5947 143.364 86.6723V86.8064C143.35 86.9042 143.363 87.0034 143.399 87.0964C143.436 87.1894 143.496 87.2737 143.574 87.3427C143.574 87.3427 143.875 87.3427 144.146 87.3427C144.648 87.2976 145.131 87.1509 145.56 86.9137L146.282 86.6455C147.346 86.1923 148.502 85.9368 149.681 85.8946C150.082 85.856 150.485 85.9573 150.804 86.1772C151.124 86.3971 151.335 86.7186 151.395 87.0745C151.398 87.1991 151.363 87.3221 151.294 87.4305C151.225 87.539 151.125 87.6291 151.004 87.6913C150.734 87.8654 150.405 87.9506 150.072 87.9327C149.038 88.0241 148.024 88.25 147.064 88.6031C145.89 89.0838 144.643 89.409 143.364 89.5685ZM145.74 77.9034C145.618 77.8878 145.493 77.9081 145.384 77.9613C145.276 78.0145 145.189 78.0977 145.139 78.1983C144.116 80.1828 143.093 82.2208 142.131 84.0711L141.679 84.9292C141.048 86.0019 140.386 87.1014 141.078 87.9595C142.461 89.6489 144.898 88.8981 147.094 88.174C148.123 87.8021 149.207 87.5672 150.312 87.4768C150.498 87.5284 150.698 87.5284 150.884 87.4768C150.9 87.4524 150.908 87.4246 150.908 87.3964C150.908 87.3681 150.9 87.3404 150.884 87.3159C150.884 87.0746 150.463 86.6991 149.831 86.6991C148.734 86.7454 147.659 86.9918 146.673 87.4232C146.445 87.4873 146.224 87.568 146.011 87.6645C145.508 87.9403 144.943 88.1143 144.356 88.174C144.187 88.2738 143.99 88.3281 143.787 88.3302C143.584 88.3323 143.385 88.2822 143.214 88.1859C143.042 88.0896 142.906 87.9513 142.82 87.7874C142.735 87.6236 142.704 87.4412 142.732 87.2623C142.578 87.1325 142.457 86.9738 142.379 86.7977C142.301 86.6215 142.267 86.4322 142.281 86.2432C142.302 86.0967 142.359 85.9561 142.447 85.8311C142.536 85.706 142.653 85.5996 142.792 85.5192C143.484 83.7429 144.36 82.0282 145.409 80.3973L146.462 78.6006C146.462 78.3056 146.161 78.1447 146.041 78.0911L145.74 77.9034Z" fill="#010101"/>
<path d="M161.863 92.8936C158.864 95.7654 155.241 98.0645 151.215 99.6513C150.985 99.771 150.811 99.9602 150.724 100.185C150.637 100.409 150.643 100.654 150.742 100.874C150.84 101.095 151.024 101.277 151.259 101.387C151.495 101.497 151.768 101.528 152.027 101.475C156.504 99.8767 160.508 97.3808 163.728 94.1808C164.54 93.2422 162.675 91.9818 161.863 92.8936Z" fill="#010101"/>
<path d="M151.666 101.823C151.343 101.816 151.033 101.712 150.785 101.529C150.536 101.346 150.364 101.094 150.294 100.813C150.225 100.532 150.263 100.239 150.403 99.9799C150.542 99.7208 150.775 99.5107 151.064 99.3832C155.048 97.8089 158.639 95.5384 161.622 92.7059C161.742 92.5669 161.897 92.4554 162.075 92.3808C162.253 92.3061 162.448 92.2705 162.645 92.2768C163.007 92.3044 163.352 92.4256 163.638 92.6255C163.908 92.83 164.107 93.1001 164.209 93.4031C164.251 93.5656 164.252 93.7345 164.21 93.8971C164.168 94.0597 164.086 94.2118 163.968 94.3417C160.731 97.5987 156.682 100.134 152.147 101.743C151.993 101.796 151.83 101.823 151.666 101.823ZM162.585 92.8668C162.498 92.8657 162.413 92.882 162.335 92.9146C162.257 92.9471 162.188 92.9949 162.134 93.0545C159.097 95.9566 155.434 98.2823 151.365 99.8927C151.277 99.9274 151.199 99.9773 151.133 100.039C151.068 100.102 151.016 100.175 150.983 100.254C150.949 100.334 150.934 100.419 150.938 100.504C150.941 100.59 150.964 100.673 151.004 100.751C151.034 100.836 151.084 100.915 151.149 100.983C151.214 101.051 151.294 101.106 151.384 101.146C151.473 101.186 151.571 101.21 151.671 101.215C151.771 101.221 151.872 101.209 151.966 101.18C156.396 99.6007 160.351 97.1214 163.517 93.9394C163.818 93.6176 163.517 93.2154 163.246 93.0545C163.058 92.923 162.823 92.8563 162.585 92.8668Z" fill="#010101"/>
<path d="M140.111 63.637C135.832 63.1593 131.511 63.0426 127.207 63.2884C125.763 63.4761 125.763 65.2996 127.207 65.1119C131.509 64.7677 135.843 64.8938 140.111 65.4873C141.555 65.6482 141.555 63.8247 140.111 63.637Z" fill="#010101"/>
<path d="M140.322 65.7824H140.081C135.831 65.2054 131.518 65.0884 127.237 65.4338C127.022 65.467 126.8 65.4499 126.595 65.3841C126.389 65.3183 126.206 65.2061 126.064 65.0584C125.938 64.8821 125.871 64.6774 125.871 64.4684C125.871 64.2595 125.938 64.0548 126.064 63.8785C126.164 63.65 126.332 63.4497 126.549 63.2987C126.766 63.1478 127.024 63.0516 127.297 63.0203C131.642 62.7725 136.004 62.8983 140.322 63.3958C140.522 63.4121 140.715 63.4645 140.892 63.5499C141.068 63.6353 141.222 63.7519 141.346 63.8925C141.47 64.033 141.561 64.1947 141.612 64.3675C141.664 64.5403 141.675 64.7207 141.645 64.8975C141.627 65.0344 141.578 65.1666 141.501 65.2861C141.423 65.4056 141.32 65.5098 141.196 65.5926C141.072 65.6753 140.931 65.7348 140.781 65.7674C140.631 65.8001 140.474 65.8051 140.322 65.7824ZM131.779 64.6293C134.588 64.639 137.392 64.8272 140.171 65.1925C140.246 65.2082 140.324 65.2101 140.4 65.1981C140.476 65.1862 140.549 65.1607 140.614 65.1231C140.678 65.0855 140.734 65.0366 140.777 64.9794C140.819 64.9222 140.849 64.8579 140.863 64.7902C140.876 64.688 140.865 64.5846 140.833 64.486C140.8 64.3873 140.746 64.2955 140.673 64.2157C140.6 64.1359 140.51 64.0697 140.409 64.021C140.307 63.9724 140.196 63.9422 140.081 63.9321C135.814 63.434 131.502 63.3083 127.207 63.5567C127.052 63.5804 126.906 63.6399 126.785 63.7293C126.663 63.8187 126.57 63.9348 126.515 64.0662C126.454 64.1599 126.422 64.2663 126.422 64.3746C126.422 64.4828 126.454 64.5892 126.515 64.683C126.594 64.7496 126.691 64.7969 126.796 64.8203C126.901 64.8438 127.012 64.8427 127.117 64.817C128.681 64.7098 130.215 64.6293 131.779 64.6293Z" fill="#010101"/>
<path d="M166.795 62.3231C162.485 62.679 158.224 63.4064 154.071 64.4952C152.838 64.8707 153.259 66.6942 154.492 66.3456C158.64 65.2327 162.903 64.4959 167.216 64.1466C168.63 64.1466 168.239 62.3231 166.795 62.3231Z" fill="#010101"/>
<path d="M154.16 66.721C153.904 66.7234 153.656 66.6369 153.469 66.4797C153.283 66.3252 153.146 66.1299 153.072 65.9133C152.998 65.6967 152.99 65.4666 153.048 65.2461C153.093 65.0259 153.203 64.8203 153.367 64.6507C153.531 64.481 153.742 64.3533 153.98 64.2807C158.152 63.1833 162.433 62.447 166.764 62.0818C166.973 62.0782 167.182 62.1115 167.377 62.1796C167.571 62.2478 167.749 62.3495 167.9 62.479C168.051 62.6085 168.172 62.7632 168.256 62.9343C168.339 63.1054 168.384 63.2896 168.388 63.4762C168.391 63.7342 168.283 63.9834 168.088 64.1735C167.968 64.2776 167.827 64.3596 167.672 64.4148C167.518 64.47 167.352 64.4974 167.185 64.4953C162.903 64.841 158.671 65.5687 154.552 66.6674L154.16 66.721ZM166.794 62.6449C162.513 63.0127 158.282 63.7491 154.16 64.8439C154.034 64.8788 153.921 64.9454 153.836 65.0357C153.751 65.1261 153.696 65.2363 153.679 65.3534C153.646 65.476 153.647 65.6042 153.684 65.726C153.721 65.8479 153.792 65.9595 153.89 66.0506C153.958 66.0984 154.043 66.1244 154.13 66.1244C154.218 66.1244 154.302 66.0984 154.371 66.0506C158.554 64.9557 162.845 64.2194 167.185 63.8517C167.667 63.8517 167.787 63.6103 167.787 63.4226C167.751 63.2093 167.632 63.014 167.45 62.8717C167.269 62.7293 167.036 62.6489 166.794 62.6449Z" fill="#010101"/>
<path d="M98.6927 333.168C102.994 310.696 107.296 288.197 111.597 265.913C111.597 265.725 111.808 265.725 111.808 265.537V265.189C122.697 265.001 133.556 265.001 144.625 264.813V265.189C145.046 265.189 145.467 265.001 145.858 265.001H147.092C147.128 263.831 147.268 262.665 147.513 261.515C147.904 257.492 148.325 253.47 148.746 249.474H149.348C158.582 247.999 168.027 250.547 177.262 252.156C178.064 252.365 178.893 252.482 179.729 252.504C179.729 252.88 182.165 253.255 182.376 253.068L200.424 256.339C200.243 256.339 200.243 256.527 200.033 256.527C192.031 261.461 205.778 264.759 212.757 266.208C206.74 267.87 200.724 269.506 194.889 271.329C191.591 272.2 188.428 273.434 185.474 275.003C177.051 278.087 184.03 283.585 185.053 283.585C182.376 285.408 180.751 288.143 185.263 289.806C185.781 289.998 186.329 290.115 186.888 290.155C186.275 290.686 185.91 291.405 185.865 292.166C185.789 292.635 185.82 293.114 185.955 293.572C186.091 294.031 186.328 294.461 186.654 294.836C186.979 295.211 187.386 295.524 187.85 295.756C188.314 295.989 188.826 296.136 189.354 296.188C192.844 296.751 196.934 294.365 200.033 293.265C205.944 290.928 211.637 288.175 217.058 285.033C217.282 284.903 217.441 284.702 217.506 284.472C217.57 284.241 217.533 283.997 217.403 283.789C217.273 283.581 217.06 283.425 216.806 283.353C216.552 283.28 216.277 283.296 216.035 283.397C212.147 285.653 208.131 287.73 204.003 289.618C202.06 290.524 200.05 291.313 197.987 291.978C196.363 292.541 194.709 293.265 193.084 293.828C190.618 294.901 187.068 294.901 188.963 291.147C195.678 288.483 202.19 285.428 208.455 282.002C208.679 281.873 208.839 281.672 208.903 281.441C208.967 281.21 208.93 280.967 208.8 280.759C208.671 280.551 208.457 280.395 208.203 280.322C207.949 280.249 207.674 280.265 207.432 280.367C204.128 282.195 200.703 283.842 197.175 285.301C195.218 286.135 193.21 286.869 191.159 287.5C188.903 288.599 183.368 287.687 186.256 284.577C187.068 284.014 196.303 281.278 198.559 280.554C199.792 280.179 199.16 278.355 197.927 278.731C195.811 279.523 193.615 280.134 191.37 280.554C188.692 281.091 185.354 282.378 184.18 279.991C183.007 277.605 185.835 276.72 188.301 275.62C190.068 274.79 191.922 274.117 193.836 273.609C201.838 270.927 209.839 269.05 217.9 266.663C219.134 266.288 216.878 265.028 216.667 265.028L205.387 262.346C203.733 261.997 202.108 261.81 201.266 260.335C201.104 260.044 201.038 259.719 201.075 259.396C201.113 259.073 201.252 258.766 201.476 258.511C202.439 257.89 203.572 257.51 204.755 257.412C206.62 257.37 208.484 257.496 210.32 257.787C217.435 258.328 224.481 259.431 231.376 261.086C233.544 267.417 236.575 273.487 240.4 279.16C236.099 281.546 231.587 283.745 227.285 285.944C227.074 285.932 226.864 285.976 226.681 286.072C226.499 286.168 226.353 286.31 226.262 286.481C225.631 286.856 225.029 287.017 224.398 287.392C221.72 288.68 219.073 289.94 216.396 291.039C215.163 291.603 202.86 297.636 202.86 293.721C202.816 293.483 202.679 293.266 202.472 293.109C202.266 292.953 202.003 292.867 201.732 292.867C201.461 292.867 201.199 292.953 200.992 293.109C200.786 293.266 200.648 293.483 200.604 293.721C200.394 299.084 213.328 294.445 213.328 294.445C217.84 292.434 222.352 290.423 226.654 288.224C229.964 295.153 232.572 302.333 234.444 309.677C235.287 313.512 236.099 317.346 236.52 321.181C236.7 322.817 236.911 324.64 236.911 326.303C236.686 328.376 236.757 330.467 237.122 332.524C236.911 332.149 234.444 332.685 234.444 332.873C210.862 332.873 121.824 333.061 98.2414 333.061C97.9701 333.061 97.71 333.157 97.5182 333.328C97.3264 333.499 97.2188 333.731 97.2188 333.972C97.2188 334.214 97.3264 334.446 97.5182 334.617C97.71 334.788 97.9701 334.884 98.2414 334.884C122.306 335.26 239.167 334.884 239.378 334.884C239.588 334.884 239.167 330.325 239.167 328.126C239.009 323.536 238.527 318.959 237.723 314.423C236.082 305.163 233.046 296.143 228.699 287.607C233.031 285.408 237.543 283.209 241.844 281.037C242.235 281.386 242.446 281.949 242.867 282.297C242.952 282.417 243.066 282.519 243.201 282.595C243.335 282.671 243.486 282.72 243.644 282.738C243.802 282.756 243.963 282.742 244.114 282.699C244.266 282.655 244.405 282.582 244.521 282.485C246.993 280.489 249.661 278.694 252.492 277.122C255.5 275.647 258.87 275.111 262.148 273.823C266.378 271.924 270.253 269.455 273.639 266.503C283.644 259.27 293.232 251.591 302.365 243.494C308.712 237.648 315.48 231.239 313.014 222.658C311.19 217.959 308.485 213.57 305.012 209.679C301.132 204.557 297.011 199.435 292.98 194.313C292.168 193.401 290.303 194.313 291.115 195.225C294.424 199.623 297.913 203.833 301.192 208.204C304.889 212.275 307.926 216.788 310.216 221.612C314.518 232.768 301.794 241.349 293.582 248.294C285.37 255.24 276.978 261.434 268.345 267.843C264.043 271.142 259.531 272.241 254.418 274.252C250.547 275.857 246.952 277.942 243.739 280.447C243.529 280.259 243.529 280.098 243.318 279.911C243.397 279.755 243.432 279.584 243.419 279.413C243.407 279.242 243.347 279.077 243.246 278.931C243.145 278.785 243.006 278.664 242.84 278.578C242.674 278.491 242.487 278.443 242.295 278.436C239.222 274.086 236.747 269.422 234.926 264.545C234.392 263.581 234.244 262.484 234.505 261.434C234.772 261.191 234.923 260.864 234.926 260.523C235.527 259.798 236.55 259.074 237.573 257.975C239.435 256.356 241.09 254.557 242.506 252.612C243.318 251.512 241.483 250.6 240.671 251.673C238.485 254.718 235.704 257.389 232.459 259.557C226.485 258.052 220.376 257.011 214.2 256.446C210.688 255.816 207.102 255.564 203.522 255.696C203.522 255.535 203.131 255.159 202.92 255.159L183.428 251.673C183.669 251.022 183.87 250.359 184.03 249.689C185.263 245.827 186.497 242.18 187.73 238.345C189.595 232.312 191.009 226.278 192.452 220.244C195.981 221.468 199.736 222.086 203.522 222.068C201.266 232.312 199.22 242.743 196.964 252.96C196.754 254.06 198.799 254.623 199.01 253.523C201.266 243.092 203.311 232.499 205.597 222.068C212.565 221.581 219.243 219.371 224.879 215.686C234.505 209.276 242.716 198.684 243.95 188.092C244.972 179.135 237.934 168.543 226.112 169.454C211.072 170.715 210.29 190.451 208.245 199.784L203.732 220.432C199.93 220.42 196.168 219.736 192.663 218.421L193.265 215.31C195.942 201.419 198.198 186.429 194.919 172.565C192.874 163.769 183.849 157.762 174.194 163.769C163.936 170.178 165.591 184.981 168.178 194.313C169.496 199.709 172.153 204.774 175.952 209.135C179.752 213.497 184.598 217.046 190.136 219.52C189.114 223.918 188.091 228.289 186.858 232.687L184.391 241.456C184.18 242.368 182.556 248.401 181.744 251.512L173.743 250.037C165.531 248.589 157.319 246.739 148.716 248.026C148.505 248.026 148.295 248.214 148.084 248.402C147.921 248.356 147.748 248.345 147.579 248.369C147.41 248.392 147.249 248.451 147.109 248.539C146.97 248.627 146.855 248.743 146.773 248.877C146.692 249.012 146.647 249.161 146.64 249.313C146.249 253.684 145.016 258.619 144.806 263.392C133.526 263.553 122.245 263.553 110.965 263.74C110.77 263.734 110.577 263.777 110.409 263.865C110.241 263.954 110.104 264.083 110.015 264.238C109.927 264.393 109.89 264.567 109.909 264.741C109.928 264.914 110.002 265.079 110.123 265.215V265.403C98.6325 259.718 99.0536 248.214 101.52 238.345C103.566 230.113 106.453 222.068 104.528 213.487C102.483 204.342 97.3691 196.297 97.7602 186.804C98.3919 176.561 103.505 166.88 108.649 157.762C109.251 156.663 107.416 155.751 106.784 156.824C102.062 165.619 97.1586 174.737 95.9253 184.445C94.6921 193.374 98.392 200.695 101.039 208.74V209.276C101.933 213.621 101.654 218.092 100.226 222.321C98.7985 226.551 96.2621 230.416 92.827 233.599C85.0362 240.893 69.8759 245.827 61.4534 236.522C54.6854 229.201 52.0083 218.233 48.9402 209.464C45.5045 199.438 42.6926 189.25 40.5176 178.947L66.176 170.929C68.2215 178.974 70.8987 186.831 73.7563 194.688C73.5758 195.037 74.9896 197.236 75.8318 195.225C79.1257 188.29 81.7324 181.112 83.6225 173.772C85.2468 167.202 85.8785 160.364 88.1345 154.035C91.1425 145.266 98.3918 141.967 108.017 139.044C116.861 136.497 125.885 134.11 134.909 132.099C135.12 132.823 136.744 133.011 136.955 132.099C137.519 129.396 138.867 126.872 140.865 124.778C140.957 124.894 141.078 124.989 141.22 125.054C141.361 125.12 141.518 125.154 141.677 125.154C143.298 125.134 144.882 125.586 146.189 126.441C147.212 127.165 148.445 125.529 147.212 124.778C145.968 123.931 144.472 123.427 142.911 123.33C142.802 122.341 142.59 121.362 142.279 120.407C141.888 119.12 141.677 118.021 141.256 116.76C155.424 119.442 172.449 107.964 178.194 96.4602C178.796 95.3607 176.961 94.449 176.33 95.5484C171.216 105.792 159.515 115.473 145.979 115.473C131.209 115.473 125.885 101.582 123.81 91.3383C121.392 79.2541 121.956 66.8453 125.464 54.9753C125.675 54.0636 126.096 53.3395 126.276 52.4278C129.223 46.8429 132.517 41.4087 136.142 36.1503C136.534 43.4711 147.814 56.7988 151.183 56.0748C151.343 56.0273 151.491 55.9485 151.613 55.844C151.736 55.7396 151.83 55.6121 151.891 55.471C151.951 55.3298 151.976 55.1784 151.963 55.0277C151.949 54.8771 151.899 54.7309 151.814 54.5999C148.114 48.593 144.625 41.9962 145.798 35.2385C149.05 42.6618 153.621 49.5703 159.334 55.6994C159.505 55.847 159.724 55.9419 159.96 55.9703C160.196 55.9987 160.436 55.959 160.644 55.857C160.853 55.755 161.019 55.5962 161.119 55.4037C161.219 55.2113 161.247 54.9954 161.199 54.7876C160.568 52.4278 160.146 50.0411 159.755 47.6545C161.328 50.2434 163.359 52.5888 165.771 54.5999C170.885 58.9978 180.33 60.6336 182.797 66.6672C188.121 80.7458 184.03 99.0346 175.006 111.263C174.164 112.362 176.029 113.274 176.841 112.175C185.565 99.7696 188.853 84.9326 186.075 70.502C185.688 67.4646 184.57 64.5375 182.797 61.9208C180.721 59.5341 177.442 59.2391 174.795 57.8983C170.792 56.035 167.289 53.4211 164.527 50.2363C161.765 47.0516 159.808 43.3714 158.793 39.4487C158.582 38.5369 156.537 38.7246 156.747 39.6364C157.138 43.4711 157.77 47.3059 158.582 51.1406C153.637 45.1956 149.76 38.6002 147.092 31.5915C147.036 31.3873 146.904 31.2058 146.719 31.076C146.534 30.9462 146.305 30.8757 146.069 30.8757C145.833 30.8757 145.604 30.9462 145.419 31.076C145.233 31.2058 145.102 31.3873 145.046 31.5915C141.767 39.4487 145.437 45.2946 149.769 52.4278C146.761 52.9641 139.692 40.8968 139.09 38.1615C138.669 36.5257 139.09 33.415 136.413 33.415C133.736 33.415 129.856 41.0845 128.833 43.0957C126.849 46.3978 125.13 49.821 123.689 53.3395C122.877 56.2625 122.065 59.1855 121.433 62.2962C120.418 68.0958 120.015 73.9674 120.23 79.8341C120.621 89.5148 122.276 100.67 128.833 108.903C131.423 112.36 135.251 114.931 139.692 116.197C139.576 116.289 139.482 116.4 139.415 116.524C139.348 116.648 139.309 116.783 139.301 116.921V118.637C139.301 118.986 139.511 119.361 139.903 119.361C140.294 119.361 140.113 119.898 140.113 120.273C140.447 120.973 140.66 121.715 140.745 122.472C140.745 122.497 140.739 122.521 140.729 122.544C140.718 122.567 140.703 122.587 140.683 122.605C140.663 122.622 140.64 122.636 140.615 122.645C140.589 122.655 140.562 122.66 140.534 122.66C140.183 122.632 139.83 122.687 139.511 122.821C137.488 124.808 136.006 127.185 135.18 129.766C129.164 131.053 122.877 132.448 116.921 134.164C112.432 118.289 110.978 101.852 112.62 85.546C114.274 69.2953 118.365 51.9183 126.998 37.2766C135.18 23.198 152.205 17.1643 169.862 21.1868C186.466 25.0215 198.378 37.2766 205.357 50.2557C214.592 67.7935 216.035 89.7293 218.893 108.554C219.104 109.654 221.149 109.842 221.149 108.554C217.66 86.0823 215.404 54.9217 198.168 35.8017C198.799 36.1771 200.033 35.9894 199.822 35.0776C199.652 33.0598 199.784 31.0308 200.213 29.0439C201.72 28.617 203.119 27.934 204.334 27.0327C211.493 21.6694 210.079 12.6055 204.124 7.13499C198.168 1.66446 188.542 -1.66077 180.541 1.63764C178.963 2.26968 177.569 3.21691 176.467 4.40602C175.365 5.59512 174.585 6.99423 174.186 8.49517C173.788 9.9961 173.782 11.5586 174.169 13.0619C174.557 14.5651 175.327 15.9688 176.42 17.1643L172.93 18.6392C172.781 18.6995 172.651 18.7928 172.553 18.9103C172.456 19.0279 172.393 19.1658 172.372 19.3109C172.351 19.456 172.372 19.6035 172.433 19.7394C172.494 19.8753 172.592 19.995 172.72 20.0873C159.394 16.4403 143.181 18.0761 132.924 26.8718C126.577 32.2351 123.088 39.8241 120.02 47.145C116.314 56.0784 113.633 65.3236 112.018 74.739C108.599 94.7621 109.621 115.189 115.026 134.861C111.326 135.961 107.657 136.872 103.957 138.16C96.9781 140.359 91.2328 143.523 87.954 149.315C84.4647 155.697 84.0437 162.723 82.4194 169.776C80.547 177.298 78.0741 184.692 75.0196 191.9C72.0116 184.203 70.9287 178.491 68.2516 170.446C67.4394 168.248 65.6045 168.998 65.6045 168.998C64.3712 169.347 63.3486 169.722 62.1153 170.098C60.9326 167.848 59.9275 165.527 59.1073 163.152C58.8267 162.868 58.6222 162.531 58.5097 162.166C58.3971 161.801 58.3794 161.417 58.4577 161.045C58.536 160.673 58.7082 160.322 58.9615 160.018C59.2148 159.714 59.5423 159.465 59.9193 159.291C63.2078 156.493 66.2923 153.51 69.1539 150.361C70.3103 148.201 70.6684 145.769 70.1767 143.416C69.7857 141.404 69.3645 136.095 66.7175 135.558C64.0704 135.022 62.8071 137.006 62.8071 138.83C62.8662 139.82 62.6164 140.805 62.0854 141.676C61.5544 142.547 60.763 143.27 59.7991 143.764C59.408 143.952 58.7762 144.14 58.3852 144.327C57.7535 143.416 53.2416 135.371 57.543 135.719C58.5959 135.907 58.5959 136.819 60.0096 136.631C60.5981 136.457 61.1394 136.176 61.5988 135.805C62.0583 135.434 62.4258 134.982 62.6778 134.477C62.9298 133.972 63.0607 133.426 63.0623 132.873C63.0638 132.321 62.936 131.774 62.6868 131.268C61.9252 129.973 60.7131 128.933 59.2325 128.305C57.7518 127.676 56.0824 127.493 54.4748 127.782C51.2436 129.352 48.8185 131.975 47.7068 135.103C45.8719 129.739 44.4282 124.376 42.1721 119.2C40.9389 116.519 40.3373 110.619 36.1561 112.818C35.7738 113.03 35.4593 113.327 35.2433 113.679C35.0272 114.032 34.9168 114.428 34.9227 114.829C35.5544 117.189 40.4875 130.705 38.8331 134.191C36.7838 131.309 34.9355 128.318 33.2985 125.234C32.2757 123.223 31.8545 119.871 30.0196 118.101C28.5758 116.841 26.3198 116.465 25.297 118.289C24.2743 120.112 25.5076 121.936 25.8987 123.223C27.132 126.521 28.3654 129.632 29.5987 132.716C30.0198 134.003 32.0652 136.577 29.1775 136.926C26.9215 137.114 24.0638 133.467 23.4321 131.992C22.8004 130.517 23.6427 128.157 21.8078 127.058C19.9729 125.958 17.8974 127.245 17.0852 129.069C15.6414 132.716 18.1079 136.738 20.9956 139.5C23.2516 141.673 26.1093 143.335 28.5759 145.346C31.4376 147.782 33.6124 150.787 34.9227 154.115C37.9307 161.061 43.1347 175.568 43.1347 175.568C41.6909 175.944 40.277 176.48 38.8331 176.856C38.5704 176.919 38.3427 177.065 38.1931 177.268C38.0434 177.47 37.9823 177.715 38.0211 177.955C41.0452 192.038 45.2275 205.904 50.5343 219.44C53.5423 227.485 57.0919 238.989 67.7704 242.1C78.4488 245.21 89.3076 239.418 95.6545 232.768C99.1249 229.055 101.585 224.677 102.844 219.976C101.821 236.066 89.0971 256.339 108.86 266.208C109.07 266.395 101.069 310.803 96.8277 333.114C96.7954 333.371 96.8704 333.628 97.0383 333.838C96.9638 333.984 96.9334 334.144 96.9502 334.303C96.9669 334.462 97.0302 334.614 97.1338 334.745C97.2373 334.875 97.3775 334.979 97.5402 335.046C97.703 335.112 97.8825 335.14 98.0609 335.126M212.365 186.536C213.039 182.429 214.712 178.502 217.269 175.032C222.202 169.186 231.015 169.535 236.58 174.657C245.785 183.238 239.017 196.78 232.249 204.825C225.481 212.87 216.246 218.877 204.966 219.628C207.432 208.66 209.899 197.692 212.365 186.536ZM175.638 205.549C169.517 196.633 166.982 186.127 168.449 175.756C169.291 169.91 172.75 163.876 180.15 162.777C188.362 161.49 191.43 168.14 192.663 173.745C195.13 187.153 193.265 201.151 190.618 214.318L189.986 217C184.121 214.397 179.161 210.42 175.638 205.495V205.549ZM180.12 3.32708C182.672 2.42769 185.422 2.05926 188.158 2.24978C190.895 2.4403 193.547 3.18478 195.912 4.42656C198.385 5.49174 200.567 7.02485 202.308 8.91908C204.048 10.8133 205.304 13.0231 205.988 15.3944C206.566 17.6864 206.192 20.0873 204.936 22.1522C204.184 23.4703 203.164 24.6524 201.928 25.6383C201.165 26.2518 200.34 26.7995 199.461 27.274C199.363 27.166 199.24 27.0786 199.099 27.0183C198.959 26.9581 198.805 26.9263 198.649 26.9255C198.485 26.598 198.198 26.3323 197.837 26.1746C192.026 20.6617 184.526 16.7919 176.269 15.0458C175.607 14.0692 175.177 12.9819 175.005 11.8511C174.833 10.7202 174.923 9.56996 175.27 8.47147C175.617 7.37299 176.213 6.34966 177.021 5.46478C177.829 4.57991 178.833 3.85232 179.969 3.32708H180.12ZM37.9608 157.226C36.6687 153.176 34.6361 149.343 31.9448 145.883C28.275 141.86 22.3193 139.5 19.6421 134.727C19.221 134.191 17.5966 129.364 18.6193 129.069C19.6421 128.774 20.2737 130.705 20.6648 131.456C21.4769 132.904 21.4769 134.137 22.9208 135.478C23.7821 136.396 24.8462 137.146 26.0468 137.681C27.2475 138.216 28.5589 138.525 29.8994 138.589C33.3887 138.213 32.3659 135.666 31.7342 133.467C30.7115 130.785 29.6888 128.103 28.7262 125.422C28.2354 124.411 27.8234 123.372 27.493 122.311C26.8914 120.3 26.4703 119.63 27.9142 119.764L29.5384 122.123C30.5912 123.786 31.1929 125.958 32.2156 127.782C33.7174 130.567 35.436 133.255 37.3592 135.827C37.5147 136.02 37.7381 136.162 37.9941 136.23C38.25 136.298 38.5241 136.288 38.7731 136.202C41.2396 135.29 41.2396 133.091 40.8486 130.839C39.8349 125.732 38.5298 120.675 36.9382 115.687C40.217 113.864 40.2168 118.369 42.0517 125.556C42.8939 129.015 44.5184 132.501 45.5411 135.773C45.9622 136.872 49.0303 136.336 49.2409 135.612C49.8111 133.779 50.9472 132.125 52.5197 130.839C53.9636 129.578 56.8513 128.667 58.5357 130.115C62.8372 132.126 61.0023 134.137 59.9795 134.137C58.9568 134.137 57.513 132.85 55.8586 133.413C50.7449 134.861 54.8359 142.531 56.4903 145.105C56.0401 145.289 55.6241 145.533 55.2569 145.829C52.1389 147.757 49.6733 150.409 48.1279 153.499C47.4963 154.571 49.3612 155.51 49.9628 154.41C51.1226 152.014 52.8821 149.886 55.1066 148.189C57.614 146.827 60.2161 145.609 62.8972 144.542C65.7548 142.879 63.7095 140.332 63.92 139.956C66.5972 136.122 67.6198 142.879 67.6198 143.067C69.2442 152.935 61.0624 153.311 56.3398 159.344C53.8732 162.455 57.7536 167.55 58.9868 170.849L44.2176 175.247V174.952C42.3827 168.73 40.1267 163.072 37.8707 157.226H37.9608Z" fill="#010101"/>
<path d="M98.2704 335.85C97.978 335.863 97.6863 335.815 97.4194 335.707C97.1525 335.6 96.9182 335.437 96.7362 335.233C96.5993 335.059 96.5024 334.863 96.4508 334.656C96.3991 334.449 96.3939 334.235 96.4355 334.026C96.3016 333.756 96.2398 333.463 96.255 333.168C100.346 312.09 107.716 271.142 108.287 266.663C93.5779 259.074 96.7362 245.908 99.7443 233.143C100.286 230.891 100.827 228.611 101.278 226.359C99.9481 228.823 98.2921 231.137 96.3454 233.25C89.6375 240.196 78.2971 245.827 67.6187 242.797C56.9402 239.767 53.6616 229.764 50.6235 221.666L49.9016 219.708C44.5989 206.142 40.4066 192.25 37.3581 178.143C37.281 177.74 37.3735 177.325 37.6177 176.979C37.8618 176.632 38.2406 176.379 38.6816 176.266C39.4336 176.078 40.1255 175.837 40.8475 175.622L42.2611 175.166C41.2083 172.27 36.967 160.498 34.3199 154.491C33.0682 151.277 31.0106 148.361 28.3039 145.963C27.3414 145.185 26.2585 144.435 25.2959 143.711C23.6513 142.62 22.1119 141.409 20.6937 140.09C16.8435 136.417 15.3395 132.287 16.633 128.988C16.8716 128.335 17.263 127.734 17.7816 127.226C18.3001 126.717 18.9339 126.312 19.641 126.039C20.1612 125.92 20.7055 125.915 21.2287 126.022C21.752 126.129 22.239 126.346 22.649 126.655C23.2795 127.136 23.7702 127.746 24.0792 128.432C24.3883 129.119 24.5064 129.861 24.4236 130.597C24.4364 131.056 24.4867 131.513 24.574 131.965C25.2057 133.44 28.0333 136.524 29.5072 136.39C29.7178 136.39 30.1389 136.39 30.2592 136.068C30.3795 135.746 30.0186 134.727 29.6877 134.084L29.2364 133.065C28.0031 129.954 26.8 126.843 25.5667 123.572C25.5667 123.303 25.3863 123.062 25.266 122.767C24.8415 122.049 24.5998 121.256 24.5582 120.445C24.5166 119.633 24.6761 118.824 25.0253 118.074C25.2304 117.665 25.5471 117.309 25.9464 117.037C26.3457 116.765 26.815 116.587 27.3114 116.519C27.984 116.457 28.6635 116.536 29.2955 116.75C29.9275 116.965 30.4944 117.308 30.951 117.752C32.1751 119.229 33.0362 120.92 33.4778 122.713C33.7233 123.516 34.0246 124.304 34.3802 125.073C35.7095 127.581 37.1855 130.024 38.802 132.394C38.2169 127.322 37.0475 122.316 35.3126 117.457C34.9517 116.385 34.681 115.553 34.5606 115.098C34.5322 114.567 34.6621 114.04 34.9368 113.569C35.2116 113.097 35.6215 112.7 36.1249 112.416C36.5877 112.127 37.1205 111.94 37.6799 111.87C38.2393 111.8 38.8094 111.85 39.3435 112.014C41.2686 112.684 42.0507 115.098 42.7425 117.216C42.9531 117.913 43.1937 118.584 43.4343 119.147C44.9383 122.579 46.1115 126.226 47.2244 129.873L48.3976 133.44C49.63 130.827 51.8856 128.701 54.7445 127.46C56.5082 127.141 58.3403 127.339 59.967 128.025C61.5937 128.712 62.9274 129.849 63.7685 131.268C64.1108 131.928 64.2881 132.646 64.2881 133.373C64.2881 134.1 64.1108 134.818 63.7685 135.478C63.4846 136.025 63.0673 136.509 62.5469 136.894C62.0265 137.279 61.4161 137.556 60.7605 137.704C60.3637 137.776 59.953 137.76 59.5648 137.657C59.1765 137.554 58.8228 137.368 58.5346 137.114C58.3769 136.966 58.1805 136.855 57.9631 136.792C57.3615 136.792 57.2713 136.953 57.2412 137.033C56.4591 138.133 58.2338 142.048 59.2866 143.845C59.5174 143.777 59.7392 143.687 59.9483 143.576C60.77 143.135 61.4348 142.496 61.8659 141.732C62.2971 140.968 62.477 140.11 62.3848 139.259C62.3645 138.587 62.5103 137.919 62.8118 137.303C63.1133 136.686 63.5631 136.137 64.1295 135.692C64.5648 135.428 65.0626 135.257 65.5843 135.192C66.1059 135.127 66.6374 135.169 67.1375 135.317C69.8748 135.88 70.5366 139.93 70.9577 142.638C70.9577 143.04 70.9576 143.416 71.1681 143.711C71.6654 146.212 71.2764 148.79 70.0552 151.085C68.4893 153.459 66.4505 155.558 64.0391 157.28L63.3172 157.87C62.7621 158.454 62.1589 159.001 61.5125 159.505L60.7003 160.229C60.0955 160.553 59.6377 161.056 59.4069 161.651C59.3607 161.921 59.3856 162.198 59.4796 162.458C59.5735 162.719 59.7339 162.957 59.9483 163.152V163.447C60.3204 164.893 60.8754 166.297 61.6027 167.631C61.9335 168.301 62.2644 168.998 62.5351 169.642L63.5579 169.32L65.3326 168.757C65.961 168.537 66.6594 168.537 67.2878 168.757C67.6998 168.941 68.063 169.202 68.3534 169.521C68.6439 169.84 68.8548 170.21 68.9723 170.607C70.1154 174.067 71.0178 177.124 71.9803 180.074C72.9429 183.023 73.8754 186.59 75.1387 190.13C77.8314 183.536 80.0321 176.79 81.7263 169.937C82.1775 168.006 82.5385 166.022 82.8994 164.091C83.57 159.002 85.0593 154.026 87.3213 149.315C90.3293 143.952 95.3827 140.466 103.745 137.838C106.212 136.98 108.738 136.282 111.145 135.585L114.153 134.727C108.887 115.151 107.957 94.8471 111.415 74.9535C113.058 65.4942 115.759 56.2052 119.477 47.2254C122.485 39.9046 126.125 32.2619 132.592 26.6841C142.007 18.6392 157.258 15.9576 171.696 19.4169C171.747 19.1819 171.861 18.9614 172.029 18.7746C172.196 18.5877 172.413 18.44 172.659 18.3443L175.336 17.2179C174.382 15.9124 173.735 14.4477 173.435 12.9127C173.135 11.3776 173.188 9.80435 173.591 8.28814C174.041 6.75507 174.876 5.33321 176.033 4.13001C177.19 2.9268 178.638 1.97369 180.269 1.34268C188.691 -2.14344 199.189 1.66449 204.754 6.97413C206.481 8.54632 207.833 10.4144 208.727 12.4655C209.622 14.5165 210.04 16.708 209.958 18.9074C209.872 20.6402 209.374 22.3371 208.498 23.8857C207.622 25.4343 206.387 26.7995 204.874 27.8909C203.702 28.746 202.381 29.4253 200.964 29.9021C200.602 31.6704 200.491 33.4723 200.633 35.2654C200.694 35.5235 200.666 35.792 200.554 36.0359C200.441 36.2799 200.249 36.4879 200.001 36.633H199.821C214.139 53.3932 217.869 78.9223 220.666 99.5173C221.088 102.655 221.509 105.712 221.96 108.581C221.985 108.783 221.964 108.987 221.898 109.181C221.832 109.375 221.722 109.555 221.576 109.71C221.43 109.866 221.25 109.993 221.047 110.085C220.844 110.176 220.623 110.231 220.396 110.244C219.891 110.299 219.383 110.179 218.974 109.91C218.566 109.641 218.288 109.242 218.2 108.796C217.658 105.363 217.207 101.85 216.726 98.2837C214.5 81.899 212.214 64.951 204.694 50.6848C199.971 41.889 189.142 26.5501 169.711 21.9913C152.084 17.9688 135.6 24.1634 127.598 37.7325C120.048 50.5507 115.236 66.6941 113.341 85.7069C111.715 101.701 113.097 117.825 117.431 133.413C122.786 131.938 128.561 130.571 134.517 129.31C135.384 126.771 136.873 124.435 138.879 122.472H139.089C139.32 122.369 139.562 122.289 139.811 122.231C139.661 121.614 139.36 120.568 139.119 119.817C138.826 118.939 138.605 118.043 138.458 117.136C138.441 117.029 138.441 116.921 138.458 116.814C134.231 115.391 130.605 112.833 128.08 109.493C120.981 100.59 119.687 88.4421 119.326 79.995C119.122 74.083 119.535 68.1668 120.56 62.323C121.192 59.2123 122.004 56.2357 122.816 53.3932C124.254 49.7872 125.994 46.2824 128.02 42.908L128.23 42.5326C130.637 37.7593 133.494 32.8519 136.292 32.8519C139.089 32.8519 139.3 35.319 139.54 36.9548C139.54 37.3838 139.54 37.8129 139.721 38.1615C141.557 42.7216 144.242 46.9733 147.662 50.7384C143.932 44.4902 141.135 38.8051 144.203 31.4843C144.331 31.1608 144.567 30.8798 144.878 30.6786C145.19 30.4775 145.563 30.3656 145.947 30.358C146.328 30.3672 146.696 30.4765 147.006 30.6721C147.317 30.8678 147.555 31.1411 147.692 31.4574C149.943 37.4436 153.1 43.1276 157.077 48.3517C156.566 45.5092 156.145 42.6398 155.844 39.8241C155.802 39.4652 155.92 39.106 156.174 38.8247C156.427 38.5435 156.795 38.3629 157.197 38.3224C157.427 38.2655 157.666 38.2494 157.902 38.2753C158.138 38.3011 158.366 38.3683 158.573 38.473C158.78 38.5776 158.961 38.7177 159.107 38.8852C159.253 39.0526 159.361 39.2441 159.423 39.4487C160.418 43.2702 162.328 46.8546 165.023 49.956C167.717 53.0573 171.133 55.6021 175.035 57.4156C175.859 57.8084 176.714 58.1489 177.592 58.4347C179.788 58.9956 181.76 60.1025 183.277 61.6258C185.01 64.0621 186.119 66.8089 186.526 69.6707L186.706 70.3947C189.553 85.003 186.22 100.034 177.351 112.577C177.219 112.773 177.044 112.943 176.836 113.077C176.628 113.211 176.392 113.306 176.141 113.356C175.891 113.406 175.632 113.411 175.38 113.369C175.127 113.327 174.887 113.24 174.674 113.113C174.306 112.89 174.039 112.557 173.922 112.175C173.838 111.736 173.946 111.285 174.223 110.914C183.698 98.0424 186.886 79.9682 181.923 66.9086C180.509 63.4493 176.599 61.5454 172.418 59.4805C169.79 58.3071 167.334 56.8479 165.109 55.1363C163.574 53.8802 162.211 52.4671 161.048 50.9261C161.288 52.1596 161.559 53.42 161.86 54.6536C161.949 55.0172 161.904 55.3969 161.73 55.7355C161.557 56.0741 161.264 56.3532 160.897 56.5307C160.547 56.6968 160.145 56.7554 159.753 56.6972C159.362 56.639 159.003 56.4674 158.732 56.2089C153.638 50.7568 149.435 44.6898 146.248 38.1883C146.786 43.9025 148.849 49.4192 152.264 54.2781C152.383 54.4904 152.445 54.7246 152.445 54.962C152.445 55.1993 152.383 55.4334 152.264 55.6458C152.176 55.8979 152.02 56.1271 151.811 56.3139C151.601 56.5007 151.344 56.6395 151.061 56.7184C150.447 56.7803 149.826 56.7183 149.243 56.5373C148.66 56.3563 148.13 56.0608 147.692 55.6726C141.718 50.96 137.368 44.8315 135.149 38.0006C132.772 41.299 129.704 46.9573 127.93 50.202C127.178 51.5429 126.786 52.2669 126.546 52.6691C126.305 53.0714 126.275 53.5005 126.125 53.9027C125.963 54.2963 125.832 54.6995 125.734 55.1094C122.256 66.902 121.702 79.2282 124.109 91.231C126.245 101.958 131.72 114.776 145.496 114.776C159.273 114.776 170.463 104.666 175.155 95.2803C175.277 95.0239 175.477 94.8028 175.732 94.6418C175.987 94.4808 176.287 94.3862 176.599 94.3685C176.935 94.358 177.269 94.4238 177.569 94.5599C177.869 94.6959 178.125 94.8977 178.314 95.1462C178.478 95.394 178.564 95.6764 178.564 95.9641C178.564 96.2518 178.478 96.5343 178.314 96.782C172.478 108.447 155.844 119.549 141.736 117.618C141.736 117.886 141.736 118.155 141.947 118.423C142.157 118.691 142.248 119.603 142.458 120.219C142.521 120.518 142.601 120.814 142.699 121.104C142.862 121.66 142.983 122.224 143.06 122.794C143.312 122.888 143.526 123.049 143.671 123.255C143.817 123.462 143.887 123.704 143.872 123.947C143.737 124.505 143.386 125.002 142.879 125.35C142.372 125.699 141.744 125.876 141.104 125.851C140.866 125.85 140.63 125.805 140.413 125.717C138.766 127.632 137.643 129.863 137.134 132.233C137.057 132.571 136.849 132.875 136.546 133.09C136.244 133.306 135.867 133.42 135.479 133.413C135.2 133.427 134.921 133.385 134.661 133.293C134.401 133.2 134.167 133.058 133.975 132.877C125.764 134.727 116.92 137.007 107.685 139.688C97.5484 142.772 91.1413 146.124 88.2837 154.249C86.9674 158.195 85.9622 162.219 85.2757 166.29C84.7944 168.784 84.3132 171.385 83.6816 173.906C81.7792 181.249 79.1521 188.428 75.8307 195.359C75.5299 196.11 75.0485 196.539 74.4469 196.619C74.1153 196.631 73.7863 196.562 73.495 196.421C73.2037 196.279 72.9609 196.07 72.7926 195.815C72.4922 195.466 72.3144 195.046 72.2813 194.608C69.9952 188.333 67.1375 180.127 64.9116 171.68L53.1803 175.22L40.9376 178.92C43.0832 189.003 45.8345 198.975 49.1795 208.794C49.721 210.322 50.2625 211.931 50.804 213.567C53.2706 221.129 56.0679 229.657 61.5725 235.61C62.8579 237.079 64.494 238.274 66.3618 239.109C68.2296 239.944 70.2824 240.397 72.3714 240.437C76.0284 240.347 79.6292 239.611 82.9648 238.272C86.3004 236.932 89.3046 235.016 91.8032 232.634C95.1648 229.54 97.6454 225.773 99.0376 221.648C100.43 217.524 100.693 213.162 99.8045 208.928V208.365C99.2931 206.863 98.7817 205.415 98.2402 203.967C95.894 197.424 93.6681 191.283 94.6607 183.855C95.9241 174.094 100.677 164.949 105.58 156.1C105.676 155.905 105.816 155.729 105.992 155.585C106.168 155.44 106.375 155.329 106.6 155.259C106.826 155.188 107.065 155.16 107.304 155.175C107.542 155.191 107.775 155.25 107.986 155.349C108.208 155.443 108.407 155.576 108.57 155.74C108.733 155.904 108.857 156.095 108.936 156.303C109.014 156.51 109.045 156.73 109.027 156.948C109.009 157.167 108.941 157.38 108.829 157.575C103.504 167.094 98.6313 176.48 98.0598 186.349C98.1351 192.087 99.3786 197.766 101.73 203.109C102.948 206.307 103.952 209.566 104.738 212.87C106.332 220.325 104.467 227.431 102.632 234.323C102.301 235.557 101.97 236.79 101.669 238.05C98.511 250.708 100.797 259.101 108.648 263.66C108.636 263.571 108.636 263.481 108.648 263.392C108.803 263.14 109.035 262.933 109.317 262.795C109.6 262.657 109.921 262.594 110.242 262.614C115.867 262.614 121.492 262.48 127.147 262.426L143.36 262.266C143.36 259.584 143.932 257.09 144.353 254.569C144.684 252.531 144.985 250.627 145.165 248.804C145.177 248.585 145.237 248.371 145.341 248.173C145.446 247.976 145.593 247.798 145.775 247.651C145.956 247.504 146.169 247.391 146.4 247.317C146.631 247.243 146.875 247.211 147.12 247.222C147.235 247.12 147.371 247.039 147.521 246.983C147.671 246.928 147.831 246.9 147.993 246.9C155.576 246.146 163.25 246.674 170.613 248.455L180.419 250.252L181.412 246.605C182.104 243.923 182.796 241.429 182.916 240.866L185.383 232.07C186.556 227.86 187.578 223.596 188.391 219.467C182.897 216.896 178.099 213.286 174.332 208.891C170.566 204.495 167.921 199.419 166.582 194.018C164.266 185.276 162.04 169.615 173.02 162.777C174.746 161.517 176.813 160.684 179.014 160.359C181.215 160.034 183.473 160.23 185.563 160.927C188.013 161.947 190.148 163.484 191.783 165.404C193.418 167.324 194.504 169.57 194.948 171.948C198.317 186.241 195.88 201.634 193.294 214.988C193.294 215.525 193.113 216.034 192.993 216.544C192.872 217.053 192.993 217.187 192.782 217.536C195.84 218.62 199.089 219.21 202.378 219.279L206.769 199.194C207.07 197.826 207.341 196.217 207.642 194.474C209.356 184.498 211.943 169.454 225.299 168.301C227.667 168.094 230.057 168.37 232.288 169.109C234.518 169.848 236.531 171.029 238.173 172.565C240.299 174.568 241.918 176.955 242.92 179.565C243.921 182.174 244.282 184.945 243.979 187.689C242.836 197.719 235.225 208.74 224.607 215.766C219.005 219.417 212.411 221.667 205.506 222.282C204.423 227.27 203.37 232.339 202.348 237.38C201.325 242.421 200.182 247.946 199.039 253.175C199.056 253.264 199.056 253.354 199.039 253.443L202.408 254.033C202.763 254.094 203.083 254.265 203.31 254.516C206.335 254.415 209.362 254.622 212.334 255.132L213.718 255.293C219.818 255.866 225.855 256.888 231.766 258.35C234.791 256.265 237.396 253.735 239.467 250.869C239.604 250.674 239.784 250.506 239.995 250.374C240.205 250.242 240.444 250.148 240.695 250.099C240.947 250.049 241.207 250.044 241.461 250.084C241.714 250.124 241.957 250.208 242.174 250.332C242.535 250.556 242.791 250.89 242.896 251.271C242.954 251.488 242.957 251.713 242.905 251.931C242.853 252.149 242.747 252.354 242.595 252.531C241.159 254.544 239.485 256.414 237.602 258.109C237.09 258.645 236.579 259.101 236.098 259.53C235.616 259.959 235.406 260.147 235.135 260.442C235.08 260.793 234.925 261.125 234.684 261.407C234.507 262.263 234.644 263.147 235.075 263.928C236.878 268.627 239.28 273.126 242.234 277.336C242.498 277.397 242.745 277.508 242.957 277.661C243.17 277.813 243.344 278.004 243.467 278.221C243.555 278.392 243.616 278.572 243.648 278.758C246.656 276.489 249.995 274.595 253.574 273.126L257.093 271.812C260.798 270.696 264.258 269.018 267.321 266.851C274.811 261.273 283.654 254.596 292.528 247.302L295.536 244.942C303.597 238.319 312.772 230.837 309.102 221.344C307.374 217.479 305.012 213.864 302.093 210.617C301.432 209.813 300.77 209.008 300.168 208.204C298.514 206.005 296.829 203.886 295.145 201.741C293.46 199.596 291.746 197.424 290.091 195.225C289.929 195.037 289.822 194.816 289.78 194.582C289.738 194.347 289.762 194.108 289.851 193.884C289.994 193.615 290.209 193.382 290.476 193.205C290.743 193.027 291.055 192.91 291.385 192.865C291.72 192.822 292.061 192.856 292.377 192.964C292.693 193.072 292.973 193.25 293.19 193.482C295.175 196.163 297.16 198.657 299.206 201.205C301.251 203.752 303.206 206.327 305.222 208.874L306.124 210.054C309.262 213.669 311.693 217.731 313.313 222.068C315.93 231.185 308.47 238.158 302.454 243.521C293.3 251.643 283.692 259.349 273.668 266.61L271.622 268.165C268.786 270.568 265.536 272.551 261.997 274.038C260.553 274.574 258.989 275.003 257.725 275.406C255.897 275.903 254.116 276.531 252.401 277.283C249.738 278.762 247.213 280.43 244.851 282.271L244.55 282.512C244.359 282.663 244.134 282.777 243.891 282.846C243.648 282.915 243.39 282.939 243.136 282.914C242.866 282.887 242.605 282.809 242.371 282.684C242.137 282.559 241.937 282.39 241.783 282.19C241.572 281.988 241.39 281.762 241.241 281.52L235.225 284.523L229.209 287.5C233.41 295.948 236.373 304.844 238.023 313.967C238.819 318.531 239.301 323.135 239.467 327.751C239.467 328.743 239.467 330.245 239.467 331.559C239.647 335.072 239.647 335.072 238.955 335.233H238.745H238.293C218.651 335.233 119.627 335.555 97.5786 335.233H97.3981L98.2704 335.85ZM235.075 333.168L234.684 333.49H166.582H98.4809C98.4809 333.49 98.1802 333.49 98.1802 333.704C98.1802 333.919 98.3907 333.946 98.4809 333.946C120.409 334.267 218.801 333.946 238.895 333.946C238.895 333.356 238.895 332.471 238.895 331.72C238.895 330.352 238.895 328.824 238.895 327.858C238.729 323.304 238.247 318.763 237.451 314.262C235.783 305.008 232.749 295.991 228.427 287.446L228.758 286.588L235.315 283.29L241.873 279.991H242.805C243.044 280.221 243.256 280.473 243.437 280.742C243.527 280.934 243.66 281.107 243.828 281.252C243.828 281.439 244.069 281.493 244.159 281.493C244.236 281.52 244.322 281.52 244.4 281.493L244.731 281.225C247.169 279.314 249.785 277.591 252.552 276.076C254.342 275.285 256.203 274.631 258.116 274.118C259.47 273.716 260.884 273.287 262.267 272.751C265.667 271.331 268.786 269.429 271.502 267.119C272.194 266.583 272.886 266.047 273.578 265.564C282.602 258.887 292.919 251.056 302.244 242.582C308.26 237.031 315.088 230.756 312.712 222.39C311.114 218.213 308.756 214.299 305.733 210.805L304.801 209.625C302.876 207.078 300.86 204.503 298.785 201.956C296.709 199.408 294.754 196.834 292.769 194.286C292.662 194.249 292.544 194.249 292.438 194.286C292.373 194.292 292.311 194.309 292.254 194.337C292.197 194.364 292.147 194.402 292.107 194.447C293.821 196.7 295.536 198.845 297.22 201.017C298.905 203.189 300.589 205.281 302.244 207.48L304.139 209.866C307.161 213.23 309.595 216.982 311.358 220.995C315.359 231.32 305.342 239.472 297.401 246.042L294.393 248.375C285.369 255.722 276.615 262.4 269.126 267.977C265.924 270.226 262.326 271.984 258.477 273.18C257.334 273.582 256.191 273.984 254.988 274.467C251.189 276.063 247.656 278.121 244.49 280.581H243.467C243.314 280.452 243.192 280.297 243.106 280.125L242.956 279.187C242.978 279.116 242.978 279.042 242.956 278.972C242.924 278.918 242.877 278.872 242.819 278.839C242.761 278.806 242.694 278.787 242.625 278.784L241.993 278.463C238.927 274.091 236.453 269.41 234.624 264.518C234.046 263.442 233.887 262.225 234.172 261.059L234.383 260.71C234.494 260.588 234.557 260.438 234.563 260.281V259.879C234.952 259.45 235.374 259.047 235.827 258.672L237.271 257.305C239.096 255.67 240.729 253.873 242.144 251.941C242.144 251.941 242.144 251.7 242.144 251.646C242.144 251.593 241.843 251.459 241.602 251.78C239.375 254.893 236.531 257.619 233.21 259.825H232.548C226.642 258.341 220.604 257.31 214.5 256.741L213.116 256.554C210.146 256.034 207.114 255.854 204.092 256.017L203.431 255.481H203.28L183.758 251.941L183.187 251.03C183.367 250.52 183.548 249.85 183.758 249.179C184.39 247.141 185.022 245.264 185.623 243.387C186.225 241.51 186.856 239.633 187.488 237.729C189.323 231.722 190.767 225.608 192.181 219.681L193.203 219.172C196.643 220.375 200.307 220.984 204.002 220.968L204.754 221.773C203.641 226.895 202.558 232.07 201.475 237.219C200.392 242.368 199.34 247.543 198.197 252.665C198.197 252.665 198.197 252.665 198.197 252.88C198.258 252.904 198.325 252.917 198.392 252.917C198.46 252.917 198.526 252.904 198.588 252.88C199.731 247.517 200.814 242.341 201.896 237.058C202.979 231.775 204.032 226.6 205.145 221.424L205.867 220.861C212.692 220.362 219.23 218.19 224.757 214.586C235.015 207.775 242.384 197.129 243.497 187.475C243.767 184.933 243.429 182.368 242.506 179.951C241.583 177.533 240.096 175.318 238.143 173.45C236.665 172.054 234.846 170.979 232.827 170.31C230.809 169.64 228.645 169.393 226.502 169.588C225.349 169.684 224.216 169.919 223.133 170.286C224.108 170.008 225.119 169.845 226.141 169.803C228.233 169.72 230.32 170.045 232.258 170.753C234.195 171.462 235.936 172.537 237.361 173.906C246.385 182.326 241.091 195.359 233.12 204.959C229.957 209.101 225.833 212.59 221.028 215.19C216.223 217.79 210.847 219.441 205.265 220.03L204.995 219.762V220.03L204.243 220.593C200.338 220.576 196.474 219.874 192.872 218.528L192.421 217.777C192.421 217.214 192.602 216.731 192.722 216.222C192.842 215.712 192.933 215.23 193.023 214.667C195.55 201.446 197.986 186.188 194.677 172.163C194.295 170.006 193.329 167.965 191.861 166.217C190.393 164.469 188.469 163.067 186.255 162.133C184.923 161.676 183.503 161.461 182.076 161.503C180.65 161.544 179.248 161.841 177.953 162.375C178.726 162.136 179.521 161.957 180.329 161.838C185.112 161.088 191.369 162.482 193.715 173.343C196.362 187.582 194.015 202.653 191.669 214.184L191.038 216.866L189.955 217.348C183.958 214.68 178.884 210.611 175.276 205.576C169.079 196.528 166.513 185.872 167.996 175.354C168.163 174.071 168.465 172.805 168.899 171.573C166.222 178.679 167.756 187.663 169.29 193.562C170.596 198.854 173.206 203.82 176.931 208.101C180.656 212.382 185.403 215.87 190.827 218.314L191.248 219.065C190.225 223.462 189.173 227.887 187.969 232.258L185.503 241.027C185.503 241.563 184.691 244.165 183.969 246.793L182.826 251.056L181.923 251.593L171.395 249.662C164.168 247.921 156.64 247.394 149.196 248.107L148.986 248.294L148.204 248.455C148.156 248.436 148.105 248.426 148.053 248.426C148.001 248.426 147.95 248.436 147.903 248.455C147.881 248.488 147.87 248.525 147.87 248.562C147.87 248.6 147.881 248.637 147.903 248.67C147.722 250.6 147.391 252.531 147.06 254.569C146.639 257.251 146.158 260.067 146.038 262.775L145.286 263.419C139.661 263.419 134.006 263.419 128.381 263.606C122.756 263.794 117.101 263.606 111.445 263.794C111.367 263.775 111.284 263.775 111.205 263.794C111.177 263.849 111.163 263.908 111.163 263.968C111.163 264.028 111.177 264.088 111.205 264.143V264.599L111.867 264.009L128.29 263.821C133.705 263.821 139.179 263.821 144.684 263.633L145.045 263.955C145.305 263.925 145.567 263.925 145.827 263.955H146.308C146.38 262.983 146.521 262.015 146.73 261.059L147.933 249.045L148.715 248.428H149.316C156.897 247.222 164.778 248.75 172.388 250.225C174.042 250.574 175.727 250.895 177.381 251.19C178.134 251.393 178.912 251.51 179.697 251.539L180.449 252.209C180.456 252.132 180.44 252.054 180.403 251.984C180.366 251.914 180.309 251.853 180.239 251.807C180.836 252.006 181.466 252.115 182.104 252.129H182.465L191.489 253.765L200.513 255.401L200.332 256.768C200.451 256.795 200.575 256.795 200.693 256.768C200.571 256.884 200.415 256.968 200.242 257.01C198.798 257.948 198.136 258.779 198.287 259.557C198.588 260.871 201.295 262.99 212.816 265.403V266.717C206.8 268.353 200.784 270.016 195.008 271.812C191.764 272.685 188.645 273.891 185.713 275.406C183.126 276.398 181.893 277.551 181.983 278.972C182.15 279.758 182.504 280.503 183.024 281.156C183.543 281.809 184.214 282.354 184.991 282.753L185.352 283.96C183.788 285.033 182.916 286.213 183.066 287.098C183.217 287.982 184.42 288.653 185.383 289.001H185.743C186.056 289.13 186.393 289.203 186.736 289.216L187.278 290.369C186.815 290.776 186.537 291.32 186.495 291.898C186.406 292.279 186.41 292.674 186.509 293.053C186.608 293.433 186.798 293.789 187.067 294.097C187.645 294.717 188.459 295.127 189.353 295.25C192.109 295.284 194.82 294.624 197.174 293.346C198.016 292.97 198.828 292.622 199.58 292.354C205.444 290.072 211.096 287.382 216.485 284.309C216.636 284.309 216.726 284.121 216.485 283.96C216.245 283.799 216.305 283.745 216.154 283.826C212.334 285.971 208.364 288.224 204.122 290.074C202.168 290.967 200.159 291.764 198.106 292.461C197.264 292.729 196.452 293.051 195.64 293.373L193.173 294.311C192.401 294.739 191.51 294.965 190.601 294.965C189.692 294.965 188.802 294.739 188.03 294.311C187.458 293.775 186.977 292.729 188.03 290.771L188.721 290.396C195.255 287.69 201.621 284.673 207.792 281.359C207.792 281.359 208.033 281.171 207.792 281.01C207.552 280.849 207.792 280.796 207.461 281.01C204.138 282.849 200.693 284.506 197.144 285.971C195.188 286.816 193.18 287.56 191.128 288.197C190.112 288.605 188.989 288.753 187.885 288.625C186.78 288.497 185.737 288.098 184.871 287.473C184.39 286.963 183.818 285.837 185.352 284.201C188.502 282.845 191.772 281.724 195.128 280.849L198.136 279.964C198.136 279.964 198.317 279.723 198.136 279.589C197.956 279.455 197.926 279.401 197.866 279.428C195.727 280.247 193.499 280.867 191.218 281.278L189.985 281.547C187.548 282.136 184.51 282.887 183.187 280.34C181.863 277.792 184.751 276.317 186.917 275.379L187.639 275.057C189.445 274.215 191.339 273.533 193.294 273.019C198.076 271.464 202.979 270.123 207.702 268.782C210.71 267.951 213.718 267.092 216.726 266.1C216.498 265.924 216.257 265.763 216.004 265.618L210.379 264.25L204.724 262.882H204.213C203.384 262.819 202.584 262.582 201.879 262.191C201.173 261.799 200.581 261.264 200.152 260.63C199.912 260.234 199.807 259.785 199.85 259.337C199.893 258.89 200.081 258.463 200.392 258.109C201.361 257.353 202.57 256.884 203.852 256.768H204.152C205.52 256.68 206.894 256.743 208.243 256.956L209.928 257.144C217.113 257.677 224.23 258.781 231.195 260.442L231.706 260.898C233.874 267.186 236.905 273.212 240.73 278.838L240.489 279.777C237.271 281.547 233.962 283.209 230.743 284.818L227.314 286.561H226.953C226.882 286.556 226.811 286.569 226.748 286.597C226.684 286.625 226.63 286.669 226.592 286.722L226.352 286.99C226.028 287.186 225.686 287.356 225.329 287.5L224.487 287.902C221.81 289.216 219.072 290.584 216.395 291.603L216.004 291.79C213.317 293.101 210.509 294.204 207.612 295.089C209.345 294.721 211.044 294.237 212.695 293.641C217.057 291.71 221.719 289.672 225.961 287.473L227.043 287.795C230.347 294.729 232.964 301.907 234.864 309.248C235.677 313.056 236.519 316.971 236.94 320.859C237.182 322.577 237.322 324.304 237.361 326.035C237.361 326.41 237.361 326.893 237.361 327.429C237.165 328.968 237.247 330.525 237.602 332.042L236.158 332.551C236.232 332.671 236.348 332.765 236.489 332.819C235.861 332.83 235.24 332.939 234.654 333.141L235.075 333.168ZM102.271 219.762L103.775 219.949C103.348 224.468 102.533 228.95 101.339 233.358C98.3306 246.337 95.3225 258.592 109.55 265.537H109.731C110.092 265.886 110.152 265.939 105.58 291.281C103.414 303.295 100.316 320.135 97.9997 332.095C102.271 309.838 106.512 287.607 110.784 265.564C110.788 265.399 110.851 265.239 110.964 265.108L109.941 265.644C100.406 260.925 97.4582 251.834 100.917 237.836C101.218 236.602 101.549 235.342 101.88 234.108C103.745 227.056 105.52 220.405 103.986 213.272C103.192 210.023 102.188 206.817 100.978 203.672C98.5712 198.173 97.2975 192.331 97.2176 186.429C97.8192 176.266 102.722 166.746 108.167 157.092C108.186 157.057 108.197 157.019 108.198 156.98C108.199 156.941 108.191 156.903 108.174 156.867C108.157 156.831 108.131 156.799 108.099 156.773C108.066 156.747 108.028 156.728 107.986 156.717C107.806 156.717 107.716 156.717 107.685 156.717C102.963 165.485 98.1201 174.523 96.8868 184.069C95.9242 191.202 98.0899 197.209 100.406 203.591C100.948 205.093 101.489 206.595 102 208.123V208.847C102.915 213.277 102.628 217.837 101.162 222.148C99.6972 226.458 97.0966 230.394 93.5779 233.626C94.1494 233.089 94.7209 232.58 95.2322 232.044C98.5928 228.478 101 224.279 102.271 219.762ZM112.318 266.127C108.067 288.152 103.835 310.204 99.624 332.283H166.582H234.443C234.771 332.124 235.127 332.015 235.496 331.961L236.398 331.8C236.248 330.436 236.248 329.062 236.398 327.697C236.398 327.188 236.398 326.732 236.398 326.383C236.358 324.697 236.218 323.015 235.977 321.342C235.586 317.507 234.744 313.646 233.932 309.865C232.121 302.852 229.646 295.989 226.532 289.35C222.381 291.415 218.08 293.346 213.898 295.196C212.936 295.545 204.694 298.494 201.415 296.456C201.003 296.208 200.666 295.872 200.435 295.479C200.204 295.086 200.086 294.648 200.092 294.204C199.4 294.445 198.708 294.74 197.986 295.062C195.353 296.483 192.309 297.182 189.233 297.073C187.971 296.898 186.826 296.316 186.014 295.437C185.614 295.001 185.325 294.491 185.169 293.944C185.013 293.398 184.994 292.827 185.112 292.273C185.123 291.764 185.279 291.266 185.563 290.825H185.352H185.022C182.976 290.074 182.014 289.082 181.683 287.822C181.677 287.104 181.855 286.395 182.205 285.749C182.554 285.103 183.065 284.537 183.698 284.094C182.203 283.139 181.137 281.742 180.69 280.152C180.329 278.57 180.69 276.344 185.172 274.789C188.158 273.237 191.338 272.004 194.647 271.115C199.701 269.56 204.844 268.112 209.868 266.717C201.415 264.76 197.385 262.775 196.873 260.388C196.796 259.765 196.909 259.134 197.2 258.563C197.491 257.992 197.95 257.502 198.528 257.144L191.308 255.83L182.284 254.194C181.402 254.227 180.522 254.1 179.697 253.818L179.246 253.631C178.471 253.564 177.705 253.429 176.96 253.228C175.336 252.96 173.681 252.639 171.997 252.29C164.537 250.842 156.806 249.34 149.407 250.52L148.234 261.971C148.006 263.095 147.876 264.234 147.843 265.376L147.06 266.047H145.827H145.406C145.136 266.076 144.864 266.076 144.594 266.047L144.203 265.698L128.2 265.859L112.498 266.047C112.441 266.078 112.38 266.105 112.318 266.127ZM202.047 293.426C201.937 293.425 201.83 293.46 201.747 293.524C201.664 293.589 201.61 293.678 201.596 293.775C201.554 294.042 201.597 294.313 201.719 294.56C201.841 294.806 202.038 295.017 202.288 295.169C202.785 295.447 203.355 295.604 203.942 295.625C203.729 295.573 203.526 295.491 203.34 295.384C203.008 295.217 202.736 294.97 202.555 294.671C202.374 294.372 202.291 294.033 202.318 293.694C202.318 293.56 202.318 293.426 202.077 293.426H202.047ZM203.491 292.649C203.749 292.948 203.886 293.317 203.882 293.694C203.882 294.097 204.032 294.177 204.122 294.231C204.724 294.526 207.13 294.821 215.854 290.718L216.305 290.503C218.952 289.404 221.659 288.116 224.276 286.883C224.579 286.695 224.901 286.533 225.239 286.4L225.93 286.078C226.075 285.868 226.272 285.69 226.508 285.56C226.743 285.429 227.008 285.35 227.284 285.328L230.563 283.692C233.571 282.19 236.579 280.635 239.587 279.026C235.984 273.578 233.106 267.773 231.014 261.729C224.261 260.14 217.368 259.072 210.409 258.538L208.695 258.35C207.485 258.152 206.251 258.098 205.025 258.19H204.784C203.852 258.248 202.957 258.536 202.197 259.021C202.088 259.178 202.03 259.359 202.03 259.544C202.03 259.729 202.088 259.91 202.197 260.067C202.739 261.032 203.701 261.273 205.205 261.595L205.777 261.729L211.432 263.097L217.087 264.465C217.749 264.652 219.102 265.51 219.223 266.261C219.268 266.516 219.203 266.777 219.041 266.991C218.88 267.205 218.633 267.356 218.35 267.414C215.162 268.38 211.943 269.265 208.755 270.096C204.032 271.41 199.159 272.778 194.376 274.306C192.498 274.807 190.675 275.463 188.932 276.264L188.15 276.612C185.533 277.739 184.45 278.382 185.142 279.777C185.834 281.171 187.488 280.876 190.135 280.233L191.429 279.938C193.643 279.521 195.808 278.919 197.896 278.141C198.125 278.041 198.377 277.989 198.633 277.989C198.888 277.989 199.14 278.041 199.37 278.141C199.722 278.355 199.986 278.666 200.122 279.026C200.273 279.408 200.273 279.824 200.122 280.206C200.028 280.42 199.882 280.612 199.695 280.77C199.508 280.927 199.284 281.046 199.039 281.117L196.181 282.002C193.173 282.941 187.548 284.684 186.947 285.033C186.345 285.381 186.285 286.132 186.616 286.481C187.257 286.874 188.003 287.111 188.778 287.168C189.554 287.224 190.333 287.098 191.038 286.802C193.088 286.172 195.097 285.438 197.054 284.604C200.553 283.156 203.948 281.517 207.221 279.696C207.633 279.491 208.118 279.438 208.574 279.548C209.029 279.658 209.418 279.923 209.657 280.286C209.789 280.464 209.878 280.665 209.92 280.874C209.963 281.084 209.957 281.3 209.904 281.508C209.85 281.716 209.75 281.912 209.61 282.084C209.469 282.257 209.291 282.402 209.086 282.512C202.841 285.881 196.383 288.925 189.744 291.629C189.323 292.461 189.233 293.078 189.534 293.346C189.834 293.614 191.609 293.614 192.933 293.024C194.256 292.434 194.617 292.407 195.429 292.085L197.926 291.147C199.99 290.495 202 289.716 203.942 288.814C208.007 286.928 211.963 284.861 215.793 282.619C216.211 282.415 216.702 282.363 217.161 282.476C217.621 282.588 218.014 282.856 218.256 283.222C218.498 283.588 218.571 284.023 218.46 284.436C218.348 284.849 218.061 285.207 217.658 285.435C213.111 288.064 208.379 290.428 203.491 292.514V292.649ZM112.378 265.832V265.993C112.378 265.993 112.378 265.832 112.378 265.779V265.832ZM184.781 250.869L196.572 252.96C196.557 252.827 196.557 252.692 196.572 252.558C197.685 247.436 198.768 242.261 199.851 237.112C200.934 231.963 201.896 227.324 202.859 222.47C199.597 222.396 196.369 221.862 193.294 220.888C191.94 226.573 190.526 232.446 188.751 238.238C188.12 240.169 187.518 242.046 186.887 243.896C186.255 245.747 185.653 247.651 185.052 249.581C185.052 250.037 184.901 250.413 184.781 250.815V250.869ZM43.9456 175.434L43.4945 176.212C42.8027 176.373 42.1108 176.614 41.419 176.829C40.7272 177.043 39.9451 177.285 39.1931 177.472C39.0126 177.472 38.9223 177.472 38.9223 177.928C41.97 191.925 46.1419 205.708 51.4056 219.172L52.1576 221.156C55.1656 228.96 58.6849 238.667 68.1601 241.429C71.0077 242.113 73.9797 242.286 76.9027 241.936C79.8257 241.586 82.6413 240.721 85.1856 239.391C81.4889 241.167 77.3524 242.089 73.1535 242.073C70.8271 242.031 68.5403 241.528 66.4591 240.601C64.3779 239.673 62.5546 238.344 61.1215 236.71C55.4363 230.569 52.6088 221.88 50.0821 214.211C49.5407 212.575 49.0292 210.966 48.4878 209.437C45.0512 199.382 42.2296 189.168 40.0352 178.84L40.5466 178.062L53.4209 174.174L65.9944 170.393L66.9871 170.876C69.213 179.618 72.1909 188.118 74.5672 194.581V194.849C74.6552 195.08 74.799 195.29 74.9884 195.466L75.1688 195.091C78.4551 188.211 81.0521 181.086 82.9296 173.799C83.5612 171.305 84.0426 168.73 84.4938 166.236C85.187 162.105 86.1919 158.019 87.5018 154.008C90.5098 145.346 97.2777 141.807 107.896 138.589C117.371 135.907 126.425 133.494 134.968 131.616L135.901 132.126C136.045 132.178 136.207 132.178 136.352 132.126C137.019 129.308 138.444 126.676 140.503 124.456H141.646C141.827 124.644 141.826 124.644 141.917 124.644C142.134 124.637 142.348 124.591 142.544 124.508C142.741 124.425 142.916 124.307 143.06 124.161L142.368 123.491C142.326 122.847 142.205 122.208 142.007 121.587C142.007 121.292 141.826 120.97 141.766 120.702C141.706 120.434 141.435 119.495 141.285 118.906C141.135 118.316 140.954 117.726 140.774 117.109L141.676 116.251C155.302 118.932 171.967 107.911 177.772 96.353C177.772 96.353 177.772 96.1384 177.772 96.058C177.735 96.0101 177.685 95.9706 177.628 95.9427C177.571 95.9147 177.507 95.8992 177.441 95.8971C172.568 105.685 160.747 116.197 146.399 116.197C134.637 116.197 126.726 107.669 123.478 91.526C121.05 79.3438 121.614 66.8371 125.132 54.8681C125.132 54.4122 125.403 53.9563 125.553 53.5273C125.715 53.1428 125.846 52.7485 125.944 52.3474L126.215 52.1328C126.215 51.9719 126.937 50.8993 127.568 49.7462C130.009 44.9364 132.845 40.2936 136.051 35.8553L137.435 36.2576C137.766 42.0499 145.165 51.7038 149.647 54.7072C150.7 55.4044 151.362 55.5921 151.693 55.5385C152.024 55.4849 151.693 55.5385 151.843 55.324C151.862 55.2954 151.871 55.2631 151.871 55.2301C151.871 55.1972 151.862 55.1648 151.843 55.1363C151.422 54.4659 151.031 53.7955 150.64 53.125C150.322 53.1629 149.999 53.1444 149.69 53.0708C149.38 52.9972 149.089 52.8698 148.835 52.696C145.286 50.6311 139.6 40.7359 139.059 38.3224C138.964 37.8789 138.893 37.4314 138.848 36.9816C138.608 34.9704 138.337 34.1122 137.134 34.1122C135.931 34.1122 134.126 35.6676 130.456 42.9884L130.246 43.4175C128.277 46.6727 126.578 50.0516 125.162 53.5273C124.35 56.4503 123.538 59.3732 122.936 62.4303C121.911 68.1839 121.498 74.0111 121.703 79.8341C122.064 87.879 123.297 99.9195 130.186 108.528C132.688 111.859 136.375 114.344 140.653 115.58L140.984 116.707C140.774 116.867 140.774 116.894 140.774 116.948C140.774 117.002 141.135 118.342 141.405 119.2C141.778 120.26 142.05 121.345 142.218 122.445C142.218 122.673 142.116 122.891 141.936 123.052C141.755 123.213 141.51 123.303 141.255 123.303C141.066 123.269 140.872 123.269 140.683 123.303C138.812 125.201 137.436 127.445 136.653 129.873L136.081 130.356C129.704 131.697 123.568 133.038 117.883 134.727L116.92 134.244C112.386 118.303 110.922 101.791 112.589 85.4119C114.514 66.2114 119.387 49.8803 127.027 36.9012C135.269 22.7421 152.445 16.3062 170.764 20.4895C190.827 25.1019 201.927 40.8968 206.86 49.9875C214.47 64.4415 216.756 81.4967 218.892 98.0156C219.373 101.582 219.854 105.068 220.366 108.474C220.4 108.575 220.473 108.663 220.572 108.722C220.67 108.78 220.789 108.806 220.907 108.796C221.058 108.796 221.088 108.796 221.088 108.581C220.667 105.9 220.245 102.735 219.794 99.5977C216.786 78.681 213.176 52.6691 198.287 36.2844L199.31 35.2654C199.39 35.2971 199.477 35.3136 199.565 35.3136C199.653 35.3136 199.74 35.2971 199.821 35.2654C199.589 33.1515 199.711 31.0187 200.182 28.9367L200.753 28.4004C203.091 27.6806 205.134 26.3535 206.619 24.5901C208.104 22.8267 208.963 20.7075 209.086 18.5052C209.158 16.4921 208.772 14.4868 207.95 12.6108C207.128 10.7347 205.887 9.02695 204.303 7.59089C199.31 2.81758 190.165 -0.64171 182.555 1.90584C187.806 0.986023 193.253 1.85216 197.824 4.33374C202.395 6.81532 205.758 10.7325 207.251 15.314C207.864 17.7597 207.469 20.3203 206.138 22.5276C205.401 23.9085 204.38 25.1545 203.13 26.2014C202.353 26.8574 201.495 27.4331 200.573 27.9177H199.64C199.46 27.7568 199.43 27.7568 199.37 27.7568L198.678 27.3814C198.641 27.2811 198.578 27.1901 198.495 27.1155C198.411 27.041 198.309 26.985 198.197 26.9523L197.986 26.8182C192.306 21.433 184.989 17.6402 176.93 15.904C177.173 16.2777 177.444 16.6361 177.742 16.9766L177.441 17.9956L173.952 19.4705C173.926 19.4931 173.905 19.5201 173.89 19.5501C173.876 19.58 173.869 19.6123 173.869 19.6449C173.869 19.6774 173.876 19.7096 173.89 19.7396C173.905 19.7695 173.926 19.7966 173.952 19.8191L173.17 20.9723C158.762 17.0303 143.451 19.6046 134.066 27.569C127.839 32.9323 124.35 40.4141 121.342 47.6009C117.65 56.4903 114.979 65.6907 113.371 75.0608C109.926 94.9933 110.948 115.337 116.379 134.915L115.867 135.719L112.167 136.792C109.761 137.462 107.264 138.16 104.828 139.018C96.8265 141.538 92.0438 144.864 89.2463 149.744C87.0351 154.321 85.5958 159.165 84.975 164.118C84.614 166.075 84.2229 168.087 83.7717 170.044C81.8983 177.604 79.4153 185.034 76.342 192.275H74.8982C73.2739 187.904 72.1909 184.23 71.0178 180.261C70.1755 177.311 69.2731 174.254 68.0097 170.876C67.9539 170.664 67.8505 170.464 67.7057 170.289C67.5609 170.114 67.378 169.967 67.1676 169.857C66.916 169.77 66.6371 169.77 66.3855 169.857L64.5806 170.42L62.836 170.983L61.8433 170.554C61.5119 169.687 61.1304 168.837 60.7003 168.006C59.9655 166.613 59.391 165.158 58.9857 163.662C58.6819 163.317 58.4633 162.919 58.344 162.494C58.2248 162.069 58.2078 161.626 58.2939 161.195C58.5605 160.292 59.1926 159.508 60.0685 158.996C60.3151 158.76 60.5762 158.536 60.8507 158.325C61.4696 157.832 62.0524 157.303 62.5954 156.743L63.4076 156.073C65.6712 154.456 67.5958 152.495 69.0926 150.281C70.1602 148.249 70.4865 145.97 70.0252 143.764C70.0252 143.469 70.0251 143.067 69.8446 142.638C69.5137 140.6 68.8821 136.819 67.1375 136.443C66.8384 136.342 66.5172 136.304 66.1989 136.332C65.8807 136.36 65.5739 136.453 65.3026 136.604C64.9258 136.918 64.6308 137.301 64.4385 137.728C64.2461 138.154 64.1612 138.613 64.1897 139.071C64.9116 138.24 65.6335 137.945 66.3855 138.133C68.4309 138.642 68.8822 143.013 68.8822 143.04C70.0553 149.932 66.4457 152.48 62.6556 155.161C60.6864 156.433 58.9423 157.96 57.4817 159.693C55.8574 161.731 57.4817 165.056 58.9556 167.738C59.4369 168.73 59.9183 169.669 60.2492 170.42L59.7377 171.278L44.9684 175.676L43.9456 175.434ZM213.297 186.643C210.89 197.504 208.514 208.097 206.108 218.823C211.278 218.118 216.23 216.47 220.655 213.983C225.08 211.497 228.883 208.224 231.826 204.369C234.443 201.258 246.866 185.169 236.188 175.113C234.916 173.889 233.362 172.925 231.633 172.286C229.904 171.648 228.041 171.349 226.171 171.412C224.574 171.5 223.019 171.905 221.62 172.596C220.22 173.287 219.011 174.247 218.08 175.408C215.631 178.724 214.019 182.476 213.357 186.402L213.297 186.643ZM182.284 163.286C181.67 163.293 181.057 163.338 180.449 163.421C171.636 164.735 169.771 173.235 169.41 175.81C167.955 186.017 170.437 196.363 176.449 205.147C179.711 209.714 184.238 213.454 189.594 216.007L190.015 214.157C192.331 202.76 194.647 187.85 192.06 173.933C190.556 166.907 187.277 163.233 182.284 163.233V163.286ZM18.889 130.088C19.0939 131.576 19.5082 133.036 20.1222 134.432C21.8685 137.041 24.2163 139.29 27.0105 141.029C28.9679 142.358 30.7717 143.859 32.395 145.507C34.8741 148.453 36.7479 151.767 37.9296 155.295C38.2003 155.858 38.441 156.448 38.6816 157.038L39.3736 158.835C41.3889 164.011 43.2839 168.891 44.9082 174.281L58.0833 170.366C57.8126 169.749 57.4817 169.079 57.1207 168.382C55.5867 165.325 53.6916 161.543 55.7972 158.889C57.3497 157.051 59.1939 155.425 61.2718 154.062C65.0318 151.38 67.9797 149.342 66.957 143.121C66.957 141.86 66.0545 139.5 65.5431 139.42C65.5431 139.42 65.2724 139.42 64.7911 140.09V140.278C65.2502 141.096 65.3536 142.036 65.0814 142.917C64.8093 143.798 64.1809 144.559 63.3172 145.051C62.2508 145.623 61.1343 146.116 59.9784 146.526C57.864 147.186 55.9354 148.247 54.3255 149.636C52.7157 151.025 51.463 152.709 50.6536 154.571C50.5311 154.822 50.3352 155.039 50.0865 155.199C49.8378 155.36 49.5454 155.458 49.2398 155.483C48.9026 155.499 48.5667 155.435 48.2658 155.299C47.9648 155.162 47.7094 154.958 47.5252 154.705C47.3641 154.457 47.2793 154.175 47.2793 153.887C47.2793 153.6 47.3641 153.318 47.5252 153.069C49.041 149.981 51.4621 147.313 54.5339 145.346C54.7151 145.165 54.9286 145.011 55.1656 144.891C54.0226 142.96 51.3755 137.999 52.6991 134.995C52.9226 134.468 53.281 133.995 53.7457 133.613C54.2105 133.232 54.7687 132.952 55.376 132.796C55.8841 132.685 56.4122 132.665 56.9289 132.739C57.4456 132.813 57.9404 132.978 58.3841 133.225C58.6849 133.386 59.2263 133.601 59.3466 133.547H59.6476C59.7741 133.512 59.8867 133.446 59.972 133.355C60.0573 133.265 60.1117 133.155 60.1288 133.038C60.3092 132.394 59.4369 131.563 57.8426 130.839H57.6622C56.4289 129.739 53.9924 130.517 52.7892 131.563C51.3317 132.772 50.2887 134.325 49.7812 136.041C49.5405 136.926 47.9463 137.301 46.9536 137.328C45.961 137.355 44.8782 136.98 44.6075 136.229C44.1864 134.915 43.705 133.547 43.1936 132.233C42.3558 130.173 41.6626 128.068 41.1181 125.931C40.697 124.403 40.3963 122.982 40.1256 121.721C39.524 119.04 38.9825 116.546 38.1703 116.358C38.0847 116.325 37.9925 116.309 37.8995 116.309C37.8065 116.309 37.7145 116.325 37.6289 116.358C37.8996 117.35 38.2003 118.342 38.471 119.335C39.7249 123.195 40.7292 127.117 41.479 131.08C41.7498 132.475 42.3515 135.827 38.9524 137.114C38.5554 137.242 38.1238 137.26 37.7153 137.164C37.3069 137.068 36.9409 136.864 36.6663 136.577C34.7136 133.938 32.9552 131.188 31.4023 128.345C30.9198 127.471 30.4881 126.576 30.1088 125.663C29.7399 124.686 29.2873 123.736 28.7552 122.821L27.7926 121.399V121.828L28.0032 122.472C28.2707 123.387 28.6126 124.283 29.026 125.154L29.2065 125.529L30.7705 129.659C31.2819 130.973 31.7933 132.34 32.3046 133.628V134.137C32.6359 134.814 32.8069 135.544 32.8069 136.282C32.8069 137.021 32.6359 137.751 32.3046 138.428C31.9875 138.788 31.5866 139.082 31.1296 139.29C30.6726 139.498 30.1704 139.616 29.6576 139.634C28.1914 139.599 26.7507 139.284 25.4327 138.711C24.1147 138.137 22.9501 137.318 22.0173 136.309C21.182 135.51 20.5734 134.545 20.2425 133.494C20.0843 133.024 19.8832 132.566 19.641 132.126L19.3702 131.59C19.2786 131.056 19.1172 130.534 18.889 130.034V130.088ZM56.3085 134.084H55.8574C55.4706 134.174 55.1134 134.345 54.8153 134.583C54.5173 134.821 54.2868 135.118 54.1428 135.451C53.09 137.838 55.376 142.45 56.8801 144.783L56.5492 145.749C56.1782 145.9 55.8339 146.099 55.5266 146.339C52.628 148.198 50.3425 150.717 48.9089 153.633C48.8799 153.677 48.8645 153.728 48.8645 153.78C48.8645 153.832 48.8799 153.883 48.9089 153.928C48.9922 154.017 49.1105 154.074 49.2398 154.089C49.2513 154.044 49.2513 153.999 49.2398 153.954C50.1206 151.937 51.4756 150.11 53.2137 148.598C54.9517 147.085 57.0325 145.922 59.3165 145.185C60.3576 144.8 61.3633 144.343 62.3245 143.818C62.8717 143.531 63.276 143.069 63.4548 142.526C63.6336 141.983 63.5736 141.4 63.2871 140.895C62.8329 142.369 61.7545 143.628 60.2791 144.408C60.0008 144.547 59.7089 144.664 59.4069 144.756C59.1761 144.824 58.9543 144.914 58.7452 145.025L57.7525 144.756C57.7525 144.756 53.7216 138.321 55.376 135.987C55.6214 135.661 55.9687 135.406 56.375 135.253C56.7813 135.101 57.2287 135.058 57.6622 135.129C58.1808 135.205 58.6568 135.431 59.0158 135.773C59.1258 135.893 59.2723 135.982 59.4377 136.03C59.6031 136.077 59.7804 136.081 59.9483 136.041C60.3788 135.936 60.7776 135.746 61.1158 135.487C61.4539 135.227 61.7231 134.903 61.9036 134.539C62.1486 134.069 62.2753 133.556 62.2753 133.038C62.2753 132.519 62.1486 132.006 61.9036 131.536C61.5776 130.73 61.0298 130.009 60.3105 129.441C59.5913 128.872 58.7235 128.474 57.7866 128.281C56.8498 128.089 55.8739 128.11 54.9483 128.341C54.0226 128.572 53.1769 129.007 52.4885 129.605C53.3289 129.04 54.3531 128.734 55.4062 128.734C56.4592 128.734 57.4836 129.04 58.324 129.605C61.332 131.08 61.5125 132.582 61.332 133.333C61.2343 133.723 61.0067 134.077 60.6794 134.35C60.352 134.622 59.9401 134.801 59.4972 134.861C59.1387 134.922 58.7699 134.918 58.4133 134.849C58.0566 134.78 57.7193 134.647 57.4217 134.459C57.0784 134.264 56.7026 134.12 56.3085 134.03V134.084ZM17.5655 131.402C17.9577 134.261 19.4078 136.922 21.6864 138.964C23.0589 140.225 24.5371 141.39 26.1081 142.45C27.1609 143.201 28.2438 143.952 29.1161 144.783C31.3708 146.663 33.1988 148.912 34.5004 151.407C33.6398 149.567 32.496 147.843 31.1015 146.285C29.5405 144.706 27.8073 143.268 25.9277 141.994C22.9767 140.151 20.5045 137.764 18.6784 134.995C18.1531 133.858 17.7796 132.67 17.5655 131.456V131.402ZM18.6182 128.318C19.8816 128.318 20.5132 129.686 20.9644 130.624L21.205 131.08C21.4693 131.586 21.7005 132.105 21.897 132.635C22.1566 133.493 22.6411 134.284 23.3107 134.942C24.0959 135.787 25.0667 136.479 26.1634 136.977C27.2601 137.475 28.4594 137.768 29.6877 137.838C29.9766 137.831 30.2612 137.774 30.5247 137.668C30.7881 137.562 31.0252 137.41 31.2218 137.221C31.3889 136.96 31.4722 136.663 31.4625 136.363C31.478 136.425 31.478 136.489 31.4625 136.551C31.263 136.845 30.9863 137.091 30.6561 137.269C30.326 137.446 29.9523 137.55 29.5674 137.57C26.5594 137.784 23.5514 133.547 23.01 132.206C22.856 131.654 22.7752 131.087 22.7693 130.517C22.7693 129.31 22.7693 128.184 21.6563 127.594C21.4361 127.424 21.175 127.302 20.8933 127.237C20.6116 127.172 20.3168 127.166 20.0319 127.219C19.4095 127.42 18.8945 127.822 18.5881 128.345L18.6182 128.318ZM46.0814 135.585H46.3821C47.0597 135.685 47.7548 135.561 48.3374 135.237H47.2546C46.6229 133.44 46.0513 131.643 45.4797 129.873C44.4264 126.315 43.1715 122.806 41.7197 119.361C41.4791 118.798 41.2385 118.074 40.9978 117.323C40.4263 115.607 39.7043 113.462 38.5011 113.006C38.1874 112.938 37.8609 112.931 37.544 112.987C37.2272 113.042 36.9276 113.159 36.6663 113.328C36.2452 113.569 35.7038 114.239 35.794 114.561C35.8753 114.887 35.9756 115.21 36.0948 115.527L36.2752 115.071C36.621 114.834 37.0264 114.676 37.4563 114.61C37.8862 114.545 38.3275 114.574 38.7418 114.695C40.306 115.312 40.7873 117.511 41.7498 121.185C42.0206 122.445 42.3214 123.867 42.7124 125.368C43.275 127.445 43.9577 129.495 44.7579 131.509C45.2692 132.85 45.7805 134.191 46.2016 135.558L46.0814 135.585ZM27.3415 118.986H27.7926L28.3641 119.308L29.9884 121.694C30.5769 122.683 31.0702 123.715 31.4625 124.778C31.8535 125.663 32.2445 126.575 32.6957 127.46C34.1932 130.237 35.8913 132.924 37.7792 135.505C37.8591 135.553 37.9535 135.579 38.05 135.579C38.1466 135.579 38.2408 135.553 38.3207 135.505C38.8871 135.274 39.3592 134.892 39.6717 134.411C39.9842 133.931 40.1218 133.376 40.0654 132.823C40.0268 133.38 39.9055 133.93 39.7044 134.459H38.3207C36.2699 131.546 34.4119 128.528 32.7559 125.422C32.3468 124.552 32.0149 123.656 31.7632 122.74C31.393 121.156 30.6554 119.658 29.5975 118.342C29.3041 118.067 28.9486 117.851 28.5545 117.708C28.1604 117.565 27.7367 117.498 27.3114 117.511C27.0481 117.558 26.8023 117.664 26.5972 117.819C26.3921 117.974 26.2343 118.172 26.1382 118.396C25.9162 118.9 25.8174 119.441 25.8485 119.982C25.8796 120.523 26.04 121.052 26.3187 121.533C25.9577 120.407 25.7472 119.71 26.3187 119.2C26.6244 119.033 26.9901 118.976 27.3415 119.04V118.986ZM27.7324 125.475L28.0935 126.36C28.0935 126.092 27.8828 125.851 27.7926 125.583L27.7324 125.475ZM160.687 47.3595C162.215 49.8759 164.174 52.1649 166.492 54.144C168.631 55.7696 170.985 57.1564 173.501 58.2738C177.742 60.3655 182.104 62.5108 183.728 66.4796C188.812 79.8877 185.563 98.4714 175.847 111.665C175.847 111.665 175.847 111.906 175.847 111.96C175.893 111.988 175.946 112.007 176.001 112.016C176.056 112.024 176.113 112.022 176.167 112.009C176.221 111.997 176.272 111.974 176.315 111.942C176.359 111.91 176.394 111.871 176.419 111.826C185.026 99.5695 188.241 84.9066 185.443 70.6629L185.262 69.9389C184.908 67.249 183.88 64.6647 182.254 62.3767C180.904 61.0839 179.174 60.1548 177.261 59.695C176.323 59.4018 175.409 59.0524 174.524 58.6492C170.429 56.7318 166.845 54.0508 164.017 50.7886C161.188 47.5263 159.18 43.7594 158.13 39.7437C158.041 39.6907 157.936 39.6623 157.829 39.6623C157.722 39.6623 157.617 39.6907 157.528 39.7437C158.01 43.498 158.611 47.3595 159.423 51.1406L158.04 51.6769C153.046 45.6778 149.139 39.0181 146.459 31.9401C146.44 31.8808 146.401 31.8283 146.347 31.7898C146.293 31.7514 146.227 31.7289 146.158 31.7256C146.085 31.7305 146.016 31.7568 145.961 31.8005C145.907 31.8442 145.87 31.9027 145.857 31.9669C144.399 35.2633 144.24 38.9037 145.406 42.2912C144.855 39.9804 144.784 37.5991 145.195 35.2654H146.669C149.883 42.6252 154.413 49.4718 160.085 55.5385C160.128 55.569 160.181 55.5856 160.236 55.5856C160.29 55.5856 160.343 55.569 160.386 55.5385C160.456 55.5008 160.512 55.4442 160.544 55.3768C160.577 55.3094 160.584 55.2346 160.566 55.1631C159.965 52.7764 159.544 50.363 159.153 48.0031L160.687 47.3595ZM199.28 26.2282L199.671 26.3892C200.329 26.0037 200.952 25.5733 201.536 25.102C202.659 24.1447 203.585 23.0193 204.273 21.7768C205.44 19.8594 205.782 17.6281 205.235 15.5017C204.58 13.2252 203.373 11.1043 201.7 9.28823C200.027 7.47213 197.927 6.00489 195.55 4.9897C193.309 3.78237 190.784 3.05476 188.174 2.86399C185.565 2.67322 182.941 3.02451 180.51 3.89026C179.549 4.28781 178.69 4.8571 177.986 5.56289C177.282 6.26868 176.749 7.0959 176.419 7.99316C175.673 10.1176 175.889 12.4178 177.02 14.4023C185.239 16.2054 192.698 20.0888 198.497 25.5847C198.821 25.7538 199.09 25.9938 199.28 26.2819V26.2282Z" fill="#010101"/>
<path d="M206.38 306.351H206.049L150.401 298.092C150.02 298.038 149.665 297.889 149.377 297.66C149.089 297.432 148.881 297.135 148.776 296.805L142.76 278.892C142.686 278.646 142.686 278.387 142.76 278.141L147.393 248.294V244.942C124.351 229.737 111.688 208.07 111.688 183.908C111.688 140.439 151.694 106.409 202.77 106.409C253.846 106.409 293.853 140.439 293.853 183.908C293.853 216.088 268.676 245.318 231.106 256.849L229.632 259.53L225.992 257.894L227.827 254.596C227.942 254.381 228.106 254.188 228.307 254.032C228.509 253.875 228.745 253.756 229 253.684C265.337 242.958 289.762 214.8 289.762 183.962C289.762 142.557 251.56 110.11 202.77 110.11C153.98 110.11 115.808 142.557 115.808 183.962C115.808 207.238 128.171 228.048 150.641 242.609C150.904 242.777 151.118 242.998 151.264 243.255C151.411 243.512 151.486 243.796 151.483 244.084V248.723L147.032 278.221L152.476 294.66L205.658 302.517L218.021 289.243L221.029 291.576L207.914 305.654C207.728 305.86 207.495 306.029 207.231 306.149C206.966 306.269 206.676 306.338 206.38 306.351Z" fill="#010101"/>
<path d="M194.678 313.646H194.317L159.846 307.8C159.447 307.733 159.08 307.562 158.791 307.309C158.502 307.056 158.304 306.732 158.221 306.378L156.176 297.609L160.176 296.859L161.951 304.448L193.716 309.811L199.311 301.766L202.77 303.724L196.423 312.68C196.251 312.962 196 313.2 195.694 313.369C195.388 313.538 195.038 313.633 194.678 313.646Z" fill="#010101"/>
<path d="M144.689 276.362L144.111 279.972L184.312 285.085L184.89 281.475L144.689 276.362Z" fill="#010101"/>
<path d="M148.501 262.738L147.918 266.348L200.647 273.113L201.229 269.504L148.501 262.738Z" fill="#010101"/>
<g style="mix-blend-mode:multiply" opacity="0.15">
<path d="M172.93 20.1409C184.151 30.7431 192.523 43.4796 197.415 57.3888C203.178 73.9842 207.058 91.0534 208.996 108.34L220.306 109.386C218.778 97.0966 216.529 84.8874 213.568 72.8082C210.765 60.2861 205.685 48.2568 198.528 37.1961L199.761 28.3735C199.761 28.3735 207.402 26.684 207.402 16.3866C207.402 6.0891 202.077 5.17737 202.077 5.17737C202.077 5.17737 196.603 24.5119 193.505 27.274C190.406 30.0361 172.93 20.1409 172.93 20.1409Z" fill="#010101"/>
</g>
<g style="mix-blend-mode:multiply" opacity="0.15">
<path d="M125.557 55.056L135.634 41.3797L138.07 39.2076L150.583 54.6806L148.929 40.0389L161.472 54.8683L163.909 50.3364L158.916 43.2837L159.607 55.7801L145.861 32.9862L144.026 37.9472L149.561 50.4168L151.396 56.1555L145.861 52.7767L136.867 34.8902L131.212 39.9585L125.557 55.056Z" fill="#010101"/>
</g>
<g style="mix-blend-mode:multiply" opacity="0.15">
<path d="M177.475 58.9442C177.475 58.9442 184.664 62.8862 185.717 67.8472C186.77 72.8082 186.89 79.0564 183.912 92.5719C180.934 106.087 175.219 112.309 175.219 112.309L171.579 112.899C171.579 112.899 181.175 89.8903 181.175 75.7044C181.175 61.5186 177.475 58.9442 177.475 58.9442Z" fill="#010101"/>
</g>
<g style="mix-blend-mode:multiply" opacity="0.15">
<path d="M250.9 121.319C250.9 121.319 296.471 139.42 290.696 194.903C286.665 233.76 229.573 255.401 229.573 255.401L225.602 258.78H222.203L224.88 248.965C224.88 248.965 282.033 237.729 280.589 176.212C280.138 153.284 250.9 121.319 250.9 121.319Z" fill="#010101"/>
</g>
<path d="M149.5 262.5L151.5 250.5L158 249.5L198.5 257C194.9 259.8 198 262.5 199.5 263.5L209.5 267L200.5 269.5L149.5 262.5Z" fill="white"/>
<g style="mix-blend-mode:multiply" opacity="0.15">
<path d="M164.899 248.482L162.312 266.61L160.597 279.616L166.613 298.092L168.418 307.371L160.236 305.976L158.161 297.207L150.791 296.296L145.166 276.156L149.347 248.402L164.899 248.482Z" fill="#010101"/>
</g>
<g style="mix-blend-mode:multiply" opacity="0.15">
<path d="M293.375 194.125C293.375 194.125 309.438 219.038 313.258 222.47C317.078 225.903 310.4 233.599 310.4 233.599L276.74 262.588L263.656 271.249L253.759 273.931L244.104 280.313L211.015 294.365L203.225 293.668C203.225 293.668 304.264 239.043 304.264 230.274C304.264 221.505 289.224 199.757 289.224 199.757L293.375 194.125Z" fill="#010101"/>
</g>
<g style="mix-blend-mode:multiply" opacity="0.15">
<path d="M229.271 288.921L236.551 309.892L239.559 330.299L231.046 331.935C231.046 331.935 232.34 310.642 227.617 300.72C222.894 290.798 222.293 288.921 222.293 288.921H229.271Z" fill="#010101"/>
</g>
<g style="mix-blend-mode:multiply" opacity="0.15">
<path d="M225.21 288.921L210.471 310.428L200.845 317.507L186.317 314.853L160.237 305.976L196.634 311.822V304.528H206.38L213.569 294.284L225.21 288.921Z" fill="#010101"/>
</g>
<g style="mix-blend-mode:multiply" opacity="0.15">
<path d="M108.948 157.414L111.324 160.095C111.324 160.095 100.495 174.496 105.639 199.649C110.783 224.803 115.054 215.525 110.783 233.143C108.376 243.986 110.827 255.239 117.611 264.491H109.339C105.686 262.823 102.756 260.125 101.004 256.817C99.2516 253.509 98.7767 249.777 99.653 246.203C101.342 236.519 102.447 226.762 102.962 216.973L99.9537 200.427L96.2539 187.448L102.27 165.673L108.948 157.414Z" fill="#010101"/>
</g>
<g style="mix-blend-mode:multiply" opacity="0.15">
<path d="M59.0781 170.741C59.0781 170.741 69.2752 203.082 73.1255 210.349C76.9758 217.616 90.6623 175.139 90.6623 175.139L99.0847 141.672L92.7979 144.354L88.0152 149.369L82.4804 169.83L79.0813 187.931L73.8474 194.688L68.3128 170.554L59.0781 170.741Z" fill="#010101"/>
</g>
<path d="M63 153L58.5 155.5L57.1204 148.142L61.5 146L63 153Z" fill="white"/>
<g style="mix-blend-mode:multiply" opacity="0.15">
<path d="M64.0104 139.849C64.284 141.578 64.1323 143.339 63.5661 145.011C63 146.683 62.0328 148.225 60.7316 149.53C56.3399 153.445 47.4662 158.084 49.6019 163.608C50.9404 167.058 52.5073 170.434 54.2944 173.718L61.0625 172.511L59.2878 163.26L60.0999 159.398L69.3345 150.468L70.3573 143.523L66.898 135.666L64.0104 139.849Z" fill="#010101"/>
</g>
<g style="mix-blend-mode:multiply" opacity="0.15">
<path d="M133.645 113.328L137.043 132.18L142.997 123.411L141.343 116.841L133.645 113.328Z" fill="#010101"/>
</g>
<path d="M251.862 105.953C270.451 112.068 287.386 128.077 295.207 144.086C296.2 146.097 299.509 144.354 298.546 142.343C290.274 125.449 272.436 109.064 252.884 102.655C250.568 101.904 249.545 105.337 251.862 105.953Z" fill="#231F20"/>
<path d="M324.863 213.085C327.36 220.647 332.473 228.826 328.352 236.629C325.735 241.59 320.622 245.237 317.373 249.903C316.05 251.781 319.388 253.524 320.682 251.646C324.622 245.988 331.15 241.778 333.135 235.128C335.481 227.083 331.059 219.628 328.593 212.173C328.457 211.732 328.131 211.357 327.685 211.131C327.239 210.904 326.711 210.845 326.217 210.966C325.722 211.087 325.302 211.378 325.048 211.775C324.794 212.173 324.727 212.644 324.863 213.085Z" fill="#231F20"/>
<path d="M87.231 251.083C86.1074 254.851 86.1132 258.816 87.2479 262.581C88.3826 266.346 90.6064 269.779 93.6966 272.536C95.4107 274.119 98.1472 271.705 96.4331 270.096C93.8063 267.769 91.9142 264.865 90.948 261.678C89.9818 258.49 89.9755 255.132 90.9298 251.941C91.0223 251.517 90.9319 251.078 90.6767 250.71C90.4216 250.343 90.0205 250.075 89.5534 249.96C89.0864 249.845 88.5879 249.891 88.1574 250.089C87.7269 250.288 87.396 250.623 87.231 251.03V251.083Z" fill="#231F20"/>
<path d="M4.90137 129.364C4.90137 139.688 7.48819 148.833 17.8057 154.518C19.9414 155.671 21.8666 152.694 19.761 151.541C10.5865 146.499 8.63121 138.428 8.75153 129.364C8.75153 128.909 8.54874 128.472 8.18771 128.15C7.82668 127.828 7.33712 127.648 6.82654 127.648C6.31596 127.648 5.82622 127.828 5.46519 128.15C5.10415 128.472 4.90137 128.909 4.90137 129.364Z" fill="#231F20"/>
<path d="M119.057 20.8649C121.102 13.6781 132.863 10.1384 140.293 9.92386C140.804 9.92386 141.293 9.74304 141.654 9.42118C142.015 9.09932 142.218 8.66279 142.218 8.20762C142.218 7.75244 142.015 7.31587 141.654 6.99402C141.293 6.67216 140.804 6.49133 140.293 6.49133C131.269 6.67905 117.853 11.1574 115.327 19.8995C115.26 20.1178 115.241 20.3459 115.273 20.5705C115.305 20.7951 115.386 21.012 115.511 21.2087C115.637 21.4054 115.805 21.5781 116.005 21.717C116.206 21.8558 116.435 21.9581 116.68 22.018C116.925 22.0779 117.181 22.0941 117.433 22.0659C117.685 22.0376 117.928 21.9655 118.149 21.8534C118.369 21.7413 118.563 21.5916 118.719 21.4128C118.875 21.234 118.989 21.0296 119.057 20.8113V20.8649Z" fill="#231F20"/>
<path d="M37.1178 55.0828C42.2314 56.7723 44.9687 60.6874 50.8042 60.0438C56.0683 59.4271 60.3696 55.4582 64.6109 52.9643L61.1217 52.5621C70.1457 59.2662 80.2526 58.703 90.9612 55.7264C94.4805 54.761 92.9765 49.7732 89.427 50.7654C81.0648 53.0984 72.5521 54.466 65.1824 48.9151C64.7218 48.53 64.1369 48.2839 63.5106 48.2117C62.8844 48.1395 62.2486 48.2449 61.6932 48.5128C56.7601 51.409 52.6692 55.8873 45.5703 53.5811C43.194 52.8034 41.1785 50.8995 38.6517 50.1218C35.1624 48.9687 33.6586 53.9297 37.1178 55.0828Z" fill="#231F20"/>
<path d="M89.0386 72.3255C83.8949 70.6361 81.1877 66.6941 75.3521 67.3645C70.058 67.9545 65.7867 71.9501 61.5153 74.4172L65.0347 74.8195C56.0106 68.1422 45.8737 68.6785 35.1952 71.6551C31.6458 72.6473 33.1498 77.6084 36.7293 76.6162C45.0916 74.2831 53.5742 72.9423 60.7934 78.4665C61.2541 78.8516 61.839 79.0976 62.4653 79.1698C63.0915 79.242 63.7273 79.1367 64.2827 78.8687C69.2158 75.9994 73.3067 71.4942 80.4056 73.8272C82.7819 74.6049 84.8275 76.5089 87.3242 77.2866C90.8435 78.4397 92.3474 73.4518 88.8882 72.3255H89.0386Z" fill="#231F20"/>
<path d="M85.0043 88.4154C85.2426 91.4612 84.4686 94.502 82.779 97.1575C82.5864 97.7281 82.6124 98.3396 82.8528 98.8955C83.0932 99.4514 83.5344 99.9201 84.1068 100.228C84.6792 100.535 85.35 100.664 86.0135 100.593C86.677 100.523 87.2954 100.258 87.7709 99.8392C89.9871 96.3986 91.032 92.4571 90.7781 88.4958C90.7781 85.1974 84.7638 85.1706 85.0043 88.4958V88.4154Z" fill="#231F20"/>
<path d="M71.1693 89.488C71.7707 93.4569 73.3045 97.8815 70.3875 101.368C68.1923 104.049 73.1842 106.731 75.3794 104.049C79.0182 99.6782 77.6951 94.5295 76.9432 89.5685C76.4621 86.3237 70.6881 86.2701 71.1693 89.5685V89.488Z" fill="#231F20"/>
<path d="M48.1285 21.8305C39.8264 24.083 33.5697 30.8944 36.307 38.832C36.6493 39.3246 37.1611 39.7051 37.7662 39.9166C38.3713 40.1281 39.0371 40.1592 39.6637 40.0052C40.2903 39.8512 40.844 39.5204 41.2421 39.0624C41.6401 38.6044 41.861 38.0437 41.8718 37.4644C40.067 32.262 44.3384 28.2396 49.6626 26.7379C50.2152 26.4328 50.6419 25.9763 50.8791 25.4369C51.1163 24.8974 51.1512 24.304 50.9784 23.7454C50.8057 23.1869 50.4347 22.6932 49.9209 22.3383C49.4072 21.9834 48.7784 21.7865 48.1285 21.7769V21.8305Z" fill="#231F20"/>
<path d="M31.9443 14.0538C24.9056 18.3176 18.7391 30.1436 26.981 35.7482C29.9891 37.7594 32.7865 33.3079 29.9891 31.2966C25.838 28.4809 32.0045 20.2752 34.9524 18.5053C37.9002 16.7354 35.1328 12.2034 31.9443 14.0538Z" fill="#231F20"/>
<path d="M100.5 326.5L112.5 266.5L144.5 265.5L142 279L143 282L150 299H156L159 307.5L196.5 313.5L201 306H208.5L220.5 292L226 289.5C234.4 300.3 235.833 318.667 235.5 326.5H100.5Z" fill="white"/>
<path d="M170 305.5V301L196.5 305.5L194 309.5L170 305.5Z" fill="white"/>
<path d="M161.01 277.983C161.093 277.481 161.69 271.596 162 268.5L191 272L183.5 275.5C179.1 277.1 180 279.833 181 281C174.438 279.852 161.417 277.67 161.01 277.983C161.003 278.022 161 278.029 161 278C161 277.994 161.003 277.988 161.01 277.983Z" fill="white"/>
<path d="M166 296.5L162 282.5L182.5 285C180.5 289 183.333 290.333 185 290.5V291C185 297 190.333 297.5 193 297L200 294.5L201 296.5C203 298.1 208.833 296.833 211.5 296L205.5 302.5L166 296.5Z" fill="white"/>
<path d="M231 261.5L237 275L239.5 279.5L214.5 291.5L210.5 293L207.5 294H207H204.5H204L203.5 292.5L212 288.5L217 285.773C218 284.773 219.5 282.473 215.5 283.273C215.151 283.343 214.862 283.397 214.625 283.438L204.5 288.5L200.5 290.5L196 292L193.5 293L193 292C192.667 291.5 192.1 290.9 192.5 290.5C192.9 290.1 203 285.167 209.5 282C209.834 280.833 209.8 279.2 207 280C202.5 283 192 287 190 287C188.334 287 185.6 286.5 188 284.5L200.5 280.5C200.5 279.667 200.2 278 199 278C197.5 278 187 281.5 185.5 280.5C184.166 279.333 184.3 276.3 195.5 273.5L218.5 267.5C218.833 266.333 219 264.1 217 264.5L202.5 260.5C202 259.667 202.2 258.1 207 258.5L231 261.5Z" fill="white"/>
</svg>
