<svg width="52" height="38" viewBox="0 0 52 38" fill="none" xmlns="http://www.w3.org/2000/svg">
<path d="M50.8781 37.0455C50.7884 37.0597 50.697 37.0597 50.6074 37.0455C46.0347 35.5255 40.5796 34.0455 39.5768 34.4255C35.3606 36.2143 30.8217 37.123 26.2399 37.0955C12.201 37.0955 0.759277 28.9555 0.759277 18.9555C0.759277 8.95551 12.1909 0.8255 26.2399 0.8255C40.2888 0.8255 51.7205 8.96551 51.7205 18.9555C51.7078 21.7105 50.8697 24.3989 49.3138 26.6755C48.7522 27.5355 50.0759 32.1455 51.6603 35.9055C51.7231 36.0574 51.7404 36.2242 51.7102 36.3857C51.6799 36.5472 51.6034 36.6965 51.4898 36.8155C51.4084 36.8926 51.3123 36.9526 51.2073 36.9921C51.1022 37.0316 50.9903 37.0497 50.8781 37.0455ZM26.2499 2.4855C13.1436 2.4855 2.48406 9.85552 2.48406 18.9055C2.48406 27.9555 13.1436 35.3355 26.2499 35.3355C30.5977 35.3678 34.9056 34.5065 38.9049 32.8055C40.3991 32.1455 45.8742 33.6955 49.404 34.8055C48.321 31.9655 46.8269 27.3055 47.8998 25.6755C49.2655 23.675 50.0054 21.3155 50.0258 18.8955C50.0258 9.85551 39.3562 2.4855 26.2499 2.4855Z" fill="#010101"/>
</svg>
